G75*
G70*
%OFA0B0*%
%FSLAX24Y24*%
%IPPOS*%
%LPD*%
%AMOC8*
5,1,8,0,0,1.08239X$1,22.5*
%
%ADD10C,0.0059*%
%ADD11C,0.0045*%
%ADD12C,0.0054*%
%ADD13C,0.2009*%
%ADD14C,0.0098*%
%ADD15R,0.0118X0.0453*%
%ADD16C,0.0216*%
%ADD17C,0.0055*%
%ADD18C,0.0046*%
%ADD19C,0.0044*%
%ADD20C,0.1181*%
%ADD21C,0.0780*%
%ADD22C,0.0051*%
%ADD23C,0.0057*%
%ADD24C,0.0043*%
%ADD25C,0.0047*%
%ADD26OC8,0.0890*%
%ADD27C,0.0047*%
%ADD28C,0.0138*%
%ADD29C,0.0049*%
%ADD30C,0.0079*%
%ADD31C,0.0067*%
%ADD32C,0.0046*%
%ADD33C,0.0087*%
%ADD34C,0.0046*%
%ADD35C,0.0047*%
%ADD36R,0.0476X0.0476*%
%ADD37C,0.0476*%
%ADD38C,0.0048*%
%ADD39OC8,0.0700*%
%ADD40OC8,0.0780*%
%ADD41C,0.0335*%
%ADD42C,0.0453*%
%ADD43C,0.0315*%
%ADD44C,0.0540*%
%ADD45C,0.0057*%
%ADD46C,0.0069*%
%ADD47C,0.0059*%
%ADD48C,0.0552*%
%ADD49C,0.0077*%
%ADD50C,0.0113*%
%ADD51C,0.0047*%
%ADD52C,0.0394*%
D10*
X006019Y008654D02*
X006019Y009186D01*
X006551Y009186D01*
X006551Y008654D01*
X006019Y008654D01*
X006019Y008712D02*
X006551Y008712D01*
X006551Y008770D02*
X006019Y008770D01*
X006019Y008828D02*
X006551Y008828D01*
X006551Y008886D02*
X006019Y008886D01*
X006019Y008944D02*
X006551Y008944D01*
X006551Y009002D02*
X006019Y009002D01*
X006019Y009060D02*
X006551Y009060D01*
X006551Y009118D02*
X006019Y009118D01*
X006019Y009176D02*
X006551Y009176D01*
X006806Y009186D02*
X006806Y008654D01*
X006806Y009186D02*
X007338Y009186D01*
X007338Y008654D01*
X006806Y008654D01*
X006806Y008712D02*
X007338Y008712D01*
X007338Y008770D02*
X006806Y008770D01*
X006806Y008828D02*
X007338Y008828D01*
X007338Y008886D02*
X006806Y008886D01*
X006806Y008944D02*
X007338Y008944D01*
X007338Y009002D02*
X006806Y009002D01*
X006806Y009060D02*
X007338Y009060D01*
X007338Y009118D02*
X006806Y009118D01*
X006806Y009176D02*
X007338Y009176D01*
X007593Y009186D02*
X007593Y008654D01*
X007593Y009186D02*
X008125Y009186D01*
X008125Y008654D01*
X007593Y008654D01*
X007593Y008712D02*
X008125Y008712D01*
X008125Y008770D02*
X007593Y008770D01*
X007593Y008828D02*
X008125Y008828D01*
X008125Y008886D02*
X007593Y008886D01*
X007593Y008944D02*
X008125Y008944D01*
X008125Y009002D02*
X007593Y009002D01*
X007593Y009060D02*
X008125Y009060D01*
X008125Y009118D02*
X007593Y009118D01*
X007593Y009176D02*
X008125Y009176D01*
X008381Y009186D02*
X008381Y008654D01*
X008381Y009186D02*
X008913Y009186D01*
X008913Y008654D01*
X008381Y008654D01*
X008381Y008712D02*
X008913Y008712D01*
X008913Y008770D02*
X008381Y008770D01*
X008381Y008828D02*
X008913Y008828D01*
X008913Y008886D02*
X008381Y008886D01*
X008381Y008944D02*
X008913Y008944D01*
X008913Y009002D02*
X008381Y009002D01*
X008381Y009060D02*
X008913Y009060D01*
X008913Y009118D02*
X008381Y009118D01*
X008381Y009176D02*
X008913Y009176D01*
X009168Y009186D02*
X009168Y008654D01*
X009168Y009186D02*
X009700Y009186D01*
X009700Y008654D01*
X009168Y008654D01*
X009168Y008712D02*
X009700Y008712D01*
X009700Y008770D02*
X009168Y008770D01*
X009168Y008828D02*
X009700Y008828D01*
X009700Y008886D02*
X009168Y008886D01*
X009168Y008944D02*
X009700Y008944D01*
X009700Y009002D02*
X009168Y009002D01*
X009168Y009060D02*
X009700Y009060D01*
X009700Y009118D02*
X009168Y009118D01*
X009168Y009176D02*
X009700Y009176D01*
X009956Y009186D02*
X009956Y008654D01*
X009956Y009186D02*
X010488Y009186D01*
X010488Y008654D01*
X009956Y008654D01*
X009956Y008712D02*
X010488Y008712D01*
X010488Y008770D02*
X009956Y008770D01*
X009956Y008828D02*
X010488Y008828D01*
X010488Y008886D02*
X009956Y008886D01*
X009956Y008944D02*
X010488Y008944D01*
X010488Y009002D02*
X009956Y009002D01*
X009956Y009060D02*
X010488Y009060D01*
X010488Y009118D02*
X009956Y009118D01*
X009956Y009176D02*
X010488Y009176D01*
X010743Y009186D02*
X010743Y008654D01*
X010743Y009186D02*
X011275Y009186D01*
X011275Y008654D01*
X010743Y008654D01*
X010743Y008712D02*
X011275Y008712D01*
X011275Y008770D02*
X010743Y008770D01*
X010743Y008828D02*
X011275Y008828D01*
X011275Y008886D02*
X010743Y008886D01*
X010743Y008944D02*
X011275Y008944D01*
X011275Y009002D02*
X010743Y009002D01*
X010743Y009060D02*
X011275Y009060D01*
X011275Y009118D02*
X010743Y009118D01*
X010743Y009176D02*
X011275Y009176D01*
X011570Y009954D02*
X012102Y009954D01*
X012102Y009422D01*
X011570Y009422D01*
X011570Y009954D01*
X011570Y009480D02*
X012102Y009480D01*
X012102Y009538D02*
X011570Y009538D01*
X011570Y009596D02*
X012102Y009596D01*
X012102Y009654D02*
X011570Y009654D01*
X011570Y009712D02*
X012102Y009712D01*
X012102Y009770D02*
X011570Y009770D01*
X011570Y009828D02*
X012102Y009828D01*
X012102Y009886D02*
X011570Y009886D01*
X011570Y009944D02*
X012102Y009944D01*
X012102Y010741D02*
X011570Y010741D01*
X012102Y010741D02*
X012102Y010209D01*
X011570Y010209D01*
X011570Y010741D01*
X011570Y010267D02*
X012102Y010267D01*
X012102Y010325D02*
X011570Y010325D01*
X011570Y010383D02*
X012102Y010383D01*
X012102Y010441D02*
X011570Y010441D01*
X011570Y010499D02*
X012102Y010499D01*
X012102Y010557D02*
X011570Y010557D01*
X011570Y010615D02*
X012102Y010615D01*
X012102Y010673D02*
X011570Y010673D01*
X011570Y010731D02*
X012102Y010731D01*
X012102Y011529D02*
X011570Y011529D01*
X012102Y011529D02*
X012102Y010997D01*
X011570Y010997D01*
X011570Y011529D01*
X011570Y011055D02*
X012102Y011055D01*
X012102Y011113D02*
X011570Y011113D01*
X011570Y011171D02*
X012102Y011171D01*
X012102Y011229D02*
X011570Y011229D01*
X011570Y011287D02*
X012102Y011287D01*
X012102Y011345D02*
X011570Y011345D01*
X011570Y011403D02*
X012102Y011403D01*
X012102Y011461D02*
X011570Y011461D01*
X011570Y011519D02*
X012102Y011519D01*
X012102Y012316D02*
X011570Y012316D01*
X012102Y012316D02*
X012102Y011784D01*
X011570Y011784D01*
X011570Y012316D01*
X011570Y011842D02*
X012102Y011842D01*
X012102Y011900D02*
X011570Y011900D01*
X011570Y011958D02*
X012102Y011958D01*
X012102Y012016D02*
X011570Y012016D01*
X011570Y012074D02*
X012102Y012074D01*
X012102Y012132D02*
X011570Y012132D01*
X011570Y012190D02*
X012102Y012190D01*
X012102Y012248D02*
X011570Y012248D01*
X011570Y012306D02*
X012102Y012306D01*
X012102Y013103D02*
X011570Y013103D01*
X012102Y013103D02*
X012102Y012571D01*
X011570Y012571D01*
X011570Y013103D01*
X011570Y012629D02*
X012102Y012629D01*
X012102Y012687D02*
X011570Y012687D01*
X011570Y012745D02*
X012102Y012745D01*
X012102Y012803D02*
X011570Y012803D01*
X011570Y012861D02*
X012102Y012861D01*
X012102Y012919D02*
X011570Y012919D01*
X011570Y012977D02*
X012102Y012977D01*
X012102Y013035D02*
X011570Y013035D01*
X011570Y013093D02*
X012102Y013093D01*
X012102Y013891D02*
X011570Y013891D01*
X012102Y013891D02*
X012102Y013359D01*
X011570Y013359D01*
X011570Y013891D01*
X011570Y013417D02*
X012102Y013417D01*
X012102Y013475D02*
X011570Y013475D01*
X011570Y013533D02*
X012102Y013533D01*
X012102Y013591D02*
X011570Y013591D01*
X011570Y013649D02*
X012102Y013649D01*
X012102Y013707D02*
X011570Y013707D01*
X011570Y013765D02*
X012102Y013765D01*
X012102Y013823D02*
X011570Y013823D01*
X011570Y013881D02*
X012102Y013881D01*
X012102Y014678D02*
X011570Y014678D01*
X012102Y014678D02*
X012102Y014146D01*
X011570Y014146D01*
X011570Y014678D01*
X011570Y014204D02*
X012102Y014204D01*
X012102Y014262D02*
X011570Y014262D01*
X011570Y014320D02*
X012102Y014320D01*
X012102Y014378D02*
X011570Y014378D01*
X011570Y014436D02*
X012102Y014436D01*
X012102Y014494D02*
X011570Y014494D01*
X011570Y014552D02*
X012102Y014552D01*
X012102Y014610D02*
X011570Y014610D01*
X011570Y014668D02*
X012102Y014668D01*
X010743Y014914D02*
X010743Y015446D01*
X011275Y015446D01*
X011275Y014914D01*
X010743Y014914D01*
X010743Y014972D02*
X011275Y014972D01*
X011275Y015030D02*
X010743Y015030D01*
X010743Y015088D02*
X011275Y015088D01*
X011275Y015146D02*
X010743Y015146D01*
X010743Y015204D02*
X011275Y015204D01*
X011275Y015262D02*
X010743Y015262D01*
X010743Y015320D02*
X011275Y015320D01*
X011275Y015378D02*
X010743Y015378D01*
X010743Y015436D02*
X011275Y015436D01*
X009956Y015446D02*
X009956Y014914D01*
X009956Y015446D02*
X010488Y015446D01*
X010488Y014914D01*
X009956Y014914D01*
X009956Y014972D02*
X010488Y014972D01*
X010488Y015030D02*
X009956Y015030D01*
X009956Y015088D02*
X010488Y015088D01*
X010488Y015146D02*
X009956Y015146D01*
X009956Y015204D02*
X010488Y015204D01*
X010488Y015262D02*
X009956Y015262D01*
X009956Y015320D02*
X010488Y015320D01*
X010488Y015378D02*
X009956Y015378D01*
X009956Y015436D02*
X010488Y015436D01*
X009168Y015446D02*
X009168Y014914D01*
X009168Y015446D02*
X009700Y015446D01*
X009700Y014914D01*
X009168Y014914D01*
X009168Y014972D02*
X009700Y014972D01*
X009700Y015030D02*
X009168Y015030D01*
X009168Y015088D02*
X009700Y015088D01*
X009700Y015146D02*
X009168Y015146D01*
X009168Y015204D02*
X009700Y015204D01*
X009700Y015262D02*
X009168Y015262D01*
X009168Y015320D02*
X009700Y015320D01*
X009700Y015378D02*
X009168Y015378D01*
X009168Y015436D02*
X009700Y015436D01*
X008381Y015446D02*
X008381Y014914D01*
X008381Y015446D02*
X008913Y015446D01*
X008913Y014914D01*
X008381Y014914D01*
X008381Y014972D02*
X008913Y014972D01*
X008913Y015030D02*
X008381Y015030D01*
X008381Y015088D02*
X008913Y015088D01*
X008913Y015146D02*
X008381Y015146D01*
X008381Y015204D02*
X008913Y015204D01*
X008913Y015262D02*
X008381Y015262D01*
X008381Y015320D02*
X008913Y015320D01*
X008913Y015378D02*
X008381Y015378D01*
X008381Y015436D02*
X008913Y015436D01*
X007593Y015446D02*
X007593Y014914D01*
X007593Y015446D02*
X008125Y015446D01*
X008125Y014914D01*
X007593Y014914D01*
X007593Y014972D02*
X008125Y014972D01*
X008125Y015030D02*
X007593Y015030D01*
X007593Y015088D02*
X008125Y015088D01*
X008125Y015146D02*
X007593Y015146D01*
X007593Y015204D02*
X008125Y015204D01*
X008125Y015262D02*
X007593Y015262D01*
X007593Y015320D02*
X008125Y015320D01*
X008125Y015378D02*
X007593Y015378D01*
X007593Y015436D02*
X008125Y015436D01*
X006806Y015446D02*
X006806Y014914D01*
X006806Y015446D02*
X007338Y015446D01*
X007338Y014914D01*
X006806Y014914D01*
X006806Y014972D02*
X007338Y014972D01*
X007338Y015030D02*
X006806Y015030D01*
X006806Y015088D02*
X007338Y015088D01*
X007338Y015146D02*
X006806Y015146D01*
X006806Y015204D02*
X007338Y015204D01*
X007338Y015262D02*
X006806Y015262D01*
X006806Y015320D02*
X007338Y015320D01*
X007338Y015378D02*
X006806Y015378D01*
X006806Y015436D02*
X007338Y015436D01*
X006019Y015446D02*
X006019Y014914D01*
X006019Y015446D02*
X006551Y015446D01*
X006551Y014914D01*
X006019Y014914D01*
X006019Y014972D02*
X006551Y014972D01*
X006551Y015030D02*
X006019Y015030D01*
X006019Y015088D02*
X006551Y015088D01*
X006551Y015146D02*
X006019Y015146D01*
X006019Y015204D02*
X006551Y015204D01*
X006551Y015262D02*
X006019Y015262D01*
X006019Y015320D02*
X006551Y015320D01*
X006551Y015378D02*
X006019Y015378D01*
X006019Y015436D02*
X006551Y015436D01*
D11*
X019944Y020694D02*
X019944Y021102D01*
X019944Y020694D02*
X019436Y020694D01*
X019436Y021102D01*
X019944Y021102D01*
X019944Y020738D02*
X019436Y020738D01*
X019436Y020782D02*
X019944Y020782D01*
X019944Y020826D02*
X019436Y020826D01*
X019436Y020870D02*
X019944Y020870D01*
X019944Y020914D02*
X019436Y020914D01*
X019436Y020958D02*
X019944Y020958D01*
X019944Y021002D02*
X019436Y021002D01*
X019436Y021046D02*
X019944Y021046D01*
X019944Y021090D02*
X019436Y021090D01*
X019944Y021423D02*
X019944Y021831D01*
X019944Y021423D02*
X019436Y021423D01*
X019436Y021831D01*
X019944Y021831D01*
X019944Y021467D02*
X019436Y021467D01*
X019436Y021511D02*
X019944Y021511D01*
X019944Y021555D02*
X019436Y021555D01*
X019436Y021599D02*
X019944Y021599D01*
X019944Y021643D02*
X019436Y021643D01*
X019436Y021687D02*
X019944Y021687D01*
X019944Y021731D02*
X019436Y021731D01*
X019436Y021775D02*
X019944Y021775D01*
X019944Y021819D02*
X019436Y021819D01*
X020850Y021831D02*
X020850Y021423D01*
X020342Y021423D01*
X020342Y021831D01*
X020850Y021831D01*
X020850Y021467D02*
X020342Y021467D01*
X020342Y021511D02*
X020850Y021511D01*
X020850Y021555D02*
X020342Y021555D01*
X020342Y021599D02*
X020850Y021599D01*
X020850Y021643D02*
X020342Y021643D01*
X020342Y021687D02*
X020850Y021687D01*
X020850Y021731D02*
X020342Y021731D01*
X020342Y021775D02*
X020850Y021775D01*
X020850Y021819D02*
X020342Y021819D01*
X020850Y021102D02*
X020850Y020694D01*
X020342Y020694D01*
X020342Y021102D01*
X020850Y021102D01*
X020850Y020738D02*
X020342Y020738D01*
X020342Y020782D02*
X020850Y020782D01*
X020850Y020826D02*
X020342Y020826D01*
X020342Y020870D02*
X020850Y020870D01*
X020850Y020914D02*
X020342Y020914D01*
X020342Y020958D02*
X020850Y020958D01*
X020850Y021002D02*
X020342Y021002D01*
X020342Y021046D02*
X020850Y021046D01*
X020850Y021090D02*
X020342Y021090D01*
D12*
X018339Y021526D02*
X018339Y021630D01*
X018797Y021630D01*
X018797Y021526D01*
X018339Y021526D01*
X018339Y021579D02*
X018797Y021579D01*
X018339Y021722D02*
X018339Y021826D01*
X018797Y021826D01*
X018797Y021722D01*
X018339Y021722D01*
X018339Y021775D02*
X018797Y021775D01*
X018339Y021919D02*
X018339Y022023D01*
X018797Y022023D01*
X018797Y021919D01*
X018339Y021919D01*
X018339Y021972D02*
X018797Y021972D01*
X018339Y022116D02*
X018339Y022220D01*
X018797Y022220D01*
X018797Y022116D01*
X018339Y022116D01*
X018339Y022169D02*
X018797Y022169D01*
X018339Y022313D02*
X018339Y022417D01*
X018797Y022417D01*
X018797Y022313D01*
X018339Y022313D01*
X018339Y022366D02*
X018797Y022366D01*
X018339Y022510D02*
X018339Y022614D01*
X018797Y022614D01*
X018797Y022510D01*
X018339Y022510D01*
X018339Y022563D02*
X018797Y022563D01*
X018339Y022707D02*
X018339Y022811D01*
X018797Y022811D01*
X018797Y022707D01*
X018339Y022707D01*
X018339Y022760D02*
X018797Y022760D01*
X018339Y022904D02*
X018339Y023008D01*
X018797Y023008D01*
X018797Y022904D01*
X018339Y022904D01*
X018339Y022957D02*
X018797Y022957D01*
X018339Y023100D02*
X018339Y023204D01*
X018797Y023204D01*
X018797Y023100D01*
X018339Y023100D01*
X018339Y023153D02*
X018797Y023153D01*
X018339Y023297D02*
X018339Y023401D01*
X018797Y023401D01*
X018797Y023297D01*
X018339Y023297D01*
X018339Y023350D02*
X018797Y023350D01*
X018339Y023494D02*
X018339Y023598D01*
X018797Y023598D01*
X018797Y023494D01*
X018339Y023494D01*
X018339Y023547D02*
X018797Y023547D01*
X018339Y023691D02*
X018339Y023795D01*
X018797Y023795D01*
X018797Y023691D01*
X018339Y023691D01*
X018339Y023744D02*
X018797Y023744D01*
X018339Y023888D02*
X018339Y023992D01*
X018797Y023992D01*
X018797Y023888D01*
X018339Y023888D01*
X018339Y023941D02*
X018797Y023941D01*
X018339Y024085D02*
X018339Y024189D01*
X018797Y024189D01*
X018797Y024085D01*
X018339Y024085D01*
X018339Y024138D02*
X018797Y024138D01*
X018339Y024282D02*
X018339Y024386D01*
X018797Y024386D01*
X018797Y024282D01*
X018339Y024282D01*
X018339Y024335D02*
X018797Y024335D01*
X018339Y024478D02*
X018339Y024582D01*
X018797Y024582D01*
X018797Y024478D01*
X018339Y024478D01*
X018339Y024531D02*
X018797Y024531D01*
X018339Y024675D02*
X018339Y024779D01*
X018797Y024779D01*
X018797Y024675D01*
X018339Y024675D01*
X018339Y024728D02*
X018797Y024728D01*
X018339Y024872D02*
X018339Y024976D01*
X018797Y024976D01*
X018797Y024872D01*
X018339Y024872D01*
X018339Y024925D02*
X018797Y024925D01*
X018339Y025069D02*
X018339Y025173D01*
X018797Y025173D01*
X018797Y025069D01*
X018339Y025069D01*
X018339Y025122D02*
X018797Y025122D01*
X018339Y025266D02*
X018339Y025370D01*
X018797Y025370D01*
X018797Y025266D01*
X018339Y025266D01*
X018339Y025319D02*
X018797Y025319D01*
X018339Y025463D02*
X018339Y025567D01*
X018797Y025567D01*
X018797Y025463D01*
X018339Y025463D01*
X018339Y025516D02*
X018797Y025516D01*
X018339Y025659D02*
X018339Y025763D01*
X018797Y025763D01*
X018797Y025659D01*
X018339Y025659D01*
X018339Y025712D02*
X018797Y025712D01*
X018339Y025856D02*
X018339Y025960D01*
X018797Y025960D01*
X018797Y025856D01*
X018339Y025856D01*
X018339Y025909D02*
X018797Y025909D01*
X018339Y026053D02*
X018339Y026157D01*
X018797Y026157D01*
X018797Y026053D01*
X018339Y026053D01*
X018339Y026106D02*
X018797Y026106D01*
X018339Y026250D02*
X018339Y026354D01*
X018797Y026354D01*
X018797Y026250D01*
X018339Y026250D01*
X018339Y026303D02*
X018797Y026303D01*
X018339Y026447D02*
X018339Y026551D01*
X018797Y026551D01*
X018797Y026447D01*
X018339Y026447D01*
X018339Y026500D02*
X018797Y026500D01*
X018339Y026644D02*
X018339Y026748D01*
X018797Y026748D01*
X018797Y026644D01*
X018339Y026644D01*
X018339Y026697D02*
X018797Y026697D01*
X018339Y026841D02*
X018339Y026945D01*
X018797Y026945D01*
X018797Y026841D01*
X018339Y026841D01*
X018339Y026894D02*
X018797Y026894D01*
X018339Y027037D02*
X018339Y027141D01*
X018797Y027141D01*
X018797Y027037D01*
X018339Y027037D01*
X018339Y027090D02*
X018797Y027090D01*
X018339Y027234D02*
X018339Y027338D01*
X018797Y027338D01*
X018797Y027234D01*
X018339Y027234D01*
X018339Y027287D02*
X018797Y027287D01*
X018339Y027431D02*
X018339Y027535D01*
X018797Y027535D01*
X018797Y027431D01*
X018339Y027431D01*
X018339Y027484D02*
X018797Y027484D01*
X018339Y027628D02*
X018339Y027732D01*
X018797Y027732D01*
X018797Y027628D01*
X018339Y027628D01*
X018339Y027681D02*
X018797Y027681D01*
X018339Y027825D02*
X018339Y027929D01*
X018797Y027929D01*
X018797Y027825D01*
X018339Y027825D01*
X018339Y027878D02*
X018797Y027878D01*
X018339Y028022D02*
X018339Y028126D01*
X018797Y028126D01*
X018797Y028022D01*
X018339Y028022D01*
X018339Y028075D02*
X018797Y028075D01*
X018339Y028219D02*
X018339Y028323D01*
X018797Y028323D01*
X018797Y028219D01*
X018339Y028219D01*
X018339Y028272D02*
X018797Y028272D01*
X018339Y028415D02*
X018339Y028519D01*
X018797Y028519D01*
X018797Y028415D01*
X018339Y028415D01*
X018339Y028468D02*
X018797Y028468D01*
X017709Y029045D02*
X017709Y029503D01*
X017813Y029503D01*
X017813Y029045D01*
X017709Y029045D01*
X017709Y029098D02*
X017813Y029098D01*
X017813Y029151D02*
X017709Y029151D01*
X017709Y029204D02*
X017813Y029204D01*
X017813Y029257D02*
X017709Y029257D01*
X017709Y029310D02*
X017813Y029310D01*
X017813Y029363D02*
X017709Y029363D01*
X017709Y029416D02*
X017813Y029416D01*
X017813Y029469D02*
X017709Y029469D01*
X017512Y029503D02*
X017512Y029045D01*
X017512Y029503D02*
X017616Y029503D01*
X017616Y029045D01*
X017512Y029045D01*
X017512Y029098D02*
X017616Y029098D01*
X017616Y029151D02*
X017512Y029151D01*
X017512Y029204D02*
X017616Y029204D01*
X017616Y029257D02*
X017512Y029257D01*
X017512Y029310D02*
X017616Y029310D01*
X017616Y029363D02*
X017512Y029363D01*
X017512Y029416D02*
X017616Y029416D01*
X017616Y029469D02*
X017512Y029469D01*
X017315Y029503D02*
X017315Y029045D01*
X017315Y029503D02*
X017419Y029503D01*
X017419Y029045D01*
X017315Y029045D01*
X017315Y029098D02*
X017419Y029098D01*
X017419Y029151D02*
X017315Y029151D01*
X017315Y029204D02*
X017419Y029204D01*
X017419Y029257D02*
X017315Y029257D01*
X017315Y029310D02*
X017419Y029310D01*
X017419Y029363D02*
X017315Y029363D01*
X017315Y029416D02*
X017419Y029416D01*
X017419Y029469D02*
X017315Y029469D01*
X017119Y029503D02*
X017119Y029045D01*
X017119Y029503D02*
X017223Y029503D01*
X017223Y029045D01*
X017119Y029045D01*
X017119Y029098D02*
X017223Y029098D01*
X017223Y029151D02*
X017119Y029151D01*
X017119Y029204D02*
X017223Y029204D01*
X017223Y029257D02*
X017119Y029257D01*
X017119Y029310D02*
X017223Y029310D01*
X017223Y029363D02*
X017119Y029363D01*
X017119Y029416D02*
X017223Y029416D01*
X017223Y029469D02*
X017119Y029469D01*
X016922Y029503D02*
X016922Y029045D01*
X016922Y029503D02*
X017026Y029503D01*
X017026Y029045D01*
X016922Y029045D01*
X016922Y029098D02*
X017026Y029098D01*
X017026Y029151D02*
X016922Y029151D01*
X016922Y029204D02*
X017026Y029204D01*
X017026Y029257D02*
X016922Y029257D01*
X016922Y029310D02*
X017026Y029310D01*
X017026Y029363D02*
X016922Y029363D01*
X016922Y029416D02*
X017026Y029416D01*
X017026Y029469D02*
X016922Y029469D01*
X016725Y029503D02*
X016725Y029045D01*
X016725Y029503D02*
X016829Y029503D01*
X016829Y029045D01*
X016725Y029045D01*
X016725Y029098D02*
X016829Y029098D01*
X016829Y029151D02*
X016725Y029151D01*
X016725Y029204D02*
X016829Y029204D01*
X016829Y029257D02*
X016725Y029257D01*
X016725Y029310D02*
X016829Y029310D01*
X016829Y029363D02*
X016725Y029363D01*
X016725Y029416D02*
X016829Y029416D01*
X016829Y029469D02*
X016725Y029469D01*
X016528Y029503D02*
X016528Y029045D01*
X016528Y029503D02*
X016632Y029503D01*
X016632Y029045D01*
X016528Y029045D01*
X016528Y029098D02*
X016632Y029098D01*
X016632Y029151D02*
X016528Y029151D01*
X016528Y029204D02*
X016632Y029204D01*
X016632Y029257D02*
X016528Y029257D01*
X016528Y029310D02*
X016632Y029310D01*
X016632Y029363D02*
X016528Y029363D01*
X016528Y029416D02*
X016632Y029416D01*
X016632Y029469D02*
X016528Y029469D01*
X016331Y029503D02*
X016331Y029045D01*
X016331Y029503D02*
X016435Y029503D01*
X016435Y029045D01*
X016331Y029045D01*
X016331Y029098D02*
X016435Y029098D01*
X016435Y029151D02*
X016331Y029151D01*
X016331Y029204D02*
X016435Y029204D01*
X016435Y029257D02*
X016331Y029257D01*
X016331Y029310D02*
X016435Y029310D01*
X016435Y029363D02*
X016331Y029363D01*
X016331Y029416D02*
X016435Y029416D01*
X016435Y029469D02*
X016331Y029469D01*
X016134Y029503D02*
X016134Y029045D01*
X016134Y029503D02*
X016238Y029503D01*
X016238Y029045D01*
X016134Y029045D01*
X016134Y029098D02*
X016238Y029098D01*
X016238Y029151D02*
X016134Y029151D01*
X016134Y029204D02*
X016238Y029204D01*
X016238Y029257D02*
X016134Y029257D01*
X016134Y029310D02*
X016238Y029310D01*
X016238Y029363D02*
X016134Y029363D01*
X016134Y029416D02*
X016238Y029416D01*
X016238Y029469D02*
X016134Y029469D01*
X015937Y029503D02*
X015937Y029045D01*
X015937Y029503D02*
X016041Y029503D01*
X016041Y029045D01*
X015937Y029045D01*
X015937Y029098D02*
X016041Y029098D01*
X016041Y029151D02*
X015937Y029151D01*
X015937Y029204D02*
X016041Y029204D01*
X016041Y029257D02*
X015937Y029257D01*
X015937Y029310D02*
X016041Y029310D01*
X016041Y029363D02*
X015937Y029363D01*
X015937Y029416D02*
X016041Y029416D01*
X016041Y029469D02*
X015937Y029469D01*
X015741Y029503D02*
X015741Y029045D01*
X015741Y029503D02*
X015845Y029503D01*
X015845Y029045D01*
X015741Y029045D01*
X015741Y029098D02*
X015845Y029098D01*
X015845Y029151D02*
X015741Y029151D01*
X015741Y029204D02*
X015845Y029204D01*
X015845Y029257D02*
X015741Y029257D01*
X015741Y029310D02*
X015845Y029310D01*
X015845Y029363D02*
X015741Y029363D01*
X015741Y029416D02*
X015845Y029416D01*
X015845Y029469D02*
X015741Y029469D01*
X015544Y029503D02*
X015544Y029045D01*
X015544Y029503D02*
X015648Y029503D01*
X015648Y029045D01*
X015544Y029045D01*
X015544Y029098D02*
X015648Y029098D01*
X015648Y029151D02*
X015544Y029151D01*
X015544Y029204D02*
X015648Y029204D01*
X015648Y029257D02*
X015544Y029257D01*
X015544Y029310D02*
X015648Y029310D01*
X015648Y029363D02*
X015544Y029363D01*
X015544Y029416D02*
X015648Y029416D01*
X015648Y029469D02*
X015544Y029469D01*
X015347Y029503D02*
X015347Y029045D01*
X015347Y029503D02*
X015451Y029503D01*
X015451Y029045D01*
X015347Y029045D01*
X015347Y029098D02*
X015451Y029098D01*
X015451Y029151D02*
X015347Y029151D01*
X015347Y029204D02*
X015451Y029204D01*
X015451Y029257D02*
X015347Y029257D01*
X015347Y029310D02*
X015451Y029310D01*
X015451Y029363D02*
X015347Y029363D01*
X015347Y029416D02*
X015451Y029416D01*
X015451Y029469D02*
X015347Y029469D01*
X015150Y029503D02*
X015150Y029045D01*
X015150Y029503D02*
X015254Y029503D01*
X015254Y029045D01*
X015150Y029045D01*
X015150Y029098D02*
X015254Y029098D01*
X015254Y029151D02*
X015150Y029151D01*
X015150Y029204D02*
X015254Y029204D01*
X015254Y029257D02*
X015150Y029257D01*
X015150Y029310D02*
X015254Y029310D01*
X015254Y029363D02*
X015150Y029363D01*
X015150Y029416D02*
X015254Y029416D01*
X015254Y029469D02*
X015150Y029469D01*
X014953Y029503D02*
X014953Y029045D01*
X014953Y029503D02*
X015057Y029503D01*
X015057Y029045D01*
X014953Y029045D01*
X014953Y029098D02*
X015057Y029098D01*
X015057Y029151D02*
X014953Y029151D01*
X014953Y029204D02*
X015057Y029204D01*
X015057Y029257D02*
X014953Y029257D01*
X014953Y029310D02*
X015057Y029310D01*
X015057Y029363D02*
X014953Y029363D01*
X014953Y029416D02*
X015057Y029416D01*
X015057Y029469D02*
X014953Y029469D01*
X014756Y029503D02*
X014756Y029045D01*
X014756Y029503D02*
X014860Y029503D01*
X014860Y029045D01*
X014756Y029045D01*
X014756Y029098D02*
X014860Y029098D01*
X014860Y029151D02*
X014756Y029151D01*
X014756Y029204D02*
X014860Y029204D01*
X014860Y029257D02*
X014756Y029257D01*
X014756Y029310D02*
X014860Y029310D01*
X014860Y029363D02*
X014756Y029363D01*
X014756Y029416D02*
X014860Y029416D01*
X014860Y029469D02*
X014756Y029469D01*
X014559Y029503D02*
X014559Y029045D01*
X014559Y029503D02*
X014663Y029503D01*
X014663Y029045D01*
X014559Y029045D01*
X014559Y029098D02*
X014663Y029098D01*
X014663Y029151D02*
X014559Y029151D01*
X014559Y029204D02*
X014663Y029204D01*
X014663Y029257D02*
X014559Y029257D01*
X014559Y029310D02*
X014663Y029310D01*
X014663Y029363D02*
X014559Y029363D01*
X014559Y029416D02*
X014663Y029416D01*
X014663Y029469D02*
X014559Y029469D01*
X014363Y029503D02*
X014363Y029045D01*
X014363Y029503D02*
X014467Y029503D01*
X014467Y029045D01*
X014363Y029045D01*
X014363Y029098D02*
X014467Y029098D01*
X014467Y029151D02*
X014363Y029151D01*
X014363Y029204D02*
X014467Y029204D01*
X014467Y029257D02*
X014363Y029257D01*
X014363Y029310D02*
X014467Y029310D01*
X014467Y029363D02*
X014363Y029363D01*
X014363Y029416D02*
X014467Y029416D01*
X014467Y029469D02*
X014363Y029469D01*
X014166Y029503D02*
X014166Y029045D01*
X014166Y029503D02*
X014270Y029503D01*
X014270Y029045D01*
X014166Y029045D01*
X014166Y029098D02*
X014270Y029098D01*
X014270Y029151D02*
X014166Y029151D01*
X014166Y029204D02*
X014270Y029204D01*
X014270Y029257D02*
X014166Y029257D01*
X014166Y029310D02*
X014270Y029310D01*
X014270Y029363D02*
X014166Y029363D01*
X014166Y029416D02*
X014270Y029416D01*
X014270Y029469D02*
X014166Y029469D01*
X013969Y029503D02*
X013969Y029045D01*
X013969Y029503D02*
X014073Y029503D01*
X014073Y029045D01*
X013969Y029045D01*
X013969Y029098D02*
X014073Y029098D01*
X014073Y029151D02*
X013969Y029151D01*
X013969Y029204D02*
X014073Y029204D01*
X014073Y029257D02*
X013969Y029257D01*
X013969Y029310D02*
X014073Y029310D01*
X014073Y029363D02*
X013969Y029363D01*
X013969Y029416D02*
X014073Y029416D01*
X014073Y029469D02*
X013969Y029469D01*
X013772Y029503D02*
X013772Y029045D01*
X013772Y029503D02*
X013876Y029503D01*
X013876Y029045D01*
X013772Y029045D01*
X013772Y029098D02*
X013876Y029098D01*
X013876Y029151D02*
X013772Y029151D01*
X013772Y029204D02*
X013876Y029204D01*
X013876Y029257D02*
X013772Y029257D01*
X013772Y029310D02*
X013876Y029310D01*
X013876Y029363D02*
X013772Y029363D01*
X013772Y029416D02*
X013876Y029416D01*
X013876Y029469D02*
X013772Y029469D01*
X013575Y029503D02*
X013575Y029045D01*
X013575Y029503D02*
X013679Y029503D01*
X013679Y029045D01*
X013575Y029045D01*
X013575Y029098D02*
X013679Y029098D01*
X013679Y029151D02*
X013575Y029151D01*
X013575Y029204D02*
X013679Y029204D01*
X013679Y029257D02*
X013575Y029257D01*
X013575Y029310D02*
X013679Y029310D01*
X013679Y029363D02*
X013575Y029363D01*
X013575Y029416D02*
X013679Y029416D01*
X013679Y029469D02*
X013575Y029469D01*
X013378Y029503D02*
X013378Y029045D01*
X013378Y029503D02*
X013482Y029503D01*
X013482Y029045D01*
X013378Y029045D01*
X013378Y029098D02*
X013482Y029098D01*
X013482Y029151D02*
X013378Y029151D01*
X013378Y029204D02*
X013482Y029204D01*
X013482Y029257D02*
X013378Y029257D01*
X013378Y029310D02*
X013482Y029310D01*
X013482Y029363D02*
X013378Y029363D01*
X013378Y029416D02*
X013482Y029416D01*
X013482Y029469D02*
X013378Y029469D01*
X013182Y029503D02*
X013182Y029045D01*
X013182Y029503D02*
X013286Y029503D01*
X013286Y029045D01*
X013182Y029045D01*
X013182Y029098D02*
X013286Y029098D01*
X013286Y029151D02*
X013182Y029151D01*
X013182Y029204D02*
X013286Y029204D01*
X013286Y029257D02*
X013182Y029257D01*
X013182Y029310D02*
X013286Y029310D01*
X013286Y029363D02*
X013182Y029363D01*
X013182Y029416D02*
X013286Y029416D01*
X013286Y029469D02*
X013182Y029469D01*
X012985Y029503D02*
X012985Y029045D01*
X012985Y029503D02*
X013089Y029503D01*
X013089Y029045D01*
X012985Y029045D01*
X012985Y029098D02*
X013089Y029098D01*
X013089Y029151D02*
X012985Y029151D01*
X012985Y029204D02*
X013089Y029204D01*
X013089Y029257D02*
X012985Y029257D01*
X012985Y029310D02*
X013089Y029310D01*
X013089Y029363D02*
X012985Y029363D01*
X012985Y029416D02*
X013089Y029416D01*
X013089Y029469D02*
X012985Y029469D01*
X012788Y029503D02*
X012788Y029045D01*
X012788Y029503D02*
X012892Y029503D01*
X012892Y029045D01*
X012788Y029045D01*
X012788Y029098D02*
X012892Y029098D01*
X012892Y029151D02*
X012788Y029151D01*
X012788Y029204D02*
X012892Y029204D01*
X012892Y029257D02*
X012788Y029257D01*
X012788Y029310D02*
X012892Y029310D01*
X012892Y029363D02*
X012788Y029363D01*
X012788Y029416D02*
X012892Y029416D01*
X012892Y029469D02*
X012788Y029469D01*
X012591Y029503D02*
X012591Y029045D01*
X012591Y029503D02*
X012695Y029503D01*
X012695Y029045D01*
X012591Y029045D01*
X012591Y029098D02*
X012695Y029098D01*
X012695Y029151D02*
X012591Y029151D01*
X012591Y029204D02*
X012695Y029204D01*
X012695Y029257D02*
X012591Y029257D01*
X012591Y029310D02*
X012695Y029310D01*
X012695Y029363D02*
X012591Y029363D01*
X012591Y029416D02*
X012695Y029416D01*
X012695Y029469D02*
X012591Y029469D01*
X012394Y029503D02*
X012394Y029045D01*
X012394Y029503D02*
X012498Y029503D01*
X012498Y029045D01*
X012394Y029045D01*
X012394Y029098D02*
X012498Y029098D01*
X012498Y029151D02*
X012394Y029151D01*
X012394Y029204D02*
X012498Y029204D01*
X012498Y029257D02*
X012394Y029257D01*
X012394Y029310D02*
X012498Y029310D01*
X012498Y029363D02*
X012394Y029363D01*
X012394Y029416D02*
X012498Y029416D01*
X012498Y029469D02*
X012394Y029469D01*
X012197Y029503D02*
X012197Y029045D01*
X012197Y029503D02*
X012301Y029503D01*
X012301Y029045D01*
X012197Y029045D01*
X012197Y029098D02*
X012301Y029098D01*
X012301Y029151D02*
X012197Y029151D01*
X012197Y029204D02*
X012301Y029204D01*
X012301Y029257D02*
X012197Y029257D01*
X012197Y029310D02*
X012301Y029310D01*
X012301Y029363D02*
X012197Y029363D01*
X012197Y029416D02*
X012301Y029416D01*
X012301Y029469D02*
X012197Y029469D01*
X012000Y029503D02*
X012000Y029045D01*
X012000Y029503D02*
X012104Y029503D01*
X012104Y029045D01*
X012000Y029045D01*
X012000Y029098D02*
X012104Y029098D01*
X012104Y029151D02*
X012000Y029151D01*
X012000Y029204D02*
X012104Y029204D01*
X012104Y029257D02*
X012000Y029257D01*
X012000Y029310D02*
X012104Y029310D01*
X012104Y029363D02*
X012000Y029363D01*
X012000Y029416D02*
X012104Y029416D01*
X012104Y029469D02*
X012000Y029469D01*
X011804Y029503D02*
X011804Y029045D01*
X011804Y029503D02*
X011908Y029503D01*
X011908Y029045D01*
X011804Y029045D01*
X011804Y029098D02*
X011908Y029098D01*
X011908Y029151D02*
X011804Y029151D01*
X011804Y029204D02*
X011908Y029204D01*
X011908Y029257D02*
X011804Y029257D01*
X011804Y029310D02*
X011908Y029310D01*
X011908Y029363D02*
X011804Y029363D01*
X011804Y029416D02*
X011908Y029416D01*
X011908Y029469D02*
X011804Y029469D01*
X011607Y029503D02*
X011607Y029045D01*
X011607Y029503D02*
X011711Y029503D01*
X011711Y029045D01*
X011607Y029045D01*
X011607Y029098D02*
X011711Y029098D01*
X011711Y029151D02*
X011607Y029151D01*
X011607Y029204D02*
X011711Y029204D01*
X011711Y029257D02*
X011607Y029257D01*
X011607Y029310D02*
X011711Y029310D01*
X011711Y029363D02*
X011607Y029363D01*
X011607Y029416D02*
X011711Y029416D01*
X011711Y029469D02*
X011607Y029469D01*
X011410Y029503D02*
X011410Y029045D01*
X011410Y029503D02*
X011514Y029503D01*
X011514Y029045D01*
X011410Y029045D01*
X011410Y029098D02*
X011514Y029098D01*
X011514Y029151D02*
X011410Y029151D01*
X011410Y029204D02*
X011514Y029204D01*
X011514Y029257D02*
X011410Y029257D01*
X011410Y029310D02*
X011514Y029310D01*
X011514Y029363D02*
X011410Y029363D01*
X011410Y029416D02*
X011514Y029416D01*
X011514Y029469D02*
X011410Y029469D01*
X011213Y029503D02*
X011213Y029045D01*
X011213Y029503D02*
X011317Y029503D01*
X011317Y029045D01*
X011213Y029045D01*
X011213Y029098D02*
X011317Y029098D01*
X011317Y029151D02*
X011213Y029151D01*
X011213Y029204D02*
X011317Y029204D01*
X011317Y029257D02*
X011213Y029257D01*
X011213Y029310D02*
X011317Y029310D01*
X011317Y029363D02*
X011213Y029363D01*
X011213Y029416D02*
X011317Y029416D01*
X011317Y029469D02*
X011213Y029469D01*
X011016Y029503D02*
X011016Y029045D01*
X011016Y029503D02*
X011120Y029503D01*
X011120Y029045D01*
X011016Y029045D01*
X011016Y029098D02*
X011120Y029098D01*
X011120Y029151D02*
X011016Y029151D01*
X011016Y029204D02*
X011120Y029204D01*
X011120Y029257D02*
X011016Y029257D01*
X011016Y029310D02*
X011120Y029310D01*
X011120Y029363D02*
X011016Y029363D01*
X011016Y029416D02*
X011120Y029416D01*
X011120Y029469D02*
X011016Y029469D01*
X010819Y029503D02*
X010819Y029045D01*
X010819Y029503D02*
X010923Y029503D01*
X010923Y029045D01*
X010819Y029045D01*
X010819Y029098D02*
X010923Y029098D01*
X010923Y029151D02*
X010819Y029151D01*
X010819Y029204D02*
X010923Y029204D01*
X010923Y029257D02*
X010819Y029257D01*
X010819Y029310D02*
X010923Y029310D01*
X010923Y029363D02*
X010819Y029363D01*
X010819Y029416D02*
X010923Y029416D01*
X010923Y029469D02*
X010819Y029469D01*
X009835Y028519D02*
X009835Y028415D01*
X009835Y028519D02*
X010293Y028519D01*
X010293Y028415D01*
X009835Y028415D01*
X009835Y028468D02*
X010293Y028468D01*
X009835Y028323D02*
X009835Y028219D01*
X009835Y028323D02*
X010293Y028323D01*
X010293Y028219D01*
X009835Y028219D01*
X009835Y028272D02*
X010293Y028272D01*
X009835Y028126D02*
X009835Y028022D01*
X009835Y028126D02*
X010293Y028126D01*
X010293Y028022D01*
X009835Y028022D01*
X009835Y028075D02*
X010293Y028075D01*
X009835Y027929D02*
X009835Y027825D01*
X009835Y027929D02*
X010293Y027929D01*
X010293Y027825D01*
X009835Y027825D01*
X009835Y027878D02*
X010293Y027878D01*
X009835Y027732D02*
X009835Y027628D01*
X009835Y027732D02*
X010293Y027732D01*
X010293Y027628D01*
X009835Y027628D01*
X009835Y027681D02*
X010293Y027681D01*
X009835Y027535D02*
X009835Y027431D01*
X009835Y027535D02*
X010293Y027535D01*
X010293Y027431D01*
X009835Y027431D01*
X009835Y027484D02*
X010293Y027484D01*
X009835Y027338D02*
X009835Y027234D01*
X009835Y027338D02*
X010293Y027338D01*
X010293Y027234D01*
X009835Y027234D01*
X009835Y027287D02*
X010293Y027287D01*
X009835Y027141D02*
X009835Y027037D01*
X009835Y027141D02*
X010293Y027141D01*
X010293Y027037D01*
X009835Y027037D01*
X009835Y027090D02*
X010293Y027090D01*
X009835Y026945D02*
X009835Y026841D01*
X009835Y026945D02*
X010293Y026945D01*
X010293Y026841D01*
X009835Y026841D01*
X009835Y026894D02*
X010293Y026894D01*
X009835Y026748D02*
X009835Y026644D01*
X009835Y026748D02*
X010293Y026748D01*
X010293Y026644D01*
X009835Y026644D01*
X009835Y026697D02*
X010293Y026697D01*
X009835Y026551D02*
X009835Y026447D01*
X009835Y026551D02*
X010293Y026551D01*
X010293Y026447D01*
X009835Y026447D01*
X009835Y026500D02*
X010293Y026500D01*
X009835Y026354D02*
X009835Y026250D01*
X009835Y026354D02*
X010293Y026354D01*
X010293Y026250D01*
X009835Y026250D01*
X009835Y026303D02*
X010293Y026303D01*
X009835Y026157D02*
X009835Y026053D01*
X009835Y026157D02*
X010293Y026157D01*
X010293Y026053D01*
X009835Y026053D01*
X009835Y026106D02*
X010293Y026106D01*
X009835Y025960D02*
X009835Y025856D01*
X009835Y025960D02*
X010293Y025960D01*
X010293Y025856D01*
X009835Y025856D01*
X009835Y025909D02*
X010293Y025909D01*
X009835Y025763D02*
X009835Y025659D01*
X009835Y025763D02*
X010293Y025763D01*
X010293Y025659D01*
X009835Y025659D01*
X009835Y025712D02*
X010293Y025712D01*
X009835Y025567D02*
X009835Y025463D01*
X009835Y025567D02*
X010293Y025567D01*
X010293Y025463D01*
X009835Y025463D01*
X009835Y025516D02*
X010293Y025516D01*
X009835Y025370D02*
X009835Y025266D01*
X009835Y025370D02*
X010293Y025370D01*
X010293Y025266D01*
X009835Y025266D01*
X009835Y025319D02*
X010293Y025319D01*
X009835Y025173D02*
X009835Y025069D01*
X009835Y025173D02*
X010293Y025173D01*
X010293Y025069D01*
X009835Y025069D01*
X009835Y025122D02*
X010293Y025122D01*
X009835Y024976D02*
X009835Y024872D01*
X009835Y024976D02*
X010293Y024976D01*
X010293Y024872D01*
X009835Y024872D01*
X009835Y024925D02*
X010293Y024925D01*
X009835Y024779D02*
X009835Y024675D01*
X009835Y024779D02*
X010293Y024779D01*
X010293Y024675D01*
X009835Y024675D01*
X009835Y024728D02*
X010293Y024728D01*
X009835Y024582D02*
X009835Y024478D01*
X009835Y024582D02*
X010293Y024582D01*
X010293Y024478D01*
X009835Y024478D01*
X009835Y024531D02*
X010293Y024531D01*
X009835Y024386D02*
X009835Y024282D01*
X009835Y024386D02*
X010293Y024386D01*
X010293Y024282D01*
X009835Y024282D01*
X009835Y024335D02*
X010293Y024335D01*
X009835Y024189D02*
X009835Y024085D01*
X009835Y024189D02*
X010293Y024189D01*
X010293Y024085D01*
X009835Y024085D01*
X009835Y024138D02*
X010293Y024138D01*
X009835Y023992D02*
X009835Y023888D01*
X009835Y023992D02*
X010293Y023992D01*
X010293Y023888D01*
X009835Y023888D01*
X009835Y023941D02*
X010293Y023941D01*
X009835Y023795D02*
X009835Y023691D01*
X009835Y023795D02*
X010293Y023795D01*
X010293Y023691D01*
X009835Y023691D01*
X009835Y023744D02*
X010293Y023744D01*
X009835Y023598D02*
X009835Y023494D01*
X009835Y023598D02*
X010293Y023598D01*
X010293Y023494D01*
X009835Y023494D01*
X009835Y023547D02*
X010293Y023547D01*
X009835Y023401D02*
X009835Y023297D01*
X009835Y023401D02*
X010293Y023401D01*
X010293Y023297D01*
X009835Y023297D01*
X009835Y023350D02*
X010293Y023350D01*
X009835Y023204D02*
X009835Y023100D01*
X009835Y023204D02*
X010293Y023204D01*
X010293Y023100D01*
X009835Y023100D01*
X009835Y023153D02*
X010293Y023153D01*
X009835Y023008D02*
X009835Y022904D01*
X009835Y023008D02*
X010293Y023008D01*
X010293Y022904D01*
X009835Y022904D01*
X009835Y022957D02*
X010293Y022957D01*
X009835Y022811D02*
X009835Y022707D01*
X009835Y022811D02*
X010293Y022811D01*
X010293Y022707D01*
X009835Y022707D01*
X009835Y022760D02*
X010293Y022760D01*
X009835Y022614D02*
X009835Y022510D01*
X009835Y022614D02*
X010293Y022614D01*
X010293Y022510D01*
X009835Y022510D01*
X009835Y022563D02*
X010293Y022563D01*
X009835Y022417D02*
X009835Y022313D01*
X009835Y022417D02*
X010293Y022417D01*
X010293Y022313D01*
X009835Y022313D01*
X009835Y022366D02*
X010293Y022366D01*
X009835Y022220D02*
X009835Y022116D01*
X009835Y022220D02*
X010293Y022220D01*
X010293Y022116D01*
X009835Y022116D01*
X009835Y022169D02*
X010293Y022169D01*
X009835Y022023D02*
X009835Y021919D01*
X009835Y022023D02*
X010293Y022023D01*
X010293Y021919D01*
X009835Y021919D01*
X009835Y021972D02*
X010293Y021972D01*
X009835Y021826D02*
X009835Y021722D01*
X009835Y021826D02*
X010293Y021826D01*
X010293Y021722D01*
X009835Y021722D01*
X009835Y021775D02*
X010293Y021775D01*
X009835Y021630D02*
X009835Y021526D01*
X009835Y021630D02*
X010293Y021630D01*
X010293Y021526D01*
X009835Y021526D01*
X009835Y021579D02*
X010293Y021579D01*
X010819Y021000D02*
X010819Y020542D01*
X010819Y021000D02*
X010923Y021000D01*
X010923Y020542D01*
X010819Y020542D01*
X010819Y020595D02*
X010923Y020595D01*
X010923Y020648D02*
X010819Y020648D01*
X010819Y020701D02*
X010923Y020701D01*
X010923Y020754D02*
X010819Y020754D01*
X010819Y020807D02*
X010923Y020807D01*
X010923Y020860D02*
X010819Y020860D01*
X010819Y020913D02*
X010923Y020913D01*
X010923Y020966D02*
X010819Y020966D01*
X011016Y021000D02*
X011016Y020542D01*
X011016Y021000D02*
X011120Y021000D01*
X011120Y020542D01*
X011016Y020542D01*
X011016Y020595D02*
X011120Y020595D01*
X011120Y020648D02*
X011016Y020648D01*
X011016Y020701D02*
X011120Y020701D01*
X011120Y020754D02*
X011016Y020754D01*
X011016Y020807D02*
X011120Y020807D01*
X011120Y020860D02*
X011016Y020860D01*
X011016Y020913D02*
X011120Y020913D01*
X011120Y020966D02*
X011016Y020966D01*
X011213Y021000D02*
X011213Y020542D01*
X011213Y021000D02*
X011317Y021000D01*
X011317Y020542D01*
X011213Y020542D01*
X011213Y020595D02*
X011317Y020595D01*
X011317Y020648D02*
X011213Y020648D01*
X011213Y020701D02*
X011317Y020701D01*
X011317Y020754D02*
X011213Y020754D01*
X011213Y020807D02*
X011317Y020807D01*
X011317Y020860D02*
X011213Y020860D01*
X011213Y020913D02*
X011317Y020913D01*
X011317Y020966D02*
X011213Y020966D01*
X011410Y021000D02*
X011410Y020542D01*
X011410Y021000D02*
X011514Y021000D01*
X011514Y020542D01*
X011410Y020542D01*
X011410Y020595D02*
X011514Y020595D01*
X011514Y020648D02*
X011410Y020648D01*
X011410Y020701D02*
X011514Y020701D01*
X011514Y020754D02*
X011410Y020754D01*
X011410Y020807D02*
X011514Y020807D01*
X011514Y020860D02*
X011410Y020860D01*
X011410Y020913D02*
X011514Y020913D01*
X011514Y020966D02*
X011410Y020966D01*
X011607Y021000D02*
X011607Y020542D01*
X011607Y021000D02*
X011711Y021000D01*
X011711Y020542D01*
X011607Y020542D01*
X011607Y020595D02*
X011711Y020595D01*
X011711Y020648D02*
X011607Y020648D01*
X011607Y020701D02*
X011711Y020701D01*
X011711Y020754D02*
X011607Y020754D01*
X011607Y020807D02*
X011711Y020807D01*
X011711Y020860D02*
X011607Y020860D01*
X011607Y020913D02*
X011711Y020913D01*
X011711Y020966D02*
X011607Y020966D01*
X011804Y021000D02*
X011804Y020542D01*
X011804Y021000D02*
X011908Y021000D01*
X011908Y020542D01*
X011804Y020542D01*
X011804Y020595D02*
X011908Y020595D01*
X011908Y020648D02*
X011804Y020648D01*
X011804Y020701D02*
X011908Y020701D01*
X011908Y020754D02*
X011804Y020754D01*
X011804Y020807D02*
X011908Y020807D01*
X011908Y020860D02*
X011804Y020860D01*
X011804Y020913D02*
X011908Y020913D01*
X011908Y020966D02*
X011804Y020966D01*
X012000Y021000D02*
X012000Y020542D01*
X012000Y021000D02*
X012104Y021000D01*
X012104Y020542D01*
X012000Y020542D01*
X012000Y020595D02*
X012104Y020595D01*
X012104Y020648D02*
X012000Y020648D01*
X012000Y020701D02*
X012104Y020701D01*
X012104Y020754D02*
X012000Y020754D01*
X012000Y020807D02*
X012104Y020807D01*
X012104Y020860D02*
X012000Y020860D01*
X012000Y020913D02*
X012104Y020913D01*
X012104Y020966D02*
X012000Y020966D01*
X012197Y021000D02*
X012197Y020542D01*
X012197Y021000D02*
X012301Y021000D01*
X012301Y020542D01*
X012197Y020542D01*
X012197Y020595D02*
X012301Y020595D01*
X012301Y020648D02*
X012197Y020648D01*
X012197Y020701D02*
X012301Y020701D01*
X012301Y020754D02*
X012197Y020754D01*
X012197Y020807D02*
X012301Y020807D01*
X012301Y020860D02*
X012197Y020860D01*
X012197Y020913D02*
X012301Y020913D01*
X012301Y020966D02*
X012197Y020966D01*
X012394Y021000D02*
X012394Y020542D01*
X012394Y021000D02*
X012498Y021000D01*
X012498Y020542D01*
X012394Y020542D01*
X012394Y020595D02*
X012498Y020595D01*
X012498Y020648D02*
X012394Y020648D01*
X012394Y020701D02*
X012498Y020701D01*
X012498Y020754D02*
X012394Y020754D01*
X012394Y020807D02*
X012498Y020807D01*
X012498Y020860D02*
X012394Y020860D01*
X012394Y020913D02*
X012498Y020913D01*
X012498Y020966D02*
X012394Y020966D01*
X012591Y021000D02*
X012591Y020542D01*
X012591Y021000D02*
X012695Y021000D01*
X012695Y020542D01*
X012591Y020542D01*
X012591Y020595D02*
X012695Y020595D01*
X012695Y020648D02*
X012591Y020648D01*
X012591Y020701D02*
X012695Y020701D01*
X012695Y020754D02*
X012591Y020754D01*
X012591Y020807D02*
X012695Y020807D01*
X012695Y020860D02*
X012591Y020860D01*
X012591Y020913D02*
X012695Y020913D01*
X012695Y020966D02*
X012591Y020966D01*
X012788Y021000D02*
X012788Y020542D01*
X012788Y021000D02*
X012892Y021000D01*
X012892Y020542D01*
X012788Y020542D01*
X012788Y020595D02*
X012892Y020595D01*
X012892Y020648D02*
X012788Y020648D01*
X012788Y020701D02*
X012892Y020701D01*
X012892Y020754D02*
X012788Y020754D01*
X012788Y020807D02*
X012892Y020807D01*
X012892Y020860D02*
X012788Y020860D01*
X012788Y020913D02*
X012892Y020913D01*
X012892Y020966D02*
X012788Y020966D01*
X012985Y021000D02*
X012985Y020542D01*
X012985Y021000D02*
X013089Y021000D01*
X013089Y020542D01*
X012985Y020542D01*
X012985Y020595D02*
X013089Y020595D01*
X013089Y020648D02*
X012985Y020648D01*
X012985Y020701D02*
X013089Y020701D01*
X013089Y020754D02*
X012985Y020754D01*
X012985Y020807D02*
X013089Y020807D01*
X013089Y020860D02*
X012985Y020860D01*
X012985Y020913D02*
X013089Y020913D01*
X013089Y020966D02*
X012985Y020966D01*
X013182Y021000D02*
X013182Y020542D01*
X013182Y021000D02*
X013286Y021000D01*
X013286Y020542D01*
X013182Y020542D01*
X013182Y020595D02*
X013286Y020595D01*
X013286Y020648D02*
X013182Y020648D01*
X013182Y020701D02*
X013286Y020701D01*
X013286Y020754D02*
X013182Y020754D01*
X013182Y020807D02*
X013286Y020807D01*
X013286Y020860D02*
X013182Y020860D01*
X013182Y020913D02*
X013286Y020913D01*
X013286Y020966D02*
X013182Y020966D01*
X013378Y021000D02*
X013378Y020542D01*
X013378Y021000D02*
X013482Y021000D01*
X013482Y020542D01*
X013378Y020542D01*
X013378Y020595D02*
X013482Y020595D01*
X013482Y020648D02*
X013378Y020648D01*
X013378Y020701D02*
X013482Y020701D01*
X013482Y020754D02*
X013378Y020754D01*
X013378Y020807D02*
X013482Y020807D01*
X013482Y020860D02*
X013378Y020860D01*
X013378Y020913D02*
X013482Y020913D01*
X013482Y020966D02*
X013378Y020966D01*
X013575Y021000D02*
X013575Y020542D01*
X013575Y021000D02*
X013679Y021000D01*
X013679Y020542D01*
X013575Y020542D01*
X013575Y020595D02*
X013679Y020595D01*
X013679Y020648D02*
X013575Y020648D01*
X013575Y020701D02*
X013679Y020701D01*
X013679Y020754D02*
X013575Y020754D01*
X013575Y020807D02*
X013679Y020807D01*
X013679Y020860D02*
X013575Y020860D01*
X013575Y020913D02*
X013679Y020913D01*
X013679Y020966D02*
X013575Y020966D01*
X013772Y021000D02*
X013772Y020542D01*
X013772Y021000D02*
X013876Y021000D01*
X013876Y020542D01*
X013772Y020542D01*
X013772Y020595D02*
X013876Y020595D01*
X013876Y020648D02*
X013772Y020648D01*
X013772Y020701D02*
X013876Y020701D01*
X013876Y020754D02*
X013772Y020754D01*
X013772Y020807D02*
X013876Y020807D01*
X013876Y020860D02*
X013772Y020860D01*
X013772Y020913D02*
X013876Y020913D01*
X013876Y020966D02*
X013772Y020966D01*
X013969Y021000D02*
X013969Y020542D01*
X013969Y021000D02*
X014073Y021000D01*
X014073Y020542D01*
X013969Y020542D01*
X013969Y020595D02*
X014073Y020595D01*
X014073Y020648D02*
X013969Y020648D01*
X013969Y020701D02*
X014073Y020701D01*
X014073Y020754D02*
X013969Y020754D01*
X013969Y020807D02*
X014073Y020807D01*
X014073Y020860D02*
X013969Y020860D01*
X013969Y020913D02*
X014073Y020913D01*
X014073Y020966D02*
X013969Y020966D01*
X014166Y021000D02*
X014166Y020542D01*
X014166Y021000D02*
X014270Y021000D01*
X014270Y020542D01*
X014166Y020542D01*
X014166Y020595D02*
X014270Y020595D01*
X014270Y020648D02*
X014166Y020648D01*
X014166Y020701D02*
X014270Y020701D01*
X014270Y020754D02*
X014166Y020754D01*
X014166Y020807D02*
X014270Y020807D01*
X014270Y020860D02*
X014166Y020860D01*
X014166Y020913D02*
X014270Y020913D01*
X014270Y020966D02*
X014166Y020966D01*
X014363Y021000D02*
X014363Y020542D01*
X014363Y021000D02*
X014467Y021000D01*
X014467Y020542D01*
X014363Y020542D01*
X014363Y020595D02*
X014467Y020595D01*
X014467Y020648D02*
X014363Y020648D01*
X014363Y020701D02*
X014467Y020701D01*
X014467Y020754D02*
X014363Y020754D01*
X014363Y020807D02*
X014467Y020807D01*
X014467Y020860D02*
X014363Y020860D01*
X014363Y020913D02*
X014467Y020913D01*
X014467Y020966D02*
X014363Y020966D01*
X014559Y021000D02*
X014559Y020542D01*
X014559Y021000D02*
X014663Y021000D01*
X014663Y020542D01*
X014559Y020542D01*
X014559Y020595D02*
X014663Y020595D01*
X014663Y020648D02*
X014559Y020648D01*
X014559Y020701D02*
X014663Y020701D01*
X014663Y020754D02*
X014559Y020754D01*
X014559Y020807D02*
X014663Y020807D01*
X014663Y020860D02*
X014559Y020860D01*
X014559Y020913D02*
X014663Y020913D01*
X014663Y020966D02*
X014559Y020966D01*
X014756Y021000D02*
X014756Y020542D01*
X014756Y021000D02*
X014860Y021000D01*
X014860Y020542D01*
X014756Y020542D01*
X014756Y020595D02*
X014860Y020595D01*
X014860Y020648D02*
X014756Y020648D01*
X014756Y020701D02*
X014860Y020701D01*
X014860Y020754D02*
X014756Y020754D01*
X014756Y020807D02*
X014860Y020807D01*
X014860Y020860D02*
X014756Y020860D01*
X014756Y020913D02*
X014860Y020913D01*
X014860Y020966D02*
X014756Y020966D01*
X014953Y021000D02*
X014953Y020542D01*
X014953Y021000D02*
X015057Y021000D01*
X015057Y020542D01*
X014953Y020542D01*
X014953Y020595D02*
X015057Y020595D01*
X015057Y020648D02*
X014953Y020648D01*
X014953Y020701D02*
X015057Y020701D01*
X015057Y020754D02*
X014953Y020754D01*
X014953Y020807D02*
X015057Y020807D01*
X015057Y020860D02*
X014953Y020860D01*
X014953Y020913D02*
X015057Y020913D01*
X015057Y020966D02*
X014953Y020966D01*
X015150Y021000D02*
X015150Y020542D01*
X015150Y021000D02*
X015254Y021000D01*
X015254Y020542D01*
X015150Y020542D01*
X015150Y020595D02*
X015254Y020595D01*
X015254Y020648D02*
X015150Y020648D01*
X015150Y020701D02*
X015254Y020701D01*
X015254Y020754D02*
X015150Y020754D01*
X015150Y020807D02*
X015254Y020807D01*
X015254Y020860D02*
X015150Y020860D01*
X015150Y020913D02*
X015254Y020913D01*
X015254Y020966D02*
X015150Y020966D01*
X015347Y021000D02*
X015347Y020542D01*
X015347Y021000D02*
X015451Y021000D01*
X015451Y020542D01*
X015347Y020542D01*
X015347Y020595D02*
X015451Y020595D01*
X015451Y020648D02*
X015347Y020648D01*
X015347Y020701D02*
X015451Y020701D01*
X015451Y020754D02*
X015347Y020754D01*
X015347Y020807D02*
X015451Y020807D01*
X015451Y020860D02*
X015347Y020860D01*
X015347Y020913D02*
X015451Y020913D01*
X015451Y020966D02*
X015347Y020966D01*
X015544Y021000D02*
X015544Y020542D01*
X015544Y021000D02*
X015648Y021000D01*
X015648Y020542D01*
X015544Y020542D01*
X015544Y020595D02*
X015648Y020595D01*
X015648Y020648D02*
X015544Y020648D01*
X015544Y020701D02*
X015648Y020701D01*
X015648Y020754D02*
X015544Y020754D01*
X015544Y020807D02*
X015648Y020807D01*
X015648Y020860D02*
X015544Y020860D01*
X015544Y020913D02*
X015648Y020913D01*
X015648Y020966D02*
X015544Y020966D01*
X015741Y021000D02*
X015741Y020542D01*
X015741Y021000D02*
X015845Y021000D01*
X015845Y020542D01*
X015741Y020542D01*
X015741Y020595D02*
X015845Y020595D01*
X015845Y020648D02*
X015741Y020648D01*
X015741Y020701D02*
X015845Y020701D01*
X015845Y020754D02*
X015741Y020754D01*
X015741Y020807D02*
X015845Y020807D01*
X015845Y020860D02*
X015741Y020860D01*
X015741Y020913D02*
X015845Y020913D01*
X015845Y020966D02*
X015741Y020966D01*
X015937Y021000D02*
X015937Y020542D01*
X015937Y021000D02*
X016041Y021000D01*
X016041Y020542D01*
X015937Y020542D01*
X015937Y020595D02*
X016041Y020595D01*
X016041Y020648D02*
X015937Y020648D01*
X015937Y020701D02*
X016041Y020701D01*
X016041Y020754D02*
X015937Y020754D01*
X015937Y020807D02*
X016041Y020807D01*
X016041Y020860D02*
X015937Y020860D01*
X015937Y020913D02*
X016041Y020913D01*
X016041Y020966D02*
X015937Y020966D01*
X016134Y021000D02*
X016134Y020542D01*
X016134Y021000D02*
X016238Y021000D01*
X016238Y020542D01*
X016134Y020542D01*
X016134Y020595D02*
X016238Y020595D01*
X016238Y020648D02*
X016134Y020648D01*
X016134Y020701D02*
X016238Y020701D01*
X016238Y020754D02*
X016134Y020754D01*
X016134Y020807D02*
X016238Y020807D01*
X016238Y020860D02*
X016134Y020860D01*
X016134Y020913D02*
X016238Y020913D01*
X016238Y020966D02*
X016134Y020966D01*
X016331Y021000D02*
X016331Y020542D01*
X016331Y021000D02*
X016435Y021000D01*
X016435Y020542D01*
X016331Y020542D01*
X016331Y020595D02*
X016435Y020595D01*
X016435Y020648D02*
X016331Y020648D01*
X016331Y020701D02*
X016435Y020701D01*
X016435Y020754D02*
X016331Y020754D01*
X016331Y020807D02*
X016435Y020807D01*
X016435Y020860D02*
X016331Y020860D01*
X016331Y020913D02*
X016435Y020913D01*
X016435Y020966D02*
X016331Y020966D01*
X016528Y021000D02*
X016528Y020542D01*
X016528Y021000D02*
X016632Y021000D01*
X016632Y020542D01*
X016528Y020542D01*
X016528Y020595D02*
X016632Y020595D01*
X016632Y020648D02*
X016528Y020648D01*
X016528Y020701D02*
X016632Y020701D01*
X016632Y020754D02*
X016528Y020754D01*
X016528Y020807D02*
X016632Y020807D01*
X016632Y020860D02*
X016528Y020860D01*
X016528Y020913D02*
X016632Y020913D01*
X016632Y020966D02*
X016528Y020966D01*
X016725Y021000D02*
X016725Y020542D01*
X016725Y021000D02*
X016829Y021000D01*
X016829Y020542D01*
X016725Y020542D01*
X016725Y020595D02*
X016829Y020595D01*
X016829Y020648D02*
X016725Y020648D01*
X016725Y020701D02*
X016829Y020701D01*
X016829Y020754D02*
X016725Y020754D01*
X016725Y020807D02*
X016829Y020807D01*
X016829Y020860D02*
X016725Y020860D01*
X016725Y020913D02*
X016829Y020913D01*
X016829Y020966D02*
X016725Y020966D01*
X016922Y021000D02*
X016922Y020542D01*
X016922Y021000D02*
X017026Y021000D01*
X017026Y020542D01*
X016922Y020542D01*
X016922Y020595D02*
X017026Y020595D01*
X017026Y020648D02*
X016922Y020648D01*
X016922Y020701D02*
X017026Y020701D01*
X017026Y020754D02*
X016922Y020754D01*
X016922Y020807D02*
X017026Y020807D01*
X017026Y020860D02*
X016922Y020860D01*
X016922Y020913D02*
X017026Y020913D01*
X017026Y020966D02*
X016922Y020966D01*
X017119Y021000D02*
X017119Y020542D01*
X017119Y021000D02*
X017223Y021000D01*
X017223Y020542D01*
X017119Y020542D01*
X017119Y020595D02*
X017223Y020595D01*
X017223Y020648D02*
X017119Y020648D01*
X017119Y020701D02*
X017223Y020701D01*
X017223Y020754D02*
X017119Y020754D01*
X017119Y020807D02*
X017223Y020807D01*
X017223Y020860D02*
X017119Y020860D01*
X017119Y020913D02*
X017223Y020913D01*
X017223Y020966D02*
X017119Y020966D01*
X017315Y021000D02*
X017315Y020542D01*
X017315Y021000D02*
X017419Y021000D01*
X017419Y020542D01*
X017315Y020542D01*
X017315Y020595D02*
X017419Y020595D01*
X017419Y020648D02*
X017315Y020648D01*
X017315Y020701D02*
X017419Y020701D01*
X017419Y020754D02*
X017315Y020754D01*
X017315Y020807D02*
X017419Y020807D01*
X017419Y020860D02*
X017315Y020860D01*
X017315Y020913D02*
X017419Y020913D01*
X017419Y020966D02*
X017315Y020966D01*
X017512Y021000D02*
X017512Y020542D01*
X017512Y021000D02*
X017616Y021000D01*
X017616Y020542D01*
X017512Y020542D01*
X017512Y020595D02*
X017616Y020595D01*
X017616Y020648D02*
X017512Y020648D01*
X017512Y020701D02*
X017616Y020701D01*
X017616Y020754D02*
X017512Y020754D01*
X017512Y020807D02*
X017616Y020807D01*
X017616Y020860D02*
X017512Y020860D01*
X017512Y020913D02*
X017616Y020913D01*
X017616Y020966D02*
X017512Y020966D01*
X017709Y021000D02*
X017709Y020542D01*
X017709Y021000D02*
X017813Y021000D01*
X017813Y020542D01*
X017709Y020542D01*
X017709Y020595D02*
X017813Y020595D01*
X017813Y020648D02*
X017709Y020648D01*
X017709Y020701D02*
X017813Y020701D01*
X017813Y020754D02*
X017709Y020754D01*
X017709Y020807D02*
X017813Y020807D01*
X017813Y020860D02*
X017709Y020860D01*
X017709Y020913D02*
X017813Y020913D01*
X017813Y020966D02*
X017709Y020966D01*
D13*
X014631Y037739D03*
D14*
X013677Y004241D02*
X013677Y003355D01*
X012791Y003355D01*
X012791Y004241D01*
X013677Y004241D01*
X013677Y003452D02*
X012791Y003452D01*
X012791Y003549D02*
X013677Y003549D01*
X013677Y003646D02*
X012791Y003646D01*
X012791Y003743D02*
X013677Y003743D01*
X013677Y003840D02*
X012791Y003840D01*
X012791Y003937D02*
X013677Y003937D01*
X013677Y004034D02*
X012791Y004034D01*
X012791Y004131D02*
X013677Y004131D01*
X013677Y004228D02*
X012791Y004228D01*
X023007Y004241D02*
X023007Y003355D01*
X022121Y003355D01*
X022121Y004241D01*
X023007Y004241D01*
X023007Y003452D02*
X022121Y003452D01*
X022121Y003549D02*
X023007Y003549D01*
X023007Y003646D02*
X022121Y003646D01*
X022121Y003743D02*
X023007Y003743D01*
X023007Y003840D02*
X022121Y003840D01*
X022121Y003937D02*
X023007Y003937D01*
X023007Y004034D02*
X022121Y004034D01*
X022121Y004131D02*
X023007Y004131D01*
X023007Y004228D02*
X022121Y004228D01*
D15*
X021737Y004865D03*
X021541Y004865D03*
X021344Y004865D03*
X021147Y004865D03*
X020950Y004865D03*
X020753Y004865D03*
X020556Y004865D03*
X020359Y004865D03*
X020163Y004865D03*
X019966Y004865D03*
X019769Y004865D03*
X019572Y004865D03*
X019375Y004865D03*
X019178Y004865D03*
X018982Y004865D03*
X018785Y004865D03*
X018588Y004865D03*
X018391Y004865D03*
X018194Y004865D03*
X017997Y004865D03*
X017800Y004865D03*
X017604Y004865D03*
X017407Y004865D03*
X017210Y004865D03*
X017013Y004865D03*
X016816Y004865D03*
X016619Y004865D03*
X016422Y004865D03*
X016226Y004865D03*
X016029Y004865D03*
X015832Y004865D03*
X015635Y004865D03*
X015438Y004865D03*
X015241Y004865D03*
X015045Y004865D03*
X014848Y004865D03*
X014651Y004865D03*
X014454Y004865D03*
X014257Y004865D03*
X014060Y004865D03*
D16*
X014609Y006056D02*
X014609Y006080D01*
X014733Y006080D01*
X014733Y006056D01*
X014609Y006056D01*
X014609Y006406D02*
X014609Y006430D01*
X014733Y006430D01*
X014733Y006406D01*
X014609Y006406D01*
X013283Y008701D02*
X013259Y008701D01*
X013259Y008825D01*
X013283Y008825D01*
X013283Y008701D01*
X012933Y008701D02*
X012909Y008701D01*
X012909Y008825D01*
X012933Y008825D01*
X012933Y008701D01*
X012933Y009134D02*
X012909Y009134D01*
X012909Y009258D01*
X012933Y009258D01*
X012933Y009134D01*
X013259Y009134D02*
X013283Y009134D01*
X013259Y009134D02*
X013259Y009258D01*
X013283Y009258D01*
X013283Y009134D01*
X013283Y009567D02*
X013259Y009567D01*
X013259Y009691D01*
X013283Y009691D01*
X013283Y009567D01*
X012933Y009567D02*
X012909Y009567D01*
X012909Y009691D01*
X012933Y009691D01*
X012933Y009567D01*
X012933Y010000D02*
X012909Y010000D01*
X012909Y010124D01*
X012933Y010124D01*
X012933Y010000D01*
X013259Y010000D02*
X013283Y010000D01*
X013259Y010000D02*
X013259Y010124D01*
X013283Y010124D01*
X013283Y010000D01*
X014129Y012525D02*
X014153Y012525D01*
X014153Y012401D01*
X014129Y012401D01*
X014129Y012525D01*
X014479Y012525D02*
X014503Y012525D01*
X014503Y012401D01*
X014479Y012401D01*
X014479Y012525D01*
X014956Y012525D02*
X014980Y012525D01*
X014980Y012401D01*
X014956Y012401D01*
X014956Y012525D01*
X015306Y012525D02*
X015330Y012525D01*
X015330Y012401D01*
X015306Y012401D01*
X015306Y012525D01*
X016610Y012264D02*
X016634Y012264D01*
X016610Y012264D02*
X016610Y012388D01*
X016634Y012388D01*
X016634Y012264D01*
X016960Y012264D02*
X016984Y012264D01*
X016960Y012264D02*
X016960Y012388D01*
X016984Y012388D01*
X016984Y012264D01*
X017594Y010669D02*
X017618Y010669D01*
X017594Y010669D02*
X017594Y010793D01*
X017618Y010793D01*
X017618Y010669D01*
X017944Y010669D02*
X017968Y010669D01*
X017944Y010669D02*
X017944Y010793D01*
X017968Y010793D01*
X017968Y010669D01*
X018236Y010328D02*
X018236Y010304D01*
X018112Y010304D01*
X018112Y010328D01*
X018236Y010328D01*
X018236Y009978D02*
X018236Y009954D01*
X018112Y009954D01*
X018112Y009978D01*
X018236Y009978D01*
X019641Y009173D02*
X019665Y009173D01*
X019641Y009173D02*
X019641Y009297D01*
X019665Y009297D01*
X019665Y009173D01*
X019991Y009173D02*
X020015Y009173D01*
X019991Y009173D02*
X019991Y009297D01*
X020015Y009297D01*
X020015Y009173D01*
X020369Y009173D02*
X020393Y009173D01*
X020369Y009173D02*
X020369Y009297D01*
X020393Y009297D01*
X020393Y009173D01*
X020719Y009173D02*
X020743Y009173D01*
X020719Y009173D02*
X020719Y009297D01*
X020743Y009297D01*
X020743Y009173D01*
X021944Y012368D02*
X021968Y012368D01*
X021968Y012244D01*
X021944Y012244D01*
X021944Y012368D01*
X022294Y012368D02*
X022318Y012368D01*
X022318Y012244D01*
X022294Y012244D01*
X022294Y012368D01*
X022358Y015079D02*
X022334Y015079D01*
X022334Y015203D01*
X022358Y015203D01*
X022358Y015079D01*
X022008Y015079D02*
X021984Y015079D01*
X021984Y015203D01*
X022008Y015203D01*
X022008Y015079D01*
X020500Y019422D02*
X020500Y019446D01*
X020500Y019422D02*
X020376Y019422D01*
X020376Y019446D01*
X020500Y019446D01*
X020500Y019772D02*
X020500Y019796D01*
X020500Y019772D02*
X020376Y019772D01*
X020376Y019796D01*
X020500Y019796D01*
X020448Y020236D02*
X020424Y020236D01*
X020424Y020360D01*
X020448Y020360D01*
X020448Y020236D01*
X020098Y020236D02*
X020074Y020236D01*
X020074Y020360D01*
X020098Y020360D01*
X020098Y020236D01*
X019897Y022210D02*
X019873Y022210D01*
X019897Y022210D02*
X019897Y022086D01*
X019873Y022086D01*
X019873Y022210D01*
X019547Y022210D02*
X019523Y022210D01*
X019547Y022210D02*
X019547Y022086D01*
X019523Y022086D01*
X019523Y022210D01*
X020677Y022552D02*
X020677Y022576D01*
X020677Y022552D02*
X020553Y022552D01*
X020553Y022576D01*
X020677Y022576D01*
X020677Y022902D02*
X020677Y022926D01*
X020677Y022902D02*
X020553Y022902D01*
X020553Y022926D01*
X020677Y022926D01*
X018440Y020374D02*
X018416Y020374D01*
X018416Y020498D01*
X018440Y020498D01*
X018440Y020374D01*
X018090Y020374D02*
X018066Y020374D01*
X018066Y020498D01*
X018090Y020498D01*
X018090Y020374D01*
X017714Y019218D02*
X017690Y019218D01*
X017714Y019218D02*
X017714Y019094D01*
X017690Y019094D01*
X017690Y019218D01*
X017364Y019218D02*
X017340Y019218D01*
X017364Y019218D02*
X017364Y019094D01*
X017340Y019094D01*
X017340Y019218D01*
X017075Y019501D02*
X017075Y019525D01*
X017075Y019501D02*
X016951Y019501D01*
X016951Y019525D01*
X017075Y019525D01*
X017075Y019851D02*
X017075Y019875D01*
X017075Y019851D02*
X016951Y019851D01*
X016951Y019875D01*
X017075Y019875D01*
X016189Y019717D02*
X016189Y019693D01*
X016065Y019693D01*
X016065Y019717D01*
X016189Y019717D01*
X016189Y019367D02*
X016189Y019343D01*
X016065Y019343D01*
X016065Y019367D01*
X016189Y019367D01*
X014995Y019474D02*
X014971Y019474D01*
X014995Y019474D02*
X014995Y019350D01*
X014971Y019350D01*
X014971Y019474D01*
X015047Y019796D02*
X015047Y019820D01*
X015047Y019796D02*
X014923Y019796D01*
X014923Y019820D01*
X015047Y019820D01*
X015047Y020146D02*
X015047Y020170D01*
X015047Y020146D02*
X014923Y020146D01*
X014923Y020170D01*
X015047Y020170D01*
X014645Y019474D02*
X014621Y019474D01*
X014645Y019474D02*
X014645Y019350D01*
X014621Y019350D01*
X014621Y019474D01*
X014083Y019348D02*
X014083Y019324D01*
X013959Y019324D01*
X013959Y019348D01*
X014083Y019348D01*
X014083Y019674D02*
X014083Y019698D01*
X014083Y019674D02*
X013959Y019674D01*
X013959Y019698D01*
X014083Y019698D01*
X013670Y019698D02*
X013670Y019674D01*
X013546Y019674D01*
X013546Y019698D01*
X013670Y019698D01*
X013670Y019348D02*
X013670Y019324D01*
X013546Y019324D01*
X013546Y019348D01*
X013670Y019348D01*
X014018Y018556D02*
X014018Y018532D01*
X014018Y018556D02*
X014142Y018556D01*
X014142Y018532D01*
X014018Y018532D01*
X014018Y018206D02*
X014018Y018182D01*
X014018Y018206D02*
X014142Y018206D01*
X014142Y018182D01*
X014018Y018182D01*
X014917Y017388D02*
X014941Y017388D01*
X014941Y017264D01*
X014917Y017264D01*
X014917Y017388D01*
X015267Y017388D02*
X015291Y017388D01*
X015291Y017264D01*
X015267Y017264D01*
X015267Y017388D01*
X015704Y017264D02*
X015728Y017264D01*
X015704Y017264D02*
X015704Y017388D01*
X015728Y017388D01*
X015728Y017264D01*
X016054Y017264D02*
X016078Y017264D01*
X016054Y017264D02*
X016054Y017388D01*
X016078Y017388D01*
X016078Y017264D01*
X016223Y015406D02*
X016223Y015382D01*
X016223Y015406D02*
X016347Y015406D01*
X016347Y015382D01*
X016223Y015382D01*
X016223Y015056D02*
X016223Y015032D01*
X016223Y015056D02*
X016347Y015056D01*
X016347Y015032D01*
X016223Y015032D01*
X015724Y015321D02*
X015700Y015321D01*
X015724Y015321D02*
X015724Y015197D01*
X015700Y015197D01*
X015700Y015321D01*
X015374Y015321D02*
X015350Y015321D01*
X015374Y015321D02*
X015374Y015197D01*
X015350Y015197D01*
X015350Y015321D01*
X015035Y015197D02*
X015011Y015197D01*
X015011Y015321D01*
X015035Y015321D01*
X015035Y015197D01*
X014685Y015197D02*
X014661Y015197D01*
X014661Y015321D01*
X014685Y015321D01*
X014685Y015197D01*
X014346Y015419D02*
X014322Y015419D01*
X014346Y015419D02*
X014346Y015295D01*
X014322Y015295D01*
X014322Y015419D01*
X013996Y015419D02*
X013972Y015419D01*
X013996Y015419D02*
X013996Y015295D01*
X013972Y015295D01*
X013972Y015419D01*
X013315Y013713D02*
X013315Y013689D01*
X013191Y013689D01*
X013191Y013713D01*
X013315Y013713D01*
X013315Y013363D02*
X013315Y013339D01*
X013191Y013339D01*
X013191Y013363D01*
X013315Y013363D01*
X009786Y008398D02*
X009786Y008374D01*
X009786Y008398D02*
X009910Y008398D01*
X009910Y008374D01*
X009786Y008374D01*
X009786Y008048D02*
X009786Y008024D01*
X009786Y008048D02*
X009910Y008048D01*
X009910Y008024D01*
X009786Y008024D01*
X009372Y008024D02*
X009372Y008048D01*
X009496Y008048D01*
X009496Y008024D01*
X009372Y008024D01*
X009372Y008374D02*
X009372Y008398D01*
X009496Y008398D01*
X009496Y008374D01*
X009372Y008374D01*
X007679Y006587D02*
X007679Y006563D01*
X007679Y006587D02*
X007803Y006587D01*
X007803Y006563D01*
X007679Y006563D01*
X007679Y006237D02*
X007679Y006213D01*
X007679Y006237D02*
X007803Y006237D01*
X007803Y006213D01*
X007679Y006213D01*
X007246Y006213D02*
X007246Y006237D01*
X007370Y006237D01*
X007370Y006213D01*
X007246Y006213D01*
X007246Y006563D02*
X007246Y006587D01*
X007370Y006587D01*
X007370Y006563D01*
X007246Y006563D01*
X007106Y004888D02*
X007082Y004888D01*
X007106Y004888D02*
X007106Y004764D01*
X007082Y004764D01*
X007082Y004888D01*
X007432Y004888D02*
X007456Y004888D01*
X007456Y004764D01*
X007432Y004764D01*
X007432Y004888D01*
X007491Y002401D02*
X007515Y002401D01*
X007491Y002401D02*
X007491Y002525D01*
X007515Y002525D01*
X007515Y002401D01*
X008007Y002525D02*
X008031Y002525D01*
X008031Y002401D01*
X008007Y002401D01*
X008007Y002525D01*
X008031Y001988D02*
X008007Y001988D01*
X008007Y002112D01*
X008031Y002112D01*
X008031Y001988D01*
X008357Y001988D02*
X008381Y001988D01*
X008357Y001988D02*
X008357Y002112D01*
X008381Y002112D01*
X008381Y001988D01*
X008357Y002525D02*
X008381Y002525D01*
X008381Y002401D01*
X008357Y002401D01*
X008357Y002525D01*
X007165Y002401D02*
X007141Y002401D01*
X007141Y002525D01*
X007165Y002525D01*
X007165Y002401D01*
X006373Y001108D02*
X006349Y001108D01*
X006373Y001108D02*
X006373Y000984D01*
X006349Y000984D01*
X006349Y001108D01*
X006023Y001108D02*
X005999Y001108D01*
X006023Y001108D02*
X006023Y000984D01*
X005999Y000984D01*
X005999Y001108D01*
X005763Y000984D02*
X005739Y000984D01*
X005739Y001108D01*
X005763Y001108D01*
X005763Y000984D01*
X005413Y000984D02*
X005389Y000984D01*
X005389Y001108D01*
X005413Y001108D01*
X005413Y000984D01*
X011944Y005138D02*
X011968Y005138D01*
X011944Y005138D02*
X011944Y005262D01*
X011968Y005262D01*
X011968Y005138D01*
X012294Y005138D02*
X012318Y005138D01*
X012294Y005138D02*
X012294Y005262D01*
X012318Y005262D01*
X012318Y005138D01*
X012286Y002749D02*
X012286Y002725D01*
X012286Y002749D02*
X012410Y002749D01*
X012410Y002725D01*
X012286Y002725D01*
X012286Y002399D02*
X012286Y002375D01*
X012286Y002399D02*
X012410Y002399D01*
X012410Y002375D01*
X012286Y002375D01*
X019648Y005544D02*
X019648Y005568D01*
X019772Y005568D01*
X019772Y005544D01*
X019648Y005544D01*
X019648Y005894D02*
X019648Y005918D01*
X019772Y005918D01*
X019772Y005894D01*
X019648Y005894D01*
X023342Y004514D02*
X023366Y004514D01*
X023366Y004390D01*
X023342Y004390D01*
X023342Y004514D01*
X023692Y004514D02*
X023716Y004514D01*
X023716Y004390D01*
X023692Y004390D01*
X023692Y004514D01*
X024412Y004776D02*
X024412Y004800D01*
X024536Y004800D01*
X024536Y004776D01*
X024412Y004776D01*
X024412Y005126D02*
X024412Y005150D01*
X024536Y005150D01*
X024536Y005126D01*
X024412Y005126D01*
X025278Y005584D02*
X025278Y005608D01*
X025402Y005608D01*
X025402Y005584D01*
X025278Y005584D01*
X025278Y005934D02*
X025278Y005958D01*
X025402Y005958D01*
X025402Y005934D01*
X025278Y005934D01*
X023670Y007631D02*
X023670Y007655D01*
X023670Y007631D02*
X023546Y007631D01*
X023546Y007655D01*
X023670Y007655D01*
X023670Y007981D02*
X023670Y008005D01*
X023670Y007981D02*
X023546Y007981D01*
X023546Y008005D01*
X023670Y008005D01*
X023578Y002683D02*
X023602Y002683D01*
X023602Y002559D01*
X023578Y002559D01*
X023578Y002683D01*
X023928Y002683D02*
X023952Y002683D01*
X023952Y002559D01*
X023928Y002559D01*
X023928Y002683D01*
X018650Y014973D02*
X018650Y014997D01*
X018650Y014973D02*
X018526Y014973D01*
X018526Y014997D01*
X018650Y014997D01*
X018650Y015323D02*
X018650Y015347D01*
X018650Y015323D02*
X018526Y015323D01*
X018526Y015347D01*
X018650Y015347D01*
X012692Y019252D02*
X012668Y019252D01*
X012668Y019376D01*
X012692Y019376D01*
X012692Y019252D01*
X012646Y019796D02*
X012646Y019820D01*
X012646Y019796D02*
X012522Y019796D01*
X012522Y019820D01*
X012646Y019820D01*
X012646Y020146D02*
X012646Y020170D01*
X012646Y020146D02*
X012522Y020146D01*
X012522Y020170D01*
X012646Y020170D01*
X012342Y019252D02*
X012318Y019252D01*
X012318Y019376D01*
X012342Y019376D01*
X012342Y019252D01*
X010054Y020748D02*
X010030Y020748D01*
X010030Y020872D01*
X010054Y020872D01*
X010054Y020748D01*
X009704Y020748D02*
X009680Y020748D01*
X009680Y020872D01*
X009704Y020872D01*
X009704Y020748D01*
X009496Y021528D02*
X009496Y021552D01*
X009496Y021528D02*
X009372Y021528D01*
X009372Y021552D01*
X009496Y021552D01*
X009496Y021878D02*
X009496Y021902D01*
X009496Y021878D02*
X009372Y021878D01*
X009372Y021902D01*
X009496Y021902D01*
X008991Y019370D02*
X008967Y019370D01*
X008967Y019494D01*
X008991Y019494D01*
X008991Y019370D01*
X008641Y019370D02*
X008617Y019370D01*
X008617Y019494D01*
X008641Y019494D01*
X008641Y019370D01*
X007613Y019409D02*
X007589Y019409D01*
X007589Y019533D01*
X007613Y019533D01*
X007613Y019409D01*
X007263Y019409D02*
X007239Y019409D01*
X007239Y019533D01*
X007263Y019533D01*
X007263Y019409D01*
X007412Y015872D02*
X007436Y015872D01*
X007436Y015748D01*
X007412Y015748D01*
X007412Y015872D01*
X007086Y015872D02*
X007062Y015872D01*
X007086Y015872D02*
X007086Y015748D01*
X007062Y015748D01*
X007062Y015872D01*
X008873Y027500D02*
X008897Y027500D01*
X008873Y027500D02*
X008873Y027624D01*
X008897Y027624D01*
X008897Y027500D01*
X009038Y027926D02*
X009038Y027950D01*
X009162Y027950D01*
X009162Y027926D01*
X009038Y027926D01*
X009038Y028276D02*
X009038Y028300D01*
X009162Y028300D01*
X009162Y028276D01*
X009038Y028276D01*
X009223Y027500D02*
X009247Y027500D01*
X009223Y027500D02*
X009223Y027624D01*
X009247Y027624D01*
X009247Y027500D01*
X007377Y028189D02*
X007353Y028189D01*
X007353Y028313D01*
X007377Y028313D01*
X007377Y028189D01*
X007027Y028189D02*
X007003Y028189D01*
X007003Y028313D01*
X007027Y028313D01*
X007027Y028189D01*
X012994Y033399D02*
X012994Y033423D01*
X013118Y033423D01*
X013118Y033399D01*
X012994Y033399D01*
X012994Y033749D02*
X012994Y033773D01*
X013118Y033773D01*
X013118Y033749D01*
X012994Y033749D01*
X013388Y033749D02*
X013388Y033773D01*
X013512Y033773D01*
X013512Y033749D01*
X013388Y033749D01*
X013388Y033423D02*
X013388Y033399D01*
X013388Y033423D02*
X013512Y033423D01*
X013512Y033399D01*
X013388Y033399D01*
X013782Y033399D02*
X013782Y033423D01*
X013906Y033423D01*
X013906Y033399D01*
X013782Y033399D01*
X013782Y033749D02*
X013782Y033773D01*
X013906Y033773D01*
X013906Y033749D01*
X013782Y033749D01*
X015357Y033749D02*
X015357Y033773D01*
X015481Y033773D01*
X015481Y033749D01*
X015357Y033749D01*
X015357Y033423D02*
X015357Y033399D01*
X015357Y033423D02*
X015481Y033423D01*
X015481Y033399D01*
X015357Y033399D01*
X015750Y033399D02*
X015750Y033423D01*
X015874Y033423D01*
X015874Y033399D01*
X015750Y033399D01*
X015750Y033749D02*
X015750Y033773D01*
X015874Y033773D01*
X015874Y033749D01*
X015750Y033749D01*
X016144Y033749D02*
X016144Y033773D01*
X016268Y033773D01*
X016268Y033749D01*
X016144Y033749D01*
X016144Y033423D02*
X016144Y033399D01*
X016144Y033423D02*
X016268Y033423D01*
X016268Y033399D01*
X016144Y033399D01*
X014346Y030006D02*
X014322Y030006D01*
X014346Y030006D02*
X014346Y029882D01*
X014322Y029882D01*
X014322Y030006D01*
X013996Y030006D02*
X013972Y030006D01*
X013996Y030006D02*
X013996Y029882D01*
X013972Y029882D01*
X013972Y030006D01*
X013637Y029724D02*
X013613Y029724D01*
X013613Y029848D01*
X013637Y029848D01*
X013637Y029724D01*
X013287Y029724D02*
X013263Y029724D01*
X013263Y029848D01*
X013287Y029848D01*
X013287Y029724D01*
X018263Y037407D02*
X018287Y037407D01*
X018287Y037283D01*
X018263Y037283D01*
X018263Y037407D01*
X018613Y037407D02*
X018637Y037407D01*
X018637Y037283D01*
X018613Y037283D01*
X018613Y037407D01*
X019235Y027119D02*
X019235Y027095D01*
X019235Y027119D02*
X019359Y027119D01*
X019359Y027095D01*
X019235Y027095D01*
X019235Y026769D02*
X019235Y026745D01*
X019235Y026769D02*
X019359Y026769D01*
X019359Y026745D01*
X019235Y026745D01*
X019792Y026548D02*
X019792Y026524D01*
X019668Y026524D01*
X019668Y026548D01*
X019792Y026548D01*
X019792Y026198D02*
X019792Y026174D01*
X019668Y026174D01*
X019668Y026198D01*
X019792Y026198D01*
X024956Y024903D02*
X024980Y024903D01*
X024980Y024779D01*
X024956Y024779D01*
X024956Y024903D01*
X024956Y024403D02*
X024980Y024403D01*
X024980Y024279D01*
X024956Y024279D01*
X024956Y024403D01*
X025306Y024403D02*
X025330Y024403D01*
X025330Y024279D01*
X025306Y024279D01*
X025306Y024403D01*
X025306Y024903D02*
X025330Y024903D01*
X025330Y024779D01*
X025306Y024779D01*
X025306Y024903D01*
X025306Y023403D02*
X025330Y023403D01*
X025330Y023279D01*
X025306Y023279D01*
X025306Y023403D01*
X024980Y023403D02*
X024956Y023403D01*
X024980Y023403D02*
X024980Y023279D01*
X024956Y023279D01*
X024956Y023403D01*
X024956Y022903D02*
X024980Y022903D01*
X024980Y022779D01*
X024956Y022779D01*
X024956Y022903D01*
X024956Y022486D02*
X024980Y022486D01*
X024980Y022362D01*
X024956Y022362D01*
X024956Y022486D01*
X025306Y022486D02*
X025330Y022486D01*
X025330Y022362D01*
X025306Y022362D01*
X025306Y022486D01*
X025306Y022903D02*
X025330Y022903D01*
X025330Y022779D01*
X025306Y022779D01*
X025306Y022903D01*
X025940Y026732D02*
X025964Y026732D01*
X025940Y026732D02*
X025940Y026856D01*
X025964Y026856D01*
X025964Y026732D01*
X026290Y026732D02*
X026314Y026732D01*
X026290Y026732D02*
X026290Y026856D01*
X026314Y026856D01*
X026314Y026732D01*
X026290Y027856D02*
X026314Y027856D01*
X026314Y027732D01*
X026290Y027732D01*
X026290Y027856D01*
X025964Y027856D02*
X025940Y027856D01*
X025964Y027856D02*
X025964Y027732D01*
X025940Y027732D01*
X025940Y027856D01*
X025940Y028856D02*
X025964Y028856D01*
X025964Y028732D01*
X025940Y028732D01*
X025940Y028856D01*
X026290Y028856D02*
X026314Y028856D01*
X026314Y028732D01*
X026290Y028732D01*
X026290Y028856D01*
D17*
X017197Y010311D02*
X017197Y009813D01*
X017197Y010311D02*
X017813Y010311D01*
X017813Y009813D01*
X017197Y009813D01*
X017197Y009867D02*
X017813Y009867D01*
X017813Y009921D02*
X017197Y009921D01*
X017197Y009975D02*
X017813Y009975D01*
X017813Y010029D02*
X017197Y010029D01*
X017197Y010083D02*
X017813Y010083D01*
X017813Y010137D02*
X017197Y010137D01*
X017197Y010191D02*
X017813Y010191D01*
X017813Y010245D02*
X017197Y010245D01*
X017197Y010299D02*
X017813Y010299D01*
X017197Y009523D02*
X017197Y009025D01*
X017197Y009523D02*
X017813Y009523D01*
X017813Y009025D01*
X017197Y009025D01*
X017197Y009079D02*
X017813Y009079D01*
X017813Y009133D02*
X017197Y009133D01*
X017197Y009187D02*
X017813Y009187D01*
X017813Y009241D02*
X017197Y009241D01*
X017197Y009295D02*
X017813Y009295D01*
X017813Y009349D02*
X017197Y009349D01*
X017197Y009403D02*
X017813Y009403D01*
X017813Y009457D02*
X017197Y009457D01*
X017197Y009511D02*
X017813Y009511D01*
X018162Y009622D02*
X018660Y009622D01*
X018660Y009006D01*
X018162Y009006D01*
X018162Y009622D01*
X018162Y009060D02*
X018660Y009060D01*
X018660Y009114D02*
X018162Y009114D01*
X018162Y009168D02*
X018660Y009168D01*
X018660Y009222D02*
X018162Y009222D01*
X018162Y009276D02*
X018660Y009276D01*
X018660Y009330D02*
X018162Y009330D01*
X018162Y009384D02*
X018660Y009384D01*
X018660Y009438D02*
X018162Y009438D01*
X018162Y009492D02*
X018660Y009492D01*
X018660Y009546D02*
X018162Y009546D01*
X018162Y009600D02*
X018660Y009600D01*
X018949Y009622D02*
X019447Y009622D01*
X019447Y009006D01*
X018949Y009006D01*
X018949Y009622D01*
X018949Y009060D02*
X019447Y009060D01*
X019447Y009114D02*
X018949Y009114D01*
X018949Y009168D02*
X019447Y009168D01*
X019447Y009222D02*
X018949Y009222D01*
X018949Y009276D02*
X019447Y009276D01*
X019447Y009330D02*
X018949Y009330D01*
X018949Y009384D02*
X019447Y009384D01*
X019447Y009438D02*
X018949Y009438D01*
X018949Y009492D02*
X019447Y009492D01*
X019447Y009546D02*
X018949Y009546D01*
X018949Y009600D02*
X019447Y009600D01*
X019697Y008953D02*
X020195Y008953D01*
X020195Y008337D01*
X019697Y008337D01*
X019697Y008953D01*
X019697Y008391D02*
X020195Y008391D01*
X020195Y008445D02*
X019697Y008445D01*
X019697Y008499D02*
X020195Y008499D01*
X020195Y008553D02*
X019697Y008553D01*
X019697Y008607D02*
X020195Y008607D01*
X020195Y008661D02*
X019697Y008661D01*
X019697Y008715D02*
X020195Y008715D01*
X020195Y008769D02*
X019697Y008769D01*
X019697Y008823D02*
X020195Y008823D01*
X020195Y008877D02*
X019697Y008877D01*
X019697Y008931D02*
X020195Y008931D01*
X020485Y008953D02*
X020983Y008953D01*
X020983Y008337D01*
X020485Y008337D01*
X020485Y008953D01*
X020485Y008391D02*
X020983Y008391D01*
X020983Y008445D02*
X020485Y008445D01*
X020485Y008499D02*
X020983Y008499D01*
X020983Y008553D02*
X020485Y008553D01*
X020485Y008607D02*
X020983Y008607D01*
X020983Y008661D02*
X020485Y008661D01*
X020485Y008715D02*
X020983Y008715D01*
X020983Y008769D02*
X020485Y008769D01*
X020485Y008823D02*
X020983Y008823D01*
X020983Y008877D02*
X020485Y008877D01*
X020485Y008931D02*
X020983Y008931D01*
X021475Y007516D02*
X021475Y007018D01*
X020859Y007018D01*
X020859Y007516D01*
X021475Y007516D01*
X021475Y007072D02*
X020859Y007072D01*
X020859Y007126D02*
X021475Y007126D01*
X021475Y007180D02*
X020859Y007180D01*
X020859Y007234D02*
X021475Y007234D01*
X021475Y007288D02*
X020859Y007288D01*
X020859Y007342D02*
X021475Y007342D01*
X021475Y007396D02*
X020859Y007396D01*
X020859Y007450D02*
X021475Y007450D01*
X021475Y007504D02*
X020859Y007504D01*
X020254Y007333D02*
X020254Y007831D01*
X020254Y007333D02*
X019638Y007333D01*
X019638Y007831D01*
X020254Y007831D01*
X020254Y007387D02*
X019638Y007387D01*
X019638Y007441D02*
X020254Y007441D01*
X020254Y007495D02*
X019638Y007495D01*
X019638Y007549D02*
X020254Y007549D01*
X020254Y007603D02*
X019638Y007603D01*
X019638Y007657D02*
X020254Y007657D01*
X020254Y007711D02*
X019638Y007711D01*
X019638Y007765D02*
X020254Y007765D01*
X020254Y007819D02*
X019638Y007819D01*
X020254Y007043D02*
X020254Y006545D01*
X019638Y006545D01*
X019638Y007043D01*
X020254Y007043D01*
X020254Y006599D02*
X019638Y006599D01*
X019638Y006653D02*
X020254Y006653D01*
X020254Y006707D02*
X019638Y006707D01*
X019638Y006761D02*
X020254Y006761D01*
X020254Y006815D02*
X019638Y006815D01*
X019638Y006869D02*
X020254Y006869D01*
X020254Y006923D02*
X019638Y006923D01*
X019638Y006977D02*
X020254Y006977D01*
X020254Y007031D02*
X019638Y007031D01*
X018142Y007201D02*
X018142Y006703D01*
X018142Y007201D02*
X018758Y007201D01*
X018758Y006703D01*
X018142Y006703D01*
X018142Y006757D02*
X018758Y006757D01*
X018758Y006811D02*
X018142Y006811D01*
X018142Y006865D02*
X018758Y006865D01*
X018758Y006919D02*
X018142Y006919D01*
X018142Y006973D02*
X018758Y006973D01*
X018758Y007027D02*
X018142Y007027D01*
X018142Y007081D02*
X018758Y007081D01*
X018758Y007135D02*
X018142Y007135D01*
X018142Y007189D02*
X018758Y007189D01*
X018142Y007451D02*
X018142Y007949D01*
X018758Y007949D01*
X018758Y007451D01*
X018142Y007451D01*
X018142Y007505D02*
X018758Y007505D01*
X018758Y007559D02*
X018142Y007559D01*
X018142Y007613D02*
X018758Y007613D01*
X018758Y007667D02*
X018142Y007667D01*
X018142Y007721D02*
X018758Y007721D01*
X018758Y007775D02*
X018142Y007775D01*
X018142Y007829D02*
X018758Y007829D01*
X018758Y007883D02*
X018142Y007883D01*
X018142Y007937D02*
X018758Y007937D01*
X018142Y008238D02*
X018142Y008736D01*
X018758Y008736D01*
X018758Y008238D01*
X018142Y008238D01*
X018142Y008292D02*
X018758Y008292D01*
X018758Y008346D02*
X018142Y008346D01*
X018142Y008400D02*
X018758Y008400D01*
X018758Y008454D02*
X018142Y008454D01*
X018142Y008508D02*
X018758Y008508D01*
X018758Y008562D02*
X018142Y008562D01*
X018142Y008616D02*
X018758Y008616D01*
X018758Y008670D02*
X018142Y008670D01*
X018142Y008724D02*
X018758Y008724D01*
X016803Y008775D02*
X016803Y008277D01*
X016803Y008775D02*
X017419Y008775D01*
X017419Y008277D01*
X016803Y008277D01*
X016803Y008331D02*
X017419Y008331D01*
X017419Y008385D02*
X016803Y008385D01*
X016803Y008439D02*
X017419Y008439D01*
X017419Y008493D02*
X016803Y008493D01*
X016803Y008547D02*
X017419Y008547D01*
X017419Y008601D02*
X016803Y008601D01*
X016803Y008655D02*
X017419Y008655D01*
X017419Y008709D02*
X016803Y008709D01*
X016803Y008763D02*
X017419Y008763D01*
X016410Y009025D02*
X016410Y009523D01*
X017026Y009523D01*
X017026Y009025D01*
X016410Y009025D01*
X016410Y009079D02*
X017026Y009079D01*
X017026Y009133D02*
X016410Y009133D01*
X016410Y009187D02*
X017026Y009187D01*
X017026Y009241D02*
X016410Y009241D01*
X016410Y009295D02*
X017026Y009295D01*
X017026Y009349D02*
X016410Y009349D01*
X016410Y009403D02*
X017026Y009403D01*
X017026Y009457D02*
X016410Y009457D01*
X016410Y009511D02*
X017026Y009511D01*
X016410Y009813D02*
X016410Y010311D01*
X017026Y010311D01*
X017026Y009813D01*
X016410Y009813D01*
X016410Y009867D02*
X017026Y009867D01*
X017026Y009921D02*
X016410Y009921D01*
X016410Y009975D02*
X017026Y009975D01*
X017026Y010029D02*
X016410Y010029D01*
X016410Y010083D02*
X017026Y010083D01*
X017026Y010137D02*
X016410Y010137D01*
X016410Y010191D02*
X017026Y010191D01*
X017026Y010245D02*
X016410Y010245D01*
X016410Y010299D02*
X017026Y010299D01*
X015845Y010311D02*
X015845Y009813D01*
X015229Y009813D01*
X015229Y010311D01*
X015845Y010311D01*
X015845Y009867D02*
X015229Y009867D01*
X015229Y009921D02*
X015845Y009921D01*
X015845Y009975D02*
X015229Y009975D01*
X015229Y010029D02*
X015845Y010029D01*
X015845Y010083D02*
X015229Y010083D01*
X015229Y010137D02*
X015845Y010137D01*
X015845Y010191D02*
X015229Y010191D01*
X015229Y010245D02*
X015845Y010245D01*
X015845Y010299D02*
X015229Y010299D01*
X015845Y009523D02*
X015845Y009025D01*
X015229Y009025D01*
X015229Y009523D01*
X015845Y009523D01*
X015845Y009079D02*
X015229Y009079D01*
X015229Y009133D02*
X015845Y009133D01*
X015845Y009187D02*
X015229Y009187D01*
X015229Y009241D02*
X015845Y009241D01*
X015845Y009295D02*
X015229Y009295D01*
X015229Y009349D02*
X015845Y009349D01*
X015845Y009403D02*
X015229Y009403D01*
X015229Y009457D02*
X015845Y009457D01*
X015845Y009511D02*
X015229Y009511D01*
X015845Y008775D02*
X015845Y008277D01*
X015229Y008277D01*
X015229Y008775D01*
X015845Y008775D01*
X015845Y008331D02*
X015229Y008331D01*
X015229Y008385D02*
X015845Y008385D01*
X015845Y008439D02*
X015229Y008439D01*
X015229Y008493D02*
X015845Y008493D01*
X015845Y008547D02*
X015229Y008547D01*
X015229Y008601D02*
X015845Y008601D01*
X015845Y008655D02*
X015229Y008655D01*
X015229Y008709D02*
X015845Y008709D01*
X015845Y008763D02*
X015229Y008763D01*
X015845Y007988D02*
X015845Y007490D01*
X015229Y007490D01*
X015229Y007988D01*
X015845Y007988D01*
X015845Y007544D02*
X015229Y007544D01*
X015229Y007598D02*
X015845Y007598D01*
X015845Y007652D02*
X015229Y007652D01*
X015229Y007706D02*
X015845Y007706D01*
X015845Y007760D02*
X015229Y007760D01*
X015229Y007814D02*
X015845Y007814D01*
X015845Y007868D02*
X015229Y007868D01*
X015229Y007922D02*
X015845Y007922D01*
X015845Y007976D02*
X015229Y007976D01*
X015057Y007988D02*
X015057Y007490D01*
X014441Y007490D01*
X014441Y007988D01*
X015057Y007988D01*
X015057Y007544D02*
X014441Y007544D01*
X014441Y007598D02*
X015057Y007598D01*
X015057Y007652D02*
X014441Y007652D01*
X014441Y007706D02*
X015057Y007706D01*
X015057Y007760D02*
X014441Y007760D01*
X014441Y007814D02*
X015057Y007814D01*
X015057Y007868D02*
X014441Y007868D01*
X014441Y007922D02*
X015057Y007922D01*
X015057Y007976D02*
X014441Y007976D01*
X015057Y007201D02*
X015057Y006703D01*
X014441Y006703D01*
X014441Y007201D01*
X015057Y007201D01*
X015057Y006757D02*
X014441Y006757D01*
X014441Y006811D02*
X015057Y006811D01*
X015057Y006865D02*
X014441Y006865D01*
X014441Y006919D02*
X015057Y006919D01*
X015057Y006973D02*
X014441Y006973D01*
X014441Y007027D02*
X015057Y007027D01*
X015057Y007081D02*
X014441Y007081D01*
X014441Y007135D02*
X015057Y007135D01*
X015057Y007189D02*
X014441Y007189D01*
X015845Y007201D02*
X015845Y006703D01*
X015229Y006703D01*
X015229Y007201D01*
X015845Y007201D01*
X015845Y006757D02*
X015229Y006757D01*
X015229Y006811D02*
X015845Y006811D01*
X015845Y006865D02*
X015229Y006865D01*
X015229Y006919D02*
X015845Y006919D01*
X015845Y006973D02*
X015229Y006973D01*
X015229Y007027D02*
X015845Y007027D01*
X015845Y007081D02*
X015229Y007081D01*
X015229Y007135D02*
X015845Y007135D01*
X015845Y007189D02*
X015229Y007189D01*
X015845Y006413D02*
X015845Y005915D01*
X015229Y005915D01*
X015229Y006413D01*
X015845Y006413D01*
X015845Y005969D02*
X015229Y005969D01*
X015229Y006023D02*
X015845Y006023D01*
X015845Y006077D02*
X015229Y006077D01*
X015229Y006131D02*
X015845Y006131D01*
X015845Y006185D02*
X015229Y006185D01*
X015229Y006239D02*
X015845Y006239D01*
X015845Y006293D02*
X015229Y006293D01*
X015229Y006347D02*
X015845Y006347D01*
X015845Y006401D02*
X015229Y006401D01*
X017419Y006413D02*
X017419Y005915D01*
X016803Y005915D01*
X016803Y006413D01*
X017419Y006413D01*
X017419Y005969D02*
X016803Y005969D01*
X016803Y006023D02*
X017419Y006023D01*
X017419Y006077D02*
X016803Y006077D01*
X016803Y006131D02*
X017419Y006131D01*
X017419Y006185D02*
X016803Y006185D01*
X016803Y006239D02*
X017419Y006239D01*
X017419Y006293D02*
X016803Y006293D01*
X016803Y006347D02*
X017419Y006347D01*
X017419Y006401D02*
X016803Y006401D01*
X017419Y006703D02*
X017419Y007201D01*
X017419Y006703D02*
X016803Y006703D01*
X016803Y007201D01*
X017419Y007201D01*
X017419Y006757D02*
X016803Y006757D01*
X016803Y006811D02*
X017419Y006811D01*
X017419Y006865D02*
X016803Y006865D01*
X016803Y006919D02*
X017419Y006919D01*
X017419Y006973D02*
X016803Y006973D01*
X016803Y007027D02*
X017419Y007027D01*
X017419Y007081D02*
X016803Y007081D01*
X016803Y007135D02*
X017419Y007135D01*
X017419Y007189D02*
X016803Y007189D01*
X016803Y007490D02*
X016803Y007988D01*
X017419Y007988D01*
X017419Y007490D01*
X016803Y007490D01*
X016803Y007544D02*
X017419Y007544D01*
X017419Y007598D02*
X016803Y007598D01*
X016803Y007652D02*
X017419Y007652D01*
X017419Y007706D02*
X016803Y007706D01*
X016803Y007760D02*
X017419Y007760D01*
X017419Y007814D02*
X016803Y007814D01*
X016803Y007868D02*
X017419Y007868D01*
X017419Y007922D02*
X016803Y007922D01*
X016803Y007976D02*
X017419Y007976D01*
X018142Y006413D02*
X018142Y005915D01*
X018142Y006413D02*
X018758Y006413D01*
X018758Y005915D01*
X018142Y005915D01*
X018142Y005969D02*
X018758Y005969D01*
X018758Y006023D02*
X018142Y006023D01*
X018142Y006077D02*
X018758Y006077D01*
X018758Y006131D02*
X018142Y006131D01*
X018142Y006185D02*
X018758Y006185D01*
X018758Y006239D02*
X018142Y006239D01*
X018142Y006293D02*
X018758Y006293D01*
X018758Y006347D02*
X018142Y006347D01*
X018142Y006401D02*
X018758Y006401D01*
X021475Y006230D02*
X021475Y006728D01*
X021475Y006230D02*
X020859Y006230D01*
X020859Y006728D01*
X021475Y006728D01*
X021475Y006284D02*
X020859Y006284D01*
X020859Y006338D02*
X021475Y006338D01*
X021475Y006392D02*
X020859Y006392D01*
X020859Y006446D02*
X021475Y006446D01*
X021475Y006500D02*
X020859Y006500D01*
X020859Y006554D02*
X021475Y006554D01*
X021475Y006608D02*
X020859Y006608D01*
X020859Y006662D02*
X021475Y006662D01*
X021475Y006716D02*
X020859Y006716D01*
X022242Y006728D02*
X022242Y006230D01*
X021626Y006230D01*
X021626Y006728D01*
X022242Y006728D01*
X022242Y006284D02*
X021626Y006284D01*
X021626Y006338D02*
X022242Y006338D01*
X022242Y006392D02*
X021626Y006392D01*
X021626Y006446D02*
X022242Y006446D01*
X022242Y006500D02*
X021626Y006500D01*
X021626Y006554D02*
X022242Y006554D01*
X022242Y006608D02*
X021626Y006608D01*
X021626Y006662D02*
X022242Y006662D01*
X022242Y006716D02*
X021626Y006716D01*
X022242Y007018D02*
X022242Y007516D01*
X022242Y007018D02*
X021626Y007018D01*
X021626Y007516D01*
X022242Y007516D01*
X022242Y007072D02*
X021626Y007072D01*
X021626Y007126D02*
X022242Y007126D01*
X022242Y007180D02*
X021626Y007180D01*
X021626Y007234D02*
X022242Y007234D01*
X022242Y007288D02*
X021626Y007288D01*
X021626Y007342D02*
X022242Y007342D01*
X022242Y007396D02*
X021626Y007396D01*
X021626Y007450D02*
X022242Y007450D01*
X022242Y007504D02*
X021626Y007504D01*
X022059Y005364D02*
X022557Y005364D01*
X022059Y005364D02*
X022059Y005980D01*
X022557Y005980D01*
X022557Y005364D01*
X022557Y005418D02*
X022059Y005418D01*
X022059Y005472D02*
X022557Y005472D01*
X022557Y005526D02*
X022059Y005526D01*
X022059Y005580D02*
X022557Y005580D01*
X022557Y005634D02*
X022059Y005634D01*
X022059Y005688D02*
X022557Y005688D01*
X022557Y005742D02*
X022059Y005742D01*
X022059Y005796D02*
X022557Y005796D01*
X022557Y005850D02*
X022059Y005850D01*
X022059Y005904D02*
X022557Y005904D01*
X022557Y005958D02*
X022059Y005958D01*
X022847Y005364D02*
X023345Y005364D01*
X022847Y005364D02*
X022847Y005980D01*
X023345Y005980D01*
X023345Y005364D01*
X023345Y005418D02*
X022847Y005418D01*
X022847Y005472D02*
X023345Y005472D01*
X023345Y005526D02*
X022847Y005526D01*
X022847Y005580D02*
X023345Y005580D01*
X023345Y005634D02*
X022847Y005634D01*
X022847Y005688D02*
X023345Y005688D01*
X023345Y005742D02*
X022847Y005742D01*
X022847Y005796D02*
X023345Y005796D01*
X023345Y005850D02*
X022847Y005850D01*
X022847Y005904D02*
X023345Y005904D01*
X023345Y005958D02*
X022847Y005958D01*
X024132Y005837D02*
X024132Y006335D01*
X024132Y005837D02*
X023516Y005837D01*
X023516Y006335D01*
X024132Y006335D01*
X024132Y005891D02*
X023516Y005891D01*
X023516Y005945D02*
X024132Y005945D01*
X024132Y005999D02*
X023516Y005999D01*
X023516Y006053D02*
X024132Y006053D01*
X024132Y006107D02*
X023516Y006107D01*
X023516Y006161D02*
X024132Y006161D01*
X024132Y006215D02*
X023516Y006215D01*
X023516Y006269D02*
X024132Y006269D01*
X024132Y006323D02*
X023516Y006323D01*
X024132Y005547D02*
X024132Y005049D01*
X023516Y005049D01*
X023516Y005547D01*
X024132Y005547D01*
X024132Y005103D02*
X023516Y005103D01*
X023516Y005157D02*
X024132Y005157D01*
X024132Y005211D02*
X023516Y005211D01*
X023516Y005265D02*
X024132Y005265D01*
X024132Y005319D02*
X023516Y005319D01*
X023516Y005373D02*
X024132Y005373D01*
X024132Y005427D02*
X023516Y005427D01*
X023516Y005481D02*
X024132Y005481D01*
X024132Y005535D02*
X023516Y005535D01*
D18*
X023014Y006089D02*
X022784Y006089D01*
X022784Y006299D01*
X023014Y006299D01*
X023014Y006089D01*
X023014Y006134D02*
X022784Y006134D01*
X022784Y006179D02*
X023014Y006179D01*
X023014Y006224D02*
X022784Y006224D01*
X022784Y006269D02*
X023014Y006269D01*
X023040Y006817D02*
X023270Y006817D01*
X023040Y006817D02*
X023040Y007027D01*
X023270Y007027D01*
X023270Y006817D01*
X023270Y006862D02*
X023040Y006862D01*
X023040Y006907D02*
X023270Y006907D01*
X023270Y006952D02*
X023040Y006952D01*
X023040Y006997D02*
X023270Y006997D01*
X023329Y007506D02*
X023329Y007736D01*
X023329Y007506D02*
X023119Y007506D01*
X023119Y007736D01*
X023329Y007736D01*
X023329Y007551D02*
X023119Y007551D01*
X023119Y007596D02*
X023329Y007596D01*
X023329Y007641D02*
X023119Y007641D01*
X023119Y007686D02*
X023329Y007686D01*
X023329Y007731D02*
X023119Y007731D01*
X022600Y007762D02*
X022600Y007992D01*
X022600Y007762D02*
X022390Y007762D01*
X022390Y007992D01*
X022600Y007992D01*
X022600Y007807D02*
X022390Y007807D01*
X022390Y007852D02*
X022600Y007852D01*
X022600Y007897D02*
X022390Y007897D01*
X022390Y007942D02*
X022600Y007942D01*
X022600Y007987D02*
X022390Y007987D01*
X021859Y007992D02*
X021859Y007762D01*
X021859Y007992D02*
X022069Y007992D01*
X022069Y007762D01*
X021859Y007762D01*
X021859Y007807D02*
X022069Y007807D01*
X022069Y007852D02*
X021859Y007852D01*
X021859Y007897D02*
X022069Y007897D01*
X022069Y007942D02*
X021859Y007942D01*
X021859Y007987D02*
X022069Y007987D01*
X021859Y008274D02*
X021859Y008504D01*
X022069Y008504D01*
X022069Y008274D01*
X021859Y008274D01*
X021859Y008319D02*
X022069Y008319D01*
X022069Y008364D02*
X021859Y008364D01*
X021859Y008409D02*
X022069Y008409D01*
X022069Y008454D02*
X021859Y008454D01*
X021859Y008499D02*
X022069Y008499D01*
X021130Y008248D02*
X021130Y008018D01*
X021130Y008248D02*
X021340Y008248D01*
X021340Y008018D01*
X021130Y008018D01*
X021130Y008063D02*
X021340Y008063D01*
X021340Y008108D02*
X021130Y008108D01*
X021130Y008153D02*
X021340Y008153D01*
X021340Y008198D02*
X021130Y008198D01*
X021130Y008243D02*
X021340Y008243D01*
X022600Y007480D02*
X022600Y007250D01*
X022390Y007250D01*
X022390Y007480D01*
X022600Y007480D01*
X022600Y007295D02*
X022390Y007295D01*
X022390Y007340D02*
X022600Y007340D01*
X022600Y007385D02*
X022390Y007385D01*
X022390Y007430D02*
X022600Y007430D01*
X022600Y007475D02*
X022390Y007475D01*
X022528Y006817D02*
X022758Y006817D01*
X022528Y006817D02*
X022528Y007027D01*
X022758Y007027D01*
X022758Y006817D01*
X022758Y006862D02*
X022528Y006862D01*
X022528Y006907D02*
X022758Y006907D01*
X022758Y006952D02*
X022528Y006952D01*
X022528Y006997D02*
X022758Y006997D01*
X024300Y006266D02*
X024530Y006266D01*
X024300Y006266D02*
X024300Y006476D01*
X024530Y006476D01*
X024530Y006266D01*
X024530Y006311D02*
X024300Y006311D01*
X024300Y006356D02*
X024530Y006356D01*
X024530Y006401D02*
X024300Y006401D01*
X024300Y006446D02*
X024530Y006446D01*
X024811Y006266D02*
X025041Y006266D01*
X024811Y006266D02*
X024811Y006476D01*
X025041Y006476D01*
X025041Y006266D01*
X025041Y006311D02*
X024811Y006311D01*
X024811Y006356D02*
X025041Y006356D01*
X025041Y006401D02*
X024811Y006401D01*
X024811Y006446D02*
X025041Y006446D01*
X024786Y005538D02*
X024556Y005538D01*
X024556Y005748D01*
X024786Y005748D01*
X024786Y005538D01*
X024786Y005583D02*
X024556Y005583D01*
X024556Y005628D02*
X024786Y005628D01*
X024786Y005673D02*
X024556Y005673D01*
X024556Y005718D02*
X024786Y005718D01*
X024963Y005315D02*
X024963Y005085D01*
X024753Y005085D01*
X024753Y005315D01*
X024963Y005315D01*
X024963Y005130D02*
X024753Y005130D01*
X024753Y005175D02*
X024963Y005175D01*
X024963Y005220D02*
X024753Y005220D01*
X024753Y005265D02*
X024963Y005265D01*
X024963Y005310D02*
X024753Y005310D01*
X024963Y004803D02*
X024963Y004573D01*
X024753Y004573D01*
X024753Y004803D01*
X024963Y004803D01*
X024963Y004618D02*
X024753Y004618D01*
X024753Y004663D02*
X024963Y004663D01*
X024963Y004708D02*
X024753Y004708D01*
X024753Y004753D02*
X024963Y004753D01*
X024963Y004798D02*
X024753Y004798D01*
X025691Y004829D02*
X025691Y005059D01*
X025691Y004829D02*
X025481Y004829D01*
X025481Y005059D01*
X025691Y005059D01*
X025691Y004874D02*
X025481Y004874D01*
X025481Y004919D02*
X025691Y004919D01*
X025691Y004964D02*
X025481Y004964D01*
X025481Y005009D02*
X025691Y005009D01*
X025691Y005054D02*
X025481Y005054D01*
X024136Y003189D02*
X023906Y003189D01*
X024136Y003189D02*
X024136Y002979D01*
X023906Y002979D01*
X023906Y003189D01*
X023906Y003024D02*
X024136Y003024D01*
X024136Y003069D02*
X023906Y003069D01*
X023906Y003114D02*
X024136Y003114D01*
X024136Y003159D02*
X023906Y003159D01*
X023624Y003189D02*
X023394Y003189D01*
X023624Y003189D02*
X023624Y002979D01*
X023394Y002979D01*
X023394Y003189D01*
X023394Y003024D02*
X023624Y003024D01*
X023624Y003069D02*
X023394Y003069D01*
X023394Y003114D02*
X023624Y003114D01*
X023624Y003159D02*
X023394Y003159D01*
X023650Y003917D02*
X023880Y003917D01*
X023880Y003707D01*
X023650Y003707D01*
X023650Y003917D01*
X023650Y003752D02*
X023880Y003752D01*
X023880Y003797D02*
X023650Y003797D01*
X023650Y003842D02*
X023880Y003842D01*
X023880Y003887D02*
X023650Y003887D01*
X018250Y011325D02*
X018250Y011555D01*
X018250Y011325D02*
X018040Y011325D01*
X018040Y011555D01*
X018250Y011555D01*
X018250Y011370D02*
X018040Y011370D01*
X018040Y011415D02*
X018250Y011415D01*
X018250Y011460D02*
X018040Y011460D01*
X018040Y011505D02*
X018250Y011505D01*
X018250Y011550D02*
X018040Y011550D01*
X017522Y011581D02*
X017522Y011811D01*
X017522Y011581D02*
X017312Y011581D01*
X017312Y011811D01*
X017522Y011811D01*
X017522Y011626D02*
X017312Y011626D01*
X017312Y011671D02*
X017522Y011671D01*
X017522Y011716D02*
X017312Y011716D01*
X017312Y011761D02*
X017522Y011761D01*
X017522Y011806D02*
X017312Y011806D01*
X017128Y011266D02*
X016898Y011266D01*
X016898Y011476D01*
X017128Y011476D01*
X017128Y011266D01*
X017128Y011311D02*
X016898Y011311D01*
X016898Y011356D02*
X017128Y011356D01*
X017128Y011401D02*
X016898Y011401D01*
X016898Y011446D02*
X017128Y011446D01*
X017522Y011299D02*
X017522Y011069D01*
X017312Y011069D01*
X017312Y011299D01*
X017522Y011299D01*
X017522Y011114D02*
X017312Y011114D01*
X017312Y011159D02*
X017522Y011159D01*
X017522Y011204D02*
X017312Y011204D01*
X017312Y011249D02*
X017522Y011249D01*
X017522Y011294D02*
X017312Y011294D01*
X016872Y010538D02*
X016642Y010538D01*
X016642Y010748D01*
X016872Y010748D01*
X016872Y010538D01*
X016872Y010583D02*
X016642Y010583D01*
X016642Y010628D02*
X016872Y010628D01*
X016872Y010673D02*
X016642Y010673D01*
X016642Y010718D02*
X016872Y010718D01*
X016616Y011266D02*
X016386Y011266D01*
X016386Y011476D01*
X016616Y011476D01*
X016616Y011266D01*
X016616Y011311D02*
X016386Y011311D01*
X016386Y011356D02*
X016616Y011356D01*
X016616Y011401D02*
X016386Y011401D01*
X016386Y011446D02*
X016616Y011446D01*
X012463Y003445D02*
X012463Y003215D01*
X012253Y003215D01*
X012253Y003445D01*
X012463Y003445D01*
X012463Y003260D02*
X012253Y003260D01*
X012253Y003305D02*
X012463Y003305D01*
X012463Y003350D02*
X012253Y003350D01*
X012253Y003395D02*
X012463Y003395D01*
X012463Y003440D02*
X012253Y003440D01*
X011734Y003471D02*
X011734Y003701D01*
X011734Y003471D02*
X011524Y003471D01*
X011524Y003701D01*
X011734Y003701D01*
X011734Y003516D02*
X011524Y003516D01*
X011524Y003561D02*
X011734Y003561D01*
X011734Y003606D02*
X011524Y003606D01*
X011524Y003651D02*
X011734Y003651D01*
X011734Y003696D02*
X011524Y003696D01*
X011734Y003189D02*
X011734Y002959D01*
X011524Y002959D01*
X011524Y003189D01*
X011734Y003189D01*
X011734Y003004D02*
X011524Y003004D01*
X011524Y003049D02*
X011734Y003049D01*
X011734Y003094D02*
X011524Y003094D01*
X011524Y003139D02*
X011734Y003139D01*
X011734Y003184D02*
X011524Y003184D01*
X006931Y006935D02*
X006701Y006935D01*
X006701Y007145D01*
X006931Y007145D01*
X006931Y006935D01*
X006931Y006980D02*
X006701Y006980D01*
X006701Y007025D02*
X006931Y007025D01*
X006931Y007070D02*
X006701Y007070D01*
X006701Y007115D02*
X006931Y007115D01*
X006675Y006207D02*
X006445Y006207D01*
X006445Y006417D01*
X006675Y006417D01*
X006675Y006207D01*
X006675Y006252D02*
X006445Y006252D01*
X006445Y006297D02*
X006675Y006297D01*
X006675Y006342D02*
X006445Y006342D01*
X006445Y006387D02*
X006675Y006387D01*
X006419Y006935D02*
X006189Y006935D01*
X006189Y007145D01*
X006419Y007145D01*
X006419Y006935D01*
X006419Y006980D02*
X006189Y006980D01*
X006189Y007025D02*
X006419Y007025D01*
X006419Y007070D02*
X006189Y007070D01*
X006189Y007115D02*
X006419Y007115D01*
X019792Y031581D02*
X019792Y031811D01*
X020002Y031811D01*
X020002Y031581D01*
X019792Y031581D01*
X019792Y031626D02*
X020002Y031626D01*
X020002Y031671D02*
X019792Y031671D01*
X019792Y031716D02*
X020002Y031716D01*
X020002Y031761D02*
X019792Y031761D01*
X019792Y031806D02*
X020002Y031806D01*
X019792Y032093D02*
X019792Y032323D01*
X020002Y032323D01*
X020002Y032093D01*
X019792Y032093D01*
X019792Y032138D02*
X020002Y032138D01*
X020002Y032183D02*
X019792Y032183D01*
X019792Y032228D02*
X020002Y032228D01*
X020002Y032273D02*
X019792Y032273D01*
X019792Y032318D02*
X020002Y032318D01*
X019064Y032067D02*
X019064Y031837D01*
X019064Y032067D02*
X019274Y032067D01*
X019274Y031837D01*
X019064Y031837D01*
X019064Y031882D02*
X019274Y031882D01*
X019274Y031927D02*
X019064Y031927D01*
X019064Y031972D02*
X019274Y031972D01*
X019274Y032017D02*
X019064Y032017D01*
X019064Y032062D02*
X019274Y032062D01*
D19*
X018561Y034872D02*
X018265Y034872D01*
X018561Y034872D02*
X018561Y034276D01*
X018265Y034276D01*
X018265Y034872D01*
X018265Y034319D02*
X018561Y034319D01*
X018561Y034362D02*
X018265Y034362D01*
X018265Y034405D02*
X018561Y034405D01*
X018561Y034448D02*
X018265Y034448D01*
X018265Y034491D02*
X018561Y034491D01*
X018561Y034534D02*
X018265Y034534D01*
X018265Y034577D02*
X018561Y034577D01*
X018561Y034620D02*
X018265Y034620D01*
X018265Y034663D02*
X018561Y034663D01*
X018561Y034706D02*
X018265Y034706D01*
X018265Y034749D02*
X018561Y034749D01*
X018561Y034792D02*
X018265Y034792D01*
X018265Y034835D02*
X018561Y034835D01*
X018561Y036872D02*
X018265Y036872D01*
X018561Y036872D02*
X018561Y036276D01*
X018265Y036276D01*
X018265Y036872D01*
X018265Y036319D02*
X018561Y036319D01*
X018561Y036362D02*
X018265Y036362D01*
X018265Y036405D02*
X018561Y036405D01*
X018561Y036448D02*
X018265Y036448D01*
X018265Y036491D02*
X018561Y036491D01*
X018561Y036534D02*
X018265Y036534D01*
X018265Y036577D02*
X018561Y036577D01*
X018561Y036620D02*
X018265Y036620D01*
X018265Y036663D02*
X018561Y036663D01*
X018561Y036706D02*
X018265Y036706D01*
X018265Y036749D02*
X018561Y036749D01*
X018561Y036792D02*
X018265Y036792D01*
X018265Y036835D02*
X018561Y036835D01*
X017061Y036872D02*
X016765Y036872D01*
X017061Y036872D02*
X017061Y036276D01*
X016765Y036276D01*
X016765Y036872D01*
X016765Y036319D02*
X017061Y036319D01*
X017061Y036362D02*
X016765Y036362D01*
X016765Y036405D02*
X017061Y036405D01*
X017061Y036448D02*
X016765Y036448D01*
X016765Y036491D02*
X017061Y036491D01*
X017061Y036534D02*
X016765Y036534D01*
X016765Y036577D02*
X017061Y036577D01*
X017061Y036620D02*
X016765Y036620D01*
X016765Y036663D02*
X017061Y036663D01*
X017061Y036706D02*
X016765Y036706D01*
X016765Y036749D02*
X017061Y036749D01*
X017061Y036792D02*
X016765Y036792D01*
X016765Y036835D02*
X017061Y036835D01*
X017061Y034872D02*
X016765Y034872D01*
X017061Y034872D02*
X017061Y034276D01*
X016765Y034276D01*
X016765Y034872D01*
X016765Y034319D02*
X017061Y034319D01*
X017061Y034362D02*
X016765Y034362D01*
X016765Y034405D02*
X017061Y034405D01*
X017061Y034448D02*
X016765Y034448D01*
X016765Y034491D02*
X017061Y034491D01*
X017061Y034534D02*
X016765Y034534D01*
X016765Y034577D02*
X017061Y034577D01*
X017061Y034620D02*
X016765Y034620D01*
X016765Y034663D02*
X017061Y034663D01*
X017061Y034706D02*
X016765Y034706D01*
X016765Y034749D02*
X017061Y034749D01*
X017061Y034792D02*
X016765Y034792D01*
X016765Y034835D02*
X017061Y034835D01*
D20*
X024474Y039038D03*
X003686Y020337D03*
X026639Y001440D03*
D21*
X027151Y026243D03*
X027151Y027243D03*
X027151Y028243D03*
X027151Y029243D03*
X027151Y030243D03*
X027151Y031243D03*
X024041Y031790D03*
X024041Y032790D03*
X007308Y027054D03*
X007308Y026054D03*
X007308Y025054D03*
X007308Y024054D03*
X003135Y019156D03*
X003135Y018156D03*
X005041Y031790D03*
X005041Y032790D03*
D22*
X018888Y036091D02*
X019350Y036091D01*
X018888Y036091D02*
X018888Y037655D01*
X019350Y037655D01*
X019350Y036091D01*
X019350Y036141D02*
X018888Y036141D01*
X018888Y036191D02*
X019350Y036191D01*
X019350Y036241D02*
X018888Y036241D01*
X018888Y036291D02*
X019350Y036291D01*
X019350Y036341D02*
X018888Y036341D01*
X018888Y036391D02*
X019350Y036391D01*
X019350Y036441D02*
X018888Y036441D01*
X018888Y036491D02*
X019350Y036491D01*
X019350Y036541D02*
X018888Y036541D01*
X018888Y036591D02*
X019350Y036591D01*
X019350Y036641D02*
X018888Y036641D01*
X018888Y036691D02*
X019350Y036691D01*
X019350Y036741D02*
X018888Y036741D01*
X018888Y036791D02*
X019350Y036791D01*
X019350Y036841D02*
X018888Y036841D01*
X018888Y036891D02*
X019350Y036891D01*
X019350Y036941D02*
X018888Y036941D01*
X018888Y036991D02*
X019350Y036991D01*
X019350Y037041D02*
X018888Y037041D01*
X018888Y037091D02*
X019350Y037091D01*
X019350Y037141D02*
X018888Y037141D01*
X018888Y037191D02*
X019350Y037191D01*
X019350Y037241D02*
X018888Y037241D01*
X018888Y037291D02*
X019350Y037291D01*
X019350Y037341D02*
X018888Y037341D01*
X018888Y037391D02*
X019350Y037391D01*
X019350Y037441D02*
X018888Y037441D01*
X018888Y037491D02*
X019350Y037491D01*
X019350Y037541D02*
X018888Y037541D01*
X018888Y037591D02*
X019350Y037591D01*
X019350Y037641D02*
X018888Y037641D01*
X023298Y036091D02*
X023760Y036091D01*
X023298Y036091D02*
X023298Y037655D01*
X023760Y037655D01*
X023760Y036091D01*
X023760Y036141D02*
X023298Y036141D01*
X023298Y036191D02*
X023760Y036191D01*
X023760Y036241D02*
X023298Y036241D01*
X023298Y036291D02*
X023760Y036291D01*
X023760Y036341D02*
X023298Y036341D01*
X023298Y036391D02*
X023760Y036391D01*
X023760Y036441D02*
X023298Y036441D01*
X023298Y036491D02*
X023760Y036491D01*
X023760Y036541D02*
X023298Y036541D01*
X023298Y036591D02*
X023760Y036591D01*
X023760Y036641D02*
X023298Y036641D01*
X023298Y036691D02*
X023760Y036691D01*
X023760Y036741D02*
X023298Y036741D01*
X023298Y036791D02*
X023760Y036791D01*
X023760Y036841D02*
X023298Y036841D01*
X023298Y036891D02*
X023760Y036891D01*
X023760Y036941D02*
X023298Y036941D01*
X023298Y036991D02*
X023760Y036991D01*
X023760Y037041D02*
X023298Y037041D01*
X023298Y037091D02*
X023760Y037091D01*
X023760Y037141D02*
X023298Y037141D01*
X023298Y037191D02*
X023760Y037191D01*
X023760Y037241D02*
X023298Y037241D01*
X023298Y037291D02*
X023760Y037291D01*
X023760Y037341D02*
X023298Y037341D01*
X023298Y037391D02*
X023760Y037391D01*
X023760Y037441D02*
X023298Y037441D01*
X023298Y037491D02*
X023760Y037491D01*
X023760Y037541D02*
X023298Y037541D01*
X023298Y037591D02*
X023760Y037591D01*
X023760Y037641D02*
X023298Y037641D01*
D23*
X004366Y034532D02*
X004366Y033958D01*
X003852Y033958D01*
X003852Y034532D01*
X004366Y034532D01*
X004366Y034014D02*
X003852Y034014D01*
X003852Y034070D02*
X004366Y034070D01*
X004366Y034126D02*
X003852Y034126D01*
X003852Y034182D02*
X004366Y034182D01*
X004366Y034238D02*
X003852Y034238D01*
X003852Y034294D02*
X004366Y034294D01*
X004366Y034350D02*
X003852Y034350D01*
X003852Y034406D02*
X004366Y034406D01*
X004366Y034462D02*
X003852Y034462D01*
X003852Y034518D02*
X004366Y034518D01*
X003973Y039332D02*
X003973Y039906D01*
X003973Y039332D02*
X003459Y039332D01*
X003459Y039906D01*
X003973Y039906D01*
X003973Y039388D02*
X003459Y039388D01*
X003459Y039444D02*
X003973Y039444D01*
X003973Y039500D02*
X003459Y039500D01*
X003459Y039556D02*
X003973Y039556D01*
X003973Y039612D02*
X003459Y039612D01*
X003459Y039668D02*
X003973Y039668D01*
X003973Y039724D02*
X003459Y039724D01*
X003459Y039780D02*
X003973Y039780D01*
X003973Y039836D02*
X003459Y039836D01*
X003459Y039892D02*
X003973Y039892D01*
D24*
X005496Y034460D02*
X005496Y033912D01*
X005104Y033912D01*
X005104Y034460D01*
X005496Y034460D01*
X005496Y033954D02*
X005104Y033954D01*
X005104Y033996D02*
X005496Y033996D01*
X005496Y034038D02*
X005104Y034038D01*
X005104Y034080D02*
X005496Y034080D01*
X005496Y034122D02*
X005104Y034122D01*
X005104Y034164D02*
X005496Y034164D01*
X005496Y034206D02*
X005104Y034206D01*
X005104Y034248D02*
X005496Y034248D01*
X005496Y034290D02*
X005104Y034290D01*
X005104Y034332D02*
X005496Y034332D01*
X005496Y034374D02*
X005104Y034374D01*
X005104Y034416D02*
X005496Y034416D01*
X005496Y034458D02*
X005104Y034458D01*
X010378Y034608D02*
X010378Y034216D01*
X009868Y034216D01*
X009868Y034608D01*
X010378Y034608D01*
X010378Y034258D02*
X009868Y034258D01*
X009868Y034300D02*
X010378Y034300D01*
X010378Y034342D02*
X009868Y034342D01*
X009868Y034384D02*
X010378Y034384D01*
X010378Y034426D02*
X009868Y034426D01*
X009868Y034468D02*
X010378Y034468D01*
X010378Y034510D02*
X009868Y034510D01*
X009868Y034552D02*
X010378Y034552D01*
X010378Y034594D02*
X009868Y034594D01*
X010260Y020533D02*
X010260Y020063D01*
X009868Y020063D01*
X009868Y020533D01*
X010260Y020533D01*
X010260Y020105D02*
X009868Y020105D01*
X009868Y020147D02*
X010260Y020147D01*
X010260Y020189D02*
X009868Y020189D01*
X009868Y020231D02*
X010260Y020231D01*
X010260Y020273D02*
X009868Y020273D01*
X009868Y020315D02*
X010260Y020315D01*
X010260Y020357D02*
X009868Y020357D01*
X009868Y020399D02*
X010260Y020399D01*
X010260Y020441D02*
X009868Y020441D01*
X009868Y020483D02*
X010260Y020483D01*
X010260Y020525D02*
X009868Y020525D01*
X009630Y020533D02*
X009630Y020063D01*
X009238Y020063D01*
X009238Y020533D01*
X009630Y020533D01*
X009630Y020105D02*
X009238Y020105D01*
X009238Y020147D02*
X009630Y020147D01*
X009630Y020189D02*
X009238Y020189D01*
X009238Y020231D02*
X009630Y020231D01*
X009630Y020273D02*
X009238Y020273D01*
X009238Y020315D02*
X009630Y020315D01*
X009630Y020357D02*
X009238Y020357D01*
X009238Y020399D02*
X009630Y020399D01*
X009630Y020441D02*
X009238Y020441D01*
X009238Y020483D02*
X009630Y020483D01*
X009630Y020525D02*
X009238Y020525D01*
X009630Y019667D02*
X009630Y019197D01*
X009238Y019197D01*
X009238Y019667D01*
X009630Y019667D01*
X009630Y019239D02*
X009238Y019239D01*
X009238Y019281D02*
X009630Y019281D01*
X009630Y019323D02*
X009238Y019323D01*
X009238Y019365D02*
X009630Y019365D01*
X009630Y019407D02*
X009238Y019407D01*
X009238Y019449D02*
X009630Y019449D01*
X009630Y019491D02*
X009238Y019491D01*
X009238Y019533D02*
X009630Y019533D01*
X009630Y019575D02*
X009238Y019575D01*
X009238Y019617D02*
X009630Y019617D01*
X009630Y019659D02*
X009238Y019659D01*
X010260Y019667D02*
X010260Y019197D01*
X009868Y019197D01*
X009868Y019667D01*
X010260Y019667D01*
X010260Y019239D02*
X009868Y019239D01*
X009868Y019281D02*
X010260Y019281D01*
X010260Y019323D02*
X009868Y019323D01*
X009868Y019365D02*
X010260Y019365D01*
X010260Y019407D02*
X009868Y019407D01*
X009868Y019449D02*
X010260Y019449D01*
X010260Y019491D02*
X009868Y019491D01*
X009868Y019533D02*
X010260Y019533D01*
X010260Y019575D02*
X009868Y019575D01*
X009868Y019617D02*
X010260Y019617D01*
X010260Y019659D02*
X009868Y019659D01*
X021835Y020693D02*
X021835Y021163D01*
X021835Y020693D02*
X021443Y020693D01*
X021443Y021163D01*
X021835Y021163D01*
X021835Y020735D02*
X021443Y020735D01*
X021443Y020777D02*
X021835Y020777D01*
X021835Y020819D02*
X021443Y020819D01*
X021443Y020861D02*
X021835Y020861D01*
X021835Y020903D02*
X021443Y020903D01*
X021443Y020945D02*
X021835Y020945D01*
X021835Y020987D02*
X021443Y020987D01*
X021443Y021029D02*
X021835Y021029D01*
X021835Y021071D02*
X021443Y021071D01*
X021443Y021113D02*
X021835Y021113D01*
X021835Y021155D02*
X021443Y021155D01*
X021835Y021559D02*
X021835Y022029D01*
X021835Y021559D02*
X021443Y021559D01*
X021443Y022029D01*
X021835Y022029D01*
X021835Y021601D02*
X021443Y021601D01*
X021443Y021643D02*
X021835Y021643D01*
X021835Y021685D02*
X021443Y021685D01*
X021443Y021727D02*
X021835Y021727D01*
X021835Y021769D02*
X021443Y021769D01*
X021443Y021811D02*
X021835Y021811D01*
X021835Y021853D02*
X021443Y021853D01*
X021443Y021895D02*
X021835Y021895D01*
X021835Y021937D02*
X021443Y021937D01*
X021443Y021979D02*
X021835Y021979D01*
X021835Y022021D02*
X021443Y022021D01*
X022112Y021990D02*
X022112Y021520D01*
X022112Y021990D02*
X022504Y021990D01*
X022504Y021520D01*
X022112Y021520D01*
X022112Y021562D02*
X022504Y021562D01*
X022504Y021604D02*
X022112Y021604D01*
X022112Y021646D02*
X022504Y021646D01*
X022504Y021688D02*
X022112Y021688D01*
X022112Y021730D02*
X022504Y021730D01*
X022504Y021772D02*
X022112Y021772D01*
X022112Y021814D02*
X022504Y021814D01*
X022504Y021856D02*
X022112Y021856D01*
X022112Y021898D02*
X022504Y021898D01*
X022504Y021940D02*
X022112Y021940D01*
X022112Y021982D02*
X022504Y021982D01*
X022112Y021124D02*
X022112Y020654D01*
X022112Y021124D02*
X022504Y021124D01*
X022504Y020654D01*
X022112Y020654D01*
X022112Y020696D02*
X022504Y020696D01*
X022504Y020738D02*
X022112Y020738D01*
X022112Y020780D02*
X022504Y020780D01*
X022504Y020822D02*
X022112Y020822D01*
X022112Y020864D02*
X022504Y020864D01*
X022504Y020906D02*
X022112Y020906D01*
X022112Y020948D02*
X022504Y020948D01*
X022504Y020990D02*
X022112Y020990D01*
X022112Y021032D02*
X022504Y021032D01*
X022504Y021074D02*
X022112Y021074D01*
X022112Y021116D02*
X022504Y021116D01*
X021993Y011931D02*
X021993Y011539D01*
X021601Y011539D01*
X021601Y011931D01*
X021993Y011931D01*
X021993Y011581D02*
X021601Y011581D01*
X021601Y011623D02*
X021993Y011623D01*
X021993Y011665D02*
X021601Y011665D01*
X021601Y011707D02*
X021993Y011707D01*
X021993Y011749D02*
X021601Y011749D01*
X021601Y011791D02*
X021993Y011791D01*
X021993Y011833D02*
X021601Y011833D01*
X021601Y011875D02*
X021993Y011875D01*
X021993Y011917D02*
X021601Y011917D01*
X021993Y011144D02*
X021993Y010752D01*
X021601Y010752D01*
X021601Y011144D01*
X021993Y011144D01*
X021993Y010794D02*
X021601Y010794D01*
X021601Y010836D02*
X021993Y010836D01*
X021993Y010878D02*
X021601Y010878D01*
X021601Y010920D02*
X021993Y010920D01*
X021993Y010962D02*
X021601Y010962D01*
X021601Y011004D02*
X021993Y011004D01*
X021993Y011046D02*
X021601Y011046D01*
X021601Y011088D02*
X021993Y011088D01*
X021993Y011130D02*
X021601Y011130D01*
X021601Y010494D02*
X021601Y010102D01*
X021601Y010494D02*
X021993Y010494D01*
X021993Y010102D01*
X021601Y010102D01*
X021601Y010144D02*
X021993Y010144D01*
X021993Y010186D02*
X021601Y010186D01*
X021601Y010228D02*
X021993Y010228D01*
X021993Y010270D02*
X021601Y010270D01*
X021601Y010312D02*
X021993Y010312D01*
X021993Y010354D02*
X021601Y010354D01*
X021601Y010396D02*
X021993Y010396D01*
X021993Y010438D02*
X021601Y010438D01*
X021601Y010480D02*
X021993Y010480D01*
X021601Y009707D02*
X021601Y009315D01*
X021601Y009707D02*
X021993Y009707D01*
X021993Y009315D01*
X021601Y009315D01*
X021601Y009357D02*
X021993Y009357D01*
X021993Y009399D02*
X021601Y009399D01*
X021601Y009441D02*
X021993Y009441D01*
X021993Y009483D02*
X021601Y009483D01*
X021601Y009525D02*
X021993Y009525D01*
X021993Y009567D02*
X021601Y009567D01*
X021601Y009609D02*
X021993Y009609D01*
X021993Y009651D02*
X021601Y009651D01*
X021601Y009693D02*
X021993Y009693D01*
X022152Y009077D02*
X022544Y009077D01*
X022544Y008685D01*
X022152Y008685D01*
X022152Y009077D01*
X022152Y008727D02*
X022544Y008727D01*
X022544Y008769D02*
X022152Y008769D01*
X022152Y008811D02*
X022544Y008811D01*
X022544Y008853D02*
X022152Y008853D01*
X022152Y008895D02*
X022544Y008895D01*
X022544Y008937D02*
X022152Y008937D01*
X022152Y008979D02*
X022544Y008979D01*
X022544Y009021D02*
X022152Y009021D01*
X022152Y009063D02*
X022544Y009063D01*
X021756Y009077D02*
X021364Y009077D01*
X021756Y009077D02*
X021756Y008685D01*
X021364Y008685D01*
X021364Y009077D01*
X021364Y008727D02*
X021756Y008727D01*
X021756Y008769D02*
X021364Y008769D01*
X021364Y008811D02*
X021756Y008811D01*
X021756Y008853D02*
X021364Y008853D01*
X021364Y008895D02*
X021756Y008895D01*
X021756Y008937D02*
X021364Y008937D01*
X021364Y008979D02*
X021756Y008979D01*
X021756Y009021D02*
X021364Y009021D01*
X021364Y009063D02*
X021756Y009063D01*
D25*
X010435Y034800D02*
X010435Y035088D01*
X010435Y034800D02*
X009851Y034800D01*
X009851Y035088D01*
X010435Y035088D01*
X010435Y034846D02*
X009851Y034846D01*
X009851Y034892D02*
X010435Y034892D01*
X010435Y034938D02*
X009851Y034938D01*
X009851Y034984D02*
X010435Y034984D01*
X010435Y035030D02*
X009851Y035030D01*
X009851Y035076D02*
X010435Y035076D01*
X010435Y035233D02*
X010435Y035521D01*
X010435Y035233D02*
X009851Y035233D01*
X009851Y035521D01*
X010435Y035521D01*
X010435Y035279D02*
X009851Y035279D01*
X009851Y035325D02*
X010435Y035325D01*
X010435Y035371D02*
X009851Y035371D01*
X009851Y035417D02*
X010435Y035417D01*
X010435Y035463D02*
X009851Y035463D01*
X009851Y035509D02*
X010435Y035509D01*
X010435Y035666D02*
X010435Y035954D01*
X010435Y035666D02*
X009851Y035666D01*
X009851Y035954D01*
X010435Y035954D01*
X010435Y035712D02*
X009851Y035712D01*
X009851Y035758D02*
X010435Y035758D01*
X010435Y035804D02*
X009851Y035804D01*
X009851Y035850D02*
X010435Y035850D01*
X010435Y035896D02*
X009851Y035896D01*
X009851Y035942D02*
X010435Y035942D01*
X010435Y036099D02*
X010435Y036387D01*
X010435Y036099D02*
X009851Y036099D01*
X009851Y036387D01*
X010435Y036387D01*
X010435Y036145D02*
X009851Y036145D01*
X009851Y036191D02*
X010435Y036191D01*
X010435Y036237D02*
X009851Y036237D01*
X009851Y036283D02*
X010435Y036283D01*
X010435Y036329D02*
X009851Y036329D01*
X009851Y036375D02*
X010435Y036375D01*
X010435Y036532D02*
X010435Y036820D01*
X010435Y036532D02*
X009851Y036532D01*
X009851Y036820D01*
X010435Y036820D01*
X010435Y036578D02*
X009851Y036578D01*
X009851Y036624D02*
X010435Y036624D01*
X010435Y036670D02*
X009851Y036670D01*
X009851Y036716D02*
X010435Y036716D01*
X010435Y036762D02*
X009851Y036762D01*
X009851Y036808D02*
X010435Y036808D01*
X010435Y036965D02*
X010435Y037253D01*
X010435Y036965D02*
X009851Y036965D01*
X009851Y037253D01*
X010435Y037253D01*
X010435Y037011D02*
X009851Y037011D01*
X009851Y037057D02*
X010435Y037057D01*
X010435Y037103D02*
X009851Y037103D01*
X009851Y037149D02*
X010435Y037149D01*
X010435Y037195D02*
X009851Y037195D01*
X009851Y037241D02*
X010435Y037241D01*
X010435Y037398D02*
X010435Y037686D01*
X010435Y037398D02*
X009851Y037398D01*
X009851Y037686D01*
X010435Y037686D01*
X010435Y037444D02*
X009851Y037444D01*
X009851Y037490D02*
X010435Y037490D01*
X010435Y037536D02*
X009851Y037536D01*
X009851Y037582D02*
X010435Y037582D01*
X010435Y037628D02*
X009851Y037628D01*
X009851Y037674D02*
X010435Y037674D01*
X010435Y037831D02*
X010435Y038119D01*
X010435Y037831D02*
X009851Y037831D01*
X009851Y038119D01*
X010435Y038119D01*
X010435Y037877D02*
X009851Y037877D01*
X009851Y037923D02*
X010435Y037923D01*
X010435Y037969D02*
X009851Y037969D01*
X009851Y038015D02*
X010435Y038015D01*
X010435Y038061D02*
X009851Y038061D01*
X009851Y038107D02*
X010435Y038107D01*
D26*
X010694Y039235D03*
X011875Y039235D03*
X017387Y039235D03*
X018568Y039235D03*
X004828Y015180D03*
D27*
X005382Y006614D02*
X005770Y006614D01*
X005770Y006384D01*
X005382Y006384D01*
X005382Y006614D01*
X005382Y006430D02*
X005770Y006430D01*
X005770Y006476D02*
X005382Y006476D01*
X005382Y006522D02*
X005770Y006522D01*
X005770Y006568D02*
X005382Y006568D01*
X005382Y006614D02*
X005770Y006614D01*
X002896Y006614D02*
X002508Y006614D01*
X002896Y006614D02*
X002896Y006384D01*
X002508Y006384D01*
X002508Y006614D01*
X002508Y006430D02*
X002896Y006430D01*
X002896Y006476D02*
X002508Y006476D01*
X002508Y006522D02*
X002896Y006522D01*
X002896Y006568D02*
X002508Y006568D01*
X002508Y006614D02*
X002896Y006614D01*
X009063Y005492D02*
X009063Y005262D01*
X009063Y005492D02*
X009333Y005492D01*
X009333Y005262D01*
X009063Y005262D01*
X009063Y005308D02*
X009333Y005308D01*
X009333Y005354D02*
X009063Y005354D01*
X009063Y005400D02*
X009333Y005400D01*
X009333Y005446D02*
X009063Y005446D01*
X009063Y005492D02*
X009333Y005492D01*
X009850Y005636D02*
X009850Y005866D01*
X010120Y005866D01*
X010120Y005636D01*
X009850Y005636D01*
X009850Y005682D02*
X010120Y005682D01*
X010120Y005728D02*
X009850Y005728D01*
X009850Y005774D02*
X010120Y005774D01*
X010120Y005820D02*
X009850Y005820D01*
X009850Y005866D02*
X010120Y005866D01*
X009850Y005118D02*
X009850Y004888D01*
X009850Y005118D02*
X010120Y005118D01*
X010120Y004888D01*
X009850Y004888D01*
X009850Y004934D02*
X010120Y004934D01*
X010120Y004980D02*
X009850Y004980D01*
X009850Y005026D02*
X010120Y005026D01*
X010120Y005072D02*
X009850Y005072D01*
X009850Y005118D02*
X010120Y005118D01*
X018782Y009967D02*
X018782Y010197D01*
X018782Y009967D02*
X018512Y009967D01*
X018512Y010197D01*
X018782Y010197D01*
X018782Y010013D02*
X018512Y010013D01*
X018512Y010059D02*
X018782Y010059D01*
X018782Y010105D02*
X018512Y010105D01*
X018512Y010151D02*
X018782Y010151D01*
X018782Y010197D02*
X018512Y010197D01*
X018782Y010715D02*
X018782Y010945D01*
X018782Y010715D02*
X018512Y010715D01*
X018512Y010945D01*
X018782Y010945D01*
X018782Y010761D02*
X018512Y010761D01*
X018512Y010807D02*
X018782Y010807D01*
X018782Y010853D02*
X018512Y010853D01*
X018512Y010899D02*
X018782Y010899D01*
X018782Y010945D02*
X018512Y010945D01*
X019569Y010571D02*
X019569Y010341D01*
X019299Y010341D01*
X019299Y010571D01*
X019569Y010571D01*
X019569Y010387D02*
X019299Y010387D01*
X019299Y010433D02*
X019569Y010433D01*
X019569Y010479D02*
X019299Y010479D01*
X019299Y010525D02*
X019569Y010525D01*
X019569Y010571D02*
X019299Y010571D01*
D28*
X015556Y013349D02*
X015320Y013349D01*
X015320Y013546D02*
X015556Y013546D01*
X015556Y013743D02*
X015320Y013743D01*
X015320Y013940D02*
X015556Y013940D01*
X015556Y014137D02*
X015320Y014137D01*
X015320Y014334D02*
X015556Y014334D01*
X015123Y014511D02*
X015123Y014767D01*
X014926Y014767D02*
X014926Y014511D01*
X014730Y014511D02*
X014730Y014767D01*
X014533Y014767D02*
X014533Y014511D01*
X014336Y014511D02*
X014336Y014767D01*
X014139Y014767D02*
X014139Y014511D01*
X013942Y014334D02*
X013706Y014334D01*
X013706Y014137D02*
X013942Y014137D01*
X013942Y013940D02*
X013706Y013940D01*
X013706Y013743D02*
X013942Y013743D01*
X013942Y013546D02*
X013706Y013546D01*
X013706Y013349D02*
X013942Y013349D01*
X014139Y013172D02*
X014139Y012916D01*
X014336Y012916D02*
X014336Y013172D01*
X014533Y013172D02*
X014533Y012916D01*
X014730Y012916D02*
X014730Y013172D01*
X014926Y013172D02*
X014926Y012916D01*
X015123Y012916D02*
X015123Y013172D01*
D29*
X023268Y011081D02*
X023268Y010933D01*
X022726Y010933D01*
X022726Y011081D01*
X023268Y011081D01*
X023268Y010981D02*
X022726Y010981D01*
X022726Y011029D02*
X023268Y011029D01*
X023268Y011077D02*
X022726Y011077D01*
X023268Y010825D02*
X023268Y010677D01*
X022726Y010677D01*
X022726Y010825D01*
X023268Y010825D01*
X023268Y010725D02*
X022726Y010725D01*
X022726Y010773D02*
X023268Y010773D01*
X023268Y010821D02*
X022726Y010821D01*
X023268Y010569D02*
X023268Y010421D01*
X022726Y010421D01*
X022726Y010569D01*
X023268Y010569D01*
X023268Y010469D02*
X022726Y010469D01*
X022726Y010517D02*
X023268Y010517D01*
X023268Y010565D02*
X022726Y010565D01*
X023268Y010313D02*
X023268Y010165D01*
X022726Y010165D01*
X022726Y010313D01*
X023268Y010313D01*
X023268Y010213D02*
X022726Y010213D01*
X022726Y010261D02*
X023268Y010261D01*
X023268Y010309D02*
X022726Y010309D01*
X023268Y010057D02*
X023268Y009909D01*
X022726Y009909D01*
X022726Y010057D01*
X023268Y010057D01*
X023268Y009957D02*
X022726Y009957D01*
X022726Y010005D02*
X023268Y010005D01*
X023268Y010053D02*
X022726Y010053D01*
D30*
X024474Y010377D02*
X024474Y009629D01*
X023764Y009629D01*
X023764Y010377D01*
X024474Y010377D01*
X024474Y009707D02*
X023764Y009707D01*
X023764Y009785D02*
X024474Y009785D01*
X024474Y009863D02*
X023764Y009863D01*
X023764Y009941D02*
X024474Y009941D01*
X024474Y010019D02*
X023764Y010019D01*
X023764Y010097D02*
X024474Y010097D01*
X024474Y010175D02*
X023764Y010175D01*
X023764Y010253D02*
X024474Y010253D01*
X024474Y010331D02*
X023764Y010331D01*
X024474Y010613D02*
X024474Y011361D01*
X024474Y010613D02*
X023764Y010613D01*
X023764Y011361D01*
X024474Y011361D01*
X024474Y010691D02*
X023764Y010691D01*
X023764Y010769D02*
X024474Y010769D01*
X024474Y010847D02*
X023764Y010847D01*
X023764Y010925D02*
X024474Y010925D01*
X024474Y011003D02*
X023764Y011003D01*
X023764Y011081D02*
X024474Y011081D01*
X024474Y011159D02*
X023764Y011159D01*
X023764Y011237D02*
X024474Y011237D01*
X024474Y011315D02*
X023764Y011315D01*
X024474Y011656D02*
X024474Y012484D01*
X024474Y011656D02*
X023764Y011656D01*
X023764Y012484D01*
X024474Y012484D01*
X024474Y011734D02*
X023764Y011734D01*
X023764Y011812D02*
X024474Y011812D01*
X024474Y011890D02*
X023764Y011890D01*
X023764Y011968D02*
X024474Y011968D01*
X024474Y012046D02*
X023764Y012046D01*
X023764Y012124D02*
X024474Y012124D01*
X024474Y012202D02*
X023764Y012202D01*
X023764Y012280D02*
X024474Y012280D01*
X024474Y012358D02*
X023764Y012358D01*
X023764Y012436D02*
X024474Y012436D01*
X024474Y009334D02*
X024474Y008506D01*
X023764Y008506D01*
X023764Y009334D01*
X024474Y009334D01*
X024474Y008584D02*
X023764Y008584D01*
X023764Y008662D02*
X024474Y008662D01*
X024474Y008740D02*
X023764Y008740D01*
X023764Y008818D02*
X024474Y008818D01*
X024474Y008896D02*
X023764Y008896D01*
X023764Y008974D02*
X024474Y008974D01*
X024474Y009052D02*
X023764Y009052D01*
X023764Y009130D02*
X024474Y009130D01*
X024474Y009208D02*
X023764Y009208D01*
X023764Y009286D02*
X024474Y009286D01*
D31*
X023368Y009674D02*
X023368Y008874D01*
X022764Y008874D01*
X022764Y009674D01*
X023368Y009674D01*
X023368Y008940D02*
X022764Y008940D01*
X022764Y009006D02*
X023368Y009006D01*
X023368Y009072D02*
X022764Y009072D01*
X022764Y009138D02*
X023368Y009138D01*
X023368Y009204D02*
X022764Y009204D01*
X022764Y009270D02*
X023368Y009270D01*
X023368Y009336D02*
X022764Y009336D01*
X022764Y009402D02*
X023368Y009402D01*
X023368Y009468D02*
X022764Y009468D01*
X022764Y009534D02*
X023368Y009534D01*
X023368Y009600D02*
X022764Y009600D01*
X022764Y009666D02*
X023368Y009666D01*
X023368Y011315D02*
X023368Y012115D01*
X023368Y011315D02*
X022764Y011315D01*
X022764Y012115D01*
X023368Y012115D01*
X023368Y011381D02*
X022764Y011381D01*
X022764Y011447D02*
X023368Y011447D01*
X023368Y011513D02*
X022764Y011513D01*
X022764Y011579D02*
X023368Y011579D01*
X023368Y011645D02*
X022764Y011645D01*
X022764Y011711D02*
X023368Y011711D01*
X023368Y011777D02*
X022764Y011777D01*
X022764Y011843D02*
X023368Y011843D01*
X023368Y011909D02*
X022764Y011909D01*
X022764Y011975D02*
X023368Y011975D01*
X023368Y012041D02*
X022764Y012041D01*
X022764Y012107D02*
X023368Y012107D01*
X022650Y013552D02*
X022046Y013552D01*
X022650Y013552D02*
X022650Y012634D01*
X022046Y012634D01*
X022046Y013552D01*
X022046Y012700D02*
X022650Y012700D01*
X022650Y012766D02*
X022046Y012766D01*
X022046Y012832D02*
X022650Y012832D01*
X022650Y012898D02*
X022046Y012898D01*
X022046Y012964D02*
X022650Y012964D01*
X022650Y013030D02*
X022046Y013030D01*
X022046Y013096D02*
X022650Y013096D01*
X022650Y013162D02*
X022046Y013162D01*
X022046Y013228D02*
X022650Y013228D01*
X022650Y013294D02*
X022046Y013294D01*
X022046Y013360D02*
X022650Y013360D01*
X022650Y013426D02*
X022046Y013426D01*
X022046Y013492D02*
X022650Y013492D01*
X022650Y014812D02*
X022046Y014812D01*
X022650Y014812D02*
X022650Y013894D01*
X022046Y013894D01*
X022046Y014812D01*
X022046Y013960D02*
X022650Y013960D01*
X022650Y014026D02*
X022046Y014026D01*
X022046Y014092D02*
X022650Y014092D01*
X022650Y014158D02*
X022046Y014158D01*
X022046Y014224D02*
X022650Y014224D01*
X022650Y014290D02*
X022046Y014290D01*
X022046Y014356D02*
X022650Y014356D01*
X022650Y014422D02*
X022046Y014422D01*
X022046Y014488D02*
X022650Y014488D01*
X022650Y014554D02*
X022046Y014554D01*
X022046Y014620D02*
X022650Y014620D01*
X022650Y014686D02*
X022046Y014686D01*
X022046Y014752D02*
X022650Y014752D01*
X021469Y013894D02*
X020865Y013894D01*
X020865Y014812D01*
X021469Y014812D01*
X021469Y013894D01*
X021469Y013960D02*
X020865Y013960D01*
X020865Y014026D02*
X021469Y014026D01*
X021469Y014092D02*
X020865Y014092D01*
X020865Y014158D02*
X021469Y014158D01*
X021469Y014224D02*
X020865Y014224D01*
X020865Y014290D02*
X021469Y014290D01*
X021469Y014356D02*
X020865Y014356D01*
X020865Y014422D02*
X021469Y014422D01*
X021469Y014488D02*
X020865Y014488D01*
X020865Y014554D02*
X021469Y014554D01*
X021469Y014620D02*
X020865Y014620D01*
X020865Y014686D02*
X021469Y014686D01*
X021469Y014752D02*
X020865Y014752D01*
X020865Y012634D02*
X021469Y012634D01*
X020865Y012634D02*
X020865Y013552D01*
X021469Y013552D01*
X021469Y012634D01*
X021469Y012700D02*
X020865Y012700D01*
X020865Y012766D02*
X021469Y012766D01*
X021469Y012832D02*
X020865Y012832D01*
X020865Y012898D02*
X021469Y012898D01*
X021469Y012964D02*
X020865Y012964D01*
X020865Y013030D02*
X021469Y013030D01*
X021469Y013096D02*
X020865Y013096D01*
X020865Y013162D02*
X021469Y013162D01*
X021469Y013228D02*
X020865Y013228D01*
X020865Y013294D02*
X021469Y013294D01*
X021469Y013360D02*
X020865Y013360D01*
X020865Y013426D02*
X021469Y013426D01*
X021469Y013492D02*
X020865Y013492D01*
X022846Y017063D02*
X022846Y017667D01*
X022846Y017063D02*
X021928Y017063D01*
X021928Y017667D01*
X022846Y017667D01*
X022846Y017129D02*
X021928Y017129D01*
X021928Y017195D02*
X022846Y017195D01*
X022846Y017261D02*
X021928Y017261D01*
X021928Y017327D02*
X022846Y017327D01*
X022846Y017393D02*
X021928Y017393D01*
X021928Y017459D02*
X022846Y017459D01*
X022846Y017525D02*
X021928Y017525D01*
X021928Y017591D02*
X022846Y017591D01*
X022846Y017657D02*
X021928Y017657D01*
X021928Y018244D02*
X021928Y018848D01*
X022846Y018848D01*
X022846Y018244D01*
X021928Y018244D01*
X021928Y018310D02*
X022846Y018310D01*
X022846Y018376D02*
X021928Y018376D01*
X021928Y018442D02*
X022846Y018442D01*
X022846Y018508D02*
X021928Y018508D01*
X021928Y018574D02*
X022846Y018574D01*
X022846Y018640D02*
X021928Y018640D01*
X021928Y018706D02*
X022846Y018706D01*
X022846Y018772D02*
X021928Y018772D01*
X021928Y018838D02*
X022846Y018838D01*
X021862Y022476D02*
X021862Y023080D01*
X021862Y022476D02*
X020944Y022476D01*
X020944Y023080D01*
X021862Y023080D01*
X021862Y022542D02*
X020944Y022542D01*
X020944Y022608D02*
X021862Y022608D01*
X021862Y022674D02*
X020944Y022674D01*
X020944Y022740D02*
X021862Y022740D01*
X021862Y022806D02*
X020944Y022806D01*
X020944Y022872D02*
X021862Y022872D01*
X021862Y022938D02*
X020944Y022938D01*
X020944Y023004D02*
X021862Y023004D01*
X021862Y023070D02*
X020944Y023070D01*
X020944Y023658D02*
X020944Y024262D01*
X021862Y024262D01*
X021862Y023658D01*
X020944Y023658D01*
X020944Y023724D02*
X021862Y023724D01*
X021862Y023790D02*
X020944Y023790D01*
X020944Y023856D02*
X021862Y023856D01*
X021862Y023922D02*
X020944Y023922D01*
X020944Y023988D02*
X021862Y023988D01*
X021862Y024054D02*
X020944Y024054D01*
X020944Y024120D02*
X021862Y024120D01*
X021862Y024186D02*
X020944Y024186D01*
X020944Y024252D02*
X021862Y024252D01*
X012204Y019025D02*
X012204Y018421D01*
X012204Y019025D02*
X013122Y019025D01*
X013122Y018421D01*
X012204Y018421D01*
X012204Y018487D02*
X013122Y018487D01*
X013122Y018553D02*
X012204Y018553D01*
X012204Y018619D02*
X013122Y018619D01*
X013122Y018685D02*
X012204Y018685D01*
X012204Y018751D02*
X013122Y018751D01*
X013122Y018817D02*
X012204Y018817D01*
X012204Y018883D02*
X013122Y018883D01*
X013122Y018949D02*
X012204Y018949D01*
X012204Y019015D02*
X013122Y019015D01*
X013122Y017844D02*
X013122Y017240D01*
X012204Y017240D01*
X012204Y017844D01*
X013122Y017844D01*
X013122Y017306D02*
X012204Y017306D01*
X012204Y017372D02*
X013122Y017372D01*
X013122Y017438D02*
X012204Y017438D01*
X012204Y017504D02*
X013122Y017504D01*
X013122Y017570D02*
X012204Y017570D01*
X012204Y017636D02*
X013122Y017636D01*
X013122Y017702D02*
X012204Y017702D01*
X012204Y017768D02*
X013122Y017768D01*
X013122Y017834D02*
X012204Y017834D01*
X008949Y020718D02*
X008345Y020718D01*
X008949Y020718D02*
X008949Y019800D01*
X008345Y019800D01*
X008345Y020718D01*
X008345Y019866D02*
X008949Y019866D01*
X008949Y019932D02*
X008345Y019932D01*
X008345Y019998D02*
X008949Y019998D01*
X008949Y020064D02*
X008345Y020064D01*
X008345Y020130D02*
X008949Y020130D01*
X008949Y020196D02*
X008345Y020196D01*
X008345Y020262D02*
X008949Y020262D01*
X008949Y020328D02*
X008345Y020328D01*
X008345Y020394D02*
X008949Y020394D01*
X008949Y020460D02*
X008345Y020460D01*
X008345Y020526D02*
X008949Y020526D01*
X008949Y020592D02*
X008345Y020592D01*
X008345Y020658D02*
X008949Y020658D01*
X008516Y021859D02*
X007912Y021859D01*
X008516Y021859D02*
X008516Y020941D01*
X007912Y020941D01*
X007912Y021859D01*
X007912Y021007D02*
X008516Y021007D01*
X008516Y021073D02*
X007912Y021073D01*
X007912Y021139D02*
X008516Y021139D01*
X008516Y021205D02*
X007912Y021205D01*
X007912Y021271D02*
X008516Y021271D01*
X008516Y021337D02*
X007912Y021337D01*
X007912Y021403D02*
X008516Y021403D01*
X008516Y021469D02*
X007912Y021469D01*
X007912Y021535D02*
X008516Y021535D01*
X008516Y021601D02*
X007912Y021601D01*
X007912Y021667D02*
X008516Y021667D01*
X008516Y021733D02*
X007912Y021733D01*
X007912Y021799D02*
X008516Y021799D01*
X007768Y019800D02*
X007164Y019800D01*
X007164Y020718D01*
X007768Y020718D01*
X007768Y019800D01*
X007768Y019866D02*
X007164Y019866D01*
X007164Y019932D02*
X007768Y019932D01*
X007768Y019998D02*
X007164Y019998D01*
X007164Y020064D02*
X007768Y020064D01*
X007768Y020130D02*
X007164Y020130D01*
X007164Y020196D02*
X007768Y020196D01*
X007768Y020262D02*
X007164Y020262D01*
X007164Y020328D02*
X007768Y020328D01*
X007768Y020394D02*
X007164Y020394D01*
X007164Y020460D02*
X007768Y020460D01*
X007768Y020526D02*
X007164Y020526D01*
X007164Y020592D02*
X007768Y020592D01*
X007768Y020658D02*
X007164Y020658D01*
X007335Y020941D02*
X006731Y020941D01*
X006731Y021859D01*
X007335Y021859D01*
X007335Y020941D01*
X007335Y021007D02*
X006731Y021007D01*
X006731Y021073D02*
X007335Y021073D01*
X007335Y021139D02*
X006731Y021139D01*
X006731Y021205D02*
X007335Y021205D01*
X007335Y021271D02*
X006731Y021271D01*
X006731Y021337D02*
X007335Y021337D01*
X007335Y021403D02*
X006731Y021403D01*
X006731Y021469D02*
X007335Y021469D01*
X007335Y021535D02*
X006731Y021535D01*
X006731Y021601D02*
X007335Y021601D01*
X007335Y021667D02*
X006731Y021667D01*
X006731Y021733D02*
X007335Y021733D01*
X007335Y021799D02*
X006731Y021799D01*
D32*
X002896Y005826D02*
X002508Y005826D01*
X002896Y005826D02*
X002896Y005518D01*
X002508Y005518D01*
X002508Y005826D01*
X002508Y005563D02*
X002896Y005563D01*
X002896Y005608D02*
X002508Y005608D01*
X002508Y005653D02*
X002896Y005653D01*
X002896Y005698D02*
X002508Y005698D01*
X002508Y005743D02*
X002896Y005743D01*
X002896Y005788D02*
X002508Y005788D01*
X005382Y005826D02*
X005770Y005826D01*
X005770Y005518D01*
X005382Y005518D01*
X005382Y005826D01*
X005382Y005563D02*
X005770Y005563D01*
X005770Y005608D02*
X005382Y005608D01*
X005382Y005653D02*
X005770Y005653D01*
X005770Y005698D02*
X005382Y005698D01*
X005382Y005743D02*
X005770Y005743D01*
X005770Y005788D02*
X005382Y005788D01*
X005316Y003668D02*
X005446Y003389D01*
X005316Y003668D02*
X006022Y003997D01*
X006152Y003718D01*
X005446Y003389D01*
X005425Y003434D02*
X005543Y003434D01*
X005639Y003479D02*
X005404Y003479D01*
X005383Y003524D02*
X005736Y003524D01*
X005832Y003569D02*
X005362Y003569D01*
X005341Y003614D02*
X005929Y003614D01*
X006025Y003659D02*
X005320Y003659D01*
X005393Y003704D02*
X006122Y003704D01*
X006138Y003749D02*
X005490Y003749D01*
X005586Y003794D02*
X006117Y003794D01*
X006096Y003839D02*
X005683Y003839D01*
X005780Y003884D02*
X006075Y003884D01*
X006054Y003929D02*
X005876Y003929D01*
X005973Y003974D02*
X006033Y003974D01*
X005524Y003222D02*
X005654Y002943D01*
X005524Y003222D02*
X006230Y003551D01*
X006360Y003272D01*
X005654Y002943D01*
X005633Y002988D02*
X005751Y002988D01*
X005847Y003033D02*
X005612Y003033D01*
X005591Y003078D02*
X005944Y003078D01*
X006040Y003123D02*
X005570Y003123D01*
X005549Y003168D02*
X006137Y003168D01*
X006233Y003213D02*
X005528Y003213D01*
X005601Y003258D02*
X006330Y003258D01*
X006346Y003303D02*
X005698Y003303D01*
X005794Y003348D02*
X006325Y003348D01*
X006304Y003393D02*
X005891Y003393D01*
X005988Y003438D02*
X006283Y003438D01*
X006262Y003483D02*
X006084Y003483D01*
X006181Y003528D02*
X006241Y003528D01*
D33*
X004565Y001948D02*
X004894Y001242D01*
X004565Y001948D02*
X005592Y002428D01*
X005921Y001722D01*
X004894Y001242D01*
X004854Y001328D02*
X005078Y001328D01*
X005262Y001414D02*
X004814Y001414D01*
X004774Y001500D02*
X005446Y001500D01*
X005630Y001586D02*
X004734Y001586D01*
X004694Y001672D02*
X005814Y001672D01*
X005904Y001758D02*
X004654Y001758D01*
X004613Y001844D02*
X005864Y001844D01*
X005824Y001930D02*
X004573Y001930D01*
X004710Y002016D02*
X005784Y002016D01*
X005744Y002102D02*
X004894Y002102D01*
X005079Y002188D02*
X005704Y002188D01*
X005664Y002274D02*
X005263Y002274D01*
X005447Y002360D02*
X005624Y002360D01*
X003854Y003472D02*
X003525Y004178D01*
X004552Y004658D01*
X004881Y003952D01*
X003854Y003472D01*
X003814Y003558D02*
X004038Y003558D01*
X004222Y003644D02*
X003774Y003644D01*
X003734Y003730D02*
X004406Y003730D01*
X004590Y003816D02*
X003694Y003816D01*
X003654Y003902D02*
X004774Y003902D01*
X004864Y003988D02*
X003614Y003988D01*
X003573Y004074D02*
X004824Y004074D01*
X004784Y004160D02*
X003533Y004160D01*
X003670Y004246D02*
X004744Y004246D01*
X004704Y004332D02*
X003854Y004332D01*
X004039Y004418D02*
X004664Y004418D01*
X004624Y004504D02*
X004223Y004504D01*
X004407Y004590D02*
X004584Y004590D01*
D34*
X006038Y007715D02*
X006038Y007959D01*
X006532Y007959D01*
X006532Y007715D01*
X006038Y007715D01*
X006038Y007760D02*
X006532Y007760D01*
X006532Y007805D02*
X006038Y007805D01*
X006038Y007850D02*
X006532Y007850D01*
X006532Y007895D02*
X006038Y007895D01*
X006038Y007940D02*
X006532Y007940D01*
X006038Y008070D02*
X006038Y008314D01*
X006532Y008314D01*
X006532Y008070D01*
X006038Y008070D01*
X006038Y008115D02*
X006532Y008115D01*
X006532Y008160D02*
X006038Y008160D01*
X006038Y008205D02*
X006532Y008205D01*
X006532Y008250D02*
X006038Y008250D01*
X006038Y008295D02*
X006532Y008295D01*
X006825Y008314D02*
X006825Y008070D01*
X006825Y008314D02*
X007319Y008314D01*
X007319Y008070D01*
X006825Y008070D01*
X006825Y008115D02*
X007319Y008115D01*
X007319Y008160D02*
X006825Y008160D01*
X006825Y008205D02*
X007319Y008205D01*
X007319Y008250D02*
X006825Y008250D01*
X006825Y008295D02*
X007319Y008295D01*
X006825Y007959D02*
X006825Y007715D01*
X006825Y007959D02*
X007319Y007959D01*
X007319Y007715D01*
X006825Y007715D01*
X006825Y007760D02*
X007319Y007760D01*
X007319Y007805D02*
X006825Y007805D01*
X006825Y007850D02*
X007319Y007850D01*
X007319Y007895D02*
X006825Y007895D01*
X006825Y007940D02*
X007319Y007940D01*
X010311Y017976D02*
X010311Y018220D01*
X010311Y017976D02*
X009817Y017976D01*
X009817Y018220D01*
X010311Y018220D01*
X010311Y018021D02*
X009817Y018021D01*
X009817Y018066D02*
X010311Y018066D01*
X010311Y018111D02*
X009817Y018111D01*
X009817Y018156D02*
X010311Y018156D01*
X010311Y018201D02*
X009817Y018201D01*
X010311Y018326D02*
X010311Y018570D01*
X010311Y018326D02*
X009817Y018326D01*
X009817Y018570D01*
X010311Y018570D01*
X010311Y018371D02*
X009817Y018371D01*
X009817Y018416D02*
X010311Y018416D01*
X010311Y018461D02*
X009817Y018461D01*
X009817Y018506D02*
X010311Y018506D01*
X010311Y018551D02*
X009817Y018551D01*
X010311Y018676D02*
X010311Y018920D01*
X010311Y018676D02*
X009817Y018676D01*
X009817Y018920D01*
X010311Y018920D01*
X010311Y018721D02*
X009817Y018721D01*
X009817Y018766D02*
X010311Y018766D01*
X010311Y018811D02*
X009817Y018811D01*
X009817Y018856D02*
X010311Y018856D01*
X010311Y018901D02*
X009817Y018901D01*
X017387Y017277D02*
X017631Y017277D01*
X017631Y016783D01*
X017387Y016783D01*
X017387Y017277D01*
X017387Y016828D02*
X017631Y016828D01*
X017631Y016873D02*
X017387Y016873D01*
X017387Y016918D02*
X017631Y016918D01*
X017631Y016963D02*
X017387Y016963D01*
X017387Y017008D02*
X017631Y017008D01*
X017631Y017053D02*
X017387Y017053D01*
X017387Y017098D02*
X017631Y017098D01*
X017631Y017143D02*
X017387Y017143D01*
X017387Y017188D02*
X017631Y017188D01*
X017631Y017233D02*
X017387Y017233D01*
X017737Y017277D02*
X017981Y017277D01*
X017981Y016783D01*
X017737Y016783D01*
X017737Y017277D01*
X017737Y016828D02*
X017981Y016828D01*
X017981Y016873D02*
X017737Y016873D01*
X017737Y016918D02*
X017981Y016918D01*
X017981Y016963D02*
X017737Y016963D01*
X017737Y017008D02*
X017981Y017008D01*
X017981Y017053D02*
X017737Y017053D01*
X017737Y017098D02*
X017981Y017098D01*
X017981Y017143D02*
X017737Y017143D01*
X017737Y017188D02*
X017981Y017188D01*
X017981Y017233D02*
X017737Y017233D01*
X018087Y017277D02*
X018331Y017277D01*
X018331Y016783D01*
X018087Y016783D01*
X018087Y017277D01*
X018087Y016828D02*
X018331Y016828D01*
X018331Y016873D02*
X018087Y016873D01*
X018087Y016918D02*
X018331Y016918D01*
X018331Y016963D02*
X018087Y016963D01*
X018087Y017008D02*
X018331Y017008D01*
X018331Y017053D02*
X018087Y017053D01*
X018087Y017098D02*
X018331Y017098D01*
X018331Y017143D02*
X018087Y017143D01*
X018087Y017188D02*
X018331Y017188D01*
X018331Y017233D02*
X018087Y017233D01*
X018815Y031795D02*
X018815Y032039D01*
X018815Y031795D02*
X018321Y031795D01*
X018321Y032039D01*
X018815Y032039D01*
X018815Y031840D02*
X018321Y031840D01*
X018321Y031885D02*
X018815Y031885D01*
X018815Y031930D02*
X018321Y031930D01*
X018321Y031975D02*
X018815Y031975D01*
X018815Y032020D02*
X018321Y032020D01*
X018815Y032145D02*
X018815Y032389D01*
X018815Y032145D02*
X018321Y032145D01*
X018321Y032389D01*
X018815Y032389D01*
X018815Y032190D02*
X018321Y032190D01*
X018321Y032235D02*
X018815Y032235D01*
X018815Y032280D02*
X018321Y032280D01*
X018321Y032325D02*
X018815Y032325D01*
X018815Y032370D02*
X018321Y032370D01*
X018815Y032495D02*
X018815Y032739D01*
X018815Y032495D02*
X018321Y032495D01*
X018321Y032739D01*
X018815Y032739D01*
X018815Y032540D02*
X018321Y032540D01*
X018321Y032585D02*
X018815Y032585D01*
X018815Y032630D02*
X018321Y032630D01*
X018321Y032675D02*
X018815Y032675D01*
X018815Y032720D02*
X018321Y032720D01*
X017922Y034088D02*
X017678Y034088D01*
X017922Y034088D02*
X017922Y033594D01*
X017678Y033594D01*
X017678Y034088D01*
X017678Y033639D02*
X017922Y033639D01*
X017922Y033684D02*
X017678Y033684D01*
X017678Y033729D02*
X017922Y033729D01*
X017922Y033774D02*
X017678Y033774D01*
X017678Y033819D02*
X017922Y033819D01*
X017922Y033864D02*
X017678Y033864D01*
X017678Y033909D02*
X017922Y033909D01*
X017922Y033954D02*
X017678Y033954D01*
X017678Y033999D02*
X017922Y033999D01*
X017922Y034044D02*
X017678Y034044D01*
X017568Y034088D02*
X017324Y034088D01*
X017568Y034088D02*
X017568Y033594D01*
X017324Y033594D01*
X017324Y034088D01*
X017324Y033639D02*
X017568Y033639D01*
X017568Y033684D02*
X017324Y033684D01*
X017324Y033729D02*
X017568Y033729D01*
X017568Y033774D02*
X017324Y033774D01*
X017324Y033819D02*
X017568Y033819D01*
X017568Y033864D02*
X017324Y033864D01*
X017324Y033909D02*
X017568Y033909D01*
X017568Y033954D02*
X017324Y033954D01*
X017324Y033999D02*
X017568Y033999D01*
X017568Y034044D02*
X017324Y034044D01*
X017341Y037592D02*
X017585Y037592D01*
X017585Y037098D01*
X017341Y037098D01*
X017341Y037592D01*
X017341Y037143D02*
X017585Y037143D01*
X017585Y037188D02*
X017341Y037188D01*
X017341Y037233D02*
X017585Y037233D01*
X017585Y037278D02*
X017341Y037278D01*
X017341Y037323D02*
X017585Y037323D01*
X017585Y037368D02*
X017341Y037368D01*
X017341Y037413D02*
X017585Y037413D01*
X017585Y037458D02*
X017341Y037458D01*
X017341Y037503D02*
X017585Y037503D01*
X017585Y037548D02*
X017341Y037548D01*
X017741Y037592D02*
X017985Y037592D01*
X017985Y037098D01*
X017741Y037098D01*
X017741Y037592D01*
X017741Y037143D02*
X017985Y037143D01*
X017985Y037188D02*
X017741Y037188D01*
X017741Y037233D02*
X017985Y037233D01*
X017985Y037278D02*
X017741Y037278D01*
X017741Y037323D02*
X017985Y037323D01*
X017985Y037368D02*
X017741Y037368D01*
X017741Y037413D02*
X017985Y037413D01*
X017985Y037458D02*
X017741Y037458D01*
X017741Y037503D02*
X017985Y037503D01*
X017985Y037548D02*
X017741Y037548D01*
X025254Y002846D02*
X025498Y002846D01*
X025254Y002846D02*
X025254Y003340D01*
X025498Y003340D01*
X025498Y002846D01*
X025498Y002891D02*
X025254Y002891D01*
X025254Y002936D02*
X025498Y002936D01*
X025498Y002981D02*
X025254Y002981D01*
X025254Y003026D02*
X025498Y003026D01*
X025498Y003071D02*
X025254Y003071D01*
X025254Y003116D02*
X025498Y003116D01*
X025498Y003161D02*
X025254Y003161D01*
X025254Y003206D02*
X025498Y003206D01*
X025498Y003251D02*
X025254Y003251D01*
X025254Y003296D02*
X025498Y003296D01*
X025654Y002846D02*
X025898Y002846D01*
X025654Y002846D02*
X025654Y003340D01*
X025898Y003340D01*
X025898Y002846D01*
X025898Y002891D02*
X025654Y002891D01*
X025654Y002936D02*
X025898Y002936D01*
X025898Y002981D02*
X025654Y002981D01*
X025654Y003026D02*
X025898Y003026D01*
X025898Y003071D02*
X025654Y003071D01*
X025654Y003116D02*
X025898Y003116D01*
X025898Y003161D02*
X025654Y003161D01*
X025654Y003206D02*
X025898Y003206D01*
X025898Y003251D02*
X025654Y003251D01*
X025654Y003296D02*
X025898Y003296D01*
D35*
X016321Y017664D02*
X016321Y018366D01*
X016321Y017664D02*
X015895Y017664D01*
X015895Y018366D01*
X016321Y018366D01*
X016321Y017710D02*
X015895Y017710D01*
X015895Y017756D02*
X016321Y017756D01*
X016321Y017802D02*
X015895Y017802D01*
X015895Y017848D02*
X016321Y017848D01*
X016321Y017894D02*
X015895Y017894D01*
X015895Y017940D02*
X016321Y017940D01*
X016321Y017986D02*
X015895Y017986D01*
X015895Y018032D02*
X016321Y018032D01*
X016321Y018078D02*
X015895Y018078D01*
X015895Y018124D02*
X016321Y018124D01*
X016321Y018170D02*
X015895Y018170D01*
X015895Y018216D02*
X016321Y018216D01*
X016321Y018262D02*
X015895Y018262D01*
X015895Y018308D02*
X016321Y018308D01*
X016321Y018354D02*
X015895Y018354D01*
X015100Y018366D02*
X015100Y017664D01*
X014674Y017664D01*
X014674Y018366D01*
X015100Y018366D01*
X015100Y017710D02*
X014674Y017710D01*
X014674Y017756D02*
X015100Y017756D01*
X015100Y017802D02*
X014674Y017802D01*
X014674Y017848D02*
X015100Y017848D01*
X015100Y017894D02*
X014674Y017894D01*
X014674Y017940D02*
X015100Y017940D01*
X015100Y017986D02*
X014674Y017986D01*
X014674Y018032D02*
X015100Y018032D01*
X015100Y018078D02*
X014674Y018078D01*
X014674Y018124D02*
X015100Y018124D01*
X015100Y018170D02*
X014674Y018170D01*
X014674Y018216D02*
X015100Y018216D01*
X015100Y018262D02*
X014674Y018262D01*
X014674Y018308D02*
X015100Y018308D01*
X015100Y018354D02*
X014674Y018354D01*
D36*
X026456Y024841D03*
D37*
X026456Y024341D03*
X026456Y023841D03*
X026456Y023341D03*
X026456Y022841D03*
X025956Y022841D03*
X025956Y023341D03*
X025956Y023841D03*
X025956Y024341D03*
X025956Y024841D03*
D38*
X012585Y008028D02*
X011953Y008028D01*
X012585Y008028D02*
X012585Y007796D01*
X011953Y007796D01*
X011953Y008028D01*
X011953Y007843D02*
X012585Y007843D01*
X012585Y007890D02*
X011953Y007890D01*
X011953Y007937D02*
X012585Y007937D01*
X012585Y007984D02*
X011953Y007984D01*
X011953Y007528D02*
X012585Y007528D01*
X012585Y007296D01*
X011953Y007296D01*
X011953Y007528D01*
X011953Y007343D02*
X012585Y007343D01*
X012585Y007390D02*
X011953Y007390D01*
X011953Y007437D02*
X012585Y007437D01*
X012585Y007484D02*
X011953Y007484D01*
X011953Y007028D02*
X012585Y007028D01*
X012585Y006796D01*
X011953Y006796D01*
X011953Y007028D01*
X011953Y006843D02*
X012585Y006843D01*
X012585Y006890D02*
X011953Y006890D01*
X011953Y006937D02*
X012585Y006937D01*
X012585Y006984D02*
X011953Y006984D01*
X011953Y006528D02*
X012585Y006528D01*
X012585Y006296D01*
X011953Y006296D01*
X011953Y006528D01*
X011953Y006343D02*
X012585Y006343D01*
X012585Y006390D02*
X011953Y006390D01*
X011953Y006437D02*
X012585Y006437D01*
X012585Y006484D02*
X011953Y006484D01*
X011953Y006028D02*
X012585Y006028D01*
X012585Y005796D01*
X011953Y005796D01*
X011953Y006028D01*
X011953Y005843D02*
X012585Y005843D01*
X012585Y005890D02*
X011953Y005890D01*
X011953Y005937D02*
X012585Y005937D01*
X012585Y005984D02*
X011953Y005984D01*
X008568Y029517D02*
X008336Y029517D01*
X008568Y029517D02*
X008568Y028655D01*
X008336Y028655D01*
X008336Y029517D01*
X008336Y028702D02*
X008568Y028702D01*
X008568Y028749D02*
X008336Y028749D01*
X008336Y028796D02*
X008568Y028796D01*
X008568Y028843D02*
X008336Y028843D01*
X008336Y028890D02*
X008568Y028890D01*
X008568Y028937D02*
X008336Y028937D01*
X008336Y028984D02*
X008568Y028984D01*
X008568Y029031D02*
X008336Y029031D01*
X008336Y029078D02*
X008568Y029078D01*
X008568Y029125D02*
X008336Y029125D01*
X008336Y029172D02*
X008568Y029172D01*
X008568Y029219D02*
X008336Y029219D01*
X008336Y029266D02*
X008568Y029266D01*
X008568Y029313D02*
X008336Y029313D01*
X008336Y029360D02*
X008568Y029360D01*
X008568Y029407D02*
X008336Y029407D01*
X008336Y029454D02*
X008568Y029454D01*
X008568Y029501D02*
X008336Y029501D01*
X008068Y029517D02*
X007836Y029517D01*
X008068Y029517D02*
X008068Y028655D01*
X007836Y028655D01*
X007836Y029517D01*
X007836Y028702D02*
X008068Y028702D01*
X008068Y028749D02*
X007836Y028749D01*
X007836Y028796D02*
X008068Y028796D01*
X008068Y028843D02*
X007836Y028843D01*
X007836Y028890D02*
X008068Y028890D01*
X008068Y028937D02*
X007836Y028937D01*
X007836Y028984D02*
X008068Y028984D01*
X008068Y029031D02*
X007836Y029031D01*
X007836Y029078D02*
X008068Y029078D01*
X008068Y029125D02*
X007836Y029125D01*
X007836Y029172D02*
X008068Y029172D01*
X008068Y029219D02*
X007836Y029219D01*
X007836Y029266D02*
X008068Y029266D01*
X008068Y029313D02*
X007836Y029313D01*
X007836Y029360D02*
X008068Y029360D01*
X008068Y029407D02*
X007836Y029407D01*
X007836Y029454D02*
X008068Y029454D01*
X008068Y029501D02*
X007836Y029501D01*
X007568Y029517D02*
X007336Y029517D01*
X007568Y029517D02*
X007568Y028655D01*
X007336Y028655D01*
X007336Y029517D01*
X007336Y028702D02*
X007568Y028702D01*
X007568Y028749D02*
X007336Y028749D01*
X007336Y028796D02*
X007568Y028796D01*
X007568Y028843D02*
X007336Y028843D01*
X007336Y028890D02*
X007568Y028890D01*
X007568Y028937D02*
X007336Y028937D01*
X007336Y028984D02*
X007568Y028984D01*
X007568Y029031D02*
X007336Y029031D01*
X007336Y029078D02*
X007568Y029078D01*
X007568Y029125D02*
X007336Y029125D01*
X007336Y029172D02*
X007568Y029172D01*
X007568Y029219D02*
X007336Y029219D01*
X007336Y029266D02*
X007568Y029266D01*
X007568Y029313D02*
X007336Y029313D01*
X007336Y029360D02*
X007568Y029360D01*
X007568Y029407D02*
X007336Y029407D01*
X007336Y029454D02*
X007568Y029454D01*
X007568Y029501D02*
X007336Y029501D01*
X007068Y029517D02*
X006836Y029517D01*
X007068Y029517D02*
X007068Y028655D01*
X006836Y028655D01*
X006836Y029517D01*
X006836Y028702D02*
X007068Y028702D01*
X007068Y028749D02*
X006836Y028749D01*
X006836Y028796D02*
X007068Y028796D01*
X007068Y028843D02*
X006836Y028843D01*
X006836Y028890D02*
X007068Y028890D01*
X007068Y028937D02*
X006836Y028937D01*
X006836Y028984D02*
X007068Y028984D01*
X007068Y029031D02*
X006836Y029031D01*
X006836Y029078D02*
X007068Y029078D01*
X007068Y029125D02*
X006836Y029125D01*
X006836Y029172D02*
X007068Y029172D01*
X007068Y029219D02*
X006836Y029219D01*
X006836Y029266D02*
X007068Y029266D01*
X007068Y029313D02*
X006836Y029313D01*
X006836Y029360D02*
X007068Y029360D01*
X007068Y029407D02*
X006836Y029407D01*
X006836Y029454D02*
X007068Y029454D01*
X007068Y029501D02*
X006836Y029501D01*
X006836Y029964D02*
X007068Y029964D01*
X006836Y029964D02*
X006836Y030826D01*
X007068Y030826D01*
X007068Y029964D01*
X007068Y030011D02*
X006836Y030011D01*
X006836Y030058D02*
X007068Y030058D01*
X007068Y030105D02*
X006836Y030105D01*
X006836Y030152D02*
X007068Y030152D01*
X007068Y030199D02*
X006836Y030199D01*
X006836Y030246D02*
X007068Y030246D01*
X007068Y030293D02*
X006836Y030293D01*
X006836Y030340D02*
X007068Y030340D01*
X007068Y030387D02*
X006836Y030387D01*
X006836Y030434D02*
X007068Y030434D01*
X007068Y030481D02*
X006836Y030481D01*
X006836Y030528D02*
X007068Y030528D01*
X007068Y030575D02*
X006836Y030575D01*
X006836Y030622D02*
X007068Y030622D01*
X007068Y030669D02*
X006836Y030669D01*
X006836Y030716D02*
X007068Y030716D01*
X007068Y030763D02*
X006836Y030763D01*
X006836Y030810D02*
X007068Y030810D01*
X007336Y029964D02*
X007568Y029964D01*
X007336Y029964D02*
X007336Y030826D01*
X007568Y030826D01*
X007568Y029964D01*
X007568Y030011D02*
X007336Y030011D01*
X007336Y030058D02*
X007568Y030058D01*
X007568Y030105D02*
X007336Y030105D01*
X007336Y030152D02*
X007568Y030152D01*
X007568Y030199D02*
X007336Y030199D01*
X007336Y030246D02*
X007568Y030246D01*
X007568Y030293D02*
X007336Y030293D01*
X007336Y030340D02*
X007568Y030340D01*
X007568Y030387D02*
X007336Y030387D01*
X007336Y030434D02*
X007568Y030434D01*
X007568Y030481D02*
X007336Y030481D01*
X007336Y030528D02*
X007568Y030528D01*
X007568Y030575D02*
X007336Y030575D01*
X007336Y030622D02*
X007568Y030622D01*
X007568Y030669D02*
X007336Y030669D01*
X007336Y030716D02*
X007568Y030716D01*
X007568Y030763D02*
X007336Y030763D01*
X007336Y030810D02*
X007568Y030810D01*
X007836Y029964D02*
X008068Y029964D01*
X007836Y029964D02*
X007836Y030826D01*
X008068Y030826D01*
X008068Y029964D01*
X008068Y030011D02*
X007836Y030011D01*
X007836Y030058D02*
X008068Y030058D01*
X008068Y030105D02*
X007836Y030105D01*
X007836Y030152D02*
X008068Y030152D01*
X008068Y030199D02*
X007836Y030199D01*
X007836Y030246D02*
X008068Y030246D01*
X008068Y030293D02*
X007836Y030293D01*
X007836Y030340D02*
X008068Y030340D01*
X008068Y030387D02*
X007836Y030387D01*
X007836Y030434D02*
X008068Y030434D01*
X008068Y030481D02*
X007836Y030481D01*
X007836Y030528D02*
X008068Y030528D01*
X008068Y030575D02*
X007836Y030575D01*
X007836Y030622D02*
X008068Y030622D01*
X008068Y030669D02*
X007836Y030669D01*
X007836Y030716D02*
X008068Y030716D01*
X008068Y030763D02*
X007836Y030763D01*
X007836Y030810D02*
X008068Y030810D01*
X008336Y029964D02*
X008568Y029964D01*
X008336Y029964D02*
X008336Y030826D01*
X008568Y030826D01*
X008568Y029964D01*
X008568Y030011D02*
X008336Y030011D01*
X008336Y030058D02*
X008568Y030058D01*
X008568Y030105D02*
X008336Y030105D01*
X008336Y030152D02*
X008568Y030152D01*
X008568Y030199D02*
X008336Y030199D01*
X008336Y030246D02*
X008568Y030246D01*
X008568Y030293D02*
X008336Y030293D01*
X008336Y030340D02*
X008568Y030340D01*
X008568Y030387D02*
X008336Y030387D01*
X008336Y030434D02*
X008568Y030434D01*
X008568Y030481D02*
X008336Y030481D01*
X008336Y030528D02*
X008568Y030528D01*
X008568Y030575D02*
X008336Y030575D01*
X008336Y030622D02*
X008568Y030622D01*
X008568Y030669D02*
X008336Y030669D01*
X008336Y030716D02*
X008568Y030716D01*
X008568Y030763D02*
X008336Y030763D01*
X008336Y030810D02*
X008568Y030810D01*
X008568Y032167D02*
X008336Y032167D01*
X008568Y032167D02*
X008568Y031305D01*
X008336Y031305D01*
X008336Y032167D01*
X008336Y031352D02*
X008568Y031352D01*
X008568Y031399D02*
X008336Y031399D01*
X008336Y031446D02*
X008568Y031446D01*
X008568Y031493D02*
X008336Y031493D01*
X008336Y031540D02*
X008568Y031540D01*
X008568Y031587D02*
X008336Y031587D01*
X008336Y031634D02*
X008568Y031634D01*
X008568Y031681D02*
X008336Y031681D01*
X008336Y031728D02*
X008568Y031728D01*
X008568Y031775D02*
X008336Y031775D01*
X008336Y031822D02*
X008568Y031822D01*
X008568Y031869D02*
X008336Y031869D01*
X008336Y031916D02*
X008568Y031916D01*
X008568Y031963D02*
X008336Y031963D01*
X008336Y032010D02*
X008568Y032010D01*
X008568Y032057D02*
X008336Y032057D01*
X008336Y032104D02*
X008568Y032104D01*
X008568Y032151D02*
X008336Y032151D01*
X008068Y032167D02*
X007836Y032167D01*
X008068Y032167D02*
X008068Y031305D01*
X007836Y031305D01*
X007836Y032167D01*
X007836Y031352D02*
X008068Y031352D01*
X008068Y031399D02*
X007836Y031399D01*
X007836Y031446D02*
X008068Y031446D01*
X008068Y031493D02*
X007836Y031493D01*
X007836Y031540D02*
X008068Y031540D01*
X008068Y031587D02*
X007836Y031587D01*
X007836Y031634D02*
X008068Y031634D01*
X008068Y031681D02*
X007836Y031681D01*
X007836Y031728D02*
X008068Y031728D01*
X008068Y031775D02*
X007836Y031775D01*
X007836Y031822D02*
X008068Y031822D01*
X008068Y031869D02*
X007836Y031869D01*
X007836Y031916D02*
X008068Y031916D01*
X008068Y031963D02*
X007836Y031963D01*
X007836Y032010D02*
X008068Y032010D01*
X008068Y032057D02*
X007836Y032057D01*
X007836Y032104D02*
X008068Y032104D01*
X008068Y032151D02*
X007836Y032151D01*
X007568Y032167D02*
X007336Y032167D01*
X007568Y032167D02*
X007568Y031305D01*
X007336Y031305D01*
X007336Y032167D01*
X007336Y031352D02*
X007568Y031352D01*
X007568Y031399D02*
X007336Y031399D01*
X007336Y031446D02*
X007568Y031446D01*
X007568Y031493D02*
X007336Y031493D01*
X007336Y031540D02*
X007568Y031540D01*
X007568Y031587D02*
X007336Y031587D01*
X007336Y031634D02*
X007568Y031634D01*
X007568Y031681D02*
X007336Y031681D01*
X007336Y031728D02*
X007568Y031728D01*
X007568Y031775D02*
X007336Y031775D01*
X007336Y031822D02*
X007568Y031822D01*
X007568Y031869D02*
X007336Y031869D01*
X007336Y031916D02*
X007568Y031916D01*
X007568Y031963D02*
X007336Y031963D01*
X007336Y032010D02*
X007568Y032010D01*
X007568Y032057D02*
X007336Y032057D01*
X007336Y032104D02*
X007568Y032104D01*
X007568Y032151D02*
X007336Y032151D01*
X007068Y032167D02*
X006836Y032167D01*
X007068Y032167D02*
X007068Y031305D01*
X006836Y031305D01*
X006836Y032167D01*
X006836Y031352D02*
X007068Y031352D01*
X007068Y031399D02*
X006836Y031399D01*
X006836Y031446D02*
X007068Y031446D01*
X007068Y031493D02*
X006836Y031493D01*
X006836Y031540D02*
X007068Y031540D01*
X007068Y031587D02*
X006836Y031587D01*
X006836Y031634D02*
X007068Y031634D01*
X007068Y031681D02*
X006836Y031681D01*
X006836Y031728D02*
X007068Y031728D01*
X007068Y031775D02*
X006836Y031775D01*
X006836Y031822D02*
X007068Y031822D01*
X007068Y031869D02*
X006836Y031869D01*
X006836Y031916D02*
X007068Y031916D01*
X007068Y031963D02*
X006836Y031963D01*
X006836Y032010D02*
X007068Y032010D01*
X007068Y032057D02*
X006836Y032057D01*
X006836Y032104D02*
X007068Y032104D01*
X007068Y032151D02*
X006836Y032151D01*
X006836Y032614D02*
X007068Y032614D01*
X006836Y032614D02*
X006836Y033476D01*
X007068Y033476D01*
X007068Y032614D01*
X007068Y032661D02*
X006836Y032661D01*
X006836Y032708D02*
X007068Y032708D01*
X007068Y032755D02*
X006836Y032755D01*
X006836Y032802D02*
X007068Y032802D01*
X007068Y032849D02*
X006836Y032849D01*
X006836Y032896D02*
X007068Y032896D01*
X007068Y032943D02*
X006836Y032943D01*
X006836Y032990D02*
X007068Y032990D01*
X007068Y033037D02*
X006836Y033037D01*
X006836Y033084D02*
X007068Y033084D01*
X007068Y033131D02*
X006836Y033131D01*
X006836Y033178D02*
X007068Y033178D01*
X007068Y033225D02*
X006836Y033225D01*
X006836Y033272D02*
X007068Y033272D01*
X007068Y033319D02*
X006836Y033319D01*
X006836Y033366D02*
X007068Y033366D01*
X007068Y033413D02*
X006836Y033413D01*
X006836Y033460D02*
X007068Y033460D01*
X007336Y032614D02*
X007568Y032614D01*
X007336Y032614D02*
X007336Y033476D01*
X007568Y033476D01*
X007568Y032614D01*
X007568Y032661D02*
X007336Y032661D01*
X007336Y032708D02*
X007568Y032708D01*
X007568Y032755D02*
X007336Y032755D01*
X007336Y032802D02*
X007568Y032802D01*
X007568Y032849D02*
X007336Y032849D01*
X007336Y032896D02*
X007568Y032896D01*
X007568Y032943D02*
X007336Y032943D01*
X007336Y032990D02*
X007568Y032990D01*
X007568Y033037D02*
X007336Y033037D01*
X007336Y033084D02*
X007568Y033084D01*
X007568Y033131D02*
X007336Y033131D01*
X007336Y033178D02*
X007568Y033178D01*
X007568Y033225D02*
X007336Y033225D01*
X007336Y033272D02*
X007568Y033272D01*
X007568Y033319D02*
X007336Y033319D01*
X007336Y033366D02*
X007568Y033366D01*
X007568Y033413D02*
X007336Y033413D01*
X007336Y033460D02*
X007568Y033460D01*
X007836Y032614D02*
X008068Y032614D01*
X007836Y032614D02*
X007836Y033476D01*
X008068Y033476D01*
X008068Y032614D01*
X008068Y032661D02*
X007836Y032661D01*
X007836Y032708D02*
X008068Y032708D01*
X008068Y032755D02*
X007836Y032755D01*
X007836Y032802D02*
X008068Y032802D01*
X008068Y032849D02*
X007836Y032849D01*
X007836Y032896D02*
X008068Y032896D01*
X008068Y032943D02*
X007836Y032943D01*
X007836Y032990D02*
X008068Y032990D01*
X008068Y033037D02*
X007836Y033037D01*
X007836Y033084D02*
X008068Y033084D01*
X008068Y033131D02*
X007836Y033131D01*
X007836Y033178D02*
X008068Y033178D01*
X008068Y033225D02*
X007836Y033225D01*
X007836Y033272D02*
X008068Y033272D01*
X008068Y033319D02*
X007836Y033319D01*
X007836Y033366D02*
X008068Y033366D01*
X008068Y033413D02*
X007836Y033413D01*
X007836Y033460D02*
X008068Y033460D01*
X008336Y032614D02*
X008568Y032614D01*
X008336Y032614D02*
X008336Y033476D01*
X008568Y033476D01*
X008568Y032614D01*
X008568Y032661D02*
X008336Y032661D01*
X008336Y032708D02*
X008568Y032708D01*
X008568Y032755D02*
X008336Y032755D01*
X008336Y032802D02*
X008568Y032802D01*
X008568Y032849D02*
X008336Y032849D01*
X008336Y032896D02*
X008568Y032896D01*
X008568Y032943D02*
X008336Y032943D01*
X008336Y032990D02*
X008568Y032990D01*
X008568Y033037D02*
X008336Y033037D01*
X008336Y033084D02*
X008568Y033084D01*
X008568Y033131D02*
X008336Y033131D01*
X008336Y033178D02*
X008568Y033178D01*
X008568Y033225D02*
X008336Y033225D01*
X008336Y033272D02*
X008568Y033272D01*
X008568Y033319D02*
X008336Y033319D01*
X008336Y033366D02*
X008568Y033366D01*
X008568Y033413D02*
X008336Y033413D01*
X008336Y033460D02*
X008568Y033460D01*
D39*
X005041Y030790D03*
X005041Y029790D03*
X005041Y028790D03*
X005041Y027790D03*
X005041Y026790D03*
X005041Y025790D03*
X005041Y023790D03*
X005041Y022790D03*
X005041Y021790D03*
X005041Y020790D03*
X005041Y019790D03*
X005041Y018790D03*
X005041Y017790D03*
X005041Y016790D03*
X024041Y017190D03*
X024041Y016190D03*
X024041Y015190D03*
X024041Y014190D03*
X024041Y013190D03*
X024041Y018190D03*
X024041Y019190D03*
X024041Y020190D03*
X024041Y021190D03*
X024041Y022190D03*
X024041Y023790D03*
X024041Y024790D03*
X024041Y025790D03*
X024041Y026790D03*
X024041Y027790D03*
X024041Y028790D03*
X024041Y029790D03*
X024041Y030790D03*
D40*
X016041Y030840D03*
X016041Y031840D03*
X015041Y031840D03*
X015041Y030840D03*
X014041Y030840D03*
X014041Y031840D03*
X012041Y031840D03*
X012041Y030840D03*
X011041Y030840D03*
X011041Y031840D03*
X011041Y032840D03*
X011041Y033840D03*
X012041Y033840D03*
X012041Y032840D03*
X012041Y034840D03*
X012041Y035840D03*
X012041Y036840D03*
X012041Y037840D03*
X011041Y037840D03*
X011041Y036840D03*
X011041Y035840D03*
X011041Y034840D03*
D41*
X020795Y036344D03*
D42*
X021853Y037402D03*
D43*
X020989Y019724D02*
X020989Y019644D01*
X020989Y019724D02*
X021147Y019724D01*
X021147Y019644D01*
X020989Y019644D01*
X020989Y019024D02*
X020989Y018944D01*
X020989Y019024D02*
X021147Y019024D01*
X021147Y018944D01*
X020989Y018944D01*
X017561Y015239D02*
X017561Y015081D01*
X017481Y015081D01*
X017481Y015239D01*
X017561Y015239D01*
X016861Y015239D02*
X016861Y015081D01*
X016781Y015081D01*
X016781Y015239D01*
X016861Y015239D01*
X013214Y006947D02*
X013056Y006947D01*
X013056Y007027D01*
X013214Y007027D01*
X013214Y006947D01*
X013214Y006247D02*
X013056Y006247D01*
X013056Y006327D01*
X013214Y006327D01*
X013214Y006247D01*
X008642Y005377D02*
X008642Y005219D01*
X008642Y005377D02*
X008722Y005377D01*
X008722Y005219D01*
X008642Y005219D01*
X007942Y005219D02*
X007942Y005377D01*
X008022Y005377D01*
X008022Y005219D01*
X007942Y005219D01*
X007805Y001519D02*
X007805Y001361D01*
X007725Y001361D01*
X007725Y001519D01*
X007805Y001519D01*
X008505Y001519D02*
X008505Y001361D01*
X008425Y001361D01*
X008425Y001519D01*
X008505Y001519D01*
D44*
X009434Y015889D03*
X010222Y015889D03*
X019297Y028605D03*
X020458Y027975D03*
X021206Y027778D03*
X021206Y028369D03*
X020970Y029629D03*
X020537Y030023D03*
X019946Y030141D03*
X019198Y030337D03*
X022781Y026243D03*
X022781Y025652D03*
X012328Y030023D03*
D45*
X007917Y004483D02*
X007917Y004223D01*
X007917Y004483D02*
X007999Y004483D01*
X007999Y004223D01*
X007917Y004223D01*
X007917Y004279D02*
X007999Y004279D01*
X007999Y004335D02*
X007917Y004335D01*
X007917Y004391D02*
X007999Y004391D01*
X007999Y004447D02*
X007917Y004447D01*
X007720Y004483D02*
X007720Y004223D01*
X007720Y004483D02*
X007802Y004483D01*
X007802Y004223D01*
X007720Y004223D01*
X007720Y004279D02*
X007802Y004279D01*
X007802Y004335D02*
X007720Y004335D01*
X007720Y004391D02*
X007802Y004391D01*
X007802Y004447D02*
X007720Y004447D01*
X007523Y004483D02*
X007523Y004223D01*
X007523Y004483D02*
X007605Y004483D01*
X007605Y004223D01*
X007523Y004223D01*
X007523Y004279D02*
X007605Y004279D01*
X007605Y004335D02*
X007523Y004335D01*
X007523Y004391D02*
X007605Y004391D01*
X007605Y004447D02*
X007523Y004447D01*
X007326Y004483D02*
X007326Y004223D01*
X007326Y004483D02*
X007408Y004483D01*
X007408Y004223D01*
X007326Y004223D01*
X007326Y004279D02*
X007408Y004279D01*
X007408Y004335D02*
X007326Y004335D01*
X007326Y004391D02*
X007408Y004391D01*
X007408Y004447D02*
X007326Y004447D01*
X007241Y004056D02*
X006981Y004056D01*
X006981Y004138D01*
X007241Y004138D01*
X007241Y004056D01*
X007241Y004112D02*
X006981Y004112D01*
X006981Y003859D02*
X007241Y003859D01*
X006981Y003859D02*
X006981Y003941D01*
X007241Y003941D01*
X007241Y003859D01*
X007241Y003915D02*
X006981Y003915D01*
X006981Y003663D02*
X007241Y003663D01*
X006981Y003663D02*
X006981Y003745D01*
X007241Y003745D01*
X007241Y003663D01*
X007241Y003719D02*
X006981Y003719D01*
X006981Y003466D02*
X007241Y003466D01*
X006981Y003466D02*
X006981Y003548D01*
X007241Y003548D01*
X007241Y003466D01*
X007241Y003522D02*
X006981Y003522D01*
X006981Y003269D02*
X007241Y003269D01*
X006981Y003269D02*
X006981Y003351D01*
X007241Y003351D01*
X007241Y003269D01*
X007241Y003325D02*
X006981Y003325D01*
X006981Y003072D02*
X007241Y003072D01*
X006981Y003072D02*
X006981Y003154D01*
X007241Y003154D01*
X007241Y003072D01*
X007241Y003128D02*
X006981Y003128D01*
X007408Y002987D02*
X007408Y002727D01*
X007326Y002727D01*
X007326Y002987D01*
X007408Y002987D01*
X007408Y002783D02*
X007326Y002783D01*
X007326Y002839D02*
X007408Y002839D01*
X007408Y002895D02*
X007326Y002895D01*
X007326Y002951D02*
X007408Y002951D01*
X007605Y002987D02*
X007605Y002727D01*
X007523Y002727D01*
X007523Y002987D01*
X007605Y002987D01*
X007605Y002783D02*
X007523Y002783D01*
X007523Y002839D02*
X007605Y002839D01*
X007605Y002895D02*
X007523Y002895D01*
X007523Y002951D02*
X007605Y002951D01*
X007802Y002987D02*
X007802Y002727D01*
X007720Y002727D01*
X007720Y002987D01*
X007802Y002987D01*
X007802Y002783D02*
X007720Y002783D01*
X007720Y002839D02*
X007802Y002839D01*
X007802Y002895D02*
X007720Y002895D01*
X007720Y002951D02*
X007802Y002951D01*
X007999Y002987D02*
X007999Y002727D01*
X007917Y002727D01*
X007917Y002987D01*
X007999Y002987D01*
X007999Y002783D02*
X007917Y002783D01*
X007917Y002839D02*
X007999Y002839D01*
X007999Y002895D02*
X007917Y002895D01*
X007917Y002951D02*
X007999Y002951D01*
X008084Y003154D02*
X008344Y003154D01*
X008344Y003072D01*
X008084Y003072D01*
X008084Y003154D01*
X008084Y003128D02*
X008344Y003128D01*
X008344Y003351D02*
X008084Y003351D01*
X008344Y003351D02*
X008344Y003269D01*
X008084Y003269D01*
X008084Y003351D01*
X008084Y003325D02*
X008344Y003325D01*
X008344Y003548D02*
X008084Y003548D01*
X008344Y003548D02*
X008344Y003466D01*
X008084Y003466D01*
X008084Y003548D01*
X008084Y003522D02*
X008344Y003522D01*
X008344Y003745D02*
X008084Y003745D01*
X008344Y003745D02*
X008344Y003663D01*
X008084Y003663D01*
X008084Y003745D01*
X008084Y003719D02*
X008344Y003719D01*
X008344Y003941D02*
X008084Y003941D01*
X008344Y003941D02*
X008344Y003859D01*
X008084Y003859D01*
X008084Y003941D01*
X008084Y003915D02*
X008344Y003915D01*
X008344Y004138D02*
X008084Y004138D01*
X008344Y004138D02*
X008344Y004056D01*
X008084Y004056D01*
X008084Y004138D01*
X008084Y004112D02*
X008344Y004112D01*
D46*
X007974Y004112D02*
X007974Y003098D01*
X007352Y003098D01*
X007352Y004112D01*
X007974Y004112D01*
X007974Y003166D02*
X007352Y003166D01*
X007352Y003234D02*
X007974Y003234D01*
X007974Y003302D02*
X007352Y003302D01*
X007352Y003370D02*
X007974Y003370D01*
X007974Y003438D02*
X007352Y003438D01*
X007352Y003506D02*
X007974Y003506D01*
X007974Y003574D02*
X007352Y003574D01*
X007352Y003642D02*
X007974Y003642D01*
X007974Y003710D02*
X007352Y003710D01*
X007352Y003778D02*
X007974Y003778D01*
X007974Y003846D02*
X007352Y003846D01*
X007352Y003914D02*
X007974Y003914D01*
X007974Y003982D02*
X007352Y003982D01*
X007352Y004050D02*
X007974Y004050D01*
D47*
X008765Y004048D02*
X009050Y004048D01*
X009050Y003991D02*
X008765Y003991D01*
X008765Y003989D02*
X009050Y003989D01*
X009050Y004147D01*
X009178Y004274D01*
X010094Y004274D01*
X010212Y004156D01*
X010212Y003989D01*
X010507Y003989D01*
X010507Y004324D01*
X010251Y004580D01*
X009011Y004580D01*
X008765Y004334D01*
X008765Y003989D01*
X008765Y004106D02*
X009050Y004106D01*
X009067Y004163D02*
X008765Y004163D01*
X008765Y004221D02*
X009125Y004221D01*
X008883Y004451D02*
X010380Y004451D01*
X010437Y004394D02*
X008825Y004394D01*
X008767Y004336D02*
X010495Y004336D01*
X010507Y004278D02*
X008765Y004278D01*
X008940Y004509D02*
X010322Y004509D01*
X010265Y004566D02*
X008998Y004566D01*
X009050Y003418D02*
X008755Y003418D01*
X008755Y003084D01*
X009011Y002828D01*
X010251Y002828D01*
X010497Y003074D01*
X010497Y003418D01*
X010212Y003418D01*
X010212Y003261D01*
X010084Y003133D01*
X009169Y003133D01*
X009050Y003251D01*
X009050Y003418D01*
X009050Y003415D02*
X008755Y003415D01*
X008755Y003358D02*
X009050Y003358D01*
X009050Y003300D02*
X008755Y003300D01*
X008755Y003242D02*
X009059Y003242D01*
X009116Y003185D02*
X008755Y003185D01*
X008755Y003127D02*
X010497Y003127D01*
X010493Y003070D02*
X008769Y003070D01*
X008826Y003012D02*
X010436Y003012D01*
X010378Y002955D02*
X008884Y002955D01*
X008942Y002897D02*
X010321Y002897D01*
X010263Y002840D02*
X008999Y002840D01*
X010136Y003185D02*
X010497Y003185D01*
X010497Y003242D02*
X010194Y003242D01*
X010212Y003300D02*
X010497Y003300D01*
X010497Y003358D02*
X010212Y003358D01*
X010212Y003415D02*
X010497Y003415D01*
X010507Y003991D02*
X010212Y003991D01*
X010212Y004048D02*
X010507Y004048D01*
X010507Y004106D02*
X010212Y004106D01*
X010205Y004163D02*
X010507Y004163D01*
X010507Y004221D02*
X010147Y004221D01*
D48*
X011058Y004491D02*
X011058Y004569D01*
X011087Y003714D02*
X011009Y003714D01*
X011009Y002945D02*
X011087Y002945D01*
X011827Y004491D02*
X011827Y004569D01*
D49*
X010146Y007519D02*
X009452Y007519D01*
X010146Y007519D02*
X010146Y006305D01*
X009452Y006305D01*
X009452Y007519D01*
X009452Y006381D02*
X010146Y006381D01*
X010146Y006457D02*
X009452Y006457D01*
X009452Y006533D02*
X010146Y006533D01*
X010146Y006609D02*
X009452Y006609D01*
X009452Y006685D02*
X010146Y006685D01*
X010146Y006761D02*
X009452Y006761D01*
X009452Y006837D02*
X010146Y006837D01*
X010146Y006913D02*
X009452Y006913D01*
X009452Y006989D02*
X010146Y006989D01*
X010146Y007065D02*
X009452Y007065D01*
X009452Y007141D02*
X010146Y007141D01*
X010146Y007217D02*
X009452Y007217D01*
X009452Y007293D02*
X010146Y007293D01*
X010146Y007369D02*
X009452Y007369D01*
X009452Y007445D02*
X010146Y007445D01*
D50*
X016205Y013565D02*
X016427Y013565D01*
X016427Y013527D01*
X016205Y013527D01*
X016205Y013565D01*
X016205Y013724D02*
X016427Y013724D01*
X016205Y013724D02*
X016205Y013762D01*
X016427Y013762D01*
X016427Y013724D01*
X016427Y013921D02*
X016205Y013921D01*
X016205Y013959D01*
X016427Y013959D01*
X016427Y013921D01*
X016427Y014118D02*
X016205Y014118D01*
X016205Y014156D01*
X016427Y014156D01*
X016427Y014118D01*
X016599Y014289D02*
X016599Y014511D01*
X016599Y014289D02*
X016561Y014289D01*
X016561Y014511D01*
X016599Y014511D01*
X016599Y014401D02*
X016561Y014401D01*
X016796Y014511D02*
X016796Y014289D01*
X016758Y014289D01*
X016758Y014511D01*
X016796Y014511D01*
X016796Y014401D02*
X016758Y014401D01*
X016993Y014511D02*
X016993Y014289D01*
X016955Y014289D01*
X016955Y014511D01*
X016993Y014511D01*
X016993Y014401D02*
X016955Y014401D01*
X017190Y014511D02*
X017190Y014289D01*
X017152Y014289D01*
X017152Y014511D01*
X017190Y014511D01*
X017190Y014401D02*
X017152Y014401D01*
X017323Y014118D02*
X017545Y014118D01*
X017323Y014118D02*
X017323Y014156D01*
X017545Y014156D01*
X017545Y014118D01*
X017545Y013921D02*
X017323Y013921D01*
X017323Y013959D01*
X017545Y013959D01*
X017545Y013921D01*
X017545Y013724D02*
X017323Y013724D01*
X017323Y013762D01*
X017545Y013762D01*
X017545Y013724D01*
X017545Y013527D02*
X017323Y013527D01*
X017323Y013565D01*
X017545Y013565D01*
X017545Y013527D01*
X017190Y013393D02*
X017190Y013171D01*
X017152Y013171D01*
X017152Y013393D01*
X017190Y013393D01*
X017190Y013283D02*
X017152Y013283D01*
X016993Y013393D02*
X016993Y013171D01*
X016955Y013171D01*
X016955Y013393D01*
X016993Y013393D01*
X016993Y013283D02*
X016955Y013283D01*
X016796Y013393D02*
X016796Y013171D01*
X016758Y013171D01*
X016758Y013393D01*
X016796Y013393D01*
X016796Y013283D02*
X016758Y013283D01*
X016599Y013393D02*
X016599Y013171D01*
X016561Y013171D01*
X016561Y013393D01*
X016599Y013393D01*
X016599Y013283D02*
X016561Y013283D01*
D51*
X005160Y005124D02*
X004890Y005124D01*
X004890Y005708D01*
X005160Y005708D01*
X005160Y005124D01*
X005160Y005170D02*
X004890Y005170D01*
X004890Y005216D02*
X005160Y005216D01*
X005160Y005262D02*
X004890Y005262D01*
X004890Y005308D02*
X005160Y005308D01*
X005160Y005354D02*
X004890Y005354D01*
X004890Y005400D02*
X005160Y005400D01*
X005160Y005446D02*
X004890Y005446D01*
X004890Y005492D02*
X005160Y005492D01*
X005160Y005538D02*
X004890Y005538D01*
X004890Y005584D02*
X005160Y005584D01*
X005160Y005630D02*
X004890Y005630D01*
X004890Y005676D02*
X005160Y005676D01*
X004569Y005124D02*
X004299Y005124D01*
X004299Y005708D01*
X004569Y005708D01*
X004569Y005124D01*
X004569Y005170D02*
X004299Y005170D01*
X004299Y005216D02*
X004569Y005216D01*
X004569Y005262D02*
X004299Y005262D01*
X004299Y005308D02*
X004569Y005308D01*
X004569Y005354D02*
X004299Y005354D01*
X004299Y005400D02*
X004569Y005400D01*
X004569Y005446D02*
X004299Y005446D01*
X004299Y005492D02*
X004569Y005492D01*
X004569Y005538D02*
X004299Y005538D01*
X004299Y005584D02*
X004569Y005584D01*
X004569Y005630D02*
X004299Y005630D01*
X004299Y005676D02*
X004569Y005676D01*
X003388Y005124D02*
X003118Y005124D01*
X003118Y005708D01*
X003388Y005708D01*
X003388Y005124D01*
X003388Y005170D02*
X003118Y005170D01*
X003118Y005216D02*
X003388Y005216D01*
X003388Y005262D02*
X003118Y005262D01*
X003118Y005308D02*
X003388Y005308D01*
X003388Y005354D02*
X003118Y005354D01*
X003118Y005400D02*
X003388Y005400D01*
X003388Y005446D02*
X003118Y005446D01*
X003118Y005492D02*
X003388Y005492D01*
X003388Y005538D02*
X003118Y005538D01*
X003118Y005584D02*
X003388Y005584D01*
X003388Y005630D02*
X003118Y005630D01*
X003118Y005676D02*
X003388Y005676D01*
D52*
X003548Y006105D03*
X004730Y006105D03*
M02*
