G75*
G70*
%OFA0B0*%
%FSLAX24Y24*%
%IPPOS*%
%LPD*%
%AMOC8*
5,1,8,0,0,1.08239X$1,22.5*
%
%ADD10C,0.0050*%
%ADD11C,0.0060*%
%ADD12C,0.0040*%
%ADD13C,0.0080*%
%ADD14R,0.0202X0.0006*%
%ADD15R,0.0277X0.0006*%
%ADD16R,0.0328X0.0006*%
%ADD17R,0.0378X0.0006*%
%ADD18R,0.0416X0.0006*%
%ADD19R,0.0454X0.0006*%
%ADD20R,0.0479X0.0006*%
%ADD21R,0.0517X0.0006*%
%ADD22R,0.0542X0.0006*%
%ADD23R,0.0567X0.0006*%
%ADD24R,0.0592X0.0006*%
%ADD25R,0.0617X0.0006*%
%ADD26R,0.0643X0.0006*%
%ADD27R,0.0661X0.0006*%
%ADD28R,0.0680X0.0006*%
%ADD29R,0.0706X0.0006*%
%ADD30R,0.0718X0.0006*%
%ADD31R,0.0353X0.0006*%
%ADD32R,0.0296X0.0006*%
%ADD33R,0.0271X0.0006*%
%ADD34R,0.0258X0.0006*%
%ADD35R,0.0265X0.0006*%
%ADD36R,0.0246X0.0006*%
%ADD37R,0.0239X0.0006*%
%ADD38R,0.0233X0.0006*%
%ADD39R,0.0227X0.0006*%
%ADD40R,0.0220X0.0006*%
%ADD41R,0.0214X0.0006*%
%ADD42R,0.0208X0.0006*%
%ADD43R,0.0195X0.0006*%
%ADD44R,0.0189X0.0006*%
%ADD45R,0.0183X0.0006*%
%ADD46R,0.0176X0.0006*%
%ADD47R,0.0170X0.0006*%
%ADD48R,0.0164X0.0006*%
%ADD49R,0.0157X0.0006*%
%ADD50R,0.0151X0.0006*%
%ADD51R,0.0145X0.0006*%
%ADD52R,0.0139X0.0006*%
%ADD53R,0.0132X0.0006*%
%ADD54R,0.0126X0.0006*%
%ADD55R,0.0019X0.0006*%
%ADD56R,0.0088X0.0006*%
%ADD57R,0.0038X0.0006*%
%ADD58R,0.0050X0.0006*%
%ADD59R,0.0069X0.0006*%
%ADD60R,0.0076X0.0006*%
%ADD61R,0.0120X0.0006*%
%ADD62R,0.0094X0.0006*%
%ADD63R,0.0107X0.0006*%
%ADD64R,0.0252X0.0006*%
%ADD65R,0.0309X0.0006*%
%ADD66R,0.0340X0.0006*%
%ADD67R,0.0359X0.0006*%
%ADD68R,0.0649X0.0006*%
%ADD69R,0.0655X0.0006*%
%ADD70R,0.0397X0.0006*%
%ADD71R,0.0372X0.0006*%
%ADD72R,0.0290X0.0006*%
%ADD73R,0.0113X0.0006*%
%ADD74R,0.0101X0.0006*%
%ADD75R,0.0082X0.0006*%
%ADD76R,0.0057X0.0006*%
%ADD77R,0.0044X0.0006*%
%ADD78R,0.0025X0.0006*%
%ADD79R,0.0334X0.0006*%
%ADD80R,0.0731X0.0006*%
%ADD81R,0.0693X0.0006*%
%ADD82R,0.0668X0.0006*%
%ADD83R,0.0624X0.0006*%
%ADD84R,0.0605X0.0006*%
%ADD85R,0.0580X0.0006*%
%ADD86R,0.0548X0.0006*%
%ADD87R,0.0491X0.0006*%
%ADD88R,0.0422X0.0006*%
%ADD89R,0.0120X0.1216*%
%ADD90R,0.0120X0.1203*%
%ADD91C,0.0120*%
%ADD92C,0.0100*%
%ADD93C,0.0020*%
%ADD94R,0.0344X0.0197*%
%ADD95R,0.0220X0.0005*%
%ADD96R,0.0118X0.0005*%
%ADD97R,0.0343X0.0005*%
%ADD98R,0.0435X0.0005*%
%ADD99R,0.0077X0.0005*%
%ADD100R,0.0246X0.0005*%
%ADD101R,0.0363X0.0005*%
%ADD102R,0.0128X0.0005*%
%ADD103R,0.0261X0.0005*%
%ADD104R,0.0379X0.0005*%
%ADD105R,0.0159X0.0005*%
%ADD106R,0.0276X0.0005*%
%ADD107R,0.0389X0.0005*%
%ADD108R,0.0189X0.0005*%
%ADD109R,0.0287X0.0005*%
%ADD110R,0.0399X0.0005*%
%ADD111R,0.0210X0.0005*%
%ADD112R,0.0297X0.0005*%
%ADD113R,0.0404X0.0005*%
%ADD114R,0.0230X0.0005*%
%ADD115R,0.0307X0.0005*%
%ADD116R,0.0409X0.0005*%
%ADD117R,0.0251X0.0005*%
%ADD118R,0.0317X0.0005*%
%ADD119R,0.0420X0.0005*%
%ADD120R,0.0271X0.0005*%
%ADD121R,0.0322X0.0005*%
%ADD122R,0.0425X0.0005*%
%ADD123R,0.0281X0.0005*%
%ADD124R,0.0333X0.0005*%
%ADD125R,0.0430X0.0005*%
%ADD126R,0.0302X0.0005*%
%ADD127R,0.0338X0.0005*%
%ADD128R,0.0312X0.0005*%
%ADD129R,0.0348X0.0005*%
%ADD130R,0.0440X0.0005*%
%ADD131R,0.0353X0.0005*%
%ADD132R,0.0445X0.0005*%
%ADD133R,0.0358X0.0005*%
%ADD134R,0.0450X0.0005*%
%ADD135R,0.0369X0.0005*%
%ADD136R,0.0456X0.0005*%
%ADD137R,0.0374X0.0005*%
%ADD138R,0.0384X0.0005*%
%ADD139R,0.0461X0.0005*%
%ADD140R,0.0394X0.0005*%
%ADD141R,0.0415X0.0005*%
%ADD142R,0.0466X0.0005*%
%ADD143R,0.0138X0.0005*%
%ADD144R,0.0174X0.0005*%
%ADD145R,0.0169X0.0005*%
%ADD146R,0.0164X0.0005*%
%ADD147R,0.0154X0.0005*%
%ADD148R,0.0123X0.0005*%
%ADD149R,0.0143X0.0005*%
%ADD150R,0.0133X0.0005*%
%ADD151C,0.0028*%
%ADD152R,0.0118X0.0276*%
%ADD153C,0.0079*%
%ADD154C,0.0059*%
D10*
X003476Y003466D02*
X003431Y003512D01*
X003431Y003557D01*
X003476Y003602D01*
X003701Y003602D01*
X003701Y003557D02*
X003701Y003647D01*
X003566Y003761D02*
X003566Y003941D01*
X003701Y003896D02*
X003566Y003761D01*
X003431Y003896D02*
X003701Y003896D01*
X005824Y005951D02*
X005869Y005906D01*
X005959Y005906D01*
X006004Y005951D01*
X006004Y005996D01*
X005959Y006041D01*
X005869Y006041D01*
X005824Y005996D01*
X005824Y005951D01*
X005869Y006041D02*
X005824Y006086D01*
X005824Y006131D01*
X005869Y006176D01*
X005959Y006176D01*
X006004Y006131D01*
X006004Y006086D01*
X005959Y006041D01*
X006119Y006131D02*
X006119Y005951D01*
X006164Y005906D01*
X006254Y005906D01*
X006299Y005951D01*
X006299Y006131D01*
X006254Y006176D01*
X006164Y006176D01*
X006119Y006131D01*
X006209Y005996D02*
X006119Y005906D01*
X006248Y003270D02*
X006248Y003090D01*
X006383Y003225D01*
X006113Y003225D01*
X006158Y002976D02*
X006113Y002931D01*
X006113Y002841D01*
X006158Y002796D01*
X006338Y002796D01*
X006383Y002841D01*
X006383Y002931D01*
X006338Y002976D01*
X006383Y002689D02*
X006383Y002599D01*
X006383Y002644D02*
X006113Y002644D01*
X006113Y002599D02*
X006113Y002689D01*
X008947Y005676D02*
X008993Y005631D01*
X009173Y005631D01*
X009218Y005676D01*
X009218Y005766D01*
X009173Y005811D01*
X008993Y005811D01*
X008947Y005766D01*
X008947Y005676D01*
X009038Y005721D02*
X008947Y005811D01*
X008947Y005925D02*
X008947Y006105D01*
X008947Y006015D02*
X009218Y006015D01*
X009128Y005925D01*
X009173Y006220D02*
X009218Y006265D01*
X009218Y006355D01*
X009173Y006400D01*
X009128Y006400D01*
X008947Y006220D01*
X008947Y006400D01*
X010705Y005418D02*
X010705Y005373D01*
X010750Y005328D01*
X010840Y005328D01*
X010885Y005373D01*
X010885Y005418D01*
X010840Y005463D01*
X010750Y005463D01*
X010705Y005418D01*
X010750Y005328D02*
X010705Y005283D01*
X010705Y005238D01*
X010750Y005192D01*
X010840Y005192D01*
X010885Y005238D01*
X010885Y005283D01*
X010840Y005328D01*
X011000Y005418D02*
X011045Y005463D01*
X011135Y005463D01*
X011180Y005418D01*
X011180Y005238D01*
X011135Y005192D01*
X011045Y005192D01*
X011000Y005238D01*
X011286Y005192D02*
X011376Y005192D01*
X011331Y005192D02*
X011331Y005463D01*
X011376Y005463D02*
X011286Y005463D01*
X013108Y005305D02*
X013108Y005260D01*
X013288Y005079D01*
X013108Y005079D01*
X013108Y005305D02*
X013153Y005350D01*
X013243Y005350D01*
X013288Y005305D01*
X013402Y005350D02*
X013492Y005350D01*
X013447Y005350D02*
X013447Y005124D01*
X013492Y005079D01*
X013537Y005079D01*
X013583Y005124D01*
X013827Y004897D02*
X013829Y004911D01*
X013835Y004925D01*
X013843Y004937D01*
X013855Y004945D01*
X013869Y004951D01*
X013883Y004953D01*
X013897Y004951D01*
X013911Y004945D01*
X013923Y004937D01*
X013931Y004925D01*
X013937Y004911D01*
X013939Y004897D01*
X013937Y004883D01*
X013931Y004869D01*
X013923Y004857D01*
X013911Y004849D01*
X013897Y004843D01*
X013883Y004841D01*
X013869Y004843D01*
X013855Y004849D01*
X013843Y004857D01*
X013835Y004869D01*
X013829Y004883D01*
X013827Y004897D01*
X012958Y002609D02*
X012688Y002609D01*
X012688Y002519D02*
X012688Y002699D01*
X012868Y002519D02*
X012958Y002609D01*
X012958Y002315D02*
X012688Y002315D01*
X012688Y002405D02*
X012688Y002224D01*
X012688Y002110D02*
X012778Y002020D01*
X012733Y002110D02*
X012688Y002065D01*
X012688Y001975D01*
X012733Y001930D01*
X012913Y001930D01*
X012958Y001975D01*
X012958Y002065D01*
X012913Y002110D01*
X012733Y002110D01*
X012868Y002224D02*
X012958Y002315D01*
X009842Y002442D02*
X009662Y002442D01*
X009548Y002442D02*
X009368Y002442D01*
X009458Y002442D02*
X009458Y002712D01*
X009548Y002622D01*
X009842Y002712D02*
X009842Y002442D01*
X011375Y008913D02*
X011836Y008913D01*
X011836Y009306D01*
X013482Y009922D02*
X013663Y009922D01*
X013572Y009922D02*
X013572Y010192D01*
X013663Y010102D01*
X013777Y010147D02*
X013777Y010057D01*
X013822Y010012D01*
X013957Y010012D01*
X013867Y010012D02*
X013777Y009922D01*
X013957Y009922D02*
X013957Y010192D01*
X013822Y010192D01*
X013777Y010147D01*
X014072Y010192D02*
X014252Y010192D01*
X014162Y010192D02*
X014162Y009922D01*
X015785Y010906D02*
X015965Y010906D01*
X015785Y011086D01*
X015785Y011131D01*
X015830Y011176D01*
X015920Y011176D01*
X015965Y011131D01*
X016080Y011131D02*
X016080Y010951D01*
X016125Y010906D01*
X016215Y010906D01*
X016260Y010951D01*
X016260Y011131D01*
X016215Y011176D01*
X016125Y011176D01*
X016080Y011131D01*
X016170Y010996D02*
X016080Y010906D01*
X017648Y011975D02*
X017693Y011930D01*
X017873Y011930D01*
X017919Y011975D01*
X017919Y012065D01*
X017873Y012110D01*
X017693Y012110D01*
X017648Y012065D01*
X017648Y011975D01*
X017738Y012020D02*
X017648Y012110D01*
X017693Y012224D02*
X017648Y012269D01*
X017648Y012360D01*
X017693Y012405D01*
X017738Y012405D01*
X017783Y012360D01*
X017783Y012315D01*
X017783Y012360D02*
X017828Y012405D01*
X017873Y012405D01*
X017919Y012360D01*
X017919Y012269D01*
X017873Y012224D01*
X018239Y013465D02*
X018239Y013555D01*
X018239Y013510D02*
X018509Y013510D01*
X018509Y013465D02*
X018509Y013555D01*
X018464Y013662D02*
X018284Y013662D01*
X018239Y013707D01*
X018239Y013797D01*
X018284Y013842D01*
X018284Y013956D02*
X018239Y013956D01*
X018284Y013956D02*
X018464Y014136D01*
X018509Y014136D01*
X018509Y013956D01*
X018464Y013842D02*
X018509Y013797D01*
X018509Y013707D01*
X018464Y013662D01*
X019459Y011223D02*
X019459Y011043D01*
X019459Y011133D02*
X019730Y011133D01*
X019639Y011043D01*
X019684Y010929D02*
X019504Y010929D01*
X019459Y010884D01*
X019459Y010794D01*
X019504Y010749D01*
X019684Y010749D01*
X019730Y010794D01*
X019730Y010884D01*
X019684Y010929D01*
X019549Y010839D02*
X019459Y010929D01*
X021147Y010986D02*
X021147Y011166D01*
X021147Y011281D02*
X021327Y011461D01*
X021372Y011461D01*
X021417Y011416D01*
X021417Y011326D01*
X021372Y011281D01*
X021372Y011166D02*
X021192Y010986D01*
X021147Y010986D01*
X021417Y010986D02*
X021417Y011166D01*
X021372Y011166D01*
X021147Y011281D02*
X021147Y011461D01*
X021147Y010122D02*
X021147Y009942D01*
X021147Y010032D02*
X021417Y010032D01*
X021327Y009942D01*
X021372Y009828D02*
X021192Y009648D01*
X021147Y009648D01*
X021147Y009828D01*
X021372Y009828D02*
X021417Y009828D01*
X021417Y009648D01*
X022162Y009433D02*
X022162Y009388D01*
X022207Y009343D01*
X022162Y009298D01*
X022162Y009253D01*
X022207Y009208D01*
X022297Y009208D01*
X022342Y009253D01*
X022456Y009208D02*
X022636Y009208D01*
X022636Y009253D01*
X022456Y009433D01*
X022456Y009478D01*
X022636Y009478D01*
X022342Y009433D02*
X022297Y009478D01*
X022207Y009478D01*
X022162Y009433D01*
X022207Y009343D02*
X022252Y009343D01*
X022530Y008546D02*
X022530Y008366D01*
X022530Y008456D02*
X022800Y008456D01*
X022710Y008366D01*
X022755Y008252D02*
X022800Y008207D01*
X022800Y008072D01*
X022530Y008072D01*
X022530Y008207D01*
X022575Y008252D01*
X022755Y008252D01*
X024092Y008072D02*
X024272Y008072D01*
X024182Y008072D02*
X024182Y008342D01*
X024272Y008252D01*
X024387Y008342D02*
X024477Y008342D01*
X024432Y008342D02*
X024432Y008117D01*
X024477Y008072D01*
X024522Y008072D01*
X024567Y008117D01*
X024508Y006846D02*
X024328Y006846D01*
X024328Y006801D01*
X024508Y006620D01*
X024508Y006575D01*
X024623Y006575D02*
X024713Y006666D01*
X024758Y006575D02*
X024803Y006620D01*
X024803Y006801D01*
X024758Y006846D01*
X024668Y006846D01*
X024623Y006801D01*
X024623Y006620D01*
X024668Y006575D01*
X024758Y006575D01*
X023897Y006542D02*
X023852Y006497D01*
X023762Y006497D01*
X023717Y006542D01*
X023717Y006722D01*
X023762Y006767D01*
X023852Y006767D01*
X023897Y006722D01*
X023897Y006542D01*
X023807Y006587D02*
X023717Y006497D01*
X023603Y006542D02*
X023558Y006497D01*
X023468Y006497D01*
X023423Y006542D01*
X023423Y006632D01*
X023468Y006677D01*
X023513Y006677D01*
X023603Y006632D01*
X023603Y006767D01*
X023423Y006767D01*
X025134Y004412D02*
X025179Y004412D01*
X025224Y004367D01*
X025224Y004232D01*
X025134Y004232D01*
X025089Y004277D01*
X025089Y004367D01*
X025134Y004412D01*
X025314Y004322D02*
X025224Y004232D01*
X025314Y004322D02*
X025359Y004412D01*
X025314Y004118D02*
X025134Y004118D01*
X025089Y004073D01*
X025089Y003983D01*
X025134Y003938D01*
X025314Y003938D01*
X025359Y003983D01*
X025359Y004073D01*
X025314Y004118D01*
X025179Y004028D02*
X025089Y004118D01*
X024679Y003539D02*
X024589Y003539D01*
X024544Y003494D01*
X024544Y003313D01*
X024589Y003268D01*
X024679Y003268D01*
X024724Y003313D01*
X024724Y003494D01*
X024679Y003539D01*
X024634Y003358D02*
X024544Y003268D01*
X024430Y003313D02*
X024385Y003268D01*
X024294Y003268D01*
X024249Y003313D01*
X024249Y003494D01*
X024294Y003539D01*
X024385Y003539D01*
X024430Y003494D01*
X024430Y003449D01*
X024385Y003403D01*
X024249Y003403D01*
X020984Y007678D02*
X021029Y007723D01*
X021029Y007813D01*
X020984Y007858D01*
X020804Y007858D01*
X020759Y007813D01*
X020759Y007723D01*
X020804Y007678D01*
X020984Y007678D01*
X020849Y007768D02*
X020759Y007858D01*
X020894Y007972D02*
X020894Y008153D01*
X021029Y008108D02*
X020894Y007972D01*
X020759Y008108D02*
X021029Y008108D01*
X022813Y013008D02*
X022993Y013008D01*
X022993Y013278D01*
X023108Y013233D02*
X023153Y013278D01*
X023243Y013278D01*
X023288Y013233D01*
X023288Y013053D01*
X023243Y013008D01*
X023153Y013008D01*
X023108Y013053D01*
X023402Y013053D02*
X023447Y013008D01*
X023537Y013008D01*
X023583Y013053D01*
X023537Y013143D02*
X023447Y013143D01*
X023402Y013098D01*
X023402Y013053D01*
X023537Y013143D02*
X023583Y013188D01*
X023583Y013233D01*
X023537Y013278D01*
X023447Y013278D01*
X023402Y013233D01*
X023447Y014008D02*
X023537Y014008D01*
X023583Y014053D01*
X023537Y014143D02*
X023447Y014143D01*
X023402Y014098D01*
X023402Y014053D01*
X023447Y014008D01*
X023288Y014008D02*
X023153Y014008D01*
X023108Y014053D01*
X023108Y014233D01*
X023153Y014278D01*
X023288Y014278D01*
X023288Y014008D01*
X023402Y014233D02*
X023447Y014278D01*
X023537Y014278D01*
X023583Y014233D01*
X023583Y014188D01*
X023537Y014143D01*
X022993Y014143D02*
X022813Y014143D01*
X022813Y014188D02*
X022813Y014008D01*
X022813Y014188D02*
X022903Y014278D01*
X022993Y014188D01*
X022993Y014008D01*
X022948Y015008D02*
X022993Y015053D01*
X022993Y015143D01*
X022948Y015188D01*
X022858Y015188D01*
X022813Y015143D01*
X022813Y015098D01*
X022993Y015098D01*
X022948Y015008D02*
X022858Y015008D01*
X022654Y015008D02*
X022654Y015233D01*
X022608Y015278D01*
X022608Y015143D02*
X022699Y015143D01*
X023108Y015143D02*
X023153Y015098D01*
X023288Y015098D01*
X023198Y015098D02*
X023108Y015008D01*
X023108Y015143D02*
X023108Y015233D01*
X023153Y015278D01*
X023288Y015278D01*
X023288Y015008D01*
X023402Y015008D02*
X023402Y015188D01*
X023492Y015278D01*
X023583Y015188D01*
X023583Y015008D01*
X023583Y015143D02*
X023402Y015143D01*
X023447Y016005D02*
X023402Y016050D01*
X023402Y016140D01*
X023492Y016140D01*
X023402Y016230D02*
X023447Y016275D01*
X023537Y016275D01*
X023583Y016230D01*
X023583Y016050D01*
X023537Y016005D01*
X023447Y016005D01*
X023288Y016005D02*
X023288Y016275D01*
X023108Y016005D01*
X023108Y016275D01*
X022993Y016275D02*
X022858Y016275D01*
X022813Y016230D01*
X022813Y016050D01*
X022858Y016005D01*
X022993Y016005D01*
X022993Y016275D01*
X023246Y017068D02*
X023246Y017249D01*
X023246Y017159D02*
X023516Y017159D01*
X023426Y017068D01*
X023471Y017363D02*
X023516Y017408D01*
X023516Y017498D01*
X023471Y017543D01*
X023426Y017543D01*
X023381Y017498D01*
X023336Y017543D01*
X023291Y017543D01*
X023246Y017498D01*
X023246Y017408D01*
X023291Y017363D01*
X023381Y017453D02*
X023381Y017498D01*
X023426Y018068D02*
X023516Y018159D01*
X023246Y018159D01*
X023246Y018249D02*
X023246Y018068D01*
X023246Y018363D02*
X023426Y018543D01*
X023471Y018543D01*
X023516Y018498D01*
X023516Y018408D01*
X023471Y018363D01*
X023246Y018363D02*
X023246Y018543D01*
X023246Y019068D02*
X023246Y019249D01*
X023246Y019159D02*
X023516Y019159D01*
X023426Y019068D01*
X023426Y019363D02*
X023516Y019453D01*
X023246Y019453D01*
X023246Y019363D02*
X023246Y019543D01*
X023246Y020068D02*
X023246Y020249D01*
X023246Y020159D02*
X023516Y020159D01*
X023426Y020068D01*
X023471Y020363D02*
X023516Y020408D01*
X023516Y020498D01*
X023471Y020543D01*
X023291Y020363D01*
X023246Y020408D01*
X023246Y020498D01*
X023291Y020543D01*
X023471Y020543D01*
X023471Y020363D02*
X023291Y020363D01*
X022919Y020631D02*
X022648Y020631D01*
X022648Y020811D01*
X022648Y020925D02*
X022648Y021105D01*
X022648Y021015D02*
X022919Y021015D01*
X022828Y020925D01*
X022873Y021220D02*
X022919Y021265D01*
X022919Y021355D01*
X022873Y021400D01*
X022693Y021220D01*
X022648Y021265D01*
X022648Y021355D01*
X022693Y021400D01*
X022873Y021400D01*
X022873Y021515D02*
X022919Y021560D01*
X022919Y021650D01*
X022873Y021695D01*
X022828Y021695D01*
X022648Y021515D01*
X022648Y021695D01*
X022693Y021220D02*
X022873Y021220D01*
X023246Y021208D02*
X023246Y021298D01*
X023291Y021343D01*
X023471Y021343D01*
X023516Y021298D01*
X023516Y021208D01*
X023471Y021163D01*
X023426Y021163D01*
X023381Y021208D01*
X023381Y021343D01*
X023246Y021208D02*
X023291Y021163D01*
X023291Y022163D02*
X023246Y022208D01*
X023246Y022298D01*
X023291Y022343D01*
X023336Y022343D01*
X023381Y022298D01*
X023381Y022208D01*
X023426Y022163D01*
X023471Y022163D01*
X023516Y022208D01*
X023516Y022298D01*
X023471Y022343D01*
X023426Y022343D01*
X023381Y022298D01*
X023381Y022208D02*
X023336Y022163D01*
X023291Y022163D01*
X023291Y023763D02*
X023246Y023763D01*
X023291Y023763D02*
X023471Y023943D01*
X023516Y023943D01*
X023516Y023763D01*
X023381Y024763D02*
X023381Y024898D01*
X023336Y024943D01*
X023291Y024943D01*
X023246Y024898D01*
X023246Y024808D01*
X023291Y024763D01*
X023381Y024763D01*
X023471Y024853D01*
X023516Y024943D01*
X023516Y025763D02*
X023381Y025763D01*
X023426Y025853D01*
X023426Y025898D01*
X023381Y025943D01*
X023291Y025943D01*
X023246Y025898D01*
X023246Y025808D01*
X023291Y025763D01*
X023516Y025763D02*
X023516Y025943D01*
X023381Y026763D02*
X023381Y026943D01*
X023516Y026898D02*
X023381Y026763D01*
X023246Y026898D02*
X023516Y026898D01*
X023471Y027763D02*
X023516Y027808D01*
X023516Y027898D01*
X023471Y027943D01*
X023426Y027943D01*
X023381Y027898D01*
X023336Y027943D01*
X023291Y027943D01*
X023246Y027898D01*
X023246Y027808D01*
X023291Y027763D01*
X023381Y027853D02*
X023381Y027898D01*
X023471Y028763D02*
X023516Y028808D01*
X023516Y028898D01*
X023471Y028943D01*
X023426Y028943D01*
X023246Y028763D01*
X023246Y028943D01*
X023246Y029763D02*
X023246Y029943D01*
X023246Y029853D02*
X023516Y029853D01*
X023426Y029763D01*
X023471Y030763D02*
X023516Y030808D01*
X023516Y030898D01*
X023471Y030943D01*
X023291Y030763D01*
X023246Y030808D01*
X023246Y030898D01*
X023291Y030943D01*
X023471Y030943D01*
X023471Y030763D02*
X023291Y030763D01*
X023249Y031654D02*
X023249Y031834D01*
X023158Y031924D01*
X023068Y031834D01*
X023068Y031654D01*
X022954Y031654D02*
X022954Y031924D01*
X022774Y031654D01*
X022774Y031924D01*
X022659Y031924D02*
X022659Y031654D01*
X022659Y031744D02*
X022524Y031744D01*
X022479Y031789D01*
X022479Y031879D01*
X022524Y031924D01*
X022659Y031924D01*
X022569Y031744D02*
X022479Y031654D01*
X022365Y031654D02*
X022184Y031924D01*
X022365Y031924D02*
X022184Y031654D01*
X023068Y031789D02*
X023249Y031789D01*
X023363Y031699D02*
X023408Y031654D01*
X023498Y031654D01*
X023543Y031699D01*
X023543Y031879D01*
X023498Y031924D01*
X023408Y031924D01*
X023363Y031879D01*
X023408Y032638D02*
X023363Y032683D01*
X023408Y032638D02*
X023498Y032638D01*
X023543Y032683D01*
X023543Y032864D01*
X023498Y032909D01*
X023408Y032909D01*
X023363Y032864D01*
X023249Y032819D02*
X023158Y032909D01*
X023068Y032819D01*
X023068Y032638D01*
X022954Y032638D02*
X022954Y032909D01*
X022774Y032638D01*
X022774Y032909D01*
X022659Y032909D02*
X022479Y032909D01*
X022569Y032909D02*
X022569Y032638D01*
X022365Y032638D02*
X022184Y032909D01*
X022365Y032909D02*
X022184Y032638D01*
X023068Y032774D02*
X023249Y032774D01*
X023249Y032819D02*
X023249Y032638D01*
X023686Y034503D02*
X023686Y035960D01*
X023686Y034503D02*
X018962Y034503D01*
X018962Y035960D01*
X018745Y035884D02*
X018745Y035794D01*
X018700Y035749D01*
X018655Y035749D01*
X018610Y035794D01*
X018610Y035884D01*
X018565Y035929D01*
X018520Y035929D01*
X018475Y035884D01*
X018475Y035794D01*
X018520Y035749D01*
X018700Y035929D02*
X018745Y035884D01*
X018700Y036043D02*
X018520Y036043D01*
X018475Y036088D01*
X018475Y036178D01*
X018520Y036223D01*
X018610Y036223D01*
X018610Y036133D01*
X018700Y036043D02*
X018745Y036088D01*
X018745Y036178D01*
X018700Y036223D01*
X018655Y036338D02*
X018745Y036428D01*
X018475Y036428D01*
X018475Y036338D02*
X018475Y036518D01*
X018503Y034943D02*
X018323Y034943D01*
X018278Y034898D01*
X018278Y034808D01*
X018323Y034763D01*
X018503Y034943D01*
X018548Y034898D01*
X018548Y034808D01*
X018503Y034763D01*
X018323Y034763D01*
X018278Y034649D02*
X018278Y034469D01*
X018278Y034559D02*
X018548Y034559D01*
X018458Y034469D01*
X018503Y034354D02*
X018323Y034354D01*
X018278Y034309D01*
X018278Y034219D01*
X018323Y034174D01*
X018503Y034174D01*
X018548Y034219D01*
X018548Y034309D01*
X018503Y034354D01*
X018368Y034264D02*
X018278Y034354D01*
X019749Y036669D02*
X019749Y037062D01*
X019552Y036865D01*
X019749Y036669D01*
X019749Y036681D02*
X019737Y036681D01*
X019749Y036729D02*
X019689Y036729D01*
X019640Y036778D02*
X019749Y036778D01*
X019749Y036826D02*
X019592Y036826D01*
X019562Y036875D02*
X019749Y036875D01*
X019749Y036923D02*
X019610Y036923D01*
X019659Y036972D02*
X019749Y036972D01*
X019749Y037020D02*
X019707Y037020D01*
X018962Y037771D02*
X018962Y039228D01*
X023686Y039228D01*
X023686Y037771D01*
X027097Y033068D02*
X027367Y033068D01*
X027232Y032933D01*
X027232Y033113D01*
X027187Y032819D02*
X027142Y032819D01*
X027097Y032774D01*
X027097Y032683D01*
X027142Y032638D01*
X027232Y032683D02*
X027232Y032774D01*
X027187Y032819D01*
X027322Y032819D02*
X027367Y032774D01*
X027367Y032683D01*
X027322Y032638D01*
X027277Y032638D01*
X027232Y032683D01*
X022272Y026413D02*
X022272Y026142D01*
X022362Y026142D02*
X022182Y026142D01*
X022067Y026187D02*
X022022Y026142D01*
X021932Y026142D01*
X021887Y026187D01*
X021887Y026278D01*
X021932Y026323D01*
X021977Y026323D01*
X022067Y026278D01*
X022067Y026413D01*
X021887Y026413D01*
X022272Y026413D02*
X022362Y026323D01*
X022272Y025861D02*
X022272Y025591D01*
X022362Y025591D02*
X022182Y025591D01*
X022067Y025636D02*
X022022Y025591D01*
X021932Y025591D01*
X021887Y025636D01*
X021887Y025681D01*
X021932Y025726D01*
X022067Y025726D01*
X022067Y025636D01*
X022067Y025726D02*
X021977Y025816D01*
X021887Y025861D01*
X022272Y025861D02*
X022362Y025771D01*
X021457Y027166D02*
X021276Y027166D01*
X021366Y027166D02*
X021366Y027436D01*
X021457Y027346D01*
X021162Y027391D02*
X021117Y027436D01*
X021027Y027436D01*
X020982Y027391D01*
X021162Y027211D01*
X021117Y027166D01*
X021027Y027166D01*
X020982Y027211D01*
X020982Y027391D01*
X021162Y027391D02*
X021162Y027211D01*
X020669Y027363D02*
X020489Y027363D01*
X020579Y027363D02*
X020579Y027633D01*
X020669Y027543D01*
X020374Y027588D02*
X020329Y027633D01*
X020239Y027633D01*
X020194Y027588D01*
X020194Y027543D01*
X020374Y027363D01*
X020194Y027363D01*
X019960Y027599D02*
X019780Y027599D01*
X019870Y027599D02*
X019870Y027869D01*
X019960Y027779D01*
X019666Y027734D02*
X019486Y027734D01*
X019531Y027599D02*
X019531Y027869D01*
X019666Y027734D01*
X020121Y028938D02*
X020076Y028983D01*
X020076Y029028D01*
X020121Y029073D01*
X020166Y029073D01*
X020121Y029073D02*
X020076Y029118D01*
X020076Y029163D01*
X020121Y029208D01*
X020211Y029208D01*
X020256Y029163D01*
X020256Y028983D02*
X020211Y028938D01*
X020121Y028938D01*
X020371Y028938D02*
X020551Y028938D01*
X020461Y028938D02*
X020461Y029208D01*
X020551Y029118D01*
X020534Y030434D02*
X020489Y030479D01*
X020489Y030524D01*
X020534Y030569D01*
X020669Y030569D01*
X020669Y030479D01*
X020624Y030434D01*
X020534Y030434D01*
X020669Y030569D02*
X020579Y030659D01*
X020489Y030704D01*
X020039Y030783D02*
X019859Y030783D01*
X019859Y030738D01*
X020039Y030558D01*
X020039Y030512D01*
X019252Y030754D02*
X019207Y030709D01*
X019117Y030709D01*
X019072Y030754D01*
X019072Y030935D01*
X019117Y030980D01*
X019207Y030980D01*
X019252Y030935D01*
X019252Y030889D01*
X019207Y030844D01*
X019072Y030844D01*
X018740Y029405D02*
X018650Y029405D01*
X018695Y029405D02*
X018695Y029135D01*
X018740Y029135D02*
X018650Y029135D01*
X018544Y029180D02*
X018499Y029135D01*
X018408Y029135D01*
X018363Y029180D01*
X018249Y029135D02*
X018069Y029135D01*
X018159Y029135D02*
X018159Y029405D01*
X018249Y029315D01*
X018363Y029360D02*
X018408Y029405D01*
X018499Y029405D01*
X018544Y029360D01*
X018544Y029180D01*
X018253Y028716D02*
X018253Y028558D01*
X018253Y028716D02*
X018017Y028952D01*
X017859Y028952D01*
X019190Y029152D02*
X019370Y029152D01*
X019235Y029287D01*
X019235Y029016D01*
X021040Y030400D02*
X021085Y030355D01*
X021175Y030355D01*
X021220Y030400D01*
X021220Y030490D02*
X021130Y030535D01*
X021085Y030535D01*
X021040Y030490D01*
X021040Y030400D01*
X021220Y030490D02*
X021220Y030625D01*
X021040Y030625D01*
X021623Y028499D02*
X021623Y028229D01*
X021713Y028229D02*
X021533Y028229D01*
X021713Y028409D02*
X021623Y028499D01*
X021918Y028499D02*
X021918Y028229D01*
X022008Y028229D02*
X021828Y028229D01*
X022008Y028409D02*
X021918Y028499D01*
X025686Y025104D02*
X025686Y022564D01*
X026726Y022564D01*
X026726Y024834D01*
X026776Y024834D01*
X026826Y024834D01*
X026826Y025204D01*
X026456Y025204D01*
X026456Y025154D01*
X026456Y025104D01*
X025686Y025104D01*
X026456Y025104D02*
X026726Y025104D01*
X026726Y024834D01*
X026776Y024834D02*
X026776Y025154D01*
X026456Y025154D01*
X021304Y021773D02*
X021304Y021593D01*
X021169Y021593D01*
X021214Y021683D01*
X021214Y021728D01*
X021169Y021773D01*
X021079Y021773D01*
X021034Y021728D01*
X021034Y021638D01*
X021079Y021593D01*
X021079Y021479D02*
X021034Y021434D01*
X021034Y021344D01*
X021079Y021299D01*
X021259Y021479D01*
X021079Y021479D01*
X021259Y021479D02*
X021304Y021434D01*
X021304Y021344D01*
X021259Y021299D01*
X021079Y021299D01*
X021034Y021184D02*
X021034Y021004D01*
X021034Y021094D02*
X021304Y021094D01*
X021214Y021004D01*
X021034Y020889D02*
X021034Y020709D01*
X021304Y020709D01*
X020905Y021930D02*
X020725Y022200D01*
X020611Y022110D02*
X020521Y022200D01*
X020521Y021930D01*
X020611Y021930D02*
X020431Y021930D01*
X020725Y021930D02*
X020905Y022200D01*
X018253Y021472D02*
X018253Y021078D01*
X017938Y021078D01*
X016397Y018307D02*
X016397Y017707D01*
X016822Y017392D02*
X017092Y017392D01*
X017092Y017302D02*
X017092Y017482D01*
X017047Y017187D02*
X017092Y017142D01*
X017092Y017052D01*
X017047Y017007D01*
X017002Y017007D01*
X016957Y017052D01*
X016957Y017142D01*
X016912Y017187D01*
X016867Y017187D01*
X016822Y017142D01*
X016822Y017052D01*
X016867Y017007D01*
X016822Y016893D02*
X016912Y016803D01*
X016912Y016848D02*
X016912Y016713D01*
X016822Y016713D02*
X017092Y016713D01*
X017092Y016848D01*
X017047Y016893D01*
X016957Y016893D01*
X016912Y016848D01*
X016822Y016598D02*
X017092Y016598D01*
X017092Y016418D02*
X016822Y016598D01*
X016822Y016418D02*
X017092Y016418D01*
X018593Y016379D02*
X018863Y016379D01*
X018593Y016559D01*
X018863Y016559D01*
X018863Y016673D02*
X018593Y016673D01*
X018683Y016673D02*
X018683Y016808D01*
X018728Y016853D01*
X018818Y016853D01*
X018863Y016808D01*
X018863Y016673D01*
X018683Y016763D02*
X018593Y016853D01*
X018638Y016968D02*
X018593Y017013D01*
X018593Y017103D01*
X018638Y017148D01*
X018683Y017148D01*
X018728Y017103D01*
X018728Y017013D01*
X018773Y016968D01*
X018818Y016968D01*
X018863Y017013D01*
X018863Y017103D01*
X018818Y017148D01*
X018863Y017263D02*
X018863Y017443D01*
X018863Y017353D02*
X018593Y017353D01*
X018593Y017557D02*
X018593Y017692D01*
X018638Y017737D01*
X018683Y017737D01*
X018728Y017692D01*
X018728Y017557D01*
X018593Y017557D02*
X018863Y017557D01*
X018863Y017692D01*
X018818Y017737D01*
X018773Y017737D01*
X018728Y017692D01*
X015984Y014215D02*
X016029Y014170D01*
X016029Y014080D01*
X015984Y014035D01*
X015984Y013921D02*
X016029Y013876D01*
X016029Y013785D01*
X015984Y013740D01*
X015804Y013740D01*
X015759Y013785D01*
X015759Y013876D01*
X015804Y013921D01*
X015759Y014035D02*
X015759Y014215D01*
X015759Y014035D02*
X015939Y014215D01*
X015984Y014215D01*
X016029Y013634D02*
X016029Y013544D01*
X016029Y013589D02*
X015759Y013589D01*
X015759Y013544D02*
X015759Y013634D01*
X015458Y013125D02*
X015458Y013007D01*
X015340Y013007D01*
X015307Y014535D02*
X015309Y014545D01*
X015314Y014553D01*
X015322Y014558D01*
X015332Y014560D01*
X015342Y014558D01*
X015350Y014553D01*
X015355Y014545D01*
X015357Y014535D01*
X015355Y014525D01*
X015350Y014517D01*
X015342Y014512D01*
X015332Y014510D01*
X015322Y014512D01*
X015314Y014517D01*
X015309Y014525D01*
X015307Y014535D01*
X015340Y014661D02*
X015458Y014543D01*
X013922Y014661D02*
X013804Y014661D01*
X013804Y014543D01*
X013804Y013125D02*
X013804Y013007D01*
X013922Y013007D01*
X011836Y014779D02*
X011836Y015173D01*
X011375Y015173D01*
X008780Y017287D02*
X008509Y017287D01*
X008509Y017467D01*
X008509Y017581D02*
X008509Y017761D01*
X008509Y017671D02*
X008780Y017671D01*
X008690Y017581D01*
X008735Y017876D02*
X008554Y017876D01*
X008735Y018056D01*
X008554Y018056D01*
X008509Y018011D01*
X008509Y017921D01*
X008554Y017876D01*
X008735Y017876D02*
X008780Y017921D01*
X008780Y018011D01*
X008735Y018056D01*
X008690Y018171D02*
X008780Y018261D01*
X008509Y018261D01*
X008509Y018171D02*
X008509Y018351D01*
X008347Y018306D02*
X008301Y018351D01*
X008256Y018351D01*
X008211Y018306D01*
X008166Y018351D01*
X008121Y018351D01*
X008076Y018306D01*
X008076Y018216D01*
X008121Y018171D01*
X008121Y018056D02*
X008076Y018011D01*
X008076Y017921D01*
X008121Y017876D01*
X008301Y018056D01*
X008121Y018056D01*
X008121Y017876D02*
X008301Y017876D01*
X008347Y017921D01*
X008347Y018011D01*
X008301Y018056D01*
X008301Y018171D02*
X008347Y018216D01*
X008347Y018306D01*
X008211Y018306D02*
X008211Y018261D01*
X008076Y017761D02*
X008076Y017581D01*
X008076Y017671D02*
X008347Y017671D01*
X008256Y017581D01*
X008076Y017467D02*
X008076Y017287D01*
X008347Y017287D01*
X006887Y017688D02*
X006797Y017688D01*
X006842Y017688D02*
X006842Y017958D01*
X006887Y017958D02*
X006797Y017958D01*
X006690Y017913D02*
X006690Y017733D01*
X006645Y017688D01*
X006555Y017688D01*
X006510Y017733D01*
X006510Y017913D01*
X006555Y017958D01*
X006645Y017958D01*
X006690Y017913D01*
X006396Y017958D02*
X006396Y017688D01*
X006396Y017778D02*
X006260Y017778D01*
X006215Y017823D01*
X006215Y017913D01*
X006260Y017958D01*
X006396Y017958D01*
X006306Y017778D02*
X006215Y017688D01*
X006101Y017688D02*
X005921Y017688D01*
X005806Y017688D02*
X005806Y017958D01*
X005626Y017958D01*
X005716Y017823D02*
X005806Y017823D01*
X005921Y017958D02*
X006101Y017958D01*
X006101Y017688D01*
X006101Y017823D02*
X006011Y017823D01*
X005966Y018688D02*
X006056Y018688D01*
X006101Y018733D01*
X006056Y018823D02*
X005966Y018823D01*
X005921Y018778D01*
X005921Y018733D01*
X005966Y018688D01*
X006056Y018823D02*
X006101Y018868D01*
X006101Y018913D01*
X006056Y018958D01*
X005966Y018958D01*
X005921Y018913D01*
X005806Y018958D02*
X005626Y018958D01*
X005716Y018958D02*
X005716Y018688D01*
X006215Y018688D02*
X006306Y018778D01*
X006260Y018778D02*
X006396Y018778D01*
X006396Y018688D02*
X006396Y018958D01*
X006260Y018958D01*
X006215Y018913D01*
X006215Y018823D01*
X006260Y018778D01*
X005791Y019490D02*
X005836Y019535D01*
X005836Y019625D01*
X005791Y019670D01*
X005746Y019670D01*
X005701Y019625D01*
X005656Y019670D01*
X005611Y019670D01*
X005566Y019625D01*
X005566Y019535D01*
X005611Y019490D01*
X005701Y019580D02*
X005701Y019625D01*
X005656Y019784D02*
X005566Y019874D01*
X005656Y019965D01*
X005836Y019965D01*
X005791Y020079D02*
X005836Y020124D01*
X005836Y020214D01*
X005791Y020259D01*
X005746Y020259D01*
X005701Y020214D01*
X005656Y020259D01*
X005611Y020259D01*
X005566Y020214D01*
X005566Y020124D01*
X005611Y020079D01*
X005701Y020169D02*
X005701Y020214D01*
X005701Y020590D02*
X005746Y020680D01*
X005746Y020725D01*
X005701Y020770D01*
X005611Y020770D01*
X005566Y020725D01*
X005566Y020635D01*
X005611Y020590D01*
X005701Y020590D02*
X005836Y020590D01*
X005836Y020770D01*
X005836Y020884D02*
X005656Y020884D01*
X005566Y020974D01*
X005656Y021065D01*
X005836Y021065D01*
X005791Y021179D02*
X005611Y021179D01*
X005791Y021359D01*
X005611Y021359D01*
X005566Y021314D01*
X005566Y021224D01*
X005611Y021179D01*
X005791Y021179D02*
X005836Y021224D01*
X005836Y021314D01*
X005791Y021359D01*
X005791Y021862D02*
X005611Y021862D01*
X005566Y021907D01*
X005566Y021997D01*
X005611Y022042D01*
X005701Y022042D01*
X005701Y021952D01*
X005791Y022042D02*
X005836Y021997D01*
X005836Y021907D01*
X005791Y021862D01*
X005836Y022156D02*
X005566Y022156D01*
X005566Y022337D02*
X005836Y022337D01*
X005836Y022451D02*
X005836Y022586D01*
X005791Y022631D01*
X005611Y022631D01*
X005566Y022586D01*
X005566Y022451D01*
X005836Y022451D01*
X005566Y022337D02*
X005836Y022156D01*
X005836Y023440D02*
X005656Y023440D01*
X005566Y023530D01*
X005656Y023620D01*
X005836Y023620D01*
X005836Y023734D02*
X005836Y023824D01*
X005836Y023779D02*
X005566Y023779D01*
X005566Y023734D02*
X005566Y023824D01*
X005566Y023931D02*
X005836Y023931D01*
X005566Y024111D01*
X005836Y024111D01*
X006113Y024528D02*
X006383Y024528D01*
X006383Y024663D01*
X006338Y024708D01*
X006248Y024708D01*
X006203Y024663D01*
X006203Y024528D01*
X006248Y024823D02*
X006158Y024823D01*
X006113Y024868D01*
X006113Y024958D01*
X006158Y025003D01*
X006248Y025003D01*
X006293Y024958D01*
X006293Y024868D01*
X006248Y024823D01*
X006293Y025118D02*
X006158Y025118D01*
X006113Y025163D01*
X006158Y025208D01*
X006113Y025253D01*
X006158Y025298D01*
X006293Y025298D01*
X006248Y025412D02*
X006293Y025457D01*
X006293Y025547D01*
X006248Y025592D01*
X006203Y025592D01*
X006203Y025412D01*
X006158Y025412D02*
X006248Y025412D01*
X006158Y025412D02*
X006113Y025457D01*
X006113Y025547D01*
X006113Y025707D02*
X006293Y025707D01*
X006293Y025797D02*
X006293Y025842D01*
X006293Y025797D02*
X006203Y025707D01*
X006248Y025952D02*
X006248Y026133D01*
X006203Y026247D02*
X006203Y026382D01*
X006248Y026427D01*
X006338Y026427D01*
X006383Y026382D01*
X006383Y026247D01*
X006113Y026247D01*
X006158Y026542D02*
X006113Y026587D01*
X006113Y026677D01*
X006158Y026722D01*
X006338Y026722D01*
X006383Y026677D01*
X006383Y026587D01*
X006338Y026542D01*
X006158Y026542D01*
X006113Y026836D02*
X006113Y026971D01*
X006158Y027016D01*
X006338Y027016D01*
X006383Y026971D01*
X006383Y026836D01*
X006113Y026836D01*
X005836Y026748D02*
X005746Y026838D01*
X005566Y026838D01*
X005566Y026952D02*
X005566Y027133D01*
X005566Y027042D02*
X005836Y027042D01*
X005746Y026952D01*
X005701Y026838D02*
X005701Y026658D01*
X005746Y026658D02*
X005566Y026658D01*
X005746Y026658D02*
X005836Y026748D01*
X005791Y026133D02*
X005611Y026133D01*
X005566Y026088D01*
X005566Y025997D01*
X005611Y025952D01*
X005791Y026133D01*
X005836Y026088D01*
X005836Y025997D01*
X005791Y025952D01*
X005611Y025952D01*
X005566Y025838D02*
X005746Y025838D01*
X005836Y025748D01*
X005746Y025658D01*
X005566Y025658D01*
X005701Y025658D02*
X005701Y025838D01*
X005701Y027658D02*
X005701Y027838D01*
X005746Y027838D02*
X005566Y027838D01*
X005566Y027952D02*
X005746Y028133D01*
X005791Y028133D01*
X005836Y028088D01*
X005836Y027997D01*
X005791Y027952D01*
X005746Y027838D02*
X005836Y027748D01*
X005746Y027658D01*
X005566Y027658D01*
X005566Y027952D02*
X005566Y028133D01*
X005566Y028658D02*
X005746Y028658D01*
X005836Y028748D01*
X005746Y028838D01*
X005566Y028838D01*
X005611Y028952D02*
X005566Y028997D01*
X005566Y029088D01*
X005611Y029133D01*
X005656Y029133D01*
X005701Y029088D01*
X005701Y029042D01*
X005701Y029088D02*
X005746Y029133D01*
X005791Y029133D01*
X005836Y029088D01*
X005836Y028997D01*
X005791Y028952D01*
X005701Y028838D02*
X005701Y028658D01*
X005701Y029658D02*
X005701Y029838D01*
X005746Y029838D02*
X005566Y029838D01*
X005701Y029952D02*
X005701Y030133D01*
X005566Y030088D02*
X005836Y030088D01*
X005701Y029952D01*
X005746Y029838D02*
X005836Y029748D01*
X005746Y029658D01*
X005566Y029658D01*
X005566Y030658D02*
X005746Y030658D01*
X005836Y030748D01*
X005746Y030838D01*
X005566Y030838D01*
X005611Y030952D02*
X005566Y030997D01*
X005566Y031088D01*
X005611Y031133D01*
X005701Y031133D01*
X005746Y031088D01*
X005746Y031042D01*
X005701Y030952D01*
X005836Y030952D01*
X005836Y031133D01*
X005701Y030838D02*
X005701Y030658D01*
X005734Y031652D02*
X005779Y031697D01*
X005599Y031878D01*
X005599Y031697D01*
X005644Y031652D01*
X005734Y031652D01*
X005779Y031697D02*
X005779Y031878D01*
X005734Y031923D01*
X005644Y031923D01*
X005599Y031878D01*
X005893Y031878D02*
X005938Y031923D01*
X006028Y031923D01*
X006073Y031878D01*
X006073Y031697D01*
X006028Y031652D01*
X005938Y031652D01*
X005893Y031697D01*
X006188Y031652D02*
X006188Y031832D01*
X006278Y031923D01*
X006368Y031832D01*
X006368Y031652D01*
X006483Y031697D02*
X006528Y031652D01*
X006663Y031652D01*
X006663Y031923D01*
X006528Y031923D01*
X006483Y031878D01*
X006483Y031697D01*
X006368Y031787D02*
X006188Y031787D01*
X006188Y032652D02*
X006188Y032832D01*
X006278Y032923D01*
X006368Y032832D01*
X006368Y032652D01*
X006483Y032697D02*
X006483Y032878D01*
X006528Y032923D01*
X006663Y032923D01*
X006663Y032652D01*
X006528Y032652D01*
X006483Y032697D01*
X006368Y032787D02*
X006188Y032787D01*
X006073Y032697D02*
X006028Y032652D01*
X005938Y032652D01*
X005893Y032697D01*
X005779Y032652D02*
X005599Y032652D01*
X005689Y032652D02*
X005689Y032923D01*
X005779Y032832D01*
X005893Y032878D02*
X005938Y032923D01*
X006028Y032923D01*
X006073Y032878D01*
X006073Y032697D01*
X008790Y032733D02*
X008790Y032868D01*
X008835Y032913D01*
X009015Y032913D01*
X009060Y032868D01*
X009060Y032733D01*
X008790Y032733D01*
X008835Y032618D02*
X008790Y032573D01*
X008790Y032483D01*
X008835Y032438D01*
X008925Y032438D02*
X008970Y032528D01*
X008970Y032573D01*
X008925Y032618D01*
X008835Y032618D01*
X008925Y032438D02*
X009060Y032438D01*
X009060Y032618D01*
X008925Y032324D02*
X008925Y032144D01*
X009060Y032279D01*
X008790Y032279D01*
X008790Y031939D02*
X009060Y031939D01*
X009060Y031849D02*
X009060Y032029D01*
X009223Y032072D02*
X009223Y032162D01*
X009268Y032207D01*
X009313Y032207D01*
X009358Y032162D01*
X009358Y032027D01*
X009268Y032027D01*
X009223Y032072D01*
X009358Y032027D02*
X009448Y032117D01*
X009493Y032207D01*
X009448Y031913D02*
X009493Y031868D01*
X009493Y031778D01*
X009448Y031733D01*
X009268Y031733D01*
X009223Y031778D01*
X009223Y031868D01*
X009268Y031913D01*
X009223Y031626D02*
X009223Y031536D01*
X009223Y031581D02*
X009493Y031581D01*
X009493Y031536D02*
X009493Y031626D01*
X009060Y031644D02*
X008970Y031734D01*
X008790Y031734D01*
X008925Y031734D02*
X008925Y031554D01*
X008970Y031554D02*
X009060Y031644D01*
X008970Y031554D02*
X008790Y031554D01*
X008970Y031149D02*
X008970Y031104D01*
X008880Y031014D01*
X008790Y031014D02*
X008970Y031014D01*
X008925Y030900D02*
X008970Y030854D01*
X008970Y030764D01*
X008925Y030719D01*
X008835Y030719D01*
X008790Y030764D01*
X008790Y030854D01*
X008835Y030900D01*
X008925Y030900D01*
X008790Y030310D02*
X008790Y030130D01*
X009060Y030130D01*
X009060Y030016D02*
X009060Y029835D01*
X008790Y029835D01*
X008835Y029721D02*
X008790Y029676D01*
X008790Y029586D01*
X008835Y029541D01*
X008925Y029541D02*
X008970Y029631D01*
X008970Y029676D01*
X008925Y029721D01*
X008835Y029721D01*
X008925Y029835D02*
X008925Y029925D01*
X009060Y029721D02*
X009060Y029541D01*
X008925Y029541D01*
X008970Y029426D02*
X009015Y029426D01*
X009060Y029381D01*
X009060Y029291D01*
X009015Y029246D01*
X009015Y029132D02*
X009060Y029087D01*
X009060Y028996D01*
X009015Y028951D01*
X008970Y028951D01*
X008925Y028996D01*
X008925Y029087D01*
X008880Y029132D01*
X008835Y029132D01*
X008790Y029087D01*
X008790Y028996D01*
X008835Y028951D01*
X008790Y029246D02*
X008970Y029426D01*
X008790Y029426D02*
X008790Y029246D01*
X009223Y029269D02*
X009223Y029179D01*
X009268Y029134D01*
X009448Y029134D01*
X009493Y029179D01*
X009493Y029269D01*
X009448Y029314D01*
X009493Y029429D02*
X009358Y029429D01*
X009403Y029519D01*
X009403Y029564D01*
X009358Y029609D01*
X009268Y029609D01*
X009223Y029564D01*
X009223Y029474D01*
X009268Y029429D01*
X009268Y029314D02*
X009223Y029269D01*
X009223Y029028D02*
X009223Y028938D01*
X009223Y028983D02*
X009493Y028983D01*
X009493Y028938D02*
X009493Y029028D01*
X009493Y029429D02*
X009493Y029609D01*
X010379Y028952D02*
X010379Y028558D01*
X010379Y028952D02*
X010773Y028952D01*
X012694Y029928D02*
X012739Y029883D01*
X012829Y029883D01*
X012874Y029928D01*
X012874Y029973D01*
X012829Y030018D01*
X012739Y030018D01*
X012694Y029973D01*
X012694Y029928D01*
X012739Y030018D02*
X012694Y030063D01*
X012694Y030108D01*
X012739Y030153D01*
X012829Y030153D01*
X012874Y030108D01*
X012874Y030063D01*
X012829Y030018D01*
X009060Y033027D02*
X009060Y033163D01*
X009015Y033208D01*
X008970Y033208D01*
X008925Y033163D01*
X008925Y033027D01*
X008790Y033027D02*
X009060Y033027D01*
X008925Y033163D02*
X008880Y033208D01*
X008835Y033208D01*
X008790Y033163D01*
X008790Y033027D01*
X008759Y026234D02*
X008939Y026234D01*
X008939Y026099D01*
X008849Y026144D01*
X008804Y026144D01*
X008759Y026099D01*
X008759Y026009D01*
X008804Y025964D01*
X008894Y025964D01*
X008939Y026009D01*
X008644Y026054D02*
X008554Y025964D01*
X008464Y026054D01*
X008464Y026234D01*
X008350Y026189D02*
X008305Y026234D01*
X008215Y026234D01*
X008169Y026189D01*
X008350Y026009D01*
X008305Y025964D01*
X008215Y025964D01*
X008169Y026009D01*
X008169Y026189D01*
X008350Y026189D02*
X008350Y026009D01*
X008644Y026054D02*
X008644Y026234D01*
X008644Y025234D02*
X008464Y024964D01*
X008464Y025234D01*
X008350Y025234D02*
X008215Y025234D01*
X008169Y025189D01*
X008169Y025009D01*
X008215Y024964D01*
X008350Y024964D01*
X008350Y025234D01*
X008644Y025234D02*
X008644Y024964D01*
X008759Y025009D02*
X008759Y025099D01*
X008849Y025099D01*
X008939Y025009D02*
X008894Y024964D01*
X008804Y024964D01*
X008759Y025009D01*
X008939Y025009D02*
X008939Y025189D01*
X008894Y025234D01*
X008804Y025234D01*
X008759Y025189D01*
X008804Y024234D02*
X008759Y024189D01*
X008759Y024144D01*
X008804Y024099D01*
X008759Y024054D01*
X008759Y024009D01*
X008804Y023964D01*
X008894Y023964D01*
X008939Y024009D01*
X008849Y024099D02*
X008804Y024099D01*
X008804Y024234D02*
X008894Y024234D01*
X008939Y024189D01*
X008644Y024234D02*
X008644Y024054D01*
X008554Y023964D01*
X008464Y024054D01*
X008464Y024234D01*
X008350Y024189D02*
X008305Y024234D01*
X008215Y024234D01*
X008169Y024189D01*
X008169Y024144D01*
X008215Y024099D01*
X008169Y024054D01*
X008169Y024009D01*
X008215Y023964D01*
X008305Y023964D01*
X008350Y024009D01*
X008260Y024099D02*
X008215Y024099D01*
X010379Y021472D02*
X010379Y021078D01*
X010773Y021078D01*
X014597Y018307D02*
X014597Y017707D01*
X015234Y018465D02*
X015414Y018465D01*
X015234Y018645D01*
X015234Y018690D01*
X015279Y018735D01*
X015369Y018735D01*
X015414Y018690D01*
X015528Y018735D02*
X015709Y018465D01*
X015528Y018465D02*
X015709Y018735D01*
X006772Y016216D02*
X006681Y016216D01*
X006726Y016216D02*
X006726Y015946D01*
X006681Y015946D02*
X006772Y015946D01*
X006575Y015991D02*
X006530Y015946D01*
X006440Y015946D01*
X006395Y015991D01*
X006280Y015991D02*
X006235Y015946D01*
X006145Y015946D01*
X006100Y015991D01*
X006100Y016036D01*
X006145Y016081D01*
X006190Y016081D01*
X006145Y016081D02*
X006100Y016126D01*
X006100Y016171D01*
X006145Y016216D01*
X006235Y016216D01*
X006280Y016171D01*
X006395Y016171D02*
X006440Y016216D01*
X006530Y016216D01*
X006575Y016171D01*
X006575Y015991D01*
X005911Y015173D02*
X005497Y015173D01*
X005497Y014385D01*
X005497Y014070D02*
X005497Y010015D01*
X005497Y009700D02*
X005497Y008913D01*
X005911Y008913D01*
X005315Y009022D02*
X005270Y008977D01*
X005180Y008977D01*
X005135Y009022D01*
X005135Y009067D01*
X005180Y009112D01*
X005270Y009112D01*
X005315Y009157D01*
X005315Y009202D01*
X005270Y009247D01*
X005180Y009247D01*
X005135Y009202D01*
X005020Y009157D02*
X004885Y009157D01*
X004840Y009112D01*
X004840Y009022D01*
X004885Y008977D01*
X005020Y008977D01*
X005020Y008887D02*
X005020Y009157D01*
X004975Y009449D02*
X004840Y009449D01*
X004840Y009585D01*
X004885Y009630D01*
X004975Y009630D01*
X004975Y009540D02*
X004840Y009540D01*
X004726Y009585D02*
X004680Y009630D01*
X004545Y009630D01*
X004545Y009720D02*
X004545Y009449D01*
X004680Y009449D01*
X004726Y009495D01*
X004726Y009585D01*
X004975Y009540D02*
X005020Y009495D01*
X004975Y009449D01*
X005135Y009449D02*
X005225Y009540D01*
X005180Y009540D02*
X005315Y009540D01*
X005315Y009449D02*
X005315Y009720D01*
X005180Y009720D01*
X005135Y009675D01*
X005135Y009585D01*
X005180Y009540D01*
X005498Y009700D02*
X005496Y009739D01*
X005490Y009777D01*
X005481Y009814D01*
X005468Y009851D01*
X005451Y009886D01*
X005432Y009919D01*
X005409Y009950D01*
X005383Y009979D01*
X005354Y010005D01*
X005323Y010028D01*
X005290Y010047D01*
X005255Y010064D01*
X005218Y010077D01*
X005181Y010086D01*
X005143Y010092D01*
X005104Y010094D01*
X001419Y010094D01*
X001419Y013991D01*
X005104Y013991D01*
X005143Y013993D01*
X005181Y013999D01*
X005218Y014008D01*
X005255Y014021D01*
X005290Y014038D01*
X005323Y014057D01*
X005354Y014080D01*
X005383Y014106D01*
X005409Y014135D01*
X005432Y014166D01*
X005451Y014199D01*
X005468Y014234D01*
X005481Y014271D01*
X005490Y014308D01*
X005496Y014346D01*
X005498Y014385D01*
X005157Y015709D02*
X005157Y015889D01*
X005067Y015980D01*
X004977Y015889D01*
X004977Y015709D01*
X004863Y015709D02*
X004863Y015980D01*
X004683Y015709D01*
X004683Y015980D01*
X004568Y015980D02*
X004388Y015980D01*
X004478Y015980D02*
X004478Y015709D01*
X004977Y015844D02*
X005157Y015844D01*
X005656Y019784D02*
X005836Y019784D01*
X004386Y009765D02*
X004386Y009720D01*
X004386Y009630D02*
X004386Y009449D01*
X004431Y009449D02*
X004341Y009449D01*
X004234Y009495D02*
X004189Y009449D01*
X004099Y009449D01*
X004054Y009495D01*
X004054Y009585D01*
X004099Y009630D01*
X004189Y009630D01*
X004234Y009585D01*
X004234Y009495D01*
X004386Y009630D02*
X004431Y009630D01*
X004431Y009157D02*
X004296Y009157D01*
X004251Y009112D01*
X004251Y008977D01*
X004136Y008977D02*
X004001Y008977D01*
X003956Y009022D01*
X004001Y009067D01*
X004091Y009067D01*
X004136Y009112D01*
X004091Y009157D01*
X003956Y009157D01*
X003842Y009112D02*
X003842Y009022D01*
X003797Y008977D01*
X003706Y008977D01*
X003661Y009022D01*
X003661Y009112D01*
X003706Y009157D01*
X003797Y009157D01*
X003842Y009112D01*
X003547Y009067D02*
X003457Y009157D01*
X003412Y009157D01*
X003301Y009112D02*
X003256Y009157D01*
X003166Y009157D01*
X003121Y009112D01*
X003121Y009067D01*
X003301Y009067D01*
X003301Y009022D02*
X003301Y009112D01*
X003301Y009022D02*
X003256Y008977D01*
X003166Y008977D01*
X003007Y009022D02*
X003007Y009112D01*
X002962Y009157D01*
X002827Y009157D01*
X002827Y009247D02*
X002827Y008977D01*
X002962Y008977D01*
X003007Y009022D01*
X003547Y008977D02*
X003547Y009157D01*
X004431Y009157D02*
X004431Y008977D01*
X004545Y009022D02*
X004545Y009112D01*
X004590Y009157D01*
X004680Y009157D01*
X004726Y009112D01*
X004726Y009022D01*
X004680Y008977D01*
X004590Y008977D01*
X004545Y009022D01*
X002417Y008977D02*
X002282Y008977D01*
X002237Y009022D01*
X002237Y009067D01*
X002282Y009112D01*
X002417Y009112D01*
X002282Y009112D02*
X002237Y009157D01*
X002237Y009202D01*
X002282Y009247D01*
X002417Y009247D01*
X002417Y008977D01*
X002123Y009022D02*
X002078Y008977D01*
X001943Y008977D01*
X001943Y008932D02*
X001988Y008887D01*
X002033Y008887D01*
X001943Y008932D02*
X001943Y009157D01*
X002123Y009157D02*
X002123Y009022D01*
X003048Y039213D02*
X003003Y039258D01*
X003003Y039303D01*
X003048Y039348D01*
X003273Y039348D01*
X003273Y039303D02*
X003273Y039393D01*
X003273Y039508D02*
X003138Y039508D01*
X003183Y039598D01*
X003183Y039643D01*
X003138Y039688D01*
X003048Y039688D01*
X003003Y039643D01*
X003003Y039553D01*
X003048Y039508D01*
X003273Y039508D02*
X003273Y039688D01*
D11*
X006772Y032718D02*
X006772Y030708D01*
X006772Y031409D02*
X006772Y029399D01*
X008632Y029399D02*
X008632Y031409D01*
X008632Y030708D02*
X008632Y032718D01*
X010015Y032811D02*
X010072Y032754D01*
X010186Y032754D01*
X010242Y032811D01*
X010242Y032924D01*
X010186Y032981D01*
X010129Y032981D01*
X010129Y032754D01*
X010015Y032811D02*
X010015Y032924D01*
X010072Y033179D02*
X010015Y033236D01*
X010072Y033179D02*
X010299Y033179D01*
X010242Y033122D02*
X010242Y033236D01*
X010541Y033083D02*
X010541Y032583D01*
X010791Y032333D01*
X012291Y032333D01*
X012541Y032583D01*
X012541Y033083D01*
X012291Y033333D01*
X010791Y033333D01*
X010541Y033583D01*
X010541Y034083D01*
X010791Y034333D01*
X012291Y034333D01*
X012541Y034583D01*
X012541Y035083D01*
X012291Y035333D01*
X010791Y035333D01*
X010541Y035583D01*
X010541Y036083D01*
X010791Y036333D01*
X012291Y036333D01*
X012541Y036583D01*
X012541Y037083D01*
X012291Y037333D01*
X010791Y037333D01*
X010541Y037083D01*
X010541Y036583D01*
X010791Y036333D01*
X010791Y037333D02*
X010541Y037583D01*
X010541Y038083D01*
X010791Y038333D01*
X012291Y038333D01*
X012541Y038083D01*
X012541Y037583D01*
X012291Y037333D01*
X012291Y036333D02*
X012541Y036083D01*
X012541Y035583D01*
X012291Y035333D01*
X012291Y034333D02*
X012541Y034083D01*
X012541Y033583D01*
X012291Y033333D01*
X012291Y032333D02*
X012541Y032083D01*
X012541Y031583D01*
X012291Y031333D01*
X010791Y031333D01*
X010541Y031583D01*
X010541Y032083D01*
X010791Y032333D01*
X010242Y032386D02*
X010242Y032556D01*
X010186Y032612D01*
X010015Y032612D01*
X010015Y032386D02*
X010242Y032386D01*
X010242Y032249D02*
X010242Y032192D01*
X010129Y032079D01*
X010242Y032079D02*
X010015Y032079D01*
X010129Y031937D02*
X010129Y031710D01*
X010186Y031710D02*
X010242Y031767D01*
X010242Y031880D01*
X010186Y031937D01*
X010129Y031937D01*
X010015Y031880D02*
X010015Y031767D01*
X010072Y031710D01*
X010186Y031710D01*
X010186Y031569D02*
X010015Y031569D01*
X010186Y031569D02*
X010242Y031512D01*
X010242Y031399D01*
X010186Y031342D01*
X010242Y031210D02*
X010242Y031096D01*
X010299Y031153D02*
X010072Y031153D01*
X010015Y031210D01*
X010015Y031342D02*
X010356Y031342D01*
X010541Y031083D02*
X010541Y030583D01*
X010791Y030333D01*
X012291Y030333D01*
X012541Y030583D01*
X012541Y031083D01*
X012291Y031333D01*
X013165Y030547D02*
X013165Y030321D01*
X013165Y030434D02*
X013505Y030434D01*
X013392Y030321D01*
X013541Y030583D02*
X013791Y030333D01*
X014291Y030333D01*
X014541Y030583D01*
X014791Y030333D01*
X015291Y030333D01*
X015541Y030583D01*
X015791Y030333D01*
X016291Y030333D01*
X016541Y030583D01*
X016541Y032083D01*
X016291Y032333D01*
X015791Y032333D01*
X015541Y032083D01*
X015291Y032333D01*
X014791Y032333D01*
X014541Y032083D01*
X014291Y032333D01*
X013791Y032333D01*
X013541Y032083D01*
X013541Y030583D01*
X010791Y031333D02*
X010541Y031083D01*
X010356Y030955D02*
X010356Y030728D01*
X010015Y030728D01*
X010015Y030955D01*
X010186Y030842D02*
X010186Y030728D01*
X010244Y030469D02*
X010244Y030242D01*
X010244Y030355D02*
X010584Y030355D01*
X010471Y030242D01*
X010541Y033083D02*
X010791Y033333D01*
X010791Y034333D02*
X010541Y034583D01*
X010541Y035083D01*
X010791Y035333D01*
X016630Y033937D02*
X016630Y033337D01*
X016632Y033320D01*
X016636Y033303D01*
X016643Y033287D01*
X016653Y033273D01*
X016666Y033260D01*
X016680Y033250D01*
X016696Y033243D01*
X016713Y033239D01*
X016730Y033237D01*
X017730Y033237D01*
X017747Y033239D01*
X017764Y033243D01*
X017780Y033250D01*
X017794Y033260D01*
X017807Y033273D01*
X017817Y033287D01*
X017824Y033303D01*
X017828Y033320D01*
X017830Y033337D01*
X017830Y033937D01*
X017828Y033954D01*
X017824Y033971D01*
X017817Y033987D01*
X017807Y034001D01*
X017794Y034014D01*
X017780Y034024D01*
X017764Y034031D01*
X017747Y034035D01*
X017730Y034037D01*
X016730Y034037D01*
X016713Y034035D01*
X016696Y034031D01*
X016680Y034024D01*
X016666Y034014D01*
X016653Y034001D01*
X016643Y033987D01*
X016636Y033971D01*
X016632Y033954D01*
X016630Y033937D01*
X016805Y033122D02*
X016748Y033065D01*
X016748Y033008D01*
X016805Y032951D01*
X016748Y032895D01*
X016748Y032838D01*
X016805Y032781D01*
X016918Y032781D01*
X016975Y032838D01*
X016861Y032951D02*
X016805Y032951D01*
X016805Y033122D02*
X016918Y033122D01*
X016975Y033065D01*
X017116Y033122D02*
X017230Y033122D01*
X017173Y033122D02*
X017173Y032838D01*
X017230Y032781D01*
X017286Y032781D01*
X017343Y032838D01*
X017485Y032838D02*
X017541Y032781D01*
X017655Y032781D01*
X017711Y032838D01*
X017655Y032951D02*
X017541Y032951D01*
X017485Y032895D01*
X017485Y032838D01*
X017655Y032951D02*
X017711Y033008D01*
X017711Y033065D01*
X017655Y033122D01*
X017541Y033122D01*
X017485Y033065D01*
X018210Y033274D02*
X018210Y034000D01*
X018572Y034000D01*
X018572Y033274D01*
X018210Y033274D01*
X017009Y031761D02*
X017009Y031648D01*
X017009Y031705D02*
X016669Y031705D01*
X016669Y031761D02*
X016669Y031648D01*
X016839Y031506D02*
X016782Y031450D01*
X016782Y031279D01*
X016669Y031279D02*
X017009Y031279D01*
X017009Y031450D01*
X016953Y031506D01*
X016839Y031506D01*
X016782Y031138D02*
X016726Y031138D01*
X016669Y031081D01*
X016669Y030968D01*
X016726Y030911D01*
X016839Y030968D02*
X016839Y031081D01*
X016782Y031138D01*
X016953Y031138D02*
X017009Y031081D01*
X017009Y030968D01*
X016953Y030911D01*
X016896Y030911D01*
X016839Y030968D01*
X017415Y037604D02*
X017358Y037661D01*
X017358Y037774D01*
X017415Y037831D01*
X017471Y037831D01*
X017528Y037774D01*
X017528Y037661D01*
X017585Y037604D01*
X017642Y037604D01*
X017698Y037661D01*
X017698Y037774D01*
X017642Y037831D01*
X017698Y038086D02*
X017698Y038199D01*
X017698Y038143D02*
X017415Y038143D01*
X017358Y038086D01*
X017358Y038029D01*
X017415Y037972D01*
X017415Y038341D02*
X017358Y038341D01*
X017415Y038341D02*
X017642Y038568D01*
X017698Y038568D01*
X017698Y038341D01*
X023874Y033712D02*
X023987Y033655D01*
X024101Y033542D01*
X023931Y033542D01*
X023874Y033485D01*
X023874Y033429D01*
X023931Y033372D01*
X024044Y033372D01*
X024101Y033429D01*
X024101Y033542D01*
X024242Y033712D02*
X024356Y033712D01*
X024299Y033712D02*
X024299Y033429D01*
X024356Y033372D01*
X024412Y033372D01*
X024469Y033429D01*
X024611Y033429D02*
X024667Y033372D01*
X024781Y033372D01*
X024837Y033429D01*
X024781Y033542D02*
X024667Y033542D01*
X024611Y033485D01*
X024611Y033429D01*
X024781Y033542D02*
X024837Y033599D01*
X024837Y033655D01*
X024781Y033712D01*
X024667Y033712D01*
X024611Y033655D01*
X025180Y034730D02*
X025237Y034787D01*
X025237Y035014D01*
X025293Y034957D02*
X025180Y034957D01*
X025435Y034900D02*
X025435Y034843D01*
X025662Y034843D01*
X025662Y034787D02*
X025662Y034900D01*
X025605Y034957D01*
X025491Y034957D01*
X025435Y034900D01*
X025491Y034730D02*
X025605Y034730D01*
X025662Y034787D01*
X025803Y034787D02*
X025860Y034843D01*
X025973Y034843D01*
X026030Y034900D01*
X025973Y034957D01*
X025803Y034957D01*
X025803Y034787D02*
X025860Y034730D01*
X026030Y034730D01*
X026171Y034843D02*
X026398Y034843D01*
X026398Y034787D02*
X026398Y034900D01*
X026341Y034957D01*
X026228Y034957D01*
X026171Y034900D01*
X026171Y034843D01*
X026228Y034730D02*
X026341Y034730D01*
X026398Y034787D01*
X026540Y034730D02*
X026653Y034843D01*
X026596Y034843D02*
X026767Y034843D01*
X026767Y034730D02*
X026767Y035070D01*
X026596Y035070D01*
X026540Y035014D01*
X026540Y034900D01*
X026596Y034843D01*
X026395Y031448D02*
X026452Y031392D01*
X026452Y031165D01*
X026395Y031108D01*
X026281Y031108D01*
X026225Y031165D01*
X026225Y031278D01*
X026338Y031278D01*
X026225Y031392D02*
X026281Y031448D01*
X026395Y031448D01*
X026083Y031448D02*
X025856Y031108D01*
X025856Y031448D01*
X025715Y031448D02*
X025715Y031108D01*
X025545Y031108D01*
X025488Y031165D01*
X025488Y031392D01*
X025545Y031448D01*
X025715Y031448D01*
X026083Y031448D02*
X026083Y031108D01*
X026083Y030448D02*
X025856Y030448D01*
X025970Y030448D02*
X025970Y030108D01*
X026225Y030165D02*
X026281Y030108D01*
X026395Y030108D01*
X026452Y030165D01*
X026452Y030392D01*
X026395Y030448D01*
X026281Y030448D01*
X026225Y030392D01*
X025715Y030392D02*
X025715Y030335D01*
X025658Y030278D01*
X025545Y030278D01*
X025488Y030221D01*
X025488Y030165D01*
X025545Y030108D01*
X025658Y030108D01*
X025715Y030165D01*
X025715Y030392D02*
X025658Y030448D01*
X025545Y030448D01*
X025488Y030392D01*
X025545Y029448D02*
X025488Y029392D01*
X025488Y029335D01*
X025545Y029278D01*
X025488Y029221D01*
X025488Y029165D01*
X025545Y029108D01*
X025658Y029108D01*
X025715Y029165D01*
X025856Y029221D02*
X025856Y029448D01*
X025715Y029392D02*
X025658Y029448D01*
X025545Y029448D01*
X025545Y029278D02*
X025601Y029278D01*
X025856Y029221D02*
X025970Y029108D01*
X026083Y029221D01*
X026083Y029448D01*
X026225Y029392D02*
X026225Y029335D01*
X026281Y029278D01*
X026225Y029221D01*
X026225Y029165D01*
X026281Y029108D01*
X026395Y029108D01*
X026452Y029165D01*
X026338Y029278D02*
X026281Y029278D01*
X026225Y029392D02*
X026281Y029448D01*
X026395Y029448D01*
X026452Y029392D01*
X026452Y028448D02*
X026281Y028448D01*
X026225Y028392D01*
X026225Y028278D01*
X026281Y028221D01*
X026452Y028221D01*
X026452Y028108D02*
X026452Y028448D01*
X026338Y028221D02*
X026225Y028108D01*
X026083Y028108D02*
X025856Y028448D01*
X026083Y028448D02*
X025856Y028108D01*
X025856Y027448D02*
X026083Y027108D01*
X025856Y027108D02*
X026083Y027448D01*
X026225Y027448D02*
X026452Y027448D01*
X026338Y027448D02*
X026338Y027108D01*
X026281Y026448D02*
X026452Y026448D01*
X026452Y026108D01*
X026281Y026108D01*
X026225Y026165D01*
X026225Y026392D01*
X026281Y026448D01*
X026083Y026448D02*
X025856Y026448D01*
X025970Y026448D02*
X025970Y026108D01*
X025715Y026108D02*
X025715Y026448D01*
X025545Y026448D01*
X025488Y026392D01*
X025488Y026278D01*
X025545Y026221D01*
X025715Y026221D01*
X025601Y026221D02*
X025488Y026108D01*
X026618Y022433D02*
X026732Y022433D01*
X026675Y022433D02*
X026675Y022149D01*
X026732Y022092D01*
X026789Y022092D01*
X026845Y022149D01*
X026477Y022319D02*
X026364Y022319D01*
X026420Y022376D02*
X026420Y022149D01*
X026364Y022092D01*
X026231Y022149D02*
X026175Y022206D01*
X026005Y022206D01*
X026005Y022262D02*
X026005Y022092D01*
X026175Y022092D01*
X026231Y022149D01*
X026175Y022319D02*
X026061Y022319D01*
X026005Y022262D01*
X025863Y022262D02*
X025863Y022149D01*
X025806Y022092D01*
X025636Y022092D01*
X025636Y022036D02*
X025636Y022319D01*
X025806Y022319D01*
X025863Y022262D01*
X025750Y021979D02*
X025693Y021979D01*
X025636Y022036D01*
X018459Y017323D02*
X018459Y016723D01*
X018457Y016706D01*
X018453Y016689D01*
X018446Y016673D01*
X018436Y016659D01*
X018423Y016646D01*
X018409Y016636D01*
X018393Y016629D01*
X018376Y016625D01*
X018359Y016623D01*
X017359Y016623D01*
X017342Y016625D01*
X017325Y016629D01*
X017309Y016636D01*
X017295Y016646D01*
X017282Y016659D01*
X017272Y016673D01*
X017265Y016689D01*
X017261Y016706D01*
X017259Y016723D01*
X017259Y017323D01*
X017261Y017340D01*
X017265Y017357D01*
X017272Y017373D01*
X017282Y017387D01*
X017295Y017400D01*
X017309Y017410D01*
X017325Y017417D01*
X017342Y017421D01*
X017359Y017423D01*
X018359Y017423D01*
X018376Y017421D01*
X018393Y017417D01*
X018409Y017410D01*
X018423Y017400D01*
X018436Y017387D01*
X018446Y017373D01*
X018453Y017357D01*
X018457Y017340D01*
X018459Y017323D01*
X018304Y016448D02*
X018361Y016392D01*
X018361Y016335D01*
X018304Y016278D01*
X018191Y016278D01*
X018134Y016221D01*
X018134Y016165D01*
X018191Y016108D01*
X018304Y016108D01*
X018361Y016165D01*
X018304Y016448D02*
X018191Y016448D01*
X018134Y016392D01*
X017879Y016448D02*
X017766Y016448D01*
X017823Y016448D02*
X017823Y016165D01*
X017879Y016108D01*
X017936Y016108D01*
X017993Y016165D01*
X017624Y016165D02*
X017568Y016108D01*
X017454Y016108D01*
X017398Y016165D01*
X017398Y016278D01*
X017454Y016335D01*
X017511Y016335D01*
X017624Y016278D01*
X017624Y016448D01*
X017398Y016448D01*
X017599Y011795D02*
X017599Y011069D01*
X017962Y011069D01*
X017962Y011795D01*
X017599Y011795D01*
X017120Y011181D02*
X016394Y011181D01*
X016394Y010818D01*
X017120Y010818D01*
X017120Y011181D01*
X018784Y011067D02*
X019301Y011067D01*
X019301Y010670D01*
X019301Y010246D02*
X019301Y009829D01*
X018784Y009829D01*
X018781Y010276D02*
X018781Y010614D01*
X021418Y008488D02*
X021418Y007762D01*
X021781Y007762D01*
X021781Y008488D01*
X021418Y008488D01*
X022536Y006732D02*
X022536Y006369D01*
X023262Y006369D01*
X023262Y006732D01*
X022536Y006732D01*
X022678Y007250D02*
X023041Y007250D01*
X023041Y007977D01*
X022678Y007977D01*
X022678Y007250D01*
X024307Y006181D02*
X024307Y005818D01*
X025034Y005818D01*
X025034Y006181D01*
X024307Y006181D01*
X025040Y005299D02*
X025040Y004573D01*
X025403Y004573D01*
X025403Y005299D01*
X025040Y005299D01*
X024128Y003621D02*
X023402Y003621D01*
X023402Y003259D01*
X024128Y003259D01*
X024128Y003621D01*
X025190Y002472D02*
X025190Y002132D01*
X025134Y002302D02*
X025361Y002302D01*
X025190Y002472D01*
X025502Y002472D02*
X025615Y002472D01*
X025559Y002472D02*
X025559Y002188D01*
X025615Y002132D01*
X025672Y002132D01*
X025729Y002188D01*
X025870Y002188D02*
X025927Y002132D01*
X026040Y002132D01*
X026097Y002188D01*
X026040Y002302D02*
X025927Y002302D01*
X025870Y002245D01*
X025870Y002188D01*
X026040Y002302D02*
X026097Y002359D01*
X026097Y002415D01*
X026040Y002472D01*
X025927Y002472D01*
X025870Y002415D01*
X012175Y002959D02*
X012175Y003685D01*
X011812Y003685D01*
X011812Y002959D01*
X012175Y002959D01*
X011739Y005585D02*
X011739Y008225D01*
X010279Y008225D01*
X010279Y007595D01*
X010279Y006215D02*
X010279Y005585D01*
X011739Y005585D01*
X009852Y005541D02*
X009852Y005203D01*
X009849Y004750D02*
X009332Y004750D01*
X009332Y005147D01*
X009332Y005572D02*
X009332Y005988D01*
X009849Y005988D01*
X007954Y007562D02*
X007897Y007506D01*
X007841Y007506D01*
X007784Y007562D01*
X007784Y007676D01*
X007727Y007733D01*
X007671Y007733D01*
X007614Y007676D01*
X007614Y007562D01*
X007671Y007506D01*
X007954Y007562D02*
X007954Y007676D01*
X007897Y007733D01*
X007954Y007987D02*
X007954Y008101D01*
X007954Y008044D02*
X007671Y008044D01*
X007614Y007987D01*
X007614Y007931D01*
X007671Y007874D01*
X007614Y008242D02*
X007614Y008469D01*
X007614Y008356D02*
X007954Y008356D01*
X007841Y008242D01*
X006923Y006692D02*
X006197Y006692D01*
X006197Y006330D01*
X006923Y006330D01*
X006923Y006692D01*
X005749Y007523D02*
X005693Y007466D01*
X005636Y007466D01*
X005579Y007523D01*
X005579Y007636D01*
X005523Y007693D01*
X005466Y007693D01*
X005409Y007636D01*
X005409Y007523D01*
X005466Y007466D01*
X005749Y007523D02*
X005749Y007636D01*
X005693Y007693D01*
X005749Y007948D02*
X005749Y008061D01*
X005749Y008005D02*
X005466Y008005D01*
X005409Y007948D01*
X005409Y007891D01*
X005466Y007835D01*
X005409Y008203D02*
X005636Y008430D01*
X005693Y008430D01*
X005749Y008373D01*
X005749Y008260D01*
X005693Y008203D01*
X005409Y008203D02*
X005409Y008430D01*
X009764Y017840D02*
X010364Y017840D01*
X010381Y017842D01*
X010398Y017846D01*
X010414Y017853D01*
X010428Y017863D01*
X010441Y017876D01*
X010451Y017890D01*
X010458Y017906D01*
X010462Y017923D01*
X010464Y017940D01*
X010464Y018940D01*
X010462Y018957D01*
X010458Y018974D01*
X010451Y018990D01*
X010441Y019004D01*
X010428Y019017D01*
X010414Y019027D01*
X010398Y019034D01*
X010381Y019038D01*
X010364Y019040D01*
X009764Y019040D01*
X009747Y019038D01*
X009730Y019034D01*
X009714Y019027D01*
X009700Y019017D01*
X009687Y019004D01*
X009677Y018990D01*
X009670Y018974D01*
X009666Y018957D01*
X009664Y018940D01*
X009664Y017940D01*
X009666Y017923D01*
X009670Y017906D01*
X009677Y017890D01*
X009687Y017876D01*
X009700Y017863D01*
X009714Y017853D01*
X009730Y017846D01*
X009747Y017842D01*
X009764Y017840D01*
X004096Y017880D02*
X003756Y017880D01*
X003756Y018107D01*
X003756Y018248D02*
X003982Y018248D01*
X003869Y018248D02*
X003982Y018361D01*
X003982Y018418D01*
X003982Y018612D02*
X003982Y018725D01*
X003926Y018782D01*
X003756Y018782D01*
X003756Y018612D01*
X003812Y018555D01*
X003869Y018612D01*
X003869Y018782D01*
X003926Y018923D02*
X003982Y018980D01*
X003982Y019150D01*
X003869Y019093D02*
X003869Y018980D01*
X003926Y018923D01*
X003756Y018923D02*
X003756Y019093D01*
X003812Y019150D01*
X003869Y019093D01*
X003869Y019292D02*
X003869Y019518D01*
X003926Y019518D01*
X003982Y019462D01*
X003982Y019348D01*
X003926Y019292D01*
X003812Y019292D01*
X003756Y019348D01*
X003756Y019462D01*
X004096Y018107D02*
X004096Y017880D01*
X003926Y017880D02*
X003926Y017993D01*
D12*
X006177Y020468D02*
X006310Y020468D01*
X006244Y020468D02*
X006244Y020668D01*
X006310Y020602D01*
X006398Y020635D02*
X006531Y020501D01*
X006498Y020468D01*
X006431Y020468D01*
X006398Y020501D01*
X006398Y020635D01*
X006431Y020668D01*
X006498Y020668D01*
X006531Y020635D01*
X006531Y020501D01*
X006619Y020468D02*
X006752Y020468D01*
X006686Y020468D02*
X006686Y020668D01*
X006752Y020602D01*
X006840Y020635D02*
X006873Y020668D01*
X006940Y020668D01*
X006973Y020635D01*
X006973Y020501D01*
X006940Y020468D01*
X006873Y020468D01*
X006840Y020501D01*
X006958Y019212D02*
X006925Y019178D01*
X006925Y019145D01*
X006958Y019111D01*
X007025Y019111D01*
X007058Y019145D01*
X007058Y019178D01*
X007025Y019212D01*
X006958Y019212D01*
X006958Y019111D02*
X006925Y019078D01*
X006925Y019045D01*
X006958Y019011D01*
X007025Y019011D01*
X007058Y019045D01*
X007058Y019078D01*
X007025Y019111D01*
X007146Y019011D02*
X007279Y019011D01*
X007213Y019011D02*
X007213Y019212D01*
X007279Y019145D01*
X007367Y019011D02*
X007500Y019011D01*
X007434Y019011D02*
X007434Y019212D01*
X007500Y019145D01*
X007588Y019178D02*
X007621Y019212D01*
X007688Y019212D01*
X007721Y019178D01*
X007721Y019045D01*
X007688Y019011D01*
X007621Y019011D01*
X007588Y019045D01*
X007988Y018745D02*
X007988Y018612D01*
X008021Y018578D01*
X008088Y018578D01*
X008121Y018612D01*
X007988Y018745D01*
X008021Y018779D01*
X008088Y018779D01*
X008121Y018745D01*
X008121Y018612D01*
X008209Y018578D02*
X008342Y018578D01*
X008276Y018578D02*
X008276Y018779D01*
X008342Y018712D01*
X008430Y018578D02*
X008563Y018578D01*
X008497Y018578D02*
X008497Y018779D01*
X008563Y018712D01*
X008651Y018745D02*
X008684Y018779D01*
X008751Y018779D01*
X008784Y018745D01*
X008784Y018612D01*
X008751Y018578D01*
X008684Y018578D01*
X008651Y018612D01*
X009317Y018609D02*
X009317Y018542D01*
X009350Y018508D01*
X009417Y018508D01*
X009450Y018542D01*
X009450Y018609D01*
X009417Y018642D01*
X009383Y018642D01*
X009383Y018508D01*
X009417Y018421D02*
X009383Y018388D01*
X009383Y018288D01*
X009383Y018354D02*
X009317Y018421D01*
X009417Y018421D02*
X009483Y018421D01*
X009517Y018388D01*
X009517Y018288D01*
X009317Y018288D01*
X009317Y018200D02*
X009450Y018200D01*
X009517Y018133D01*
X009450Y018067D01*
X009317Y018067D01*
X009417Y018067D02*
X009417Y018200D01*
X009417Y018729D02*
X009417Y018796D01*
X009483Y018763D02*
X009317Y018763D01*
X009483Y018763D02*
X009517Y018796D01*
X010616Y018772D02*
X010649Y018738D01*
X010616Y018772D02*
X010616Y018838D01*
X010649Y018872D01*
X010682Y018872D01*
X010716Y018838D01*
X010716Y018805D01*
X010716Y018838D02*
X010749Y018872D01*
X010783Y018872D01*
X010816Y018838D01*
X010816Y018772D01*
X010783Y018738D01*
X010816Y018959D02*
X010682Y018959D01*
X010616Y019026D01*
X010682Y019093D01*
X010816Y019093D01*
X010783Y019180D02*
X010816Y019214D01*
X010816Y019280D01*
X010783Y019314D01*
X010749Y019314D01*
X010716Y019280D01*
X010682Y019314D01*
X010649Y019314D01*
X010616Y019280D01*
X010616Y019214D01*
X010649Y019180D01*
X010716Y019247D02*
X010716Y019280D01*
X011334Y019342D02*
X011334Y019375D01*
X011368Y019408D01*
X011435Y019408D01*
X011468Y019375D01*
X011334Y019342D02*
X011468Y019208D01*
X011334Y019208D01*
X011555Y019208D02*
X011689Y019208D01*
X011622Y019208D02*
X011622Y019408D01*
X011689Y019342D01*
X011776Y019208D02*
X011910Y019208D01*
X011843Y019208D02*
X011843Y019408D01*
X011910Y019342D01*
X011997Y019375D02*
X012031Y019408D01*
X012097Y019408D01*
X012131Y019375D01*
X012131Y019242D01*
X012097Y019208D01*
X012031Y019208D01*
X011997Y019242D01*
X011968Y019563D02*
X011935Y019596D01*
X011935Y019663D01*
X011968Y019696D01*
X011935Y019784D02*
X011935Y019917D01*
X011935Y019850D02*
X012135Y019850D01*
X012068Y019784D01*
X012101Y019696D02*
X012135Y019663D01*
X012135Y019596D01*
X012101Y019563D01*
X011968Y019563D01*
X011968Y020005D02*
X012101Y020138D01*
X011968Y020138D01*
X011935Y020105D01*
X011935Y020038D01*
X011968Y020005D01*
X012101Y020005D01*
X012135Y020038D01*
X012135Y020105D01*
X012101Y020138D01*
X012035Y020226D02*
X012035Y020359D01*
X011935Y020326D02*
X012135Y020326D01*
X012035Y020226D01*
X013194Y019893D02*
X013194Y019826D01*
X013228Y019792D01*
X013295Y019792D01*
X013295Y019893D01*
X013261Y019926D01*
X013228Y019926D01*
X013194Y019893D01*
X013295Y019792D02*
X013361Y019859D01*
X013395Y019926D01*
X013361Y019705D02*
X013228Y019571D01*
X013194Y019605D01*
X013194Y019672D01*
X013228Y019705D01*
X013361Y019705D01*
X013395Y019672D01*
X013395Y019605D01*
X013361Y019571D01*
X013228Y019571D01*
X013194Y019484D02*
X013194Y019351D01*
X013194Y019417D02*
X013395Y019417D01*
X013328Y019351D01*
X013361Y019263D02*
X013395Y019230D01*
X013395Y019163D01*
X013361Y019130D01*
X013228Y019130D01*
X013194Y019163D01*
X013194Y019230D01*
X013228Y019263D01*
X013628Y018672D02*
X013828Y018672D01*
X013728Y018572D01*
X013728Y018705D01*
X013794Y018484D02*
X013661Y018351D01*
X013628Y018384D01*
X013628Y018451D01*
X013661Y018484D01*
X013794Y018484D01*
X013828Y018451D01*
X013828Y018384D01*
X013794Y018351D01*
X013661Y018351D01*
X013628Y018263D02*
X013628Y018130D01*
X013628Y018197D02*
X013828Y018197D01*
X013761Y018130D01*
X013794Y018042D02*
X013728Y018042D01*
X013694Y018009D01*
X013694Y017909D01*
X013628Y017909D02*
X013828Y017909D01*
X013828Y018009D01*
X013794Y018042D01*
X013694Y017976D02*
X013628Y018042D01*
X014330Y019169D02*
X014297Y019202D01*
X014297Y019269D01*
X014330Y019302D01*
X014297Y019390D02*
X014297Y019523D01*
X014297Y019457D02*
X014497Y019457D01*
X014430Y019390D01*
X014464Y019302D02*
X014497Y019269D01*
X014497Y019202D01*
X014464Y019169D01*
X014330Y019169D01*
X014297Y019611D02*
X014297Y019744D01*
X014297Y019678D02*
X014497Y019678D01*
X014430Y019611D01*
X014397Y019832D02*
X014430Y019899D01*
X014430Y019932D01*
X014397Y019965D01*
X014330Y019965D01*
X014297Y019932D01*
X014297Y019865D01*
X014330Y019832D01*
X014397Y019832D02*
X014497Y019832D01*
X014497Y019965D01*
X015202Y019956D02*
X015202Y019823D01*
X015202Y019890D02*
X015403Y019890D01*
X015336Y019823D01*
X015369Y019735D02*
X015302Y019735D01*
X015269Y019702D01*
X015269Y019602D01*
X015202Y019602D02*
X015403Y019602D01*
X015403Y019702D01*
X015369Y019735D01*
X015269Y019669D02*
X015202Y019735D01*
X015235Y019487D02*
X015202Y019454D01*
X015202Y019320D01*
X015235Y019287D01*
X015302Y019287D01*
X015335Y019320D01*
X015302Y019387D02*
X015202Y019387D01*
X015302Y019387D02*
X015335Y019420D01*
X015335Y019454D01*
X015302Y019487D01*
X015235Y019487D01*
X015423Y019454D02*
X015456Y019487D01*
X015523Y019487D01*
X015556Y019454D01*
X015556Y019320D01*
X015523Y019287D01*
X015456Y019287D01*
X015423Y019320D01*
X015675Y019351D02*
X015675Y019484D01*
X015675Y019417D02*
X015875Y019417D01*
X015808Y019351D01*
X015842Y019263D02*
X015875Y019230D01*
X015875Y019163D01*
X015842Y019130D01*
X015708Y019130D01*
X015675Y019163D01*
X015675Y019230D01*
X015708Y019263D01*
X015675Y019571D02*
X015675Y019705D01*
X015675Y019638D02*
X015875Y019638D01*
X015808Y019571D01*
X015775Y019792D02*
X015775Y019926D01*
X015675Y019893D02*
X015875Y019893D01*
X015775Y019792D01*
X015403Y020077D02*
X015403Y020144D01*
X015369Y020177D01*
X015236Y020044D01*
X015202Y020077D01*
X015202Y020144D01*
X015236Y020177D01*
X015369Y020177D01*
X015369Y020265D02*
X015336Y020265D01*
X015302Y020298D01*
X015302Y020365D01*
X015269Y020398D01*
X015236Y020398D01*
X015202Y020365D01*
X015202Y020298D01*
X015236Y020265D01*
X015269Y020265D01*
X015302Y020298D01*
X015302Y020365D02*
X015336Y020398D01*
X015369Y020398D01*
X015403Y020365D01*
X015403Y020298D01*
X015369Y020265D01*
X015403Y020077D02*
X015369Y020044D01*
X015236Y020044D01*
X016620Y020050D02*
X016653Y020083D01*
X016786Y020083D01*
X016820Y020050D01*
X016820Y019983D01*
X016786Y019950D01*
X016753Y019950D01*
X016720Y019983D01*
X016720Y020083D01*
X016620Y020050D02*
X016620Y019983D01*
X016653Y019950D01*
X016653Y019862D02*
X016620Y019829D01*
X016620Y019762D01*
X016653Y019729D01*
X016786Y019862D01*
X016653Y019862D01*
X016653Y019729D02*
X016786Y019729D01*
X016820Y019762D01*
X016820Y019829D01*
X016786Y019862D01*
X016620Y019641D02*
X016620Y019508D01*
X016620Y019575D02*
X016820Y019575D01*
X016753Y019508D01*
X016720Y019420D02*
X016686Y019387D01*
X016686Y019287D01*
X016620Y019287D02*
X016820Y019287D01*
X016820Y019387D01*
X016786Y019420D01*
X016720Y019420D01*
X016686Y019354D02*
X016620Y019420D01*
X017161Y018936D02*
X017228Y018903D01*
X017295Y018836D01*
X017195Y018836D01*
X017161Y018803D01*
X017161Y018769D01*
X017195Y018736D01*
X017261Y018736D01*
X017295Y018769D01*
X017295Y018836D01*
X017382Y018903D02*
X017516Y018769D01*
X017482Y018736D01*
X017416Y018736D01*
X017382Y018769D01*
X017382Y018903D01*
X017416Y018936D01*
X017482Y018936D01*
X017516Y018903D01*
X017516Y018769D01*
X017603Y018736D02*
X017737Y018736D01*
X017670Y018736D02*
X017670Y018936D01*
X017737Y018869D01*
X017824Y018836D02*
X017858Y018803D01*
X017958Y018803D01*
X017891Y018803D02*
X017824Y018736D01*
X017824Y018836D02*
X017824Y018903D01*
X017858Y018936D01*
X017958Y018936D01*
X017958Y018736D01*
X017970Y019917D02*
X018003Y019950D01*
X017970Y019917D02*
X017903Y019917D01*
X017870Y019950D01*
X017870Y020017D01*
X017903Y020050D01*
X017937Y020050D01*
X018003Y020017D01*
X018003Y020117D01*
X017870Y020117D01*
X018091Y020084D02*
X018224Y019950D01*
X018191Y019917D01*
X018124Y019917D01*
X018091Y019950D01*
X018091Y020084D01*
X018124Y020117D01*
X018191Y020117D01*
X018224Y020084D01*
X018224Y019950D01*
X018312Y019917D02*
X018445Y019917D01*
X018379Y019917D02*
X018379Y020117D01*
X018445Y020050D01*
X018533Y020017D02*
X018566Y019984D01*
X018666Y019984D01*
X018600Y019984D02*
X018533Y019917D01*
X018533Y020017D02*
X018533Y020084D01*
X018566Y020117D01*
X018666Y020117D01*
X018666Y019917D01*
X020005Y019774D02*
X020005Y019708D01*
X020039Y019674D01*
X020106Y019674D02*
X020139Y019741D01*
X020139Y019774D01*
X020106Y019808D01*
X020039Y019808D01*
X020005Y019774D01*
X020106Y019674D02*
X020206Y019674D01*
X020206Y019808D01*
X020172Y019587D02*
X020206Y019553D01*
X020206Y019487D01*
X020172Y019453D01*
X020172Y019587D02*
X020139Y019587D01*
X020005Y019453D01*
X020005Y019587D01*
X020005Y019366D02*
X020005Y019232D01*
X020005Y019299D02*
X020206Y019299D01*
X020139Y019232D01*
X020172Y019145D02*
X020206Y019111D01*
X020206Y019045D01*
X020172Y019011D01*
X020039Y019011D01*
X020005Y019045D01*
X020005Y019111D01*
X020039Y019145D01*
X020626Y020074D02*
X020759Y020074D01*
X020626Y020208D01*
X020626Y020241D01*
X020659Y020275D01*
X020726Y020275D01*
X020759Y020241D01*
X020847Y020241D02*
X020880Y020275D01*
X020947Y020275D01*
X020980Y020241D01*
X020847Y020241D02*
X020847Y020208D01*
X020980Y020074D01*
X020847Y020074D01*
X021068Y020074D02*
X021201Y020074D01*
X021134Y020074D02*
X021134Y020275D01*
X021201Y020208D01*
X021289Y020241D02*
X021322Y020275D01*
X021389Y020275D01*
X021422Y020241D01*
X021422Y020108D01*
X021389Y020074D01*
X021322Y020074D01*
X021289Y020108D01*
X021590Y019808D02*
X021456Y019674D01*
X021423Y019674D01*
X021456Y019587D02*
X021423Y019553D01*
X021423Y019487D01*
X021456Y019453D01*
X021590Y019587D01*
X021456Y019587D01*
X021590Y019587D02*
X021623Y019553D01*
X021623Y019487D01*
X021590Y019453D01*
X021456Y019453D01*
X021423Y019366D02*
X021423Y019232D01*
X021423Y019299D02*
X021623Y019299D01*
X021556Y019232D01*
X021590Y019145D02*
X021523Y019145D01*
X021490Y019111D01*
X021490Y019011D01*
X021490Y019078D02*
X021423Y019145D01*
X021423Y019011D02*
X021623Y019011D01*
X021623Y019111D01*
X021590Y019145D01*
X021623Y019674D02*
X021623Y019808D01*
X021590Y019808D01*
X021580Y018351D02*
X021580Y018218D01*
X021714Y018351D01*
X021747Y018351D01*
X021780Y018318D01*
X021780Y018251D01*
X021747Y018218D01*
X021747Y018130D02*
X021614Y017997D01*
X021580Y018030D01*
X021580Y018097D01*
X021614Y018130D01*
X021747Y018130D01*
X021780Y018097D01*
X021780Y018030D01*
X021747Y017997D01*
X021614Y017997D01*
X021580Y017909D02*
X021580Y017776D01*
X021580Y017842D02*
X021780Y017842D01*
X021714Y017776D01*
X021747Y017688D02*
X021780Y017655D01*
X021780Y017588D01*
X021747Y017555D01*
X021614Y017555D01*
X021580Y017588D01*
X021580Y017655D01*
X021614Y017688D01*
X021683Y015590D02*
X021749Y015590D01*
X021783Y015556D01*
X021870Y015556D02*
X022004Y015423D01*
X021970Y015389D01*
X021904Y015389D01*
X021870Y015423D01*
X021870Y015556D01*
X021904Y015590D01*
X021970Y015590D01*
X022004Y015556D01*
X022004Y015423D01*
X022091Y015389D02*
X022225Y015389D01*
X022158Y015389D02*
X022158Y015590D01*
X022225Y015523D01*
X022312Y015556D02*
X022312Y015489D01*
X022346Y015456D01*
X022446Y015456D01*
X022446Y015389D02*
X022446Y015590D01*
X022346Y015590D01*
X022312Y015556D01*
X022379Y015456D02*
X022312Y015389D01*
X021783Y015389D02*
X021649Y015523D01*
X021649Y015556D01*
X021683Y015590D01*
X021649Y015389D02*
X021783Y015389D01*
X021113Y012440D02*
X021147Y012407D01*
X021147Y012273D01*
X021113Y012240D01*
X021046Y012240D01*
X021013Y012273D01*
X020926Y012240D02*
X020792Y012240D01*
X020859Y012240D02*
X020859Y012440D01*
X020926Y012373D01*
X021013Y012407D02*
X021046Y012440D01*
X021113Y012440D01*
X021113Y012125D02*
X021147Y012092D01*
X021147Y011958D01*
X021113Y011925D01*
X021046Y011925D01*
X021013Y011958D01*
X020926Y011925D02*
X020792Y011925D01*
X020859Y011925D02*
X020859Y012125D01*
X020926Y012058D01*
X021013Y012092D02*
X021046Y012125D01*
X021113Y012125D01*
X021113Y011810D02*
X021147Y011777D01*
X021147Y011643D01*
X021113Y011610D01*
X021046Y011610D01*
X021013Y011643D01*
X020926Y011610D02*
X020792Y011610D01*
X020859Y011610D02*
X020859Y011810D01*
X020926Y011743D01*
X021013Y011777D02*
X021046Y011810D01*
X021113Y011810D01*
X020705Y011777D02*
X020671Y011810D01*
X020605Y011810D01*
X020571Y011777D01*
X020571Y011743D01*
X020705Y011610D01*
X020571Y011610D01*
X020484Y011643D02*
X020450Y011610D01*
X020384Y011610D01*
X020350Y011643D01*
X020350Y011677D01*
X020384Y011710D01*
X020484Y011710D01*
X020484Y011643D01*
X020484Y011710D02*
X020417Y011777D01*
X020350Y011810D01*
X020484Y011925D02*
X020484Y011958D01*
X020350Y012092D01*
X020350Y012125D01*
X020484Y012125D01*
X020571Y012092D02*
X020605Y012125D01*
X020671Y012125D01*
X020705Y012092D01*
X020571Y012092D02*
X020571Y012058D01*
X020705Y011925D01*
X020571Y011925D01*
X020605Y012240D02*
X020671Y012240D01*
X020705Y012273D01*
X020638Y012340D02*
X020605Y012340D01*
X020571Y012306D01*
X020571Y012273D01*
X020605Y012240D01*
X020605Y012340D02*
X020571Y012373D01*
X020571Y012407D01*
X020605Y012440D01*
X020671Y012440D01*
X020705Y012407D01*
X020484Y012440D02*
X020484Y012340D01*
X020417Y012373D01*
X020384Y012373D01*
X020350Y012340D01*
X020350Y012273D01*
X020384Y012240D01*
X020450Y012240D01*
X020484Y012273D01*
X020484Y012440D02*
X020350Y012440D01*
X020386Y010156D02*
X020386Y009956D01*
X020320Y009956D02*
X020453Y009956D01*
X020541Y009956D02*
X020607Y010023D01*
X020574Y010023D02*
X020674Y010023D01*
X020674Y009956D02*
X020674Y010156D01*
X020574Y010156D01*
X020541Y010123D01*
X020541Y010056D01*
X020574Y010023D01*
X020453Y010090D02*
X020386Y010156D01*
X020232Y010123D02*
X020199Y010156D01*
X020132Y010156D01*
X020099Y010123D01*
X020099Y010090D01*
X020132Y010056D01*
X020099Y010023D01*
X020099Y009990D01*
X020132Y009956D01*
X020199Y009956D01*
X020232Y009990D01*
X020165Y010056D02*
X020132Y010056D01*
X019926Y010023D02*
X019826Y010023D01*
X019793Y010056D01*
X019793Y010123D01*
X019826Y010156D01*
X019926Y010156D01*
X019926Y009956D01*
X019859Y010023D02*
X019793Y009956D01*
X019705Y009956D02*
X019572Y010090D01*
X019572Y010123D01*
X019605Y010156D01*
X019672Y010156D01*
X019705Y010123D01*
X019705Y009956D02*
X019572Y009956D01*
X019875Y009802D02*
X019875Y009602D01*
X019941Y009602D02*
X019808Y009602D01*
X019941Y009735D02*
X019875Y009802D01*
X020029Y009769D02*
X020062Y009802D01*
X020129Y009802D01*
X020162Y009769D01*
X020162Y009635D01*
X020129Y009602D01*
X020062Y009602D01*
X020029Y009635D01*
X019420Y008897D02*
X019454Y008863D01*
X019454Y008730D01*
X019420Y008696D01*
X019354Y008696D01*
X019320Y008730D01*
X019233Y008696D02*
X019099Y008830D01*
X019099Y008863D01*
X019133Y008897D01*
X019199Y008897D01*
X019233Y008863D01*
X019320Y008863D02*
X019354Y008897D01*
X019420Y008897D01*
X019233Y008696D02*
X019099Y008696D01*
X019012Y008730D02*
X018878Y008863D01*
X018878Y008730D01*
X018912Y008696D01*
X018978Y008696D01*
X019012Y008730D01*
X019012Y008863D01*
X018978Y008897D01*
X018912Y008897D01*
X018878Y008863D01*
X018936Y008051D02*
X019070Y008051D01*
X019103Y008018D01*
X019103Y007951D01*
X019070Y007918D01*
X019037Y007918D01*
X019003Y007951D01*
X019003Y008051D01*
X018936Y008051D02*
X018903Y008018D01*
X018903Y007951D01*
X018936Y007918D01*
X018903Y007830D02*
X018903Y007697D01*
X018903Y007764D02*
X019103Y007764D01*
X019037Y007697D01*
X019070Y007609D02*
X019103Y007576D01*
X019103Y007509D01*
X019070Y007476D01*
X018936Y007476D01*
X018903Y007509D01*
X018903Y007576D01*
X018936Y007609D01*
X018936Y006516D02*
X018903Y006483D01*
X018903Y006416D01*
X018936Y006383D01*
X018970Y006383D01*
X019003Y006416D01*
X019003Y006483D01*
X018970Y006516D01*
X018936Y006516D01*
X019003Y006483D02*
X019037Y006516D01*
X019070Y006516D01*
X019103Y006483D01*
X019103Y006416D01*
X019070Y006383D01*
X019037Y006383D01*
X019003Y006416D01*
X018903Y006295D02*
X018903Y006162D01*
X018903Y006228D02*
X019103Y006228D01*
X019037Y006162D01*
X019070Y006074D02*
X019103Y006041D01*
X019103Y005974D01*
X019070Y005941D01*
X018936Y005941D01*
X018903Y005974D01*
X018903Y006041D01*
X018936Y006074D01*
X019966Y005750D02*
X019999Y005783D01*
X020133Y005783D01*
X020166Y005750D01*
X020166Y005683D01*
X020133Y005650D01*
X020100Y005650D01*
X020066Y005683D01*
X020066Y005783D01*
X019966Y005750D02*
X019966Y005683D01*
X019999Y005650D01*
X019966Y005562D02*
X020033Y005495D01*
X020033Y005529D02*
X020033Y005429D01*
X019966Y005429D02*
X020166Y005429D01*
X020166Y005529D01*
X020133Y005562D01*
X020066Y005562D01*
X020033Y005529D01*
X020911Y005501D02*
X020911Y005568D01*
X020944Y005602D01*
X020911Y005689D02*
X021044Y005823D01*
X021078Y005823D01*
X021111Y005789D01*
X021111Y005722D01*
X021078Y005689D01*
X021078Y005602D02*
X021111Y005568D01*
X021111Y005501D01*
X021078Y005468D01*
X020944Y005468D01*
X020911Y005501D01*
X020911Y005689D02*
X020911Y005823D01*
X020911Y005910D02*
X021044Y006044D01*
X021078Y006044D01*
X021111Y006010D01*
X021111Y005943D01*
X021078Y005910D01*
X020911Y005910D02*
X020911Y006044D01*
X020566Y006570D02*
X020433Y006570D01*
X020399Y006604D01*
X020399Y006671D01*
X020433Y006704D01*
X020399Y006791D02*
X020533Y006925D01*
X020566Y006925D01*
X020599Y006892D01*
X020599Y006825D01*
X020566Y006791D01*
X020566Y006704D02*
X020599Y006671D01*
X020599Y006604D01*
X020566Y006570D01*
X020399Y006791D02*
X020399Y006925D01*
X020399Y007012D02*
X020399Y007146D01*
X020399Y007079D02*
X020599Y007079D01*
X020533Y007012D01*
X021659Y006010D02*
X021659Y005943D01*
X021692Y005910D01*
X021659Y005823D02*
X021659Y005689D01*
X021792Y005823D01*
X021826Y005823D01*
X021859Y005789D01*
X021859Y005722D01*
X021826Y005689D01*
X021826Y005602D02*
X021859Y005568D01*
X021859Y005501D01*
X021826Y005468D01*
X021692Y005468D01*
X021659Y005501D01*
X021659Y005568D01*
X021692Y005602D01*
X021826Y005910D02*
X021859Y005943D01*
X021859Y006010D01*
X021826Y006044D01*
X021792Y006044D01*
X021759Y006010D01*
X021726Y006044D01*
X021692Y006044D01*
X021659Y006010D01*
X021759Y006010D02*
X021759Y005977D01*
X022455Y005235D02*
X022555Y005135D01*
X022422Y005135D01*
X022455Y005035D02*
X022455Y005235D01*
X022643Y005202D02*
X022676Y005235D01*
X022743Y005235D01*
X022776Y005202D01*
X022864Y005202D02*
X022897Y005235D01*
X022964Y005235D01*
X022997Y005202D01*
X022997Y005068D01*
X022964Y005035D01*
X022897Y005035D01*
X022864Y005068D01*
X022776Y005035D02*
X022643Y005168D01*
X022643Y005202D01*
X022643Y005035D02*
X022776Y005035D01*
X022485Y004739D02*
X021974Y004739D01*
X022485Y004740D02*
X022511Y004738D01*
X022536Y004733D01*
X022560Y004725D01*
X022584Y004714D01*
X022605Y004699D01*
X022624Y004682D01*
X022641Y004663D01*
X022656Y004641D01*
X022667Y004618D01*
X022675Y004594D01*
X022680Y004569D01*
X022682Y004543D01*
X022682Y004401D01*
X023209Y004011D02*
X023342Y004011D01*
X023276Y004011D02*
X023276Y004212D01*
X023342Y004145D01*
X023430Y004011D02*
X023563Y004011D01*
X023497Y004011D02*
X023497Y004212D01*
X023563Y004145D01*
X023651Y004178D02*
X023651Y004111D01*
X023684Y004078D01*
X023784Y004078D01*
X023718Y004078D02*
X023651Y004011D01*
X023784Y004011D02*
X023784Y004212D01*
X023684Y004212D01*
X023651Y004178D01*
X023942Y004360D02*
X023942Y004426D01*
X023976Y004460D01*
X023942Y004547D02*
X024076Y004681D01*
X024109Y004681D01*
X024143Y004647D01*
X024143Y004581D01*
X024109Y004547D01*
X024109Y004460D02*
X024143Y004426D01*
X024143Y004360D01*
X024109Y004326D01*
X023976Y004326D01*
X023942Y004360D01*
X023942Y004547D02*
X023942Y004681D01*
X023976Y004768D02*
X023942Y004802D01*
X023942Y004868D01*
X023976Y004902D01*
X024043Y004902D01*
X024076Y004868D01*
X024076Y004835D01*
X024043Y004768D01*
X024143Y004768D01*
X024143Y004902D01*
X024409Y004587D02*
X024376Y004553D01*
X024376Y004487D01*
X024409Y004453D01*
X024542Y004587D01*
X024409Y004587D01*
X024542Y004587D02*
X024576Y004553D01*
X024576Y004487D01*
X024542Y004453D01*
X024409Y004453D01*
X024376Y004366D02*
X024376Y004232D01*
X024376Y004299D02*
X024576Y004299D01*
X024509Y004232D01*
X024476Y004145D02*
X024442Y004111D01*
X024442Y004011D01*
X024376Y004011D02*
X024576Y004011D01*
X024576Y004111D01*
X024542Y004145D01*
X024476Y004145D01*
X024442Y004078D02*
X024376Y004145D01*
X022919Y003125D02*
X022919Y002810D01*
X022918Y002810D02*
X022917Y002800D01*
X022913Y002790D01*
X022907Y002782D01*
X022898Y002776D01*
X022889Y002772D01*
X022879Y002771D01*
X012919Y002771D01*
X012909Y002772D01*
X012900Y002776D01*
X012891Y002782D01*
X012885Y002790D01*
X012881Y002800D01*
X012880Y002810D01*
X012879Y002810D02*
X012879Y003125D01*
X012880Y003125D02*
X012881Y003135D01*
X012885Y003144D01*
X012891Y003153D01*
X012900Y003159D01*
X012909Y003163D01*
X012919Y003164D01*
X012919Y003165D02*
X013115Y003165D01*
X013824Y003165D01*
X013982Y003322D01*
X021816Y003322D01*
X021974Y003165D01*
X022682Y003165D01*
X022682Y003224D01*
X022682Y003165D02*
X022879Y003165D01*
X022879Y003164D02*
X022889Y003163D01*
X022899Y003159D01*
X022907Y003153D01*
X022913Y003144D01*
X022917Y003135D01*
X022918Y003125D01*
X023621Y002322D02*
X023721Y002222D01*
X023587Y002222D01*
X023621Y002122D02*
X023621Y002322D01*
X023808Y002288D02*
X023808Y002222D01*
X023842Y002188D01*
X023942Y002188D01*
X023942Y002122D02*
X023942Y002322D01*
X023842Y002322D01*
X023808Y002288D01*
X023875Y002188D02*
X023808Y002122D01*
X025163Y006177D02*
X025363Y006177D01*
X025363Y006277D01*
X025330Y006310D01*
X025263Y006310D01*
X025230Y006277D01*
X025230Y006177D01*
X025230Y006243D02*
X025163Y006310D01*
X025163Y006398D02*
X025163Y006531D01*
X025163Y006464D02*
X025363Y006464D01*
X025296Y006398D01*
X025330Y006619D02*
X025363Y006652D01*
X025363Y006719D01*
X025330Y006752D01*
X025296Y006752D01*
X025163Y006619D01*
X025163Y006752D01*
X024064Y007588D02*
X024031Y007555D01*
X023897Y007555D01*
X023864Y007588D01*
X023864Y007655D01*
X023897Y007688D01*
X023864Y007776D02*
X023997Y007909D01*
X024031Y007909D01*
X024064Y007876D01*
X024064Y007809D01*
X024031Y007776D01*
X024031Y007688D02*
X024064Y007655D01*
X024064Y007588D01*
X023864Y007776D02*
X023864Y007909D01*
X023897Y007997D02*
X023864Y008030D01*
X023864Y008097D01*
X023897Y008130D01*
X023930Y008130D01*
X023964Y008097D01*
X023964Y007997D01*
X023897Y007997D01*
X023964Y007997D02*
X024031Y008063D01*
X024064Y008130D01*
X019031Y014799D02*
X018897Y014799D01*
X018864Y014832D01*
X018864Y014899D01*
X018897Y014932D01*
X018864Y015020D02*
X018864Y015153D01*
X018864Y015087D02*
X019064Y015087D01*
X018997Y015020D01*
X019031Y014932D02*
X019064Y014899D01*
X019064Y014832D01*
X019031Y014799D01*
X019031Y015241D02*
X019064Y015274D01*
X019064Y015341D01*
X019031Y015374D01*
X018997Y015374D01*
X018864Y015241D01*
X018864Y015374D01*
X018897Y015462D02*
X019031Y015595D01*
X018897Y015595D01*
X018864Y015562D01*
X018864Y015495D01*
X018897Y015462D01*
X019031Y015462D01*
X019064Y015495D01*
X019064Y015562D01*
X019031Y015595D01*
X017525Y015541D02*
X017491Y015507D01*
X017424Y015507D01*
X017391Y015541D01*
X017304Y015507D02*
X017170Y015641D01*
X017170Y015674D01*
X017203Y015708D01*
X017270Y015708D01*
X017304Y015674D01*
X017391Y015674D02*
X017424Y015708D01*
X017491Y015708D01*
X017525Y015674D01*
X017525Y015541D01*
X017304Y015507D02*
X017170Y015507D01*
X017083Y015541D02*
X017083Y015574D01*
X017049Y015608D01*
X016982Y015608D01*
X016949Y015574D01*
X016949Y015541D01*
X016982Y015507D01*
X017049Y015507D01*
X017083Y015541D01*
X017049Y015608D02*
X017083Y015641D01*
X017083Y015674D01*
X017049Y015708D01*
X016982Y015708D01*
X016949Y015674D01*
X016949Y015641D01*
X016982Y015608D01*
X016387Y015659D02*
X016353Y015626D01*
X016220Y015626D01*
X016187Y015659D01*
X016187Y015726D01*
X016220Y015759D01*
X016220Y015847D02*
X016187Y015880D01*
X016187Y015947D01*
X016220Y015980D01*
X016253Y015980D01*
X016287Y015947D01*
X016287Y015913D01*
X016287Y015947D02*
X016320Y015980D01*
X016353Y015980D01*
X016387Y015947D01*
X016387Y015880D01*
X016353Y015847D01*
X016353Y015759D02*
X016387Y015726D01*
X016387Y015659D01*
X016320Y016068D02*
X016387Y016134D01*
X016187Y016134D01*
X016187Y016068D02*
X016187Y016201D01*
X015871Y016062D02*
X015771Y016062D01*
X015738Y016029D01*
X015738Y015962D01*
X015771Y015929D01*
X015871Y015929D01*
X015804Y015929D02*
X015738Y015862D01*
X015650Y015895D02*
X015617Y015862D01*
X015550Y015862D01*
X015517Y015895D01*
X015517Y015929D01*
X015550Y015962D01*
X015583Y015962D01*
X015550Y015962D02*
X015517Y015995D01*
X015517Y016029D01*
X015550Y016062D01*
X015617Y016062D01*
X015650Y016029D01*
X015429Y016029D02*
X015396Y016062D01*
X015329Y016062D01*
X015296Y016029D01*
X015296Y015995D01*
X015329Y015962D01*
X015296Y015929D01*
X015296Y015895D01*
X015329Y015862D01*
X015396Y015862D01*
X015429Y015895D01*
X015362Y015962D02*
X015329Y015962D01*
X015123Y015929D02*
X015023Y015929D01*
X014990Y015962D01*
X014990Y016029D01*
X015023Y016062D01*
X015123Y016062D01*
X015123Y015862D01*
X015056Y015929D02*
X014990Y015862D01*
X014902Y015895D02*
X014869Y015862D01*
X014802Y015862D01*
X014769Y015895D01*
X014769Y015929D01*
X014802Y015962D01*
X014835Y015962D01*
X014802Y015962D02*
X014769Y015995D01*
X014769Y016029D01*
X014802Y016062D01*
X014869Y016062D01*
X014902Y016029D01*
X014681Y015962D02*
X014548Y015962D01*
X014581Y016062D02*
X014681Y015962D01*
X014581Y015862D02*
X014581Y016062D01*
X014336Y016029D02*
X014336Y015895D01*
X014302Y015862D01*
X014235Y015862D01*
X014202Y015895D01*
X014115Y015895D02*
X014081Y015862D01*
X014014Y015862D01*
X013981Y015895D01*
X013981Y015962D01*
X014014Y015995D01*
X014048Y015995D01*
X014115Y015962D01*
X014115Y016062D01*
X013981Y016062D01*
X014202Y016029D02*
X014235Y016062D01*
X014302Y016062D01*
X014336Y016029D01*
X014675Y016807D02*
X014742Y016807D01*
X014775Y016840D01*
X014862Y016807D02*
X014996Y016807D01*
X014862Y016940D01*
X014862Y016973D01*
X014896Y017007D01*
X014963Y017007D01*
X014996Y016973D01*
X015150Y017007D02*
X015150Y016807D01*
X015217Y016807D02*
X015083Y016807D01*
X015217Y016940D02*
X015150Y017007D01*
X015304Y016973D02*
X015338Y017007D01*
X015405Y017007D01*
X015438Y016973D01*
X015438Y016840D01*
X015405Y016807D01*
X015338Y016807D01*
X015304Y016840D01*
X015547Y016907D02*
X015680Y016907D01*
X015580Y017007D01*
X015580Y016807D01*
X015768Y016807D02*
X015901Y016807D01*
X015768Y016940D01*
X015768Y016973D01*
X015801Y017007D01*
X015868Y017007D01*
X015901Y016973D01*
X016056Y017007D02*
X016056Y016807D01*
X016122Y016807D02*
X015989Y016807D01*
X016122Y016940D02*
X016056Y017007D01*
X016210Y016973D02*
X016243Y017007D01*
X016310Y017007D01*
X016343Y016973D01*
X016343Y016840D01*
X016310Y016807D01*
X016243Y016807D01*
X016210Y016840D01*
X015871Y016062D02*
X015871Y015862D01*
X014675Y016807D02*
X014642Y016840D01*
X014642Y016873D01*
X014675Y016907D01*
X014708Y016907D01*
X014675Y016907D02*
X014642Y016940D01*
X014642Y016973D01*
X014675Y017007D01*
X014742Y017007D01*
X014775Y016973D01*
X013001Y013663D02*
X012901Y013563D01*
X012901Y013697D01*
X012801Y013663D02*
X013001Y013663D01*
X012968Y013476D02*
X013001Y013442D01*
X013001Y013375D01*
X012968Y013342D01*
X012834Y013342D01*
X012801Y013375D01*
X012801Y013442D01*
X012834Y013476D01*
X014296Y012204D02*
X014363Y012170D01*
X014430Y012104D01*
X014329Y012104D01*
X014296Y012070D01*
X014296Y012037D01*
X014329Y012004D01*
X014396Y012004D01*
X014430Y012037D01*
X014430Y012104D01*
X014517Y012170D02*
X014550Y012204D01*
X014617Y012204D01*
X014651Y012170D01*
X014651Y012037D01*
X014617Y012004D01*
X014550Y012004D01*
X014517Y012037D01*
X015005Y012037D02*
X015038Y012004D01*
X015105Y012004D01*
X015138Y012037D01*
X015138Y012070D01*
X015105Y012104D01*
X015038Y012104D01*
X015005Y012070D01*
X015005Y012037D01*
X015038Y012104D02*
X015005Y012137D01*
X015005Y012170D01*
X015038Y012204D01*
X015105Y012204D01*
X015138Y012170D01*
X015138Y012137D01*
X015105Y012104D01*
X015226Y012170D02*
X015259Y012204D01*
X015326Y012204D01*
X015359Y012170D01*
X015359Y012037D01*
X015326Y012004D01*
X015259Y012004D01*
X015226Y012037D01*
X016477Y012007D02*
X016477Y011973D01*
X016610Y011840D01*
X016610Y011807D01*
X016698Y011807D02*
X016831Y011807D01*
X016698Y011940D01*
X016698Y011973D01*
X016731Y012007D01*
X016798Y012007D01*
X016831Y011973D01*
X016919Y011973D02*
X016952Y012007D01*
X017019Y012007D01*
X017052Y011973D01*
X017052Y011840D01*
X017019Y011807D01*
X016952Y011807D01*
X016919Y011840D01*
X016610Y012007D02*
X016477Y012007D01*
X017119Y010668D02*
X017119Y010468D01*
X017185Y010468D02*
X017052Y010468D01*
X017185Y010602D02*
X017119Y010668D01*
X017273Y010635D02*
X017273Y010568D01*
X017306Y010535D01*
X017406Y010535D01*
X017340Y010535D02*
X017273Y010468D01*
X017406Y010468D02*
X017406Y010668D01*
X017306Y010668D01*
X017273Y010635D01*
X018194Y010608D02*
X018194Y010541D01*
X018228Y010507D01*
X018361Y010507D01*
X018395Y010541D01*
X018395Y010608D01*
X018361Y010641D01*
X018361Y010728D02*
X018395Y010762D01*
X018395Y010829D01*
X018361Y010862D01*
X018328Y010862D01*
X018295Y010829D01*
X018261Y010862D01*
X018228Y010862D01*
X018194Y010829D01*
X018194Y010762D01*
X018228Y010728D01*
X018228Y010641D02*
X018194Y010608D01*
X018295Y010795D02*
X018295Y010829D01*
X017883Y008878D02*
X017849Y008878D01*
X017716Y008745D01*
X017683Y008745D01*
X017683Y008657D02*
X017683Y008524D01*
X017683Y008590D02*
X017883Y008590D01*
X017816Y008524D01*
X017849Y008436D02*
X017883Y008403D01*
X017883Y008336D01*
X017849Y008303D01*
X017716Y008303D01*
X017683Y008336D01*
X017683Y008403D01*
X017716Y008436D01*
X017765Y008091D02*
X017731Y008024D01*
X017665Y007957D01*
X017665Y008057D01*
X017631Y008091D01*
X017598Y008091D01*
X017565Y008057D01*
X017565Y007991D01*
X017598Y007957D01*
X017665Y007957D01*
X017565Y007870D02*
X017565Y007736D01*
X017565Y007803D02*
X017765Y007803D01*
X017698Y007736D01*
X017731Y007649D02*
X017765Y007615D01*
X017765Y007549D01*
X017731Y007515D01*
X017598Y007515D01*
X017565Y007549D01*
X017565Y007615D01*
X017598Y007649D01*
X017598Y006516D02*
X017565Y006483D01*
X017565Y006416D01*
X017598Y006383D01*
X017665Y006383D02*
X017698Y006449D01*
X017698Y006483D01*
X017665Y006516D01*
X017598Y006516D01*
X017665Y006383D02*
X017765Y006383D01*
X017765Y006516D01*
X017765Y006228D02*
X017565Y006228D01*
X017565Y006162D02*
X017565Y006295D01*
X017698Y006162D02*
X017765Y006228D01*
X017731Y006074D02*
X017765Y006041D01*
X017765Y005974D01*
X017731Y005941D01*
X017598Y005941D01*
X017565Y005974D01*
X017565Y006041D01*
X017598Y006074D01*
X016190Y006041D02*
X016190Y005974D01*
X016157Y005941D01*
X016023Y005941D01*
X015990Y005974D01*
X015990Y006041D01*
X016023Y006074D01*
X015990Y006162D02*
X015990Y006295D01*
X015990Y006228D02*
X016190Y006228D01*
X016123Y006162D01*
X016157Y006074D02*
X016190Y006041D01*
X016123Y006383D02*
X016190Y006449D01*
X015990Y006449D01*
X015990Y006383D02*
X015990Y006516D01*
X016023Y007515D02*
X015990Y007549D01*
X015990Y007615D01*
X016023Y007649D01*
X015990Y007736D02*
X015990Y007870D01*
X015990Y007803D02*
X016190Y007803D01*
X016123Y007736D01*
X016157Y007649D02*
X016190Y007615D01*
X016190Y007549D01*
X016157Y007515D01*
X016023Y007515D01*
X015990Y007957D02*
X016123Y008091D01*
X016157Y008091D01*
X016190Y008057D01*
X016190Y007991D01*
X016157Y007957D01*
X015990Y007957D02*
X015990Y008091D01*
X016462Y008336D02*
X016462Y008403D01*
X016496Y008436D01*
X016462Y008524D02*
X016462Y008657D01*
X016462Y008590D02*
X016662Y008590D01*
X016596Y008524D01*
X016629Y008436D02*
X016662Y008403D01*
X016662Y008336D01*
X016629Y008303D01*
X016496Y008303D01*
X016462Y008336D01*
X016562Y008745D02*
X016562Y008878D01*
X016462Y008845D02*
X016662Y008845D01*
X016562Y008745D01*
X016190Y009084D02*
X016157Y009051D01*
X016023Y009051D01*
X015990Y009084D01*
X015990Y009151D01*
X016023Y009184D01*
X015990Y009272D02*
X015990Y009405D01*
X015990Y009338D02*
X016190Y009338D01*
X016123Y009272D01*
X016157Y009184D02*
X016190Y009151D01*
X016190Y009084D01*
X016157Y009493D02*
X016190Y009526D01*
X016190Y009593D01*
X016157Y009626D01*
X016123Y009626D01*
X016090Y009593D01*
X016056Y009626D01*
X016023Y009626D01*
X015990Y009593D01*
X015990Y009526D01*
X016023Y009493D01*
X016090Y009559D02*
X016090Y009593D01*
X014454Y009290D02*
X014354Y009290D01*
X014320Y009257D01*
X014320Y009190D01*
X014354Y009157D01*
X014454Y009157D01*
X014454Y009090D02*
X014454Y009290D01*
X014387Y009157D02*
X014320Y009090D01*
X014233Y009124D02*
X014199Y009090D01*
X014133Y009090D01*
X014099Y009124D01*
X014099Y009157D01*
X014133Y009190D01*
X014166Y009190D01*
X014133Y009190D02*
X014099Y009224D01*
X014099Y009257D01*
X014133Y009290D01*
X014199Y009290D01*
X014233Y009257D01*
X014012Y009190D02*
X013912Y009190D01*
X013878Y009157D01*
X013878Y009124D01*
X013912Y009090D01*
X013978Y009090D01*
X014012Y009124D01*
X014012Y009190D01*
X013945Y009257D01*
X013878Y009290D01*
X013872Y009523D02*
X013939Y009523D01*
X013972Y009557D01*
X013972Y009623D02*
X013906Y009657D01*
X013872Y009657D01*
X013839Y009623D01*
X013839Y009557D01*
X013872Y009523D01*
X013972Y009623D02*
X013972Y009723D01*
X013839Y009723D01*
X014060Y009690D02*
X014060Y009657D01*
X014093Y009623D01*
X014060Y009590D01*
X014060Y009557D01*
X014093Y009523D01*
X014160Y009523D01*
X014193Y009557D01*
X014127Y009623D02*
X014093Y009623D01*
X014060Y009690D02*
X014093Y009723D01*
X014160Y009723D01*
X014193Y009690D01*
X014281Y009690D02*
X014281Y009623D01*
X014314Y009590D01*
X014414Y009590D01*
X014348Y009590D02*
X014281Y009523D01*
X014414Y009523D02*
X014414Y009723D01*
X014314Y009723D01*
X014281Y009690D01*
X014354Y008857D02*
X014320Y008824D01*
X014320Y008757D01*
X014354Y008724D01*
X014454Y008724D01*
X014454Y008657D02*
X014454Y008857D01*
X014354Y008857D01*
X014233Y008824D02*
X014199Y008857D01*
X014133Y008857D01*
X014099Y008824D01*
X014099Y008791D01*
X014133Y008757D01*
X014099Y008724D01*
X014099Y008690D01*
X014133Y008657D01*
X014199Y008657D01*
X014233Y008690D01*
X014320Y008657D02*
X014387Y008724D01*
X014166Y008757D02*
X014133Y008757D01*
X014012Y008690D02*
X014012Y008657D01*
X014012Y008690D02*
X013878Y008824D01*
X013878Y008857D01*
X014012Y008857D01*
X014133Y007579D02*
X014100Y007546D01*
X014100Y007479D01*
X014133Y007446D01*
X014267Y007579D01*
X014133Y007579D01*
X014133Y007446D02*
X014267Y007446D01*
X014300Y007479D01*
X014300Y007546D01*
X014267Y007579D01*
X014100Y007358D02*
X014100Y007225D01*
X014100Y007291D02*
X014300Y007291D01*
X014233Y007225D01*
X014267Y007137D02*
X014300Y007104D01*
X014300Y007037D01*
X014267Y007004D01*
X014133Y007004D01*
X014100Y007037D01*
X014100Y007104D01*
X014133Y007137D01*
X013710Y006876D02*
X013676Y006910D01*
X013543Y006776D01*
X013509Y006810D01*
X013509Y006876D01*
X013543Y006910D01*
X013676Y006910D01*
X013710Y006876D02*
X013710Y006810D01*
X013676Y006776D01*
X013543Y006776D01*
X013543Y006689D02*
X013509Y006655D01*
X013509Y006589D01*
X013543Y006555D01*
X013543Y006468D02*
X013509Y006434D01*
X013509Y006368D01*
X013543Y006334D01*
X013676Y006334D01*
X013710Y006368D01*
X013710Y006434D01*
X013676Y006468D01*
X013676Y006555D02*
X013710Y006589D01*
X013710Y006655D01*
X013676Y006689D01*
X013643Y006689D01*
X013610Y006655D01*
X013576Y006689D01*
X013543Y006689D01*
X013610Y006655D02*
X013610Y006622D01*
X014572Y005750D02*
X014572Y005683D01*
X014606Y005650D01*
X014672Y005716D02*
X014672Y005750D01*
X014639Y005783D01*
X014606Y005783D01*
X014572Y005750D01*
X014672Y005750D02*
X014706Y005783D01*
X014739Y005783D01*
X014773Y005750D01*
X014773Y005683D01*
X014739Y005650D01*
X014739Y005562D02*
X014672Y005562D01*
X014639Y005529D01*
X014639Y005429D01*
X014639Y005495D02*
X014572Y005562D01*
X014572Y005429D02*
X014773Y005429D01*
X014773Y005529D01*
X014739Y005562D01*
X013824Y004739D02*
X013312Y004739D01*
X013312Y004740D02*
X013286Y004738D01*
X013261Y004733D01*
X013237Y004725D01*
X013213Y004714D01*
X013192Y004699D01*
X013173Y004682D01*
X013156Y004663D01*
X013141Y004642D01*
X013130Y004618D01*
X013122Y004594D01*
X013117Y004569D01*
X013115Y004543D01*
X013115Y004401D01*
X012721Y005429D02*
X012721Y005629D01*
X012621Y005629D01*
X012588Y005596D01*
X012588Y005529D01*
X012621Y005495D01*
X012721Y005495D01*
X012655Y005495D02*
X012588Y005429D01*
X012500Y005429D02*
X012367Y005562D01*
X012367Y005596D01*
X012400Y005629D01*
X012467Y005629D01*
X012500Y005596D01*
X012500Y005429D02*
X012367Y005429D01*
X012279Y005462D02*
X012246Y005429D01*
X012179Y005429D01*
X012146Y005462D01*
X012146Y005495D01*
X012179Y005529D01*
X012279Y005529D01*
X012279Y005462D01*
X012279Y005529D02*
X012213Y005596D01*
X012146Y005629D01*
X011625Y005078D02*
X011658Y005044D01*
X011658Y004911D01*
X011625Y004878D01*
X011558Y004878D01*
X011525Y004911D01*
X011437Y004911D02*
X011404Y004878D01*
X011337Y004878D01*
X011304Y004911D01*
X011304Y004944D01*
X011337Y004978D01*
X011371Y004978D01*
X011337Y004978D02*
X011304Y005011D01*
X011304Y005044D01*
X011337Y005078D01*
X011404Y005078D01*
X011437Y005044D01*
X011525Y005044D02*
X011558Y005078D01*
X011625Y005078D01*
X011216Y004978D02*
X011116Y004978D01*
X011083Y004944D01*
X011083Y004911D01*
X011116Y004878D01*
X011183Y004878D01*
X011216Y004911D01*
X011216Y004978D01*
X011150Y005044D01*
X011083Y005078D01*
X011038Y002500D02*
X011005Y002500D01*
X010972Y002467D01*
X010938Y002500D01*
X010905Y002500D01*
X010872Y002467D01*
X010872Y002400D01*
X010905Y002367D01*
X010905Y002279D02*
X010872Y002246D01*
X010872Y002179D01*
X010905Y002146D01*
X010905Y002058D02*
X010872Y002025D01*
X010872Y001958D01*
X010905Y001925D01*
X011038Y001925D01*
X011072Y001958D01*
X011072Y002025D01*
X011038Y002058D01*
X011038Y002146D02*
X011072Y002179D01*
X011072Y002246D01*
X011038Y002279D01*
X011005Y002279D01*
X010972Y002246D01*
X010938Y002279D01*
X010905Y002279D01*
X010972Y002246D02*
X010972Y002213D01*
X011038Y002367D02*
X011072Y002400D01*
X011072Y002467D01*
X011038Y002500D01*
X010972Y002467D02*
X010972Y002433D01*
X009454Y001895D02*
X009454Y001761D01*
X009420Y001728D01*
X009354Y001728D01*
X009320Y001761D01*
X009233Y001761D02*
X009233Y001728D01*
X009233Y001761D02*
X009099Y001895D01*
X009099Y001928D01*
X009233Y001928D01*
X009320Y001895D02*
X009354Y001928D01*
X009420Y001928D01*
X009454Y001895D01*
X009454Y001613D02*
X009354Y001613D01*
X009320Y001580D01*
X009320Y001513D01*
X009354Y001480D01*
X009454Y001480D01*
X009454Y001413D02*
X009454Y001613D01*
X009387Y001480D02*
X009320Y001413D01*
X009233Y001446D02*
X009199Y001413D01*
X009133Y001413D01*
X009099Y001446D01*
X009099Y001480D01*
X009133Y001513D01*
X009166Y001513D01*
X009133Y001513D02*
X009099Y001546D01*
X009099Y001580D01*
X009133Y001613D01*
X009199Y001613D01*
X009233Y001580D01*
X009012Y001580D02*
X008978Y001613D01*
X008912Y001613D01*
X008878Y001580D01*
X009012Y001446D01*
X008978Y001413D01*
X008912Y001413D01*
X008878Y001446D01*
X008878Y001580D01*
X009012Y001580D02*
X009012Y001446D01*
X008912Y001298D02*
X009012Y001198D01*
X008878Y001198D01*
X008912Y001098D02*
X008912Y001298D01*
X009099Y001265D02*
X009099Y001231D01*
X009133Y001198D01*
X009099Y001165D01*
X009099Y001131D01*
X009133Y001098D01*
X009199Y001098D01*
X009233Y001131D01*
X009320Y001131D02*
X009354Y001098D01*
X009420Y001098D01*
X009454Y001131D01*
X009454Y001265D01*
X009420Y001298D01*
X009354Y001298D01*
X009320Y001265D01*
X009233Y001265D02*
X009199Y001298D01*
X009133Y001298D01*
X009099Y001265D01*
X009133Y001198D02*
X009166Y001198D01*
X007564Y002004D02*
X007564Y002204D01*
X007464Y002204D01*
X007430Y002170D01*
X007430Y002104D01*
X007464Y002070D01*
X007564Y002070D01*
X007497Y002070D02*
X007430Y002004D01*
X007343Y002004D02*
X007209Y002137D01*
X007209Y002170D01*
X007243Y002204D01*
X007310Y002204D01*
X007343Y002170D01*
X007343Y002004D02*
X007209Y002004D01*
X007122Y002004D02*
X007122Y002037D01*
X006988Y002170D01*
X006988Y002204D01*
X007122Y002204D01*
X006111Y001916D02*
X006011Y001816D01*
X006011Y001949D01*
X005911Y001916D02*
X006111Y001916D01*
X006111Y001661D02*
X005911Y001661D01*
X005911Y001595D02*
X005911Y001728D01*
X006044Y001595D02*
X006111Y001661D01*
X006078Y001507D02*
X006011Y001507D01*
X005978Y001474D01*
X005978Y001374D01*
X005978Y001440D02*
X005911Y001507D01*
X005911Y001374D02*
X006111Y001374D01*
X006111Y001474D01*
X006078Y001507D01*
X004773Y001552D02*
X004739Y001586D01*
X004672Y001586D01*
X004639Y001552D01*
X004639Y001452D01*
X004572Y001452D02*
X004773Y001452D01*
X004773Y001552D01*
X004739Y001673D02*
X004706Y001673D01*
X004672Y001707D01*
X004672Y001773D01*
X004639Y001807D01*
X004606Y001807D01*
X004572Y001773D01*
X004572Y001707D01*
X004606Y001673D01*
X004639Y001673D01*
X004672Y001707D01*
X004672Y001773D02*
X004706Y001807D01*
X004739Y001807D01*
X004773Y001773D01*
X004773Y001707D01*
X004739Y001673D01*
X004639Y001519D02*
X004572Y001586D01*
X006746Y005350D02*
X006713Y005383D01*
X006713Y005517D01*
X006746Y005550D01*
X006813Y005550D01*
X006846Y005517D01*
X006846Y005483D01*
X006813Y005450D01*
X006713Y005450D01*
X006746Y005350D02*
X006813Y005350D01*
X006846Y005383D01*
X006934Y005350D02*
X007067Y005350D01*
X006934Y005483D01*
X006934Y005517D01*
X006967Y005550D01*
X007034Y005550D01*
X007067Y005517D01*
X007155Y005517D02*
X007155Y005450D01*
X007188Y005417D01*
X007288Y005417D01*
X007222Y005417D02*
X007155Y005350D01*
X007288Y005350D02*
X007288Y005550D01*
X007188Y005550D01*
X007155Y005517D01*
X007998Y006137D02*
X008198Y006137D01*
X008198Y006237D01*
X008164Y006271D01*
X008098Y006271D01*
X008064Y006237D01*
X008064Y006137D01*
X008064Y006204D02*
X007998Y006271D01*
X008031Y006358D02*
X007998Y006392D01*
X007998Y006458D01*
X008031Y006492D01*
X008064Y006492D01*
X008098Y006458D01*
X008098Y006425D01*
X008098Y006458D02*
X008131Y006492D01*
X008164Y006492D01*
X008198Y006458D01*
X008198Y006392D01*
X008164Y006358D01*
X008313Y006392D02*
X008346Y006358D01*
X008313Y006392D02*
X008313Y006458D01*
X008346Y006492D01*
X008379Y006492D01*
X008413Y006458D01*
X008413Y006425D01*
X008413Y006458D02*
X008446Y006492D01*
X008479Y006492D01*
X008513Y006458D01*
X008513Y006392D01*
X008479Y006358D01*
X008479Y006271D02*
X008413Y006271D01*
X008379Y006237D01*
X008379Y006137D01*
X008313Y006137D02*
X008513Y006137D01*
X008513Y006237D01*
X008479Y006271D01*
X008379Y006204D02*
X008313Y006271D01*
X008346Y006579D02*
X008313Y006613D01*
X008313Y006679D01*
X008346Y006713D01*
X008379Y006713D01*
X008413Y006679D01*
X008413Y006613D01*
X008446Y006579D01*
X008479Y006579D01*
X008513Y006613D01*
X008513Y006679D01*
X008479Y006713D01*
X008446Y006713D01*
X008413Y006679D01*
X008413Y006613D02*
X008379Y006579D01*
X008346Y006579D01*
X008198Y006613D02*
X008164Y006579D01*
X008131Y006579D01*
X008098Y006613D01*
X008098Y006713D01*
X008164Y006713D02*
X008198Y006679D01*
X008198Y006613D01*
X008164Y006713D02*
X008031Y006713D01*
X007998Y006679D01*
X007998Y006613D01*
X008031Y006579D01*
X008091Y005826D02*
X008224Y005826D01*
X008224Y005726D01*
X008158Y005759D01*
X008124Y005759D01*
X008091Y005726D01*
X008091Y005659D01*
X008124Y005626D01*
X008191Y005626D01*
X008224Y005659D01*
X008312Y005659D02*
X008345Y005626D01*
X008412Y005626D01*
X008445Y005659D01*
X008533Y005659D02*
X008566Y005626D01*
X008633Y005626D01*
X008666Y005659D01*
X008666Y005792D01*
X008633Y005826D01*
X008566Y005826D01*
X008533Y005792D01*
X008445Y005792D02*
X008412Y005826D01*
X008345Y005826D01*
X008312Y005792D01*
X008312Y005759D01*
X008345Y005726D01*
X008312Y005692D01*
X008312Y005659D01*
X008345Y005726D02*
X008379Y005726D01*
X008746Y007476D02*
X008946Y007476D01*
X008946Y007576D01*
X008912Y007609D01*
X008846Y007609D01*
X008812Y007576D01*
X008812Y007476D01*
X008812Y007543D02*
X008746Y007609D01*
X008779Y007697D02*
X008746Y007730D01*
X008746Y007797D01*
X008779Y007830D01*
X008846Y007830D01*
X008879Y007797D01*
X008879Y007764D01*
X008846Y007697D01*
X008946Y007697D01*
X008946Y007830D01*
X009061Y007797D02*
X009094Y007830D01*
X009127Y007830D01*
X009161Y007797D01*
X009161Y007697D01*
X009094Y007697D01*
X009061Y007730D01*
X009061Y007797D01*
X009161Y007697D02*
X009227Y007764D01*
X009261Y007830D01*
X009227Y007609D02*
X009161Y007609D01*
X009127Y007576D01*
X009127Y007476D01*
X009061Y007476D02*
X009261Y007476D01*
X009261Y007576D01*
X009227Y007609D01*
X009127Y007543D02*
X009061Y007609D01*
X013115Y003224D02*
X013115Y003165D01*
X013110Y002303D02*
X013076Y002270D01*
X013076Y002203D01*
X013110Y002170D01*
X013143Y002170D01*
X013176Y002203D01*
X013176Y002270D01*
X013143Y002303D01*
X013110Y002303D01*
X013176Y002270D02*
X013210Y002303D01*
X013243Y002303D01*
X013277Y002270D01*
X013277Y002203D01*
X013243Y002170D01*
X013210Y002170D01*
X013176Y002203D01*
X013210Y002082D02*
X013076Y001949D01*
X013076Y002082D01*
X013210Y002082D02*
X013243Y002082D01*
X013277Y002049D01*
X013277Y001982D01*
X013243Y001949D01*
X013243Y001861D02*
X013176Y001861D01*
X013143Y001828D01*
X013143Y001728D01*
X013076Y001728D02*
X013277Y001728D01*
X013277Y001828D01*
X013243Y001861D01*
X013143Y001795D02*
X013076Y001861D01*
X017883Y008745D02*
X017883Y008878D01*
X012101Y017712D02*
X011968Y017712D01*
X011935Y017746D01*
X011935Y017812D01*
X011968Y017846D01*
X011935Y017933D02*
X011935Y018067D01*
X011935Y018000D02*
X012135Y018000D01*
X012068Y017933D01*
X012101Y017846D02*
X012135Y017812D01*
X012135Y017746D01*
X012101Y017712D01*
X012068Y018154D02*
X012135Y018221D01*
X011935Y018221D01*
X011935Y018154D02*
X011935Y018288D01*
X011935Y018375D02*
X011935Y018509D01*
X011935Y018442D02*
X012135Y018442D01*
X012068Y018375D01*
X010816Y018444D02*
X010616Y018444D01*
X010616Y018142D02*
X010649Y018109D01*
X010783Y018109D01*
X010749Y018142D02*
X010749Y018075D01*
X010749Y017988D02*
X010616Y017854D01*
X010616Y017767D02*
X010616Y017633D01*
X010816Y017633D01*
X010816Y017767D01*
X010749Y017854D02*
X010616Y017988D01*
X010716Y017700D02*
X010716Y017633D01*
X010168Y016810D02*
X010202Y016777D01*
X010202Y016743D01*
X010168Y016710D01*
X010102Y016710D01*
X010068Y016677D01*
X010068Y016643D01*
X010102Y016610D01*
X010168Y016610D01*
X010202Y016643D01*
X010202Y016495D02*
X010102Y016495D01*
X010068Y016462D01*
X010068Y016395D01*
X010102Y016362D01*
X010202Y016362D01*
X010135Y016362D02*
X010068Y016295D01*
X009981Y016328D02*
X009981Y016395D01*
X009947Y016428D01*
X009881Y016428D01*
X009847Y016395D01*
X009847Y016362D01*
X009981Y016362D01*
X009981Y016328D02*
X009947Y016295D01*
X009881Y016295D01*
X009760Y016295D02*
X009660Y016295D01*
X009626Y016328D01*
X009660Y016362D01*
X009726Y016362D01*
X009760Y016395D01*
X009726Y016428D01*
X009626Y016428D01*
X009539Y016395D02*
X009505Y016428D01*
X009439Y016428D01*
X009405Y016395D01*
X009405Y016362D01*
X009539Y016362D01*
X009539Y016395D02*
X009539Y016328D01*
X009505Y016295D01*
X009439Y016295D01*
X009284Y016328D02*
X009251Y016295D01*
X009284Y016328D02*
X009284Y016462D01*
X009251Y016428D02*
X009318Y016428D01*
X009693Y016710D02*
X009760Y016710D01*
X009847Y016710D02*
X009881Y016677D01*
X009981Y016677D01*
X009914Y016677D02*
X009847Y016610D01*
X009760Y016610D02*
X009760Y016810D01*
X009626Y016810D01*
X009847Y016777D02*
X009847Y016710D01*
X009847Y016777D02*
X009881Y016810D01*
X009981Y016810D01*
X009981Y016610D01*
X010068Y016777D02*
X010102Y016810D01*
X010168Y016810D01*
X010202Y016495D02*
X010202Y016295D01*
X007958Y017352D02*
X007924Y017318D01*
X007858Y017318D01*
X007824Y017352D01*
X007737Y017318D02*
X007603Y017318D01*
X007670Y017318D02*
X007670Y017519D01*
X007737Y017452D01*
X007824Y017485D02*
X007858Y017519D01*
X007924Y017519D01*
X007958Y017485D01*
X007958Y017352D01*
X007516Y017352D02*
X007482Y017318D01*
X007416Y017318D01*
X007382Y017352D01*
X007382Y017385D01*
X007416Y017419D01*
X007449Y017419D01*
X007416Y017419D02*
X007382Y017452D01*
X007382Y017485D01*
X007416Y017519D01*
X007482Y017519D01*
X007516Y017485D01*
X007295Y017419D02*
X007161Y017419D01*
X007195Y017519D02*
X007295Y017419D01*
X007195Y017519D02*
X007195Y017318D01*
X007152Y016338D02*
X007185Y016304D01*
X007152Y016338D02*
X007085Y016338D01*
X007052Y016304D01*
X007052Y016271D01*
X007185Y016137D01*
X007052Y016137D01*
X007273Y016171D02*
X007306Y016137D01*
X007373Y016137D01*
X007406Y016171D01*
X007406Y016304D01*
X007373Y016338D01*
X007306Y016338D01*
X007273Y016304D01*
X008976Y021334D02*
X008942Y021368D01*
X008942Y021434D01*
X008976Y021468D01*
X008942Y021555D02*
X008942Y021689D01*
X008942Y021622D02*
X009143Y021622D01*
X009076Y021555D01*
X009109Y021468D02*
X009143Y021434D01*
X009143Y021368D01*
X009109Y021334D01*
X008976Y021334D01*
X008942Y021776D02*
X008942Y021910D01*
X008942Y021843D02*
X009143Y021843D01*
X009076Y021776D01*
X009076Y021997D02*
X009043Y022031D01*
X009043Y022131D01*
X009109Y022131D02*
X009143Y022097D01*
X009143Y022031D01*
X009109Y021997D01*
X009076Y021997D01*
X008976Y021997D02*
X008942Y022031D01*
X008942Y022097D01*
X008976Y022131D01*
X009109Y022131D01*
X007879Y022170D02*
X007879Y022037D01*
X007846Y022004D01*
X007779Y022004D01*
X007745Y022037D01*
X007658Y022004D02*
X007524Y022004D01*
X007591Y022004D02*
X007591Y022204D01*
X007658Y022137D01*
X007745Y022170D02*
X007779Y022204D01*
X007846Y022204D01*
X007879Y022170D01*
X007437Y022170D02*
X007404Y022204D01*
X007337Y022204D01*
X007303Y022170D01*
X007437Y022037D01*
X007404Y022004D01*
X007337Y022004D01*
X007303Y022037D01*
X007303Y022170D01*
X007216Y022170D02*
X007183Y022204D01*
X007116Y022204D01*
X007082Y022170D01*
X007082Y022137D01*
X007116Y022104D01*
X007082Y022070D01*
X007082Y022037D01*
X007116Y022004D01*
X007183Y022004D01*
X007216Y022037D01*
X007149Y022104D02*
X007116Y022104D01*
X007437Y022037D02*
X007437Y022170D01*
X008533Y027004D02*
X008500Y027037D01*
X008500Y027070D01*
X008533Y027104D01*
X008633Y027104D01*
X008633Y027037D01*
X008600Y027004D01*
X008533Y027004D01*
X008633Y027104D02*
X008567Y027170D01*
X008500Y027204D01*
X008787Y027204D02*
X008787Y027004D01*
X008721Y027004D02*
X008854Y027004D01*
X008942Y027004D02*
X009075Y027004D01*
X009008Y027004D02*
X009008Y027204D01*
X009075Y027137D01*
X009163Y027170D02*
X009196Y027204D01*
X009263Y027204D01*
X009296Y027170D01*
X009296Y027037D01*
X009263Y027004D01*
X009196Y027004D01*
X009163Y027037D01*
X008854Y027137D02*
X008787Y027204D01*
X008637Y027752D02*
X008503Y027752D01*
X008470Y027785D01*
X008470Y027852D01*
X008503Y027885D01*
X008470Y027973D02*
X008470Y028106D01*
X008470Y028039D02*
X008670Y028039D01*
X008603Y027973D01*
X008637Y027885D02*
X008670Y027852D01*
X008670Y027785D01*
X008637Y027752D01*
X008637Y028194D02*
X008503Y028194D01*
X008637Y028327D01*
X008503Y028327D01*
X008470Y028294D01*
X008470Y028227D01*
X008503Y028194D01*
X008637Y028194D02*
X008670Y028227D01*
X008670Y028294D01*
X008637Y028327D01*
X008670Y028415D02*
X008670Y028548D01*
X008637Y028548D01*
X008503Y028415D01*
X008470Y028415D01*
X007485Y027918D02*
X007485Y027785D01*
X007452Y027752D01*
X007385Y027752D01*
X007352Y027785D01*
X007264Y027785D02*
X007231Y027752D01*
X007164Y027752D01*
X007131Y027785D01*
X007131Y027818D01*
X007164Y027852D01*
X007197Y027852D01*
X007164Y027852D02*
X007131Y027885D01*
X007131Y027918D01*
X007164Y027952D01*
X007231Y027952D01*
X007264Y027918D01*
X007352Y027918D02*
X007385Y027952D01*
X007452Y027952D01*
X007485Y027918D01*
X007043Y027918D02*
X007010Y027952D01*
X006943Y027952D01*
X006910Y027918D01*
X006910Y027885D01*
X007043Y027752D01*
X006910Y027752D01*
X012958Y032555D02*
X013158Y032555D01*
X013158Y032655D01*
X013125Y032688D01*
X013058Y032688D01*
X013025Y032655D01*
X013025Y032555D01*
X013025Y032621D02*
X012958Y032688D01*
X012958Y032776D02*
X012958Y032909D01*
X012958Y032842D02*
X013158Y032842D01*
X013092Y032776D01*
X013058Y032997D02*
X013092Y033063D01*
X013092Y033097D01*
X013058Y033130D01*
X012992Y033130D01*
X012958Y033097D01*
X012958Y033030D01*
X012992Y032997D01*
X013058Y032997D02*
X013158Y032997D01*
X013158Y033130D01*
X013352Y032997D02*
X013385Y032997D01*
X013519Y033130D01*
X013552Y033130D01*
X013552Y032997D01*
X013552Y032842D02*
X013352Y032842D01*
X013352Y032776D02*
X013352Y032909D01*
X013485Y032776D02*
X013552Y032842D01*
X013519Y032688D02*
X013452Y032688D01*
X013419Y032655D01*
X013419Y032555D01*
X013419Y032621D02*
X013352Y032688D01*
X013352Y032555D02*
X013552Y032555D01*
X013552Y032655D01*
X013519Y032688D01*
X013746Y032688D02*
X013812Y032621D01*
X013812Y032655D02*
X013812Y032555D01*
X013746Y032555D02*
X013946Y032555D01*
X013946Y032655D01*
X013912Y032688D01*
X013846Y032688D01*
X013812Y032655D01*
X013746Y032776D02*
X013746Y032909D01*
X013746Y032842D02*
X013946Y032842D01*
X013879Y032776D01*
X013846Y032997D02*
X013846Y033097D01*
X013812Y033130D01*
X013779Y033130D01*
X013746Y033097D01*
X013746Y033030D01*
X013779Y032997D01*
X013846Y032997D01*
X013912Y033063D01*
X013946Y033130D01*
X015320Y033097D02*
X015320Y033030D01*
X015354Y032997D01*
X015387Y032997D01*
X015421Y033030D01*
X015421Y033097D01*
X015387Y033130D01*
X015354Y033130D01*
X015320Y033097D01*
X015421Y033097D02*
X015454Y033130D01*
X015487Y033130D01*
X015521Y033097D01*
X015521Y033030D01*
X015487Y032997D01*
X015454Y032997D01*
X015421Y033030D01*
X015320Y032909D02*
X015320Y032776D01*
X015320Y032842D02*
X015521Y032842D01*
X015454Y032776D01*
X015487Y032688D02*
X015421Y032688D01*
X015387Y032655D01*
X015387Y032555D01*
X015387Y032621D02*
X015320Y032688D01*
X015320Y032555D02*
X015521Y032555D01*
X015521Y032655D01*
X015487Y032688D01*
X015714Y032688D02*
X015781Y032621D01*
X015781Y032655D02*
X015781Y032555D01*
X015714Y032555D02*
X015914Y032555D01*
X015914Y032655D01*
X015881Y032688D01*
X015814Y032688D01*
X015781Y032655D01*
X015714Y032776D02*
X015848Y032909D01*
X015881Y032909D01*
X015914Y032876D01*
X015914Y032809D01*
X015881Y032776D01*
X015714Y032776D02*
X015714Y032909D01*
X015748Y032997D02*
X015881Y033130D01*
X015748Y033130D01*
X015714Y033097D01*
X015714Y033030D01*
X015748Y032997D01*
X015881Y032997D01*
X015914Y033030D01*
X015914Y033097D01*
X015881Y033130D01*
X016108Y033097D02*
X016141Y033130D01*
X016275Y033130D01*
X016308Y033097D01*
X016308Y033030D01*
X016275Y032997D01*
X016241Y032997D01*
X016208Y033030D01*
X016208Y033130D01*
X016108Y033097D02*
X016108Y033030D01*
X016141Y032997D01*
X016108Y032909D02*
X016108Y032776D01*
X016108Y032842D02*
X016308Y032842D01*
X016241Y032776D01*
X016208Y032688D02*
X016175Y032655D01*
X016175Y032555D01*
X016175Y032621D02*
X016108Y032688D01*
X016208Y032688D02*
X016275Y032688D01*
X016308Y032655D01*
X016308Y032555D01*
X016108Y032555D01*
X016065Y030235D02*
X015998Y030235D01*
X015965Y030202D01*
X016098Y030068D01*
X016065Y030035D01*
X015998Y030035D01*
X015965Y030068D01*
X015965Y030202D01*
X015877Y030202D02*
X015877Y030168D01*
X015844Y030135D01*
X015777Y030135D01*
X015744Y030102D01*
X015744Y030068D01*
X015777Y030035D01*
X015844Y030035D01*
X015877Y030068D01*
X015877Y030102D01*
X015844Y030135D01*
X015777Y030135D02*
X015744Y030168D01*
X015744Y030202D01*
X015777Y030235D01*
X015844Y030235D01*
X015877Y030202D01*
X016065Y030235D02*
X016098Y030202D01*
X016098Y030068D01*
X016186Y030035D02*
X016319Y030035D01*
X016253Y030035D02*
X016253Y030235D01*
X016319Y030168D01*
X016407Y030202D02*
X016440Y030235D01*
X016507Y030235D01*
X016540Y030202D01*
X016540Y030068D01*
X016507Y030035D01*
X016440Y030035D01*
X016407Y030068D01*
X015714Y029808D02*
X015714Y029675D01*
X015680Y029641D01*
X015613Y029641D01*
X015580Y029675D01*
X015493Y029641D02*
X015359Y029641D01*
X015426Y029641D02*
X015426Y029841D01*
X015493Y029775D01*
X015580Y029808D02*
X015613Y029841D01*
X015680Y029841D01*
X015714Y029808D01*
X015272Y029775D02*
X015205Y029841D01*
X015205Y029641D01*
X015272Y029641D02*
X015138Y029641D01*
X015051Y029641D02*
X015051Y029675D01*
X014917Y029808D01*
X014917Y029841D01*
X015051Y029841D01*
X019218Y026507D02*
X019218Y026440D01*
X019251Y026407D01*
X019218Y026319D02*
X019218Y026186D01*
X019218Y026252D02*
X019418Y026252D01*
X019352Y026186D01*
X019218Y026098D02*
X019218Y025965D01*
X019218Y026031D02*
X019418Y026031D01*
X019352Y025965D01*
X019385Y025877D02*
X019418Y025844D01*
X019418Y025777D01*
X019385Y025744D01*
X019251Y025744D01*
X019218Y025777D01*
X019218Y025844D01*
X019251Y025877D01*
X019612Y025849D02*
X019645Y025816D01*
X019612Y025849D02*
X019612Y025916D01*
X019645Y025950D01*
X019712Y025950D01*
X019745Y025916D01*
X019745Y025883D01*
X019712Y025816D01*
X019812Y025816D01*
X019812Y025950D01*
X019779Y025729D02*
X019812Y025695D01*
X019812Y025628D01*
X019779Y025595D01*
X019645Y025595D01*
X019779Y025729D01*
X019645Y025729D01*
X019612Y025695D01*
X019612Y025628D01*
X019645Y025595D01*
X019612Y025508D02*
X019612Y025374D01*
X019612Y025441D02*
X019812Y025441D01*
X019745Y025374D01*
X019779Y025287D02*
X019812Y025253D01*
X019812Y025186D01*
X019779Y025153D01*
X019645Y025153D01*
X019612Y025186D01*
X019612Y025253D01*
X019645Y025287D01*
X019385Y026407D02*
X019418Y026440D01*
X019418Y026507D01*
X019385Y026540D01*
X019352Y026540D01*
X019318Y026507D01*
X019285Y026540D01*
X019251Y026540D01*
X019218Y026507D01*
X019318Y026507D02*
X019318Y026473D01*
X020163Y023194D02*
X020163Y023060D01*
X020296Y023194D01*
X020330Y023194D01*
X020363Y023160D01*
X020363Y023094D01*
X020330Y023060D01*
X020330Y022973D02*
X020296Y022973D01*
X020263Y022939D01*
X020230Y022973D01*
X020196Y022973D01*
X020163Y022939D01*
X020163Y022873D01*
X020196Y022839D01*
X020163Y022752D02*
X020163Y022618D01*
X020163Y022685D02*
X020363Y022685D01*
X020296Y022618D01*
X020330Y022531D02*
X020363Y022497D01*
X020363Y022431D01*
X020330Y022397D01*
X020196Y022397D01*
X020163Y022431D01*
X020163Y022497D01*
X020196Y022531D01*
X020005Y022564D02*
X020005Y022431D01*
X019971Y022397D01*
X019905Y022397D01*
X019871Y022431D01*
X019784Y022397D02*
X019650Y022397D01*
X019717Y022397D02*
X019717Y022597D01*
X019784Y022531D01*
X019871Y022564D02*
X019905Y022597D01*
X019971Y022597D01*
X020005Y022564D01*
X020330Y022839D02*
X020363Y022873D01*
X020363Y022939D01*
X020330Y022973D01*
X020263Y022939D02*
X020263Y022906D01*
X019563Y022564D02*
X019530Y022597D01*
X019463Y022597D01*
X019429Y022564D01*
X019429Y022531D01*
X019563Y022397D01*
X019429Y022397D01*
X019342Y022397D02*
X019208Y022397D01*
X019275Y022397D02*
X019275Y022597D01*
X019342Y022531D01*
X021974Y022982D02*
X021974Y023048D01*
X022007Y023082D01*
X021974Y023169D02*
X021974Y023303D01*
X021974Y023236D02*
X022174Y023236D01*
X022107Y023169D01*
X022141Y023082D02*
X022174Y023048D01*
X022174Y022982D01*
X022141Y022948D01*
X022007Y022948D01*
X021974Y022982D01*
X022007Y023390D02*
X021974Y023424D01*
X021974Y023490D01*
X022007Y023524D01*
X022041Y023524D01*
X022074Y023490D01*
X022074Y023457D01*
X022074Y023490D02*
X022107Y023524D01*
X022141Y023524D01*
X022174Y023490D01*
X022174Y023424D01*
X022141Y023390D01*
X022141Y023611D02*
X022174Y023645D01*
X022174Y023711D01*
X022141Y023745D01*
X022107Y023745D01*
X022074Y023711D01*
X022041Y023745D01*
X022007Y023745D01*
X021974Y023711D01*
X021974Y023645D01*
X022007Y023611D01*
X022074Y023678D02*
X022074Y023711D01*
X025099Y026722D02*
X025099Y026855D01*
X025132Y026889D01*
X025199Y026889D01*
X025232Y026855D01*
X025232Y026822D01*
X025199Y026789D01*
X025099Y026789D01*
X025099Y026722D02*
X025132Y026689D01*
X025199Y026689D01*
X025232Y026722D01*
X025320Y026689D02*
X025453Y026689D01*
X025320Y026822D01*
X025320Y026855D01*
X025353Y026889D01*
X025420Y026889D01*
X025453Y026855D01*
X025541Y026855D02*
X025574Y026889D01*
X025641Y026889D01*
X025674Y026855D01*
X025674Y026722D01*
X025641Y026689D01*
X025574Y026689D01*
X025541Y026722D01*
X025580Y027673D02*
X025647Y027740D01*
X025613Y027740D02*
X025714Y027740D01*
X025714Y027673D02*
X025714Y027873D01*
X025613Y027873D01*
X025580Y027840D01*
X025580Y027773D01*
X025613Y027740D01*
X025493Y027706D02*
X025459Y027673D01*
X025392Y027673D01*
X025359Y027706D01*
X025359Y027740D01*
X025392Y027773D01*
X025426Y027773D01*
X025392Y027773D02*
X025359Y027806D01*
X025359Y027840D01*
X025392Y027873D01*
X025459Y027873D01*
X025493Y027840D01*
X025272Y027806D02*
X025205Y027873D01*
X025205Y027673D01*
X025272Y027673D02*
X025138Y027673D01*
X025177Y028696D02*
X025311Y028696D01*
X025177Y028830D01*
X025177Y028863D01*
X025211Y028897D01*
X025278Y028897D01*
X025311Y028863D01*
X025398Y028863D02*
X025398Y028830D01*
X025432Y028797D01*
X025398Y028763D01*
X025398Y028730D01*
X025432Y028696D01*
X025499Y028696D01*
X025532Y028730D01*
X025619Y028696D02*
X025686Y028763D01*
X025653Y028763D02*
X025753Y028763D01*
X025753Y028696D02*
X025753Y028897D01*
X025653Y028897D01*
X025619Y028863D01*
X025619Y028797D01*
X025653Y028763D01*
X025532Y028863D02*
X025499Y028897D01*
X025432Y028897D01*
X025398Y028863D01*
X025432Y028797D02*
X025465Y028797D01*
X025756Y021810D02*
X025756Y021610D01*
X025823Y021610D02*
X025689Y021610D01*
X025723Y021495D02*
X025789Y021495D01*
X025823Y021462D01*
X025910Y021462D02*
X025944Y021495D01*
X026010Y021495D01*
X026044Y021462D01*
X026131Y021462D02*
X026131Y021395D01*
X026165Y021362D01*
X026265Y021362D01*
X026198Y021362D02*
X026131Y021295D01*
X026044Y021295D02*
X025910Y021428D01*
X025910Y021462D01*
X025910Y021610D02*
X026044Y021610D01*
X025910Y021743D01*
X025910Y021777D01*
X025944Y021810D01*
X026010Y021810D01*
X026044Y021777D01*
X026131Y021777D02*
X026131Y021710D01*
X026165Y021677D01*
X026265Y021677D01*
X026198Y021677D02*
X026131Y021610D01*
X026165Y021495D02*
X026131Y021462D01*
X026165Y021495D02*
X026265Y021495D01*
X026265Y021295D01*
X026044Y021295D02*
X025910Y021295D01*
X025823Y021295D02*
X025689Y021428D01*
X025689Y021462D01*
X025723Y021495D01*
X025689Y021295D02*
X025823Y021295D01*
X025789Y021023D02*
X025723Y021023D01*
X025689Y020989D01*
X025689Y020956D01*
X025723Y020923D01*
X025689Y020889D01*
X025689Y020856D01*
X025723Y020822D01*
X025789Y020822D01*
X025823Y020856D01*
X025910Y020822D02*
X026044Y020822D01*
X025910Y020956D01*
X025910Y020989D01*
X025944Y021023D01*
X026010Y021023D01*
X026044Y020989D01*
X026131Y020989D02*
X026131Y020923D01*
X026165Y020889D01*
X026265Y020889D01*
X026265Y020822D02*
X026265Y021023D01*
X026165Y021023D01*
X026131Y020989D01*
X026198Y020889D02*
X026131Y020822D01*
X026165Y020708D02*
X026131Y020674D01*
X026131Y020608D01*
X026165Y020574D01*
X026265Y020574D01*
X026265Y020507D02*
X026265Y020708D01*
X026165Y020708D01*
X026044Y020674D02*
X026010Y020708D01*
X025944Y020708D01*
X025910Y020674D01*
X025910Y020641D01*
X026044Y020507D01*
X025910Y020507D01*
X025910Y020393D02*
X025910Y020359D01*
X026044Y020226D01*
X026044Y020193D01*
X026131Y020193D02*
X026198Y020259D01*
X026165Y020259D02*
X026265Y020259D01*
X026265Y020193D02*
X026265Y020393D01*
X026165Y020393D01*
X026131Y020359D01*
X026131Y020293D01*
X026165Y020259D01*
X026044Y020393D02*
X025910Y020393D01*
X025723Y020507D02*
X025723Y020708D01*
X025823Y020608D01*
X025689Y020608D01*
X025723Y020923D02*
X025756Y020923D01*
X025823Y020989D02*
X025789Y021023D01*
X026198Y020574D02*
X026131Y020507D01*
X026265Y021610D02*
X026265Y021810D01*
X026165Y021810D01*
X026131Y021777D01*
X025823Y021743D02*
X025756Y021810D01*
X018036Y036767D02*
X018036Y036967D01*
X017936Y036967D01*
X017903Y036934D01*
X017903Y036867D01*
X017936Y036834D01*
X018036Y036834D01*
X017970Y036834D02*
X017903Y036767D01*
X017815Y036767D02*
X017682Y036901D01*
X017682Y036934D01*
X017715Y036967D01*
X017782Y036967D01*
X017815Y036934D01*
X017815Y036767D02*
X017682Y036767D01*
X017594Y036801D02*
X017561Y036767D01*
X017494Y036767D01*
X017461Y036801D01*
X017461Y036867D01*
X017494Y036901D01*
X017528Y036901D01*
X017594Y036867D01*
X017594Y036967D01*
X017461Y036967D01*
D13*
X017873Y037781D02*
X017873Y038431D01*
X017875Y038448D01*
X017879Y038465D01*
X017886Y038481D01*
X017896Y038495D01*
X017909Y038508D01*
X017923Y038518D01*
X017939Y038525D01*
X017956Y038529D01*
X017973Y038531D01*
X017873Y037781D02*
X017875Y037764D01*
X017879Y037747D01*
X017886Y037731D01*
X017896Y037717D01*
X017909Y037704D01*
X017923Y037694D01*
X017939Y037687D01*
X017956Y037683D01*
X017973Y037681D01*
X018573Y037681D02*
X018590Y037683D01*
X018607Y037687D01*
X018623Y037694D01*
X018637Y037704D01*
X018650Y037717D01*
X018660Y037731D01*
X018667Y037747D01*
X018671Y037764D01*
X018673Y037781D01*
X018673Y038431D01*
X018671Y038448D01*
X018667Y038465D01*
X018660Y038481D01*
X018650Y038495D01*
X018637Y038508D01*
X018623Y038518D01*
X018607Y038525D01*
X018590Y038529D01*
X018573Y038531D01*
X024041Y034661D02*
X024671Y034661D01*
X024671Y034660D02*
X024687Y034655D01*
X024703Y034647D01*
X024717Y034637D01*
X024729Y034625D01*
X024739Y034610D01*
X024746Y034594D01*
X024750Y034577D01*
X024751Y034560D01*
X024749Y034542D01*
X024749Y033992D02*
X024751Y033974D01*
X024750Y033957D01*
X024746Y033940D01*
X024739Y033924D01*
X024729Y033909D01*
X024717Y033897D01*
X024703Y033887D01*
X024687Y033879D01*
X024671Y033874D01*
X024671Y033873D02*
X024041Y033873D01*
X024040Y033874D02*
X024024Y033879D01*
X024008Y033887D01*
X023994Y033897D01*
X023982Y033909D01*
X023972Y033924D01*
X023965Y033940D01*
X023961Y033957D01*
X023960Y033974D01*
X023962Y033992D01*
X023962Y034542D02*
X023960Y034560D01*
X023961Y034577D01*
X023965Y034594D01*
X023972Y034610D01*
X023982Y034625D01*
X023994Y034637D01*
X024008Y034647D01*
X024024Y034655D01*
X024040Y034660D01*
X024970Y033850D02*
X024970Y032637D01*
X025482Y032243D02*
X026458Y032243D01*
X026970Y032637D02*
X026970Y033850D01*
X026458Y034243D02*
X025470Y034243D01*
X025470Y033243D02*
X025472Y033287D01*
X025478Y033331D01*
X025488Y033374D01*
X025501Y033416D01*
X025518Y033457D01*
X025539Y033496D01*
X025563Y033533D01*
X025590Y033568D01*
X025620Y033600D01*
X025653Y033630D01*
X025689Y033656D01*
X025726Y033680D01*
X025766Y033699D01*
X025807Y033716D01*
X025850Y033728D01*
X025893Y033737D01*
X025937Y033742D01*
X025981Y033743D01*
X026025Y033740D01*
X026069Y033733D01*
X026112Y033722D01*
X026154Y033708D01*
X026194Y033690D01*
X026233Y033668D01*
X026269Y033644D01*
X026303Y033616D01*
X026335Y033585D01*
X026364Y033551D01*
X026390Y033515D01*
X026412Y033477D01*
X026431Y033437D01*
X026446Y033395D01*
X026458Y033353D01*
X026466Y033309D01*
X026470Y033265D01*
X026470Y033221D01*
X026466Y033177D01*
X026458Y033133D01*
X026446Y033091D01*
X026431Y033049D01*
X026412Y033009D01*
X026390Y032971D01*
X026364Y032935D01*
X026335Y032901D01*
X026303Y032870D01*
X026269Y032842D01*
X026233Y032818D01*
X026194Y032796D01*
X026154Y032778D01*
X026112Y032764D01*
X026069Y032753D01*
X026025Y032746D01*
X025981Y032743D01*
X025937Y032744D01*
X025893Y032749D01*
X025850Y032758D01*
X025807Y032770D01*
X025766Y032787D01*
X025726Y032806D01*
X025689Y032830D01*
X025653Y032856D01*
X025620Y032886D01*
X025590Y032918D01*
X025563Y032953D01*
X025539Y032990D01*
X025518Y033029D01*
X025501Y033070D01*
X025488Y033112D01*
X025478Y033155D01*
X025472Y033199D01*
X025470Y033243D01*
X026901Y031735D02*
X026651Y031485D01*
X026651Y030985D01*
X026901Y030735D01*
X026651Y030485D01*
X026651Y029985D01*
X026901Y029735D01*
X026651Y029485D01*
X026651Y028985D01*
X026901Y028735D01*
X026651Y028485D01*
X026651Y027985D01*
X026901Y027735D01*
X026651Y027485D01*
X026651Y026985D01*
X026901Y026735D01*
X026651Y026485D01*
X026651Y025985D01*
X026901Y025735D01*
X027401Y025735D01*
X027651Y025985D01*
X027651Y026485D01*
X027401Y026735D01*
X027651Y026985D01*
X027651Y027485D01*
X027401Y027735D01*
X027651Y027985D01*
X027651Y028485D01*
X027401Y028735D01*
X027651Y028985D01*
X027651Y029485D01*
X027401Y029735D01*
X027651Y029985D01*
X027651Y030485D01*
X027401Y030735D01*
X027651Y030985D01*
X027651Y031485D01*
X027401Y031735D01*
X026901Y031735D01*
X025013Y029135D02*
X025013Y028995D01*
X025013Y029065D02*
X024592Y029065D01*
X024592Y028995D02*
X024592Y029135D01*
X024662Y028815D02*
X024943Y028815D01*
X025013Y028745D01*
X025013Y028535D01*
X024592Y028535D01*
X024592Y028745D01*
X024662Y028815D01*
X025013Y028355D02*
X025013Y028074D01*
X025013Y028215D02*
X024592Y028215D01*
X024803Y027754D02*
X024803Y027614D01*
X025013Y027614D02*
X024592Y027614D01*
X025013Y027614D02*
X025013Y027894D01*
X017505Y014464D02*
X017505Y014306D01*
X017505Y014464D02*
X017348Y014464D01*
X016403Y014464D02*
X016245Y014464D01*
X016245Y014306D01*
X016245Y013361D02*
X016245Y013204D01*
X016403Y013204D01*
X017348Y013204D02*
X017505Y013361D01*
X025251Y003486D02*
X025901Y003486D01*
X025918Y003484D01*
X025935Y003480D01*
X025951Y003473D01*
X025965Y003463D01*
X025978Y003450D01*
X025988Y003436D01*
X025995Y003420D01*
X025999Y003403D01*
X026001Y003386D01*
X026001Y002786D02*
X025999Y002769D01*
X025995Y002752D01*
X025988Y002736D01*
X025978Y002722D01*
X025965Y002709D01*
X025951Y002699D01*
X025935Y002692D01*
X025918Y002688D01*
X025901Y002686D01*
X025251Y002686D01*
X025234Y002688D01*
X025217Y002692D01*
X025201Y002699D01*
X025187Y002709D01*
X025174Y002722D01*
X025164Y002736D01*
X025157Y002752D01*
X025153Y002769D01*
X025151Y002786D01*
X025151Y003386D02*
X025153Y003403D01*
X025157Y003420D01*
X025164Y003436D01*
X025174Y003450D01*
X025187Y003463D01*
X025201Y003473D01*
X025217Y003480D01*
X025234Y003484D01*
X025251Y003486D01*
X007558Y023547D02*
X007808Y023797D01*
X007808Y024297D01*
X007558Y024547D01*
X007808Y024797D01*
X007808Y025297D01*
X007558Y025547D01*
X007808Y025797D01*
X007808Y026297D01*
X007558Y026547D01*
X007808Y026797D01*
X007808Y027297D01*
X007558Y027547D01*
X007058Y027547D01*
X006808Y027297D01*
X006808Y026797D01*
X007058Y026547D01*
X006808Y026297D01*
X006808Y025797D01*
X007058Y025547D01*
X006808Y025297D01*
X006808Y024797D01*
X007058Y024547D01*
X006808Y024297D01*
X006808Y023797D01*
X007058Y023547D01*
X007558Y023547D01*
X003635Y019399D02*
X003635Y018899D01*
X003385Y018649D01*
X003635Y018399D01*
X003635Y017899D01*
X003385Y017649D01*
X002885Y017649D01*
X002635Y017899D01*
X002635Y018399D01*
X002885Y018649D01*
X002635Y018899D01*
X002635Y019399D01*
X002885Y019649D01*
X003385Y019649D01*
X003635Y019399D01*
X008355Y029719D02*
X008357Y029734D01*
X008363Y029747D01*
X008372Y029759D01*
X008383Y029768D01*
X008397Y029774D01*
X008412Y029776D01*
X008427Y029774D01*
X008440Y029768D01*
X008452Y029759D01*
X008461Y029748D01*
X008467Y029734D01*
X008469Y029719D01*
X008467Y029704D01*
X008461Y029691D01*
X008452Y029679D01*
X008441Y029670D01*
X008427Y029664D01*
X008412Y029662D01*
X008397Y029664D01*
X008384Y029670D01*
X008372Y029679D01*
X008363Y029690D01*
X008357Y029704D01*
X008355Y029719D01*
X006935Y032398D02*
X006937Y032413D01*
X006943Y032426D01*
X006952Y032438D01*
X006963Y032447D01*
X006977Y032453D01*
X006992Y032455D01*
X007007Y032453D01*
X007020Y032447D01*
X007032Y032438D01*
X007041Y032427D01*
X007047Y032413D01*
X007049Y032398D01*
X007047Y032383D01*
X007041Y032370D01*
X007032Y032358D01*
X007021Y032349D01*
X007007Y032343D01*
X006992Y032341D01*
X006977Y032343D01*
X006964Y032349D01*
X006952Y032358D01*
X006943Y032369D01*
X006937Y032383D01*
X006935Y032398D01*
X005694Y034060D02*
X010222Y034060D01*
X010222Y038283D02*
X010222Y039789D01*
X004198Y039789D01*
X003529Y039070D02*
X003529Y038283D01*
X004178Y038283D01*
X004179Y038283D02*
X004252Y038171D01*
X004321Y038056D01*
X004383Y037937D01*
X004440Y037815D01*
X004490Y037691D01*
X004535Y037565D01*
X004573Y037437D01*
X004605Y037306D01*
X004631Y037175D01*
X004651Y037042D01*
X004664Y036909D01*
X004670Y036775D01*
X004670Y036641D01*
X004664Y036507D01*
X004651Y036374D01*
X004631Y036241D01*
X004605Y036110D01*
X004573Y035979D01*
X004535Y035851D01*
X004490Y035725D01*
X004440Y035601D01*
X004383Y035479D01*
X004321Y035360D01*
X004252Y035245D01*
X004179Y035133D01*
X004178Y035133D02*
X003922Y035133D01*
X003922Y034739D01*
X004552Y034060D02*
X004946Y034060D01*
X005891Y008322D02*
X005891Y007692D01*
X005897Y007674D01*
X005906Y007656D01*
X005918Y007641D01*
X005934Y007629D01*
X005951Y007620D01*
X005970Y007614D01*
X005989Y007612D01*
X006009Y007614D01*
X006560Y007614D02*
X006578Y007612D01*
X006595Y007613D01*
X006612Y007617D01*
X006628Y007624D01*
X006643Y007634D01*
X006655Y007646D01*
X006665Y007660D01*
X006673Y007676D01*
X006678Y007692D01*
X006678Y008322D01*
X006678Y007692D01*
X006679Y007692D02*
X006685Y007674D01*
X006694Y007656D01*
X006706Y007641D01*
X006722Y007629D01*
X006739Y007620D01*
X006758Y007614D01*
X006777Y007612D01*
X006797Y007614D01*
X007347Y007614D02*
X007365Y007612D01*
X007382Y007613D01*
X007399Y007617D01*
X007415Y007624D01*
X007430Y007634D01*
X007442Y007646D01*
X007452Y007660D01*
X007460Y007676D01*
X007465Y007692D01*
X007466Y007692D02*
X007466Y008322D01*
X007465Y008322D02*
X007460Y008338D01*
X007452Y008354D01*
X007442Y008368D01*
X007430Y008380D01*
X007415Y008390D01*
X007399Y008397D01*
X007382Y008401D01*
X007365Y008402D01*
X007347Y008400D01*
X006797Y008400D02*
X006777Y008402D01*
X006758Y008400D01*
X006739Y008394D01*
X006722Y008385D01*
X006706Y008373D01*
X006694Y008358D01*
X006685Y008340D01*
X006679Y008322D01*
X006678Y008322D02*
X006673Y008338D01*
X006665Y008354D01*
X006655Y008368D01*
X006643Y008380D01*
X006628Y008390D01*
X006612Y008397D01*
X006595Y008401D01*
X006578Y008402D01*
X006560Y008400D01*
X006009Y008400D02*
X005989Y008402D01*
X005970Y008400D01*
X005951Y008394D01*
X005934Y008385D01*
X005918Y008373D01*
X005906Y008358D01*
X005897Y008340D01*
X005891Y008322D01*
X005448Y005694D02*
X003873Y005694D01*
X003873Y005635D01*
X003873Y004159D01*
X003873Y004100D01*
X005448Y004100D01*
X005448Y004306D01*
X005448Y005487D01*
X005448Y005694D01*
D14*
X024854Y019172D03*
X025207Y018995D03*
X025553Y019165D03*
X025566Y020104D03*
X024860Y020110D03*
D15*
X024955Y020161D03*
X025459Y019115D03*
X025207Y019002D03*
D16*
X025207Y019008D03*
X025093Y019569D03*
X025326Y019707D03*
D17*
X025106Y019587D03*
X025207Y020261D03*
X025207Y019014D03*
D18*
X025207Y019021D03*
D19*
X025207Y019027D03*
X025207Y020249D03*
D20*
X025207Y019033D03*
D21*
X025207Y019039D03*
X025207Y020236D03*
D22*
X025207Y019046D03*
D23*
X025207Y019052D03*
D24*
X025207Y019058D03*
D25*
X025207Y019065D03*
D26*
X025207Y019071D03*
X025207Y020205D03*
D27*
X025191Y019669D03*
X025197Y019657D03*
X025210Y019638D03*
X025216Y019625D03*
X025210Y019077D03*
D28*
X025207Y019084D03*
D29*
X025207Y019090D03*
X025207Y020186D03*
D30*
X025207Y019096D03*
D31*
X025402Y019102D03*
X025011Y019102D03*
X025320Y019701D03*
D32*
X025090Y019556D03*
X024977Y019109D03*
X025437Y019109D03*
X025443Y020167D03*
X024971Y020167D03*
D33*
X025462Y020161D03*
X025336Y019726D03*
X025090Y019550D03*
X024958Y019115D03*
D34*
X025474Y019121D03*
X024939Y020154D03*
D35*
X025478Y020154D03*
X024942Y019121D03*
D36*
X024926Y019128D03*
X025487Y019128D03*
X025493Y020148D03*
D37*
X025503Y020142D03*
X024911Y020142D03*
X025503Y019134D03*
D38*
X025512Y019140D03*
X025084Y019537D03*
X025336Y019739D03*
X024914Y019134D03*
D39*
X024904Y019140D03*
X024892Y019147D03*
X024967Y019688D03*
X024898Y020135D03*
X025515Y020135D03*
D40*
X025525Y020129D03*
X025537Y020123D03*
X025456Y019587D03*
X025525Y019147D03*
X024889Y020129D03*
D41*
X024879Y020123D03*
X025207Y020280D03*
X025339Y019745D03*
X025547Y020117D03*
X025534Y019153D03*
X024879Y019153D03*
D42*
X024870Y019159D03*
X024863Y019165D03*
X025084Y019531D03*
X024952Y019695D03*
X024870Y020117D03*
X025462Y019581D03*
X025544Y019159D03*
X025556Y020110D03*
D43*
X025575Y020098D03*
X025582Y020091D03*
X025468Y019575D03*
X025569Y019178D03*
X025563Y019172D03*
X024845Y019178D03*
X024838Y019184D03*
X024945Y019701D03*
X024845Y020098D03*
X024851Y020104D03*
D44*
X024835Y020091D03*
X024829Y020085D03*
X025081Y019524D03*
X025345Y019751D03*
X025597Y020079D03*
X025591Y020085D03*
X025585Y019191D03*
X025578Y019184D03*
X024829Y019191D03*
X024822Y019197D03*
D45*
X024813Y019203D03*
X024807Y019210D03*
X024945Y019707D03*
X024813Y020073D03*
X024819Y020079D03*
X025600Y019203D03*
X025594Y019197D03*
D46*
X025610Y019210D03*
X025616Y019216D03*
X025622Y019222D03*
X025465Y019569D03*
X025616Y020060D03*
X025610Y020066D03*
X025604Y020073D03*
X024804Y020066D03*
X024797Y020060D03*
X024791Y020054D03*
X024785Y020047D03*
X024804Y019216D03*
D47*
X024794Y019222D03*
X024788Y019228D03*
X024782Y019235D03*
X024775Y019241D03*
X024782Y020041D03*
X025626Y020054D03*
X025632Y020047D03*
X025638Y020041D03*
X025626Y019228D03*
D48*
X025635Y019235D03*
X025641Y019241D03*
X025648Y019247D03*
X025654Y019254D03*
X025345Y019758D03*
X025081Y019518D03*
X024942Y019713D03*
X024759Y020022D03*
X024766Y020028D03*
X024772Y020035D03*
X024753Y019266D03*
X024759Y019260D03*
X024766Y019254D03*
X024772Y019247D03*
X025641Y020035D03*
X025648Y020028D03*
X025654Y020022D03*
X025660Y020016D03*
D49*
X025663Y020010D03*
X025670Y020003D03*
X025676Y019997D03*
X025468Y019562D03*
X025670Y019273D03*
X025663Y019266D03*
X025657Y019260D03*
X024750Y019273D03*
X024744Y019279D03*
X024737Y019285D03*
X024731Y019984D03*
X024737Y019991D03*
X024744Y019997D03*
X024744Y020003D03*
X024750Y020010D03*
X024756Y020016D03*
D50*
X024728Y019978D03*
X024722Y019972D03*
X024715Y019959D03*
X024709Y019953D03*
X024709Y019329D03*
X024715Y019317D03*
X024722Y019310D03*
X024728Y019304D03*
X024728Y019298D03*
X024734Y019291D03*
X025673Y019279D03*
X025679Y019285D03*
X025685Y019291D03*
X025685Y019298D03*
X025692Y019304D03*
X025704Y019323D03*
X025698Y019965D03*
X025692Y019978D03*
X025685Y019984D03*
X025679Y019991D03*
D51*
X025695Y019972D03*
X025701Y019959D03*
X025708Y019953D03*
X025714Y019940D03*
X025720Y019348D03*
X025714Y019335D03*
X025708Y019329D03*
X025701Y019317D03*
X025695Y019310D03*
X024945Y019720D03*
X024681Y019902D03*
X024687Y019915D03*
X024693Y019921D03*
X024693Y019928D03*
X024700Y019934D03*
X024700Y019940D03*
X024706Y019947D03*
X024719Y019965D03*
X024687Y019367D03*
X024693Y019354D03*
X024700Y019342D03*
X024706Y019335D03*
X024712Y019323D03*
D52*
X024697Y019348D03*
X024690Y019361D03*
X024684Y019373D03*
X024678Y019380D03*
X024678Y019386D03*
X024671Y019398D03*
X024665Y019411D03*
X024659Y019852D03*
X024665Y019865D03*
X024665Y019871D03*
X024671Y019877D03*
X024671Y019884D03*
X024678Y019890D03*
X024678Y019896D03*
X024684Y019909D03*
X025465Y019556D03*
X025748Y019405D03*
X025742Y019392D03*
X025736Y019380D03*
X025736Y019373D03*
X025730Y019367D03*
X025730Y019361D03*
X025723Y019354D03*
X025717Y019342D03*
X025748Y019877D03*
X025742Y019890D03*
X025736Y019902D03*
X025730Y019909D03*
X025730Y019915D03*
X025723Y019921D03*
X025723Y019928D03*
X025717Y019934D03*
X025711Y019947D03*
D53*
X025739Y019896D03*
X025745Y019884D03*
X025752Y019871D03*
X025752Y019865D03*
X025758Y019858D03*
X025758Y019852D03*
X025764Y019839D03*
X025764Y019833D03*
X025771Y019821D03*
X025771Y019814D03*
X025777Y019795D03*
X025771Y019461D03*
X025764Y019443D03*
X025758Y019430D03*
X025758Y019424D03*
X025752Y019417D03*
X025752Y019411D03*
X025745Y019398D03*
X025739Y019386D03*
X025348Y019764D03*
X024945Y019726D03*
X024649Y019821D03*
X024649Y019827D03*
X024649Y019833D03*
X024656Y019839D03*
X024656Y019846D03*
X024662Y019858D03*
X024643Y019814D03*
X024643Y019808D03*
X024643Y019802D03*
X024637Y019789D03*
X024637Y019783D03*
X024630Y019758D03*
X024630Y019524D03*
X024637Y019499D03*
X024637Y019493D03*
X024643Y019474D03*
X024643Y019468D03*
X024649Y019461D03*
X024649Y019455D03*
X024649Y019449D03*
X024656Y019443D03*
X024656Y019436D03*
X024656Y019430D03*
X024662Y019424D03*
X024662Y019417D03*
X024668Y019405D03*
X024674Y019392D03*
D54*
X024640Y019480D03*
X024640Y019487D03*
X024634Y019506D03*
X024634Y019512D03*
X024634Y019518D03*
X024627Y019531D03*
X024627Y019537D03*
X024627Y019543D03*
X024627Y019550D03*
X024627Y019556D03*
X024621Y019569D03*
X024621Y019575D03*
X024621Y019581D03*
X024621Y019587D03*
X024621Y019594D03*
X024621Y019600D03*
X024621Y019606D03*
X024621Y019613D03*
X024621Y019619D03*
X024621Y019625D03*
X024621Y019657D03*
X024621Y019663D03*
X024621Y019669D03*
X024621Y019676D03*
X024621Y019682D03*
X024621Y019688D03*
X024621Y019695D03*
X024621Y019701D03*
X024621Y019707D03*
X024621Y019713D03*
X024627Y019726D03*
X024627Y019732D03*
X024627Y019739D03*
X024627Y019745D03*
X024627Y019751D03*
X024634Y019764D03*
X024634Y019770D03*
X024634Y019776D03*
X024640Y019795D03*
X025081Y019512D03*
X025465Y019550D03*
X025774Y019480D03*
X025774Y019474D03*
X025774Y019468D03*
X025767Y019455D03*
X025767Y019449D03*
X025761Y019436D03*
X025780Y019487D03*
X025780Y019493D03*
X025780Y019499D03*
X025780Y019506D03*
X025786Y019512D03*
X025786Y019518D03*
X025786Y019524D03*
X025786Y019531D03*
X025793Y019550D03*
X025793Y019556D03*
X025793Y019562D03*
X025793Y019713D03*
X025793Y019720D03*
X025793Y019726D03*
X025786Y019751D03*
X025786Y019758D03*
X025786Y019764D03*
X025780Y019776D03*
X025780Y019783D03*
X025780Y019789D03*
X025774Y019802D03*
X025774Y019808D03*
X025767Y019827D03*
X025761Y019846D03*
D55*
X025449Y019506D03*
X024964Y019776D03*
D56*
X025081Y019506D03*
X025345Y019770D03*
D57*
X025452Y019512D03*
D58*
X025452Y019518D03*
D59*
X025456Y019524D03*
D60*
X025459Y019531D03*
X024955Y019751D03*
D61*
X024624Y019720D03*
X024618Y019650D03*
X024618Y019644D03*
X024618Y019638D03*
X024618Y019632D03*
X024624Y019562D03*
X025789Y019543D03*
X025789Y019537D03*
X025796Y019569D03*
X025796Y019575D03*
X025796Y019581D03*
X025796Y019587D03*
X025796Y019594D03*
X025796Y019600D03*
X025796Y019606D03*
X025796Y019613D03*
X025796Y019619D03*
X025796Y019625D03*
X025796Y019632D03*
X025796Y019638D03*
X025796Y019644D03*
X025796Y019650D03*
X025796Y019657D03*
X025796Y019663D03*
X025796Y019669D03*
X025796Y019676D03*
X025796Y019682D03*
X025796Y019688D03*
X025796Y019695D03*
X025796Y019701D03*
X025796Y019707D03*
X025789Y019732D03*
X025789Y019739D03*
X025789Y019745D03*
X025783Y019770D03*
D62*
X025462Y019537D03*
D63*
X025462Y019543D03*
D64*
X025339Y019732D03*
X025087Y019543D03*
X024923Y020148D03*
D65*
X025090Y019562D03*
X025330Y019713D03*
D66*
X025100Y019575D03*
X025207Y020268D03*
D67*
X025103Y019581D03*
D68*
X025229Y019606D03*
X025235Y019594D03*
D69*
X025232Y019600D03*
X025226Y019613D03*
X025219Y019619D03*
X025213Y019632D03*
X025207Y019644D03*
X025200Y019650D03*
X025194Y019663D03*
X025188Y019676D03*
X025182Y019682D03*
D70*
X025304Y019688D03*
D71*
X025317Y019695D03*
D72*
X025333Y019720D03*
X025207Y020274D03*
D73*
X024948Y019732D03*
D74*
X024948Y019739D03*
D75*
X024952Y019745D03*
D76*
X024958Y019758D03*
D77*
X024958Y019764D03*
D78*
X024961Y019770D03*
D79*
X025002Y020173D03*
X025411Y020173D03*
D80*
X025207Y020180D03*
D81*
X025207Y020192D03*
D82*
X025207Y020198D03*
D83*
X025210Y020211D03*
D84*
X025207Y020217D03*
D85*
X025207Y020224D03*
D86*
X025210Y020230D03*
D87*
X025207Y020243D03*
D88*
X025210Y020255D03*
D89*
X025210Y020891D03*
D90*
X025210Y018391D03*
D91*
X017427Y028362D02*
X017429Y028392D01*
X017435Y028422D01*
X017444Y028451D01*
X017457Y028478D01*
X017474Y028503D01*
X017493Y028526D01*
X017516Y028547D01*
X017541Y028564D01*
X017567Y028578D01*
X017596Y028588D01*
X017625Y028595D01*
X017655Y028598D01*
X017686Y028597D01*
X017716Y028592D01*
X017745Y028583D01*
X017772Y028571D01*
X017798Y028556D01*
X017822Y028537D01*
X017843Y028515D01*
X017861Y028491D01*
X017876Y028464D01*
X017887Y028436D01*
X017895Y028407D01*
X017899Y028377D01*
X017899Y028347D01*
X017895Y028317D01*
X017887Y028288D01*
X017876Y028260D01*
X017861Y028233D01*
X017843Y028209D01*
X017822Y028187D01*
X017798Y028168D01*
X017772Y028153D01*
X017745Y028141D01*
X017716Y028132D01*
X017686Y028127D01*
X017655Y028126D01*
X017625Y028129D01*
X017596Y028136D01*
X017567Y028146D01*
X017541Y028160D01*
X017516Y028177D01*
X017493Y028198D01*
X017474Y028221D01*
X017457Y028246D01*
X017444Y028273D01*
X017435Y028302D01*
X017429Y028332D01*
X017427Y028362D01*
D92*
X024631Y012102D02*
X024789Y012102D01*
X024789Y008873D02*
X024631Y008873D01*
X008312Y004444D02*
X008312Y004267D01*
X008312Y004444D02*
X008135Y004444D01*
X007190Y004444D02*
X007013Y004444D01*
X007013Y004267D01*
X007013Y002928D02*
X007013Y002850D01*
X007111Y002850D01*
X007111Y002751D01*
X007013Y002751D01*
X007013Y002850D01*
X007111Y002751D02*
X007190Y002751D01*
X008155Y002751D02*
X008312Y002751D01*
X008312Y002928D01*
D93*
X005448Y004306D02*
X005202Y004306D01*
X005202Y004110D01*
X005202Y004552D02*
X005399Y004552D01*
X005202Y004552D02*
X005202Y004749D01*
X005399Y004749D01*
X005399Y005045D02*
X005202Y005045D01*
X005202Y005241D01*
X005399Y005241D01*
X005448Y005487D02*
X005202Y005487D01*
X005202Y005684D01*
X004513Y005389D02*
X004513Y004405D01*
X004267Y004405D01*
X004267Y004306D01*
X004021Y004306D01*
X003873Y004159D01*
X004021Y004306D02*
X004021Y005487D01*
X003873Y005635D01*
X004021Y005487D02*
X004267Y005487D01*
X004267Y005389D01*
X004513Y005389D01*
X004267Y005487D02*
X004267Y005684D01*
X004267Y004306D02*
X004267Y004110D01*
D94*
X004341Y004651D03*
X004341Y005143D03*
D95*
X005002Y008288D03*
X005002Y008789D03*
X003426Y008789D03*
X003426Y008288D03*
D96*
X003226Y008493D03*
X003226Y008498D03*
X003231Y008513D03*
X003231Y008518D03*
X003231Y008523D03*
X003231Y008528D03*
X003231Y008534D03*
X003231Y008539D03*
X003231Y008544D03*
X003231Y008549D03*
X003231Y008554D03*
X003231Y008559D03*
X003231Y008564D03*
X003226Y008580D03*
X003226Y008585D03*
X003687Y008585D03*
X003687Y008580D03*
X003692Y008564D03*
X003692Y008559D03*
X003692Y008554D03*
X003692Y008549D03*
X003692Y008544D03*
X003692Y008539D03*
X003692Y008534D03*
X003692Y008528D03*
X003692Y008523D03*
X003692Y008518D03*
X003692Y008513D03*
X003687Y008498D03*
X003687Y008493D03*
X004158Y008477D03*
X004158Y008472D03*
X004158Y008467D03*
X004158Y008462D03*
X004158Y008457D03*
X004158Y008452D03*
X004158Y008447D03*
X004158Y008441D03*
X004158Y008436D03*
X004158Y008431D03*
X004158Y008426D03*
X004158Y008421D03*
X004158Y008416D03*
X004158Y008411D03*
X004158Y008406D03*
X004306Y008431D03*
X004306Y008436D03*
X004306Y008441D03*
X004306Y008447D03*
X004306Y008452D03*
X004158Y008600D03*
X004158Y008605D03*
X004158Y008610D03*
X004158Y008615D03*
X004158Y008621D03*
X004158Y008626D03*
X004158Y008631D03*
X004158Y008636D03*
X004158Y008641D03*
X004158Y008646D03*
X004158Y008651D03*
X004158Y008656D03*
X004158Y008661D03*
X004158Y008667D03*
X004158Y008672D03*
X004659Y008646D03*
X004659Y008641D03*
X004659Y008636D03*
X004659Y008631D03*
X004659Y008626D03*
X004802Y008626D03*
X004802Y008631D03*
X004802Y008636D03*
X004802Y008641D03*
X004802Y008646D03*
X004802Y008651D03*
X004802Y008656D03*
X004802Y008661D03*
X004802Y008667D03*
X004802Y008672D03*
X004802Y008677D03*
X004802Y008682D03*
X004802Y008687D03*
X004802Y008692D03*
X004802Y008697D03*
X004802Y008702D03*
X004802Y008708D03*
X004802Y008713D03*
X004802Y008718D03*
X004802Y008723D03*
X004802Y008728D03*
X004802Y008733D03*
X004802Y008738D03*
X004802Y008743D03*
X004802Y008748D03*
X004802Y008754D03*
X004802Y008759D03*
X004802Y008764D03*
X004802Y008769D03*
X004802Y008774D03*
X004802Y008779D03*
X004802Y008784D03*
X004802Y008789D03*
X004802Y008621D03*
X004802Y008615D03*
X004802Y008610D03*
X004802Y008605D03*
X004802Y008600D03*
X004802Y008595D03*
X004802Y008590D03*
X004802Y008585D03*
X004802Y008580D03*
X004802Y008574D03*
X004802Y008569D03*
X004802Y008564D03*
X004802Y008559D03*
X004802Y008554D03*
X004802Y008549D03*
X004802Y008544D03*
X004802Y008539D03*
X004802Y008534D03*
X004802Y008528D03*
X004802Y008523D03*
X004802Y008518D03*
X004802Y008513D03*
X004802Y008508D03*
X004802Y008503D03*
X004802Y008498D03*
X004802Y008493D03*
X004802Y008487D03*
X004802Y008482D03*
X004802Y008477D03*
X004802Y008472D03*
X004802Y008467D03*
X004802Y008462D03*
X004802Y008457D03*
X004802Y008452D03*
X004802Y008447D03*
X004802Y008441D03*
X004802Y008436D03*
X004802Y008431D03*
X004802Y008426D03*
X004802Y008421D03*
X004802Y008416D03*
X004802Y008411D03*
X004802Y008406D03*
X004802Y008400D03*
X004802Y008395D03*
X004802Y008390D03*
X004802Y008385D03*
X004802Y008380D03*
X004802Y008375D03*
X004802Y008370D03*
X004802Y008365D03*
X004802Y008360D03*
X004802Y008354D03*
X004802Y008349D03*
X004802Y008344D03*
X004802Y008339D03*
X004802Y008334D03*
X004802Y008329D03*
X004802Y008324D03*
X004802Y008319D03*
X004802Y008313D03*
X004802Y008308D03*
X004802Y008303D03*
X004802Y008298D03*
X004802Y008293D03*
X004802Y008288D03*
X005263Y008493D03*
X005263Y008498D03*
X005268Y008513D03*
X005268Y008518D03*
X005268Y008523D03*
X005268Y008528D03*
X005268Y008534D03*
X005268Y008539D03*
X005268Y008544D03*
X005268Y008549D03*
X005268Y008554D03*
X005268Y008559D03*
X005268Y008564D03*
X005263Y008580D03*
X005263Y008585D03*
X002847Y008585D03*
X002847Y008580D03*
X002842Y008564D03*
X002842Y008559D03*
X002842Y008554D03*
X002842Y008549D03*
X002842Y008544D03*
X002842Y008539D03*
X002842Y008534D03*
X002842Y008528D03*
X002842Y008523D03*
X002842Y008518D03*
X002842Y008513D03*
X002847Y008498D03*
X002847Y008493D03*
D97*
X003037Y008354D03*
X003037Y008723D03*
X003487Y008733D03*
X003487Y008344D03*
X004419Y008789D03*
X004547Y008288D03*
X005063Y008344D03*
X005063Y008733D03*
D98*
X004465Y008733D03*
X004465Y008738D03*
X004500Y008344D03*
X004500Y008339D03*
X003999Y008339D03*
X003999Y008334D03*
X003999Y008329D03*
X003999Y008324D03*
X003999Y008319D03*
X003999Y008313D03*
X003999Y008308D03*
X003999Y008303D03*
X003999Y008298D03*
X003999Y008293D03*
X003999Y008288D03*
X003999Y008344D03*
X003999Y008349D03*
X003999Y008354D03*
X003999Y008360D03*
X003999Y008365D03*
X003999Y008370D03*
X003999Y008375D03*
X003999Y008380D03*
X003999Y008385D03*
X003999Y008390D03*
X003999Y008395D03*
X003999Y008400D03*
X003999Y008677D03*
X003999Y008682D03*
X003999Y008687D03*
X003999Y008692D03*
X003999Y008697D03*
X003999Y008702D03*
X003999Y008708D03*
X003999Y008713D03*
X003999Y008718D03*
X003999Y008723D03*
X003999Y008728D03*
X003999Y008733D03*
X003999Y008738D03*
X003999Y008743D03*
X003999Y008748D03*
X003999Y008754D03*
X003999Y008759D03*
X003999Y008764D03*
X003999Y008769D03*
X003999Y008774D03*
X003999Y008779D03*
X003999Y008784D03*
X003999Y008789D03*
D99*
X003037Y008789D03*
X003037Y008288D03*
D100*
X003438Y008293D03*
X003438Y008784D03*
X005015Y008784D03*
X005015Y008293D03*
D101*
X005074Y008365D03*
X005074Y008713D03*
X004429Y008784D03*
X004035Y008595D03*
X004035Y008590D03*
X004035Y008585D03*
X004035Y008580D03*
X004035Y008574D03*
X004035Y008569D03*
X004035Y008564D03*
X004035Y008559D03*
X004035Y008554D03*
X004035Y008549D03*
X004035Y008544D03*
X004035Y008539D03*
X004035Y008534D03*
X004035Y008528D03*
X004035Y008523D03*
X004035Y008518D03*
X004035Y008513D03*
X004035Y008508D03*
X004035Y008503D03*
X004035Y008498D03*
X004035Y008493D03*
X004035Y008487D03*
X004035Y008482D03*
X004536Y008293D03*
X003497Y008365D03*
X003497Y008713D03*
X003037Y008713D03*
X003037Y008718D03*
X003037Y008365D03*
X003037Y008360D03*
D102*
X003037Y008293D03*
X003211Y008457D03*
X003216Y008467D03*
X003221Y008477D03*
X003221Y008600D03*
X003216Y008610D03*
X003211Y008621D03*
X003037Y008784D03*
X002863Y008621D03*
X002858Y008610D03*
X002852Y008600D03*
X002852Y008477D03*
X002858Y008467D03*
X002863Y008457D03*
X003671Y008457D03*
X003676Y008467D03*
X003682Y008477D03*
X003682Y008600D03*
X003676Y008610D03*
X003671Y008621D03*
X004311Y008467D03*
X004316Y008472D03*
X004311Y008416D03*
X004316Y008411D03*
X004649Y008605D03*
X004654Y008610D03*
X004654Y008661D03*
X004649Y008667D03*
X005248Y008621D03*
X005253Y008610D03*
X005258Y008600D03*
X005258Y008477D03*
X005253Y008467D03*
X005248Y008457D03*
D103*
X005022Y008298D03*
X005022Y008779D03*
X003446Y008779D03*
X003446Y008298D03*
D104*
X003505Y008380D03*
X003505Y008697D03*
X004436Y008779D03*
X004518Y008580D03*
X004447Y008498D03*
X004529Y008298D03*
X005081Y008380D03*
X005081Y008697D03*
D105*
X003037Y008779D03*
X003037Y008298D03*
D106*
X003454Y008303D03*
X003454Y008774D03*
X005030Y008774D03*
X005030Y008303D03*
D107*
X005086Y008390D03*
X005086Y008395D03*
X005086Y008682D03*
X005086Y008687D03*
X004513Y008574D03*
X004508Y008569D03*
X004457Y008508D03*
X004452Y008503D03*
X004523Y008303D03*
X004442Y008774D03*
X003510Y008687D03*
X003510Y008682D03*
X003510Y008395D03*
X003510Y008390D03*
D108*
X003620Y008406D03*
X003620Y008672D03*
X003159Y008672D03*
X003037Y008774D03*
X002914Y008672D03*
X002914Y008406D03*
X003037Y008303D03*
X003159Y008406D03*
X005197Y008406D03*
X005197Y008672D03*
D109*
X005035Y008769D03*
X005035Y008308D03*
X003459Y008308D03*
X003459Y008769D03*
D110*
X004447Y008769D03*
X004498Y008559D03*
X004483Y008539D03*
X004467Y008518D03*
X004518Y008308D03*
D111*
X003037Y008308D03*
X003037Y008769D03*
D112*
X003464Y008764D03*
X003464Y008313D03*
X005040Y008313D03*
X005040Y008764D03*
D113*
X004495Y008554D03*
X004490Y008549D03*
X004485Y008544D03*
X004480Y008534D03*
X004475Y008528D03*
X004470Y008523D03*
X004516Y008313D03*
X004449Y008764D03*
X003037Y008692D03*
X003037Y008385D03*
D114*
X003037Y008313D03*
X003037Y008764D03*
D115*
X003469Y008759D03*
X003469Y008319D03*
X005046Y008319D03*
X005046Y008759D03*
D116*
X004452Y008759D03*
X004513Y008319D03*
D117*
X003037Y008319D03*
X003037Y008759D03*
D118*
X003474Y008754D03*
X003474Y008324D03*
X005051Y008324D03*
X005051Y008754D03*
D119*
X004457Y008754D03*
X004508Y008324D03*
D120*
X003037Y008324D03*
X003037Y008754D03*
D121*
X003037Y008733D03*
X003037Y008344D03*
X003477Y008329D03*
X003477Y008748D03*
X005053Y008748D03*
X005053Y008329D03*
D122*
X004506Y008329D03*
X004459Y008748D03*
X003037Y008677D03*
X003037Y008400D03*
D123*
X003037Y008329D03*
X003037Y008748D03*
D124*
X003037Y008728D03*
X003037Y008349D03*
X003482Y008334D03*
X003482Y008743D03*
X005058Y008743D03*
X005058Y008334D03*
D125*
X004503Y008334D03*
X004462Y008743D03*
D126*
X003037Y008743D03*
X003037Y008334D03*
D127*
X003484Y008339D03*
X003484Y008738D03*
X004421Y008482D03*
X004544Y008595D03*
X005061Y008738D03*
X005061Y008339D03*
D128*
X003037Y008339D03*
X003037Y008738D03*
D129*
X003490Y008728D03*
X003490Y008349D03*
X005066Y008349D03*
X005066Y008728D03*
D130*
X004467Y008728D03*
X004498Y008349D03*
D131*
X005069Y008354D03*
X005069Y008723D03*
X003492Y008723D03*
X003492Y008354D03*
D132*
X004495Y008354D03*
X004470Y008723D03*
D133*
X004534Y008590D03*
X004431Y008487D03*
X005071Y008360D03*
X005071Y008718D03*
X003495Y008718D03*
X003495Y008360D03*
D134*
X004493Y008360D03*
X004493Y008365D03*
X004472Y008713D03*
X004472Y008718D03*
D135*
X004523Y008585D03*
X004442Y008493D03*
X005076Y008370D03*
X005076Y008708D03*
X003500Y008708D03*
X003500Y008370D03*
D136*
X004490Y008370D03*
X004490Y008375D03*
X004475Y008702D03*
X004475Y008708D03*
D137*
X005079Y008702D03*
X005079Y008375D03*
X003502Y008375D03*
X003502Y008702D03*
X003037Y008708D03*
X003037Y008370D03*
D138*
X003037Y008375D03*
X003037Y008702D03*
X003508Y008692D03*
X003508Y008385D03*
X005084Y008385D03*
X005084Y008692D03*
D139*
X004477Y008692D03*
X004477Y008687D03*
X004477Y008697D03*
X004488Y008390D03*
X004488Y008385D03*
X004488Y008380D03*
D140*
X004459Y008513D03*
X004506Y008564D03*
X005089Y008677D03*
X005089Y008400D03*
X003513Y008400D03*
X003513Y008677D03*
X003037Y008697D03*
X003037Y008380D03*
D141*
X003037Y008390D03*
X003037Y008395D03*
X003037Y008682D03*
X003037Y008687D03*
D142*
X004480Y008682D03*
X004480Y008677D03*
X004485Y008400D03*
X004485Y008395D03*
D143*
X004321Y008406D03*
X004321Y008477D03*
X004644Y008600D03*
X004644Y008672D03*
X005237Y008636D03*
X005243Y008631D03*
X005243Y008447D03*
X005237Y008441D03*
X003666Y008447D03*
X003661Y008441D03*
X003666Y008631D03*
X003661Y008636D03*
X003206Y008631D03*
X003200Y008636D03*
X003206Y008447D03*
X003200Y008441D03*
X002873Y008441D03*
X002868Y008447D03*
X002868Y008631D03*
X002873Y008636D03*
D144*
X003167Y008667D03*
X003167Y008411D03*
X003628Y008411D03*
X003628Y008667D03*
X005204Y008667D03*
X005204Y008411D03*
D145*
X002904Y008411D03*
X002904Y008667D03*
D146*
X002896Y008661D03*
X002896Y008416D03*
X003177Y008416D03*
X003177Y008661D03*
X003638Y008661D03*
X003638Y008416D03*
X005214Y008416D03*
X005214Y008661D03*
D147*
X005220Y008656D03*
X005225Y008651D03*
X005225Y008426D03*
X005220Y008421D03*
X003648Y008426D03*
X003643Y008421D03*
X003648Y008651D03*
X003643Y008656D03*
X003188Y008651D03*
X003183Y008656D03*
X003188Y008426D03*
X003183Y008421D03*
X002891Y008421D03*
X002886Y008426D03*
X002886Y008651D03*
X002891Y008656D03*
D148*
X002855Y008605D03*
X002850Y008595D03*
X002850Y008590D03*
X002845Y008574D03*
X002845Y008569D03*
X002845Y008508D03*
X002845Y008503D03*
X002850Y008487D03*
X002850Y008482D03*
X002855Y008472D03*
X003218Y008472D03*
X003223Y008482D03*
X003223Y008487D03*
X003229Y008503D03*
X003229Y008508D03*
X003229Y008569D03*
X003229Y008574D03*
X003223Y008590D03*
X003223Y008595D03*
X003218Y008605D03*
X003679Y008605D03*
X003684Y008595D03*
X003684Y008590D03*
X003689Y008574D03*
X003689Y008569D03*
X003689Y008508D03*
X003689Y008503D03*
X003684Y008487D03*
X003684Y008482D03*
X003679Y008472D03*
X004309Y008462D03*
X004309Y008457D03*
X004309Y008426D03*
X004309Y008421D03*
X004657Y008615D03*
X004657Y008621D03*
X004657Y008651D03*
X004657Y008656D03*
X005255Y008605D03*
X005260Y008595D03*
X005260Y008590D03*
X005266Y008574D03*
X005266Y008569D03*
X005266Y008508D03*
X005266Y008503D03*
X005260Y008487D03*
X005260Y008482D03*
X005255Y008472D03*
D149*
X005235Y008436D03*
X005230Y008431D03*
X005235Y008641D03*
X005230Y008646D03*
X003659Y008641D03*
X003653Y008646D03*
X003659Y008436D03*
X003653Y008431D03*
X003198Y008436D03*
X003193Y008431D03*
X003198Y008641D03*
X003193Y008646D03*
X002881Y008646D03*
X002875Y008641D03*
X002875Y008436D03*
X002881Y008431D03*
D150*
X002865Y008452D03*
X002860Y008462D03*
X002860Y008615D03*
X002865Y008626D03*
X003208Y008626D03*
X003213Y008615D03*
X003213Y008462D03*
X003208Y008452D03*
X003669Y008452D03*
X003674Y008462D03*
X003674Y008615D03*
X003669Y008626D03*
X005245Y008626D03*
X005250Y008615D03*
X005250Y008462D03*
X005245Y008452D03*
D151*
X009188Y019739D02*
X009188Y019976D01*
X009680Y019976D02*
X009680Y019739D01*
X009818Y019739D02*
X009818Y019976D01*
X010310Y019976D02*
X010310Y019739D01*
X021393Y021235D02*
X021393Y021472D01*
X021885Y021472D02*
X021885Y021235D01*
X022062Y021196D02*
X022062Y021432D01*
X022554Y021432D02*
X022554Y021196D01*
D152*
X022308Y021314D03*
X021639Y021354D03*
X010064Y019858D03*
X009434Y019858D03*
D153*
X009631Y004169D03*
D154*
X008814Y003893D02*
X008814Y003499D01*
X010448Y003499D02*
X010448Y003893D01*
X007308Y022594D02*
X006915Y022594D01*
X006915Y022593D02*
X006876Y022595D01*
X006838Y022601D01*
X006801Y022610D01*
X006764Y022623D01*
X006729Y022640D01*
X006696Y022659D01*
X006665Y022682D01*
X006636Y022708D01*
X006610Y022737D01*
X006587Y022768D01*
X006568Y022801D01*
X006551Y022836D01*
X006538Y022873D01*
X006529Y022910D01*
X006523Y022948D01*
X006521Y022987D01*
X006521Y028106D01*
X006523Y028145D01*
X006529Y028183D01*
X006538Y028220D01*
X006551Y028257D01*
X006568Y028292D01*
X006587Y028325D01*
X006610Y028356D01*
X006636Y028385D01*
X006665Y028411D01*
X006696Y028434D01*
X006729Y028453D01*
X006764Y028470D01*
X006801Y028483D01*
X006838Y028492D01*
X006876Y028498D01*
X006915Y028500D01*
X006915Y028499D02*
X007308Y028499D01*
M02*
