G75*
G70*
%OFA0B0*%
%FSLAX24Y24*%
%IPPOS*%
%LPD*%
%AMOC8*
5,1,8,0,0,1.08239X$1,22.5*
%
%ADD10C,0.0060*%
%ADD11C,0.0050*%
%ADD12C,0.0040*%
%ADD13C,0.0090*%
%ADD14R,0.0202X0.0006*%
%ADD15R,0.0277X0.0006*%
%ADD16R,0.0328X0.0006*%
%ADD17R,0.0378X0.0006*%
%ADD18R,0.0416X0.0006*%
%ADD19R,0.0454X0.0006*%
%ADD20R,0.0479X0.0006*%
%ADD21R,0.0517X0.0006*%
%ADD22R,0.0542X0.0006*%
%ADD23R,0.0567X0.0006*%
%ADD24R,0.0592X0.0006*%
%ADD25R,0.0617X0.0006*%
%ADD26R,0.0643X0.0006*%
%ADD27R,0.0661X0.0006*%
%ADD28R,0.0680X0.0006*%
%ADD29R,0.0706X0.0006*%
%ADD30R,0.0718X0.0006*%
%ADD31R,0.0353X0.0006*%
%ADD32R,0.0296X0.0006*%
%ADD33R,0.0271X0.0006*%
%ADD34R,0.0258X0.0006*%
%ADD35R,0.0265X0.0006*%
%ADD36R,0.0246X0.0006*%
%ADD37R,0.0239X0.0006*%
%ADD38R,0.0233X0.0006*%
%ADD39R,0.0227X0.0006*%
%ADD40R,0.0220X0.0006*%
%ADD41R,0.0214X0.0006*%
%ADD42R,0.0208X0.0006*%
%ADD43R,0.0195X0.0006*%
%ADD44R,0.0189X0.0006*%
%ADD45R,0.0183X0.0006*%
%ADD46R,0.0176X0.0006*%
%ADD47R,0.0170X0.0006*%
%ADD48R,0.0164X0.0006*%
%ADD49R,0.0157X0.0006*%
%ADD50R,0.0151X0.0006*%
%ADD51R,0.0145X0.0006*%
%ADD52R,0.0139X0.0006*%
%ADD53R,0.0132X0.0006*%
%ADD54R,0.0126X0.0006*%
%ADD55R,0.0019X0.0006*%
%ADD56R,0.0088X0.0006*%
%ADD57R,0.0038X0.0006*%
%ADD58R,0.0050X0.0006*%
%ADD59R,0.0069X0.0006*%
%ADD60R,0.0076X0.0006*%
%ADD61R,0.0120X0.0006*%
%ADD62R,0.0094X0.0006*%
%ADD63R,0.0107X0.0006*%
%ADD64R,0.0252X0.0006*%
%ADD65R,0.0309X0.0006*%
%ADD66R,0.0340X0.0006*%
%ADD67R,0.0359X0.0006*%
%ADD68R,0.0649X0.0006*%
%ADD69R,0.0655X0.0006*%
%ADD70R,0.0397X0.0006*%
%ADD71R,0.0372X0.0006*%
%ADD72R,0.0290X0.0006*%
%ADD73R,0.0113X0.0006*%
%ADD74R,0.0101X0.0006*%
%ADD75R,0.0082X0.0006*%
%ADD76R,0.0057X0.0006*%
%ADD77R,0.0044X0.0006*%
%ADD78R,0.0025X0.0006*%
%ADD79R,0.0334X0.0006*%
%ADD80R,0.0731X0.0006*%
%ADD81R,0.0693X0.0006*%
%ADD82R,0.0668X0.0006*%
%ADD83R,0.0624X0.0006*%
%ADD84R,0.0605X0.0006*%
%ADD85R,0.0580X0.0006*%
%ADD86R,0.0548X0.0006*%
%ADD87R,0.0491X0.0006*%
%ADD88R,0.0422X0.0006*%
%ADD89R,0.0120X0.1216*%
%ADD90R,0.0120X0.1203*%
%ADD91C,0.0080*%
%ADD92C,0.0120*%
%ADD93C,0.0100*%
%ADD94C,0.0028*%
%ADD95R,0.0118X0.0276*%
%ADD96C,0.0059*%
D10*
X005409Y007582D02*
X005466Y007525D01*
X005409Y007582D02*
X005409Y007695D01*
X005466Y007752D01*
X005523Y007752D01*
X005579Y007695D01*
X005579Y007582D01*
X005636Y007525D01*
X005693Y007525D01*
X005749Y007582D01*
X005749Y007695D01*
X005693Y007752D01*
X005749Y008007D02*
X005749Y008120D01*
X005749Y008064D02*
X005466Y008064D01*
X005409Y008007D01*
X005409Y007950D01*
X005466Y007894D01*
X005409Y008262D02*
X005636Y008489D01*
X005693Y008489D01*
X005749Y008432D01*
X005749Y008319D01*
X005693Y008262D01*
X005409Y008262D02*
X005409Y008489D01*
X006197Y006515D02*
X006197Y006153D01*
X006923Y006153D01*
X006923Y006515D01*
X006197Y006515D01*
X007614Y007621D02*
X007671Y007565D01*
X007614Y007621D02*
X007614Y007735D01*
X007671Y007791D01*
X007727Y007791D01*
X007784Y007735D01*
X007784Y007621D01*
X007841Y007565D01*
X007897Y007565D01*
X007954Y007621D01*
X007954Y007735D01*
X007897Y007791D01*
X007954Y008046D02*
X007954Y008160D01*
X007954Y008103D02*
X007671Y008103D01*
X007614Y008046D01*
X007614Y007990D01*
X007671Y007933D01*
X007614Y008301D02*
X007614Y008528D01*
X007614Y008415D02*
X007954Y008415D01*
X007841Y008301D01*
X010279Y008284D02*
X010279Y007654D01*
X010279Y008284D02*
X011739Y008284D01*
X011739Y005644D01*
X010279Y005644D01*
X010279Y006274D01*
X015564Y015065D02*
X015678Y015065D01*
X015735Y015121D01*
X015735Y015235D02*
X015621Y015291D01*
X015564Y015291D01*
X015508Y015235D01*
X015508Y015121D01*
X015564Y015065D01*
X015735Y015235D02*
X015735Y015405D01*
X015508Y015405D01*
X015470Y015579D02*
X016470Y015579D01*
X016487Y015581D01*
X016504Y015585D01*
X016520Y015592D01*
X016534Y015602D01*
X016547Y015615D01*
X016557Y015629D01*
X016564Y015645D01*
X016568Y015662D01*
X016570Y015679D01*
X016570Y016279D01*
X016568Y016296D01*
X016564Y016313D01*
X016557Y016329D01*
X016547Y016343D01*
X016534Y016356D01*
X016520Y016366D01*
X016504Y016373D01*
X016487Y016377D01*
X016470Y016379D01*
X015470Y016379D01*
X015453Y016377D01*
X015436Y016373D01*
X015420Y016366D01*
X015406Y016356D01*
X015393Y016343D01*
X015383Y016329D01*
X015376Y016313D01*
X015372Y016296D01*
X015370Y016279D01*
X015370Y015679D01*
X015372Y015662D01*
X015376Y015645D01*
X015383Y015629D01*
X015393Y015615D01*
X015406Y015602D01*
X015420Y015592D01*
X015436Y015585D01*
X015453Y015581D01*
X015470Y015579D01*
X015876Y015405D02*
X015989Y015405D01*
X015933Y015405D02*
X015933Y015121D01*
X015989Y015065D01*
X016046Y015065D01*
X016103Y015121D01*
X016244Y015121D02*
X016301Y015065D01*
X016415Y015065D01*
X016471Y015121D01*
X016415Y015235D02*
X016301Y015235D01*
X016244Y015178D01*
X016244Y015121D01*
X016415Y015235D02*
X016471Y015291D01*
X016471Y015348D01*
X016415Y015405D01*
X016301Y015405D01*
X016244Y015348D01*
X019937Y012578D02*
X019937Y012216D01*
X020664Y012216D01*
X020664Y012578D01*
X019937Y012578D01*
X022481Y006854D02*
X022481Y006128D01*
X022844Y006128D01*
X022844Y006854D01*
X022481Y006854D01*
X023402Y003680D02*
X024128Y003680D01*
X024128Y003318D01*
X023402Y003318D01*
X023402Y003680D01*
X025190Y002531D02*
X025361Y002361D01*
X025134Y002361D01*
X025190Y002191D02*
X025190Y002531D01*
X025502Y002531D02*
X025615Y002531D01*
X025559Y002531D02*
X025559Y002247D01*
X025615Y002191D01*
X025672Y002191D01*
X025729Y002247D01*
X025870Y002247D02*
X025927Y002191D01*
X026040Y002191D01*
X026097Y002247D01*
X026040Y002361D02*
X025927Y002361D01*
X025870Y002304D01*
X025870Y002247D01*
X026040Y002361D02*
X026097Y002417D01*
X026097Y002474D01*
X026040Y002531D01*
X025927Y002531D01*
X025870Y002474D01*
X025750Y022038D02*
X025693Y022038D01*
X025636Y022094D01*
X025636Y022378D01*
X025806Y022378D01*
X025863Y022321D01*
X025863Y022208D01*
X025806Y022151D01*
X025636Y022151D01*
X026005Y022151D02*
X026175Y022151D01*
X026231Y022208D01*
X026175Y022265D01*
X026005Y022265D01*
X026005Y022321D02*
X026005Y022151D01*
X026005Y022321D02*
X026061Y022378D01*
X026175Y022378D01*
X026364Y022378D02*
X026477Y022378D01*
X026420Y022435D02*
X026420Y022208D01*
X026364Y022151D01*
X026675Y022208D02*
X026675Y022491D01*
X026732Y022491D02*
X026618Y022491D01*
X026675Y022208D02*
X026732Y022151D01*
X026789Y022151D01*
X026845Y022208D01*
X026452Y026167D02*
X026281Y026167D01*
X026225Y026224D01*
X026225Y026451D01*
X026281Y026507D01*
X026452Y026507D01*
X026452Y026167D01*
X025970Y026167D02*
X025970Y026507D01*
X026083Y026507D02*
X025856Y026507D01*
X025715Y026507D02*
X025715Y026167D01*
X025715Y026280D02*
X025545Y026280D01*
X025488Y026337D01*
X025488Y026451D01*
X025545Y026507D01*
X025715Y026507D01*
X025601Y026280D02*
X025488Y026167D01*
X025856Y027167D02*
X026083Y027507D01*
X026225Y027507D02*
X026452Y027507D01*
X026338Y027507D02*
X026338Y027167D01*
X026083Y027167D02*
X025856Y027507D01*
X025856Y028167D02*
X026083Y028507D01*
X026225Y028451D02*
X026225Y028337D01*
X026281Y028280D01*
X026452Y028280D01*
X026452Y028167D02*
X026452Y028507D01*
X026281Y028507D01*
X026225Y028451D01*
X026338Y028280D02*
X026225Y028167D01*
X026083Y028167D02*
X025856Y028507D01*
X025970Y029167D02*
X025856Y029280D01*
X025856Y029507D01*
X025715Y029451D02*
X025658Y029507D01*
X025545Y029507D01*
X025488Y029451D01*
X025488Y029394D01*
X025545Y029337D01*
X025488Y029280D01*
X025488Y029224D01*
X025545Y029167D01*
X025658Y029167D01*
X025715Y029224D01*
X025601Y029337D02*
X025545Y029337D01*
X025970Y029167D02*
X026083Y029280D01*
X026083Y029507D01*
X026225Y029451D02*
X026225Y029394D01*
X026281Y029337D01*
X026225Y029280D01*
X026225Y029224D01*
X026281Y029167D01*
X026395Y029167D01*
X026452Y029224D01*
X026338Y029337D02*
X026281Y029337D01*
X026225Y029451D02*
X026281Y029507D01*
X026395Y029507D01*
X026452Y029451D01*
X026395Y030167D02*
X026281Y030167D01*
X026225Y030224D01*
X026395Y030167D02*
X026452Y030224D01*
X026452Y030451D01*
X026395Y030507D01*
X026281Y030507D01*
X026225Y030451D01*
X026083Y030507D02*
X025856Y030507D01*
X025970Y030507D02*
X025970Y030167D01*
X025715Y030224D02*
X025658Y030167D01*
X025545Y030167D01*
X025488Y030224D01*
X025488Y030280D01*
X025545Y030337D01*
X025658Y030337D01*
X025715Y030394D01*
X025715Y030451D01*
X025658Y030507D01*
X025545Y030507D01*
X025488Y030451D01*
X025545Y031167D02*
X025488Y031224D01*
X025488Y031451D01*
X025545Y031507D01*
X025715Y031507D01*
X025715Y031167D01*
X025545Y031167D01*
X025856Y031167D02*
X025856Y031507D01*
X026083Y031507D02*
X025856Y031167D01*
X026083Y031167D02*
X026083Y031507D01*
X026225Y031451D02*
X026281Y031507D01*
X026395Y031507D01*
X026452Y031451D01*
X026452Y031224D01*
X026395Y031167D01*
X026281Y031167D01*
X026225Y031224D01*
X026225Y031337D01*
X026338Y031337D01*
X019797Y031448D02*
X019797Y031810D01*
X019071Y031810D01*
X019071Y031448D01*
X019797Y031448D01*
X018968Y031818D02*
X018968Y032818D01*
X018966Y032835D01*
X018962Y032852D01*
X018955Y032868D01*
X018945Y032882D01*
X018932Y032895D01*
X018918Y032905D01*
X018902Y032912D01*
X018885Y032916D01*
X018868Y032918D01*
X018268Y032918D01*
X018251Y032916D01*
X018234Y032912D01*
X018218Y032905D01*
X018204Y032895D01*
X018191Y032882D01*
X018181Y032868D01*
X018174Y032852D01*
X018170Y032835D01*
X018168Y032818D01*
X018168Y031818D01*
X018170Y031801D01*
X018174Y031784D01*
X018181Y031768D01*
X018191Y031754D01*
X018204Y031741D01*
X018218Y031731D01*
X018234Y031724D01*
X018251Y031720D01*
X018268Y031718D01*
X018868Y031718D01*
X018885Y031720D01*
X018902Y031724D01*
X018918Y031731D01*
X018932Y031741D01*
X018945Y031754D01*
X018955Y031768D01*
X018962Y031784D01*
X018966Y031801D01*
X018968Y031818D01*
X018013Y031854D02*
X017957Y031797D01*
X017900Y031797D01*
X017843Y031854D01*
X017843Y031967D01*
X017786Y032024D01*
X017730Y032024D01*
X017673Y031967D01*
X017673Y031854D01*
X017730Y031797D01*
X018013Y031854D02*
X018013Y031967D01*
X017957Y032024D01*
X018013Y032279D02*
X018013Y032392D01*
X018013Y032335D02*
X017730Y032335D01*
X017673Y032279D01*
X017673Y032222D01*
X017730Y032165D01*
X017730Y032533D02*
X017673Y032590D01*
X017673Y032704D01*
X017730Y032760D01*
X017786Y032760D01*
X017843Y032704D01*
X017843Y032647D01*
X017843Y032704D02*
X017900Y032760D01*
X017957Y032760D01*
X018013Y032704D01*
X018013Y032590D01*
X017957Y032533D01*
X017655Y032958D02*
X017711Y033015D01*
X017655Y032958D02*
X017541Y032958D01*
X017485Y033015D01*
X017485Y033072D01*
X017541Y033128D01*
X017655Y033128D01*
X017711Y033185D01*
X017711Y033242D01*
X017655Y033299D01*
X017541Y033299D01*
X017485Y033242D01*
X017230Y033299D02*
X017116Y033299D01*
X017173Y033299D02*
X017173Y033015D01*
X017230Y032958D01*
X017286Y032958D01*
X017343Y033015D01*
X016975Y033015D02*
X016918Y032958D01*
X016805Y032958D01*
X016748Y033015D01*
X016748Y033072D01*
X016805Y033128D01*
X016975Y033128D01*
X016975Y033015D01*
X016975Y033128D02*
X016861Y033242D01*
X016748Y033299D01*
X016291Y032392D02*
X015791Y032392D01*
X015541Y032142D01*
X015291Y032392D01*
X014791Y032392D01*
X014541Y032142D01*
X014291Y032392D01*
X013791Y032392D01*
X013541Y032142D01*
X013541Y030642D01*
X013791Y030392D01*
X014291Y030392D01*
X014541Y030642D01*
X014791Y030392D01*
X015291Y030392D01*
X015541Y030642D01*
X015791Y030392D01*
X016291Y030392D01*
X016541Y030642D01*
X016541Y032142D01*
X016291Y032392D01*
X016669Y031820D02*
X016669Y031707D01*
X016669Y031763D02*
X017009Y031763D01*
X017009Y031707D02*
X017009Y031820D01*
X016953Y031565D02*
X016839Y031565D01*
X016782Y031509D01*
X016782Y031338D01*
X016669Y031338D02*
X017009Y031338D01*
X017009Y031509D01*
X016953Y031565D01*
X016953Y031197D02*
X017009Y031140D01*
X017009Y031027D01*
X016953Y030970D01*
X016896Y030970D01*
X016839Y031027D01*
X016839Y031140D01*
X016782Y031197D01*
X016726Y031197D01*
X016669Y031140D01*
X016669Y031027D01*
X016726Y030970D01*
X016669Y030606D02*
X016669Y030380D01*
X016669Y030493D02*
X017009Y030493D01*
X016896Y030380D01*
X015428Y034435D02*
X015428Y034775D01*
X015258Y034775D01*
X015201Y034718D01*
X015201Y034605D01*
X015258Y034548D01*
X015428Y034548D01*
X015314Y034548D02*
X015201Y034435D01*
X015060Y034491D02*
X015060Y034605D01*
X015003Y034662D01*
X014889Y034662D01*
X014833Y034605D01*
X014833Y034548D01*
X015060Y034548D01*
X015060Y034491D02*
X015003Y034435D01*
X014889Y034435D01*
X014691Y034435D02*
X014521Y034435D01*
X014464Y034491D01*
X014521Y034548D01*
X014635Y034548D01*
X014691Y034605D01*
X014635Y034662D01*
X014464Y034662D01*
X014323Y034605D02*
X014323Y034491D01*
X014266Y034435D01*
X014153Y034435D01*
X014096Y034548D02*
X014323Y034548D01*
X014323Y034605D02*
X014266Y034662D01*
X014153Y034662D01*
X014096Y034605D01*
X014096Y034548D01*
X013955Y034662D02*
X013841Y034662D01*
X013898Y034718D02*
X013898Y034491D01*
X013841Y034435D01*
X012541Y034642D02*
X012541Y035142D01*
X012291Y035392D01*
X010791Y035392D01*
X010541Y035642D01*
X010541Y036142D01*
X010791Y036392D01*
X012291Y036392D01*
X012541Y036642D01*
X012541Y037142D01*
X012291Y037392D01*
X010791Y037392D01*
X010541Y037142D01*
X010541Y036642D01*
X010791Y036392D01*
X010791Y037392D02*
X010541Y037642D01*
X010541Y038142D01*
X010791Y038392D01*
X012291Y038392D01*
X012541Y038142D01*
X012541Y037642D01*
X012291Y037392D01*
X012291Y036392D02*
X012541Y036142D01*
X012541Y035642D01*
X012291Y035392D01*
X012541Y034642D02*
X012291Y034392D01*
X010791Y034392D01*
X010541Y034642D01*
X010541Y035142D01*
X010791Y035392D01*
X010791Y034392D02*
X010541Y034142D01*
X010541Y033642D01*
X010791Y033392D01*
X012291Y033392D01*
X012541Y033642D01*
X012541Y034142D01*
X012291Y034392D01*
X012291Y033392D02*
X012541Y033142D01*
X012541Y032642D01*
X012291Y032392D01*
X010791Y032392D01*
X010541Y032642D01*
X010541Y033142D01*
X010791Y033392D01*
X010299Y033238D02*
X010072Y033238D01*
X010015Y033294D01*
X010242Y033294D02*
X010242Y033181D01*
X010186Y033040D02*
X010129Y033040D01*
X010129Y032813D01*
X010186Y032813D02*
X010242Y032869D01*
X010242Y032983D01*
X010186Y033040D01*
X010015Y032983D02*
X010015Y032869D01*
X010072Y032813D01*
X010186Y032813D01*
X010186Y032671D02*
X010015Y032671D01*
X010186Y032671D02*
X010242Y032615D01*
X010242Y032444D01*
X010015Y032444D01*
X010242Y032308D02*
X010242Y032251D01*
X010129Y032137D01*
X010242Y032137D02*
X010015Y032137D01*
X010129Y031996D02*
X010129Y031769D01*
X010186Y031769D02*
X010242Y031826D01*
X010242Y031939D01*
X010186Y031996D01*
X010129Y031996D01*
X010015Y031939D02*
X010015Y031826D01*
X010072Y031769D01*
X010186Y031769D01*
X010186Y031628D02*
X010015Y031628D01*
X010186Y031628D02*
X010242Y031571D01*
X010242Y031458D01*
X010186Y031401D01*
X010242Y031269D02*
X010242Y031155D01*
X010299Y031212D02*
X010072Y031212D01*
X010015Y031269D01*
X010015Y031401D02*
X010356Y031401D01*
X010541Y031642D02*
X010541Y032142D01*
X010791Y032392D01*
X010541Y031642D02*
X010791Y031392D01*
X012291Y031392D01*
X012541Y031642D01*
X012541Y032142D01*
X012291Y032392D01*
X012291Y031392D02*
X012541Y031142D01*
X012541Y030642D01*
X012291Y030392D01*
X010791Y030392D01*
X010541Y030642D01*
X010541Y031142D01*
X010791Y031392D01*
X010356Y031014D02*
X010356Y030787D01*
X010015Y030787D01*
X010015Y031014D01*
X010186Y030900D02*
X010186Y030787D01*
X010244Y030528D02*
X010244Y030301D01*
X010244Y030414D02*
X010584Y030414D01*
X010471Y030301D01*
X008632Y029458D02*
X008632Y031467D01*
X006772Y031467D02*
X006772Y029458D01*
X007168Y027742D02*
X006655Y027229D01*
X006911Y026972D01*
X007424Y027486D01*
X007168Y027742D01*
X007100Y020868D02*
X006100Y020868D01*
X006083Y020866D01*
X006066Y020862D01*
X006050Y020855D01*
X006036Y020845D01*
X006023Y020832D01*
X006013Y020818D01*
X006006Y020802D01*
X006002Y020785D01*
X006000Y020768D01*
X006000Y020168D01*
X006002Y020151D01*
X006006Y020134D01*
X006013Y020118D01*
X006023Y020104D01*
X006036Y020091D01*
X006050Y020081D01*
X006066Y020074D01*
X006083Y020070D01*
X006100Y020068D01*
X007100Y020068D01*
X007117Y020070D01*
X007134Y020074D01*
X007150Y020081D01*
X007164Y020091D01*
X007177Y020104D01*
X007187Y020118D01*
X007194Y020134D01*
X007198Y020151D01*
X007200Y020168D01*
X007200Y020768D01*
X007198Y020785D01*
X007194Y020802D01*
X007187Y020818D01*
X007177Y020832D01*
X007164Y020845D01*
X007150Y020855D01*
X007134Y020862D01*
X007117Y020866D01*
X007100Y020868D01*
X009664Y018999D02*
X009664Y017999D01*
X009666Y017982D01*
X009670Y017965D01*
X009677Y017949D01*
X009687Y017935D01*
X009700Y017922D01*
X009714Y017912D01*
X009730Y017905D01*
X009747Y017901D01*
X009764Y017899D01*
X010364Y017899D01*
X010381Y017901D01*
X010398Y017905D01*
X010414Y017912D01*
X010428Y017922D01*
X010441Y017935D01*
X010451Y017949D01*
X010458Y017965D01*
X010462Y017982D01*
X010464Y017999D01*
X010464Y018999D01*
X010462Y019016D01*
X010458Y019033D01*
X010451Y019049D01*
X010441Y019063D01*
X010428Y019076D01*
X010414Y019086D01*
X010398Y019093D01*
X010381Y019097D01*
X010364Y019099D01*
X009764Y019099D01*
X009747Y019097D01*
X009730Y019093D01*
X009714Y019086D01*
X009700Y019076D01*
X009687Y019063D01*
X009677Y019049D01*
X009670Y019033D01*
X009666Y019016D01*
X009664Y018999D01*
X004096Y018165D02*
X004096Y017939D01*
X003756Y017939D01*
X003756Y018165D01*
X003756Y018307D02*
X003982Y018307D01*
X003869Y018307D02*
X003982Y018420D01*
X003982Y018477D01*
X003982Y018671D02*
X003982Y018784D01*
X003926Y018841D01*
X003756Y018841D01*
X003756Y018671D01*
X003812Y018614D01*
X003869Y018671D01*
X003869Y018841D01*
X003926Y018982D02*
X003982Y019039D01*
X003982Y019209D01*
X003869Y019152D02*
X003869Y019039D01*
X003926Y018982D01*
X003756Y018982D02*
X003756Y019152D01*
X003812Y019209D01*
X003869Y019152D01*
X003869Y019350D02*
X003869Y019577D01*
X003926Y019577D01*
X003982Y019521D01*
X003982Y019407D01*
X003926Y019350D01*
X003812Y019350D01*
X003756Y019407D01*
X003756Y019521D01*
X003926Y018052D02*
X003926Y017939D01*
X016404Y035515D02*
X016177Y035742D01*
X016177Y035799D01*
X016404Y035799D01*
X016545Y035799D02*
X016659Y035799D01*
X016602Y035799D02*
X016602Y035515D01*
X016659Y035458D01*
X016715Y035458D01*
X016772Y035515D01*
X016914Y035515D02*
X016970Y035458D01*
X017084Y035458D01*
X017141Y035515D01*
X017084Y035628D02*
X016970Y035628D01*
X016914Y035572D01*
X016914Y035515D01*
X017084Y035628D02*
X017141Y035685D01*
X017141Y035742D01*
X017084Y035799D01*
X016970Y035799D01*
X016914Y035742D01*
X016404Y035515D02*
X016404Y035458D01*
D11*
X003715Y005256D02*
X003625Y005256D01*
X003580Y005301D01*
X003580Y005346D01*
X003625Y005392D01*
X003715Y005392D01*
X003760Y005437D01*
X003760Y005482D01*
X003715Y005527D01*
X003625Y005527D01*
X003580Y005482D01*
X003580Y005437D01*
X003625Y005392D01*
X003715Y005392D02*
X003760Y005346D01*
X003760Y005301D01*
X003715Y005256D01*
X003875Y005301D02*
X003920Y005256D01*
X004010Y005256D01*
X004055Y005301D01*
X004010Y005392D02*
X004055Y005437D01*
X004055Y005482D01*
X004010Y005527D01*
X003920Y005527D01*
X003875Y005482D01*
X003920Y005392D02*
X003875Y005346D01*
X003875Y005301D01*
X003920Y005392D02*
X004010Y005392D01*
X003678Y007343D02*
X003588Y007343D01*
X003543Y007388D01*
X003543Y007568D01*
X003588Y007613D01*
X003678Y007613D01*
X003723Y007568D01*
X003723Y007388D01*
X003678Y007343D01*
X003428Y007343D02*
X003428Y007523D01*
X003293Y007523D01*
X003248Y007478D01*
X003248Y007343D01*
X004419Y007478D02*
X004509Y007478D01*
X004464Y007568D02*
X004419Y007613D01*
X004464Y007568D02*
X004464Y007343D01*
X004660Y007343D02*
X004660Y007568D01*
X004615Y007613D01*
X004615Y007478D02*
X004705Y007478D01*
X004820Y007388D02*
X004820Y007568D01*
X004865Y007613D01*
X004955Y007613D01*
X005000Y007568D01*
X005000Y007388D01*
X004955Y007343D01*
X004865Y007343D01*
X004820Y007388D01*
X005497Y008972D02*
X005497Y009759D01*
X005497Y010074D02*
X005497Y014129D01*
X005497Y014444D02*
X005497Y015231D01*
X005911Y015231D01*
X006145Y016004D02*
X006235Y016004D01*
X006280Y016049D01*
X006395Y016049D02*
X006440Y016004D01*
X006530Y016004D01*
X006575Y016049D01*
X006575Y016230D01*
X006530Y016275D01*
X006440Y016275D01*
X006395Y016230D01*
X006280Y016230D02*
X006235Y016275D01*
X006145Y016275D01*
X006100Y016230D01*
X006100Y016185D01*
X006145Y016140D01*
X006100Y016095D01*
X006100Y016049D01*
X006145Y016004D01*
X006145Y016140D02*
X006190Y016140D01*
X006681Y016275D02*
X006772Y016275D01*
X006726Y016275D02*
X006726Y016004D01*
X006681Y016004D02*
X006772Y016004D01*
X006797Y017747D02*
X006887Y017747D01*
X006842Y017747D02*
X006842Y018017D01*
X006887Y018017D02*
X006797Y018017D01*
X006690Y017972D02*
X006690Y017792D01*
X006645Y017747D01*
X006555Y017747D01*
X006510Y017792D01*
X006510Y017972D01*
X006555Y018017D01*
X006645Y018017D01*
X006690Y017972D01*
X006396Y018017D02*
X006260Y018017D01*
X006215Y017972D01*
X006215Y017882D01*
X006260Y017837D01*
X006396Y017837D01*
X006396Y017747D02*
X006396Y018017D01*
X006306Y017837D02*
X006215Y017747D01*
X006101Y017747D02*
X005921Y017747D01*
X005806Y017747D02*
X005806Y018017D01*
X005626Y018017D01*
X005716Y017882D02*
X005806Y017882D01*
X005921Y018017D02*
X006101Y018017D01*
X006101Y017747D01*
X006101Y017882D02*
X006011Y017882D01*
X005966Y018747D02*
X006056Y018747D01*
X006101Y018792D01*
X006056Y018882D02*
X005966Y018882D01*
X005921Y018837D01*
X005921Y018792D01*
X005966Y018747D01*
X006056Y018882D02*
X006101Y018927D01*
X006101Y018972D01*
X006056Y019017D01*
X005966Y019017D01*
X005921Y018972D01*
X005806Y019017D02*
X005626Y019017D01*
X005716Y019017D02*
X005716Y018747D01*
X006215Y018747D02*
X006306Y018837D01*
X006260Y018837D02*
X006396Y018837D01*
X006396Y018747D02*
X006396Y019017D01*
X006260Y019017D01*
X006215Y018972D01*
X006215Y018882D01*
X006260Y018837D01*
X005791Y019549D02*
X005836Y019594D01*
X005836Y019684D01*
X005791Y019729D01*
X005746Y019729D01*
X005701Y019684D01*
X005656Y019729D01*
X005611Y019729D01*
X005566Y019684D01*
X005566Y019594D01*
X005611Y019549D01*
X005701Y019639D02*
X005701Y019684D01*
X005656Y019843D02*
X005566Y019933D01*
X005656Y020023D01*
X005836Y020023D01*
X005791Y020138D02*
X005836Y020183D01*
X005836Y020273D01*
X005791Y020318D01*
X005746Y020318D01*
X005701Y020273D01*
X005656Y020318D01*
X005611Y020318D01*
X005566Y020273D01*
X005566Y020183D01*
X005611Y020138D01*
X005701Y020228D02*
X005701Y020273D01*
X005701Y020649D02*
X005746Y020739D01*
X005746Y020784D01*
X005701Y020829D01*
X005611Y020829D01*
X005566Y020784D01*
X005566Y020694D01*
X005611Y020649D01*
X005701Y020649D02*
X005836Y020649D01*
X005836Y020829D01*
X005836Y020943D02*
X005656Y020943D01*
X005566Y021033D01*
X005656Y021123D01*
X005836Y021123D01*
X005791Y021238D02*
X005611Y021238D01*
X005791Y021418D01*
X005611Y021418D01*
X005566Y021373D01*
X005566Y021283D01*
X005611Y021238D01*
X005791Y021238D02*
X005836Y021283D01*
X005836Y021373D01*
X005791Y021418D01*
X006073Y021463D02*
X006119Y021418D01*
X006073Y021463D02*
X006073Y021553D01*
X006119Y021598D01*
X006164Y021598D01*
X006209Y021553D01*
X006209Y021508D01*
X006209Y021553D02*
X006254Y021598D01*
X006299Y021598D01*
X006344Y021553D01*
X006344Y021463D01*
X006299Y021418D01*
X006217Y021235D02*
X006126Y021235D01*
X006081Y021190D01*
X006262Y021010D01*
X006217Y020965D01*
X006126Y020965D01*
X006081Y021010D01*
X006081Y021190D01*
X006217Y021235D02*
X006262Y021190D01*
X006262Y021010D01*
X006376Y020965D02*
X006556Y020965D01*
X006466Y020965D02*
X006466Y021235D01*
X006556Y021145D01*
X006671Y021235D02*
X006761Y021235D01*
X006716Y021235D02*
X006716Y021010D01*
X006761Y020965D01*
X006806Y020965D01*
X006851Y021010D01*
X006965Y021010D02*
X007010Y020965D01*
X007100Y020965D01*
X007146Y021010D01*
X007100Y021100D02*
X007010Y021100D01*
X006965Y021055D01*
X006965Y021010D01*
X007100Y021100D02*
X007146Y021145D01*
X007146Y021190D01*
X007100Y021235D01*
X007010Y021235D01*
X006965Y021190D01*
X006951Y021418D02*
X006861Y021508D01*
X006951Y021598D01*
X007131Y021598D01*
X007131Y021712D02*
X007131Y021848D01*
X007086Y021893D01*
X007041Y021893D01*
X006996Y021848D01*
X006996Y021712D01*
X006861Y021712D02*
X007131Y021712D01*
X006996Y021848D02*
X006951Y021893D01*
X006906Y021893D01*
X006861Y021848D01*
X006861Y021712D01*
X006861Y022007D02*
X007041Y022007D01*
X007131Y022097D01*
X007041Y022187D01*
X006861Y022187D01*
X006906Y022302D02*
X006861Y022347D01*
X006861Y022437D01*
X006906Y022482D01*
X006951Y022596D02*
X007131Y022777D01*
X007131Y022891D02*
X006906Y022891D01*
X006861Y022936D01*
X006861Y023026D01*
X006906Y023071D01*
X007131Y023071D01*
X007131Y023186D02*
X007131Y023321D01*
X007086Y023366D01*
X006996Y023366D01*
X006951Y023321D01*
X006951Y023186D01*
X006861Y023186D02*
X007131Y023186D01*
X006861Y022777D02*
X006996Y022641D01*
X007131Y022596D02*
X006861Y022596D01*
X007086Y022482D02*
X007131Y022437D01*
X007131Y022347D01*
X007086Y022302D01*
X006906Y022302D01*
X006996Y022187D02*
X006996Y022007D01*
X006951Y021418D02*
X007131Y021418D01*
X006344Y021712D02*
X006164Y021712D01*
X006073Y021803D01*
X006164Y021893D01*
X006344Y021893D01*
X006299Y022007D02*
X006344Y022052D01*
X006344Y022142D01*
X006299Y022187D01*
X006254Y022187D01*
X006209Y022142D01*
X006164Y022187D01*
X006119Y022187D01*
X006073Y022142D01*
X006073Y022052D01*
X006119Y022007D01*
X006209Y022097D02*
X006209Y022142D01*
X005836Y022215D02*
X005566Y022395D01*
X005836Y022395D01*
X005836Y022510D02*
X005566Y022510D01*
X005566Y022645D01*
X005611Y022690D01*
X005791Y022690D01*
X005836Y022645D01*
X005836Y022510D01*
X005836Y022215D02*
X005566Y022215D01*
X005611Y022101D02*
X005701Y022101D01*
X005701Y022011D01*
X005791Y022101D02*
X005836Y022056D01*
X005836Y021966D01*
X005791Y021921D01*
X005611Y021921D01*
X005566Y021966D01*
X005566Y022056D01*
X005611Y022101D01*
X005656Y023499D02*
X005566Y023589D01*
X005656Y023679D01*
X005836Y023679D01*
X005836Y023793D02*
X005836Y023883D01*
X005836Y023838D02*
X005566Y023838D01*
X005566Y023793D02*
X005566Y023883D01*
X005566Y023990D02*
X005836Y023990D01*
X005566Y024170D01*
X005836Y024170D01*
X005836Y023499D02*
X005656Y023499D01*
X006927Y024390D02*
X007107Y024390D01*
X006927Y024570D01*
X006927Y024615D01*
X006972Y024661D01*
X007062Y024661D01*
X007107Y024615D01*
X007221Y024615D02*
X007221Y024570D01*
X007401Y024390D01*
X007221Y024390D01*
X007221Y024615D02*
X007266Y024661D01*
X007356Y024661D01*
X007401Y024615D01*
X008226Y024525D02*
X008406Y024525D01*
X008271Y024661D01*
X008271Y024390D01*
X008520Y024390D02*
X008701Y024390D01*
X008520Y024570D01*
X008520Y024615D01*
X008566Y024661D01*
X008656Y024661D01*
X008701Y024615D01*
X008026Y023637D02*
X008071Y023592D01*
X008026Y023637D02*
X007936Y023637D01*
X007891Y023592D01*
X007891Y023547D01*
X008071Y023367D01*
X007891Y023367D01*
X007776Y023412D02*
X007731Y023367D01*
X007641Y023367D01*
X007596Y023412D01*
X007596Y023457D01*
X007641Y023502D01*
X007686Y023502D01*
X007641Y023502D02*
X007596Y023547D01*
X007596Y023592D01*
X007641Y023637D01*
X007731Y023637D01*
X007776Y023592D01*
X005746Y025717D02*
X005836Y025807D01*
X005746Y025897D01*
X005566Y025897D01*
X005611Y026011D02*
X005791Y026191D01*
X005611Y026191D01*
X005566Y026146D01*
X005566Y026056D01*
X005611Y026011D01*
X005791Y026011D01*
X005836Y026056D01*
X005836Y026146D01*
X005791Y026191D01*
X005701Y025897D02*
X005701Y025717D01*
X005746Y025717D02*
X005566Y025717D01*
X005566Y026717D02*
X005746Y026717D01*
X005836Y026807D01*
X005746Y026897D01*
X005566Y026897D01*
X005566Y027011D02*
X005566Y027191D01*
X005566Y027101D02*
X005836Y027101D01*
X005746Y027011D01*
X005701Y026897D02*
X005701Y026717D01*
X005701Y027717D02*
X005701Y027897D01*
X005746Y027897D02*
X005566Y027897D01*
X005566Y028011D02*
X005746Y028191D01*
X005791Y028191D01*
X005836Y028146D01*
X005836Y028056D01*
X005791Y028011D01*
X005746Y027897D02*
X005836Y027807D01*
X005746Y027717D01*
X005566Y027717D01*
X005566Y028011D02*
X005566Y028191D01*
X005566Y028717D02*
X005746Y028717D01*
X005836Y028807D01*
X005746Y028897D01*
X005566Y028897D01*
X005611Y029011D02*
X005566Y029056D01*
X005566Y029146D01*
X005611Y029191D01*
X005656Y029191D01*
X005701Y029146D01*
X005701Y029101D01*
X005701Y029146D02*
X005746Y029191D01*
X005791Y029191D01*
X005836Y029146D01*
X005836Y029056D01*
X005791Y029011D01*
X005701Y028897D02*
X005701Y028717D01*
X005701Y029717D02*
X005701Y029897D01*
X005746Y029897D02*
X005566Y029897D01*
X005701Y030011D02*
X005701Y030191D01*
X005836Y030146D02*
X005701Y030011D01*
X005746Y029897D02*
X005836Y029807D01*
X005746Y029717D01*
X005566Y029717D01*
X005566Y030146D02*
X005836Y030146D01*
X005746Y030717D02*
X005566Y030717D01*
X005701Y030717D02*
X005701Y030897D01*
X005746Y030897D02*
X005566Y030897D01*
X005611Y031011D02*
X005566Y031056D01*
X005566Y031146D01*
X005611Y031191D01*
X005701Y031191D01*
X005746Y031146D01*
X005746Y031101D01*
X005701Y031011D01*
X005836Y031011D01*
X005836Y031191D01*
X005746Y030897D02*
X005836Y030807D01*
X005746Y030717D01*
X005734Y031711D02*
X005779Y031756D01*
X005599Y031936D01*
X005599Y031756D01*
X005644Y031711D01*
X005734Y031711D01*
X005779Y031756D02*
X005779Y031936D01*
X005734Y031981D01*
X005644Y031981D01*
X005599Y031936D01*
X005893Y031936D02*
X005938Y031981D01*
X006028Y031981D01*
X006073Y031936D01*
X006073Y031756D01*
X006028Y031711D01*
X005938Y031711D01*
X005893Y031756D01*
X006188Y031711D02*
X006188Y031891D01*
X006278Y031981D01*
X006368Y031891D01*
X006368Y031711D01*
X006483Y031756D02*
X006483Y031936D01*
X006528Y031981D01*
X006663Y031981D01*
X006663Y031711D01*
X006528Y031711D01*
X006483Y031756D01*
X006368Y031846D02*
X006188Y031846D01*
X006188Y032711D02*
X006188Y032891D01*
X006278Y032981D01*
X006368Y032891D01*
X006368Y032711D01*
X006483Y032756D02*
X006483Y032936D01*
X006528Y032981D01*
X006663Y032981D01*
X006663Y032711D01*
X006528Y032711D01*
X006483Y032756D01*
X006368Y032846D02*
X006188Y032846D01*
X006073Y032936D02*
X006073Y032756D01*
X006028Y032711D01*
X005938Y032711D01*
X005893Y032756D01*
X005779Y032711D02*
X005599Y032711D01*
X005689Y032711D02*
X005689Y032981D01*
X005779Y032891D01*
X005893Y032936D02*
X005938Y032981D01*
X006028Y032981D01*
X006073Y032936D01*
X006097Y034469D02*
X005962Y034469D01*
X005916Y034514D01*
X005916Y034694D01*
X005962Y034739D01*
X006097Y034739D01*
X006097Y034469D01*
X006211Y034514D02*
X006211Y034694D01*
X006256Y034739D01*
X006346Y034739D01*
X006391Y034694D01*
X006391Y034514D01*
X006346Y034469D01*
X006256Y034469D01*
X006211Y034514D01*
X006506Y034604D02*
X006551Y034559D01*
X006686Y034559D01*
X006686Y034469D02*
X006686Y034739D01*
X006551Y034739D01*
X006506Y034694D01*
X006506Y034604D01*
X006796Y034649D02*
X006841Y034649D01*
X006931Y034559D01*
X006931Y034469D02*
X006931Y034649D01*
X007046Y034604D02*
X007046Y034559D01*
X007226Y034559D01*
X007226Y034514D02*
X007226Y034604D01*
X007181Y034649D01*
X007091Y034649D01*
X007046Y034604D01*
X007091Y034469D02*
X007181Y034469D01*
X007226Y034514D01*
X007341Y034514D02*
X007341Y034649D01*
X007341Y034514D02*
X007386Y034469D01*
X007431Y034514D01*
X007476Y034469D01*
X007521Y034514D01*
X007521Y034649D01*
X007635Y034604D02*
X007680Y034649D01*
X007770Y034649D01*
X007815Y034604D01*
X007815Y034514D01*
X007770Y034469D01*
X007680Y034469D01*
X007635Y034514D01*
X007635Y034604D01*
X007930Y034604D02*
X007975Y034559D01*
X008110Y034559D01*
X008110Y034469D02*
X008110Y034739D01*
X007975Y034739D01*
X007930Y034694D01*
X007930Y034604D01*
X008311Y036461D02*
X008266Y036506D01*
X008266Y036596D01*
X008311Y036641D01*
X008356Y036641D01*
X008402Y036596D01*
X008402Y036551D01*
X008402Y036596D02*
X008447Y036641D01*
X008492Y036641D01*
X008537Y036596D01*
X008537Y036506D01*
X008492Y036461D01*
X008537Y036756D02*
X008356Y036756D01*
X008266Y036846D01*
X008356Y036936D01*
X008537Y036936D01*
X008492Y037050D02*
X008537Y037095D01*
X008537Y037186D01*
X008492Y037231D01*
X008447Y037231D01*
X008402Y037186D01*
X008356Y037231D01*
X008311Y037231D01*
X008266Y037186D01*
X008266Y037095D01*
X008311Y037050D01*
X008402Y037141D02*
X008402Y037186D01*
X007537Y037186D02*
X007537Y037050D01*
X007266Y037050D01*
X007266Y037186D01*
X007311Y037231D01*
X007492Y037231D01*
X007537Y037186D01*
X007537Y036936D02*
X007266Y036936D01*
X007537Y036756D01*
X007266Y036756D01*
X007311Y036641D02*
X007402Y036641D01*
X007402Y036551D01*
X007492Y036461D02*
X007311Y036461D01*
X007266Y036506D01*
X007266Y036596D01*
X007311Y036641D01*
X007492Y036641D02*
X007537Y036596D01*
X007537Y036506D01*
X007492Y036461D01*
X006537Y036461D02*
X006402Y036461D01*
X006447Y036551D01*
X006447Y036596D01*
X006402Y036641D01*
X006311Y036641D01*
X006266Y036596D01*
X006266Y036506D01*
X006311Y036461D01*
X006537Y036461D02*
X006537Y036641D01*
X006537Y036756D02*
X006356Y036756D01*
X006266Y036846D01*
X006356Y036936D01*
X006537Y036936D01*
X006492Y037050D02*
X006537Y037095D01*
X006537Y037186D01*
X006492Y037231D01*
X006311Y037050D01*
X006266Y037095D01*
X006266Y037186D01*
X006311Y037231D01*
X006492Y037231D01*
X006492Y037050D02*
X006311Y037050D01*
X007622Y039390D02*
X007712Y039390D01*
X007757Y039435D01*
X007757Y039480D01*
X007712Y039525D01*
X007622Y039525D01*
X007577Y039480D01*
X007577Y039435D01*
X007622Y039390D01*
X007622Y039525D02*
X007577Y039570D01*
X007577Y039615D01*
X007622Y039661D01*
X007712Y039661D01*
X007757Y039615D01*
X007757Y039570D01*
X007712Y039525D01*
X007872Y039390D02*
X008052Y039390D01*
X007962Y039390D02*
X007962Y039661D01*
X008052Y039570D01*
X008166Y039615D02*
X008211Y039661D01*
X008346Y039661D01*
X008346Y039390D01*
X008211Y039390D01*
X008166Y039435D01*
X008166Y039615D01*
X012274Y039190D02*
X012274Y039100D01*
X012319Y039055D01*
X012409Y039055D02*
X012454Y039145D01*
X012454Y039190D01*
X012409Y039235D01*
X012319Y039235D01*
X012274Y039190D01*
X012409Y039055D02*
X012544Y039055D01*
X012544Y039235D01*
X012544Y038941D02*
X012544Y038850D01*
X012544Y038895D02*
X012319Y038895D01*
X012274Y038850D01*
X012274Y038805D01*
X012319Y038760D01*
X012812Y038657D02*
X012812Y037633D01*
X013293Y037033D02*
X016718Y037033D01*
X017237Y037633D02*
X017237Y038657D01*
X017781Y038617D02*
X022505Y038617D01*
X022505Y037161D01*
X022924Y036577D02*
X022924Y036397D01*
X022924Y036487D02*
X023194Y036487D01*
X023104Y036397D01*
X023059Y036282D02*
X023059Y036192D01*
X023059Y036282D02*
X022969Y036282D01*
X022924Y036237D01*
X022924Y036147D01*
X022969Y036102D01*
X023149Y036102D01*
X023194Y036147D01*
X023194Y036237D01*
X023149Y036282D01*
X023149Y035988D02*
X023194Y035943D01*
X023194Y035853D01*
X023149Y035808D01*
X023104Y035808D01*
X023059Y035853D01*
X023059Y035943D01*
X023014Y035988D01*
X022969Y035988D01*
X022924Y035943D01*
X022924Y035853D01*
X022969Y035808D01*
X022505Y035350D02*
X022505Y033893D01*
X017781Y033893D01*
X017781Y035350D01*
X018517Y036109D02*
X018568Y036109D01*
X018566Y036061D02*
X018568Y036061D01*
X018568Y036058D02*
X018568Y036452D01*
X018371Y036255D01*
X018568Y036058D01*
X018568Y036158D02*
X018469Y036158D01*
X018420Y036206D02*
X018568Y036206D01*
X018568Y036255D02*
X018372Y036255D01*
X018419Y036303D02*
X018568Y036303D01*
X018568Y036352D02*
X018468Y036352D01*
X018516Y036400D02*
X018568Y036400D01*
X018565Y036449D02*
X018568Y036449D01*
X017781Y037161D02*
X017781Y038617D01*
X016964Y039365D02*
X016964Y039414D01*
X016757Y039414D01*
X015854Y035849D02*
X015854Y035669D01*
X015989Y035804D01*
X015719Y035804D01*
X015764Y035555D02*
X015719Y035510D01*
X015719Y035420D01*
X015764Y035375D01*
X015854Y035420D02*
X015854Y035510D01*
X015809Y035555D01*
X015764Y035555D01*
X015854Y035420D02*
X015899Y035375D01*
X015944Y035375D01*
X015989Y035420D01*
X015989Y035510D01*
X015944Y035555D01*
X013293Y039414D02*
X013086Y039414D01*
X013086Y039365D01*
X008790Y030369D02*
X008790Y030189D01*
X009060Y030189D01*
X009060Y030074D02*
X009060Y029894D01*
X008790Y029894D01*
X008835Y029780D02*
X008790Y029735D01*
X008790Y029645D01*
X008835Y029600D01*
X008925Y029600D02*
X008970Y029690D01*
X008970Y029735D01*
X008925Y029780D01*
X008835Y029780D01*
X008925Y029894D02*
X008925Y029984D01*
X009060Y029780D02*
X009060Y029600D01*
X008925Y029600D01*
X008970Y029485D02*
X009015Y029485D01*
X009060Y029440D01*
X009060Y029350D01*
X009015Y029305D01*
X009015Y029191D02*
X009060Y029145D01*
X009060Y029055D01*
X009015Y029010D01*
X008970Y029010D01*
X008925Y029055D01*
X008925Y029145D01*
X008880Y029191D01*
X008835Y029191D01*
X008790Y029145D01*
X008790Y029055D01*
X008835Y029010D01*
X008790Y029305D02*
X008970Y029485D01*
X008790Y029485D02*
X008790Y029305D01*
X009223Y029328D02*
X009268Y029373D01*
X009223Y029328D02*
X009223Y029238D01*
X009268Y029193D01*
X009448Y029193D01*
X009493Y029238D01*
X009493Y029328D01*
X009448Y029373D01*
X009493Y029488D02*
X009358Y029488D01*
X009403Y029578D01*
X009403Y029623D01*
X009358Y029668D01*
X009268Y029668D01*
X009223Y029623D01*
X009223Y029533D01*
X009268Y029488D01*
X009493Y029488D02*
X009493Y029668D01*
X009458Y029941D02*
X009458Y030212D01*
X009548Y030122D01*
X009662Y030122D02*
X009662Y030167D01*
X009707Y030212D01*
X009797Y030212D01*
X009842Y030167D01*
X009662Y030122D02*
X009842Y029941D01*
X009662Y029941D01*
X009548Y029941D02*
X009368Y029941D01*
X009493Y029087D02*
X009493Y028997D01*
X009493Y029042D02*
X009223Y029042D01*
X009223Y028997D02*
X009223Y029087D01*
X010379Y029011D02*
X010379Y028617D01*
X010379Y029011D02*
X010773Y029011D01*
X012694Y029986D02*
X012739Y029941D01*
X012829Y029941D01*
X012874Y029986D01*
X012874Y030032D01*
X012829Y030077D01*
X012739Y030077D01*
X012694Y030032D01*
X012694Y029986D01*
X012739Y030077D02*
X012694Y030122D01*
X012694Y030167D01*
X012739Y030212D01*
X012829Y030212D01*
X012874Y030167D01*
X012874Y030122D01*
X012829Y030077D01*
X017859Y029011D02*
X018017Y029011D01*
X018253Y028775D01*
X018253Y028617D01*
X018249Y029193D02*
X018069Y029193D01*
X018159Y029193D02*
X018159Y029464D01*
X018249Y029374D01*
X018363Y029419D02*
X018408Y029464D01*
X018499Y029464D01*
X018544Y029419D01*
X018544Y029238D01*
X018499Y029193D01*
X018408Y029193D01*
X018363Y029238D01*
X018650Y029193D02*
X018740Y029193D01*
X018695Y029193D02*
X018695Y029464D01*
X018740Y029464D02*
X018650Y029464D01*
X019111Y029790D02*
X019156Y029745D01*
X019246Y029745D01*
X019291Y029790D01*
X019246Y029880D02*
X019111Y029880D01*
X019111Y029970D02*
X019156Y030015D01*
X019246Y030015D01*
X019291Y029970D01*
X019291Y029925D01*
X019246Y029880D01*
X019111Y029790D02*
X019111Y029970D01*
X019235Y029346D02*
X019370Y029210D01*
X019190Y029210D01*
X019235Y029075D02*
X019235Y029346D01*
X020039Y030571D02*
X020039Y030616D01*
X019859Y030797D01*
X019859Y030842D01*
X020039Y030842D01*
X020023Y031477D02*
X020114Y031477D01*
X020159Y031522D01*
X019978Y031702D01*
X019978Y031522D01*
X020023Y031477D01*
X020159Y031522D02*
X020159Y031702D01*
X020114Y031747D01*
X020023Y031747D01*
X019978Y031702D01*
X020273Y031477D02*
X020453Y031477D01*
X020363Y031477D02*
X020363Y031747D01*
X020453Y031657D01*
X020568Y031702D02*
X020568Y031522D01*
X020613Y031477D01*
X020703Y031477D01*
X020748Y031522D01*
X020748Y031702D01*
X020703Y031747D01*
X020613Y031747D01*
X020568Y031702D01*
X020658Y031567D02*
X020568Y031477D01*
X020489Y030763D02*
X020579Y030718D01*
X020669Y030628D01*
X020534Y030628D01*
X020489Y030583D01*
X020489Y030538D01*
X020534Y030493D01*
X020624Y030493D01*
X020669Y030538D01*
X020669Y030628D01*
X020961Y030290D02*
X021142Y030290D01*
X021142Y030155D01*
X021052Y030200D01*
X021006Y030200D01*
X020961Y030155D01*
X020961Y030065D01*
X021006Y030020D01*
X021097Y030020D01*
X021142Y030065D01*
X021072Y029070D02*
X021072Y028800D01*
X021162Y028800D02*
X020982Y028800D01*
X021162Y028980D02*
X021072Y029070D01*
X021366Y029070D02*
X021366Y028800D01*
X021276Y028800D02*
X021457Y028800D01*
X021457Y028980D02*
X021366Y029070D01*
X021657Y028440D02*
X021612Y028395D01*
X021792Y028215D01*
X021747Y028170D01*
X021657Y028170D01*
X021612Y028215D01*
X021612Y028395D01*
X021657Y028440D02*
X021747Y028440D01*
X021792Y028395D01*
X021792Y028215D01*
X021906Y028170D02*
X022086Y028170D01*
X021906Y028350D01*
X021906Y028395D01*
X021951Y028440D01*
X022041Y028440D01*
X022086Y028395D01*
X021996Y027810D02*
X021996Y027540D01*
X022086Y027540D02*
X021906Y027540D01*
X021792Y027585D02*
X021792Y027675D01*
X021657Y027675D01*
X021612Y027630D01*
X021612Y027585D01*
X021657Y027540D01*
X021747Y027540D01*
X021792Y027585D01*
X021792Y027675D02*
X021702Y027765D01*
X021612Y027810D01*
X021996Y027810D02*
X022086Y027720D01*
X022036Y027023D02*
X022036Y026752D01*
X022126Y026752D02*
X021946Y026752D01*
X021831Y026798D02*
X021786Y026752D01*
X021696Y026752D01*
X021651Y026798D01*
X021651Y026888D01*
X021696Y026933D01*
X021741Y026933D01*
X021831Y026888D01*
X021831Y027023D01*
X021651Y027023D01*
X021457Y027225D02*
X021276Y027225D01*
X021366Y027225D02*
X021366Y027495D01*
X021457Y027405D01*
X021162Y027450D02*
X021117Y027495D01*
X021027Y027495D01*
X020982Y027450D01*
X021162Y027270D01*
X021117Y027225D01*
X021027Y027225D01*
X020982Y027270D01*
X020982Y027450D01*
X021162Y027450D02*
X021162Y027270D01*
X020669Y027422D02*
X020489Y027422D01*
X020579Y027422D02*
X020579Y027692D01*
X020669Y027602D01*
X020374Y027647D02*
X020329Y027692D01*
X020239Y027692D01*
X020194Y027647D01*
X020194Y027602D01*
X020374Y027422D01*
X020194Y027422D01*
X022036Y027023D02*
X022126Y026933D01*
X023246Y026957D02*
X023516Y026957D01*
X023381Y026822D01*
X023381Y027002D01*
X023471Y027822D02*
X023516Y027867D01*
X023516Y027957D01*
X023471Y028002D01*
X023426Y028002D01*
X023381Y027957D01*
X023336Y028002D01*
X023291Y028002D01*
X023246Y027957D01*
X023246Y027867D01*
X023291Y027822D01*
X023381Y027912D02*
X023381Y027957D01*
X023471Y028822D02*
X023516Y028867D01*
X023516Y028957D01*
X023471Y029002D01*
X023426Y029002D01*
X023246Y028822D01*
X023246Y029002D01*
X023246Y029822D02*
X023246Y030002D01*
X023246Y029912D02*
X023516Y029912D01*
X023426Y029822D01*
X023471Y030822D02*
X023516Y030867D01*
X023516Y030957D01*
X023471Y031002D01*
X023291Y030822D01*
X023246Y030867D01*
X023246Y030957D01*
X023291Y031002D01*
X023471Y031002D01*
X023471Y030822D02*
X023291Y030822D01*
X023249Y031713D02*
X023249Y031893D01*
X023158Y031983D01*
X023068Y031893D01*
X023068Y031713D01*
X022954Y031713D02*
X022954Y031983D01*
X022774Y031713D01*
X022774Y031983D01*
X022659Y031983D02*
X022659Y031713D01*
X022659Y031803D02*
X022524Y031803D01*
X022479Y031848D01*
X022479Y031938D01*
X022524Y031983D01*
X022659Y031983D01*
X022569Y031803D02*
X022479Y031713D01*
X022365Y031713D02*
X022184Y031983D01*
X022365Y031983D02*
X022184Y031713D01*
X022184Y032697D02*
X022365Y032968D01*
X022479Y032968D02*
X022659Y032968D01*
X022569Y032968D02*
X022569Y032697D01*
X022365Y032697D02*
X022184Y032968D01*
X022774Y032968D02*
X022774Y032697D01*
X022954Y032968D01*
X022954Y032697D01*
X023068Y032697D02*
X023068Y032878D01*
X023158Y032968D01*
X023249Y032878D01*
X023249Y032697D01*
X023363Y032742D02*
X023408Y032697D01*
X023498Y032697D01*
X023543Y032742D01*
X023543Y032923D01*
X023498Y032968D01*
X023408Y032968D01*
X023363Y032923D01*
X023249Y032832D02*
X023068Y032832D01*
X023408Y031983D02*
X023498Y031983D01*
X023543Y031938D01*
X023543Y031758D01*
X023498Y031713D01*
X023408Y031713D01*
X023363Y031758D01*
X023249Y031848D02*
X023068Y031848D01*
X023363Y031938D02*
X023408Y031983D01*
X025299Y036438D02*
X025254Y036483D01*
X025254Y036663D01*
X025299Y036708D01*
X025434Y036708D01*
X025434Y036438D01*
X025299Y036438D01*
X025549Y036438D02*
X025549Y036708D01*
X025729Y036708D02*
X025549Y036438D01*
X025729Y036438D02*
X025729Y036708D01*
X025843Y036663D02*
X025888Y036708D01*
X025978Y036708D01*
X026023Y036663D01*
X026023Y036483D01*
X025978Y036438D01*
X025888Y036438D01*
X025843Y036483D01*
X025843Y036573D01*
X025933Y036573D01*
X021693Y039390D02*
X021558Y039390D01*
X021513Y039435D01*
X021513Y039615D01*
X021558Y039661D01*
X021693Y039661D01*
X021693Y039390D01*
X021398Y039390D02*
X021218Y039390D01*
X021308Y039390D02*
X021308Y039661D01*
X021398Y039570D01*
X021103Y039570D02*
X021058Y039525D01*
X020923Y039525D01*
X020923Y039435D02*
X020923Y039615D01*
X020968Y039661D01*
X021058Y039661D01*
X021103Y039615D01*
X021103Y039570D01*
X021103Y039435D02*
X021058Y039390D01*
X020968Y039390D01*
X020923Y039435D01*
X023291Y026002D02*
X023246Y025957D01*
X023246Y025867D01*
X023291Y025822D01*
X023381Y025822D02*
X023426Y025912D01*
X023426Y025957D01*
X023381Y026002D01*
X023291Y026002D01*
X023381Y025822D02*
X023516Y025822D01*
X023516Y026002D01*
X023516Y025002D02*
X023471Y024912D01*
X023381Y024822D01*
X023381Y024957D01*
X023336Y025002D01*
X023291Y025002D01*
X023246Y024957D01*
X023246Y024867D01*
X023291Y024822D01*
X023381Y024822D01*
X023471Y024002D02*
X023291Y023822D01*
X023246Y023822D01*
X023516Y023822D02*
X023516Y024002D01*
X023471Y024002D01*
X023471Y022402D02*
X023426Y022402D01*
X023381Y022357D01*
X023381Y022267D01*
X023426Y022222D01*
X023471Y022222D01*
X023516Y022267D01*
X023516Y022357D01*
X023471Y022402D01*
X023381Y022357D02*
X023336Y022402D01*
X023291Y022402D01*
X023246Y022357D01*
X023246Y022267D01*
X023291Y022222D01*
X023336Y022222D01*
X023381Y022267D01*
X023381Y021402D02*
X023381Y021267D01*
X023426Y021222D01*
X023471Y021222D01*
X023516Y021267D01*
X023516Y021357D01*
X023471Y021402D01*
X023291Y021402D01*
X023246Y021357D01*
X023246Y021267D01*
X023291Y021222D01*
X023291Y020602D02*
X023246Y020557D01*
X023246Y020467D01*
X023291Y020422D01*
X023471Y020602D01*
X023291Y020602D01*
X023471Y020602D02*
X023516Y020557D01*
X023516Y020467D01*
X023471Y020422D01*
X023291Y020422D01*
X023246Y020308D02*
X023246Y020127D01*
X023246Y020217D02*
X023516Y020217D01*
X023426Y020127D01*
X023246Y019602D02*
X023246Y019422D01*
X023246Y019512D02*
X023516Y019512D01*
X023426Y019422D01*
X023246Y019308D02*
X023246Y019127D01*
X023246Y019217D02*
X023516Y019217D01*
X023426Y019127D01*
X023426Y018602D02*
X023471Y018602D01*
X023516Y018557D01*
X023516Y018467D01*
X023471Y018422D01*
X023426Y018602D02*
X023246Y018422D01*
X023246Y018602D01*
X023246Y018308D02*
X023246Y018127D01*
X023246Y018217D02*
X023516Y018217D01*
X023426Y018127D01*
X023426Y017602D02*
X023381Y017557D01*
X023336Y017602D01*
X023291Y017602D01*
X023246Y017557D01*
X023246Y017467D01*
X023291Y017422D01*
X023246Y017308D02*
X023246Y017127D01*
X023246Y017217D02*
X023516Y017217D01*
X023426Y017127D01*
X023471Y017422D02*
X023516Y017467D01*
X023516Y017557D01*
X023471Y017602D01*
X023426Y017602D01*
X023381Y017557D02*
X023381Y017512D01*
X023447Y016334D02*
X023537Y016334D01*
X023583Y016289D01*
X023583Y016109D01*
X023537Y016064D01*
X023447Y016064D01*
X023402Y016109D01*
X023402Y016199D01*
X023492Y016199D01*
X023402Y016289D02*
X023447Y016334D01*
X023288Y016334D02*
X023108Y016064D01*
X023108Y016334D01*
X022993Y016334D02*
X022858Y016334D01*
X022813Y016289D01*
X022813Y016109D01*
X022858Y016064D01*
X022993Y016064D01*
X022993Y016334D01*
X023288Y016334D02*
X023288Y016064D01*
X023288Y015337D02*
X023153Y015337D01*
X023108Y015292D01*
X023108Y015202D01*
X023153Y015157D01*
X023288Y015157D01*
X023198Y015157D02*
X023108Y015067D01*
X022993Y015112D02*
X022993Y015202D01*
X022948Y015247D01*
X022858Y015247D01*
X022813Y015202D01*
X022813Y015157D01*
X022993Y015157D01*
X022993Y015112D02*
X022948Y015067D01*
X022858Y015067D01*
X022654Y015067D02*
X022654Y015292D01*
X022608Y015337D01*
X022608Y015202D02*
X022699Y015202D01*
X023288Y015067D02*
X023288Y015337D01*
X023402Y015247D02*
X023402Y015067D01*
X023402Y015202D02*
X023583Y015202D01*
X023583Y015247D02*
X023492Y015337D01*
X023402Y015247D01*
X023583Y015247D02*
X023583Y015067D01*
X023537Y014337D02*
X023447Y014337D01*
X023402Y014292D01*
X023447Y014202D02*
X023402Y014157D01*
X023402Y014112D01*
X023447Y014067D01*
X023537Y014067D01*
X023583Y014112D01*
X023537Y014202D02*
X023447Y014202D01*
X023537Y014202D02*
X023583Y014247D01*
X023583Y014292D01*
X023537Y014337D01*
X023288Y014337D02*
X023288Y014067D01*
X023153Y014067D01*
X023108Y014112D01*
X023108Y014292D01*
X023153Y014337D01*
X023288Y014337D01*
X022993Y014247D02*
X022993Y014067D01*
X022993Y014202D02*
X022813Y014202D01*
X022813Y014247D02*
X022813Y014067D01*
X022813Y014247D02*
X022903Y014337D01*
X022993Y014247D01*
X022993Y013337D02*
X022993Y013067D01*
X022813Y013067D01*
X023108Y013112D02*
X023153Y013067D01*
X023243Y013067D01*
X023288Y013112D01*
X023288Y013292D01*
X023243Y013337D01*
X023153Y013337D01*
X023108Y013292D01*
X023402Y013292D02*
X023447Y013337D01*
X023537Y013337D01*
X023583Y013292D01*
X023583Y013247D01*
X023537Y013202D01*
X023447Y013202D01*
X023402Y013157D01*
X023402Y013112D01*
X023447Y013067D01*
X023537Y013067D01*
X023583Y013112D01*
X022396Y011480D02*
X022441Y011435D01*
X022441Y011345D01*
X022396Y011300D01*
X022396Y011186D02*
X022216Y011006D01*
X022171Y011006D01*
X022171Y011186D01*
X022171Y011300D02*
X022351Y011480D01*
X022396Y011480D01*
X022171Y011480D02*
X022171Y011300D01*
X022396Y011186D02*
X022441Y011186D01*
X022441Y011006D01*
X022131Y010496D02*
X022131Y010316D01*
X022131Y010406D02*
X022402Y010406D01*
X022312Y010316D01*
X022357Y010202D02*
X022176Y010021D01*
X022131Y010021D01*
X022131Y010202D01*
X022357Y010202D02*
X022402Y010202D01*
X022402Y010021D01*
X022456Y009537D02*
X022456Y009492D01*
X022636Y009312D01*
X022636Y009267D01*
X022456Y009267D01*
X022342Y009312D02*
X022297Y009267D01*
X022207Y009267D01*
X022162Y009312D01*
X022162Y009357D01*
X022207Y009402D01*
X022252Y009402D01*
X022207Y009402D02*
X022162Y009447D01*
X022162Y009492D01*
X022207Y009537D01*
X022297Y009537D01*
X022342Y009492D01*
X022456Y009537D02*
X022636Y009537D01*
X024092Y008130D02*
X024272Y008130D01*
X024182Y008130D02*
X024182Y008401D01*
X024272Y008311D01*
X024387Y008401D02*
X024477Y008401D01*
X024432Y008401D02*
X024432Y008175D01*
X024477Y008130D01*
X024522Y008130D01*
X024567Y008175D01*
X024589Y003598D02*
X024544Y003552D01*
X024544Y003372D01*
X024589Y003327D01*
X024679Y003327D01*
X024724Y003372D01*
X024724Y003552D01*
X024679Y003598D01*
X024589Y003598D01*
X024430Y003552D02*
X024430Y003507D01*
X024385Y003462D01*
X024249Y003462D01*
X024249Y003372D02*
X024249Y003552D01*
X024294Y003598D01*
X024385Y003598D01*
X024430Y003552D01*
X024430Y003372D02*
X024385Y003327D01*
X024294Y003327D01*
X024249Y003372D01*
X024544Y003327D02*
X024634Y003417D01*
X020281Y006044D02*
X020281Y006134D01*
X020281Y006089D02*
X020010Y006089D01*
X020010Y006044D02*
X020010Y006134D01*
X020056Y006240D02*
X020010Y006285D01*
X020010Y006375D01*
X020056Y006420D01*
X020056Y006535D02*
X020010Y006535D01*
X020056Y006535D02*
X020236Y006715D01*
X020281Y006715D01*
X020281Y006535D01*
X020236Y006420D02*
X020281Y006375D01*
X020281Y006285D01*
X020236Y006240D01*
X020056Y006240D01*
X017800Y006213D02*
X017800Y006123D01*
X017800Y006168D02*
X017530Y006168D01*
X017530Y006123D02*
X017530Y006213D01*
X017575Y006319D02*
X017530Y006364D01*
X017530Y006454D01*
X017575Y006499D01*
X017530Y006614D02*
X017710Y006794D01*
X017755Y006794D01*
X017800Y006749D01*
X017800Y006659D01*
X017755Y006614D01*
X017755Y006499D02*
X017800Y006454D01*
X017800Y006364D01*
X017755Y006319D01*
X017575Y006319D01*
X017530Y006614D02*
X017530Y006794D01*
X017230Y007121D02*
X017111Y007239D01*
X017079Y007113D02*
X017081Y007123D01*
X017086Y007131D01*
X017094Y007136D01*
X017104Y007138D01*
X017114Y007136D01*
X017122Y007131D01*
X017127Y007123D01*
X017129Y007113D01*
X017127Y007103D01*
X017122Y007095D01*
X017114Y007090D01*
X017104Y007088D01*
X017094Y007090D01*
X017086Y007095D01*
X017081Y007103D01*
X017079Y007113D01*
X017230Y005704D02*
X017230Y005586D01*
X017111Y005586D01*
X015694Y005586D02*
X015576Y005586D01*
X015576Y005704D01*
X015576Y007121D02*
X015576Y007239D01*
X015694Y007239D01*
X019063Y011216D02*
X019065Y011230D01*
X019071Y011244D01*
X019079Y011256D01*
X019091Y011264D01*
X019105Y011270D01*
X019119Y011272D01*
X019133Y011270D01*
X019147Y011264D01*
X019159Y011256D01*
X019167Y011244D01*
X019173Y011230D01*
X019175Y011216D01*
X019173Y011202D01*
X019167Y011188D01*
X019159Y011176D01*
X019147Y011168D01*
X019133Y011162D01*
X019119Y011160D01*
X019105Y011162D01*
X019091Y011168D01*
X019079Y011176D01*
X019071Y011188D01*
X019065Y011202D01*
X019063Y011216D01*
X016974Y015335D02*
X016703Y015515D01*
X016974Y015515D01*
X016974Y015630D02*
X016703Y015630D01*
X016793Y015630D02*
X016793Y015765D01*
X016839Y015810D01*
X016929Y015810D01*
X016974Y015765D01*
X016974Y015630D01*
X016793Y015720D02*
X016703Y015810D01*
X016748Y015924D02*
X016703Y015969D01*
X016703Y016060D01*
X016748Y016105D01*
X016793Y016105D01*
X016839Y016060D01*
X016839Y015969D01*
X016884Y015924D01*
X016929Y015924D01*
X016974Y015969D01*
X016974Y016060D01*
X016929Y016105D01*
X016974Y016219D02*
X016974Y016399D01*
X016974Y016309D02*
X016703Y016309D01*
X016703Y016514D02*
X016703Y016649D01*
X016748Y016694D01*
X016793Y016694D01*
X016839Y016649D01*
X016839Y016514D01*
X016974Y016514D02*
X016703Y016514D01*
X016839Y016649D02*
X016884Y016694D01*
X016929Y016694D01*
X016974Y016649D01*
X016974Y016514D01*
X016974Y015335D02*
X016703Y015335D01*
X015202Y015375D02*
X014932Y015555D01*
X015202Y015555D01*
X015202Y015669D02*
X015202Y015804D01*
X015157Y015849D01*
X015067Y015849D01*
X015022Y015804D01*
X015022Y015669D01*
X015022Y015759D02*
X014932Y015849D01*
X014977Y015964D02*
X014932Y016009D01*
X014932Y016099D01*
X014977Y016144D01*
X015022Y016144D01*
X015067Y016099D01*
X015067Y016009D01*
X015112Y015964D01*
X015157Y015964D01*
X015202Y016009D01*
X015202Y016099D01*
X015157Y016144D01*
X015202Y016258D02*
X015202Y016439D01*
X015202Y016349D02*
X014932Y016349D01*
X014932Y015669D02*
X015202Y015669D01*
X015202Y015375D02*
X014932Y015375D01*
X014597Y017924D02*
X014597Y018524D01*
X015234Y018682D02*
X015414Y018682D01*
X015234Y018862D01*
X015234Y018907D01*
X015279Y018952D01*
X015369Y018952D01*
X015414Y018907D01*
X015528Y018952D02*
X015709Y018682D01*
X015528Y018682D02*
X015709Y018952D01*
X016397Y018524D02*
X016397Y017924D01*
X017938Y021137D02*
X018253Y021137D01*
X018253Y021531D01*
X019407Y022619D02*
X019587Y022619D01*
X019497Y022619D02*
X019497Y022889D01*
X019587Y022799D01*
X019702Y022889D02*
X019882Y022619D01*
X019702Y022619D02*
X019882Y022889D01*
X021572Y024396D02*
X021572Y024441D01*
X021617Y024486D01*
X021752Y024486D01*
X021752Y024396D01*
X021707Y024351D01*
X021617Y024351D01*
X021572Y024396D01*
X021662Y024576D02*
X021752Y024486D01*
X021867Y024531D02*
X021867Y024576D01*
X021912Y024621D01*
X022002Y024621D01*
X022047Y024576D01*
X021867Y024531D02*
X022047Y024351D01*
X021867Y024351D01*
X021662Y024576D02*
X021572Y024621D01*
X021945Y020572D02*
X021900Y020527D01*
X021900Y020437D01*
X021945Y020392D01*
X022035Y020392D02*
X022080Y020482D01*
X022080Y020527D01*
X022035Y020572D01*
X021945Y020572D01*
X022035Y020392D02*
X022170Y020392D01*
X022170Y020572D01*
X022333Y020572D02*
X022333Y020392D01*
X022513Y020572D01*
X022559Y020572D01*
X022604Y020527D01*
X022604Y020437D01*
X022559Y020392D01*
X022559Y020278D02*
X022378Y020098D01*
X022333Y020143D01*
X022333Y020233D01*
X022378Y020278D01*
X022559Y020278D01*
X022604Y020233D01*
X022604Y020143D01*
X022559Y020098D01*
X022378Y020098D01*
X022333Y019983D02*
X022333Y019803D01*
X022333Y019893D02*
X022604Y019893D01*
X022513Y019803D01*
X022333Y019689D02*
X022333Y019508D01*
X022604Y019508D01*
X022170Y019508D02*
X021900Y019508D01*
X021900Y019689D01*
X021900Y019803D02*
X021900Y019983D01*
X021900Y019893D02*
X022170Y019893D01*
X022080Y019803D01*
X022125Y020098D02*
X021945Y020098D01*
X022125Y020278D01*
X021945Y020278D01*
X021900Y020233D01*
X021900Y020143D01*
X021945Y020098D01*
X022125Y020098D02*
X022170Y020143D01*
X022170Y020233D01*
X022125Y020278D01*
X025686Y022623D02*
X025686Y025163D01*
X026456Y025163D01*
X026456Y025213D01*
X026456Y025263D01*
X026826Y025263D01*
X026826Y024893D01*
X026776Y024893D01*
X026776Y025213D01*
X026456Y025213D01*
X026456Y025163D02*
X026726Y025163D01*
X026726Y024893D01*
X026776Y024893D01*
X026726Y024893D02*
X026726Y022623D01*
X025686Y022623D01*
X013509Y018645D02*
X013509Y018464D01*
X013374Y018464D01*
X013419Y018555D01*
X013419Y018600D01*
X013374Y018645D01*
X013284Y018645D01*
X013239Y018600D01*
X013239Y018509D01*
X013284Y018464D01*
X013239Y018350D02*
X013239Y018170D01*
X013419Y018350D01*
X013464Y018350D01*
X013509Y018305D01*
X013509Y018215D01*
X013464Y018170D01*
X011836Y015231D02*
X011375Y015231D01*
X011836Y015231D02*
X011836Y014838D01*
X008780Y017346D02*
X008509Y017346D01*
X008509Y017526D01*
X008509Y017640D02*
X008509Y017820D01*
X008509Y017730D02*
X008780Y017730D01*
X008690Y017640D01*
X008735Y017935D02*
X008554Y017935D01*
X008735Y018115D01*
X008554Y018115D01*
X008509Y018070D01*
X008509Y017980D01*
X008554Y017935D01*
X008735Y017935D02*
X008780Y017980D01*
X008780Y018070D01*
X008735Y018115D01*
X008690Y018229D02*
X008780Y018320D01*
X008509Y018320D01*
X008509Y018410D02*
X008509Y018229D01*
X008347Y018275D02*
X008347Y018365D01*
X008301Y018410D01*
X008256Y018410D01*
X008211Y018365D01*
X008166Y018410D01*
X008121Y018410D01*
X008076Y018365D01*
X008076Y018275D01*
X008121Y018229D01*
X008121Y018115D02*
X008076Y018070D01*
X008076Y017980D01*
X008121Y017935D01*
X008301Y018115D01*
X008121Y018115D01*
X008121Y017935D02*
X008301Y017935D01*
X008347Y017980D01*
X008347Y018070D01*
X008301Y018115D01*
X008301Y018229D02*
X008347Y018275D01*
X008211Y018320D02*
X008211Y018365D01*
X008076Y017820D02*
X008076Y017640D01*
X008076Y017730D02*
X008347Y017730D01*
X008256Y017640D01*
X008076Y017526D02*
X008076Y017346D01*
X008347Y017346D01*
X010379Y021137D02*
X010379Y021531D01*
X010379Y021137D02*
X010773Y021137D01*
X005836Y019843D02*
X005656Y019843D01*
X005067Y016038D02*
X004977Y015948D01*
X004977Y015768D01*
X004863Y015768D02*
X004863Y016038D01*
X004683Y015768D01*
X004683Y016038D01*
X004568Y016038D02*
X004388Y016038D01*
X004478Y016038D02*
X004478Y015768D01*
X004977Y015903D02*
X005157Y015903D01*
X005157Y015948D02*
X005067Y016038D01*
X005157Y015948D02*
X005157Y015768D01*
X005498Y014444D02*
X005496Y014405D01*
X005490Y014367D01*
X005481Y014330D01*
X005468Y014293D01*
X005451Y014258D01*
X005432Y014225D01*
X005409Y014194D01*
X005383Y014165D01*
X005354Y014139D01*
X005323Y014116D01*
X005290Y014097D01*
X005255Y014080D01*
X005218Y014067D01*
X005181Y014058D01*
X005143Y014052D01*
X005104Y014050D01*
X001419Y014050D01*
X001419Y010153D01*
X005104Y010153D01*
X005143Y010151D01*
X005181Y010145D01*
X005218Y010136D01*
X005255Y010123D01*
X005290Y010106D01*
X005323Y010087D01*
X005354Y010064D01*
X005383Y010038D01*
X005409Y010009D01*
X005432Y009978D01*
X005451Y009945D01*
X005468Y009910D01*
X005481Y009873D01*
X005490Y009836D01*
X005496Y009798D01*
X005498Y009759D01*
X005497Y008972D02*
X005911Y008972D01*
X007090Y007180D02*
X007045Y007135D01*
X007045Y007090D01*
X007090Y007045D01*
X007180Y007045D01*
X007225Y007090D01*
X007225Y007135D01*
X007180Y007180D01*
X007090Y007180D01*
X007090Y007045D02*
X007045Y007000D01*
X007045Y006955D01*
X007090Y006910D01*
X007180Y006910D01*
X007225Y006955D01*
X007225Y007000D01*
X007180Y007045D01*
X007339Y006955D02*
X007384Y006910D01*
X007474Y006910D01*
X007520Y006955D01*
X007520Y007135D01*
X007474Y007180D01*
X007384Y007180D01*
X007339Y007135D01*
X007339Y006955D01*
X007339Y006910D02*
X007429Y007000D01*
X009484Y006028D02*
X009484Y005983D01*
X009529Y005938D01*
X009620Y005938D01*
X009665Y005983D01*
X009665Y006028D01*
X009620Y006073D01*
X009529Y006073D01*
X009484Y006028D01*
X009529Y005938D02*
X009484Y005893D01*
X009484Y005848D01*
X009529Y005803D01*
X009620Y005803D01*
X009665Y005848D01*
X009665Y005893D01*
X009620Y005938D01*
X009779Y006028D02*
X009824Y006073D01*
X009914Y006073D01*
X009959Y006028D01*
X009959Y005848D01*
X009914Y005803D01*
X009824Y005803D01*
X009779Y005848D01*
X010066Y005803D02*
X010156Y005803D01*
X010111Y005803D02*
X010111Y006073D01*
X010156Y006073D02*
X010066Y006073D01*
X011375Y008972D02*
X011836Y008972D01*
X011836Y009365D01*
X004055Y002735D02*
X004010Y002780D01*
X003965Y002780D01*
X003920Y002735D01*
X003920Y002645D01*
X003965Y002600D01*
X004010Y002600D01*
X004055Y002645D01*
X004055Y002735D01*
X003920Y002735D02*
X003875Y002780D01*
X003830Y002780D01*
X003785Y002735D01*
X003785Y002645D01*
X003830Y002600D01*
X003875Y002600D01*
X003920Y002645D01*
X004055Y002485D02*
X004055Y002395D01*
X004055Y002440D02*
X003830Y002440D01*
X003785Y002395D01*
X003785Y002350D01*
X003830Y002305D01*
X002750Y039390D02*
X002795Y039435D01*
X002750Y039390D02*
X002660Y039390D01*
X002615Y039435D01*
X002615Y039480D01*
X002660Y039525D01*
X002705Y039525D01*
X002660Y039525D02*
X002615Y039570D01*
X002615Y039615D01*
X002660Y039661D01*
X002750Y039661D01*
X002795Y039615D01*
X002500Y039661D02*
X002500Y039480D01*
X002410Y039390D01*
X002320Y039480D01*
X002320Y039661D01*
X002206Y039615D02*
X002161Y039661D01*
X002071Y039661D01*
X002026Y039615D01*
X002026Y039570D01*
X002071Y039525D01*
X002026Y039480D01*
X002026Y039435D01*
X002071Y039390D01*
X002161Y039390D01*
X002206Y039435D01*
X002116Y039525D02*
X002071Y039525D01*
D12*
X008637Y028607D02*
X008503Y028473D01*
X008470Y028473D01*
X008503Y028386D02*
X008470Y028353D01*
X008470Y028286D01*
X008503Y028252D01*
X008637Y028386D01*
X008503Y028386D01*
X008503Y028252D02*
X008637Y028252D01*
X008670Y028286D01*
X008670Y028353D01*
X008637Y028386D01*
X008670Y028473D02*
X008670Y028607D01*
X008637Y028607D01*
X008470Y028165D02*
X008470Y028031D01*
X008470Y028098D02*
X008670Y028098D01*
X008603Y028031D01*
X008637Y027944D02*
X008670Y027911D01*
X008670Y027844D01*
X008637Y027810D01*
X008503Y027810D01*
X008470Y027844D01*
X008470Y027911D01*
X008503Y027944D01*
X008500Y027263D02*
X008567Y027229D01*
X008633Y027163D01*
X008533Y027163D01*
X008500Y027129D01*
X008500Y027096D01*
X008533Y027062D01*
X008600Y027062D01*
X008633Y027096D01*
X008633Y027163D01*
X008721Y027062D02*
X008854Y027062D01*
X008787Y027062D02*
X008787Y027263D01*
X008854Y027196D01*
X008942Y027062D02*
X009075Y027062D01*
X009008Y027062D02*
X009008Y027263D01*
X009075Y027196D01*
X009163Y027229D02*
X009196Y027263D01*
X009263Y027263D01*
X009296Y027229D01*
X009296Y027096D01*
X009263Y027062D01*
X009196Y027062D01*
X009163Y027096D01*
X007485Y027844D02*
X007452Y027810D01*
X007385Y027810D01*
X007352Y027844D01*
X007264Y027844D02*
X007231Y027810D01*
X007164Y027810D01*
X007131Y027844D01*
X007131Y027877D01*
X007164Y027911D01*
X007197Y027911D01*
X007164Y027911D02*
X007131Y027944D01*
X007131Y027977D01*
X007164Y028011D01*
X007231Y028011D01*
X007264Y027977D01*
X007352Y027977D02*
X007385Y028011D01*
X007452Y028011D01*
X007485Y027977D01*
X007485Y027844D01*
X007043Y027810D02*
X006910Y027944D01*
X006910Y027977D01*
X006943Y028011D01*
X007010Y028011D01*
X007043Y027977D01*
X007043Y027810D02*
X006910Y027810D01*
X006797Y026814D02*
X006750Y026814D01*
X006703Y026767D01*
X006703Y026720D01*
X006797Y026625D01*
X006844Y026625D01*
X006891Y026672D01*
X006891Y026720D01*
X006797Y026814D01*
X006821Y026696D02*
X006821Y026602D01*
X006759Y026540D02*
X006664Y026445D01*
X006712Y026493D02*
X006570Y026634D01*
X006664Y026634D01*
X006485Y026501D02*
X006437Y026501D01*
X006390Y026454D01*
X006390Y026407D01*
X006414Y026383D01*
X006461Y026383D01*
X006461Y026336D01*
X006485Y026313D01*
X006532Y026313D01*
X006579Y026360D01*
X006579Y026407D01*
X006485Y026407D02*
X006461Y026383D01*
X006613Y026232D02*
X006660Y026279D01*
X006707Y026279D01*
X006731Y026255D01*
X006731Y026208D01*
X006660Y026137D01*
X006707Y026090D02*
X006613Y026184D01*
X006613Y026232D01*
X006707Y026090D02*
X006754Y026090D01*
X006802Y026137D01*
X006802Y026184D01*
X006816Y026293D02*
X006911Y026388D01*
X006769Y026388D01*
X006911Y026246D01*
X007043Y026379D02*
X007043Y026473D01*
X007020Y026450D02*
X007091Y026520D01*
X007138Y026473D02*
X006996Y026615D01*
X006925Y026544D01*
X006925Y026497D01*
X006973Y026450D01*
X007020Y026450D01*
X007864Y022381D02*
X007830Y022347D01*
X007830Y022314D01*
X007864Y022281D01*
X007830Y022247D01*
X007830Y022214D01*
X007864Y022181D01*
X007931Y022181D01*
X007964Y022214D01*
X008051Y022214D02*
X008085Y022181D01*
X008152Y022181D01*
X008185Y022214D01*
X008051Y022347D01*
X008051Y022214D01*
X008051Y022347D02*
X008085Y022381D01*
X008152Y022381D01*
X008185Y022347D01*
X008185Y022214D01*
X008272Y022181D02*
X008406Y022181D01*
X008339Y022181D02*
X008339Y022381D01*
X008406Y022314D01*
X008493Y022347D02*
X008527Y022381D01*
X008594Y022381D01*
X008627Y022347D01*
X008627Y022214D01*
X008594Y022181D01*
X008527Y022181D01*
X008493Y022214D01*
X008942Y022156D02*
X008976Y022190D01*
X009109Y022190D01*
X009143Y022156D01*
X009143Y022089D01*
X009109Y022056D01*
X009076Y022056D01*
X009043Y022089D01*
X009043Y022190D01*
X008942Y022156D02*
X008942Y022089D01*
X008976Y022056D01*
X008942Y021969D02*
X008942Y021835D01*
X008942Y021902D02*
X009143Y021902D01*
X009076Y021835D01*
X008942Y021748D02*
X008942Y021614D01*
X008942Y021681D02*
X009143Y021681D01*
X009076Y021614D01*
X009109Y021527D02*
X009143Y021493D01*
X009143Y021427D01*
X009109Y021393D01*
X008976Y021393D01*
X008942Y021427D01*
X008942Y021493D01*
X008976Y021527D01*
X008391Y020930D02*
X008391Y020797D01*
X008357Y020763D01*
X008291Y020763D01*
X008257Y020797D01*
X008170Y020763D02*
X008036Y020763D01*
X008103Y020763D02*
X008103Y020963D01*
X008170Y020897D01*
X008257Y020930D02*
X008291Y020963D01*
X008357Y020963D01*
X008391Y020930D01*
X007949Y020930D02*
X007915Y020963D01*
X007849Y020963D01*
X007815Y020930D01*
X007949Y020797D01*
X007915Y020763D01*
X007849Y020763D01*
X007815Y020797D01*
X007815Y020930D01*
X007728Y020897D02*
X007661Y020963D01*
X007661Y020763D01*
X007728Y020763D02*
X007594Y020763D01*
X007949Y020797D02*
X007949Y020930D01*
X007897Y022281D02*
X007864Y022281D01*
X007864Y022381D02*
X007931Y022381D01*
X007964Y022347D01*
X007688Y019270D02*
X007721Y019237D01*
X007721Y019104D01*
X007688Y019070D01*
X007621Y019070D01*
X007588Y019104D01*
X007500Y019070D02*
X007367Y019070D01*
X007434Y019070D02*
X007434Y019270D01*
X007500Y019204D01*
X007588Y019237D02*
X007621Y019270D01*
X007688Y019270D01*
X007279Y019204D02*
X007213Y019270D01*
X007213Y019070D01*
X007279Y019070D02*
X007146Y019070D01*
X007058Y019104D02*
X007058Y019137D01*
X007025Y019170D01*
X006958Y019170D01*
X006925Y019137D01*
X006925Y019104D01*
X006958Y019070D01*
X007025Y019070D01*
X007058Y019104D01*
X007025Y019170D02*
X007058Y019204D01*
X007058Y019237D01*
X007025Y019270D01*
X006958Y019270D01*
X006925Y019237D01*
X006925Y019204D01*
X006958Y019170D01*
X007988Y018804D02*
X008121Y018671D01*
X008088Y018637D01*
X008021Y018637D01*
X007988Y018671D01*
X007988Y018804D01*
X008021Y018837D01*
X008088Y018837D01*
X008121Y018804D01*
X008121Y018671D01*
X008209Y018637D02*
X008342Y018637D01*
X008276Y018637D02*
X008276Y018837D01*
X008342Y018771D01*
X008430Y018637D02*
X008563Y018637D01*
X008497Y018637D02*
X008497Y018837D01*
X008563Y018771D01*
X008651Y018804D02*
X008684Y018837D01*
X008751Y018837D01*
X008784Y018804D01*
X008784Y018671D01*
X008751Y018637D01*
X008684Y018637D01*
X008651Y018671D01*
X009317Y018667D02*
X009317Y018601D01*
X009350Y018567D01*
X009417Y018567D01*
X009450Y018601D01*
X009450Y018667D01*
X009417Y018701D01*
X009383Y018701D01*
X009383Y018567D01*
X009417Y018480D02*
X009383Y018447D01*
X009383Y018346D01*
X009317Y018346D02*
X009517Y018346D01*
X009517Y018447D01*
X009483Y018480D01*
X009417Y018480D01*
X009383Y018413D02*
X009317Y018480D01*
X009317Y018259D02*
X009450Y018259D01*
X009517Y018192D01*
X009450Y018125D01*
X009317Y018125D01*
X009417Y018125D02*
X009417Y018259D01*
X009417Y018788D02*
X009417Y018855D01*
X009483Y018822D02*
X009317Y018822D01*
X009483Y018822D02*
X009517Y018855D01*
X010616Y018831D02*
X010649Y018797D01*
X010616Y018831D02*
X010616Y018897D01*
X010649Y018931D01*
X010682Y018931D01*
X010716Y018897D01*
X010716Y018864D01*
X010716Y018897D02*
X010749Y018931D01*
X010783Y018931D01*
X010816Y018897D01*
X010816Y018831D01*
X010783Y018797D01*
X010816Y019018D02*
X010682Y019018D01*
X010616Y019085D01*
X010682Y019152D01*
X010816Y019152D01*
X010783Y019239D02*
X010816Y019273D01*
X010816Y019339D01*
X010783Y019373D01*
X010749Y019373D01*
X010716Y019339D01*
X010682Y019373D01*
X010649Y019373D01*
X010616Y019339D01*
X010616Y019273D01*
X010649Y019239D01*
X010716Y019306D02*
X010716Y019339D01*
X011216Y019401D02*
X011216Y019434D01*
X011250Y019467D01*
X011316Y019467D01*
X011350Y019434D01*
X011216Y019401D02*
X011350Y019267D01*
X011216Y019267D01*
X011437Y019267D02*
X011571Y019267D01*
X011504Y019267D02*
X011504Y019467D01*
X011571Y019401D01*
X011658Y019267D02*
X011792Y019267D01*
X011725Y019267D02*
X011725Y019467D01*
X011792Y019401D01*
X011879Y019434D02*
X011913Y019467D01*
X011979Y019467D01*
X012013Y019434D01*
X012013Y019301D01*
X011979Y019267D01*
X011913Y019267D01*
X011879Y019301D01*
X011968Y019621D02*
X011935Y019655D01*
X011935Y019722D01*
X011968Y019755D01*
X011935Y019842D02*
X011935Y019976D01*
X011935Y019909D02*
X012135Y019909D01*
X012068Y019842D01*
X012101Y019755D02*
X012135Y019722D01*
X012135Y019655D01*
X012101Y019621D01*
X011968Y019621D01*
X011968Y020063D02*
X012101Y020197D01*
X011968Y020197D01*
X011935Y020164D01*
X011935Y020097D01*
X011968Y020063D01*
X012101Y020063D01*
X012135Y020097D01*
X012135Y020164D01*
X012101Y020197D01*
X012035Y020284D02*
X012035Y020418D01*
X011935Y020385D02*
X012135Y020385D01*
X012035Y020284D01*
X011777Y018882D02*
X011777Y018749D01*
X011777Y018816D02*
X011977Y018816D01*
X011911Y018749D01*
X011777Y018661D02*
X011777Y018528D01*
X011777Y018595D02*
X011977Y018595D01*
X011911Y018528D01*
X011777Y018440D02*
X011777Y018307D01*
X011777Y018374D02*
X011977Y018374D01*
X011911Y018307D01*
X011944Y018220D02*
X011977Y018186D01*
X011977Y018119D01*
X011944Y018086D01*
X011810Y018086D01*
X011777Y018119D01*
X011777Y018186D01*
X011810Y018220D01*
X010783Y018168D02*
X010649Y018168D01*
X010616Y018201D01*
X010749Y018201D02*
X010749Y018134D01*
X010749Y018047D02*
X010616Y017913D01*
X010616Y017826D02*
X010616Y017692D01*
X010816Y017692D01*
X010816Y017826D01*
X010749Y017913D02*
X010616Y018047D01*
X010716Y017759D02*
X010716Y017692D01*
X010816Y018503D02*
X010616Y018503D01*
X010168Y016869D02*
X010202Y016836D01*
X010202Y016802D01*
X010168Y016769D01*
X010102Y016769D01*
X010068Y016735D01*
X010068Y016702D01*
X010102Y016669D01*
X010168Y016669D01*
X010202Y016702D01*
X010202Y016554D02*
X010102Y016554D01*
X010068Y016521D01*
X010068Y016454D01*
X010102Y016420D01*
X010202Y016420D01*
X010202Y016354D02*
X010202Y016554D01*
X010135Y016420D02*
X010068Y016354D01*
X009981Y016387D02*
X009981Y016454D01*
X009947Y016487D01*
X009881Y016487D01*
X009847Y016454D01*
X009847Y016420D01*
X009981Y016420D01*
X009981Y016387D02*
X009947Y016354D01*
X009881Y016354D01*
X009760Y016354D02*
X009660Y016354D01*
X009626Y016387D01*
X009660Y016420D01*
X009726Y016420D01*
X009760Y016454D01*
X009726Y016487D01*
X009626Y016487D01*
X009539Y016454D02*
X009505Y016487D01*
X009439Y016487D01*
X009405Y016454D01*
X009405Y016420D01*
X009539Y016420D01*
X009539Y016387D02*
X009539Y016454D01*
X009539Y016387D02*
X009505Y016354D01*
X009439Y016354D01*
X009284Y016387D02*
X009251Y016354D01*
X009284Y016387D02*
X009284Y016521D01*
X009251Y016487D02*
X009318Y016487D01*
X009693Y016769D02*
X009760Y016769D01*
X009847Y016769D02*
X009881Y016735D01*
X009981Y016735D01*
X009981Y016669D02*
X009981Y016869D01*
X009881Y016869D01*
X009847Y016836D01*
X009847Y016769D01*
X009914Y016735D02*
X009847Y016669D01*
X009760Y016669D02*
X009760Y016869D01*
X009626Y016869D01*
X010068Y016836D02*
X010102Y016869D01*
X010168Y016869D01*
X007958Y017411D02*
X007924Y017377D01*
X007858Y017377D01*
X007824Y017411D01*
X007737Y017377D02*
X007603Y017377D01*
X007670Y017377D02*
X007670Y017578D01*
X007737Y017511D01*
X007824Y017544D02*
X007858Y017578D01*
X007924Y017578D01*
X007958Y017544D01*
X007958Y017411D01*
X007516Y017411D02*
X007482Y017377D01*
X007416Y017377D01*
X007382Y017411D01*
X007382Y017444D01*
X007416Y017477D01*
X007449Y017477D01*
X007416Y017477D02*
X007382Y017511D01*
X007382Y017544D01*
X007416Y017578D01*
X007482Y017578D01*
X007516Y017544D01*
X007295Y017477D02*
X007161Y017477D01*
X007195Y017377D02*
X007195Y017578D01*
X007295Y017477D01*
X007306Y016396D02*
X007373Y016396D01*
X007406Y016363D01*
X007406Y016230D01*
X007373Y016196D01*
X007306Y016196D01*
X007273Y016230D01*
X007185Y016196D02*
X007052Y016330D01*
X007052Y016363D01*
X007085Y016396D01*
X007152Y016396D01*
X007185Y016363D01*
X007273Y016363D02*
X007306Y016396D01*
X007185Y016196D02*
X007052Y016196D01*
X008779Y007889D02*
X008746Y007856D01*
X008746Y007789D01*
X008779Y007756D01*
X008846Y007756D02*
X008879Y007823D01*
X008879Y007856D01*
X008846Y007889D01*
X008779Y007889D01*
X008846Y007756D02*
X008946Y007756D01*
X008946Y007889D01*
X009061Y007856D02*
X009094Y007889D01*
X009127Y007889D01*
X009161Y007856D01*
X009161Y007756D01*
X009094Y007756D01*
X009061Y007789D01*
X009061Y007856D01*
X009161Y007756D02*
X009227Y007823D01*
X009261Y007889D01*
X009227Y007668D02*
X009161Y007668D01*
X009127Y007635D01*
X009127Y007535D01*
X009061Y007535D02*
X009261Y007535D01*
X009261Y007635D01*
X009227Y007668D01*
X009127Y007602D02*
X009061Y007668D01*
X008946Y007635D02*
X008912Y007668D01*
X008846Y007668D01*
X008812Y007635D01*
X008812Y007535D01*
X008746Y007535D02*
X008946Y007535D01*
X008946Y007635D01*
X008812Y007602D02*
X008746Y007668D01*
X008519Y007441D02*
X008485Y007441D01*
X008452Y007408D01*
X008452Y007341D01*
X008485Y007308D01*
X008519Y007308D01*
X008552Y007341D01*
X008552Y007408D01*
X008519Y007441D01*
X008452Y007408D02*
X008419Y007441D01*
X008385Y007441D01*
X008352Y007408D01*
X008352Y007341D01*
X008385Y007308D01*
X008419Y007308D01*
X008452Y007341D01*
X008419Y007220D02*
X008385Y007220D01*
X008352Y007187D01*
X008352Y007120D01*
X008385Y007087D01*
X008352Y006999D02*
X008419Y006932D01*
X008419Y006966D02*
X008419Y006866D01*
X008352Y006866D02*
X008552Y006866D01*
X008552Y006966D01*
X008519Y006999D01*
X008452Y006999D01*
X008419Y006966D01*
X008519Y007087D02*
X008552Y007120D01*
X008552Y007187D01*
X008519Y007220D01*
X008485Y007220D01*
X008452Y007187D01*
X008419Y007220D01*
X008452Y007187D02*
X008452Y007153D01*
X008237Y007120D02*
X008237Y007187D01*
X008204Y007220D01*
X008170Y007220D01*
X008137Y007187D01*
X008104Y007220D01*
X008070Y007220D01*
X008037Y007187D01*
X008037Y007120D01*
X008070Y007087D01*
X008037Y006999D02*
X008104Y006932D01*
X008104Y006966D02*
X008104Y006866D01*
X008037Y006866D02*
X008237Y006866D01*
X008237Y006966D01*
X008204Y006999D01*
X008137Y006999D01*
X008104Y006966D01*
X008204Y007087D02*
X008237Y007120D01*
X008137Y007153D02*
X008137Y007187D01*
X008170Y007308D02*
X008137Y007341D01*
X008137Y007441D01*
X008070Y007441D02*
X008204Y007441D01*
X008237Y007408D01*
X008237Y007341D01*
X008204Y007308D01*
X008170Y007308D01*
X008070Y007308D02*
X008037Y007341D01*
X008037Y007408D01*
X008070Y007441D01*
X007525Y007499D02*
X007525Y007299D01*
X007525Y007365D02*
X007424Y007365D01*
X007391Y007399D01*
X007391Y007465D01*
X007424Y007499D01*
X007525Y007499D01*
X007458Y007365D02*
X007391Y007299D01*
X007304Y007399D02*
X007170Y007399D01*
X007083Y007432D02*
X007016Y007499D01*
X007016Y007299D01*
X007083Y007299D02*
X006949Y007299D01*
X007203Y007299D02*
X007203Y007499D01*
X007304Y007399D01*
X007677Y005748D02*
X007710Y005748D01*
X007743Y005715D01*
X007743Y005615D01*
X007677Y005615D01*
X007643Y005648D01*
X007643Y005715D01*
X007677Y005748D01*
X007810Y005681D02*
X007743Y005615D01*
X007710Y005527D02*
X007677Y005527D01*
X007643Y005494D01*
X007643Y005427D01*
X007677Y005394D01*
X007677Y005306D02*
X007643Y005273D01*
X007643Y005206D01*
X007677Y005173D01*
X007810Y005173D01*
X007843Y005206D01*
X007843Y005273D01*
X007810Y005306D01*
X007810Y005394D02*
X007843Y005427D01*
X007843Y005494D01*
X007810Y005527D01*
X007777Y005527D01*
X007743Y005494D01*
X007710Y005527D01*
X007743Y005494D02*
X007743Y005460D01*
X007810Y005681D02*
X007843Y005748D01*
X007406Y005530D02*
X007306Y005530D01*
X007273Y005497D01*
X007273Y005430D01*
X007306Y005397D01*
X007406Y005397D01*
X007340Y005397D02*
X007273Y005330D01*
X007185Y005430D02*
X007052Y005430D01*
X006964Y005430D02*
X006864Y005430D01*
X006831Y005397D01*
X006831Y005364D01*
X006864Y005330D01*
X006931Y005330D01*
X006964Y005364D01*
X006964Y005430D01*
X006898Y005497D01*
X006831Y005530D01*
X007085Y005530D02*
X007185Y005430D01*
X007085Y005330D02*
X007085Y005530D01*
X007406Y005530D02*
X007406Y005330D01*
X008070Y004331D02*
X008037Y004297D01*
X008037Y004231D01*
X008070Y004197D01*
X008137Y004231D02*
X008137Y004331D01*
X008070Y004331D02*
X008204Y004331D01*
X008237Y004297D01*
X008237Y004231D01*
X008204Y004197D01*
X008170Y004197D01*
X008137Y004231D01*
X008137Y004110D02*
X008137Y003976D01*
X008237Y004076D01*
X008037Y004076D01*
X008070Y003889D02*
X008037Y003855D01*
X008037Y003789D01*
X008070Y003755D01*
X008204Y003755D01*
X008237Y003789D01*
X008237Y003855D01*
X008204Y003889D01*
X009966Y003842D02*
X009966Y003909D01*
X009999Y003942D01*
X010133Y003942D01*
X010166Y003909D01*
X010166Y003842D01*
X010133Y003809D01*
X010100Y003809D01*
X010066Y003842D01*
X010066Y003942D01*
X009966Y003842D02*
X009999Y003809D01*
X009999Y003721D02*
X009966Y003688D01*
X009966Y003621D01*
X009999Y003588D01*
X010133Y003588D01*
X010166Y003621D01*
X010166Y003688D01*
X010133Y003721D01*
X010166Y003507D02*
X010166Y003440D01*
X010166Y003474D02*
X009966Y003474D01*
X009966Y003507D02*
X009966Y003440D01*
X010557Y003434D02*
X010557Y003501D01*
X010590Y003534D01*
X010590Y003622D02*
X010557Y003655D01*
X010557Y003722D01*
X010590Y003755D01*
X010623Y003755D01*
X010657Y003722D01*
X010657Y003689D01*
X010657Y003722D02*
X010690Y003755D01*
X010723Y003755D01*
X010757Y003722D01*
X010757Y003655D01*
X010723Y003622D01*
X010723Y003534D02*
X010757Y003501D01*
X010757Y003434D01*
X010723Y003401D01*
X010590Y003401D01*
X010557Y003434D01*
X010657Y003843D02*
X010657Y003976D01*
X010757Y003943D02*
X010657Y003843D01*
X010557Y003943D02*
X010757Y003943D01*
X011226Y003943D02*
X011226Y003876D01*
X011259Y003843D01*
X011393Y003976D01*
X011259Y003976D01*
X011226Y003943D01*
X011259Y003843D02*
X011393Y003843D01*
X011426Y003876D01*
X011426Y003943D01*
X011393Y003976D01*
X011426Y003755D02*
X011426Y003622D01*
X011326Y003622D01*
X011359Y003689D01*
X011359Y003722D01*
X011326Y003755D01*
X011259Y003755D01*
X011226Y003722D01*
X011226Y003655D01*
X011259Y003622D01*
X011259Y003534D02*
X011226Y003501D01*
X011226Y003434D01*
X011259Y003401D01*
X011393Y003401D01*
X011426Y003434D01*
X011426Y003501D01*
X011393Y003534D01*
X011310Y001987D02*
X011343Y001954D01*
X011343Y001820D01*
X011310Y001787D01*
X011243Y001787D01*
X011210Y001820D01*
X011122Y001820D02*
X011089Y001787D01*
X011022Y001787D01*
X010989Y001820D01*
X010989Y001854D01*
X011022Y001887D01*
X011056Y001887D01*
X011022Y001887D02*
X010989Y001920D01*
X010989Y001954D01*
X011022Y001987D01*
X011089Y001987D01*
X011122Y001954D01*
X011210Y001954D02*
X011243Y001987D01*
X011310Y001987D01*
X010901Y001954D02*
X010868Y001987D01*
X010801Y001987D01*
X010768Y001954D01*
X010768Y001920D01*
X010801Y001887D01*
X010768Y001854D01*
X010768Y001820D01*
X010801Y001787D01*
X010868Y001787D01*
X010901Y001820D01*
X010835Y001887D02*
X010801Y001887D01*
X012179Y005488D02*
X012146Y005521D01*
X012146Y005554D01*
X012179Y005588D01*
X012279Y005588D01*
X012279Y005521D01*
X012246Y005488D01*
X012179Y005488D01*
X012279Y005588D02*
X012213Y005654D01*
X012146Y005688D01*
X012367Y005654D02*
X012400Y005688D01*
X012467Y005688D01*
X012500Y005654D01*
X012588Y005654D02*
X012588Y005588D01*
X012621Y005554D01*
X012721Y005554D01*
X012655Y005554D02*
X012588Y005488D01*
X012500Y005488D02*
X012367Y005621D01*
X012367Y005654D01*
X012367Y005488D02*
X012500Y005488D01*
X012588Y005654D02*
X012621Y005688D01*
X012721Y005688D01*
X012721Y005488D01*
X013543Y006393D02*
X013509Y006427D01*
X013509Y006493D01*
X013543Y006527D01*
X013543Y006614D02*
X013509Y006647D01*
X013509Y006714D01*
X013543Y006748D01*
X013576Y006748D01*
X013610Y006714D01*
X013610Y006681D01*
X013610Y006714D02*
X013643Y006748D01*
X013676Y006748D01*
X013710Y006714D01*
X013710Y006647D01*
X013676Y006614D01*
X013676Y006527D02*
X013710Y006493D01*
X013710Y006427D01*
X013676Y006393D01*
X013543Y006393D01*
X013543Y006835D02*
X013676Y006969D01*
X013543Y006969D01*
X013509Y006935D01*
X013509Y006868D01*
X013543Y006835D01*
X013676Y006835D01*
X013710Y006868D01*
X013710Y006935D01*
X013676Y006969D01*
X014572Y006242D02*
X014773Y006242D01*
X014672Y006142D01*
X014672Y006275D01*
X014606Y006054D02*
X014572Y006021D01*
X014572Y005954D01*
X014606Y005921D01*
X014739Y005921D01*
X014773Y005954D01*
X014773Y006021D01*
X014739Y006054D01*
X016068Y004782D02*
X016134Y004749D01*
X016201Y004682D01*
X016101Y004682D01*
X016068Y004649D01*
X016068Y004615D01*
X016101Y004582D01*
X016168Y004582D01*
X016201Y004615D01*
X016201Y004682D01*
X016289Y004615D02*
X016322Y004582D01*
X016389Y004582D01*
X016422Y004615D01*
X016422Y004749D01*
X016389Y004782D01*
X016322Y004782D01*
X016289Y004749D01*
X016776Y004749D02*
X016776Y004716D01*
X016810Y004682D01*
X016876Y004682D01*
X016910Y004716D01*
X016910Y004749D01*
X016876Y004782D01*
X016810Y004782D01*
X016776Y004749D01*
X016810Y004682D02*
X016776Y004649D01*
X016776Y004615D01*
X016810Y004582D01*
X016876Y004582D01*
X016910Y004615D01*
X016910Y004649D01*
X016876Y004682D01*
X016997Y004615D02*
X017031Y004582D01*
X017097Y004582D01*
X017131Y004615D01*
X017131Y004749D01*
X017097Y004782D01*
X017031Y004782D01*
X016997Y004749D01*
X018248Y004585D02*
X018248Y004552D01*
X018382Y004419D01*
X018382Y004385D01*
X018469Y004385D02*
X018603Y004385D01*
X018469Y004519D01*
X018469Y004552D01*
X018503Y004585D01*
X018569Y004585D01*
X018603Y004552D01*
X018690Y004552D02*
X018724Y004585D01*
X018790Y004585D01*
X018824Y004552D01*
X018824Y004419D01*
X018790Y004385D01*
X018724Y004385D01*
X018690Y004419D01*
X018382Y004585D02*
X018248Y004585D01*
X018754Y008086D02*
X018821Y008086D01*
X018854Y008119D01*
X018854Y008153D01*
X018821Y008186D01*
X018754Y008186D01*
X018721Y008153D01*
X018721Y008119D01*
X018754Y008086D01*
X018754Y008186D02*
X018721Y008220D01*
X018721Y008253D01*
X018754Y008286D01*
X018821Y008286D01*
X018854Y008253D01*
X018854Y008220D01*
X018821Y008186D01*
X018942Y008220D02*
X018942Y008253D01*
X018975Y008286D01*
X019042Y008286D01*
X019075Y008253D01*
X019163Y008253D02*
X019196Y008286D01*
X019263Y008286D01*
X019296Y008253D01*
X019296Y008119D01*
X019263Y008086D01*
X019196Y008086D01*
X019163Y008119D01*
X019075Y008086D02*
X018942Y008220D01*
X018942Y008086D02*
X019075Y008086D01*
X018158Y008238D02*
X018125Y008204D01*
X017992Y008204D01*
X017958Y008238D01*
X017958Y008304D01*
X017992Y008338D01*
X017992Y008425D02*
X017958Y008459D01*
X017958Y008525D01*
X017992Y008559D01*
X018025Y008559D01*
X018058Y008525D01*
X018058Y008492D01*
X018058Y008525D02*
X018092Y008559D01*
X018125Y008559D01*
X018158Y008525D01*
X018158Y008459D01*
X018125Y008425D01*
X018125Y008338D02*
X018158Y008304D01*
X018158Y008238D01*
X018092Y008646D02*
X018158Y008713D01*
X017958Y008713D01*
X017958Y008646D02*
X017958Y008780D01*
X017643Y008641D02*
X017643Y008440D01*
X017643Y008507D02*
X017543Y008507D01*
X017509Y008540D01*
X017509Y008607D01*
X017543Y008641D01*
X017643Y008641D01*
X017576Y008507D02*
X017509Y008440D01*
X017422Y008474D02*
X017388Y008440D01*
X017322Y008440D01*
X017288Y008474D01*
X017288Y008507D01*
X017322Y008540D01*
X017355Y008540D01*
X017322Y008540D02*
X017288Y008574D01*
X017288Y008607D01*
X017322Y008641D01*
X017388Y008641D01*
X017422Y008607D01*
X017201Y008607D02*
X017167Y008641D01*
X017101Y008641D01*
X017067Y008607D01*
X017067Y008574D01*
X017101Y008540D01*
X017067Y008507D01*
X017067Y008474D01*
X017101Y008440D01*
X017167Y008440D01*
X017201Y008474D01*
X017134Y008540D02*
X017101Y008540D01*
X016895Y008507D02*
X016795Y008507D01*
X016761Y008540D01*
X016761Y008607D01*
X016795Y008641D01*
X016895Y008641D01*
X016895Y008440D01*
X016828Y008507D02*
X016761Y008440D01*
X016674Y008474D02*
X016640Y008440D01*
X016574Y008440D01*
X016540Y008474D01*
X016540Y008507D01*
X016574Y008540D01*
X016607Y008540D01*
X016574Y008540D02*
X016540Y008574D01*
X016540Y008607D01*
X016574Y008641D01*
X016640Y008641D01*
X016674Y008607D01*
X016453Y008540D02*
X016319Y008540D01*
X016353Y008440D02*
X016353Y008641D01*
X016453Y008540D01*
X016107Y008474D02*
X016074Y008440D01*
X016007Y008440D01*
X015974Y008474D01*
X015886Y008474D02*
X015853Y008440D01*
X015786Y008440D01*
X015753Y008474D01*
X015753Y008540D01*
X015786Y008574D01*
X015820Y008574D01*
X015886Y008540D01*
X015886Y008641D01*
X015753Y008641D01*
X015974Y008607D02*
X016007Y008641D01*
X016074Y008641D01*
X016107Y008607D01*
X016107Y008474D01*
X017230Y010251D02*
X017545Y010251D01*
X017555Y010252D01*
X017564Y010256D01*
X017573Y010262D01*
X017579Y010270D01*
X017583Y010280D01*
X017584Y010290D01*
X017584Y010566D01*
X017584Y011196D01*
X017741Y011353D01*
X017741Y017220D01*
X017584Y017377D01*
X017584Y018007D01*
X017919Y018007D01*
X017584Y018007D02*
X017584Y018283D01*
X017583Y018293D01*
X017579Y018302D01*
X017573Y018311D01*
X017565Y018317D01*
X017555Y018321D01*
X017545Y018322D01*
X017230Y018322D01*
X017220Y018321D01*
X017211Y018317D01*
X017202Y018311D01*
X017196Y018302D01*
X017192Y018293D01*
X017191Y018283D01*
X017190Y018283D02*
X017190Y010290D01*
X017191Y010290D02*
X017192Y010280D01*
X017196Y010270D01*
X017202Y010262D01*
X017211Y010256D01*
X017220Y010252D01*
X017230Y010251D01*
X017584Y010566D02*
X017643Y010566D01*
X019057Y010591D02*
X019057Y010624D01*
X019090Y010658D01*
X019257Y010658D01*
X019257Y010691D02*
X019257Y010624D01*
X019257Y010778D02*
X019257Y010912D01*
X019224Y010912D01*
X019090Y010778D01*
X019057Y010778D01*
X019057Y010591D02*
X019090Y010557D01*
X019941Y010600D02*
X019941Y010733D01*
X019975Y010767D01*
X020041Y010767D01*
X020075Y010733D01*
X020075Y010700D01*
X020041Y010666D01*
X019941Y010666D01*
X019941Y010600D02*
X019975Y010566D01*
X020041Y010566D01*
X020075Y010600D01*
X020162Y010600D02*
X020196Y010566D01*
X020262Y010566D01*
X020296Y010600D01*
X020383Y010600D02*
X020417Y010566D01*
X020483Y010566D01*
X020517Y010600D01*
X020517Y010733D01*
X020483Y010767D01*
X020417Y010767D01*
X020383Y010733D01*
X020296Y010733D02*
X020262Y010767D01*
X020196Y010767D01*
X020162Y010733D01*
X020162Y010700D01*
X020196Y010666D01*
X020162Y010633D01*
X020162Y010600D01*
X020196Y010666D02*
X020229Y010666D01*
X020196Y010881D02*
X020196Y011082D01*
X020296Y010981D01*
X020162Y010981D01*
X020075Y010915D02*
X019941Y011048D01*
X019941Y010915D01*
X019975Y010881D01*
X020041Y010881D01*
X020075Y010915D01*
X020075Y011048D01*
X020041Y011082D01*
X019975Y011082D01*
X019941Y011048D01*
X019941Y011196D02*
X020075Y011196D01*
X020008Y011196D02*
X020008Y011396D01*
X020075Y011330D01*
X020162Y011296D02*
X020296Y011296D01*
X020196Y011396D01*
X020196Y011196D01*
X020383Y011230D02*
X020417Y011196D01*
X020483Y011196D01*
X020517Y011230D01*
X020517Y011363D01*
X020483Y011396D01*
X020417Y011396D01*
X020383Y011363D01*
X020417Y011511D02*
X020383Y011545D01*
X020417Y011511D02*
X020483Y011511D01*
X020517Y011545D01*
X020517Y011678D01*
X020483Y011711D01*
X020417Y011711D01*
X020383Y011678D01*
X020296Y011611D02*
X020162Y011611D01*
X020196Y011511D02*
X020196Y011711D01*
X020296Y011611D01*
X020075Y011678D02*
X020041Y011711D01*
X019975Y011711D01*
X019941Y011678D01*
X019941Y011645D01*
X020075Y011511D01*
X019941Y011511D01*
X020383Y011048D02*
X020417Y011082D01*
X020483Y011082D01*
X020517Y011048D01*
X020517Y010915D01*
X020483Y010881D01*
X020417Y010881D01*
X020383Y010915D01*
X020417Y010373D02*
X020383Y010339D01*
X020383Y010273D01*
X020417Y010239D01*
X020517Y010239D01*
X020517Y010173D02*
X020517Y010373D01*
X020417Y010373D01*
X020450Y010239D02*
X020383Y010173D01*
X020417Y010058D02*
X020383Y010025D01*
X020383Y009891D01*
X020417Y009858D01*
X020483Y009858D01*
X020517Y009891D01*
X020517Y010025D01*
X020483Y010058D01*
X020417Y010058D01*
X020450Y009924D02*
X020383Y009858D01*
X020296Y009858D02*
X020162Y009858D01*
X020229Y009858D02*
X020229Y010058D01*
X020296Y009991D01*
X020196Y010173D02*
X020196Y010373D01*
X020296Y010273D01*
X020162Y010273D01*
X020075Y010273D02*
X019975Y010373D01*
X019975Y010173D01*
X019941Y010273D02*
X020075Y010273D01*
X020041Y010058D02*
X019975Y010058D01*
X019941Y010025D01*
X020075Y009891D01*
X020041Y009858D01*
X019975Y009858D01*
X019941Y009891D01*
X019941Y010025D01*
X020041Y010058D02*
X020075Y010025D01*
X020075Y009891D01*
X020974Y012259D02*
X020941Y012293D01*
X020941Y012326D01*
X020974Y012359D01*
X021074Y012359D01*
X021074Y012293D01*
X021041Y012259D01*
X020974Y012259D01*
X021074Y012359D02*
X021007Y012426D01*
X020941Y012459D01*
X021162Y012426D02*
X021195Y012459D01*
X021262Y012459D01*
X021295Y012426D01*
X021162Y012426D02*
X021162Y012393D01*
X021295Y012259D01*
X021162Y012259D01*
X021383Y012259D02*
X021516Y012259D01*
X021449Y012259D02*
X021449Y012459D01*
X021516Y012393D01*
X021604Y012426D02*
X021637Y012459D01*
X021704Y012459D01*
X021737Y012426D01*
X021737Y012293D01*
X021704Y012259D01*
X021637Y012259D01*
X021604Y012293D01*
X021625Y012692D02*
X021625Y012726D01*
X021492Y012859D01*
X021492Y012893D01*
X021625Y012893D01*
X021713Y012859D02*
X021746Y012893D01*
X021813Y012893D01*
X021846Y012859D01*
X021713Y012859D02*
X021713Y012826D01*
X021846Y012692D01*
X021713Y012692D01*
X021934Y012692D02*
X022067Y012692D01*
X022001Y012692D02*
X022001Y012893D01*
X022067Y012826D01*
X022155Y012859D02*
X022188Y012893D01*
X022255Y012893D01*
X022288Y012859D01*
X022288Y012726D01*
X022255Y012692D01*
X022188Y012692D01*
X022155Y012726D01*
X022188Y013047D02*
X022155Y013080D01*
X022188Y013047D02*
X022255Y013047D01*
X022288Y013080D01*
X022288Y013213D01*
X022255Y013247D01*
X022188Y013247D01*
X022155Y013213D01*
X022067Y013180D02*
X022001Y013247D01*
X022001Y013047D01*
X022067Y013047D02*
X021934Y013047D01*
X021846Y013080D02*
X021813Y013047D01*
X021746Y013047D01*
X021713Y013080D01*
X021713Y013113D01*
X021746Y013147D01*
X021780Y013147D01*
X021746Y013147D02*
X021713Y013180D01*
X021713Y013213D01*
X021746Y013247D01*
X021813Y013247D01*
X021846Y013213D01*
X021625Y013247D02*
X021625Y013147D01*
X021559Y013180D01*
X021525Y013180D01*
X021492Y013147D01*
X021492Y013080D01*
X021525Y013047D01*
X021592Y013047D01*
X021625Y013080D01*
X021625Y013247D02*
X021492Y013247D01*
X021489Y015094D02*
X021489Y015294D01*
X021556Y015227D01*
X021643Y015194D02*
X021676Y015161D01*
X021777Y015161D01*
X021777Y015094D02*
X021777Y015294D01*
X021676Y015294D01*
X021643Y015261D01*
X021643Y015194D01*
X021710Y015161D02*
X021643Y015094D01*
X021556Y015094D02*
X021422Y015094D01*
X021335Y015127D02*
X021301Y015094D01*
X021234Y015094D01*
X021201Y015127D01*
X021201Y015261D01*
X021335Y015127D01*
X021335Y015261D01*
X021301Y015294D01*
X021234Y015294D01*
X021201Y015261D01*
X021114Y015261D02*
X021080Y015294D01*
X021013Y015294D01*
X020980Y015261D01*
X020980Y015227D01*
X021114Y015094D01*
X020980Y015094D01*
X021156Y016551D02*
X021222Y016551D01*
X021256Y016584D01*
X021189Y016651D02*
X021156Y016651D01*
X021122Y016617D01*
X021122Y016584D01*
X021156Y016551D01*
X021156Y016651D02*
X021122Y016684D01*
X021122Y016717D01*
X021156Y016751D01*
X021222Y016751D01*
X021256Y016717D01*
X021343Y016651D02*
X021477Y016651D01*
X021377Y016751D01*
X021377Y016551D01*
X021564Y016584D02*
X021598Y016551D01*
X021664Y016551D01*
X021698Y016584D01*
X021698Y016717D01*
X021664Y016751D01*
X021598Y016751D01*
X021564Y016717D01*
X021598Y016866D02*
X021564Y016899D01*
X021598Y016866D02*
X021664Y016866D01*
X021698Y016899D01*
X021698Y017032D01*
X021664Y017066D01*
X021598Y017066D01*
X021564Y017032D01*
X021477Y016966D02*
X021343Y016966D01*
X021256Y016966D02*
X021122Y016966D01*
X021156Y017066D02*
X021256Y016966D01*
X021156Y016866D02*
X021156Y017066D01*
X021377Y017066D02*
X021477Y016966D01*
X021377Y016866D02*
X021377Y017066D01*
X020956Y017771D02*
X020889Y017771D01*
X020856Y017804D01*
X020956Y017771D02*
X020989Y017804D01*
X020989Y017938D01*
X020956Y017971D01*
X020889Y017971D01*
X020856Y017938D01*
X020768Y017871D02*
X020635Y017871D01*
X020547Y017871D02*
X020480Y017905D01*
X020447Y017905D01*
X020414Y017871D01*
X020414Y017804D01*
X020447Y017771D01*
X020514Y017771D01*
X020547Y017804D01*
X020547Y017871D02*
X020547Y017971D01*
X020414Y017971D01*
X020447Y018086D02*
X020414Y018119D01*
X020414Y018153D01*
X020447Y018186D01*
X020547Y018186D01*
X020547Y018119D01*
X020514Y018086D01*
X020447Y018086D01*
X020547Y018186D02*
X020480Y018253D01*
X020414Y018286D01*
X020547Y018401D02*
X020547Y018434D01*
X020414Y018568D01*
X020414Y018601D01*
X020547Y018601D01*
X020668Y018601D02*
X020768Y018501D01*
X020635Y018501D01*
X020668Y018401D02*
X020668Y018601D01*
X020856Y018568D02*
X020889Y018601D01*
X020956Y018601D01*
X020989Y018568D01*
X020989Y018434D01*
X020956Y018401D01*
X020889Y018401D01*
X020856Y018434D01*
X020889Y018286D02*
X020956Y018286D01*
X020989Y018253D01*
X020989Y018119D01*
X020956Y018086D01*
X020889Y018086D01*
X020856Y018119D01*
X020768Y018186D02*
X020635Y018186D01*
X020668Y018086D02*
X020668Y018286D01*
X020768Y018186D01*
X020856Y018253D02*
X020889Y018286D01*
X020668Y017971D02*
X020768Y017871D01*
X020668Y017771D02*
X020668Y017971D01*
X020172Y019070D02*
X020039Y019070D01*
X020005Y019104D01*
X020005Y019170D01*
X020039Y019204D01*
X020005Y019291D02*
X020005Y019425D01*
X020005Y019358D02*
X020206Y019358D01*
X020139Y019291D01*
X020172Y019204D02*
X020206Y019170D01*
X020206Y019104D01*
X020172Y019070D01*
X020172Y019512D02*
X020206Y019546D01*
X020206Y019612D01*
X020172Y019646D01*
X020139Y019646D01*
X020005Y019512D01*
X020005Y019646D01*
X020039Y019733D02*
X020005Y019767D01*
X020005Y019833D01*
X020039Y019867D01*
X020106Y019867D01*
X020139Y019833D01*
X020139Y019800D01*
X020106Y019733D01*
X020206Y019733D01*
X020206Y019867D01*
X019572Y019861D02*
X019572Y019795D01*
X019539Y019761D01*
X019405Y019761D01*
X019372Y019795D01*
X019372Y019861D01*
X019405Y019895D01*
X019372Y019982D02*
X019372Y020116D01*
X019372Y020049D02*
X019572Y020049D01*
X019505Y019982D01*
X019539Y019895D02*
X019572Y019861D01*
X019539Y020203D02*
X019572Y020236D01*
X019572Y020303D01*
X019539Y020337D01*
X019505Y020337D01*
X019372Y020203D01*
X019372Y020337D01*
X019372Y020424D02*
X019505Y020558D01*
X019539Y020558D01*
X019572Y020524D01*
X019572Y020457D01*
X019539Y020424D01*
X019372Y020424D02*
X019372Y020558D01*
X018666Y020176D02*
X018566Y020176D01*
X018533Y020143D01*
X018533Y020076D01*
X018566Y020043D01*
X018666Y020043D01*
X018600Y020043D02*
X018533Y019976D01*
X018445Y019976D02*
X018312Y019976D01*
X018379Y019976D02*
X018379Y020176D01*
X018445Y020109D01*
X018224Y020143D02*
X018191Y020176D01*
X018124Y020176D01*
X018091Y020143D01*
X018224Y020009D01*
X018191Y019976D01*
X018124Y019976D01*
X018091Y020009D01*
X018091Y020143D01*
X018003Y020176D02*
X018003Y020076D01*
X017937Y020109D01*
X017903Y020109D01*
X017870Y020076D01*
X017870Y020009D01*
X017903Y019976D01*
X017970Y019976D01*
X018003Y020009D01*
X018003Y020176D02*
X017870Y020176D01*
X018224Y020143D02*
X018224Y020009D01*
X018666Y019976D02*
X018666Y020176D01*
X017958Y018995D02*
X017958Y018795D01*
X017958Y018861D02*
X017858Y018861D01*
X017824Y018895D01*
X017824Y018962D01*
X017858Y018995D01*
X017958Y018995D01*
X017891Y018861D02*
X017824Y018795D01*
X017737Y018795D02*
X017603Y018795D01*
X017670Y018795D02*
X017670Y018995D01*
X017737Y018928D01*
X017516Y018962D02*
X017482Y018995D01*
X017416Y018995D01*
X017382Y018962D01*
X017516Y018828D01*
X017482Y018795D01*
X017416Y018795D01*
X017382Y018828D01*
X017382Y018962D01*
X017295Y018895D02*
X017195Y018895D01*
X017161Y018861D01*
X017161Y018828D01*
X017195Y018795D01*
X017261Y018795D01*
X017295Y018828D01*
X017295Y018895D01*
X017228Y018962D01*
X017161Y018995D01*
X016820Y019346D02*
X016820Y019446D01*
X016786Y019479D01*
X016720Y019479D01*
X016686Y019446D01*
X016686Y019346D01*
X016620Y019346D02*
X016820Y019346D01*
X016686Y019413D02*
X016620Y019479D01*
X016620Y019567D02*
X016620Y019700D01*
X016620Y019634D02*
X016820Y019634D01*
X016753Y019567D01*
X016786Y019788D02*
X016820Y019821D01*
X016820Y019888D01*
X016786Y019921D01*
X016653Y019788D01*
X016620Y019821D01*
X016620Y019888D01*
X016653Y019921D01*
X016786Y019921D01*
X016786Y020009D02*
X016753Y020009D01*
X016720Y020042D01*
X016720Y020142D01*
X016786Y020142D02*
X016820Y020109D01*
X016820Y020042D01*
X016786Y020009D01*
X016653Y020009D02*
X016620Y020042D01*
X016620Y020109D01*
X016653Y020142D01*
X016786Y020142D01*
X016786Y019788D02*
X016653Y019788D01*
X015875Y019776D02*
X015675Y019776D01*
X015675Y019709D02*
X015675Y019843D01*
X015775Y019930D02*
X015775Y020064D01*
X015875Y020030D02*
X015775Y019930D01*
X015675Y020030D02*
X015875Y020030D01*
X015875Y019776D02*
X015808Y019709D01*
X015675Y019622D02*
X015675Y019488D01*
X015675Y019555D02*
X015875Y019555D01*
X015808Y019488D01*
X015842Y019401D02*
X015875Y019367D01*
X015875Y019301D01*
X015842Y019267D01*
X015708Y019267D01*
X015675Y019301D01*
X015675Y019367D01*
X015708Y019401D01*
X015556Y019379D02*
X015523Y019346D01*
X015456Y019346D01*
X015423Y019379D01*
X015335Y019379D02*
X015302Y019346D01*
X015235Y019346D01*
X015202Y019379D01*
X015202Y019513D01*
X015235Y019546D01*
X015302Y019546D01*
X015335Y019513D01*
X015335Y019479D01*
X015302Y019446D01*
X015202Y019446D01*
X015423Y019513D02*
X015456Y019546D01*
X015523Y019546D01*
X015556Y019513D01*
X015556Y019379D01*
X015403Y019700D02*
X015403Y019800D01*
X015369Y019834D01*
X015302Y019834D01*
X015269Y019800D01*
X015269Y019700D01*
X015202Y019700D02*
X015403Y019700D01*
X015269Y019767D02*
X015202Y019834D01*
X015202Y019921D02*
X015202Y020055D01*
X015202Y019988D02*
X015403Y019988D01*
X015336Y019921D01*
X015369Y020142D02*
X015403Y020176D01*
X015403Y020242D01*
X015369Y020276D01*
X015236Y020142D01*
X015202Y020176D01*
X015202Y020242D01*
X015236Y020276D01*
X015369Y020276D01*
X015369Y020363D02*
X015336Y020363D01*
X015302Y020397D01*
X015302Y020463D01*
X015269Y020497D01*
X015236Y020497D01*
X015202Y020463D01*
X015202Y020397D01*
X015236Y020363D01*
X015269Y020363D01*
X015302Y020397D01*
X015302Y020463D02*
X015336Y020497D01*
X015369Y020497D01*
X015403Y020463D01*
X015403Y020397D01*
X015369Y020363D01*
X015369Y020142D02*
X015236Y020142D01*
X014458Y020024D02*
X014458Y019891D01*
X014358Y019891D01*
X014391Y019957D01*
X014391Y019991D01*
X014358Y020024D01*
X014291Y020024D01*
X014257Y019991D01*
X014257Y019924D01*
X014291Y019891D01*
X014257Y019803D02*
X014257Y019670D01*
X014257Y019736D02*
X014458Y019736D01*
X014391Y019670D01*
X014257Y019582D02*
X014257Y019449D01*
X014257Y019516D02*
X014458Y019516D01*
X014391Y019449D01*
X014424Y019361D02*
X014458Y019328D01*
X014458Y019261D01*
X014424Y019228D01*
X014291Y019228D01*
X014257Y019261D01*
X014257Y019328D01*
X014291Y019361D01*
X013828Y018731D02*
X013728Y018631D01*
X013728Y018764D01*
X013628Y018731D02*
X013828Y018731D01*
X013794Y018543D02*
X013661Y018410D01*
X013628Y018443D01*
X013628Y018510D01*
X013661Y018543D01*
X013794Y018543D01*
X013828Y018510D01*
X013828Y018443D01*
X013794Y018410D01*
X013661Y018410D01*
X013628Y018322D02*
X013628Y018189D01*
X013628Y018256D02*
X013828Y018256D01*
X013761Y018189D01*
X013794Y018101D02*
X013728Y018101D01*
X013694Y018068D01*
X013694Y017968D01*
X013628Y017968D02*
X013828Y017968D01*
X013828Y018068D01*
X013794Y018101D01*
X013694Y018035D02*
X013628Y018101D01*
X013361Y019208D02*
X013228Y019208D01*
X013194Y019241D01*
X013194Y019308D01*
X013228Y019342D01*
X013194Y019429D02*
X013194Y019563D01*
X013194Y019496D02*
X013395Y019496D01*
X013328Y019429D01*
X013361Y019342D02*
X013395Y019308D01*
X013395Y019241D01*
X013361Y019208D01*
X013361Y019650D02*
X013395Y019683D01*
X013395Y019750D01*
X013361Y019784D01*
X013228Y019650D01*
X013194Y019683D01*
X013194Y019750D01*
X013228Y019784D01*
X013361Y019784D01*
X013295Y019871D02*
X013295Y019971D01*
X013261Y020005D01*
X013228Y020005D01*
X013194Y019971D01*
X013194Y019904D01*
X013228Y019871D01*
X013295Y019871D01*
X013361Y019938D01*
X013395Y020005D01*
X013361Y019650D02*
X013228Y019650D01*
X014911Y017144D02*
X014878Y017111D01*
X014878Y017078D01*
X014911Y017044D01*
X014878Y017011D01*
X014878Y016978D01*
X014911Y016944D01*
X014978Y016944D01*
X015011Y016978D01*
X015099Y016944D02*
X015232Y016944D01*
X015099Y017078D01*
X015099Y017111D01*
X015132Y017144D01*
X015199Y017144D01*
X015232Y017111D01*
X015386Y017144D02*
X015386Y016944D01*
X015320Y016944D02*
X015453Y016944D01*
X015541Y016978D02*
X015574Y016944D01*
X015641Y016944D01*
X015674Y016978D01*
X015674Y017111D01*
X015641Y017144D01*
X015574Y017144D01*
X015541Y017111D01*
X015453Y017078D02*
X015386Y017144D01*
X015011Y017111D02*
X014978Y017144D01*
X014911Y017144D01*
X014911Y017044D02*
X014944Y017044D01*
X015823Y017044D02*
X015956Y017044D01*
X015856Y017144D01*
X015856Y016944D01*
X016044Y016944D02*
X016177Y016944D01*
X016044Y017078D01*
X016044Y017111D01*
X016077Y017144D01*
X016144Y017144D01*
X016177Y017111D01*
X016331Y017144D02*
X016331Y016944D01*
X016265Y016944D02*
X016398Y016944D01*
X016486Y016978D02*
X016519Y016944D01*
X016586Y016944D01*
X016619Y016978D01*
X016619Y017111D01*
X016586Y017144D01*
X016519Y017144D01*
X016486Y017111D01*
X016398Y017078D02*
X016331Y017144D01*
X017516Y018828D02*
X017516Y018962D01*
X017023Y015064D02*
X016889Y014930D01*
X016856Y014963D01*
X016856Y015030D01*
X016889Y015064D01*
X017023Y015064D01*
X017056Y015030D01*
X017056Y014963D01*
X017023Y014930D01*
X016889Y014930D01*
X016856Y014843D02*
X016856Y014709D01*
X016989Y014843D01*
X017023Y014843D01*
X017056Y014809D01*
X017056Y014742D01*
X017023Y014709D01*
X017056Y014555D02*
X016856Y014555D01*
X016856Y014488D02*
X016856Y014622D01*
X016989Y014488D02*
X017056Y014555D01*
X017023Y014401D02*
X017056Y014367D01*
X017056Y014301D01*
X017023Y014267D01*
X016889Y014267D01*
X016856Y014301D01*
X016856Y014367D01*
X016889Y014401D01*
X021383Y019070D02*
X021584Y019070D01*
X021584Y019170D01*
X021550Y019204D01*
X021484Y019204D01*
X021450Y019170D01*
X021450Y019070D01*
X021450Y019137D02*
X021383Y019204D01*
X021383Y019291D02*
X021383Y019425D01*
X021383Y019358D02*
X021584Y019358D01*
X021517Y019291D01*
X021550Y019512D02*
X021417Y019512D01*
X021550Y019646D01*
X021417Y019646D01*
X021383Y019612D01*
X021383Y019546D01*
X021417Y019512D01*
X021550Y019512D02*
X021584Y019546D01*
X021584Y019612D01*
X021550Y019646D01*
X021584Y019733D02*
X021584Y019867D01*
X021550Y019867D01*
X021417Y019733D01*
X021383Y019733D01*
X022076Y018168D02*
X022143Y018168D01*
X022177Y018135D01*
X022264Y018135D02*
X022398Y018001D01*
X022364Y017968D01*
X022297Y017968D01*
X022264Y018001D01*
X022264Y018135D01*
X022297Y018168D01*
X022364Y018168D01*
X022398Y018135D01*
X022398Y018001D01*
X022485Y017968D02*
X022619Y017968D01*
X022552Y017968D02*
X022552Y018168D01*
X022619Y018101D01*
X022706Y018135D02*
X022739Y018168D01*
X022806Y018168D01*
X022839Y018135D01*
X022839Y018001D01*
X022806Y017968D01*
X022739Y017968D01*
X022706Y018001D01*
X022177Y017968D02*
X022043Y018101D01*
X022043Y018135D01*
X022076Y018168D01*
X022043Y017968D02*
X022177Y017968D01*
X021826Y022653D02*
X021692Y022653D01*
X021659Y022686D01*
X021659Y022753D01*
X021692Y022786D01*
X021659Y022874D02*
X021659Y023007D01*
X021659Y022941D02*
X021859Y022941D01*
X021792Y022874D01*
X021826Y022786D02*
X021859Y022753D01*
X021859Y022686D01*
X021826Y022653D01*
X021826Y023095D02*
X021859Y023128D01*
X021859Y023195D01*
X021826Y023228D01*
X021792Y023228D01*
X021759Y023195D01*
X021726Y023228D01*
X021692Y023228D01*
X021659Y023195D01*
X021659Y023128D01*
X021692Y023095D01*
X021759Y023162D02*
X021759Y023195D01*
X021692Y023316D02*
X021659Y023349D01*
X021659Y023416D01*
X021692Y023449D01*
X021726Y023449D01*
X021759Y023416D01*
X021759Y023383D01*
X021759Y023416D02*
X021792Y023449D01*
X021826Y023449D01*
X021859Y023416D01*
X021859Y023349D01*
X021826Y023316D01*
X020363Y023219D02*
X020363Y023152D01*
X020330Y023119D01*
X020330Y023032D02*
X020296Y023032D01*
X020263Y022998D01*
X020230Y023032D01*
X020196Y023032D01*
X020163Y022998D01*
X020163Y022931D01*
X020196Y022898D01*
X020163Y022811D02*
X020163Y022677D01*
X020163Y022744D02*
X020363Y022744D01*
X020296Y022677D01*
X020330Y022590D02*
X020363Y022556D01*
X020363Y022489D01*
X020330Y022456D01*
X020196Y022456D01*
X020163Y022489D01*
X020163Y022556D01*
X020196Y022590D01*
X020330Y022898D02*
X020363Y022931D01*
X020363Y022998D01*
X020330Y023032D01*
X020263Y022998D02*
X020263Y022965D01*
X020163Y023119D02*
X020296Y023253D01*
X020330Y023253D01*
X020363Y023219D01*
X020163Y023253D02*
X020163Y023119D01*
X019887Y023174D02*
X019887Y023041D01*
X019853Y023007D01*
X019787Y023007D01*
X019753Y023041D01*
X019666Y023007D02*
X019532Y023007D01*
X019599Y023007D02*
X019599Y023207D01*
X019666Y023141D01*
X019753Y023174D02*
X019787Y023207D01*
X019853Y023207D01*
X019887Y023174D01*
X019445Y023174D02*
X019411Y023207D01*
X019345Y023207D01*
X019311Y023174D01*
X019311Y023141D01*
X019445Y023007D01*
X019311Y023007D01*
X019224Y023007D02*
X019090Y023007D01*
X019157Y023007D02*
X019157Y023207D01*
X019224Y023141D01*
X019645Y025212D02*
X019612Y025245D01*
X019612Y025312D01*
X019645Y025345D01*
X019612Y025433D02*
X019612Y025566D01*
X019612Y025500D02*
X019812Y025500D01*
X019745Y025433D01*
X019779Y025345D02*
X019812Y025312D01*
X019812Y025245D01*
X019779Y025212D01*
X019645Y025212D01*
X019645Y025654D02*
X019779Y025787D01*
X019645Y025787D01*
X019612Y025754D01*
X019612Y025687D01*
X019645Y025654D01*
X019779Y025654D01*
X019812Y025687D01*
X019812Y025754D01*
X019779Y025787D01*
X019812Y025875D02*
X019712Y025875D01*
X019745Y025942D01*
X019745Y025975D01*
X019712Y026008D01*
X019645Y026008D01*
X019612Y025975D01*
X019612Y025908D01*
X019645Y025875D01*
X019812Y025875D02*
X019812Y026008D01*
X019418Y026090D02*
X019218Y026090D01*
X019218Y026024D02*
X019218Y026157D01*
X019218Y026245D02*
X019218Y026378D01*
X019218Y026311D02*
X019418Y026311D01*
X019352Y026245D01*
X019418Y026090D02*
X019352Y026024D01*
X019385Y025936D02*
X019418Y025903D01*
X019418Y025836D01*
X019385Y025803D01*
X019251Y025803D01*
X019218Y025836D01*
X019218Y025903D01*
X019251Y025936D01*
X019251Y026466D02*
X019218Y026499D01*
X019218Y026566D01*
X019251Y026599D01*
X019285Y026599D01*
X019318Y026566D01*
X019318Y026532D01*
X019318Y026566D02*
X019352Y026599D01*
X019385Y026599D01*
X019418Y026566D01*
X019418Y026499D01*
X019385Y026466D01*
X016507Y030094D02*
X016440Y030094D01*
X016407Y030127D01*
X016319Y030094D02*
X016186Y030094D01*
X016253Y030094D02*
X016253Y030294D01*
X016319Y030227D01*
X016407Y030261D02*
X016440Y030294D01*
X016507Y030294D01*
X016540Y030261D01*
X016540Y030127D01*
X016507Y030094D01*
X016098Y030127D02*
X016098Y030261D01*
X016065Y030294D01*
X015998Y030294D01*
X015965Y030261D01*
X016098Y030127D01*
X016065Y030094D01*
X015998Y030094D01*
X015965Y030127D01*
X015965Y030261D01*
X015877Y030261D02*
X015877Y030227D01*
X015844Y030194D01*
X015777Y030194D01*
X015744Y030161D01*
X015744Y030127D01*
X015777Y030094D01*
X015844Y030094D01*
X015877Y030127D01*
X015877Y030161D01*
X015844Y030194D01*
X015777Y030194D02*
X015744Y030227D01*
X015744Y030261D01*
X015777Y030294D01*
X015844Y030294D01*
X015877Y030261D01*
X015680Y029900D02*
X015714Y029867D01*
X015714Y029734D01*
X015680Y029700D01*
X015613Y029700D01*
X015580Y029734D01*
X015493Y029700D02*
X015359Y029700D01*
X015426Y029700D02*
X015426Y029900D01*
X015493Y029834D01*
X015580Y029867D02*
X015613Y029900D01*
X015680Y029900D01*
X015272Y029834D02*
X015205Y029900D01*
X015205Y029700D01*
X015272Y029700D02*
X015138Y029700D01*
X015051Y029700D02*
X015051Y029734D01*
X014917Y029867D01*
X014917Y029900D01*
X015051Y029900D01*
X015320Y032614D02*
X015521Y032614D01*
X015521Y032714D01*
X015487Y032747D01*
X015421Y032747D01*
X015387Y032714D01*
X015387Y032614D01*
X015387Y032680D02*
X015320Y032747D01*
X015320Y032835D02*
X015320Y032968D01*
X015320Y032901D02*
X015521Y032901D01*
X015454Y032835D01*
X015454Y033056D02*
X015487Y033056D01*
X015521Y033089D01*
X015521Y033156D01*
X015487Y033189D01*
X015454Y033189D01*
X015421Y033156D01*
X015421Y033089D01*
X015454Y033056D01*
X015421Y033089D02*
X015387Y033056D01*
X015354Y033056D01*
X015320Y033089D01*
X015320Y033156D01*
X015354Y033189D01*
X015387Y033189D01*
X015421Y033156D01*
X015714Y033156D02*
X015714Y033089D01*
X015748Y033056D01*
X015881Y033189D01*
X015748Y033189D01*
X015714Y033156D01*
X015748Y033056D02*
X015881Y033056D01*
X015914Y033089D01*
X015914Y033156D01*
X015881Y033189D01*
X015881Y032968D02*
X015914Y032935D01*
X015914Y032868D01*
X015881Y032835D01*
X015881Y032747D02*
X015814Y032747D01*
X015781Y032714D01*
X015781Y032614D01*
X015781Y032680D02*
X015714Y032747D01*
X015714Y032835D02*
X015848Y032968D01*
X015881Y032968D01*
X015714Y032968D02*
X015714Y032835D01*
X015881Y032747D02*
X015914Y032714D01*
X015914Y032614D01*
X015714Y032614D01*
X016108Y032614D02*
X016308Y032614D01*
X016308Y032714D01*
X016275Y032747D01*
X016208Y032747D01*
X016175Y032714D01*
X016175Y032614D01*
X016175Y032680D02*
X016108Y032747D01*
X016108Y032835D02*
X016108Y032968D01*
X016108Y032901D02*
X016308Y032901D01*
X016241Y032835D01*
X016241Y033056D02*
X016208Y033089D01*
X016208Y033189D01*
X016275Y033189D02*
X016308Y033156D01*
X016308Y033089D01*
X016275Y033056D01*
X016241Y033056D01*
X016141Y033056D02*
X016108Y033089D01*
X016108Y033156D01*
X016141Y033189D01*
X016275Y033189D01*
X017250Y035133D02*
X017450Y035133D01*
X017450Y035233D01*
X017416Y035267D01*
X017350Y035267D01*
X017316Y035233D01*
X017316Y035133D01*
X017316Y035200D02*
X017250Y035267D01*
X017250Y035354D02*
X017383Y035488D01*
X017416Y035488D01*
X017450Y035454D01*
X017450Y035388D01*
X017416Y035354D01*
X017250Y035354D02*
X017250Y035488D01*
X017283Y035575D02*
X017250Y035609D01*
X017250Y035675D01*
X017283Y035709D01*
X017350Y035709D01*
X017383Y035675D01*
X017383Y035642D01*
X017350Y035575D01*
X017450Y035575D01*
X017450Y035709D01*
X020211Y031318D02*
X020278Y031318D01*
X020311Y031284D01*
X020211Y031318D02*
X020177Y031284D01*
X020177Y031251D01*
X020311Y031118D01*
X020177Y031118D01*
X020398Y031218D02*
X020532Y031218D01*
X020432Y031318D01*
X020432Y031118D01*
X020619Y031118D02*
X020686Y031184D01*
X020653Y031184D02*
X020753Y031184D01*
X020753Y031118D02*
X020753Y031318D01*
X020653Y031318D01*
X020619Y031284D01*
X020619Y031218D01*
X020653Y031184D01*
X021038Y033086D02*
X021104Y033086D01*
X021138Y033119D01*
X021138Y033153D01*
X021104Y033186D01*
X021038Y033186D01*
X021004Y033153D01*
X021004Y033119D01*
X021038Y033086D01*
X021038Y033186D02*
X021004Y033220D01*
X021004Y033253D01*
X021038Y033286D01*
X021104Y033286D01*
X021138Y033253D01*
X021138Y033220D01*
X021104Y033186D01*
X021225Y033186D02*
X021359Y033186D01*
X021259Y033286D01*
X021259Y033086D01*
X021446Y033086D02*
X021513Y033153D01*
X021480Y033153D02*
X021580Y033153D01*
X021580Y033086D02*
X021580Y033286D01*
X021480Y033286D01*
X021446Y033253D01*
X021446Y033186D01*
X021480Y033153D01*
X024666Y029946D02*
X024666Y029912D01*
X024699Y029879D01*
X024766Y029879D01*
X024799Y029912D01*
X024799Y029946D01*
X024766Y029979D01*
X024699Y029979D01*
X024666Y029946D01*
X024699Y029879D02*
X024666Y029846D01*
X024666Y029812D01*
X024699Y029779D01*
X024766Y029779D01*
X024799Y029812D01*
X024799Y029846D01*
X024766Y029879D01*
X024887Y029846D02*
X024887Y029812D01*
X024920Y029779D01*
X024987Y029779D01*
X025020Y029812D01*
X025108Y029812D02*
X025141Y029779D01*
X025208Y029779D01*
X025241Y029812D01*
X025241Y029946D01*
X025208Y029979D01*
X025141Y029979D01*
X025108Y029946D01*
X025020Y029946D02*
X024987Y029979D01*
X024920Y029979D01*
X024887Y029946D01*
X024887Y029912D01*
X024920Y029879D01*
X024887Y029846D01*
X024920Y029879D02*
X024953Y029879D01*
X025211Y028956D02*
X025278Y028956D01*
X025311Y028922D01*
X025398Y028922D02*
X025398Y028889D01*
X025432Y028855D01*
X025398Y028822D01*
X025398Y028789D01*
X025432Y028755D01*
X025499Y028755D01*
X025532Y028789D01*
X025619Y028755D02*
X025686Y028822D01*
X025653Y028822D02*
X025753Y028822D01*
X025753Y028755D02*
X025753Y028956D01*
X025653Y028956D01*
X025619Y028922D01*
X025619Y028855D01*
X025653Y028822D01*
X025532Y028922D02*
X025499Y028956D01*
X025432Y028956D01*
X025398Y028922D01*
X025432Y028855D02*
X025465Y028855D01*
X025311Y028755D02*
X025177Y028889D01*
X025177Y028922D01*
X025211Y028956D01*
X025177Y028755D02*
X025311Y028755D01*
X025392Y027932D02*
X025359Y027899D01*
X025359Y027865D01*
X025392Y027832D01*
X025359Y027798D01*
X025359Y027765D01*
X025392Y027732D01*
X025459Y027732D01*
X025493Y027765D01*
X025580Y027732D02*
X025647Y027798D01*
X025613Y027798D02*
X025714Y027798D01*
X025714Y027732D02*
X025714Y027932D01*
X025613Y027932D01*
X025580Y027899D01*
X025580Y027832D01*
X025613Y027798D01*
X025493Y027899D02*
X025459Y027932D01*
X025392Y027932D01*
X025392Y027832D02*
X025426Y027832D01*
X025272Y027865D02*
X025205Y027932D01*
X025205Y027732D01*
X025272Y027732D02*
X025138Y027732D01*
X025132Y026948D02*
X025199Y026948D01*
X025232Y026914D01*
X025232Y026881D01*
X025199Y026848D01*
X025099Y026848D01*
X025099Y026914D02*
X025132Y026948D01*
X025099Y026914D02*
X025099Y026781D01*
X025132Y026747D01*
X025199Y026747D01*
X025232Y026781D01*
X025320Y026747D02*
X025453Y026747D01*
X025320Y026881D01*
X025320Y026914D01*
X025353Y026948D01*
X025420Y026948D01*
X025453Y026914D01*
X025541Y026914D02*
X025574Y026948D01*
X025641Y026948D01*
X025674Y026914D01*
X025674Y026781D01*
X025641Y026747D01*
X025574Y026747D01*
X025541Y026781D01*
X025756Y021869D02*
X025756Y021669D01*
X025823Y021669D02*
X025689Y021669D01*
X025723Y021554D02*
X025789Y021554D01*
X025823Y021521D01*
X025910Y021521D02*
X025944Y021554D01*
X026010Y021554D01*
X026044Y021521D01*
X026131Y021521D02*
X026131Y021454D01*
X026165Y021420D01*
X026265Y021420D01*
X026265Y021354D02*
X026265Y021554D01*
X026165Y021554D01*
X026131Y021521D01*
X026198Y021420D02*
X026131Y021354D01*
X026044Y021354D02*
X025910Y021487D01*
X025910Y021521D01*
X025910Y021669D02*
X026044Y021669D01*
X025910Y021802D01*
X025910Y021836D01*
X025944Y021869D01*
X026010Y021869D01*
X026044Y021836D01*
X026131Y021836D02*
X026131Y021769D01*
X026165Y021735D01*
X026265Y021735D01*
X026265Y021669D02*
X026265Y021869D01*
X026165Y021869D01*
X026131Y021836D01*
X026198Y021735D02*
X026131Y021669D01*
X026044Y021354D02*
X025910Y021354D01*
X025823Y021354D02*
X025689Y021487D01*
X025689Y021521D01*
X025723Y021554D01*
X025689Y021354D02*
X025823Y021354D01*
X025789Y021082D02*
X025723Y021082D01*
X025689Y021048D01*
X025689Y021015D01*
X025723Y020981D01*
X025689Y020948D01*
X025689Y020915D01*
X025723Y020881D01*
X025789Y020881D01*
X025823Y020915D01*
X025910Y020881D02*
X026044Y020881D01*
X025910Y021015D01*
X025910Y021048D01*
X025944Y021082D01*
X026010Y021082D01*
X026044Y021048D01*
X026131Y021048D02*
X026131Y020981D01*
X026165Y020948D01*
X026265Y020948D01*
X026265Y020881D02*
X026265Y021082D01*
X026165Y021082D01*
X026131Y021048D01*
X026198Y020948D02*
X026131Y020881D01*
X026165Y020767D02*
X026131Y020733D01*
X026131Y020666D01*
X026165Y020633D01*
X026265Y020633D01*
X026265Y020566D02*
X026265Y020767D01*
X026165Y020767D01*
X026044Y020733D02*
X026010Y020767D01*
X025944Y020767D01*
X025910Y020733D01*
X025910Y020700D01*
X026044Y020566D01*
X025910Y020566D01*
X025910Y020452D02*
X025910Y020418D01*
X026044Y020285D01*
X026044Y020251D01*
X026131Y020251D02*
X026198Y020318D01*
X026165Y020318D02*
X026265Y020318D01*
X026265Y020251D02*
X026265Y020452D01*
X026165Y020452D01*
X026131Y020418D01*
X026131Y020351D01*
X026165Y020318D01*
X026044Y020452D02*
X025910Y020452D01*
X025723Y020566D02*
X025723Y020767D01*
X025823Y020666D01*
X025689Y020666D01*
X025723Y020981D02*
X025756Y020981D01*
X025823Y021048D02*
X025789Y021082D01*
X026198Y020633D02*
X026131Y020566D01*
X025823Y021802D02*
X025756Y021869D01*
X023513Y007520D02*
X023513Y007386D01*
X023413Y007386D01*
X023446Y007453D01*
X023446Y007486D01*
X023413Y007520D01*
X023346Y007520D01*
X023313Y007486D01*
X023313Y007420D01*
X023346Y007386D01*
X023413Y007299D02*
X023413Y007165D01*
X023513Y007265D01*
X023313Y007265D01*
X023313Y007078D02*
X023379Y007011D01*
X023379Y007044D02*
X023379Y006944D01*
X023313Y006944D02*
X023513Y006944D01*
X023513Y007044D01*
X023479Y007078D01*
X023413Y007078D01*
X023379Y007044D01*
X022765Y007056D02*
X022765Y007123D01*
X022731Y007157D01*
X022598Y007157D01*
X022565Y007123D01*
X022565Y007056D01*
X022598Y007023D01*
X022731Y007023D01*
X022765Y007056D01*
X022631Y007090D02*
X022565Y007157D01*
X022565Y007244D02*
X022565Y007378D01*
X022565Y007311D02*
X022765Y007311D01*
X022698Y007244D01*
X022731Y007465D02*
X022765Y007498D01*
X022765Y007565D01*
X022731Y007598D01*
X022698Y007598D01*
X022565Y007465D01*
X022565Y007598D01*
X021977Y007447D02*
X021944Y007480D01*
X021911Y007480D01*
X021877Y007447D01*
X021844Y007480D01*
X021810Y007480D01*
X021777Y007447D01*
X021777Y007380D01*
X021810Y007347D01*
X021877Y007414D02*
X021877Y007447D01*
X021977Y007447D02*
X021977Y007380D01*
X021944Y007347D01*
X021877Y007259D02*
X021877Y007126D01*
X021977Y007226D01*
X021777Y007226D01*
X021777Y007038D02*
X021844Y006972D01*
X021844Y007005D02*
X021844Y006905D01*
X021777Y006905D02*
X021977Y006905D01*
X021977Y007005D01*
X021944Y007038D01*
X021877Y007038D01*
X021844Y007005D01*
X024803Y003268D02*
X024769Y003234D01*
X024769Y003168D01*
X024803Y003134D01*
X024936Y003268D01*
X024803Y003268D01*
X024936Y003268D02*
X024969Y003234D01*
X024969Y003168D01*
X024936Y003134D01*
X024803Y003134D01*
X024869Y003047D02*
X024869Y002913D01*
X024969Y003013D01*
X024769Y003013D01*
X024769Y002826D02*
X024836Y002759D01*
X024836Y002792D02*
X024836Y002692D01*
X024769Y002692D02*
X024969Y002692D01*
X024969Y002792D01*
X024936Y002826D01*
X024869Y002826D01*
X024836Y002792D01*
X024651Y002144D02*
X024550Y002144D01*
X024517Y002111D01*
X024517Y002044D01*
X024550Y002011D01*
X024651Y002011D01*
X024651Y001944D02*
X024651Y002144D01*
X024584Y002011D02*
X024517Y001944D01*
X024430Y002044D02*
X024296Y002044D01*
X024329Y001944D02*
X024329Y002144D01*
X024430Y002044D01*
X024379Y001850D02*
X024379Y001717D01*
X024346Y001629D02*
X024312Y001629D01*
X024279Y001596D01*
X024245Y001629D01*
X024212Y001629D01*
X024179Y001596D01*
X024179Y001529D01*
X024212Y001496D01*
X024212Y001408D02*
X024179Y001375D01*
X024179Y001308D01*
X024212Y001275D01*
X024346Y001275D01*
X024379Y001308D01*
X024379Y001375D01*
X024346Y001408D01*
X024346Y001496D02*
X024379Y001529D01*
X024379Y001596D01*
X024346Y001629D01*
X024279Y001596D02*
X024279Y001563D01*
X024212Y001717D02*
X024179Y001717D01*
X024212Y001717D02*
X024346Y001850D01*
X024379Y001850D01*
X008214Y001711D02*
X008113Y001711D01*
X008080Y001678D01*
X008080Y001611D01*
X008113Y001578D01*
X008214Y001578D01*
X008214Y001511D02*
X008214Y001711D01*
X008147Y001578D02*
X008080Y001511D01*
X007993Y001511D02*
X007859Y001511D01*
X007926Y001511D02*
X007926Y001711D01*
X007993Y001645D01*
X007772Y001611D02*
X007638Y001611D01*
X007671Y001511D02*
X007671Y001711D01*
X007772Y001611D01*
X007131Y001578D02*
X007031Y001578D01*
X006997Y001611D01*
X006997Y001678D01*
X007031Y001711D01*
X007131Y001711D01*
X007131Y001511D01*
X007064Y001578D02*
X006997Y001511D01*
X006910Y001545D02*
X006910Y001578D01*
X006876Y001611D01*
X006810Y001611D01*
X006776Y001578D01*
X006776Y001545D01*
X006810Y001511D01*
X006876Y001511D01*
X006910Y001545D01*
X006876Y001611D02*
X006910Y001645D01*
X006910Y001678D01*
X006876Y001711D01*
X006810Y001711D01*
X006776Y001678D01*
X006776Y001645D01*
X006810Y001611D01*
X005127Y003834D02*
X005127Y003901D01*
X005127Y003867D02*
X004927Y003867D01*
X004927Y003834D02*
X004927Y003901D01*
X004960Y003981D02*
X004927Y004015D01*
X004927Y004082D01*
X004960Y004115D01*
X004927Y004202D02*
X004927Y004336D01*
X004927Y004269D02*
X005127Y004269D01*
X005060Y004202D01*
X005094Y004115D02*
X005127Y004082D01*
X005127Y004015D01*
X005094Y003981D01*
X004960Y003981D01*
X004812Y003934D02*
X004812Y003867D01*
X004779Y003834D01*
X004645Y003834D01*
X004612Y003867D01*
X004612Y003934D01*
X004645Y003968D01*
X004712Y004055D02*
X004712Y004189D01*
X004745Y004276D02*
X004779Y004276D01*
X004812Y004309D01*
X004812Y004376D01*
X004779Y004410D01*
X004745Y004410D01*
X004712Y004376D01*
X004712Y004309D01*
X004745Y004276D01*
X004712Y004309D02*
X004679Y004276D01*
X004645Y004276D01*
X004612Y004309D01*
X004612Y004376D01*
X004645Y004410D01*
X004679Y004410D01*
X004712Y004376D01*
X004927Y004457D02*
X004960Y004423D01*
X005094Y004557D01*
X004960Y004557D01*
X004927Y004523D01*
X004927Y004457D01*
X004960Y004423D02*
X005094Y004423D01*
X005127Y004457D01*
X005127Y004523D01*
X005094Y004557D01*
X004812Y004155D02*
X004712Y004055D01*
X004779Y003968D02*
X004812Y003934D01*
X004812Y004155D02*
X004612Y004155D01*
X005990Y004818D02*
X006190Y004818D01*
X006190Y004918D01*
X006157Y004952D01*
X006090Y004952D01*
X006056Y004918D01*
X006056Y004818D01*
X006056Y004885D02*
X005990Y004952D01*
X006090Y005039D02*
X006090Y005173D01*
X006190Y005139D02*
X006090Y005039D01*
X005990Y005139D02*
X006190Y005139D01*
X006190Y005260D02*
X006190Y005394D01*
X006157Y005394D01*
X006023Y005260D01*
X005990Y005260D01*
X012958Y032614D02*
X013158Y032614D01*
X013158Y032714D01*
X013125Y032747D01*
X013058Y032747D01*
X013025Y032714D01*
X013025Y032614D01*
X013025Y032680D02*
X012958Y032747D01*
X012958Y032835D02*
X012958Y032968D01*
X012958Y032901D02*
X013158Y032901D01*
X013092Y032835D01*
X013058Y033056D02*
X013092Y033122D01*
X013092Y033156D01*
X013058Y033189D01*
X012992Y033189D01*
X012958Y033156D01*
X012958Y033089D01*
X012992Y033056D01*
X013058Y033056D02*
X013158Y033056D01*
X013158Y033189D01*
X013352Y033056D02*
X013385Y033056D01*
X013519Y033189D01*
X013552Y033189D01*
X013552Y033056D01*
X013552Y032901D02*
X013352Y032901D01*
X013352Y032835D02*
X013352Y032968D01*
X013485Y032835D02*
X013552Y032901D01*
X013519Y032747D02*
X013452Y032747D01*
X013419Y032714D01*
X013419Y032614D01*
X013419Y032680D02*
X013352Y032747D01*
X013352Y032614D02*
X013552Y032614D01*
X013552Y032714D01*
X013519Y032747D01*
X013746Y032747D02*
X013812Y032680D01*
X013812Y032714D02*
X013812Y032614D01*
X013746Y032614D02*
X013946Y032614D01*
X013946Y032714D01*
X013912Y032747D01*
X013846Y032747D01*
X013812Y032714D01*
X013746Y032835D02*
X013746Y032968D01*
X013746Y032901D02*
X013946Y032901D01*
X013879Y032835D01*
X013846Y033056D02*
X013846Y033156D01*
X013812Y033189D01*
X013779Y033189D01*
X013746Y033156D01*
X013746Y033089D01*
X013779Y033056D01*
X013846Y033056D01*
X013912Y033122D01*
X013946Y033189D01*
D13*
X024597Y029196D02*
X024597Y029059D01*
X024597Y029128D02*
X025008Y029128D01*
X025008Y029196D02*
X025008Y029059D01*
X024939Y028872D02*
X025008Y028804D01*
X025008Y028599D01*
X024597Y028599D01*
X024597Y028804D01*
X024666Y028872D01*
X024939Y028872D01*
X025008Y028412D02*
X025008Y028138D01*
X025008Y028275D02*
X024597Y028275D01*
X024803Y027815D02*
X024803Y027678D01*
X025008Y027678D02*
X024597Y027678D01*
X025008Y027678D02*
X025008Y027952D01*
D14*
X024860Y020169D03*
X024854Y019231D03*
X025207Y019054D03*
X025553Y019224D03*
X025566Y020163D03*
D15*
X025459Y019174D03*
X025207Y019061D03*
X024955Y020220D03*
D16*
X025093Y019627D03*
X025326Y019766D03*
X025207Y019067D03*
D17*
X025207Y019073D03*
X025106Y019646D03*
X025207Y020320D03*
D18*
X025207Y019079D03*
D19*
X025207Y019086D03*
X025207Y020308D03*
D20*
X025207Y019092D03*
D21*
X025207Y019098D03*
X025207Y020295D03*
D22*
X025207Y019105D03*
D23*
X025207Y019111D03*
D24*
X025207Y019117D03*
D25*
X025207Y019124D03*
D26*
X025207Y019130D03*
X025207Y020264D03*
D27*
X025191Y019728D03*
X025197Y019716D03*
X025210Y019697D03*
X025216Y019684D03*
X025210Y019136D03*
D28*
X025207Y019142D03*
D29*
X025207Y019149D03*
X025207Y020245D03*
D30*
X025207Y019155D03*
D31*
X025402Y019161D03*
X025011Y019161D03*
X025320Y019760D03*
D32*
X025090Y019615D03*
X024977Y019168D03*
X025437Y019168D03*
X025443Y020226D03*
X024971Y020226D03*
D33*
X025462Y020220D03*
X025336Y019785D03*
X025090Y019609D03*
X024958Y019174D03*
D34*
X025474Y019180D03*
X024939Y020213D03*
D35*
X025478Y020213D03*
X024942Y019180D03*
D36*
X024926Y019187D03*
X025487Y019187D03*
X025493Y020207D03*
D37*
X025503Y020201D03*
X024911Y020201D03*
X025503Y019193D03*
D38*
X025512Y019199D03*
X025084Y019596D03*
X025336Y019798D03*
X024914Y019193D03*
D39*
X024904Y019199D03*
X024892Y019205D03*
X024967Y019747D03*
X024898Y020194D03*
X025515Y020194D03*
D40*
X025525Y020188D03*
X025537Y020182D03*
X025456Y019646D03*
X025525Y019205D03*
X024889Y020188D03*
D41*
X024879Y020182D03*
X025207Y020339D03*
X025547Y020176D03*
X025339Y019804D03*
X025534Y019212D03*
X024879Y019212D03*
D42*
X024870Y019218D03*
X024863Y019224D03*
X025084Y019590D03*
X024952Y019753D03*
X024870Y020176D03*
X025462Y019640D03*
X025544Y019218D03*
X025556Y020169D03*
D43*
X025575Y020157D03*
X025582Y020150D03*
X025468Y019634D03*
X025569Y019237D03*
X025563Y019231D03*
X024845Y019237D03*
X024838Y019243D03*
X024945Y019760D03*
X024845Y020157D03*
X024851Y020163D03*
D44*
X024835Y020150D03*
X024829Y020144D03*
X025081Y019583D03*
X025345Y019810D03*
X025597Y020138D03*
X025591Y020144D03*
X025585Y019250D03*
X025578Y019243D03*
X024829Y019250D03*
X024822Y019256D03*
D45*
X024813Y019262D03*
X024807Y019268D03*
X024945Y019766D03*
X024813Y020131D03*
X024819Y020138D03*
X025600Y019262D03*
X025594Y019256D03*
D46*
X025610Y019268D03*
X025616Y019275D03*
X025622Y019281D03*
X025465Y019627D03*
X025616Y020119D03*
X025610Y020125D03*
X025604Y020131D03*
X024804Y020125D03*
X024797Y020119D03*
X024791Y020113D03*
X024785Y020106D03*
X024804Y019275D03*
D47*
X024794Y019281D03*
X024788Y019287D03*
X024782Y019294D03*
X024775Y019300D03*
X024782Y020100D03*
X025626Y020113D03*
X025632Y020106D03*
X025638Y020100D03*
X025626Y019287D03*
D48*
X025635Y019294D03*
X025641Y019300D03*
X025648Y019306D03*
X025654Y019313D03*
X025345Y019816D03*
X025081Y019577D03*
X024942Y019772D03*
X024759Y020081D03*
X024766Y020087D03*
X024772Y020094D03*
X024753Y019325D03*
X024759Y019319D03*
X024766Y019313D03*
X024772Y019306D03*
X025641Y020094D03*
X025648Y020087D03*
X025654Y020081D03*
X025660Y020075D03*
D49*
X025663Y020068D03*
X025670Y020062D03*
X025676Y020056D03*
X025468Y019621D03*
X025670Y019331D03*
X025663Y019325D03*
X025657Y019319D03*
X024750Y019331D03*
X024744Y019338D03*
X024737Y019344D03*
X024731Y020043D03*
X024737Y020050D03*
X024744Y020056D03*
X024744Y020062D03*
X024750Y020068D03*
X024756Y020075D03*
D50*
X024728Y020037D03*
X024722Y020031D03*
X024715Y020018D03*
X024709Y020012D03*
X024709Y019388D03*
X024715Y019376D03*
X024722Y019369D03*
X024728Y019363D03*
X024728Y019357D03*
X024734Y019350D03*
X025673Y019338D03*
X025679Y019344D03*
X025685Y019350D03*
X025685Y019357D03*
X025692Y019363D03*
X025704Y019382D03*
X025698Y020024D03*
X025692Y020037D03*
X025685Y020043D03*
X025679Y020050D03*
D51*
X025695Y020031D03*
X025701Y020018D03*
X025708Y020012D03*
X025714Y019999D03*
X025720Y019407D03*
X025714Y019394D03*
X025708Y019388D03*
X025701Y019376D03*
X025695Y019369D03*
X024945Y019779D03*
X024681Y019961D03*
X024687Y019974D03*
X024693Y019980D03*
X024693Y019987D03*
X024700Y019993D03*
X024700Y019999D03*
X024706Y020005D03*
X024719Y020024D03*
X024687Y019426D03*
X024693Y019413D03*
X024700Y019401D03*
X024706Y019394D03*
X024712Y019382D03*
D52*
X024697Y019407D03*
X024690Y019420D03*
X024684Y019432D03*
X024678Y019439D03*
X024678Y019445D03*
X024671Y019457D03*
X024665Y019470D03*
X024659Y019911D03*
X024665Y019924D03*
X024665Y019930D03*
X024671Y019936D03*
X024671Y019942D03*
X024678Y019949D03*
X024678Y019955D03*
X024684Y019968D03*
X025465Y019615D03*
X025748Y019464D03*
X025742Y019451D03*
X025736Y019439D03*
X025736Y019432D03*
X025730Y019426D03*
X025730Y019420D03*
X025723Y019413D03*
X025717Y019401D03*
X025748Y019936D03*
X025742Y019949D03*
X025736Y019961D03*
X025730Y019968D03*
X025730Y019974D03*
X025723Y019980D03*
X025723Y019987D03*
X025717Y019993D03*
X025711Y020005D03*
D53*
X025739Y019955D03*
X025745Y019942D03*
X025752Y019930D03*
X025752Y019924D03*
X025758Y019917D03*
X025758Y019911D03*
X025764Y019898D03*
X025764Y019892D03*
X025771Y019879D03*
X025771Y019873D03*
X025777Y019854D03*
X025771Y019520D03*
X025764Y019501D03*
X025758Y019489D03*
X025758Y019483D03*
X025752Y019476D03*
X025752Y019470D03*
X025745Y019457D03*
X025739Y019445D03*
X025348Y019823D03*
X024945Y019785D03*
X024649Y019879D03*
X024649Y019886D03*
X024649Y019892D03*
X024656Y019898D03*
X024656Y019905D03*
X024662Y019917D03*
X024643Y019873D03*
X024643Y019867D03*
X024643Y019861D03*
X024637Y019848D03*
X024637Y019842D03*
X024630Y019816D03*
X024630Y019583D03*
X024637Y019558D03*
X024637Y019552D03*
X024643Y019533D03*
X024643Y019527D03*
X024649Y019520D03*
X024649Y019514D03*
X024649Y019508D03*
X024656Y019501D03*
X024656Y019495D03*
X024656Y019489D03*
X024662Y019483D03*
X024662Y019476D03*
X024668Y019464D03*
X024674Y019451D03*
D54*
X024640Y019539D03*
X024640Y019546D03*
X024634Y019564D03*
X024634Y019571D03*
X024634Y019577D03*
X024627Y019590D03*
X024627Y019596D03*
X024627Y019602D03*
X024627Y019609D03*
X024627Y019615D03*
X024621Y019627D03*
X024621Y019634D03*
X024621Y019640D03*
X024621Y019646D03*
X024621Y019653D03*
X024621Y019659D03*
X024621Y019665D03*
X024621Y019672D03*
X024621Y019678D03*
X024621Y019684D03*
X024621Y019716D03*
X024621Y019722D03*
X024621Y019728D03*
X024621Y019735D03*
X024621Y019741D03*
X024621Y019747D03*
X024621Y019753D03*
X024621Y019760D03*
X024621Y019766D03*
X024621Y019772D03*
X024627Y019785D03*
X024627Y019791D03*
X024627Y019798D03*
X024627Y019804D03*
X024627Y019810D03*
X024634Y019823D03*
X024634Y019829D03*
X024634Y019835D03*
X024640Y019854D03*
X025081Y019571D03*
X025465Y019609D03*
X025774Y019539D03*
X025774Y019533D03*
X025774Y019527D03*
X025767Y019514D03*
X025767Y019508D03*
X025761Y019495D03*
X025780Y019546D03*
X025780Y019552D03*
X025780Y019558D03*
X025780Y019564D03*
X025786Y019571D03*
X025786Y019577D03*
X025786Y019583D03*
X025786Y019590D03*
X025793Y019609D03*
X025793Y019615D03*
X025793Y019621D03*
X025793Y019772D03*
X025793Y019779D03*
X025793Y019785D03*
X025786Y019810D03*
X025786Y019816D03*
X025786Y019823D03*
X025780Y019835D03*
X025780Y019842D03*
X025780Y019848D03*
X025774Y019861D03*
X025774Y019867D03*
X025767Y019886D03*
X025761Y019905D03*
D55*
X025449Y019564D03*
X024964Y019835D03*
D56*
X025081Y019564D03*
X025345Y019829D03*
D57*
X025452Y019571D03*
D58*
X025452Y019577D03*
D59*
X025456Y019583D03*
D60*
X025459Y019590D03*
X024955Y019810D03*
D61*
X024624Y019779D03*
X024618Y019709D03*
X024618Y019703D03*
X024618Y019697D03*
X024618Y019690D03*
X024624Y019621D03*
X025789Y019602D03*
X025789Y019596D03*
X025796Y019627D03*
X025796Y019634D03*
X025796Y019640D03*
X025796Y019646D03*
X025796Y019653D03*
X025796Y019659D03*
X025796Y019665D03*
X025796Y019672D03*
X025796Y019678D03*
X025796Y019684D03*
X025796Y019690D03*
X025796Y019697D03*
X025796Y019703D03*
X025796Y019709D03*
X025796Y019716D03*
X025796Y019722D03*
X025796Y019728D03*
X025796Y019735D03*
X025796Y019741D03*
X025796Y019747D03*
X025796Y019753D03*
X025796Y019760D03*
X025796Y019766D03*
X025789Y019791D03*
X025789Y019798D03*
X025789Y019804D03*
X025783Y019829D03*
D62*
X025462Y019596D03*
D63*
X025462Y019602D03*
D64*
X025339Y019791D03*
X025087Y019602D03*
X024923Y020207D03*
D65*
X025090Y019621D03*
X025330Y019772D03*
D66*
X025100Y019634D03*
X025207Y020327D03*
D67*
X025103Y019640D03*
D68*
X025229Y019665D03*
X025235Y019653D03*
D69*
X025232Y019659D03*
X025226Y019672D03*
X025219Y019678D03*
X025213Y019690D03*
X025207Y019703D03*
X025200Y019709D03*
X025194Y019722D03*
X025188Y019735D03*
X025182Y019741D03*
D70*
X025304Y019747D03*
D71*
X025317Y019753D03*
D72*
X025333Y019779D03*
X025207Y020333D03*
D73*
X024948Y019791D03*
D74*
X024948Y019798D03*
D75*
X024952Y019804D03*
D76*
X024958Y019816D03*
D77*
X024958Y019823D03*
D78*
X024961Y019829D03*
D79*
X025002Y020232D03*
X025411Y020232D03*
D80*
X025207Y020239D03*
D81*
X025207Y020251D03*
D82*
X025207Y020257D03*
D83*
X025210Y020270D03*
D84*
X025207Y020276D03*
D85*
X025207Y020283D03*
D86*
X025210Y020289D03*
D87*
X025207Y020301D03*
D88*
X025210Y020314D03*
D89*
X025210Y020950D03*
D90*
X025210Y018450D03*
D91*
X021245Y021314D02*
X021245Y021472D01*
X020497Y022023D02*
X020025Y022023D01*
X019277Y021472D02*
X019277Y021314D01*
X020025Y020763D02*
X020497Y020763D01*
X026651Y026044D02*
X026901Y025794D01*
X027401Y025794D01*
X027651Y026044D01*
X027651Y026544D01*
X027401Y026794D01*
X027651Y027044D01*
X027651Y027544D01*
X027401Y027794D01*
X027651Y028044D01*
X027651Y028544D01*
X027401Y028794D01*
X027651Y029044D01*
X027651Y029544D01*
X027401Y029794D01*
X027651Y030044D01*
X027651Y030544D01*
X027401Y030794D01*
X027651Y031044D01*
X027651Y031544D01*
X027401Y031794D01*
X026901Y031794D01*
X026651Y031544D01*
X026651Y031044D01*
X026901Y030794D01*
X026651Y030544D01*
X026651Y030044D01*
X026901Y029794D01*
X026651Y029544D01*
X026651Y029044D01*
X026901Y028794D01*
X026651Y028544D01*
X026651Y028044D01*
X026901Y027794D01*
X026651Y027544D01*
X026651Y027044D01*
X026901Y026794D01*
X026651Y026544D01*
X026651Y026044D01*
X017545Y033420D02*
X016915Y033420D01*
X016914Y033421D02*
X016898Y033426D01*
X016882Y033434D01*
X016868Y033444D01*
X016856Y033456D01*
X016846Y033471D01*
X016839Y033487D01*
X016835Y033504D01*
X016834Y033521D01*
X016836Y033539D01*
X016836Y034089D02*
X016834Y034107D01*
X016835Y034124D01*
X016839Y034141D01*
X016846Y034157D01*
X016856Y034172D01*
X016868Y034184D01*
X016882Y034194D01*
X016898Y034202D01*
X016914Y034207D01*
X016915Y034208D02*
X017545Y034208D01*
X017545Y034207D02*
X017561Y034202D01*
X017577Y034194D01*
X017591Y034184D01*
X017603Y034172D01*
X017613Y034157D01*
X017620Y034141D01*
X017624Y034124D01*
X017625Y034107D01*
X017623Y034089D01*
X017623Y033539D02*
X017625Y033521D01*
X017624Y033504D01*
X017620Y033487D01*
X017613Y033471D01*
X017603Y033456D01*
X017591Y033444D01*
X017577Y033434D01*
X017561Y033426D01*
X017545Y033421D01*
X016925Y035934D02*
X016275Y035934D01*
X016258Y035936D01*
X016241Y035940D01*
X016225Y035947D01*
X016211Y035957D01*
X016198Y035970D01*
X016188Y035984D01*
X016181Y036000D01*
X016177Y036017D01*
X016175Y036034D01*
X016175Y036634D02*
X016177Y036651D01*
X016181Y036668D01*
X016188Y036684D01*
X016198Y036698D01*
X016211Y036711D01*
X016225Y036721D01*
X016241Y036728D01*
X016258Y036732D01*
X016275Y036734D01*
X016925Y036734D01*
X016942Y036732D01*
X016959Y036728D01*
X016975Y036721D01*
X016989Y036711D01*
X017002Y036698D01*
X017012Y036684D01*
X017019Y036668D01*
X017023Y036651D01*
X017025Y036634D01*
X017025Y036034D02*
X017023Y036017D01*
X017019Y036000D01*
X017012Y035984D01*
X017002Y035970D01*
X016989Y035957D01*
X016975Y035947D01*
X016959Y035940D01*
X016942Y035936D01*
X016925Y035934D01*
X015592Y036350D02*
X015592Y035373D01*
X015198Y034861D02*
X013985Y034861D01*
X013592Y035361D02*
X013592Y036350D01*
X013985Y036861D02*
X015198Y036861D01*
X014092Y035861D02*
X014094Y035905D01*
X014100Y035949D01*
X014110Y035992D01*
X014123Y036034D01*
X014140Y036075D01*
X014161Y036114D01*
X014185Y036151D01*
X014212Y036186D01*
X014242Y036218D01*
X014275Y036248D01*
X014311Y036274D01*
X014348Y036298D01*
X014388Y036317D01*
X014429Y036334D01*
X014472Y036346D01*
X014515Y036355D01*
X014559Y036360D01*
X014603Y036361D01*
X014647Y036358D01*
X014691Y036351D01*
X014734Y036340D01*
X014776Y036326D01*
X014816Y036308D01*
X014855Y036286D01*
X014891Y036262D01*
X014925Y036234D01*
X014957Y036203D01*
X014986Y036169D01*
X015012Y036133D01*
X015034Y036095D01*
X015053Y036055D01*
X015068Y036013D01*
X015080Y035971D01*
X015088Y035927D01*
X015092Y035883D01*
X015092Y035839D01*
X015088Y035795D01*
X015080Y035751D01*
X015068Y035709D01*
X015053Y035667D01*
X015034Y035627D01*
X015012Y035589D01*
X014986Y035553D01*
X014957Y035519D01*
X014925Y035488D01*
X014891Y035460D01*
X014855Y035436D01*
X014816Y035414D01*
X014776Y035396D01*
X014734Y035382D01*
X014691Y035371D01*
X014647Y035364D01*
X014603Y035361D01*
X014559Y035362D01*
X014515Y035367D01*
X014472Y035376D01*
X014429Y035388D01*
X014388Y035405D01*
X014348Y035424D01*
X014311Y035448D01*
X014275Y035474D01*
X014242Y035504D01*
X014212Y035536D01*
X014185Y035571D01*
X014161Y035608D01*
X014140Y035647D01*
X014123Y035688D01*
X014110Y035730D01*
X014100Y035773D01*
X014094Y035817D01*
X014092Y035861D01*
X008954Y035914D02*
X008954Y035414D01*
X008704Y035164D01*
X008204Y035164D01*
X007954Y035414D01*
X007704Y035164D01*
X007204Y035164D01*
X006954Y035414D01*
X006704Y035164D01*
X006204Y035164D01*
X005954Y035414D01*
X005704Y035164D01*
X005204Y035164D01*
X004954Y035414D01*
X004954Y035914D01*
X005204Y036164D01*
X005704Y036164D01*
X005954Y035914D01*
X006204Y036164D01*
X006704Y036164D01*
X006954Y035914D01*
X007204Y036164D01*
X007704Y036164D01*
X007954Y035914D01*
X008204Y036164D01*
X008704Y036164D01*
X008954Y035914D01*
X008355Y029778D02*
X008357Y029793D01*
X008363Y029806D01*
X008372Y029818D01*
X008383Y029827D01*
X008397Y029833D01*
X008412Y029835D01*
X008427Y029833D01*
X008440Y029827D01*
X008452Y029818D01*
X008461Y029807D01*
X008467Y029793D01*
X008469Y029778D01*
X008467Y029763D01*
X008461Y029750D01*
X008452Y029738D01*
X008441Y029729D01*
X008427Y029723D01*
X008412Y029721D01*
X008397Y029723D01*
X008384Y029729D01*
X008372Y029738D01*
X008363Y029749D01*
X008357Y029763D01*
X008355Y029778D01*
X003385Y019708D02*
X002885Y019708D01*
X002635Y019458D01*
X002635Y018958D01*
X002885Y018708D01*
X002635Y018458D01*
X002635Y017958D01*
X002885Y017708D01*
X003385Y017708D01*
X003635Y017958D01*
X003635Y018458D01*
X003385Y018708D01*
X003635Y018958D01*
X003635Y019458D01*
X003385Y019708D01*
X005891Y008381D02*
X005891Y007751D01*
X005897Y007733D01*
X005906Y007715D01*
X005918Y007700D01*
X005934Y007688D01*
X005951Y007679D01*
X005970Y007673D01*
X005989Y007671D01*
X006009Y007673D01*
X006560Y007673D02*
X006578Y007671D01*
X006595Y007672D01*
X006612Y007676D01*
X006628Y007683D01*
X006643Y007693D01*
X006655Y007705D01*
X006665Y007719D01*
X006673Y007735D01*
X006678Y007751D01*
X006678Y008381D01*
X006678Y007751D01*
X006679Y007751D02*
X006685Y007733D01*
X006694Y007715D01*
X006706Y007700D01*
X006722Y007688D01*
X006739Y007679D01*
X006758Y007673D01*
X006777Y007671D01*
X006797Y007673D01*
X007347Y007673D02*
X007365Y007671D01*
X007382Y007672D01*
X007399Y007676D01*
X007415Y007683D01*
X007430Y007693D01*
X007442Y007705D01*
X007452Y007719D01*
X007460Y007735D01*
X007465Y007751D01*
X007466Y007751D02*
X007466Y008381D01*
X007465Y008381D02*
X007460Y008397D01*
X007452Y008413D01*
X007442Y008427D01*
X007430Y008439D01*
X007415Y008449D01*
X007399Y008456D01*
X007382Y008460D01*
X007365Y008461D01*
X007347Y008459D01*
X006797Y008459D02*
X006777Y008461D01*
X006758Y008459D01*
X006739Y008453D01*
X006722Y008444D01*
X006706Y008432D01*
X006694Y008417D01*
X006685Y008399D01*
X006679Y008381D01*
X006678Y008381D02*
X006673Y008397D01*
X006665Y008413D01*
X006655Y008427D01*
X006643Y008439D01*
X006628Y008449D01*
X006612Y008456D01*
X006595Y008460D01*
X006578Y008461D01*
X006560Y008459D01*
X006009Y008459D02*
X005989Y008461D01*
X005970Y008459D01*
X005951Y008453D01*
X005934Y008444D01*
X005918Y008432D01*
X005906Y008417D01*
X005897Y008399D01*
X005891Y008381D01*
X005202Y006668D02*
X003076Y006668D01*
X002820Y006275D02*
X002820Y006039D01*
X003548Y005645D02*
X004139Y005645D01*
X005458Y006039D02*
X005458Y006275D01*
X006391Y004728D02*
X006729Y004728D01*
X006879Y004274D02*
X006879Y004063D01*
X006729Y003608D02*
X006391Y003608D01*
X005289Y003332D02*
X005289Y002832D01*
X005039Y002582D01*
X005289Y002332D01*
X005289Y001832D01*
X005039Y001582D01*
X004539Y001582D01*
X004289Y001832D01*
X004289Y002332D01*
X004539Y002582D01*
X004289Y002832D01*
X004289Y003332D01*
X004539Y003582D01*
X005039Y003582D01*
X005289Y003332D01*
X009344Y004120D02*
X009682Y004120D01*
X009832Y004575D02*
X009832Y004786D01*
X009682Y005240D02*
X009344Y005240D01*
X018017Y005783D02*
X018017Y005940D01*
X018017Y005783D02*
X018174Y005783D01*
X018017Y006885D02*
X018017Y007042D01*
X018174Y007042D01*
X019119Y007042D02*
X019277Y007042D01*
X019277Y006885D01*
X019277Y005940D02*
X019119Y005783D01*
X025251Y003545D02*
X025901Y003545D01*
X025918Y003543D01*
X025935Y003539D01*
X025951Y003532D01*
X025965Y003522D01*
X025978Y003509D01*
X025988Y003495D01*
X025995Y003479D01*
X025999Y003462D01*
X026001Y003445D01*
X026001Y002845D02*
X025999Y002828D01*
X025995Y002811D01*
X025988Y002795D01*
X025978Y002781D01*
X025965Y002768D01*
X025951Y002758D01*
X025935Y002751D01*
X025918Y002747D01*
X025901Y002745D01*
X025251Y002745D01*
X025234Y002747D01*
X025217Y002751D01*
X025201Y002758D01*
X025187Y002768D01*
X025174Y002781D01*
X025164Y002795D01*
X025157Y002811D01*
X025153Y002828D01*
X025151Y002845D01*
X025151Y003445D02*
X025153Y003462D01*
X025157Y003479D01*
X025164Y003495D01*
X025174Y003509D01*
X025187Y003522D01*
X025201Y003532D01*
X025217Y003539D01*
X025234Y003543D01*
X025251Y003545D01*
D92*
X017427Y028420D02*
X017429Y028450D01*
X017435Y028480D01*
X017444Y028509D01*
X017457Y028536D01*
X017474Y028561D01*
X017493Y028584D01*
X017516Y028605D01*
X017541Y028622D01*
X017567Y028636D01*
X017596Y028646D01*
X017625Y028653D01*
X017655Y028656D01*
X017686Y028655D01*
X017716Y028650D01*
X017745Y028641D01*
X017772Y028629D01*
X017798Y028614D01*
X017822Y028595D01*
X017843Y028573D01*
X017861Y028549D01*
X017876Y028522D01*
X017887Y028494D01*
X017895Y028465D01*
X017899Y028435D01*
X017899Y028405D01*
X017895Y028375D01*
X017887Y028346D01*
X017876Y028318D01*
X017861Y028291D01*
X017843Y028267D01*
X017822Y028245D01*
X017798Y028226D01*
X017772Y028211D01*
X017745Y028199D01*
X017716Y028190D01*
X017686Y028185D01*
X017655Y028184D01*
X017625Y028187D01*
X017596Y028194D01*
X017567Y028204D01*
X017541Y028218D01*
X017516Y028235D01*
X017493Y028256D01*
X017474Y028279D01*
X017457Y028304D01*
X017444Y028331D01*
X017435Y028360D01*
X017429Y028390D01*
X017427Y028420D01*
D93*
X024631Y012161D02*
X024789Y012161D01*
X024789Y008932D02*
X024631Y008932D01*
D94*
X022554Y021255D02*
X022554Y021491D01*
X022062Y021491D02*
X022062Y021255D01*
X021924Y021255D02*
X021924Y021491D01*
X021432Y021491D02*
X021432Y021255D01*
X010310Y020035D02*
X010310Y019798D01*
X009818Y019798D02*
X009818Y020035D01*
X009680Y020035D02*
X009680Y019798D01*
X009188Y019798D02*
X009188Y020035D01*
D95*
X009434Y019916D03*
X010064Y019916D03*
X021678Y021373D03*
X022308Y021373D03*
D96*
X009907Y035271D02*
X009907Y035664D01*
X009907Y035271D02*
X009905Y035232D01*
X009899Y035194D01*
X009890Y035157D01*
X009877Y035120D01*
X009860Y035085D01*
X009841Y035052D01*
X009818Y035021D01*
X009792Y034992D01*
X009763Y034966D01*
X009732Y034943D01*
X009699Y034924D01*
X009664Y034907D01*
X009627Y034894D01*
X009590Y034885D01*
X009552Y034879D01*
X009513Y034877D01*
X004395Y034877D01*
X004356Y034879D01*
X004318Y034885D01*
X004281Y034894D01*
X004244Y034907D01*
X004209Y034924D01*
X004176Y034943D01*
X004145Y034966D01*
X004116Y034992D01*
X004090Y035021D01*
X004067Y035052D01*
X004048Y035085D01*
X004031Y035120D01*
X004018Y035157D01*
X004009Y035194D01*
X004003Y035232D01*
X004001Y035271D01*
X004001Y035664D01*
M02*
