G75*
G70*
%OFA0B0*%
%FSLAX24Y24*%
%IPPOS*%
%LPD*%
%AMOC8*
5,1,8,0,0,1.08239X$1,22.5*
%
%ADD10C,0.0059*%
%ADD11C,0.0051*%
%ADD12C,0.0054*%
%ADD13C,0.0098*%
%ADD14R,0.0118X0.0453*%
%ADD15C,0.0216*%
%ADD16C,0.0055*%
%ADD17C,0.0315*%
%ADD18C,0.0046*%
%ADD19C,0.0044*%
%ADD20C,0.1181*%
%ADD21C,0.0780*%
%ADD22C,0.0047*%
%ADD23OC8,0.0890*%
%ADD24C,0.0047*%
%ADD25C,0.0138*%
%ADD26C,0.0049*%
%ADD27C,0.0079*%
%ADD28C,0.0067*%
%ADD29C,0.0046*%
%ADD30C,0.0087*%
%ADD31C,0.0046*%
%ADD32C,0.0047*%
%ADD33R,0.0476X0.0476*%
%ADD34C,0.0476*%
%ADD35C,0.0043*%
%ADD36C,0.0048*%
%ADD37OC8,0.0700*%
%ADD38OC8,0.0780*%
%ADD39C,0.0335*%
%ADD40C,0.0453*%
%ADD41C,0.0540*%
%ADD42C,0.0057*%
%ADD43C,0.0069*%
%ADD44C,0.0059*%
%ADD45C,0.0552*%
%ADD46C,0.0077*%
%ADD47C,0.0113*%
%ADD48C,0.0047*%
%ADD49C,0.0394*%
%ADD50C,0.1812*%
D10*
X006019Y012673D02*
X006019Y013205D01*
X006551Y013205D01*
X006551Y012673D01*
X006019Y012673D01*
X006019Y012731D02*
X006551Y012731D01*
X006551Y012789D02*
X006019Y012789D01*
X006019Y012847D02*
X006551Y012847D01*
X006551Y012905D02*
X006019Y012905D01*
X006019Y012963D02*
X006551Y012963D01*
X006551Y013021D02*
X006019Y013021D01*
X006019Y013079D02*
X006551Y013079D01*
X006551Y013137D02*
X006019Y013137D01*
X006019Y013195D02*
X006551Y013195D01*
X006806Y013205D02*
X006806Y012673D01*
X006806Y013205D02*
X007338Y013205D01*
X007338Y012673D01*
X006806Y012673D01*
X006806Y012731D02*
X007338Y012731D01*
X007338Y012789D02*
X006806Y012789D01*
X006806Y012847D02*
X007338Y012847D01*
X007338Y012905D02*
X006806Y012905D01*
X006806Y012963D02*
X007338Y012963D01*
X007338Y013021D02*
X006806Y013021D01*
X006806Y013079D02*
X007338Y013079D01*
X007338Y013137D02*
X006806Y013137D01*
X006806Y013195D02*
X007338Y013195D01*
X007593Y013205D02*
X007593Y012673D01*
X007593Y013205D02*
X008125Y013205D01*
X008125Y012673D01*
X007593Y012673D01*
X007593Y012731D02*
X008125Y012731D01*
X008125Y012789D02*
X007593Y012789D01*
X007593Y012847D02*
X008125Y012847D01*
X008125Y012905D02*
X007593Y012905D01*
X007593Y012963D02*
X008125Y012963D01*
X008125Y013021D02*
X007593Y013021D01*
X007593Y013079D02*
X008125Y013079D01*
X008125Y013137D02*
X007593Y013137D01*
X007593Y013195D02*
X008125Y013195D01*
X008381Y013205D02*
X008381Y012673D01*
X008381Y013205D02*
X008913Y013205D01*
X008913Y012673D01*
X008381Y012673D01*
X008381Y012731D02*
X008913Y012731D01*
X008913Y012789D02*
X008381Y012789D01*
X008381Y012847D02*
X008913Y012847D01*
X008913Y012905D02*
X008381Y012905D01*
X008381Y012963D02*
X008913Y012963D01*
X008913Y013021D02*
X008381Y013021D01*
X008381Y013079D02*
X008913Y013079D01*
X008913Y013137D02*
X008381Y013137D01*
X008381Y013195D02*
X008913Y013195D01*
X009168Y013205D02*
X009168Y012673D01*
X009168Y013205D02*
X009700Y013205D01*
X009700Y012673D01*
X009168Y012673D01*
X009168Y012731D02*
X009700Y012731D01*
X009700Y012789D02*
X009168Y012789D01*
X009168Y012847D02*
X009700Y012847D01*
X009700Y012905D02*
X009168Y012905D01*
X009168Y012963D02*
X009700Y012963D01*
X009700Y013021D02*
X009168Y013021D01*
X009168Y013079D02*
X009700Y013079D01*
X009700Y013137D02*
X009168Y013137D01*
X009168Y013195D02*
X009700Y013195D01*
X009956Y013205D02*
X009956Y012673D01*
X009956Y013205D02*
X010488Y013205D01*
X010488Y012673D01*
X009956Y012673D01*
X009956Y012731D02*
X010488Y012731D01*
X010488Y012789D02*
X009956Y012789D01*
X009956Y012847D02*
X010488Y012847D01*
X010488Y012905D02*
X009956Y012905D01*
X009956Y012963D02*
X010488Y012963D01*
X010488Y013021D02*
X009956Y013021D01*
X009956Y013079D02*
X010488Y013079D01*
X010488Y013137D02*
X009956Y013137D01*
X009956Y013195D02*
X010488Y013195D01*
X010743Y013205D02*
X010743Y012673D01*
X010743Y013205D02*
X011275Y013205D01*
X011275Y012673D01*
X010743Y012673D01*
X010743Y012731D02*
X011275Y012731D01*
X011275Y012789D02*
X010743Y012789D01*
X010743Y012847D02*
X011275Y012847D01*
X011275Y012905D02*
X010743Y012905D01*
X010743Y012963D02*
X011275Y012963D01*
X011275Y013021D02*
X010743Y013021D01*
X010743Y013079D02*
X011275Y013079D01*
X011275Y013137D02*
X010743Y013137D01*
X010743Y013195D02*
X011275Y013195D01*
X011570Y013973D02*
X012102Y013973D01*
X012102Y013441D01*
X011570Y013441D01*
X011570Y013973D01*
X011570Y013499D02*
X012102Y013499D01*
X012102Y013557D02*
X011570Y013557D01*
X011570Y013615D02*
X012102Y013615D01*
X012102Y013673D02*
X011570Y013673D01*
X011570Y013731D02*
X012102Y013731D01*
X012102Y013789D02*
X011570Y013789D01*
X011570Y013847D02*
X012102Y013847D01*
X012102Y013905D02*
X011570Y013905D01*
X011570Y013963D02*
X012102Y013963D01*
X012102Y014761D02*
X011570Y014761D01*
X012102Y014761D02*
X012102Y014229D01*
X011570Y014229D01*
X011570Y014761D01*
X011570Y014287D02*
X012102Y014287D01*
X012102Y014345D02*
X011570Y014345D01*
X011570Y014403D02*
X012102Y014403D01*
X012102Y014461D02*
X011570Y014461D01*
X011570Y014519D02*
X012102Y014519D01*
X012102Y014577D02*
X011570Y014577D01*
X011570Y014635D02*
X012102Y014635D01*
X012102Y014693D02*
X011570Y014693D01*
X011570Y014751D02*
X012102Y014751D01*
X012102Y015548D02*
X011570Y015548D01*
X012102Y015548D02*
X012102Y015016D01*
X011570Y015016D01*
X011570Y015548D01*
X011570Y015074D02*
X012102Y015074D01*
X012102Y015132D02*
X011570Y015132D01*
X011570Y015190D02*
X012102Y015190D01*
X012102Y015248D02*
X011570Y015248D01*
X011570Y015306D02*
X012102Y015306D01*
X012102Y015364D02*
X011570Y015364D01*
X011570Y015422D02*
X012102Y015422D01*
X012102Y015480D02*
X011570Y015480D01*
X011570Y015538D02*
X012102Y015538D01*
X012102Y016335D02*
X011570Y016335D01*
X012102Y016335D02*
X012102Y015803D01*
X011570Y015803D01*
X011570Y016335D01*
X011570Y015861D02*
X012102Y015861D01*
X012102Y015919D02*
X011570Y015919D01*
X011570Y015977D02*
X012102Y015977D01*
X012102Y016035D02*
X011570Y016035D01*
X011570Y016093D02*
X012102Y016093D01*
X012102Y016151D02*
X011570Y016151D01*
X011570Y016209D02*
X012102Y016209D01*
X012102Y016267D02*
X011570Y016267D01*
X011570Y016325D02*
X012102Y016325D01*
X012102Y017123D02*
X011570Y017123D01*
X012102Y017123D02*
X012102Y016591D01*
X011570Y016591D01*
X011570Y017123D01*
X011570Y016649D02*
X012102Y016649D01*
X012102Y016707D02*
X011570Y016707D01*
X011570Y016765D02*
X012102Y016765D01*
X012102Y016823D02*
X011570Y016823D01*
X011570Y016881D02*
X012102Y016881D01*
X012102Y016939D02*
X011570Y016939D01*
X011570Y016997D02*
X012102Y016997D01*
X012102Y017055D02*
X011570Y017055D01*
X011570Y017113D02*
X012102Y017113D01*
X012102Y017910D02*
X011570Y017910D01*
X012102Y017910D02*
X012102Y017378D01*
X011570Y017378D01*
X011570Y017910D01*
X011570Y017436D02*
X012102Y017436D01*
X012102Y017494D02*
X011570Y017494D01*
X011570Y017552D02*
X012102Y017552D01*
X012102Y017610D02*
X011570Y017610D01*
X011570Y017668D02*
X012102Y017668D01*
X012102Y017726D02*
X011570Y017726D01*
X011570Y017784D02*
X012102Y017784D01*
X012102Y017842D02*
X011570Y017842D01*
X011570Y017900D02*
X012102Y017900D01*
X012102Y018698D02*
X011570Y018698D01*
X012102Y018698D02*
X012102Y018166D01*
X011570Y018166D01*
X011570Y018698D01*
X011570Y018224D02*
X012102Y018224D01*
X012102Y018282D02*
X011570Y018282D01*
X011570Y018340D02*
X012102Y018340D01*
X012102Y018398D02*
X011570Y018398D01*
X011570Y018456D02*
X012102Y018456D01*
X012102Y018514D02*
X011570Y018514D01*
X011570Y018572D02*
X012102Y018572D01*
X012102Y018630D02*
X011570Y018630D01*
X011570Y018688D02*
X012102Y018688D01*
X010743Y018933D02*
X010743Y019465D01*
X011275Y019465D01*
X011275Y018933D01*
X010743Y018933D01*
X010743Y018991D02*
X011275Y018991D01*
X011275Y019049D02*
X010743Y019049D01*
X010743Y019107D02*
X011275Y019107D01*
X011275Y019165D02*
X010743Y019165D01*
X010743Y019223D02*
X011275Y019223D01*
X011275Y019281D02*
X010743Y019281D01*
X010743Y019339D02*
X011275Y019339D01*
X011275Y019397D02*
X010743Y019397D01*
X010743Y019455D02*
X011275Y019455D01*
X009956Y019465D02*
X009956Y018933D01*
X009956Y019465D02*
X010488Y019465D01*
X010488Y018933D01*
X009956Y018933D01*
X009956Y018991D02*
X010488Y018991D01*
X010488Y019049D02*
X009956Y019049D01*
X009956Y019107D02*
X010488Y019107D01*
X010488Y019165D02*
X009956Y019165D01*
X009956Y019223D02*
X010488Y019223D01*
X010488Y019281D02*
X009956Y019281D01*
X009956Y019339D02*
X010488Y019339D01*
X010488Y019397D02*
X009956Y019397D01*
X009956Y019455D02*
X010488Y019455D01*
X009168Y019465D02*
X009168Y018933D01*
X009168Y019465D02*
X009700Y019465D01*
X009700Y018933D01*
X009168Y018933D01*
X009168Y018991D02*
X009700Y018991D01*
X009700Y019049D02*
X009168Y019049D01*
X009168Y019107D02*
X009700Y019107D01*
X009700Y019165D02*
X009168Y019165D01*
X009168Y019223D02*
X009700Y019223D01*
X009700Y019281D02*
X009168Y019281D01*
X009168Y019339D02*
X009700Y019339D01*
X009700Y019397D02*
X009168Y019397D01*
X009168Y019455D02*
X009700Y019455D01*
X008381Y019465D02*
X008381Y018933D01*
X008381Y019465D02*
X008913Y019465D01*
X008913Y018933D01*
X008381Y018933D01*
X008381Y018991D02*
X008913Y018991D01*
X008913Y019049D02*
X008381Y019049D01*
X008381Y019107D02*
X008913Y019107D01*
X008913Y019165D02*
X008381Y019165D01*
X008381Y019223D02*
X008913Y019223D01*
X008913Y019281D02*
X008381Y019281D01*
X008381Y019339D02*
X008913Y019339D01*
X008913Y019397D02*
X008381Y019397D01*
X008381Y019455D02*
X008913Y019455D01*
X007593Y019465D02*
X007593Y018933D01*
X007593Y019465D02*
X008125Y019465D01*
X008125Y018933D01*
X007593Y018933D01*
X007593Y018991D02*
X008125Y018991D01*
X008125Y019049D02*
X007593Y019049D01*
X007593Y019107D02*
X008125Y019107D01*
X008125Y019165D02*
X007593Y019165D01*
X007593Y019223D02*
X008125Y019223D01*
X008125Y019281D02*
X007593Y019281D01*
X007593Y019339D02*
X008125Y019339D01*
X008125Y019397D02*
X007593Y019397D01*
X007593Y019455D02*
X008125Y019455D01*
X006806Y019465D02*
X006806Y018933D01*
X006806Y019465D02*
X007338Y019465D01*
X007338Y018933D01*
X006806Y018933D01*
X006806Y018991D02*
X007338Y018991D01*
X007338Y019049D02*
X006806Y019049D01*
X006806Y019107D02*
X007338Y019107D01*
X007338Y019165D02*
X006806Y019165D01*
X006806Y019223D02*
X007338Y019223D01*
X007338Y019281D02*
X006806Y019281D01*
X006806Y019339D02*
X007338Y019339D01*
X007338Y019397D02*
X006806Y019397D01*
X006806Y019455D02*
X007338Y019455D01*
X006019Y019465D02*
X006019Y018933D01*
X006019Y019465D02*
X006551Y019465D01*
X006551Y018933D01*
X006019Y018933D01*
X006019Y018991D02*
X006551Y018991D01*
X006551Y019049D02*
X006019Y019049D01*
X006019Y019107D02*
X006551Y019107D01*
X006551Y019165D02*
X006019Y019165D01*
X006019Y019223D02*
X006551Y019223D01*
X006551Y019281D02*
X006019Y019281D01*
X006019Y019339D02*
X006551Y019339D01*
X006551Y019397D02*
X006019Y019397D01*
X006019Y019455D02*
X006551Y019455D01*
D11*
X019223Y025159D02*
X019803Y025159D01*
X019803Y024697D01*
X019223Y024697D01*
X019223Y025159D01*
X019223Y024747D02*
X019803Y024747D01*
X019803Y024797D02*
X019223Y024797D01*
X019223Y024847D02*
X019803Y024847D01*
X019803Y024897D02*
X019223Y024897D01*
X019223Y024947D02*
X019803Y024947D01*
X019803Y024997D02*
X019223Y024997D01*
X019223Y025047D02*
X019803Y025047D01*
X019803Y025097D02*
X019223Y025097D01*
X019223Y025147D02*
X019803Y025147D01*
X019803Y026025D02*
X019223Y026025D01*
X019803Y026025D02*
X019803Y025563D01*
X019223Y025563D01*
X019223Y026025D01*
X019223Y025613D02*
X019803Y025613D01*
X019803Y025663D02*
X019223Y025663D01*
X019223Y025713D02*
X019803Y025713D01*
X019803Y025763D02*
X019223Y025763D01*
X019223Y025813D02*
X019803Y025813D01*
X019803Y025863D02*
X019223Y025863D01*
X019223Y025913D02*
X019803Y025913D01*
X019803Y025963D02*
X019223Y025963D01*
X019223Y026013D02*
X019803Y026013D01*
X020719Y026025D02*
X021299Y026025D01*
X021299Y025563D01*
X020719Y025563D01*
X020719Y026025D01*
X020719Y025613D02*
X021299Y025613D01*
X021299Y025663D02*
X020719Y025663D01*
X020719Y025713D02*
X021299Y025713D01*
X021299Y025763D02*
X020719Y025763D01*
X020719Y025813D02*
X021299Y025813D01*
X021299Y025863D02*
X020719Y025863D01*
X020719Y025913D02*
X021299Y025913D01*
X021299Y025963D02*
X020719Y025963D01*
X020719Y026013D02*
X021299Y026013D01*
X021299Y025159D02*
X020719Y025159D01*
X021299Y025159D02*
X021299Y024697D01*
X020719Y024697D01*
X020719Y025159D01*
X020719Y024747D02*
X021299Y024747D01*
X021299Y024797D02*
X020719Y024797D01*
X020719Y024847D02*
X021299Y024847D01*
X021299Y024897D02*
X020719Y024897D01*
X020719Y024947D02*
X021299Y024947D01*
X021299Y024997D02*
X020719Y024997D01*
X020719Y025047D02*
X021299Y025047D01*
X021299Y025097D02*
X020719Y025097D01*
X020719Y025147D02*
X021299Y025147D01*
X022117Y039835D02*
X022579Y039835D01*
X022117Y039835D02*
X022117Y041399D01*
X022579Y041399D01*
X022579Y039835D01*
X022579Y039885D02*
X022117Y039885D01*
X022117Y039935D02*
X022579Y039935D01*
X022579Y039985D02*
X022117Y039985D01*
X022117Y040035D02*
X022579Y040035D01*
X022579Y040085D02*
X022117Y040085D01*
X022117Y040135D02*
X022579Y040135D01*
X022579Y040185D02*
X022117Y040185D01*
X022117Y040235D02*
X022579Y040235D01*
X022579Y040285D02*
X022117Y040285D01*
X022117Y040335D02*
X022579Y040335D01*
X022579Y040385D02*
X022117Y040385D01*
X022117Y040435D02*
X022579Y040435D01*
X022579Y040485D02*
X022117Y040485D01*
X022117Y040535D02*
X022579Y040535D01*
X022579Y040585D02*
X022117Y040585D01*
X022117Y040635D02*
X022579Y040635D01*
X022579Y040685D02*
X022117Y040685D01*
X022117Y040735D02*
X022579Y040735D01*
X022579Y040785D02*
X022117Y040785D01*
X022117Y040835D02*
X022579Y040835D01*
X022579Y040885D02*
X022117Y040885D01*
X022117Y040935D02*
X022579Y040935D01*
X022579Y040985D02*
X022117Y040985D01*
X022117Y041035D02*
X022579Y041035D01*
X022579Y041085D02*
X022117Y041085D01*
X022117Y041135D02*
X022579Y041135D01*
X022579Y041185D02*
X022117Y041185D01*
X022117Y041235D02*
X022579Y041235D01*
X022579Y041285D02*
X022117Y041285D01*
X022117Y041335D02*
X022579Y041335D01*
X022579Y041385D02*
X022117Y041385D01*
X018169Y039835D02*
X017707Y039835D01*
X017707Y041399D01*
X018169Y041399D01*
X018169Y039835D01*
X018169Y039885D02*
X017707Y039885D01*
X017707Y039935D02*
X018169Y039935D01*
X018169Y039985D02*
X017707Y039985D01*
X017707Y040035D02*
X018169Y040035D01*
X018169Y040085D02*
X017707Y040085D01*
X017707Y040135D02*
X018169Y040135D01*
X018169Y040185D02*
X017707Y040185D01*
X017707Y040235D02*
X018169Y040235D01*
X018169Y040285D02*
X017707Y040285D01*
X017707Y040335D02*
X018169Y040335D01*
X018169Y040385D02*
X017707Y040385D01*
X017707Y040435D02*
X018169Y040435D01*
X018169Y040485D02*
X017707Y040485D01*
X017707Y040535D02*
X018169Y040535D01*
X018169Y040585D02*
X017707Y040585D01*
X017707Y040635D02*
X018169Y040635D01*
X018169Y040685D02*
X017707Y040685D01*
X017707Y040735D02*
X018169Y040735D01*
X018169Y040785D02*
X017707Y040785D01*
X017707Y040835D02*
X018169Y040835D01*
X018169Y040885D02*
X017707Y040885D01*
X017707Y040935D02*
X018169Y040935D01*
X018169Y040985D02*
X017707Y040985D01*
X017707Y041035D02*
X018169Y041035D01*
X018169Y041085D02*
X017707Y041085D01*
X017707Y041135D02*
X018169Y041135D01*
X018169Y041185D02*
X017707Y041185D01*
X017707Y041235D02*
X018169Y041235D01*
X018169Y041285D02*
X017707Y041285D01*
X017707Y041335D02*
X018169Y041335D01*
X018169Y041385D02*
X017707Y041385D01*
X017362Y041006D02*
X016880Y041006D01*
X016880Y041468D01*
X017362Y041468D01*
X017362Y041006D01*
X017362Y041056D02*
X016880Y041056D01*
X016880Y041106D02*
X017362Y041106D01*
X017362Y041156D02*
X016880Y041156D01*
X016880Y041206D02*
X017362Y041206D01*
X017362Y041256D02*
X016880Y041256D01*
X016880Y041306D02*
X017362Y041306D01*
X017362Y041356D02*
X016880Y041356D01*
X016880Y041406D02*
X017362Y041406D01*
X017362Y041456D02*
X016880Y041456D01*
X016880Y042758D02*
X017362Y042758D01*
X016880Y042758D02*
X016880Y043220D01*
X017362Y043220D01*
X017362Y042758D01*
X017362Y042808D02*
X016880Y042808D01*
X016880Y042858D02*
X017362Y042858D01*
X017362Y042908D02*
X016880Y042908D01*
X016880Y042958D02*
X017362Y042958D01*
X017362Y043008D02*
X016880Y043008D01*
X016880Y043058D02*
X017362Y043058D01*
X017362Y043108D02*
X016880Y043108D01*
X016880Y043158D02*
X017362Y043158D01*
X017362Y043208D02*
X016880Y043208D01*
X013169Y042758D02*
X012687Y042758D01*
X012687Y043220D01*
X013169Y043220D01*
X013169Y042758D01*
X013169Y042808D02*
X012687Y042808D01*
X012687Y042858D02*
X013169Y042858D01*
X013169Y042908D02*
X012687Y042908D01*
X012687Y042958D02*
X013169Y042958D01*
X013169Y043008D02*
X012687Y043008D01*
X012687Y043058D02*
X013169Y043058D01*
X013169Y043108D02*
X012687Y043108D01*
X012687Y043158D02*
X013169Y043158D01*
X013169Y043208D02*
X012687Y043208D01*
X012687Y041006D02*
X013169Y041006D01*
X012687Y041006D02*
X012687Y041468D01*
X013169Y041468D01*
X013169Y041006D01*
X013169Y041056D02*
X012687Y041056D01*
X012687Y041106D02*
X013169Y041106D01*
X013169Y041156D02*
X012687Y041156D01*
X012687Y041206D02*
X013169Y041206D01*
X013169Y041256D02*
X012687Y041256D01*
X012687Y041306D02*
X013169Y041306D01*
X013169Y041356D02*
X012687Y041356D01*
X012687Y041406D02*
X013169Y041406D01*
X013169Y041456D02*
X012687Y041456D01*
D12*
X012591Y033523D02*
X012591Y033065D01*
X012591Y033523D02*
X012695Y033523D01*
X012695Y033065D01*
X012591Y033065D01*
X012591Y033118D02*
X012695Y033118D01*
X012695Y033171D02*
X012591Y033171D01*
X012591Y033224D02*
X012695Y033224D01*
X012695Y033277D02*
X012591Y033277D01*
X012591Y033330D02*
X012695Y033330D01*
X012695Y033383D02*
X012591Y033383D01*
X012591Y033436D02*
X012695Y033436D01*
X012695Y033489D02*
X012591Y033489D01*
X012394Y033523D02*
X012394Y033065D01*
X012394Y033523D02*
X012498Y033523D01*
X012498Y033065D01*
X012394Y033065D01*
X012394Y033118D02*
X012498Y033118D01*
X012498Y033171D02*
X012394Y033171D01*
X012394Y033224D02*
X012498Y033224D01*
X012498Y033277D02*
X012394Y033277D01*
X012394Y033330D02*
X012498Y033330D01*
X012498Y033383D02*
X012394Y033383D01*
X012394Y033436D02*
X012498Y033436D01*
X012498Y033489D02*
X012394Y033489D01*
X012197Y033523D02*
X012197Y033065D01*
X012197Y033523D02*
X012301Y033523D01*
X012301Y033065D01*
X012197Y033065D01*
X012197Y033118D02*
X012301Y033118D01*
X012301Y033171D02*
X012197Y033171D01*
X012197Y033224D02*
X012301Y033224D01*
X012301Y033277D02*
X012197Y033277D01*
X012197Y033330D02*
X012301Y033330D01*
X012301Y033383D02*
X012197Y033383D01*
X012197Y033436D02*
X012301Y033436D01*
X012301Y033489D02*
X012197Y033489D01*
X012000Y033523D02*
X012000Y033065D01*
X012000Y033523D02*
X012104Y033523D01*
X012104Y033065D01*
X012000Y033065D01*
X012000Y033118D02*
X012104Y033118D01*
X012104Y033171D02*
X012000Y033171D01*
X012000Y033224D02*
X012104Y033224D01*
X012104Y033277D02*
X012000Y033277D01*
X012000Y033330D02*
X012104Y033330D01*
X012104Y033383D02*
X012000Y033383D01*
X012000Y033436D02*
X012104Y033436D01*
X012104Y033489D02*
X012000Y033489D01*
X011804Y033523D02*
X011804Y033065D01*
X011804Y033523D02*
X011908Y033523D01*
X011908Y033065D01*
X011804Y033065D01*
X011804Y033118D02*
X011908Y033118D01*
X011908Y033171D02*
X011804Y033171D01*
X011804Y033224D02*
X011908Y033224D01*
X011908Y033277D02*
X011804Y033277D01*
X011804Y033330D02*
X011908Y033330D01*
X011908Y033383D02*
X011804Y033383D01*
X011804Y033436D02*
X011908Y033436D01*
X011908Y033489D02*
X011804Y033489D01*
X011607Y033523D02*
X011607Y033065D01*
X011607Y033523D02*
X011711Y033523D01*
X011711Y033065D01*
X011607Y033065D01*
X011607Y033118D02*
X011711Y033118D01*
X011711Y033171D02*
X011607Y033171D01*
X011607Y033224D02*
X011711Y033224D01*
X011711Y033277D02*
X011607Y033277D01*
X011607Y033330D02*
X011711Y033330D01*
X011711Y033383D02*
X011607Y033383D01*
X011607Y033436D02*
X011711Y033436D01*
X011711Y033489D02*
X011607Y033489D01*
X011410Y033523D02*
X011410Y033065D01*
X011410Y033523D02*
X011514Y033523D01*
X011514Y033065D01*
X011410Y033065D01*
X011410Y033118D02*
X011514Y033118D01*
X011514Y033171D02*
X011410Y033171D01*
X011410Y033224D02*
X011514Y033224D01*
X011514Y033277D02*
X011410Y033277D01*
X011410Y033330D02*
X011514Y033330D01*
X011514Y033383D02*
X011410Y033383D01*
X011410Y033436D02*
X011514Y033436D01*
X011514Y033489D02*
X011410Y033489D01*
X011213Y033523D02*
X011213Y033065D01*
X011213Y033523D02*
X011317Y033523D01*
X011317Y033065D01*
X011213Y033065D01*
X011213Y033118D02*
X011317Y033118D01*
X011317Y033171D02*
X011213Y033171D01*
X011213Y033224D02*
X011317Y033224D01*
X011317Y033277D02*
X011213Y033277D01*
X011213Y033330D02*
X011317Y033330D01*
X011317Y033383D02*
X011213Y033383D01*
X011213Y033436D02*
X011317Y033436D01*
X011317Y033489D02*
X011213Y033489D01*
X011016Y033523D02*
X011016Y033065D01*
X011016Y033523D02*
X011120Y033523D01*
X011120Y033065D01*
X011016Y033065D01*
X011016Y033118D02*
X011120Y033118D01*
X011120Y033171D02*
X011016Y033171D01*
X011016Y033224D02*
X011120Y033224D01*
X011120Y033277D02*
X011016Y033277D01*
X011016Y033330D02*
X011120Y033330D01*
X011120Y033383D02*
X011016Y033383D01*
X011016Y033436D02*
X011120Y033436D01*
X011120Y033489D02*
X011016Y033489D01*
X010819Y033523D02*
X010819Y033065D01*
X010819Y033523D02*
X010923Y033523D01*
X010923Y033065D01*
X010819Y033065D01*
X010819Y033118D02*
X010923Y033118D01*
X010923Y033171D02*
X010819Y033171D01*
X010819Y033224D02*
X010923Y033224D01*
X010923Y033277D02*
X010819Y033277D01*
X010819Y033330D02*
X010923Y033330D01*
X010923Y033383D02*
X010819Y033383D01*
X010819Y033436D02*
X010923Y033436D01*
X010923Y033489D02*
X010819Y033489D01*
X009835Y032539D02*
X009835Y032435D01*
X009835Y032539D02*
X010293Y032539D01*
X010293Y032435D01*
X009835Y032435D01*
X009835Y032488D02*
X010293Y032488D01*
X009835Y032342D02*
X009835Y032238D01*
X009835Y032342D02*
X010293Y032342D01*
X010293Y032238D01*
X009835Y032238D01*
X009835Y032291D02*
X010293Y032291D01*
X009835Y032145D02*
X009835Y032041D01*
X009835Y032145D02*
X010293Y032145D01*
X010293Y032041D01*
X009835Y032041D01*
X009835Y032094D02*
X010293Y032094D01*
X009835Y031948D02*
X009835Y031844D01*
X009835Y031948D02*
X010293Y031948D01*
X010293Y031844D01*
X009835Y031844D01*
X009835Y031897D02*
X010293Y031897D01*
X009835Y031751D02*
X009835Y031647D01*
X009835Y031751D02*
X010293Y031751D01*
X010293Y031647D01*
X009835Y031647D01*
X009835Y031700D02*
X010293Y031700D01*
X009835Y031554D02*
X009835Y031450D01*
X009835Y031554D02*
X010293Y031554D01*
X010293Y031450D01*
X009835Y031450D01*
X009835Y031503D02*
X010293Y031503D01*
X009835Y031358D02*
X009835Y031254D01*
X009835Y031358D02*
X010293Y031358D01*
X010293Y031254D01*
X009835Y031254D01*
X009835Y031307D02*
X010293Y031307D01*
X009835Y031161D02*
X009835Y031057D01*
X009835Y031161D02*
X010293Y031161D01*
X010293Y031057D01*
X009835Y031057D01*
X009835Y031110D02*
X010293Y031110D01*
X009835Y030964D02*
X009835Y030860D01*
X009835Y030964D02*
X010293Y030964D01*
X010293Y030860D01*
X009835Y030860D01*
X009835Y030913D02*
X010293Y030913D01*
X009835Y030767D02*
X009835Y030663D01*
X009835Y030767D02*
X010293Y030767D01*
X010293Y030663D01*
X009835Y030663D01*
X009835Y030716D02*
X010293Y030716D01*
X009835Y030570D02*
X009835Y030466D01*
X009835Y030570D02*
X010293Y030570D01*
X010293Y030466D01*
X009835Y030466D01*
X009835Y030519D02*
X010293Y030519D01*
X009835Y030373D02*
X009835Y030269D01*
X009835Y030373D02*
X010293Y030373D01*
X010293Y030269D01*
X009835Y030269D01*
X009835Y030322D02*
X010293Y030322D01*
X009835Y030176D02*
X009835Y030072D01*
X009835Y030176D02*
X010293Y030176D01*
X010293Y030072D01*
X009835Y030072D01*
X009835Y030125D02*
X010293Y030125D01*
X009835Y029980D02*
X009835Y029876D01*
X009835Y029980D02*
X010293Y029980D01*
X010293Y029876D01*
X009835Y029876D01*
X009835Y029929D02*
X010293Y029929D01*
X009835Y029783D02*
X009835Y029679D01*
X009835Y029783D02*
X010293Y029783D01*
X010293Y029679D01*
X009835Y029679D01*
X009835Y029732D02*
X010293Y029732D01*
X009835Y029586D02*
X009835Y029482D01*
X009835Y029586D02*
X010293Y029586D01*
X010293Y029482D01*
X009835Y029482D01*
X009835Y029535D02*
X010293Y029535D01*
X009835Y029389D02*
X009835Y029285D01*
X009835Y029389D02*
X010293Y029389D01*
X010293Y029285D01*
X009835Y029285D01*
X009835Y029338D02*
X010293Y029338D01*
X009835Y029192D02*
X009835Y029088D01*
X009835Y029192D02*
X010293Y029192D01*
X010293Y029088D01*
X009835Y029088D01*
X009835Y029141D02*
X010293Y029141D01*
X009835Y028995D02*
X009835Y028891D01*
X009835Y028995D02*
X010293Y028995D01*
X010293Y028891D01*
X009835Y028891D01*
X009835Y028944D02*
X010293Y028944D01*
X009835Y028799D02*
X009835Y028695D01*
X009835Y028799D02*
X010293Y028799D01*
X010293Y028695D01*
X009835Y028695D01*
X009835Y028748D02*
X010293Y028748D01*
X009835Y028602D02*
X009835Y028498D01*
X009835Y028602D02*
X010293Y028602D01*
X010293Y028498D01*
X009835Y028498D01*
X009835Y028551D02*
X010293Y028551D01*
X009835Y028405D02*
X009835Y028301D01*
X009835Y028405D02*
X010293Y028405D01*
X010293Y028301D01*
X009835Y028301D01*
X009835Y028354D02*
X010293Y028354D01*
X009835Y028208D02*
X009835Y028104D01*
X009835Y028208D02*
X010293Y028208D01*
X010293Y028104D01*
X009835Y028104D01*
X009835Y028157D02*
X010293Y028157D01*
X009835Y028011D02*
X009835Y027907D01*
X009835Y028011D02*
X010293Y028011D01*
X010293Y027907D01*
X009835Y027907D01*
X009835Y027960D02*
X010293Y027960D01*
X009835Y027814D02*
X009835Y027710D01*
X009835Y027814D02*
X010293Y027814D01*
X010293Y027710D01*
X009835Y027710D01*
X009835Y027763D02*
X010293Y027763D01*
X009835Y027617D02*
X009835Y027513D01*
X009835Y027617D02*
X010293Y027617D01*
X010293Y027513D01*
X009835Y027513D01*
X009835Y027566D02*
X010293Y027566D01*
X009835Y027421D02*
X009835Y027317D01*
X009835Y027421D02*
X010293Y027421D01*
X010293Y027317D01*
X009835Y027317D01*
X009835Y027370D02*
X010293Y027370D01*
X009835Y027224D02*
X009835Y027120D01*
X009835Y027224D02*
X010293Y027224D01*
X010293Y027120D01*
X009835Y027120D01*
X009835Y027173D02*
X010293Y027173D01*
X009835Y027027D02*
X009835Y026923D01*
X009835Y027027D02*
X010293Y027027D01*
X010293Y026923D01*
X009835Y026923D01*
X009835Y026976D02*
X010293Y026976D01*
X009835Y026830D02*
X009835Y026726D01*
X009835Y026830D02*
X010293Y026830D01*
X010293Y026726D01*
X009835Y026726D01*
X009835Y026779D02*
X010293Y026779D01*
X009835Y026633D02*
X009835Y026529D01*
X009835Y026633D02*
X010293Y026633D01*
X010293Y026529D01*
X009835Y026529D01*
X009835Y026582D02*
X010293Y026582D01*
X009835Y026436D02*
X009835Y026332D01*
X009835Y026436D02*
X010293Y026436D01*
X010293Y026332D01*
X009835Y026332D01*
X009835Y026385D02*
X010293Y026385D01*
X009835Y026239D02*
X009835Y026135D01*
X009835Y026239D02*
X010293Y026239D01*
X010293Y026135D01*
X009835Y026135D01*
X009835Y026188D02*
X010293Y026188D01*
X009835Y026043D02*
X009835Y025939D01*
X009835Y026043D02*
X010293Y026043D01*
X010293Y025939D01*
X009835Y025939D01*
X009835Y025992D02*
X010293Y025992D01*
X009835Y025846D02*
X009835Y025742D01*
X009835Y025846D02*
X010293Y025846D01*
X010293Y025742D01*
X009835Y025742D01*
X009835Y025795D02*
X010293Y025795D01*
X009835Y025649D02*
X009835Y025545D01*
X009835Y025649D02*
X010293Y025649D01*
X010293Y025545D01*
X009835Y025545D01*
X009835Y025598D02*
X010293Y025598D01*
X010819Y025019D02*
X010819Y024561D01*
X010819Y025019D02*
X010923Y025019D01*
X010923Y024561D01*
X010819Y024561D01*
X010819Y024614D02*
X010923Y024614D01*
X010923Y024667D02*
X010819Y024667D01*
X010819Y024720D02*
X010923Y024720D01*
X010923Y024773D02*
X010819Y024773D01*
X010819Y024826D02*
X010923Y024826D01*
X010923Y024879D02*
X010819Y024879D01*
X010819Y024932D02*
X010923Y024932D01*
X010923Y024985D02*
X010819Y024985D01*
X011016Y025019D02*
X011016Y024561D01*
X011016Y025019D02*
X011120Y025019D01*
X011120Y024561D01*
X011016Y024561D01*
X011016Y024614D02*
X011120Y024614D01*
X011120Y024667D02*
X011016Y024667D01*
X011016Y024720D02*
X011120Y024720D01*
X011120Y024773D02*
X011016Y024773D01*
X011016Y024826D02*
X011120Y024826D01*
X011120Y024879D02*
X011016Y024879D01*
X011016Y024932D02*
X011120Y024932D01*
X011120Y024985D02*
X011016Y024985D01*
X011213Y025019D02*
X011213Y024561D01*
X011213Y025019D02*
X011317Y025019D01*
X011317Y024561D01*
X011213Y024561D01*
X011213Y024614D02*
X011317Y024614D01*
X011317Y024667D02*
X011213Y024667D01*
X011213Y024720D02*
X011317Y024720D01*
X011317Y024773D02*
X011213Y024773D01*
X011213Y024826D02*
X011317Y024826D01*
X011317Y024879D02*
X011213Y024879D01*
X011213Y024932D02*
X011317Y024932D01*
X011317Y024985D02*
X011213Y024985D01*
X011410Y025019D02*
X011410Y024561D01*
X011410Y025019D02*
X011514Y025019D01*
X011514Y024561D01*
X011410Y024561D01*
X011410Y024614D02*
X011514Y024614D01*
X011514Y024667D02*
X011410Y024667D01*
X011410Y024720D02*
X011514Y024720D01*
X011514Y024773D02*
X011410Y024773D01*
X011410Y024826D02*
X011514Y024826D01*
X011514Y024879D02*
X011410Y024879D01*
X011410Y024932D02*
X011514Y024932D01*
X011514Y024985D02*
X011410Y024985D01*
X011607Y025019D02*
X011607Y024561D01*
X011607Y025019D02*
X011711Y025019D01*
X011711Y024561D01*
X011607Y024561D01*
X011607Y024614D02*
X011711Y024614D01*
X011711Y024667D02*
X011607Y024667D01*
X011607Y024720D02*
X011711Y024720D01*
X011711Y024773D02*
X011607Y024773D01*
X011607Y024826D02*
X011711Y024826D01*
X011711Y024879D02*
X011607Y024879D01*
X011607Y024932D02*
X011711Y024932D01*
X011711Y024985D02*
X011607Y024985D01*
X011804Y025019D02*
X011804Y024561D01*
X011804Y025019D02*
X011908Y025019D01*
X011908Y024561D01*
X011804Y024561D01*
X011804Y024614D02*
X011908Y024614D01*
X011908Y024667D02*
X011804Y024667D01*
X011804Y024720D02*
X011908Y024720D01*
X011908Y024773D02*
X011804Y024773D01*
X011804Y024826D02*
X011908Y024826D01*
X011908Y024879D02*
X011804Y024879D01*
X011804Y024932D02*
X011908Y024932D01*
X011908Y024985D02*
X011804Y024985D01*
X012000Y025019D02*
X012000Y024561D01*
X012000Y025019D02*
X012104Y025019D01*
X012104Y024561D01*
X012000Y024561D01*
X012000Y024614D02*
X012104Y024614D01*
X012104Y024667D02*
X012000Y024667D01*
X012000Y024720D02*
X012104Y024720D01*
X012104Y024773D02*
X012000Y024773D01*
X012000Y024826D02*
X012104Y024826D01*
X012104Y024879D02*
X012000Y024879D01*
X012000Y024932D02*
X012104Y024932D01*
X012104Y024985D02*
X012000Y024985D01*
X012197Y025019D02*
X012197Y024561D01*
X012197Y025019D02*
X012301Y025019D01*
X012301Y024561D01*
X012197Y024561D01*
X012197Y024614D02*
X012301Y024614D01*
X012301Y024667D02*
X012197Y024667D01*
X012197Y024720D02*
X012301Y024720D01*
X012301Y024773D02*
X012197Y024773D01*
X012197Y024826D02*
X012301Y024826D01*
X012301Y024879D02*
X012197Y024879D01*
X012197Y024932D02*
X012301Y024932D01*
X012301Y024985D02*
X012197Y024985D01*
X012394Y025019D02*
X012394Y024561D01*
X012394Y025019D02*
X012498Y025019D01*
X012498Y024561D01*
X012394Y024561D01*
X012394Y024614D02*
X012498Y024614D01*
X012498Y024667D02*
X012394Y024667D01*
X012394Y024720D02*
X012498Y024720D01*
X012498Y024773D02*
X012394Y024773D01*
X012394Y024826D02*
X012498Y024826D01*
X012498Y024879D02*
X012394Y024879D01*
X012394Y024932D02*
X012498Y024932D01*
X012498Y024985D02*
X012394Y024985D01*
X012591Y025019D02*
X012591Y024561D01*
X012591Y025019D02*
X012695Y025019D01*
X012695Y024561D01*
X012591Y024561D01*
X012591Y024614D02*
X012695Y024614D01*
X012695Y024667D02*
X012591Y024667D01*
X012591Y024720D02*
X012695Y024720D01*
X012695Y024773D02*
X012591Y024773D01*
X012591Y024826D02*
X012695Y024826D01*
X012695Y024879D02*
X012591Y024879D01*
X012591Y024932D02*
X012695Y024932D01*
X012695Y024985D02*
X012591Y024985D01*
X012788Y025019D02*
X012788Y024561D01*
X012788Y025019D02*
X012892Y025019D01*
X012892Y024561D01*
X012788Y024561D01*
X012788Y024614D02*
X012892Y024614D01*
X012892Y024667D02*
X012788Y024667D01*
X012788Y024720D02*
X012892Y024720D01*
X012892Y024773D02*
X012788Y024773D01*
X012788Y024826D02*
X012892Y024826D01*
X012892Y024879D02*
X012788Y024879D01*
X012788Y024932D02*
X012892Y024932D01*
X012892Y024985D02*
X012788Y024985D01*
X012985Y025019D02*
X012985Y024561D01*
X012985Y025019D02*
X013089Y025019D01*
X013089Y024561D01*
X012985Y024561D01*
X012985Y024614D02*
X013089Y024614D01*
X013089Y024667D02*
X012985Y024667D01*
X012985Y024720D02*
X013089Y024720D01*
X013089Y024773D02*
X012985Y024773D01*
X012985Y024826D02*
X013089Y024826D01*
X013089Y024879D02*
X012985Y024879D01*
X012985Y024932D02*
X013089Y024932D01*
X013089Y024985D02*
X012985Y024985D01*
X013182Y025019D02*
X013182Y024561D01*
X013182Y025019D02*
X013286Y025019D01*
X013286Y024561D01*
X013182Y024561D01*
X013182Y024614D02*
X013286Y024614D01*
X013286Y024667D02*
X013182Y024667D01*
X013182Y024720D02*
X013286Y024720D01*
X013286Y024773D02*
X013182Y024773D01*
X013182Y024826D02*
X013286Y024826D01*
X013286Y024879D02*
X013182Y024879D01*
X013182Y024932D02*
X013286Y024932D01*
X013286Y024985D02*
X013182Y024985D01*
X013378Y025019D02*
X013378Y024561D01*
X013378Y025019D02*
X013482Y025019D01*
X013482Y024561D01*
X013378Y024561D01*
X013378Y024614D02*
X013482Y024614D01*
X013482Y024667D02*
X013378Y024667D01*
X013378Y024720D02*
X013482Y024720D01*
X013482Y024773D02*
X013378Y024773D01*
X013378Y024826D02*
X013482Y024826D01*
X013482Y024879D02*
X013378Y024879D01*
X013378Y024932D02*
X013482Y024932D01*
X013482Y024985D02*
X013378Y024985D01*
X013575Y025019D02*
X013575Y024561D01*
X013575Y025019D02*
X013679Y025019D01*
X013679Y024561D01*
X013575Y024561D01*
X013575Y024614D02*
X013679Y024614D01*
X013679Y024667D02*
X013575Y024667D01*
X013575Y024720D02*
X013679Y024720D01*
X013679Y024773D02*
X013575Y024773D01*
X013575Y024826D02*
X013679Y024826D01*
X013679Y024879D02*
X013575Y024879D01*
X013575Y024932D02*
X013679Y024932D01*
X013679Y024985D02*
X013575Y024985D01*
X013772Y025019D02*
X013772Y024561D01*
X013772Y025019D02*
X013876Y025019D01*
X013876Y024561D01*
X013772Y024561D01*
X013772Y024614D02*
X013876Y024614D01*
X013876Y024667D02*
X013772Y024667D01*
X013772Y024720D02*
X013876Y024720D01*
X013876Y024773D02*
X013772Y024773D01*
X013772Y024826D02*
X013876Y024826D01*
X013876Y024879D02*
X013772Y024879D01*
X013772Y024932D02*
X013876Y024932D01*
X013876Y024985D02*
X013772Y024985D01*
X013969Y025019D02*
X013969Y024561D01*
X013969Y025019D02*
X014073Y025019D01*
X014073Y024561D01*
X013969Y024561D01*
X013969Y024614D02*
X014073Y024614D01*
X014073Y024667D02*
X013969Y024667D01*
X013969Y024720D02*
X014073Y024720D01*
X014073Y024773D02*
X013969Y024773D01*
X013969Y024826D02*
X014073Y024826D01*
X014073Y024879D02*
X013969Y024879D01*
X013969Y024932D02*
X014073Y024932D01*
X014073Y024985D02*
X013969Y024985D01*
X014166Y025019D02*
X014166Y024561D01*
X014166Y025019D02*
X014270Y025019D01*
X014270Y024561D01*
X014166Y024561D01*
X014166Y024614D02*
X014270Y024614D01*
X014270Y024667D02*
X014166Y024667D01*
X014166Y024720D02*
X014270Y024720D01*
X014270Y024773D02*
X014166Y024773D01*
X014166Y024826D02*
X014270Y024826D01*
X014270Y024879D02*
X014166Y024879D01*
X014166Y024932D02*
X014270Y024932D01*
X014270Y024985D02*
X014166Y024985D01*
X014363Y025019D02*
X014363Y024561D01*
X014363Y025019D02*
X014467Y025019D01*
X014467Y024561D01*
X014363Y024561D01*
X014363Y024614D02*
X014467Y024614D01*
X014467Y024667D02*
X014363Y024667D01*
X014363Y024720D02*
X014467Y024720D01*
X014467Y024773D02*
X014363Y024773D01*
X014363Y024826D02*
X014467Y024826D01*
X014467Y024879D02*
X014363Y024879D01*
X014363Y024932D02*
X014467Y024932D01*
X014467Y024985D02*
X014363Y024985D01*
X014559Y025019D02*
X014559Y024561D01*
X014559Y025019D02*
X014663Y025019D01*
X014663Y024561D01*
X014559Y024561D01*
X014559Y024614D02*
X014663Y024614D01*
X014663Y024667D02*
X014559Y024667D01*
X014559Y024720D02*
X014663Y024720D01*
X014663Y024773D02*
X014559Y024773D01*
X014559Y024826D02*
X014663Y024826D01*
X014663Y024879D02*
X014559Y024879D01*
X014559Y024932D02*
X014663Y024932D01*
X014663Y024985D02*
X014559Y024985D01*
X014756Y025019D02*
X014756Y024561D01*
X014756Y025019D02*
X014860Y025019D01*
X014860Y024561D01*
X014756Y024561D01*
X014756Y024614D02*
X014860Y024614D01*
X014860Y024667D02*
X014756Y024667D01*
X014756Y024720D02*
X014860Y024720D01*
X014860Y024773D02*
X014756Y024773D01*
X014756Y024826D02*
X014860Y024826D01*
X014860Y024879D02*
X014756Y024879D01*
X014756Y024932D02*
X014860Y024932D01*
X014860Y024985D02*
X014756Y024985D01*
X014953Y025019D02*
X014953Y024561D01*
X014953Y025019D02*
X015057Y025019D01*
X015057Y024561D01*
X014953Y024561D01*
X014953Y024614D02*
X015057Y024614D01*
X015057Y024667D02*
X014953Y024667D01*
X014953Y024720D02*
X015057Y024720D01*
X015057Y024773D02*
X014953Y024773D01*
X014953Y024826D02*
X015057Y024826D01*
X015057Y024879D02*
X014953Y024879D01*
X014953Y024932D02*
X015057Y024932D01*
X015057Y024985D02*
X014953Y024985D01*
X015150Y025019D02*
X015150Y024561D01*
X015150Y025019D02*
X015254Y025019D01*
X015254Y024561D01*
X015150Y024561D01*
X015150Y024614D02*
X015254Y024614D01*
X015254Y024667D02*
X015150Y024667D01*
X015150Y024720D02*
X015254Y024720D01*
X015254Y024773D02*
X015150Y024773D01*
X015150Y024826D02*
X015254Y024826D01*
X015254Y024879D02*
X015150Y024879D01*
X015150Y024932D02*
X015254Y024932D01*
X015254Y024985D02*
X015150Y024985D01*
X015347Y025019D02*
X015347Y024561D01*
X015347Y025019D02*
X015451Y025019D01*
X015451Y024561D01*
X015347Y024561D01*
X015347Y024614D02*
X015451Y024614D01*
X015451Y024667D02*
X015347Y024667D01*
X015347Y024720D02*
X015451Y024720D01*
X015451Y024773D02*
X015347Y024773D01*
X015347Y024826D02*
X015451Y024826D01*
X015451Y024879D02*
X015347Y024879D01*
X015347Y024932D02*
X015451Y024932D01*
X015451Y024985D02*
X015347Y024985D01*
X015544Y025019D02*
X015544Y024561D01*
X015544Y025019D02*
X015648Y025019D01*
X015648Y024561D01*
X015544Y024561D01*
X015544Y024614D02*
X015648Y024614D01*
X015648Y024667D02*
X015544Y024667D01*
X015544Y024720D02*
X015648Y024720D01*
X015648Y024773D02*
X015544Y024773D01*
X015544Y024826D02*
X015648Y024826D01*
X015648Y024879D02*
X015544Y024879D01*
X015544Y024932D02*
X015648Y024932D01*
X015648Y024985D02*
X015544Y024985D01*
X015741Y025019D02*
X015741Y024561D01*
X015741Y025019D02*
X015845Y025019D01*
X015845Y024561D01*
X015741Y024561D01*
X015741Y024614D02*
X015845Y024614D01*
X015845Y024667D02*
X015741Y024667D01*
X015741Y024720D02*
X015845Y024720D01*
X015845Y024773D02*
X015741Y024773D01*
X015741Y024826D02*
X015845Y024826D01*
X015845Y024879D02*
X015741Y024879D01*
X015741Y024932D02*
X015845Y024932D01*
X015845Y024985D02*
X015741Y024985D01*
X015937Y025019D02*
X015937Y024561D01*
X015937Y025019D02*
X016041Y025019D01*
X016041Y024561D01*
X015937Y024561D01*
X015937Y024614D02*
X016041Y024614D01*
X016041Y024667D02*
X015937Y024667D01*
X015937Y024720D02*
X016041Y024720D01*
X016041Y024773D02*
X015937Y024773D01*
X015937Y024826D02*
X016041Y024826D01*
X016041Y024879D02*
X015937Y024879D01*
X015937Y024932D02*
X016041Y024932D01*
X016041Y024985D02*
X015937Y024985D01*
X016134Y025019D02*
X016134Y024561D01*
X016134Y025019D02*
X016238Y025019D01*
X016238Y024561D01*
X016134Y024561D01*
X016134Y024614D02*
X016238Y024614D01*
X016238Y024667D02*
X016134Y024667D01*
X016134Y024720D02*
X016238Y024720D01*
X016238Y024773D02*
X016134Y024773D01*
X016134Y024826D02*
X016238Y024826D01*
X016238Y024879D02*
X016134Y024879D01*
X016134Y024932D02*
X016238Y024932D01*
X016238Y024985D02*
X016134Y024985D01*
X016331Y025019D02*
X016331Y024561D01*
X016331Y025019D02*
X016435Y025019D01*
X016435Y024561D01*
X016331Y024561D01*
X016331Y024614D02*
X016435Y024614D01*
X016435Y024667D02*
X016331Y024667D01*
X016331Y024720D02*
X016435Y024720D01*
X016435Y024773D02*
X016331Y024773D01*
X016331Y024826D02*
X016435Y024826D01*
X016435Y024879D02*
X016331Y024879D01*
X016331Y024932D02*
X016435Y024932D01*
X016435Y024985D02*
X016331Y024985D01*
X016528Y025019D02*
X016528Y024561D01*
X016528Y025019D02*
X016632Y025019D01*
X016632Y024561D01*
X016528Y024561D01*
X016528Y024614D02*
X016632Y024614D01*
X016632Y024667D02*
X016528Y024667D01*
X016528Y024720D02*
X016632Y024720D01*
X016632Y024773D02*
X016528Y024773D01*
X016528Y024826D02*
X016632Y024826D01*
X016632Y024879D02*
X016528Y024879D01*
X016528Y024932D02*
X016632Y024932D01*
X016632Y024985D02*
X016528Y024985D01*
X016725Y025019D02*
X016725Y024561D01*
X016725Y025019D02*
X016829Y025019D01*
X016829Y024561D01*
X016725Y024561D01*
X016725Y024614D02*
X016829Y024614D01*
X016829Y024667D02*
X016725Y024667D01*
X016725Y024720D02*
X016829Y024720D01*
X016829Y024773D02*
X016725Y024773D01*
X016725Y024826D02*
X016829Y024826D01*
X016829Y024879D02*
X016725Y024879D01*
X016725Y024932D02*
X016829Y024932D01*
X016829Y024985D02*
X016725Y024985D01*
X016922Y025019D02*
X016922Y024561D01*
X016922Y025019D02*
X017026Y025019D01*
X017026Y024561D01*
X016922Y024561D01*
X016922Y024614D02*
X017026Y024614D01*
X017026Y024667D02*
X016922Y024667D01*
X016922Y024720D02*
X017026Y024720D01*
X017026Y024773D02*
X016922Y024773D01*
X016922Y024826D02*
X017026Y024826D01*
X017026Y024879D02*
X016922Y024879D01*
X016922Y024932D02*
X017026Y024932D01*
X017026Y024985D02*
X016922Y024985D01*
X017119Y025019D02*
X017119Y024561D01*
X017119Y025019D02*
X017223Y025019D01*
X017223Y024561D01*
X017119Y024561D01*
X017119Y024614D02*
X017223Y024614D01*
X017223Y024667D02*
X017119Y024667D01*
X017119Y024720D02*
X017223Y024720D01*
X017223Y024773D02*
X017119Y024773D01*
X017119Y024826D02*
X017223Y024826D01*
X017223Y024879D02*
X017119Y024879D01*
X017119Y024932D02*
X017223Y024932D01*
X017223Y024985D02*
X017119Y024985D01*
X017315Y025019D02*
X017315Y024561D01*
X017315Y025019D02*
X017419Y025019D01*
X017419Y024561D01*
X017315Y024561D01*
X017315Y024614D02*
X017419Y024614D01*
X017419Y024667D02*
X017315Y024667D01*
X017315Y024720D02*
X017419Y024720D01*
X017419Y024773D02*
X017315Y024773D01*
X017315Y024826D02*
X017419Y024826D01*
X017419Y024879D02*
X017315Y024879D01*
X017315Y024932D02*
X017419Y024932D01*
X017419Y024985D02*
X017315Y024985D01*
X017512Y025019D02*
X017512Y024561D01*
X017512Y025019D02*
X017616Y025019D01*
X017616Y024561D01*
X017512Y024561D01*
X017512Y024614D02*
X017616Y024614D01*
X017616Y024667D02*
X017512Y024667D01*
X017512Y024720D02*
X017616Y024720D01*
X017616Y024773D02*
X017512Y024773D01*
X017512Y024826D02*
X017616Y024826D01*
X017616Y024879D02*
X017512Y024879D01*
X017512Y024932D02*
X017616Y024932D01*
X017616Y024985D02*
X017512Y024985D01*
X017709Y025019D02*
X017709Y024561D01*
X017709Y025019D02*
X017813Y025019D01*
X017813Y024561D01*
X017709Y024561D01*
X017709Y024614D02*
X017813Y024614D01*
X017813Y024667D02*
X017709Y024667D01*
X017709Y024720D02*
X017813Y024720D01*
X017813Y024773D02*
X017709Y024773D01*
X017709Y024826D02*
X017813Y024826D01*
X017813Y024879D02*
X017709Y024879D01*
X017709Y024932D02*
X017813Y024932D01*
X017813Y024985D02*
X017709Y024985D01*
X018339Y025545D02*
X018339Y025649D01*
X018797Y025649D01*
X018797Y025545D01*
X018339Y025545D01*
X018339Y025598D02*
X018797Y025598D01*
X018339Y025742D02*
X018339Y025846D01*
X018797Y025846D01*
X018797Y025742D01*
X018339Y025742D01*
X018339Y025795D02*
X018797Y025795D01*
X018339Y025939D02*
X018339Y026043D01*
X018797Y026043D01*
X018797Y025939D01*
X018339Y025939D01*
X018339Y025992D02*
X018797Y025992D01*
X018339Y026135D02*
X018339Y026239D01*
X018797Y026239D01*
X018797Y026135D01*
X018339Y026135D01*
X018339Y026188D02*
X018797Y026188D01*
X018339Y026332D02*
X018339Y026436D01*
X018797Y026436D01*
X018797Y026332D01*
X018339Y026332D01*
X018339Y026385D02*
X018797Y026385D01*
X018339Y026529D02*
X018339Y026633D01*
X018797Y026633D01*
X018797Y026529D01*
X018339Y026529D01*
X018339Y026582D02*
X018797Y026582D01*
X018339Y026726D02*
X018339Y026830D01*
X018797Y026830D01*
X018797Y026726D01*
X018339Y026726D01*
X018339Y026779D02*
X018797Y026779D01*
X018339Y026923D02*
X018339Y027027D01*
X018797Y027027D01*
X018797Y026923D01*
X018339Y026923D01*
X018339Y026976D02*
X018797Y026976D01*
X018339Y027120D02*
X018339Y027224D01*
X018797Y027224D01*
X018797Y027120D01*
X018339Y027120D01*
X018339Y027173D02*
X018797Y027173D01*
X018339Y027317D02*
X018339Y027421D01*
X018797Y027421D01*
X018797Y027317D01*
X018339Y027317D01*
X018339Y027370D02*
X018797Y027370D01*
X018339Y027513D02*
X018339Y027617D01*
X018797Y027617D01*
X018797Y027513D01*
X018339Y027513D01*
X018339Y027566D02*
X018797Y027566D01*
X018339Y027710D02*
X018339Y027814D01*
X018797Y027814D01*
X018797Y027710D01*
X018339Y027710D01*
X018339Y027763D02*
X018797Y027763D01*
X018339Y027907D02*
X018339Y028011D01*
X018797Y028011D01*
X018797Y027907D01*
X018339Y027907D01*
X018339Y027960D02*
X018797Y027960D01*
X018339Y028104D02*
X018339Y028208D01*
X018797Y028208D01*
X018797Y028104D01*
X018339Y028104D01*
X018339Y028157D02*
X018797Y028157D01*
X018339Y028301D02*
X018339Y028405D01*
X018797Y028405D01*
X018797Y028301D01*
X018339Y028301D01*
X018339Y028354D02*
X018797Y028354D01*
X018339Y028498D02*
X018339Y028602D01*
X018797Y028602D01*
X018797Y028498D01*
X018339Y028498D01*
X018339Y028551D02*
X018797Y028551D01*
X018339Y028695D02*
X018339Y028799D01*
X018797Y028799D01*
X018797Y028695D01*
X018339Y028695D01*
X018339Y028748D02*
X018797Y028748D01*
X018339Y028891D02*
X018339Y028995D01*
X018797Y028995D01*
X018797Y028891D01*
X018339Y028891D01*
X018339Y028944D02*
X018797Y028944D01*
X018339Y029088D02*
X018339Y029192D01*
X018797Y029192D01*
X018797Y029088D01*
X018339Y029088D01*
X018339Y029141D02*
X018797Y029141D01*
X018339Y029285D02*
X018339Y029389D01*
X018797Y029389D01*
X018797Y029285D01*
X018339Y029285D01*
X018339Y029338D02*
X018797Y029338D01*
X018339Y029482D02*
X018339Y029586D01*
X018797Y029586D01*
X018797Y029482D01*
X018339Y029482D01*
X018339Y029535D02*
X018797Y029535D01*
X018339Y029679D02*
X018339Y029783D01*
X018797Y029783D01*
X018797Y029679D01*
X018339Y029679D01*
X018339Y029732D02*
X018797Y029732D01*
X018339Y029876D02*
X018339Y029980D01*
X018797Y029980D01*
X018797Y029876D01*
X018339Y029876D01*
X018339Y029929D02*
X018797Y029929D01*
X018339Y030072D02*
X018339Y030176D01*
X018797Y030176D01*
X018797Y030072D01*
X018339Y030072D01*
X018339Y030125D02*
X018797Y030125D01*
X018339Y030269D02*
X018339Y030373D01*
X018797Y030373D01*
X018797Y030269D01*
X018339Y030269D01*
X018339Y030322D02*
X018797Y030322D01*
X018339Y030466D02*
X018339Y030570D01*
X018797Y030570D01*
X018797Y030466D01*
X018339Y030466D01*
X018339Y030519D02*
X018797Y030519D01*
X018339Y030663D02*
X018339Y030767D01*
X018797Y030767D01*
X018797Y030663D01*
X018339Y030663D01*
X018339Y030716D02*
X018797Y030716D01*
X018339Y030860D02*
X018339Y030964D01*
X018797Y030964D01*
X018797Y030860D01*
X018339Y030860D01*
X018339Y030913D02*
X018797Y030913D01*
X018339Y031057D02*
X018339Y031161D01*
X018797Y031161D01*
X018797Y031057D01*
X018339Y031057D01*
X018339Y031110D02*
X018797Y031110D01*
X018339Y031254D02*
X018339Y031358D01*
X018797Y031358D01*
X018797Y031254D01*
X018339Y031254D01*
X018339Y031307D02*
X018797Y031307D01*
X018339Y031450D02*
X018339Y031554D01*
X018797Y031554D01*
X018797Y031450D01*
X018339Y031450D01*
X018339Y031503D02*
X018797Y031503D01*
X018339Y031647D02*
X018339Y031751D01*
X018797Y031751D01*
X018797Y031647D01*
X018339Y031647D01*
X018339Y031700D02*
X018797Y031700D01*
X018339Y031844D02*
X018339Y031948D01*
X018797Y031948D01*
X018797Y031844D01*
X018339Y031844D01*
X018339Y031897D02*
X018797Y031897D01*
X018339Y032041D02*
X018339Y032145D01*
X018797Y032145D01*
X018797Y032041D01*
X018339Y032041D01*
X018339Y032094D02*
X018797Y032094D01*
X018339Y032238D02*
X018339Y032342D01*
X018797Y032342D01*
X018797Y032238D01*
X018339Y032238D01*
X018339Y032291D02*
X018797Y032291D01*
X018339Y032435D02*
X018339Y032539D01*
X018797Y032539D01*
X018797Y032435D01*
X018339Y032435D01*
X018339Y032488D02*
X018797Y032488D01*
X017709Y033065D02*
X017709Y033523D01*
X017813Y033523D01*
X017813Y033065D01*
X017709Y033065D01*
X017709Y033118D02*
X017813Y033118D01*
X017813Y033171D02*
X017709Y033171D01*
X017709Y033224D02*
X017813Y033224D01*
X017813Y033277D02*
X017709Y033277D01*
X017709Y033330D02*
X017813Y033330D01*
X017813Y033383D02*
X017709Y033383D01*
X017709Y033436D02*
X017813Y033436D01*
X017813Y033489D02*
X017709Y033489D01*
X017512Y033523D02*
X017512Y033065D01*
X017512Y033523D02*
X017616Y033523D01*
X017616Y033065D01*
X017512Y033065D01*
X017512Y033118D02*
X017616Y033118D01*
X017616Y033171D02*
X017512Y033171D01*
X017512Y033224D02*
X017616Y033224D01*
X017616Y033277D02*
X017512Y033277D01*
X017512Y033330D02*
X017616Y033330D01*
X017616Y033383D02*
X017512Y033383D01*
X017512Y033436D02*
X017616Y033436D01*
X017616Y033489D02*
X017512Y033489D01*
X017315Y033523D02*
X017315Y033065D01*
X017315Y033523D02*
X017419Y033523D01*
X017419Y033065D01*
X017315Y033065D01*
X017315Y033118D02*
X017419Y033118D01*
X017419Y033171D02*
X017315Y033171D01*
X017315Y033224D02*
X017419Y033224D01*
X017419Y033277D02*
X017315Y033277D01*
X017315Y033330D02*
X017419Y033330D01*
X017419Y033383D02*
X017315Y033383D01*
X017315Y033436D02*
X017419Y033436D01*
X017419Y033489D02*
X017315Y033489D01*
X017119Y033523D02*
X017119Y033065D01*
X017119Y033523D02*
X017223Y033523D01*
X017223Y033065D01*
X017119Y033065D01*
X017119Y033118D02*
X017223Y033118D01*
X017223Y033171D02*
X017119Y033171D01*
X017119Y033224D02*
X017223Y033224D01*
X017223Y033277D02*
X017119Y033277D01*
X017119Y033330D02*
X017223Y033330D01*
X017223Y033383D02*
X017119Y033383D01*
X017119Y033436D02*
X017223Y033436D01*
X017223Y033489D02*
X017119Y033489D01*
X016922Y033523D02*
X016922Y033065D01*
X016922Y033523D02*
X017026Y033523D01*
X017026Y033065D01*
X016922Y033065D01*
X016922Y033118D02*
X017026Y033118D01*
X017026Y033171D02*
X016922Y033171D01*
X016922Y033224D02*
X017026Y033224D01*
X017026Y033277D02*
X016922Y033277D01*
X016922Y033330D02*
X017026Y033330D01*
X017026Y033383D02*
X016922Y033383D01*
X016922Y033436D02*
X017026Y033436D01*
X017026Y033489D02*
X016922Y033489D01*
X016725Y033523D02*
X016725Y033065D01*
X016725Y033523D02*
X016829Y033523D01*
X016829Y033065D01*
X016725Y033065D01*
X016725Y033118D02*
X016829Y033118D01*
X016829Y033171D02*
X016725Y033171D01*
X016725Y033224D02*
X016829Y033224D01*
X016829Y033277D02*
X016725Y033277D01*
X016725Y033330D02*
X016829Y033330D01*
X016829Y033383D02*
X016725Y033383D01*
X016725Y033436D02*
X016829Y033436D01*
X016829Y033489D02*
X016725Y033489D01*
X016528Y033523D02*
X016528Y033065D01*
X016528Y033523D02*
X016632Y033523D01*
X016632Y033065D01*
X016528Y033065D01*
X016528Y033118D02*
X016632Y033118D01*
X016632Y033171D02*
X016528Y033171D01*
X016528Y033224D02*
X016632Y033224D01*
X016632Y033277D02*
X016528Y033277D01*
X016528Y033330D02*
X016632Y033330D01*
X016632Y033383D02*
X016528Y033383D01*
X016528Y033436D02*
X016632Y033436D01*
X016632Y033489D02*
X016528Y033489D01*
X016331Y033523D02*
X016331Y033065D01*
X016331Y033523D02*
X016435Y033523D01*
X016435Y033065D01*
X016331Y033065D01*
X016331Y033118D02*
X016435Y033118D01*
X016435Y033171D02*
X016331Y033171D01*
X016331Y033224D02*
X016435Y033224D01*
X016435Y033277D02*
X016331Y033277D01*
X016331Y033330D02*
X016435Y033330D01*
X016435Y033383D02*
X016331Y033383D01*
X016331Y033436D02*
X016435Y033436D01*
X016435Y033489D02*
X016331Y033489D01*
X016134Y033523D02*
X016134Y033065D01*
X016134Y033523D02*
X016238Y033523D01*
X016238Y033065D01*
X016134Y033065D01*
X016134Y033118D02*
X016238Y033118D01*
X016238Y033171D02*
X016134Y033171D01*
X016134Y033224D02*
X016238Y033224D01*
X016238Y033277D02*
X016134Y033277D01*
X016134Y033330D02*
X016238Y033330D01*
X016238Y033383D02*
X016134Y033383D01*
X016134Y033436D02*
X016238Y033436D01*
X016238Y033489D02*
X016134Y033489D01*
X015937Y033523D02*
X015937Y033065D01*
X015937Y033523D02*
X016041Y033523D01*
X016041Y033065D01*
X015937Y033065D01*
X015937Y033118D02*
X016041Y033118D01*
X016041Y033171D02*
X015937Y033171D01*
X015937Y033224D02*
X016041Y033224D01*
X016041Y033277D02*
X015937Y033277D01*
X015937Y033330D02*
X016041Y033330D01*
X016041Y033383D02*
X015937Y033383D01*
X015937Y033436D02*
X016041Y033436D01*
X016041Y033489D02*
X015937Y033489D01*
X015741Y033523D02*
X015741Y033065D01*
X015741Y033523D02*
X015845Y033523D01*
X015845Y033065D01*
X015741Y033065D01*
X015741Y033118D02*
X015845Y033118D01*
X015845Y033171D02*
X015741Y033171D01*
X015741Y033224D02*
X015845Y033224D01*
X015845Y033277D02*
X015741Y033277D01*
X015741Y033330D02*
X015845Y033330D01*
X015845Y033383D02*
X015741Y033383D01*
X015741Y033436D02*
X015845Y033436D01*
X015845Y033489D02*
X015741Y033489D01*
X015544Y033523D02*
X015544Y033065D01*
X015544Y033523D02*
X015648Y033523D01*
X015648Y033065D01*
X015544Y033065D01*
X015544Y033118D02*
X015648Y033118D01*
X015648Y033171D02*
X015544Y033171D01*
X015544Y033224D02*
X015648Y033224D01*
X015648Y033277D02*
X015544Y033277D01*
X015544Y033330D02*
X015648Y033330D01*
X015648Y033383D02*
X015544Y033383D01*
X015544Y033436D02*
X015648Y033436D01*
X015648Y033489D02*
X015544Y033489D01*
X015347Y033523D02*
X015347Y033065D01*
X015347Y033523D02*
X015451Y033523D01*
X015451Y033065D01*
X015347Y033065D01*
X015347Y033118D02*
X015451Y033118D01*
X015451Y033171D02*
X015347Y033171D01*
X015347Y033224D02*
X015451Y033224D01*
X015451Y033277D02*
X015347Y033277D01*
X015347Y033330D02*
X015451Y033330D01*
X015451Y033383D02*
X015347Y033383D01*
X015347Y033436D02*
X015451Y033436D01*
X015451Y033489D02*
X015347Y033489D01*
X015150Y033523D02*
X015150Y033065D01*
X015150Y033523D02*
X015254Y033523D01*
X015254Y033065D01*
X015150Y033065D01*
X015150Y033118D02*
X015254Y033118D01*
X015254Y033171D02*
X015150Y033171D01*
X015150Y033224D02*
X015254Y033224D01*
X015254Y033277D02*
X015150Y033277D01*
X015150Y033330D02*
X015254Y033330D01*
X015254Y033383D02*
X015150Y033383D01*
X015150Y033436D02*
X015254Y033436D01*
X015254Y033489D02*
X015150Y033489D01*
X014953Y033523D02*
X014953Y033065D01*
X014953Y033523D02*
X015057Y033523D01*
X015057Y033065D01*
X014953Y033065D01*
X014953Y033118D02*
X015057Y033118D01*
X015057Y033171D02*
X014953Y033171D01*
X014953Y033224D02*
X015057Y033224D01*
X015057Y033277D02*
X014953Y033277D01*
X014953Y033330D02*
X015057Y033330D01*
X015057Y033383D02*
X014953Y033383D01*
X014953Y033436D02*
X015057Y033436D01*
X015057Y033489D02*
X014953Y033489D01*
X014756Y033523D02*
X014756Y033065D01*
X014756Y033523D02*
X014860Y033523D01*
X014860Y033065D01*
X014756Y033065D01*
X014756Y033118D02*
X014860Y033118D01*
X014860Y033171D02*
X014756Y033171D01*
X014756Y033224D02*
X014860Y033224D01*
X014860Y033277D02*
X014756Y033277D01*
X014756Y033330D02*
X014860Y033330D01*
X014860Y033383D02*
X014756Y033383D01*
X014756Y033436D02*
X014860Y033436D01*
X014860Y033489D02*
X014756Y033489D01*
X014559Y033523D02*
X014559Y033065D01*
X014559Y033523D02*
X014663Y033523D01*
X014663Y033065D01*
X014559Y033065D01*
X014559Y033118D02*
X014663Y033118D01*
X014663Y033171D02*
X014559Y033171D01*
X014559Y033224D02*
X014663Y033224D01*
X014663Y033277D02*
X014559Y033277D01*
X014559Y033330D02*
X014663Y033330D01*
X014663Y033383D02*
X014559Y033383D01*
X014559Y033436D02*
X014663Y033436D01*
X014663Y033489D02*
X014559Y033489D01*
X014363Y033523D02*
X014363Y033065D01*
X014363Y033523D02*
X014467Y033523D01*
X014467Y033065D01*
X014363Y033065D01*
X014363Y033118D02*
X014467Y033118D01*
X014467Y033171D02*
X014363Y033171D01*
X014363Y033224D02*
X014467Y033224D01*
X014467Y033277D02*
X014363Y033277D01*
X014363Y033330D02*
X014467Y033330D01*
X014467Y033383D02*
X014363Y033383D01*
X014363Y033436D02*
X014467Y033436D01*
X014467Y033489D02*
X014363Y033489D01*
X014166Y033523D02*
X014166Y033065D01*
X014166Y033523D02*
X014270Y033523D01*
X014270Y033065D01*
X014166Y033065D01*
X014166Y033118D02*
X014270Y033118D01*
X014270Y033171D02*
X014166Y033171D01*
X014166Y033224D02*
X014270Y033224D01*
X014270Y033277D02*
X014166Y033277D01*
X014166Y033330D02*
X014270Y033330D01*
X014270Y033383D02*
X014166Y033383D01*
X014166Y033436D02*
X014270Y033436D01*
X014270Y033489D02*
X014166Y033489D01*
X013969Y033523D02*
X013969Y033065D01*
X013969Y033523D02*
X014073Y033523D01*
X014073Y033065D01*
X013969Y033065D01*
X013969Y033118D02*
X014073Y033118D01*
X014073Y033171D02*
X013969Y033171D01*
X013969Y033224D02*
X014073Y033224D01*
X014073Y033277D02*
X013969Y033277D01*
X013969Y033330D02*
X014073Y033330D01*
X014073Y033383D02*
X013969Y033383D01*
X013969Y033436D02*
X014073Y033436D01*
X014073Y033489D02*
X013969Y033489D01*
X013772Y033523D02*
X013772Y033065D01*
X013772Y033523D02*
X013876Y033523D01*
X013876Y033065D01*
X013772Y033065D01*
X013772Y033118D02*
X013876Y033118D01*
X013876Y033171D02*
X013772Y033171D01*
X013772Y033224D02*
X013876Y033224D01*
X013876Y033277D02*
X013772Y033277D01*
X013772Y033330D02*
X013876Y033330D01*
X013876Y033383D02*
X013772Y033383D01*
X013772Y033436D02*
X013876Y033436D01*
X013876Y033489D02*
X013772Y033489D01*
X013575Y033523D02*
X013575Y033065D01*
X013575Y033523D02*
X013679Y033523D01*
X013679Y033065D01*
X013575Y033065D01*
X013575Y033118D02*
X013679Y033118D01*
X013679Y033171D02*
X013575Y033171D01*
X013575Y033224D02*
X013679Y033224D01*
X013679Y033277D02*
X013575Y033277D01*
X013575Y033330D02*
X013679Y033330D01*
X013679Y033383D02*
X013575Y033383D01*
X013575Y033436D02*
X013679Y033436D01*
X013679Y033489D02*
X013575Y033489D01*
X013378Y033523D02*
X013378Y033065D01*
X013378Y033523D02*
X013482Y033523D01*
X013482Y033065D01*
X013378Y033065D01*
X013378Y033118D02*
X013482Y033118D01*
X013482Y033171D02*
X013378Y033171D01*
X013378Y033224D02*
X013482Y033224D01*
X013482Y033277D02*
X013378Y033277D01*
X013378Y033330D02*
X013482Y033330D01*
X013482Y033383D02*
X013378Y033383D01*
X013378Y033436D02*
X013482Y033436D01*
X013482Y033489D02*
X013378Y033489D01*
X013182Y033523D02*
X013182Y033065D01*
X013182Y033523D02*
X013286Y033523D01*
X013286Y033065D01*
X013182Y033065D01*
X013182Y033118D02*
X013286Y033118D01*
X013286Y033171D02*
X013182Y033171D01*
X013182Y033224D02*
X013286Y033224D01*
X013286Y033277D02*
X013182Y033277D01*
X013182Y033330D02*
X013286Y033330D01*
X013286Y033383D02*
X013182Y033383D01*
X013182Y033436D02*
X013286Y033436D01*
X013286Y033489D02*
X013182Y033489D01*
X012985Y033523D02*
X012985Y033065D01*
X012985Y033523D02*
X013089Y033523D01*
X013089Y033065D01*
X012985Y033065D01*
X012985Y033118D02*
X013089Y033118D01*
X013089Y033171D02*
X012985Y033171D01*
X012985Y033224D02*
X013089Y033224D01*
X013089Y033277D02*
X012985Y033277D01*
X012985Y033330D02*
X013089Y033330D01*
X013089Y033383D02*
X012985Y033383D01*
X012985Y033436D02*
X013089Y033436D01*
X013089Y033489D02*
X012985Y033489D01*
X012788Y033523D02*
X012788Y033065D01*
X012788Y033523D02*
X012892Y033523D01*
X012892Y033065D01*
X012788Y033065D01*
X012788Y033118D02*
X012892Y033118D01*
X012892Y033171D02*
X012788Y033171D01*
X012788Y033224D02*
X012892Y033224D01*
X012892Y033277D02*
X012788Y033277D01*
X012788Y033330D02*
X012892Y033330D01*
X012892Y033383D02*
X012788Y033383D01*
X012788Y033436D02*
X012892Y033436D01*
X012892Y033489D02*
X012788Y033489D01*
D13*
X013677Y008260D02*
X013677Y007374D01*
X012791Y007374D01*
X012791Y008260D01*
X013677Y008260D01*
X013677Y007471D02*
X012791Y007471D01*
X012791Y007568D02*
X013677Y007568D01*
X013677Y007665D02*
X012791Y007665D01*
X012791Y007762D02*
X013677Y007762D01*
X013677Y007859D02*
X012791Y007859D01*
X012791Y007956D02*
X013677Y007956D01*
X013677Y008053D02*
X012791Y008053D01*
X012791Y008150D02*
X013677Y008150D01*
X013677Y008247D02*
X012791Y008247D01*
X023007Y008260D02*
X023007Y007374D01*
X022121Y007374D01*
X022121Y008260D01*
X023007Y008260D01*
X023007Y007471D02*
X022121Y007471D01*
X022121Y007568D02*
X023007Y007568D01*
X023007Y007665D02*
X022121Y007665D01*
X022121Y007762D02*
X023007Y007762D01*
X023007Y007859D02*
X022121Y007859D01*
X022121Y007956D02*
X023007Y007956D01*
X023007Y008053D02*
X022121Y008053D01*
X022121Y008150D02*
X023007Y008150D01*
X023007Y008247D02*
X022121Y008247D01*
D14*
X021737Y008884D03*
X021541Y008884D03*
X021344Y008884D03*
X021147Y008884D03*
X020950Y008884D03*
X020753Y008884D03*
X020556Y008884D03*
X020359Y008884D03*
X020163Y008884D03*
X019966Y008884D03*
X019769Y008884D03*
X019572Y008884D03*
X019375Y008884D03*
X019178Y008884D03*
X018982Y008884D03*
X018785Y008884D03*
X018588Y008884D03*
X018391Y008884D03*
X018194Y008884D03*
X017997Y008884D03*
X017800Y008884D03*
X017604Y008884D03*
X017407Y008884D03*
X017210Y008884D03*
X017013Y008884D03*
X016816Y008884D03*
X016619Y008884D03*
X016422Y008884D03*
X016226Y008884D03*
X016029Y008884D03*
X015832Y008884D03*
X015635Y008884D03*
X015438Y008884D03*
X015241Y008884D03*
X015045Y008884D03*
X014848Y008884D03*
X014651Y008884D03*
X014454Y008884D03*
X014257Y008884D03*
X014060Y008884D03*
D15*
X014609Y010075D02*
X014609Y010099D01*
X014733Y010099D01*
X014733Y010075D01*
X014609Y010075D01*
X014609Y010425D02*
X014609Y010449D01*
X014733Y010449D01*
X014733Y010425D01*
X014609Y010425D01*
X013283Y012720D02*
X013259Y012720D01*
X013259Y012844D01*
X013283Y012844D01*
X013283Y012720D01*
X012933Y012720D02*
X012909Y012720D01*
X012909Y012844D01*
X012933Y012844D01*
X012933Y012720D01*
X012933Y013153D02*
X012909Y013153D01*
X012909Y013277D01*
X012933Y013277D01*
X012933Y013153D01*
X013259Y013153D02*
X013283Y013153D01*
X013259Y013153D02*
X013259Y013277D01*
X013283Y013277D01*
X013283Y013153D01*
X013283Y013586D02*
X013259Y013586D01*
X013259Y013710D01*
X013283Y013710D01*
X013283Y013586D01*
X012933Y013586D02*
X012909Y013586D01*
X012909Y013710D01*
X012933Y013710D01*
X012933Y013586D01*
X012933Y014019D02*
X012909Y014019D01*
X012909Y014143D01*
X012933Y014143D01*
X012933Y014019D01*
X013259Y014019D02*
X013283Y014019D01*
X013259Y014019D02*
X013259Y014143D01*
X013283Y014143D01*
X013283Y014019D01*
X014129Y016545D02*
X014153Y016545D01*
X014153Y016421D01*
X014129Y016421D01*
X014129Y016545D01*
X014479Y016545D02*
X014503Y016545D01*
X014503Y016421D01*
X014479Y016421D01*
X014479Y016545D01*
X014956Y016545D02*
X014980Y016545D01*
X014980Y016421D01*
X014956Y016421D01*
X014956Y016545D01*
X015306Y016545D02*
X015330Y016545D01*
X015330Y016421D01*
X015306Y016421D01*
X015306Y016545D01*
X016610Y016283D02*
X016634Y016283D01*
X016610Y016283D02*
X016610Y016407D01*
X016634Y016407D01*
X016634Y016283D01*
X016960Y016283D02*
X016984Y016283D01*
X016960Y016283D02*
X016960Y016407D01*
X016984Y016407D01*
X016984Y016283D01*
X017594Y014688D02*
X017618Y014688D01*
X017594Y014688D02*
X017594Y014812D01*
X017618Y014812D01*
X017618Y014688D01*
X017944Y014688D02*
X017968Y014688D01*
X017944Y014688D02*
X017944Y014812D01*
X017968Y014812D01*
X017968Y014688D01*
X018236Y014347D02*
X018236Y014323D01*
X018112Y014323D01*
X018112Y014347D01*
X018236Y014347D01*
X018236Y013997D02*
X018236Y013973D01*
X018112Y013973D01*
X018112Y013997D01*
X018236Y013997D01*
X019641Y013192D02*
X019665Y013192D01*
X019641Y013192D02*
X019641Y013316D01*
X019665Y013316D01*
X019665Y013192D01*
X019991Y013192D02*
X020015Y013192D01*
X019991Y013192D02*
X019991Y013316D01*
X020015Y013316D01*
X020015Y013192D01*
X020369Y013192D02*
X020393Y013192D01*
X020369Y013192D02*
X020369Y013316D01*
X020393Y013316D01*
X020393Y013192D01*
X020719Y013192D02*
X020743Y013192D01*
X020719Y013192D02*
X020719Y013316D01*
X020743Y013316D01*
X020743Y013192D01*
X019648Y009937D02*
X019648Y009913D01*
X019648Y009937D02*
X019772Y009937D01*
X019772Y009913D01*
X019648Y009913D01*
X019648Y009587D02*
X019648Y009563D01*
X019648Y009587D02*
X019772Y009587D01*
X019772Y009563D01*
X019648Y009563D01*
X023342Y008533D02*
X023366Y008533D01*
X023366Y008409D01*
X023342Y008409D01*
X023342Y008533D01*
X023692Y008533D02*
X023716Y008533D01*
X023716Y008409D01*
X023692Y008409D01*
X023692Y008533D01*
X024175Y008796D02*
X024175Y008820D01*
X024299Y008820D01*
X024299Y008796D01*
X024175Y008796D01*
X024175Y009146D02*
X024175Y009170D01*
X024299Y009170D01*
X024299Y009146D01*
X024175Y009146D01*
X025042Y009603D02*
X025042Y009627D01*
X025166Y009627D01*
X025166Y009603D01*
X025042Y009603D01*
X025042Y009953D02*
X025042Y009977D01*
X025166Y009977D01*
X025166Y009953D01*
X025042Y009953D01*
X023670Y011650D02*
X023670Y011674D01*
X023670Y011650D02*
X023546Y011650D01*
X023546Y011674D01*
X023670Y011674D01*
X023670Y012000D02*
X023670Y012024D01*
X023670Y012000D02*
X023546Y012000D01*
X023546Y012024D01*
X023670Y012024D01*
X022318Y016387D02*
X022294Y016387D01*
X022318Y016387D02*
X022318Y016263D01*
X022294Y016263D01*
X022294Y016387D01*
X021968Y016387D02*
X021944Y016387D01*
X021968Y016387D02*
X021968Y016263D01*
X021944Y016263D01*
X021944Y016387D01*
X022008Y019098D02*
X021984Y019098D01*
X021984Y019222D01*
X022008Y019222D01*
X022008Y019098D01*
X022334Y019098D02*
X022358Y019098D01*
X022334Y019098D02*
X022334Y019222D01*
X022358Y019222D01*
X022358Y019098D01*
X020500Y023441D02*
X020500Y023465D01*
X020500Y023441D02*
X020376Y023441D01*
X020376Y023465D01*
X020500Y023465D01*
X020500Y023791D02*
X020500Y023815D01*
X020500Y023791D02*
X020376Y023791D01*
X020376Y023815D01*
X020500Y023815D01*
X020284Y024130D02*
X020284Y024154D01*
X020284Y024130D02*
X020160Y024130D01*
X020160Y024154D01*
X020284Y024154D01*
X020284Y024480D02*
X020284Y024504D01*
X020284Y024480D02*
X020160Y024480D01*
X020160Y024504D01*
X020284Y024504D01*
X019877Y026309D02*
X019853Y026309D01*
X019877Y026309D02*
X019877Y026185D01*
X019853Y026185D01*
X019853Y026309D01*
X019527Y026309D02*
X019503Y026309D01*
X019527Y026309D02*
X019527Y026185D01*
X019503Y026185D01*
X019503Y026309D01*
X020677Y026571D02*
X020677Y026595D01*
X020677Y026571D02*
X020553Y026571D01*
X020553Y026595D01*
X020677Y026595D01*
X020677Y026921D02*
X020677Y026945D01*
X020677Y026921D02*
X020553Y026921D01*
X020553Y026945D01*
X020677Y026945D01*
X019792Y030193D02*
X019792Y030217D01*
X019792Y030193D02*
X019668Y030193D01*
X019668Y030217D01*
X019792Y030217D01*
X019792Y030543D02*
X019792Y030567D01*
X019792Y030543D02*
X019668Y030543D01*
X019668Y030567D01*
X019792Y030567D01*
X019235Y030764D02*
X019235Y030788D01*
X019359Y030788D01*
X019359Y030764D01*
X019235Y030764D01*
X019235Y031114D02*
X019235Y031138D01*
X019359Y031138D01*
X019359Y031114D01*
X019235Y031114D01*
X016144Y037418D02*
X016144Y037442D01*
X016268Y037442D01*
X016268Y037418D01*
X016144Y037418D01*
X015750Y037418D02*
X015750Y037442D01*
X015874Y037442D01*
X015874Y037418D01*
X015750Y037418D01*
X015357Y037418D02*
X015357Y037442D01*
X015481Y037442D01*
X015481Y037418D01*
X015357Y037418D01*
X015357Y037768D02*
X015357Y037792D01*
X015481Y037792D01*
X015481Y037768D01*
X015357Y037768D01*
X015750Y037768D02*
X015750Y037792D01*
X015874Y037792D01*
X015874Y037768D01*
X015750Y037768D01*
X016144Y037768D02*
X016144Y037792D01*
X016268Y037792D01*
X016268Y037768D01*
X016144Y037768D01*
X017082Y040521D02*
X017106Y040521D01*
X017106Y040397D01*
X017082Y040397D01*
X017082Y040521D01*
X017432Y040521D02*
X017456Y040521D01*
X017456Y040397D01*
X017432Y040397D01*
X017432Y040521D01*
X013782Y037792D02*
X013782Y037768D01*
X013782Y037792D02*
X013906Y037792D01*
X013906Y037768D01*
X013782Y037768D01*
X013782Y037442D02*
X013782Y037418D01*
X013782Y037442D02*
X013906Y037442D01*
X013906Y037418D01*
X013782Y037418D01*
X013388Y037418D02*
X013388Y037442D01*
X013512Y037442D01*
X013512Y037418D01*
X013388Y037418D01*
X012994Y037418D02*
X012994Y037442D01*
X013118Y037442D01*
X013118Y037418D01*
X012994Y037418D01*
X012994Y037768D02*
X012994Y037792D01*
X013118Y037792D01*
X013118Y037768D01*
X012994Y037768D01*
X013388Y037768D02*
X013388Y037792D01*
X013512Y037792D01*
X013512Y037768D01*
X013388Y037768D01*
X013972Y034025D02*
X013996Y034025D01*
X013996Y033901D01*
X013972Y033901D01*
X013972Y034025D01*
X014322Y034025D02*
X014346Y034025D01*
X014346Y033901D01*
X014322Y033901D01*
X014322Y034025D01*
X013637Y033744D02*
X013613Y033744D01*
X013613Y033868D01*
X013637Y033868D01*
X013637Y033744D01*
X013287Y033744D02*
X013263Y033744D01*
X013263Y033868D01*
X013287Y033868D01*
X013287Y033744D01*
X009247Y031519D02*
X009223Y031519D01*
X009223Y031643D01*
X009247Y031643D01*
X009247Y031519D01*
X009038Y031945D02*
X009038Y031969D01*
X009162Y031969D01*
X009162Y031945D01*
X009038Y031945D01*
X009038Y032295D02*
X009038Y032319D01*
X009162Y032319D01*
X009162Y032295D01*
X009038Y032295D01*
X008897Y031519D02*
X008873Y031519D01*
X008873Y031643D01*
X008897Y031643D01*
X008897Y031519D01*
X007377Y032208D02*
X007353Y032208D01*
X007353Y032332D01*
X007377Y032332D01*
X007377Y032208D01*
X007027Y032208D02*
X007003Y032208D01*
X007003Y032332D01*
X007027Y032332D01*
X007027Y032208D01*
X009496Y025922D02*
X009496Y025898D01*
X009372Y025898D01*
X009372Y025922D01*
X009496Y025922D01*
X009496Y025572D02*
X009496Y025548D01*
X009372Y025548D01*
X009372Y025572D01*
X009496Y025572D01*
X009680Y024767D02*
X009704Y024767D01*
X009680Y024767D02*
X009680Y024891D01*
X009704Y024891D01*
X009704Y024767D01*
X010030Y024767D02*
X010054Y024767D01*
X010030Y024767D02*
X010030Y024891D01*
X010054Y024891D01*
X010054Y024767D01*
X008991Y023389D02*
X008967Y023389D01*
X008967Y023513D01*
X008991Y023513D01*
X008991Y023389D01*
X008641Y023389D02*
X008617Y023389D01*
X008617Y023513D01*
X008641Y023513D01*
X008641Y023389D01*
X007613Y023429D02*
X007589Y023429D01*
X007589Y023553D01*
X007613Y023553D01*
X007613Y023429D01*
X007263Y023429D02*
X007239Y023429D01*
X007239Y023553D01*
X007263Y023553D01*
X007263Y023429D01*
X007412Y019891D02*
X007436Y019891D01*
X007436Y019767D01*
X007412Y019767D01*
X007412Y019891D01*
X007086Y019891D02*
X007062Y019891D01*
X007086Y019891D02*
X007086Y019767D01*
X007062Y019767D01*
X007062Y019891D01*
X009372Y012418D02*
X009372Y012394D01*
X009372Y012418D02*
X009496Y012418D01*
X009496Y012394D01*
X009372Y012394D01*
X009372Y012068D02*
X009372Y012044D01*
X009372Y012068D02*
X009496Y012068D01*
X009496Y012044D01*
X009372Y012044D01*
X009786Y012044D02*
X009786Y012068D01*
X009910Y012068D01*
X009910Y012044D01*
X009786Y012044D01*
X009786Y012394D02*
X009786Y012418D01*
X009910Y012418D01*
X009910Y012394D01*
X009786Y012394D01*
X011944Y009157D02*
X011968Y009157D01*
X011944Y009157D02*
X011944Y009281D01*
X011968Y009281D01*
X011968Y009157D01*
X012294Y009157D02*
X012318Y009157D01*
X012294Y009157D02*
X012294Y009281D01*
X012318Y009281D01*
X012318Y009157D01*
X012286Y006768D02*
X012286Y006744D01*
X012286Y006768D02*
X012410Y006768D01*
X012410Y006744D01*
X012286Y006744D01*
X012286Y006418D02*
X012286Y006394D01*
X012286Y006418D02*
X012410Y006418D01*
X012410Y006394D01*
X012286Y006394D01*
X008381Y006545D02*
X008357Y006545D01*
X008381Y006545D02*
X008381Y006421D01*
X008357Y006421D01*
X008357Y006545D01*
X008381Y006007D02*
X008357Y006007D01*
X008357Y006131D01*
X008381Y006131D01*
X008381Y006007D01*
X008031Y006007D02*
X008007Y006007D01*
X008007Y006131D01*
X008031Y006131D01*
X008031Y006007D01*
X008007Y006545D02*
X008031Y006545D01*
X008031Y006421D01*
X008007Y006421D01*
X008007Y006545D01*
X007515Y006421D02*
X007491Y006421D01*
X007491Y006545D01*
X007515Y006545D01*
X007515Y006421D01*
X007165Y006421D02*
X007141Y006421D01*
X007141Y006545D01*
X007165Y006545D01*
X007165Y006421D01*
X006373Y005127D02*
X006349Y005127D01*
X006373Y005127D02*
X006373Y005003D01*
X006349Y005003D01*
X006349Y005127D01*
X006023Y005127D02*
X005999Y005127D01*
X006023Y005127D02*
X006023Y005003D01*
X005999Y005003D01*
X005999Y005127D01*
X005684Y005003D02*
X005660Y005003D01*
X005660Y005127D01*
X005684Y005127D01*
X005684Y005003D01*
X005334Y005003D02*
X005310Y005003D01*
X005310Y005127D01*
X005334Y005127D01*
X005334Y005003D01*
X007082Y008907D02*
X007106Y008907D01*
X007106Y008783D01*
X007082Y008783D01*
X007082Y008907D01*
X007432Y008907D02*
X007456Y008907D01*
X007456Y008783D01*
X007432Y008783D01*
X007432Y008907D01*
X007246Y010233D02*
X007246Y010257D01*
X007370Y010257D01*
X007370Y010233D01*
X007246Y010233D01*
X007246Y010583D02*
X007246Y010607D01*
X007370Y010607D01*
X007370Y010583D01*
X007246Y010583D01*
X007679Y010583D02*
X007679Y010607D01*
X007803Y010607D01*
X007803Y010583D01*
X007679Y010583D01*
X007679Y010257D02*
X007679Y010233D01*
X007679Y010257D02*
X007803Y010257D01*
X007803Y010233D01*
X007679Y010233D01*
X013315Y017359D02*
X013315Y017383D01*
X013315Y017359D02*
X013191Y017359D01*
X013191Y017383D01*
X013315Y017383D01*
X013315Y017709D02*
X013315Y017733D01*
X013315Y017709D02*
X013191Y017709D01*
X013191Y017733D01*
X013315Y017733D01*
X013972Y019438D02*
X013996Y019438D01*
X013996Y019314D01*
X013972Y019314D01*
X013972Y019438D01*
X014322Y019438D02*
X014346Y019438D01*
X014346Y019314D01*
X014322Y019314D01*
X014322Y019438D01*
X014661Y019216D02*
X014685Y019216D01*
X014661Y019216D02*
X014661Y019340D01*
X014685Y019340D01*
X014685Y019216D01*
X015011Y019216D02*
X015035Y019216D01*
X015011Y019216D02*
X015011Y019340D01*
X015035Y019340D01*
X015035Y019216D01*
X015350Y019340D02*
X015374Y019340D01*
X015374Y019216D01*
X015350Y019216D01*
X015350Y019340D01*
X015700Y019340D02*
X015724Y019340D01*
X015724Y019216D01*
X015700Y019216D01*
X015700Y019340D01*
X016223Y019402D02*
X016223Y019426D01*
X016347Y019426D01*
X016347Y019402D01*
X016223Y019402D01*
X016223Y019076D02*
X016223Y019052D01*
X016223Y019076D02*
X016347Y019076D01*
X016347Y019052D01*
X016223Y019052D01*
X016078Y021283D02*
X016054Y021283D01*
X016054Y021407D01*
X016078Y021407D01*
X016078Y021283D01*
X015728Y021283D02*
X015704Y021283D01*
X015704Y021407D01*
X015728Y021407D01*
X015728Y021283D01*
X015291Y021407D02*
X015267Y021407D01*
X015291Y021407D02*
X015291Y021283D01*
X015267Y021283D01*
X015267Y021407D01*
X014941Y021407D02*
X014917Y021407D01*
X014941Y021407D02*
X014941Y021283D01*
X014917Y021283D01*
X014917Y021407D01*
X014018Y022201D02*
X014018Y022225D01*
X014142Y022225D01*
X014142Y022201D01*
X014018Y022201D01*
X014018Y022551D02*
X014018Y022575D01*
X014142Y022575D01*
X014142Y022551D01*
X014018Y022551D01*
X014083Y023343D02*
X014083Y023367D01*
X014083Y023343D02*
X013959Y023343D01*
X013959Y023367D01*
X014083Y023367D01*
X014083Y023693D02*
X014083Y023717D01*
X014083Y023693D02*
X013959Y023693D01*
X013959Y023717D01*
X014083Y023717D01*
X014621Y023494D02*
X014645Y023494D01*
X014645Y023370D01*
X014621Y023370D01*
X014621Y023494D01*
X014971Y023494D02*
X014995Y023494D01*
X014995Y023370D01*
X014971Y023370D01*
X014971Y023494D01*
X015047Y023815D02*
X015047Y023839D01*
X015047Y023815D02*
X014923Y023815D01*
X014923Y023839D01*
X015047Y023839D01*
X015047Y024165D02*
X015047Y024189D01*
X015047Y024165D02*
X014923Y024165D01*
X014923Y024189D01*
X015047Y024189D01*
X016189Y023737D02*
X016189Y023713D01*
X016065Y023713D01*
X016065Y023737D01*
X016189Y023737D01*
X016189Y023387D02*
X016189Y023363D01*
X016065Y023363D01*
X016065Y023387D01*
X016189Y023387D01*
X017075Y023520D02*
X017075Y023544D01*
X017075Y023520D02*
X016951Y023520D01*
X016951Y023544D01*
X017075Y023544D01*
X017075Y023870D02*
X017075Y023894D01*
X017075Y023870D02*
X016951Y023870D01*
X016951Y023894D01*
X017075Y023894D01*
X017340Y023238D02*
X017364Y023238D01*
X017364Y023114D01*
X017340Y023114D01*
X017340Y023238D01*
X017690Y023238D02*
X017714Y023238D01*
X017714Y023114D01*
X017690Y023114D01*
X017690Y023238D01*
X018066Y024393D02*
X018090Y024393D01*
X018066Y024393D02*
X018066Y024517D01*
X018090Y024517D01*
X018090Y024393D01*
X018416Y024393D02*
X018440Y024393D01*
X018416Y024393D02*
X018416Y024517D01*
X018440Y024517D01*
X018440Y024393D01*
X018532Y019918D02*
X018532Y019894D01*
X018408Y019894D01*
X018408Y019918D01*
X018532Y019918D01*
X018532Y019568D02*
X018532Y019544D01*
X018408Y019544D01*
X018408Y019568D01*
X018532Y019568D01*
X013670Y023343D02*
X013670Y023367D01*
X013670Y023343D02*
X013546Y023343D01*
X013546Y023367D01*
X013670Y023367D01*
X013670Y023693D02*
X013670Y023717D01*
X013670Y023693D02*
X013546Y023693D01*
X013546Y023717D01*
X013670Y023717D01*
X012692Y023271D02*
X012668Y023271D01*
X012668Y023395D01*
X012692Y023395D01*
X012692Y023271D01*
X012646Y023815D02*
X012646Y023839D01*
X012646Y023815D02*
X012522Y023815D01*
X012522Y023839D01*
X012646Y023839D01*
X012646Y024165D02*
X012646Y024189D01*
X012646Y024165D02*
X012522Y024165D01*
X012522Y024189D01*
X012646Y024189D01*
X012342Y023271D02*
X012318Y023271D01*
X012318Y023395D01*
X012342Y023395D01*
X012342Y023271D01*
X024287Y006702D02*
X024311Y006702D01*
X024311Y006578D01*
X024287Y006578D01*
X024287Y006702D01*
X024637Y006702D02*
X024661Y006702D01*
X024661Y006578D01*
X024637Y006578D01*
X024637Y006702D01*
X024956Y026505D02*
X024980Y026505D01*
X024980Y026381D01*
X024956Y026381D01*
X024956Y026505D01*
X024956Y026923D02*
X024980Y026923D01*
X024980Y026799D01*
X024956Y026799D01*
X024956Y026923D01*
X024956Y027423D02*
X024980Y027423D01*
X024980Y027299D01*
X024956Y027299D01*
X024956Y027423D01*
X025306Y027423D02*
X025330Y027423D01*
X025330Y027299D01*
X025306Y027299D01*
X025306Y027423D01*
X025306Y026923D02*
X025330Y026923D01*
X025330Y026799D01*
X025306Y026799D01*
X025306Y026923D01*
X025306Y026505D02*
X025330Y026505D01*
X025330Y026381D01*
X025306Y026381D01*
X025306Y026505D01*
X025306Y028423D02*
X025330Y028423D01*
X025330Y028299D01*
X025306Y028299D01*
X025306Y028423D01*
X025306Y028923D02*
X025330Y028923D01*
X025330Y028799D01*
X025306Y028799D01*
X025306Y028923D01*
X024980Y028923D02*
X024956Y028923D01*
X024980Y028923D02*
X024980Y028799D01*
X024956Y028799D01*
X024956Y028923D01*
X024956Y028423D02*
X024980Y028423D01*
X024980Y028299D01*
X024956Y028299D01*
X024956Y028423D01*
X025940Y030751D02*
X025964Y030751D01*
X025940Y030751D02*
X025940Y030875D01*
X025964Y030875D01*
X025964Y030751D01*
X026290Y030751D02*
X026314Y030751D01*
X026290Y030751D02*
X026290Y030875D01*
X026314Y030875D01*
X026314Y030751D01*
X026290Y031875D02*
X026314Y031875D01*
X026314Y031751D01*
X026290Y031751D01*
X026290Y031875D01*
X025964Y031875D02*
X025940Y031875D01*
X025964Y031875D02*
X025964Y031751D01*
X025940Y031751D01*
X025940Y031875D01*
X025940Y032875D02*
X025964Y032875D01*
X025964Y032751D01*
X025940Y032751D01*
X025940Y032875D01*
X026290Y032875D02*
X026314Y032875D01*
X026314Y032751D01*
X026290Y032751D01*
X026290Y032875D01*
D16*
X017197Y014330D02*
X017197Y013832D01*
X017197Y014330D02*
X017813Y014330D01*
X017813Y013832D01*
X017197Y013832D01*
X017197Y013886D02*
X017813Y013886D01*
X017813Y013940D02*
X017197Y013940D01*
X017197Y013994D02*
X017813Y013994D01*
X017813Y014048D02*
X017197Y014048D01*
X017197Y014102D02*
X017813Y014102D01*
X017813Y014156D02*
X017197Y014156D01*
X017197Y014210D02*
X017813Y014210D01*
X017813Y014264D02*
X017197Y014264D01*
X017197Y014318D02*
X017813Y014318D01*
X017197Y013543D02*
X017197Y013045D01*
X017197Y013543D02*
X017813Y013543D01*
X017813Y013045D01*
X017197Y013045D01*
X017197Y013099D02*
X017813Y013099D01*
X017813Y013153D02*
X017197Y013153D01*
X017197Y013207D02*
X017813Y013207D01*
X017813Y013261D02*
X017197Y013261D01*
X017197Y013315D02*
X017813Y013315D01*
X017813Y013369D02*
X017197Y013369D01*
X017197Y013423D02*
X017813Y013423D01*
X017813Y013477D02*
X017197Y013477D01*
X017197Y013531D02*
X017813Y013531D01*
X018162Y013641D02*
X018660Y013641D01*
X018660Y013025D01*
X018162Y013025D01*
X018162Y013641D01*
X018162Y013079D02*
X018660Y013079D01*
X018660Y013133D02*
X018162Y013133D01*
X018162Y013187D02*
X018660Y013187D01*
X018660Y013241D02*
X018162Y013241D01*
X018162Y013295D02*
X018660Y013295D01*
X018660Y013349D02*
X018162Y013349D01*
X018162Y013403D02*
X018660Y013403D01*
X018660Y013457D02*
X018162Y013457D01*
X018162Y013511D02*
X018660Y013511D01*
X018660Y013565D02*
X018162Y013565D01*
X018162Y013619D02*
X018660Y013619D01*
X018949Y013641D02*
X019447Y013641D01*
X019447Y013025D01*
X018949Y013025D01*
X018949Y013641D01*
X018949Y013079D02*
X019447Y013079D01*
X019447Y013133D02*
X018949Y013133D01*
X018949Y013187D02*
X019447Y013187D01*
X019447Y013241D02*
X018949Y013241D01*
X018949Y013295D02*
X019447Y013295D01*
X019447Y013349D02*
X018949Y013349D01*
X018949Y013403D02*
X019447Y013403D01*
X019447Y013457D02*
X018949Y013457D01*
X018949Y013511D02*
X019447Y013511D01*
X019447Y013565D02*
X018949Y013565D01*
X018949Y013619D02*
X019447Y013619D01*
X019697Y012972D02*
X020195Y012972D01*
X020195Y012356D01*
X019697Y012356D01*
X019697Y012972D01*
X019697Y012410D02*
X020195Y012410D01*
X020195Y012464D02*
X019697Y012464D01*
X019697Y012518D02*
X020195Y012518D01*
X020195Y012572D02*
X019697Y012572D01*
X019697Y012626D02*
X020195Y012626D01*
X020195Y012680D02*
X019697Y012680D01*
X019697Y012734D02*
X020195Y012734D01*
X020195Y012788D02*
X019697Y012788D01*
X019697Y012842D02*
X020195Y012842D01*
X020195Y012896D02*
X019697Y012896D01*
X019697Y012950D02*
X020195Y012950D01*
X020485Y012972D02*
X020983Y012972D01*
X020983Y012356D01*
X020485Y012356D01*
X020485Y012972D01*
X020485Y012410D02*
X020983Y012410D01*
X020983Y012464D02*
X020485Y012464D01*
X020485Y012518D02*
X020983Y012518D01*
X020983Y012572D02*
X020485Y012572D01*
X020485Y012626D02*
X020983Y012626D01*
X020983Y012680D02*
X020485Y012680D01*
X020485Y012734D02*
X020983Y012734D01*
X020983Y012788D02*
X020485Y012788D01*
X020485Y012842D02*
X020983Y012842D01*
X020983Y012896D02*
X020485Y012896D01*
X020485Y012950D02*
X020983Y012950D01*
X021475Y011535D02*
X021475Y011037D01*
X020859Y011037D01*
X020859Y011535D01*
X021475Y011535D01*
X021475Y011091D02*
X020859Y011091D01*
X020859Y011145D02*
X021475Y011145D01*
X021475Y011199D02*
X020859Y011199D01*
X020859Y011253D02*
X021475Y011253D01*
X021475Y011307D02*
X020859Y011307D01*
X020859Y011361D02*
X021475Y011361D01*
X021475Y011415D02*
X020859Y011415D01*
X020859Y011469D02*
X021475Y011469D01*
X021475Y011523D02*
X020859Y011523D01*
X021475Y010747D02*
X021475Y010249D01*
X020859Y010249D01*
X020859Y010747D01*
X021475Y010747D01*
X021475Y010303D02*
X020859Y010303D01*
X020859Y010357D02*
X021475Y010357D01*
X021475Y010411D02*
X020859Y010411D01*
X020859Y010465D02*
X021475Y010465D01*
X021475Y010519D02*
X020859Y010519D01*
X020859Y010573D02*
X021475Y010573D01*
X021475Y010627D02*
X020859Y010627D01*
X020859Y010681D02*
X021475Y010681D01*
X021475Y010735D02*
X020859Y010735D01*
X022242Y010747D02*
X022242Y010249D01*
X021626Y010249D01*
X021626Y010747D01*
X022242Y010747D01*
X022242Y010303D02*
X021626Y010303D01*
X021626Y010357D02*
X022242Y010357D01*
X022242Y010411D02*
X021626Y010411D01*
X021626Y010465D02*
X022242Y010465D01*
X022242Y010519D02*
X021626Y010519D01*
X021626Y010573D02*
X022242Y010573D01*
X022242Y010627D02*
X021626Y010627D01*
X021626Y010681D02*
X022242Y010681D01*
X022242Y010735D02*
X021626Y010735D01*
X022242Y011037D02*
X022242Y011535D01*
X022242Y011037D02*
X021626Y011037D01*
X021626Y011535D01*
X022242Y011535D01*
X022242Y011091D02*
X021626Y011091D01*
X021626Y011145D02*
X022242Y011145D01*
X022242Y011199D02*
X021626Y011199D01*
X021626Y011253D02*
X022242Y011253D01*
X022242Y011307D02*
X021626Y011307D01*
X021626Y011361D02*
X022242Y011361D01*
X022242Y011415D02*
X021626Y011415D01*
X021626Y011469D02*
X022242Y011469D01*
X022242Y011523D02*
X021626Y011523D01*
X018142Y011470D02*
X018142Y011968D01*
X018758Y011968D01*
X018758Y011470D01*
X018142Y011470D01*
X018142Y011524D02*
X018758Y011524D01*
X018758Y011578D02*
X018142Y011578D01*
X018142Y011632D02*
X018758Y011632D01*
X018758Y011686D02*
X018142Y011686D01*
X018142Y011740D02*
X018758Y011740D01*
X018758Y011794D02*
X018142Y011794D01*
X018142Y011848D02*
X018758Y011848D01*
X018758Y011902D02*
X018142Y011902D01*
X018142Y011956D02*
X018758Y011956D01*
X018142Y012257D02*
X018142Y012755D01*
X018758Y012755D01*
X018758Y012257D01*
X018142Y012257D01*
X018142Y012311D02*
X018758Y012311D01*
X018758Y012365D02*
X018142Y012365D01*
X018142Y012419D02*
X018758Y012419D01*
X018758Y012473D02*
X018142Y012473D01*
X018142Y012527D02*
X018758Y012527D01*
X018758Y012581D02*
X018142Y012581D01*
X018142Y012635D02*
X018758Y012635D01*
X018758Y012689D02*
X018142Y012689D01*
X018142Y012743D02*
X018758Y012743D01*
X018142Y011220D02*
X018142Y010722D01*
X018142Y011220D02*
X018758Y011220D01*
X018758Y010722D01*
X018142Y010722D01*
X018142Y010776D02*
X018758Y010776D01*
X018758Y010830D02*
X018142Y010830D01*
X018142Y010884D02*
X018758Y010884D01*
X018758Y010938D02*
X018142Y010938D01*
X018142Y010992D02*
X018758Y010992D01*
X018758Y011046D02*
X018142Y011046D01*
X018142Y011100D02*
X018758Y011100D01*
X018758Y011154D02*
X018142Y011154D01*
X018142Y011208D02*
X018758Y011208D01*
X018142Y010433D02*
X018142Y009935D01*
X018142Y010433D02*
X018758Y010433D01*
X018758Y009935D01*
X018142Y009935D01*
X018142Y009989D02*
X018758Y009989D01*
X018758Y010043D02*
X018142Y010043D01*
X018142Y010097D02*
X018758Y010097D01*
X018758Y010151D02*
X018142Y010151D01*
X018142Y010205D02*
X018758Y010205D01*
X018758Y010259D02*
X018142Y010259D01*
X018142Y010313D02*
X018758Y010313D01*
X018758Y010367D02*
X018142Y010367D01*
X018142Y010421D02*
X018758Y010421D01*
X017419Y010433D02*
X017419Y009935D01*
X016803Y009935D01*
X016803Y010433D01*
X017419Y010433D01*
X017419Y009989D02*
X016803Y009989D01*
X016803Y010043D02*
X017419Y010043D01*
X017419Y010097D02*
X016803Y010097D01*
X016803Y010151D02*
X017419Y010151D01*
X017419Y010205D02*
X016803Y010205D01*
X016803Y010259D02*
X017419Y010259D01*
X017419Y010313D02*
X016803Y010313D01*
X016803Y010367D02*
X017419Y010367D01*
X017419Y010421D02*
X016803Y010421D01*
X017419Y010722D02*
X017419Y011220D01*
X017419Y010722D02*
X016803Y010722D01*
X016803Y011220D01*
X017419Y011220D01*
X017419Y010776D02*
X016803Y010776D01*
X016803Y010830D02*
X017419Y010830D01*
X017419Y010884D02*
X016803Y010884D01*
X016803Y010938D02*
X017419Y010938D01*
X017419Y010992D02*
X016803Y010992D01*
X016803Y011046D02*
X017419Y011046D01*
X017419Y011100D02*
X016803Y011100D01*
X016803Y011154D02*
X017419Y011154D01*
X017419Y011208D02*
X016803Y011208D01*
X016803Y011509D02*
X016803Y012007D01*
X017419Y012007D01*
X017419Y011509D01*
X016803Y011509D01*
X016803Y011563D02*
X017419Y011563D01*
X017419Y011617D02*
X016803Y011617D01*
X016803Y011671D02*
X017419Y011671D01*
X017419Y011725D02*
X016803Y011725D01*
X016803Y011779D02*
X017419Y011779D01*
X017419Y011833D02*
X016803Y011833D01*
X016803Y011887D02*
X017419Y011887D01*
X017419Y011941D02*
X016803Y011941D01*
X016803Y011995D02*
X017419Y011995D01*
X016803Y012297D02*
X016803Y012795D01*
X017419Y012795D01*
X017419Y012297D01*
X016803Y012297D01*
X016803Y012351D02*
X017419Y012351D01*
X017419Y012405D02*
X016803Y012405D01*
X016803Y012459D02*
X017419Y012459D01*
X017419Y012513D02*
X016803Y012513D01*
X016803Y012567D02*
X017419Y012567D01*
X017419Y012621D02*
X016803Y012621D01*
X016803Y012675D02*
X017419Y012675D01*
X017419Y012729D02*
X016803Y012729D01*
X016803Y012783D02*
X017419Y012783D01*
X016410Y013045D02*
X016410Y013543D01*
X017026Y013543D01*
X017026Y013045D01*
X016410Y013045D01*
X016410Y013099D02*
X017026Y013099D01*
X017026Y013153D02*
X016410Y013153D01*
X016410Y013207D02*
X017026Y013207D01*
X017026Y013261D02*
X016410Y013261D01*
X016410Y013315D02*
X017026Y013315D01*
X017026Y013369D02*
X016410Y013369D01*
X016410Y013423D02*
X017026Y013423D01*
X017026Y013477D02*
X016410Y013477D01*
X016410Y013531D02*
X017026Y013531D01*
X016410Y013832D02*
X016410Y014330D01*
X017026Y014330D01*
X017026Y013832D01*
X016410Y013832D01*
X016410Y013886D02*
X017026Y013886D01*
X017026Y013940D02*
X016410Y013940D01*
X016410Y013994D02*
X017026Y013994D01*
X017026Y014048D02*
X016410Y014048D01*
X016410Y014102D02*
X017026Y014102D01*
X017026Y014156D02*
X016410Y014156D01*
X016410Y014210D02*
X017026Y014210D01*
X017026Y014264D02*
X016410Y014264D01*
X016410Y014318D02*
X017026Y014318D01*
X015845Y014330D02*
X015845Y013832D01*
X015229Y013832D01*
X015229Y014330D01*
X015845Y014330D01*
X015845Y013886D02*
X015229Y013886D01*
X015229Y013940D02*
X015845Y013940D01*
X015845Y013994D02*
X015229Y013994D01*
X015229Y014048D02*
X015845Y014048D01*
X015845Y014102D02*
X015229Y014102D01*
X015229Y014156D02*
X015845Y014156D01*
X015845Y014210D02*
X015229Y014210D01*
X015229Y014264D02*
X015845Y014264D01*
X015845Y014318D02*
X015229Y014318D01*
X015845Y013543D02*
X015845Y013045D01*
X015229Y013045D01*
X015229Y013543D01*
X015845Y013543D01*
X015845Y013099D02*
X015229Y013099D01*
X015229Y013153D02*
X015845Y013153D01*
X015845Y013207D02*
X015229Y013207D01*
X015229Y013261D02*
X015845Y013261D01*
X015845Y013315D02*
X015229Y013315D01*
X015229Y013369D02*
X015845Y013369D01*
X015845Y013423D02*
X015229Y013423D01*
X015229Y013477D02*
X015845Y013477D01*
X015845Y013531D02*
X015229Y013531D01*
X015845Y012795D02*
X015845Y012297D01*
X015229Y012297D01*
X015229Y012795D01*
X015845Y012795D01*
X015845Y012351D02*
X015229Y012351D01*
X015229Y012405D02*
X015845Y012405D01*
X015845Y012459D02*
X015229Y012459D01*
X015229Y012513D02*
X015845Y012513D01*
X015845Y012567D02*
X015229Y012567D01*
X015229Y012621D02*
X015845Y012621D01*
X015845Y012675D02*
X015229Y012675D01*
X015229Y012729D02*
X015845Y012729D01*
X015845Y012783D02*
X015229Y012783D01*
X015845Y012007D02*
X015845Y011509D01*
X015229Y011509D01*
X015229Y012007D01*
X015845Y012007D01*
X015845Y011563D02*
X015229Y011563D01*
X015229Y011617D02*
X015845Y011617D01*
X015845Y011671D02*
X015229Y011671D01*
X015229Y011725D02*
X015845Y011725D01*
X015845Y011779D02*
X015229Y011779D01*
X015229Y011833D02*
X015845Y011833D01*
X015845Y011887D02*
X015229Y011887D01*
X015229Y011941D02*
X015845Y011941D01*
X015845Y011995D02*
X015229Y011995D01*
X015057Y012007D02*
X015057Y011509D01*
X014441Y011509D01*
X014441Y012007D01*
X015057Y012007D01*
X015057Y011563D02*
X014441Y011563D01*
X014441Y011617D02*
X015057Y011617D01*
X015057Y011671D02*
X014441Y011671D01*
X014441Y011725D02*
X015057Y011725D01*
X015057Y011779D02*
X014441Y011779D01*
X014441Y011833D02*
X015057Y011833D01*
X015057Y011887D02*
X014441Y011887D01*
X014441Y011941D02*
X015057Y011941D01*
X015057Y011995D02*
X014441Y011995D01*
X015057Y011220D02*
X015057Y010722D01*
X014441Y010722D01*
X014441Y011220D01*
X015057Y011220D01*
X015057Y010776D02*
X014441Y010776D01*
X014441Y010830D02*
X015057Y010830D01*
X015057Y010884D02*
X014441Y010884D01*
X014441Y010938D02*
X015057Y010938D01*
X015057Y010992D02*
X014441Y010992D01*
X014441Y011046D02*
X015057Y011046D01*
X015057Y011100D02*
X014441Y011100D01*
X014441Y011154D02*
X015057Y011154D01*
X015057Y011208D02*
X014441Y011208D01*
X015845Y011220D02*
X015845Y010722D01*
X015229Y010722D01*
X015229Y011220D01*
X015845Y011220D01*
X015845Y010776D02*
X015229Y010776D01*
X015229Y010830D02*
X015845Y010830D01*
X015845Y010884D02*
X015229Y010884D01*
X015229Y010938D02*
X015845Y010938D01*
X015845Y010992D02*
X015229Y010992D01*
X015229Y011046D02*
X015845Y011046D01*
X015845Y011100D02*
X015229Y011100D01*
X015229Y011154D02*
X015845Y011154D01*
X015845Y011208D02*
X015229Y011208D01*
X015845Y010433D02*
X015845Y009935D01*
X015229Y009935D01*
X015229Y010433D01*
X015845Y010433D01*
X015845Y009989D02*
X015229Y009989D01*
X015229Y010043D02*
X015845Y010043D01*
X015845Y010097D02*
X015229Y010097D01*
X015229Y010151D02*
X015845Y010151D01*
X015845Y010205D02*
X015229Y010205D01*
X015229Y010259D02*
X015845Y010259D01*
X015845Y010313D02*
X015229Y010313D01*
X015229Y010367D02*
X015845Y010367D01*
X015845Y010421D02*
X015229Y010421D01*
D17*
X019867Y010817D02*
X020025Y010817D01*
X019867Y010817D02*
X019867Y010897D01*
X020025Y010897D01*
X020025Y010817D01*
X020025Y011517D02*
X019867Y011517D01*
X019867Y011597D01*
X020025Y011597D01*
X020025Y011517D01*
X022273Y009770D02*
X022273Y009612D01*
X022273Y009770D02*
X022353Y009770D01*
X022353Y009612D01*
X022273Y009612D01*
X022973Y009612D02*
X022973Y009770D01*
X023053Y009770D01*
X023053Y009612D01*
X022973Y009612D01*
X023548Y009282D02*
X023706Y009282D01*
X023548Y009282D02*
X023548Y009362D01*
X023706Y009362D01*
X023706Y009282D01*
X023706Y009982D02*
X023548Y009982D01*
X023548Y010062D01*
X023706Y010062D01*
X023706Y009982D01*
X017561Y019101D02*
X017561Y019259D01*
X017561Y019101D02*
X017481Y019101D01*
X017481Y019259D01*
X017561Y019259D01*
X016861Y019259D02*
X016861Y019101D01*
X016781Y019101D01*
X016781Y019259D01*
X016861Y019259D01*
X020989Y022963D02*
X020989Y023043D01*
X021147Y023043D01*
X021147Y022963D01*
X020989Y022963D01*
X020989Y023663D02*
X020989Y023743D01*
X021147Y023743D01*
X021147Y023663D01*
X020989Y023663D01*
X025580Y033727D02*
X025580Y033885D01*
X025660Y033885D01*
X025660Y033727D01*
X025580Y033727D01*
X026280Y033727D02*
X026280Y033885D01*
X026360Y033885D01*
X026360Y033727D01*
X026280Y033727D01*
X008505Y005538D02*
X008505Y005380D01*
X008425Y005380D01*
X008425Y005538D01*
X008505Y005538D01*
X007805Y005538D02*
X007805Y005380D01*
X007725Y005380D01*
X007725Y005538D01*
X007805Y005538D01*
D18*
X006675Y010226D02*
X006445Y010226D01*
X006445Y010436D01*
X006675Y010436D01*
X006675Y010226D01*
X006675Y010271D02*
X006445Y010271D01*
X006445Y010316D02*
X006675Y010316D01*
X006675Y010361D02*
X006445Y010361D01*
X006445Y010406D02*
X006675Y010406D01*
X006701Y010954D02*
X006931Y010954D01*
X006701Y010954D02*
X006701Y011164D01*
X006931Y011164D01*
X006931Y010954D01*
X006931Y010999D02*
X006701Y010999D01*
X006701Y011044D02*
X006931Y011044D01*
X006931Y011089D02*
X006701Y011089D01*
X006701Y011134D02*
X006931Y011134D01*
X006419Y010954D02*
X006189Y010954D01*
X006189Y011164D01*
X006419Y011164D01*
X006419Y010954D01*
X006419Y010999D02*
X006189Y010999D01*
X006189Y011044D02*
X006419Y011044D01*
X006419Y011089D02*
X006189Y011089D01*
X006189Y011134D02*
X006419Y011134D01*
X011734Y007720D02*
X011734Y007490D01*
X011524Y007490D01*
X011524Y007720D01*
X011734Y007720D01*
X011734Y007535D02*
X011524Y007535D01*
X011524Y007580D02*
X011734Y007580D01*
X011734Y007625D02*
X011524Y007625D01*
X011524Y007670D02*
X011734Y007670D01*
X011734Y007715D02*
X011524Y007715D01*
X011734Y007208D02*
X011734Y006978D01*
X011524Y006978D01*
X011524Y007208D01*
X011734Y007208D01*
X011734Y007023D02*
X011524Y007023D01*
X011524Y007068D02*
X011734Y007068D01*
X011734Y007113D02*
X011524Y007113D01*
X011524Y007158D02*
X011734Y007158D01*
X011734Y007203D02*
X011524Y007203D01*
X012463Y007234D02*
X012463Y007464D01*
X012463Y007234D02*
X012253Y007234D01*
X012253Y007464D01*
X012463Y007464D01*
X012463Y007279D02*
X012253Y007279D01*
X012253Y007324D02*
X012463Y007324D01*
X012463Y007369D02*
X012253Y007369D01*
X012253Y007414D02*
X012463Y007414D01*
X012463Y007459D02*
X012253Y007459D01*
X016642Y014557D02*
X016872Y014557D01*
X016642Y014557D02*
X016642Y014767D01*
X016872Y014767D01*
X016872Y014557D01*
X016872Y014602D02*
X016642Y014602D01*
X016642Y014647D02*
X016872Y014647D01*
X016872Y014692D02*
X016642Y014692D01*
X016642Y014737D02*
X016872Y014737D01*
X016898Y015285D02*
X017128Y015285D01*
X016898Y015285D02*
X016898Y015495D01*
X017128Y015495D01*
X017128Y015285D01*
X017128Y015330D02*
X016898Y015330D01*
X016898Y015375D02*
X017128Y015375D01*
X017128Y015420D02*
X016898Y015420D01*
X016898Y015465D02*
X017128Y015465D01*
X017522Y015600D02*
X017522Y015830D01*
X017522Y015600D02*
X017312Y015600D01*
X017312Y015830D01*
X017522Y015830D01*
X017522Y015645D02*
X017312Y015645D01*
X017312Y015690D02*
X017522Y015690D01*
X017522Y015735D02*
X017312Y015735D01*
X017312Y015780D02*
X017522Y015780D01*
X017522Y015825D02*
X017312Y015825D01*
X017522Y015318D02*
X017522Y015088D01*
X017312Y015088D01*
X017312Y015318D01*
X017522Y015318D01*
X017522Y015133D02*
X017312Y015133D01*
X017312Y015178D02*
X017522Y015178D01*
X017522Y015223D02*
X017312Y015223D01*
X017312Y015268D02*
X017522Y015268D01*
X017522Y015313D02*
X017312Y015313D01*
X016616Y015285D02*
X016386Y015285D01*
X016386Y015495D01*
X016616Y015495D01*
X016616Y015285D01*
X016616Y015330D02*
X016386Y015330D01*
X016386Y015375D02*
X016616Y015375D01*
X016616Y015420D02*
X016386Y015420D01*
X016386Y015465D02*
X016616Y015465D01*
X018250Y015574D02*
X018250Y015344D01*
X018040Y015344D01*
X018040Y015574D01*
X018250Y015574D01*
X018250Y015389D02*
X018040Y015389D01*
X018040Y015434D02*
X018250Y015434D01*
X018250Y015479D02*
X018040Y015479D01*
X018040Y015524D02*
X018250Y015524D01*
X018250Y015569D02*
X018040Y015569D01*
X021130Y012267D02*
X021130Y012037D01*
X021130Y012267D02*
X021340Y012267D01*
X021340Y012037D01*
X021130Y012037D01*
X021130Y012082D02*
X021340Y012082D01*
X021340Y012127D02*
X021130Y012127D01*
X021130Y012172D02*
X021340Y012172D01*
X021340Y012217D02*
X021130Y012217D01*
X021130Y012262D02*
X021340Y012262D01*
X021859Y012293D02*
X021859Y012523D01*
X022069Y012523D01*
X022069Y012293D01*
X021859Y012293D01*
X021859Y012338D02*
X022069Y012338D01*
X022069Y012383D02*
X021859Y012383D01*
X021859Y012428D02*
X022069Y012428D01*
X022069Y012473D02*
X021859Y012473D01*
X021859Y012518D02*
X022069Y012518D01*
X021859Y012011D02*
X021859Y011781D01*
X021859Y012011D02*
X022069Y012011D01*
X022069Y011781D01*
X021859Y011781D01*
X021859Y011826D02*
X022069Y011826D01*
X022069Y011871D02*
X021859Y011871D01*
X021859Y011916D02*
X022069Y011916D01*
X022069Y011961D02*
X021859Y011961D01*
X021859Y012006D02*
X022069Y012006D01*
X022600Y012011D02*
X022600Y011781D01*
X022390Y011781D01*
X022390Y012011D01*
X022600Y012011D01*
X022600Y011826D02*
X022390Y011826D01*
X022390Y011871D02*
X022600Y011871D01*
X022600Y011916D02*
X022390Y011916D01*
X022390Y011961D02*
X022600Y011961D01*
X022600Y012006D02*
X022390Y012006D01*
X022600Y011499D02*
X022600Y011269D01*
X022390Y011269D01*
X022390Y011499D01*
X022600Y011499D01*
X022600Y011314D02*
X022390Y011314D01*
X022390Y011359D02*
X022600Y011359D01*
X022600Y011404D02*
X022390Y011404D01*
X022390Y011449D02*
X022600Y011449D01*
X022600Y011494D02*
X022390Y011494D01*
X022528Y010836D02*
X022758Y010836D01*
X022528Y010836D02*
X022528Y011046D01*
X022758Y011046D01*
X022758Y010836D01*
X022758Y010881D02*
X022528Y010881D01*
X022528Y010926D02*
X022758Y010926D01*
X022758Y010971D02*
X022528Y010971D01*
X022528Y011016D02*
X022758Y011016D01*
X023040Y010836D02*
X023270Y010836D01*
X023040Y010836D02*
X023040Y011046D01*
X023270Y011046D01*
X023270Y010836D01*
X023270Y010881D02*
X023040Y010881D01*
X023040Y010926D02*
X023270Y010926D01*
X023270Y010971D02*
X023040Y010971D01*
X023040Y011016D02*
X023270Y011016D01*
X023329Y011525D02*
X023329Y011755D01*
X023329Y011525D02*
X023119Y011525D01*
X023119Y011755D01*
X023329Y011755D01*
X023329Y011570D02*
X023119Y011570D01*
X023119Y011615D02*
X023329Y011615D01*
X023329Y011660D02*
X023119Y011660D01*
X023119Y011705D02*
X023329Y011705D01*
X023329Y011750D02*
X023119Y011750D01*
X023014Y010108D02*
X022784Y010108D01*
X022784Y010318D01*
X023014Y010318D01*
X023014Y010108D01*
X023014Y010153D02*
X022784Y010153D01*
X022784Y010198D02*
X023014Y010198D01*
X023014Y010243D02*
X022784Y010243D01*
X022784Y010288D02*
X023014Y010288D01*
X024063Y010285D02*
X024293Y010285D01*
X024063Y010285D02*
X024063Y010495D01*
X024293Y010495D01*
X024293Y010285D01*
X024293Y010330D02*
X024063Y010330D01*
X024063Y010375D02*
X024293Y010375D01*
X024293Y010420D02*
X024063Y010420D01*
X024063Y010465D02*
X024293Y010465D01*
X024575Y010285D02*
X024805Y010285D01*
X024575Y010285D02*
X024575Y010495D01*
X024805Y010495D01*
X024805Y010285D01*
X024805Y010330D02*
X024575Y010330D01*
X024575Y010375D02*
X024805Y010375D01*
X024805Y010420D02*
X024575Y010420D01*
X024575Y010465D02*
X024805Y010465D01*
X024549Y009557D02*
X024319Y009557D01*
X024319Y009767D01*
X024549Y009767D01*
X024549Y009557D01*
X024549Y009602D02*
X024319Y009602D01*
X024319Y009647D02*
X024549Y009647D01*
X024549Y009692D02*
X024319Y009692D01*
X024319Y009737D02*
X024549Y009737D01*
X024726Y009334D02*
X024726Y009104D01*
X024516Y009104D01*
X024516Y009334D01*
X024726Y009334D01*
X024726Y009149D02*
X024516Y009149D01*
X024516Y009194D02*
X024726Y009194D01*
X024726Y009239D02*
X024516Y009239D01*
X024516Y009284D02*
X024726Y009284D01*
X024726Y009329D02*
X024516Y009329D01*
X024726Y008822D02*
X024726Y008592D01*
X024516Y008592D01*
X024516Y008822D01*
X024726Y008822D01*
X024726Y008637D02*
X024516Y008637D01*
X024516Y008682D02*
X024726Y008682D01*
X024726Y008727D02*
X024516Y008727D01*
X024516Y008772D02*
X024726Y008772D01*
X024726Y008817D02*
X024516Y008817D01*
X025455Y008848D02*
X025455Y009078D01*
X025455Y008848D02*
X025245Y008848D01*
X025245Y009078D01*
X025455Y009078D01*
X025455Y008893D02*
X025245Y008893D01*
X025245Y008938D02*
X025455Y008938D01*
X025455Y008983D02*
X025245Y008983D01*
X025245Y009028D02*
X025455Y009028D01*
X025455Y009073D02*
X025245Y009073D01*
X024136Y007208D02*
X023906Y007208D01*
X024136Y007208D02*
X024136Y006998D01*
X023906Y006998D01*
X023906Y007208D01*
X023906Y007043D02*
X024136Y007043D01*
X024136Y007088D02*
X023906Y007088D01*
X023906Y007133D02*
X024136Y007133D01*
X024136Y007178D02*
X023906Y007178D01*
X023880Y007936D02*
X023650Y007936D01*
X023880Y007936D02*
X023880Y007726D01*
X023650Y007726D01*
X023650Y007936D01*
X023650Y007771D02*
X023880Y007771D01*
X023880Y007816D02*
X023650Y007816D01*
X023650Y007861D02*
X023880Y007861D01*
X023880Y007906D02*
X023650Y007906D01*
X023624Y007208D02*
X023394Y007208D01*
X023624Y007208D02*
X023624Y006998D01*
X023394Y006998D01*
X023394Y007208D01*
X023394Y007043D02*
X023624Y007043D01*
X023624Y007088D02*
X023394Y007088D01*
X023394Y007133D02*
X023624Y007133D01*
X023624Y007178D02*
X023394Y007178D01*
X019792Y035600D02*
X019792Y035830D01*
X020002Y035830D01*
X020002Y035600D01*
X019792Y035600D01*
X019792Y035645D02*
X020002Y035645D01*
X020002Y035690D02*
X019792Y035690D01*
X019792Y035735D02*
X020002Y035735D01*
X020002Y035780D02*
X019792Y035780D01*
X019792Y035825D02*
X020002Y035825D01*
X019792Y036112D02*
X019792Y036342D01*
X020002Y036342D01*
X020002Y036112D01*
X019792Y036112D01*
X019792Y036157D02*
X020002Y036157D01*
X020002Y036202D02*
X019792Y036202D01*
X019792Y036247D02*
X020002Y036247D01*
X020002Y036292D02*
X019792Y036292D01*
X019792Y036337D02*
X020002Y036337D01*
X019064Y036086D02*
X019064Y035856D01*
X019064Y036086D02*
X019274Y036086D01*
X019274Y035856D01*
X019064Y035856D01*
X019064Y035901D02*
X019274Y035901D01*
X019274Y035946D02*
X019064Y035946D01*
X019064Y035991D02*
X019274Y035991D01*
X019274Y036036D02*
X019064Y036036D01*
X019064Y036081D02*
X019274Y036081D01*
D19*
X015294Y038931D02*
X015294Y039227D01*
X015890Y039227D01*
X015890Y038931D01*
X015294Y038931D01*
X015294Y038974D02*
X015890Y038974D01*
X015890Y039017D02*
X015294Y039017D01*
X015294Y039060D02*
X015890Y039060D01*
X015890Y039103D02*
X015294Y039103D01*
X015294Y039146D02*
X015890Y039146D01*
X015890Y039189D02*
X015294Y039189D01*
X015294Y040431D02*
X015294Y040727D01*
X015890Y040727D01*
X015890Y040431D01*
X015294Y040431D01*
X015294Y040474D02*
X015890Y040474D01*
X015890Y040517D02*
X015294Y040517D01*
X015294Y040560D02*
X015890Y040560D01*
X015890Y040603D02*
X015294Y040603D01*
X015294Y040646D02*
X015890Y040646D01*
X015890Y040689D02*
X015294Y040689D01*
X013294Y040727D02*
X013294Y040431D01*
X013294Y040727D02*
X013890Y040727D01*
X013890Y040431D01*
X013294Y040431D01*
X013294Y040474D02*
X013890Y040474D01*
X013890Y040517D02*
X013294Y040517D01*
X013294Y040560D02*
X013890Y040560D01*
X013890Y040603D02*
X013294Y040603D01*
X013294Y040646D02*
X013890Y040646D01*
X013890Y040689D02*
X013294Y040689D01*
X013294Y039227D02*
X013294Y038931D01*
X013294Y039227D02*
X013890Y039227D01*
X013890Y038931D01*
X013294Y038931D01*
X013294Y038974D02*
X013890Y038974D01*
X013890Y039017D02*
X013294Y039017D01*
X013294Y039060D02*
X013890Y039060D01*
X013890Y039103D02*
X013294Y039103D01*
X013294Y039146D02*
X013890Y039146D01*
X013890Y039189D02*
X013294Y039189D01*
D20*
X003686Y024357D03*
X025852Y039711D03*
X026639Y005459D03*
D21*
X027151Y030262D03*
X027151Y031262D03*
X027151Y032262D03*
X027151Y033262D03*
X027151Y034262D03*
X027151Y035262D03*
X024041Y035809D03*
X024041Y036809D03*
X007308Y031073D03*
X007308Y030073D03*
X007308Y029073D03*
X007308Y028073D03*
X003135Y023176D03*
X003135Y022176D03*
X005041Y035809D03*
X005041Y036809D03*
D22*
X013414Y043406D02*
X013604Y043406D01*
X013414Y043406D02*
X013414Y043832D01*
X013604Y043832D01*
X013604Y043406D01*
X013604Y043452D02*
X013414Y043452D01*
X013414Y043498D02*
X013604Y043498D01*
X013604Y043544D02*
X013414Y043544D01*
X013414Y043590D02*
X013604Y043590D01*
X013604Y043636D02*
X013414Y043636D01*
X013414Y043682D02*
X013604Y043682D01*
X013604Y043728D02*
X013414Y043728D01*
X013414Y043774D02*
X013604Y043774D01*
X013604Y043820D02*
X013414Y043820D01*
X013847Y043406D02*
X014037Y043406D01*
X013847Y043406D02*
X013847Y043832D01*
X014037Y043832D01*
X014037Y043406D01*
X014037Y043452D02*
X013847Y043452D01*
X013847Y043498D02*
X014037Y043498D01*
X014037Y043544D02*
X013847Y043544D01*
X013847Y043590D02*
X014037Y043590D01*
X014037Y043636D02*
X013847Y043636D01*
X013847Y043682D02*
X014037Y043682D01*
X014037Y043728D02*
X013847Y043728D01*
X013847Y043774D02*
X014037Y043774D01*
X014037Y043820D02*
X013847Y043820D01*
X014280Y043406D02*
X014470Y043406D01*
X014280Y043406D02*
X014280Y043832D01*
X014470Y043832D01*
X014470Y043406D01*
X014470Y043452D02*
X014280Y043452D01*
X014280Y043498D02*
X014470Y043498D01*
X014470Y043544D02*
X014280Y043544D01*
X014280Y043590D02*
X014470Y043590D01*
X014470Y043636D02*
X014280Y043636D01*
X014280Y043682D02*
X014470Y043682D01*
X014470Y043728D02*
X014280Y043728D01*
X014280Y043774D02*
X014470Y043774D01*
X014470Y043820D02*
X014280Y043820D01*
X014713Y043406D02*
X014903Y043406D01*
X014713Y043406D02*
X014713Y043832D01*
X014903Y043832D01*
X014903Y043406D01*
X014903Y043452D02*
X014713Y043452D01*
X014713Y043498D02*
X014903Y043498D01*
X014903Y043544D02*
X014713Y043544D01*
X014713Y043590D02*
X014903Y043590D01*
X014903Y043636D02*
X014713Y043636D01*
X014713Y043682D02*
X014903Y043682D01*
X014903Y043728D02*
X014713Y043728D01*
X014713Y043774D02*
X014903Y043774D01*
X014903Y043820D02*
X014713Y043820D01*
X015009Y043406D02*
X015199Y043406D01*
X015009Y043406D02*
X015009Y043832D01*
X015199Y043832D01*
X015199Y043406D01*
X015199Y043452D02*
X015009Y043452D01*
X015009Y043498D02*
X015199Y043498D01*
X015199Y043544D02*
X015009Y043544D01*
X015009Y043590D02*
X015199Y043590D01*
X015199Y043636D02*
X015009Y043636D01*
X015009Y043682D02*
X015199Y043682D01*
X015199Y043728D02*
X015009Y043728D01*
X015009Y043774D02*
X015199Y043774D01*
X015199Y043820D02*
X015009Y043820D01*
X015284Y043406D02*
X015474Y043406D01*
X015284Y043406D02*
X015284Y043832D01*
X015474Y043832D01*
X015474Y043406D01*
X015474Y043452D02*
X015284Y043452D01*
X015284Y043498D02*
X015474Y043498D01*
X015474Y043544D02*
X015284Y043544D01*
X015284Y043590D02*
X015474Y043590D01*
X015474Y043636D02*
X015284Y043636D01*
X015284Y043682D02*
X015474Y043682D01*
X015474Y043728D02*
X015284Y043728D01*
X015284Y043774D02*
X015474Y043774D01*
X015474Y043820D02*
X015284Y043820D01*
X015579Y043406D02*
X015769Y043406D01*
X015579Y043406D02*
X015579Y043832D01*
X015769Y043832D01*
X015769Y043406D01*
X015769Y043452D02*
X015579Y043452D01*
X015579Y043498D02*
X015769Y043498D01*
X015769Y043544D02*
X015579Y043544D01*
X015579Y043590D02*
X015769Y043590D01*
X015769Y043636D02*
X015579Y043636D01*
X015579Y043682D02*
X015769Y043682D01*
X015769Y043728D02*
X015579Y043728D01*
X015579Y043774D02*
X015769Y043774D01*
X015769Y043820D02*
X015579Y043820D01*
X016013Y043406D02*
X016203Y043406D01*
X016013Y043406D02*
X016013Y043832D01*
X016203Y043832D01*
X016203Y043406D01*
X016203Y043452D02*
X016013Y043452D01*
X016013Y043498D02*
X016203Y043498D01*
X016203Y043544D02*
X016013Y043544D01*
X016013Y043590D02*
X016203Y043590D01*
X016203Y043636D02*
X016013Y043636D01*
X016013Y043682D02*
X016203Y043682D01*
X016203Y043728D02*
X016013Y043728D01*
X016013Y043774D02*
X016203Y043774D01*
X016203Y043820D02*
X016013Y043820D01*
X016446Y043406D02*
X016636Y043406D01*
X016446Y043406D02*
X016446Y043832D01*
X016636Y043832D01*
X016636Y043406D01*
X016636Y043452D02*
X016446Y043452D01*
X016446Y043498D02*
X016636Y043498D01*
X016636Y043544D02*
X016446Y043544D01*
X016446Y043590D02*
X016636Y043590D01*
X016636Y043636D02*
X016446Y043636D01*
X016446Y043682D02*
X016636Y043682D01*
X016636Y043728D02*
X016446Y043728D01*
X016446Y043774D02*
X016636Y043774D01*
X016636Y043820D02*
X016446Y043820D01*
D23*
X022230Y043491D03*
X025615Y041207D03*
X007033Y043491D03*
X003332Y043491D03*
X004828Y019199D03*
D24*
X005382Y010633D02*
X005770Y010633D01*
X005770Y010403D01*
X005382Y010403D01*
X005382Y010633D01*
X005382Y010449D02*
X005770Y010449D01*
X005770Y010495D02*
X005382Y010495D01*
X005382Y010541D02*
X005770Y010541D01*
X005770Y010587D02*
X005382Y010587D01*
X005382Y010633D02*
X005770Y010633D01*
X002896Y010633D02*
X002508Y010633D01*
X002896Y010633D02*
X002896Y010403D01*
X002508Y010403D01*
X002508Y010633D01*
X002508Y010449D02*
X002896Y010449D01*
X002896Y010495D02*
X002508Y010495D01*
X002508Y010541D02*
X002896Y010541D01*
X002896Y010587D02*
X002508Y010587D01*
X002508Y010633D02*
X002896Y010633D01*
X009063Y009511D02*
X009063Y009281D01*
X009063Y009511D02*
X009333Y009511D01*
X009333Y009281D01*
X009063Y009281D01*
X009063Y009327D02*
X009333Y009327D01*
X009333Y009373D02*
X009063Y009373D01*
X009063Y009419D02*
X009333Y009419D01*
X009333Y009465D02*
X009063Y009465D01*
X009063Y009511D02*
X009333Y009511D01*
X009850Y009655D02*
X009850Y009885D01*
X010120Y009885D01*
X010120Y009655D01*
X009850Y009655D01*
X009850Y009701D02*
X010120Y009701D01*
X010120Y009747D02*
X009850Y009747D01*
X009850Y009793D02*
X010120Y009793D01*
X010120Y009839D02*
X009850Y009839D01*
X009850Y009885D02*
X010120Y009885D01*
X009850Y009137D02*
X009850Y008907D01*
X009850Y009137D02*
X010120Y009137D01*
X010120Y008907D01*
X009850Y008907D01*
X009850Y008953D02*
X010120Y008953D01*
X010120Y008999D02*
X009850Y008999D01*
X009850Y009045D02*
X010120Y009045D01*
X010120Y009091D02*
X009850Y009091D01*
X009850Y009137D02*
X010120Y009137D01*
X018782Y013986D02*
X018782Y014216D01*
X018782Y013986D02*
X018512Y013986D01*
X018512Y014216D01*
X018782Y014216D01*
X018782Y014032D02*
X018512Y014032D01*
X018512Y014078D02*
X018782Y014078D01*
X018782Y014124D02*
X018512Y014124D01*
X018512Y014170D02*
X018782Y014170D01*
X018782Y014216D02*
X018512Y014216D01*
X018782Y014734D02*
X018782Y014964D01*
X018782Y014734D02*
X018512Y014734D01*
X018512Y014964D01*
X018782Y014964D01*
X018782Y014780D02*
X018512Y014780D01*
X018512Y014826D02*
X018782Y014826D01*
X018782Y014872D02*
X018512Y014872D01*
X018512Y014918D02*
X018782Y014918D01*
X018782Y014964D02*
X018512Y014964D01*
X019569Y014590D02*
X019569Y014360D01*
X019299Y014360D01*
X019299Y014590D01*
X019569Y014590D01*
X019569Y014406D02*
X019299Y014406D01*
X019299Y014452D02*
X019569Y014452D01*
X019569Y014498D02*
X019299Y014498D01*
X019299Y014544D02*
X019569Y014544D01*
X019569Y014590D02*
X019299Y014590D01*
D25*
X015556Y017369D02*
X015320Y017369D01*
X015320Y017565D02*
X015556Y017565D01*
X015556Y017762D02*
X015320Y017762D01*
X015320Y017959D02*
X015556Y017959D01*
X015556Y018156D02*
X015320Y018156D01*
X015320Y018353D02*
X015556Y018353D01*
X015123Y018530D02*
X015123Y018786D01*
X014926Y018786D02*
X014926Y018530D01*
X014730Y018530D02*
X014730Y018786D01*
X014533Y018786D02*
X014533Y018530D01*
X014336Y018530D02*
X014336Y018786D01*
X014139Y018786D02*
X014139Y018530D01*
X013942Y018353D02*
X013706Y018353D01*
X013706Y018156D02*
X013942Y018156D01*
X013942Y017959D02*
X013706Y017959D01*
X013706Y017762D02*
X013942Y017762D01*
X013942Y017565D02*
X013706Y017565D01*
X013706Y017369D02*
X013942Y017369D01*
X014139Y017191D02*
X014139Y016935D01*
X014336Y016935D02*
X014336Y017191D01*
X014533Y017191D02*
X014533Y016935D01*
X014730Y016935D02*
X014730Y017191D01*
X014926Y017191D02*
X014926Y016935D01*
X015123Y016935D02*
X015123Y017191D01*
D26*
X023268Y015100D02*
X023268Y014952D01*
X022726Y014952D01*
X022726Y015100D01*
X023268Y015100D01*
X023268Y015000D02*
X022726Y015000D01*
X022726Y015048D02*
X023268Y015048D01*
X023268Y015096D02*
X022726Y015096D01*
X023268Y014844D02*
X023268Y014696D01*
X022726Y014696D01*
X022726Y014844D01*
X023268Y014844D01*
X023268Y014744D02*
X022726Y014744D01*
X022726Y014792D02*
X023268Y014792D01*
X023268Y014840D02*
X022726Y014840D01*
X023268Y014588D02*
X023268Y014440D01*
X022726Y014440D01*
X022726Y014588D01*
X023268Y014588D01*
X023268Y014488D02*
X022726Y014488D01*
X022726Y014536D02*
X023268Y014536D01*
X023268Y014584D02*
X022726Y014584D01*
X023268Y014332D02*
X023268Y014184D01*
X022726Y014184D01*
X022726Y014332D01*
X023268Y014332D01*
X023268Y014232D02*
X022726Y014232D01*
X022726Y014280D02*
X023268Y014280D01*
X023268Y014328D02*
X022726Y014328D01*
X023268Y014076D02*
X023268Y013928D01*
X022726Y013928D01*
X022726Y014076D01*
X023268Y014076D01*
X023268Y013976D02*
X022726Y013976D01*
X022726Y014024D02*
X023268Y014024D01*
X023268Y014072D02*
X022726Y014072D01*
D27*
X024474Y014396D02*
X024474Y013648D01*
X023764Y013648D01*
X023764Y014396D01*
X024474Y014396D01*
X024474Y013726D02*
X023764Y013726D01*
X023764Y013804D02*
X024474Y013804D01*
X024474Y013882D02*
X023764Y013882D01*
X023764Y013960D02*
X024474Y013960D01*
X024474Y014038D02*
X023764Y014038D01*
X023764Y014116D02*
X024474Y014116D01*
X024474Y014194D02*
X023764Y014194D01*
X023764Y014272D02*
X024474Y014272D01*
X024474Y014350D02*
X023764Y014350D01*
X024474Y014632D02*
X024474Y015380D01*
X024474Y014632D02*
X023764Y014632D01*
X023764Y015380D01*
X024474Y015380D01*
X024474Y014710D02*
X023764Y014710D01*
X023764Y014788D02*
X024474Y014788D01*
X024474Y014866D02*
X023764Y014866D01*
X023764Y014944D02*
X024474Y014944D01*
X024474Y015022D02*
X023764Y015022D01*
X023764Y015100D02*
X024474Y015100D01*
X024474Y015178D02*
X023764Y015178D01*
X023764Y015256D02*
X024474Y015256D01*
X024474Y015334D02*
X023764Y015334D01*
X024474Y015675D02*
X024474Y016503D01*
X024474Y015675D02*
X023764Y015675D01*
X023764Y016503D01*
X024474Y016503D01*
X024474Y015753D02*
X023764Y015753D01*
X023764Y015831D02*
X024474Y015831D01*
X024474Y015909D02*
X023764Y015909D01*
X023764Y015987D02*
X024474Y015987D01*
X024474Y016065D02*
X023764Y016065D01*
X023764Y016143D02*
X024474Y016143D01*
X024474Y016221D02*
X023764Y016221D01*
X023764Y016299D02*
X024474Y016299D01*
X024474Y016377D02*
X023764Y016377D01*
X023764Y016455D02*
X024474Y016455D01*
X024474Y013353D02*
X024474Y012525D01*
X023764Y012525D01*
X023764Y013353D01*
X024474Y013353D01*
X024474Y012603D02*
X023764Y012603D01*
X023764Y012681D02*
X024474Y012681D01*
X024474Y012759D02*
X023764Y012759D01*
X023764Y012837D02*
X024474Y012837D01*
X024474Y012915D02*
X023764Y012915D01*
X023764Y012993D02*
X024474Y012993D01*
X024474Y013071D02*
X023764Y013071D01*
X023764Y013149D02*
X024474Y013149D01*
X024474Y013227D02*
X023764Y013227D01*
X023764Y013305D02*
X024474Y013305D01*
D28*
X023368Y013694D02*
X023368Y012894D01*
X022764Y012894D01*
X022764Y013694D01*
X023368Y013694D01*
X023368Y012960D02*
X022764Y012960D01*
X022764Y013026D02*
X023368Y013026D01*
X023368Y013092D02*
X022764Y013092D01*
X022764Y013158D02*
X023368Y013158D01*
X023368Y013224D02*
X022764Y013224D01*
X022764Y013290D02*
X023368Y013290D01*
X023368Y013356D02*
X022764Y013356D01*
X022764Y013422D02*
X023368Y013422D01*
X023368Y013488D02*
X022764Y013488D01*
X022764Y013554D02*
X023368Y013554D01*
X023368Y013620D02*
X022764Y013620D01*
X022764Y013686D02*
X023368Y013686D01*
X023368Y015335D02*
X023368Y016135D01*
X023368Y015335D02*
X022764Y015335D01*
X022764Y016135D01*
X023368Y016135D01*
X023368Y015401D02*
X022764Y015401D01*
X022764Y015467D02*
X023368Y015467D01*
X023368Y015533D02*
X022764Y015533D01*
X022764Y015599D02*
X023368Y015599D01*
X023368Y015665D02*
X022764Y015665D01*
X022764Y015731D02*
X023368Y015731D01*
X023368Y015797D02*
X022764Y015797D01*
X022764Y015863D02*
X023368Y015863D01*
X023368Y015929D02*
X022764Y015929D01*
X022764Y015995D02*
X023368Y015995D01*
X023368Y016061D02*
X022764Y016061D01*
X022764Y016127D02*
X023368Y016127D01*
X022650Y017572D02*
X022046Y017572D01*
X022650Y017572D02*
X022650Y016654D01*
X022046Y016654D01*
X022046Y017572D01*
X022046Y016720D02*
X022650Y016720D01*
X022650Y016786D02*
X022046Y016786D01*
X022046Y016852D02*
X022650Y016852D01*
X022650Y016918D02*
X022046Y016918D01*
X022046Y016984D02*
X022650Y016984D01*
X022650Y017050D02*
X022046Y017050D01*
X022046Y017116D02*
X022650Y017116D01*
X022650Y017182D02*
X022046Y017182D01*
X022046Y017248D02*
X022650Y017248D01*
X022650Y017314D02*
X022046Y017314D01*
X022046Y017380D02*
X022650Y017380D01*
X022650Y017446D02*
X022046Y017446D01*
X022046Y017512D02*
X022650Y017512D01*
X022650Y018831D02*
X022046Y018831D01*
X022650Y018831D02*
X022650Y017913D01*
X022046Y017913D01*
X022046Y018831D01*
X022046Y017979D02*
X022650Y017979D01*
X022650Y018045D02*
X022046Y018045D01*
X022046Y018111D02*
X022650Y018111D01*
X022650Y018177D02*
X022046Y018177D01*
X022046Y018243D02*
X022650Y018243D01*
X022650Y018309D02*
X022046Y018309D01*
X022046Y018375D02*
X022650Y018375D01*
X022650Y018441D02*
X022046Y018441D01*
X022046Y018507D02*
X022650Y018507D01*
X022650Y018573D02*
X022046Y018573D01*
X022046Y018639D02*
X022650Y018639D01*
X022650Y018705D02*
X022046Y018705D01*
X022046Y018771D02*
X022650Y018771D01*
X021469Y017913D02*
X020865Y017913D01*
X020865Y018831D01*
X021469Y018831D01*
X021469Y017913D01*
X021469Y017979D02*
X020865Y017979D01*
X020865Y018045D02*
X021469Y018045D01*
X021469Y018111D02*
X020865Y018111D01*
X020865Y018177D02*
X021469Y018177D01*
X021469Y018243D02*
X020865Y018243D01*
X020865Y018309D02*
X021469Y018309D01*
X021469Y018375D02*
X020865Y018375D01*
X020865Y018441D02*
X021469Y018441D01*
X021469Y018507D02*
X020865Y018507D01*
X020865Y018573D02*
X021469Y018573D01*
X021469Y018639D02*
X020865Y018639D01*
X020865Y018705D02*
X021469Y018705D01*
X021469Y018771D02*
X020865Y018771D01*
X020865Y016654D02*
X021469Y016654D01*
X020865Y016654D02*
X020865Y017572D01*
X021469Y017572D01*
X021469Y016654D01*
X021469Y016720D02*
X020865Y016720D01*
X020865Y016786D02*
X021469Y016786D01*
X021469Y016852D02*
X020865Y016852D01*
X020865Y016918D02*
X021469Y016918D01*
X021469Y016984D02*
X020865Y016984D01*
X020865Y017050D02*
X021469Y017050D01*
X021469Y017116D02*
X020865Y017116D01*
X020865Y017182D02*
X021469Y017182D01*
X021469Y017248D02*
X020865Y017248D01*
X020865Y017314D02*
X021469Y017314D01*
X021469Y017380D02*
X020865Y017380D01*
X020865Y017446D02*
X021469Y017446D01*
X021469Y017512D02*
X020865Y017512D01*
X022846Y021082D02*
X022846Y021686D01*
X022846Y021082D02*
X021928Y021082D01*
X021928Y021686D01*
X022846Y021686D01*
X022846Y021148D02*
X021928Y021148D01*
X021928Y021214D02*
X022846Y021214D01*
X022846Y021280D02*
X021928Y021280D01*
X021928Y021346D02*
X022846Y021346D01*
X022846Y021412D02*
X021928Y021412D01*
X021928Y021478D02*
X022846Y021478D01*
X022846Y021544D02*
X021928Y021544D01*
X021928Y021610D02*
X022846Y021610D01*
X022846Y021676D02*
X021928Y021676D01*
X021928Y022263D02*
X021928Y022867D01*
X022846Y022867D01*
X022846Y022263D01*
X021928Y022263D01*
X021928Y022329D02*
X022846Y022329D01*
X022846Y022395D02*
X021928Y022395D01*
X021928Y022461D02*
X022846Y022461D01*
X022846Y022527D02*
X021928Y022527D01*
X021928Y022593D02*
X022846Y022593D01*
X022846Y022659D02*
X021928Y022659D01*
X021928Y022725D02*
X022846Y022725D01*
X022846Y022791D02*
X021928Y022791D01*
X021928Y022857D02*
X022846Y022857D01*
X021862Y026496D02*
X021862Y027100D01*
X021862Y026496D02*
X020944Y026496D01*
X020944Y027100D01*
X021862Y027100D01*
X021862Y026562D02*
X020944Y026562D01*
X020944Y026628D02*
X021862Y026628D01*
X021862Y026694D02*
X020944Y026694D01*
X020944Y026760D02*
X021862Y026760D01*
X021862Y026826D02*
X020944Y026826D01*
X020944Y026892D02*
X021862Y026892D01*
X021862Y026958D02*
X020944Y026958D01*
X020944Y027024D02*
X021862Y027024D01*
X021862Y027090D02*
X020944Y027090D01*
X020944Y027677D02*
X020944Y028281D01*
X021862Y028281D01*
X021862Y027677D01*
X020944Y027677D01*
X020944Y027743D02*
X021862Y027743D01*
X021862Y027809D02*
X020944Y027809D01*
X020944Y027875D02*
X021862Y027875D01*
X021862Y027941D02*
X020944Y027941D01*
X020944Y028007D02*
X021862Y028007D01*
X021862Y028073D02*
X020944Y028073D01*
X020944Y028139D02*
X021862Y028139D01*
X021862Y028205D02*
X020944Y028205D01*
X020944Y028271D02*
X021862Y028271D01*
X012204Y023045D02*
X012204Y022441D01*
X012204Y023045D02*
X013122Y023045D01*
X013122Y022441D01*
X012204Y022441D01*
X012204Y022507D02*
X013122Y022507D01*
X013122Y022573D02*
X012204Y022573D01*
X012204Y022639D02*
X013122Y022639D01*
X013122Y022705D02*
X012204Y022705D01*
X012204Y022771D02*
X013122Y022771D01*
X013122Y022837D02*
X012204Y022837D01*
X012204Y022903D02*
X013122Y022903D01*
X013122Y022969D02*
X012204Y022969D01*
X012204Y023035D02*
X013122Y023035D01*
X013122Y021863D02*
X013122Y021259D01*
X012204Y021259D01*
X012204Y021863D01*
X013122Y021863D01*
X013122Y021325D02*
X012204Y021325D01*
X012204Y021391D02*
X013122Y021391D01*
X013122Y021457D02*
X012204Y021457D01*
X012204Y021523D02*
X013122Y021523D01*
X013122Y021589D02*
X012204Y021589D01*
X012204Y021655D02*
X013122Y021655D01*
X013122Y021721D02*
X012204Y021721D01*
X012204Y021787D02*
X013122Y021787D01*
X013122Y021853D02*
X012204Y021853D01*
X008949Y024737D02*
X008345Y024737D01*
X008949Y024737D02*
X008949Y023819D01*
X008345Y023819D01*
X008345Y024737D01*
X008345Y023885D02*
X008949Y023885D01*
X008949Y023951D02*
X008345Y023951D01*
X008345Y024017D02*
X008949Y024017D01*
X008949Y024083D02*
X008345Y024083D01*
X008345Y024149D02*
X008949Y024149D01*
X008949Y024215D02*
X008345Y024215D01*
X008345Y024281D02*
X008949Y024281D01*
X008949Y024347D02*
X008345Y024347D01*
X008345Y024413D02*
X008949Y024413D01*
X008949Y024479D02*
X008345Y024479D01*
X008345Y024545D02*
X008949Y024545D01*
X008949Y024611D02*
X008345Y024611D01*
X008345Y024677D02*
X008949Y024677D01*
X008516Y025879D02*
X007912Y025879D01*
X008516Y025879D02*
X008516Y024961D01*
X007912Y024961D01*
X007912Y025879D01*
X007912Y025027D02*
X008516Y025027D01*
X008516Y025093D02*
X007912Y025093D01*
X007912Y025159D02*
X008516Y025159D01*
X008516Y025225D02*
X007912Y025225D01*
X007912Y025291D02*
X008516Y025291D01*
X008516Y025357D02*
X007912Y025357D01*
X007912Y025423D02*
X008516Y025423D01*
X008516Y025489D02*
X007912Y025489D01*
X007912Y025555D02*
X008516Y025555D01*
X008516Y025621D02*
X007912Y025621D01*
X007912Y025687D02*
X008516Y025687D01*
X008516Y025753D02*
X007912Y025753D01*
X007912Y025819D02*
X008516Y025819D01*
X007768Y023819D02*
X007164Y023819D01*
X007164Y024737D01*
X007768Y024737D01*
X007768Y023819D01*
X007768Y023885D02*
X007164Y023885D01*
X007164Y023951D02*
X007768Y023951D01*
X007768Y024017D02*
X007164Y024017D01*
X007164Y024083D02*
X007768Y024083D01*
X007768Y024149D02*
X007164Y024149D01*
X007164Y024215D02*
X007768Y024215D01*
X007768Y024281D02*
X007164Y024281D01*
X007164Y024347D02*
X007768Y024347D01*
X007768Y024413D02*
X007164Y024413D01*
X007164Y024479D02*
X007768Y024479D01*
X007768Y024545D02*
X007164Y024545D01*
X007164Y024611D02*
X007768Y024611D01*
X007768Y024677D02*
X007164Y024677D01*
X007335Y024961D02*
X006731Y024961D01*
X006731Y025879D01*
X007335Y025879D01*
X007335Y024961D01*
X007335Y025027D02*
X006731Y025027D01*
X006731Y025093D02*
X007335Y025093D01*
X007335Y025159D02*
X006731Y025159D01*
X006731Y025225D02*
X007335Y025225D01*
X007335Y025291D02*
X006731Y025291D01*
X006731Y025357D02*
X007335Y025357D01*
X007335Y025423D02*
X006731Y025423D01*
X006731Y025489D02*
X007335Y025489D01*
X007335Y025555D02*
X006731Y025555D01*
X006731Y025621D02*
X007335Y025621D01*
X007335Y025687D02*
X006731Y025687D01*
X006731Y025753D02*
X007335Y025753D01*
X007335Y025819D02*
X006731Y025819D01*
D29*
X005770Y009845D02*
X005382Y009845D01*
X005770Y009845D02*
X005770Y009537D01*
X005382Y009537D01*
X005382Y009845D01*
X005382Y009582D02*
X005770Y009582D01*
X005770Y009627D02*
X005382Y009627D01*
X005382Y009672D02*
X005770Y009672D01*
X005770Y009717D02*
X005382Y009717D01*
X005382Y009762D02*
X005770Y009762D01*
X005770Y009807D02*
X005382Y009807D01*
X005316Y007687D02*
X005446Y007408D01*
X005316Y007687D02*
X006022Y008016D01*
X006152Y007737D01*
X005446Y007408D01*
X005425Y007453D02*
X005543Y007453D01*
X005639Y007498D02*
X005404Y007498D01*
X005383Y007543D02*
X005736Y007543D01*
X005832Y007588D02*
X005362Y007588D01*
X005341Y007633D02*
X005929Y007633D01*
X006025Y007678D02*
X005320Y007678D01*
X005393Y007723D02*
X006122Y007723D01*
X006138Y007768D02*
X005490Y007768D01*
X005586Y007813D02*
X006117Y007813D01*
X006096Y007858D02*
X005683Y007858D01*
X005780Y007903D02*
X006075Y007903D01*
X006054Y007948D02*
X005876Y007948D01*
X005973Y007993D02*
X006033Y007993D01*
X005524Y007241D02*
X005654Y006962D01*
X005524Y007241D02*
X006230Y007570D01*
X006360Y007291D01*
X005654Y006962D01*
X005633Y007007D02*
X005751Y007007D01*
X005847Y007052D02*
X005612Y007052D01*
X005591Y007097D02*
X005944Y007097D01*
X006040Y007142D02*
X005570Y007142D01*
X005549Y007187D02*
X006137Y007187D01*
X006233Y007232D02*
X005528Y007232D01*
X005601Y007277D02*
X006330Y007277D01*
X006346Y007322D02*
X005698Y007322D01*
X005794Y007367D02*
X006325Y007367D01*
X006304Y007412D02*
X005891Y007412D01*
X005988Y007457D02*
X006283Y007457D01*
X006262Y007502D02*
X006084Y007502D01*
X006181Y007547D02*
X006241Y007547D01*
X002896Y009845D02*
X002508Y009845D01*
X002896Y009845D02*
X002896Y009537D01*
X002508Y009537D01*
X002508Y009845D01*
X002508Y009582D02*
X002896Y009582D01*
X002896Y009627D02*
X002508Y009627D01*
X002508Y009672D02*
X002896Y009672D01*
X002896Y009717D02*
X002508Y009717D01*
X002508Y009762D02*
X002896Y009762D01*
X002896Y009807D02*
X002508Y009807D01*
D30*
X003525Y008197D02*
X003854Y007491D01*
X003525Y008197D02*
X004552Y008677D01*
X004881Y007971D01*
X003854Y007491D01*
X003814Y007577D02*
X004038Y007577D01*
X004222Y007663D02*
X003774Y007663D01*
X003734Y007749D02*
X004406Y007749D01*
X004590Y007835D02*
X003694Y007835D01*
X003654Y007921D02*
X004774Y007921D01*
X004864Y008007D02*
X003614Y008007D01*
X003573Y008093D02*
X004824Y008093D01*
X004784Y008179D02*
X003533Y008179D01*
X003670Y008265D02*
X004744Y008265D01*
X004704Y008351D02*
X003854Y008351D01*
X004039Y008437D02*
X004664Y008437D01*
X004624Y008523D02*
X004223Y008523D01*
X004407Y008609D02*
X004584Y008609D01*
X004565Y005967D02*
X004894Y005261D01*
X004565Y005967D02*
X005592Y006447D01*
X005921Y005741D01*
X004894Y005261D01*
X004854Y005347D02*
X005078Y005347D01*
X005262Y005433D02*
X004814Y005433D01*
X004774Y005519D02*
X005446Y005519D01*
X005630Y005605D02*
X004734Y005605D01*
X004694Y005691D02*
X005814Y005691D01*
X005904Y005777D02*
X004654Y005777D01*
X004613Y005863D02*
X005864Y005863D01*
X005824Y005949D02*
X004573Y005949D01*
X004710Y006035D02*
X005784Y006035D01*
X005744Y006121D02*
X004894Y006121D01*
X005079Y006207D02*
X005704Y006207D01*
X005664Y006293D02*
X005263Y006293D01*
X005447Y006379D02*
X005624Y006379D01*
D31*
X006038Y011735D02*
X006038Y011979D01*
X006532Y011979D01*
X006532Y011735D01*
X006038Y011735D01*
X006038Y011780D02*
X006532Y011780D01*
X006532Y011825D02*
X006038Y011825D01*
X006038Y011870D02*
X006532Y011870D01*
X006532Y011915D02*
X006038Y011915D01*
X006038Y011960D02*
X006532Y011960D01*
X006038Y012089D02*
X006038Y012333D01*
X006532Y012333D01*
X006532Y012089D01*
X006038Y012089D01*
X006038Y012134D02*
X006532Y012134D01*
X006532Y012179D02*
X006038Y012179D01*
X006038Y012224D02*
X006532Y012224D01*
X006532Y012269D02*
X006038Y012269D01*
X006038Y012314D02*
X006532Y012314D01*
X006825Y012333D02*
X006825Y012089D01*
X006825Y012333D02*
X007319Y012333D01*
X007319Y012089D01*
X006825Y012089D01*
X006825Y012134D02*
X007319Y012134D01*
X007319Y012179D02*
X006825Y012179D01*
X006825Y012224D02*
X007319Y012224D01*
X007319Y012269D02*
X006825Y012269D01*
X006825Y012314D02*
X007319Y012314D01*
X006825Y011979D02*
X006825Y011735D01*
X006825Y011979D02*
X007319Y011979D01*
X007319Y011735D01*
X006825Y011735D01*
X006825Y011780D02*
X007319Y011780D01*
X007319Y011825D02*
X006825Y011825D01*
X006825Y011870D02*
X007319Y011870D01*
X007319Y011915D02*
X006825Y011915D01*
X006825Y011960D02*
X007319Y011960D01*
X010311Y021995D02*
X010311Y022239D01*
X010311Y021995D02*
X009817Y021995D01*
X009817Y022239D01*
X010311Y022239D01*
X010311Y022040D02*
X009817Y022040D01*
X009817Y022085D02*
X010311Y022085D01*
X010311Y022130D02*
X009817Y022130D01*
X009817Y022175D02*
X010311Y022175D01*
X010311Y022220D02*
X009817Y022220D01*
X010311Y022345D02*
X010311Y022589D01*
X010311Y022345D02*
X009817Y022345D01*
X009817Y022589D01*
X010311Y022589D01*
X010311Y022390D02*
X009817Y022390D01*
X009817Y022435D02*
X010311Y022435D01*
X010311Y022480D02*
X009817Y022480D01*
X009817Y022525D02*
X010311Y022525D01*
X010311Y022570D02*
X009817Y022570D01*
X010311Y022695D02*
X010311Y022939D01*
X010311Y022695D02*
X009817Y022695D01*
X009817Y022939D01*
X010311Y022939D01*
X010311Y022740D02*
X009817Y022740D01*
X009817Y022785D02*
X010311Y022785D01*
X010311Y022830D02*
X009817Y022830D01*
X009817Y022875D02*
X010311Y022875D01*
X010311Y022920D02*
X009817Y022920D01*
X017387Y021297D02*
X017631Y021297D01*
X017631Y020803D01*
X017387Y020803D01*
X017387Y021297D01*
X017387Y020848D02*
X017631Y020848D01*
X017631Y020893D02*
X017387Y020893D01*
X017387Y020938D02*
X017631Y020938D01*
X017631Y020983D02*
X017387Y020983D01*
X017387Y021028D02*
X017631Y021028D01*
X017631Y021073D02*
X017387Y021073D01*
X017387Y021118D02*
X017631Y021118D01*
X017631Y021163D02*
X017387Y021163D01*
X017387Y021208D02*
X017631Y021208D01*
X017631Y021253D02*
X017387Y021253D01*
X017737Y021297D02*
X017981Y021297D01*
X017981Y020803D01*
X017737Y020803D01*
X017737Y021297D01*
X017737Y020848D02*
X017981Y020848D01*
X017981Y020893D02*
X017737Y020893D01*
X017737Y020938D02*
X017981Y020938D01*
X017981Y020983D02*
X017737Y020983D01*
X017737Y021028D02*
X017981Y021028D01*
X017981Y021073D02*
X017737Y021073D01*
X017737Y021118D02*
X017981Y021118D01*
X017981Y021163D02*
X017737Y021163D01*
X017737Y021208D02*
X017981Y021208D01*
X017981Y021253D02*
X017737Y021253D01*
X018087Y021297D02*
X018331Y021297D01*
X018331Y020803D01*
X018087Y020803D01*
X018087Y021297D01*
X018087Y020848D02*
X018331Y020848D01*
X018331Y020893D02*
X018087Y020893D01*
X018087Y020938D02*
X018331Y020938D01*
X018331Y020983D02*
X018087Y020983D01*
X018087Y021028D02*
X018331Y021028D01*
X018331Y021073D02*
X018087Y021073D01*
X018087Y021118D02*
X018331Y021118D01*
X018331Y021163D02*
X018087Y021163D01*
X018087Y021208D02*
X018331Y021208D01*
X018331Y021253D02*
X018087Y021253D01*
X025254Y006866D02*
X025498Y006866D01*
X025254Y006866D02*
X025254Y007360D01*
X025498Y007360D01*
X025498Y006866D01*
X025498Y006911D02*
X025254Y006911D01*
X025254Y006956D02*
X025498Y006956D01*
X025498Y007001D02*
X025254Y007001D01*
X025254Y007046D02*
X025498Y007046D01*
X025498Y007091D02*
X025254Y007091D01*
X025254Y007136D02*
X025498Y007136D01*
X025498Y007181D02*
X025254Y007181D01*
X025254Y007226D02*
X025498Y007226D01*
X025498Y007271D02*
X025254Y007271D01*
X025254Y007316D02*
X025498Y007316D01*
X025654Y006866D02*
X025898Y006866D01*
X025654Y006866D02*
X025654Y007360D01*
X025898Y007360D01*
X025898Y006866D01*
X025898Y006911D02*
X025654Y006911D01*
X025654Y006956D02*
X025898Y006956D01*
X025898Y007001D02*
X025654Y007001D01*
X025654Y007046D02*
X025898Y007046D01*
X025898Y007091D02*
X025654Y007091D01*
X025654Y007136D02*
X025898Y007136D01*
X025898Y007181D02*
X025654Y007181D01*
X025654Y007226D02*
X025898Y007226D01*
X025898Y007271D02*
X025654Y007271D01*
X025654Y007316D02*
X025898Y007316D01*
X018815Y035814D02*
X018815Y036058D01*
X018815Y035814D02*
X018321Y035814D01*
X018321Y036058D01*
X018815Y036058D01*
X018815Y035859D02*
X018321Y035859D01*
X018321Y035904D02*
X018815Y035904D01*
X018815Y035949D02*
X018321Y035949D01*
X018321Y035994D02*
X018815Y035994D01*
X018815Y036039D02*
X018321Y036039D01*
X018815Y036164D02*
X018815Y036408D01*
X018815Y036164D02*
X018321Y036164D01*
X018321Y036408D01*
X018815Y036408D01*
X018815Y036209D02*
X018321Y036209D01*
X018321Y036254D02*
X018815Y036254D01*
X018815Y036299D02*
X018321Y036299D01*
X018321Y036344D02*
X018815Y036344D01*
X018815Y036389D02*
X018321Y036389D01*
X018815Y036514D02*
X018815Y036758D01*
X018815Y036514D02*
X018321Y036514D01*
X018321Y036758D01*
X018815Y036758D01*
X018815Y036559D02*
X018321Y036559D01*
X018321Y036604D02*
X018815Y036604D01*
X018815Y036649D02*
X018321Y036649D01*
X018321Y036694D02*
X018815Y036694D01*
X018815Y036739D02*
X018321Y036739D01*
X017529Y038029D02*
X017285Y038029D01*
X017529Y038029D02*
X017529Y037535D01*
X017285Y037535D01*
X017285Y038029D01*
X017285Y037580D02*
X017529Y037580D01*
X017529Y037625D02*
X017285Y037625D01*
X017285Y037670D02*
X017529Y037670D01*
X017529Y037715D02*
X017285Y037715D01*
X017285Y037760D02*
X017529Y037760D01*
X017529Y037805D02*
X017285Y037805D01*
X017285Y037850D02*
X017529Y037850D01*
X017529Y037895D02*
X017285Y037895D01*
X017285Y037940D02*
X017529Y037940D01*
X017529Y037985D02*
X017285Y037985D01*
X017174Y038029D02*
X016930Y038029D01*
X017174Y038029D02*
X017174Y037535D01*
X016930Y037535D01*
X016930Y038029D01*
X016930Y037580D02*
X017174Y037580D01*
X017174Y037625D02*
X016930Y037625D01*
X016930Y037670D02*
X017174Y037670D01*
X017174Y037715D02*
X016930Y037715D01*
X016930Y037760D02*
X017174Y037760D01*
X017174Y037805D02*
X016930Y037805D01*
X016930Y037850D02*
X017174Y037850D01*
X017174Y037895D02*
X016930Y037895D01*
X016930Y037940D02*
X017174Y037940D01*
X017174Y037985D02*
X016930Y037985D01*
X016804Y040706D02*
X016560Y040706D01*
X016804Y040706D02*
X016804Y040212D01*
X016560Y040212D01*
X016560Y040706D01*
X016560Y040257D02*
X016804Y040257D01*
X016804Y040302D02*
X016560Y040302D01*
X016560Y040347D02*
X016804Y040347D01*
X016804Y040392D02*
X016560Y040392D01*
X016560Y040437D02*
X016804Y040437D01*
X016804Y040482D02*
X016560Y040482D01*
X016560Y040527D02*
X016804Y040527D01*
X016804Y040572D02*
X016560Y040572D01*
X016560Y040617D02*
X016804Y040617D01*
X016804Y040662D02*
X016560Y040662D01*
X016404Y040706D02*
X016160Y040706D01*
X016404Y040706D02*
X016404Y040212D01*
X016160Y040212D01*
X016160Y040706D01*
X016160Y040257D02*
X016404Y040257D01*
X016404Y040302D02*
X016160Y040302D01*
X016160Y040347D02*
X016404Y040347D01*
X016404Y040392D02*
X016160Y040392D01*
X016160Y040437D02*
X016404Y040437D01*
X016404Y040482D02*
X016160Y040482D01*
X016160Y040527D02*
X016404Y040527D01*
X016404Y040572D02*
X016160Y040572D01*
X016160Y040617D02*
X016404Y040617D01*
X016404Y040662D02*
X016160Y040662D01*
D32*
X016321Y022385D02*
X016321Y021683D01*
X015895Y021683D01*
X015895Y022385D01*
X016321Y022385D01*
X016321Y021729D02*
X015895Y021729D01*
X015895Y021775D02*
X016321Y021775D01*
X016321Y021821D02*
X015895Y021821D01*
X015895Y021867D02*
X016321Y021867D01*
X016321Y021913D02*
X015895Y021913D01*
X015895Y021959D02*
X016321Y021959D01*
X016321Y022005D02*
X015895Y022005D01*
X015895Y022051D02*
X016321Y022051D01*
X016321Y022097D02*
X015895Y022097D01*
X015895Y022143D02*
X016321Y022143D01*
X016321Y022189D02*
X015895Y022189D01*
X015895Y022235D02*
X016321Y022235D01*
X016321Y022281D02*
X015895Y022281D01*
X015895Y022327D02*
X016321Y022327D01*
X016321Y022373D02*
X015895Y022373D01*
X015100Y022385D02*
X015100Y021683D01*
X014674Y021683D01*
X014674Y022385D01*
X015100Y022385D01*
X015100Y021729D02*
X014674Y021729D01*
X014674Y021775D02*
X015100Y021775D01*
X015100Y021821D02*
X014674Y021821D01*
X014674Y021867D02*
X015100Y021867D01*
X015100Y021913D02*
X014674Y021913D01*
X014674Y021959D02*
X015100Y021959D01*
X015100Y022005D02*
X014674Y022005D01*
X014674Y022051D02*
X015100Y022051D01*
X015100Y022097D02*
X014674Y022097D01*
X014674Y022143D02*
X015100Y022143D01*
X015100Y022189D02*
X014674Y022189D01*
X014674Y022235D02*
X015100Y022235D01*
X015100Y022281D02*
X014674Y022281D01*
X014674Y022327D02*
X015100Y022327D01*
X015100Y022373D02*
X014674Y022373D01*
D33*
X026456Y028861D03*
D34*
X026456Y028361D03*
X026456Y027861D03*
X026456Y027361D03*
X025956Y027361D03*
X025956Y027861D03*
X025956Y028361D03*
X025956Y028861D03*
X025956Y026861D03*
X026456Y026861D03*
D35*
X022112Y026009D02*
X022112Y025539D01*
X022112Y026009D02*
X022504Y026009D01*
X022504Y025539D01*
X022112Y025539D01*
X022112Y025581D02*
X022504Y025581D01*
X022504Y025623D02*
X022112Y025623D01*
X022112Y025665D02*
X022504Y025665D01*
X022504Y025707D02*
X022112Y025707D01*
X022112Y025749D02*
X022504Y025749D01*
X022504Y025791D02*
X022112Y025791D01*
X022112Y025833D02*
X022504Y025833D01*
X022504Y025875D02*
X022112Y025875D01*
X022112Y025917D02*
X022504Y025917D01*
X022504Y025959D02*
X022112Y025959D01*
X022112Y026001D02*
X022504Y026001D01*
X021874Y026009D02*
X021874Y025539D01*
X021482Y025539D01*
X021482Y026009D01*
X021874Y026009D01*
X021874Y025581D02*
X021482Y025581D01*
X021482Y025623D02*
X021874Y025623D01*
X021874Y025665D02*
X021482Y025665D01*
X021482Y025707D02*
X021874Y025707D01*
X021874Y025749D02*
X021482Y025749D01*
X021482Y025791D02*
X021874Y025791D01*
X021874Y025833D02*
X021482Y025833D01*
X021482Y025875D02*
X021874Y025875D01*
X021874Y025917D02*
X021482Y025917D01*
X021482Y025959D02*
X021874Y025959D01*
X021874Y026001D02*
X021482Y026001D01*
X021874Y025143D02*
X021874Y024673D01*
X021482Y024673D01*
X021482Y025143D01*
X021874Y025143D01*
X021874Y024715D02*
X021482Y024715D01*
X021482Y024757D02*
X021874Y024757D01*
X021874Y024799D02*
X021482Y024799D01*
X021482Y024841D02*
X021874Y024841D01*
X021874Y024883D02*
X021482Y024883D01*
X021482Y024925D02*
X021874Y024925D01*
X021874Y024967D02*
X021482Y024967D01*
X021482Y025009D02*
X021874Y025009D01*
X021874Y025051D02*
X021482Y025051D01*
X021482Y025093D02*
X021874Y025093D01*
X021874Y025135D02*
X021482Y025135D01*
X022112Y025143D02*
X022112Y024673D01*
X022112Y025143D02*
X022504Y025143D01*
X022504Y024673D01*
X022112Y024673D01*
X022112Y024715D02*
X022504Y024715D01*
X022504Y024757D02*
X022112Y024757D01*
X022112Y024799D02*
X022504Y024799D01*
X022504Y024841D02*
X022112Y024841D01*
X022112Y024883D02*
X022504Y024883D01*
X022504Y024925D02*
X022112Y024925D01*
X022112Y024967D02*
X022504Y024967D01*
X022504Y025009D02*
X022112Y025009D01*
X022112Y025051D02*
X022504Y025051D01*
X022504Y025093D02*
X022112Y025093D01*
X022112Y025135D02*
X022504Y025135D01*
X021993Y015950D02*
X021993Y015558D01*
X021601Y015558D01*
X021601Y015950D01*
X021993Y015950D01*
X021993Y015600D02*
X021601Y015600D01*
X021601Y015642D02*
X021993Y015642D01*
X021993Y015684D02*
X021601Y015684D01*
X021601Y015726D02*
X021993Y015726D01*
X021993Y015768D02*
X021601Y015768D01*
X021601Y015810D02*
X021993Y015810D01*
X021993Y015852D02*
X021601Y015852D01*
X021601Y015894D02*
X021993Y015894D01*
X021993Y015936D02*
X021601Y015936D01*
X021993Y015163D02*
X021993Y014771D01*
X021601Y014771D01*
X021601Y015163D01*
X021993Y015163D01*
X021993Y014813D02*
X021601Y014813D01*
X021601Y014855D02*
X021993Y014855D01*
X021993Y014897D02*
X021601Y014897D01*
X021601Y014939D02*
X021993Y014939D01*
X021993Y014981D02*
X021601Y014981D01*
X021601Y015023D02*
X021993Y015023D01*
X021993Y015065D02*
X021601Y015065D01*
X021601Y015107D02*
X021993Y015107D01*
X021993Y015149D02*
X021601Y015149D01*
X021601Y014513D02*
X021601Y014121D01*
X021601Y014513D02*
X021993Y014513D01*
X021993Y014121D01*
X021601Y014121D01*
X021601Y014163D02*
X021993Y014163D01*
X021993Y014205D02*
X021601Y014205D01*
X021601Y014247D02*
X021993Y014247D01*
X021993Y014289D02*
X021601Y014289D01*
X021601Y014331D02*
X021993Y014331D01*
X021993Y014373D02*
X021601Y014373D01*
X021601Y014415D02*
X021993Y014415D01*
X021993Y014457D02*
X021601Y014457D01*
X021601Y014499D02*
X021993Y014499D01*
X021601Y013726D02*
X021601Y013334D01*
X021601Y013726D02*
X021993Y013726D01*
X021993Y013334D01*
X021601Y013334D01*
X021601Y013376D02*
X021993Y013376D01*
X021993Y013418D02*
X021601Y013418D01*
X021601Y013460D02*
X021993Y013460D01*
X021993Y013502D02*
X021601Y013502D01*
X021601Y013544D02*
X021993Y013544D01*
X021993Y013586D02*
X021601Y013586D01*
X021601Y013628D02*
X021993Y013628D01*
X021993Y013670D02*
X021601Y013670D01*
X021601Y013712D02*
X021993Y013712D01*
X022152Y013096D02*
X022544Y013096D01*
X022544Y012704D01*
X022152Y012704D01*
X022152Y013096D01*
X022152Y012746D02*
X022544Y012746D01*
X022544Y012788D02*
X022152Y012788D01*
X022152Y012830D02*
X022544Y012830D01*
X022544Y012872D02*
X022152Y012872D01*
X022152Y012914D02*
X022544Y012914D01*
X022544Y012956D02*
X022152Y012956D01*
X022152Y012998D02*
X022544Y012998D01*
X022544Y013040D02*
X022152Y013040D01*
X022152Y013082D02*
X022544Y013082D01*
X021756Y013096D02*
X021364Y013096D01*
X021756Y013096D02*
X021756Y012704D01*
X021364Y012704D01*
X021364Y013096D01*
X021364Y012746D02*
X021756Y012746D01*
X021756Y012788D02*
X021364Y012788D01*
X021364Y012830D02*
X021756Y012830D01*
X021756Y012872D02*
X021364Y012872D01*
X021364Y012914D02*
X021756Y012914D01*
X021756Y012956D02*
X021364Y012956D01*
X021364Y012998D02*
X021756Y012998D01*
X021756Y013040D02*
X021364Y013040D01*
X021364Y013082D02*
X021756Y013082D01*
X010260Y023216D02*
X010260Y023686D01*
X010260Y023216D02*
X009868Y023216D01*
X009868Y023686D01*
X010260Y023686D01*
X010260Y023258D02*
X009868Y023258D01*
X009868Y023300D02*
X010260Y023300D01*
X010260Y023342D02*
X009868Y023342D01*
X009868Y023384D02*
X010260Y023384D01*
X010260Y023426D02*
X009868Y023426D01*
X009868Y023468D02*
X010260Y023468D01*
X010260Y023510D02*
X009868Y023510D01*
X009868Y023552D02*
X010260Y023552D01*
X010260Y023594D02*
X009868Y023594D01*
X009868Y023636D02*
X010260Y023636D01*
X010260Y023678D02*
X009868Y023678D01*
X010260Y024082D02*
X010260Y024552D01*
X010260Y024082D02*
X009868Y024082D01*
X009868Y024552D01*
X010260Y024552D01*
X010260Y024124D02*
X009868Y024124D01*
X009868Y024166D02*
X010260Y024166D01*
X010260Y024208D02*
X009868Y024208D01*
X009868Y024250D02*
X010260Y024250D01*
X010260Y024292D02*
X009868Y024292D01*
X009868Y024334D02*
X010260Y024334D01*
X010260Y024376D02*
X009868Y024376D01*
X009868Y024418D02*
X010260Y024418D01*
X010260Y024460D02*
X009868Y024460D01*
X009868Y024502D02*
X010260Y024502D01*
X010260Y024544D02*
X009868Y024544D01*
X009630Y024552D02*
X009630Y024082D01*
X009238Y024082D01*
X009238Y024552D01*
X009630Y024552D01*
X009630Y024124D02*
X009238Y024124D01*
X009238Y024166D02*
X009630Y024166D01*
X009630Y024208D02*
X009238Y024208D01*
X009238Y024250D02*
X009630Y024250D01*
X009630Y024292D02*
X009238Y024292D01*
X009238Y024334D02*
X009630Y024334D01*
X009630Y024376D02*
X009238Y024376D01*
X009238Y024418D02*
X009630Y024418D01*
X009630Y024460D02*
X009238Y024460D01*
X009238Y024502D02*
X009630Y024502D01*
X009630Y024544D02*
X009238Y024544D01*
X009630Y023686D02*
X009630Y023216D01*
X009238Y023216D01*
X009238Y023686D01*
X009630Y023686D01*
X009630Y023258D02*
X009238Y023258D01*
X009238Y023300D02*
X009630Y023300D01*
X009630Y023342D02*
X009238Y023342D01*
X009238Y023384D02*
X009630Y023384D01*
X009630Y023426D02*
X009238Y023426D01*
X009238Y023468D02*
X009630Y023468D01*
X009630Y023510D02*
X009238Y023510D01*
X009238Y023552D02*
X009630Y023552D01*
X009630Y023594D02*
X009238Y023594D01*
X009238Y023636D02*
X009630Y023636D01*
X009630Y023678D02*
X009238Y023678D01*
D36*
X008568Y033536D02*
X008336Y033536D01*
X008568Y033536D02*
X008568Y032674D01*
X008336Y032674D01*
X008336Y033536D01*
X008336Y032721D02*
X008568Y032721D01*
X008568Y032768D02*
X008336Y032768D01*
X008336Y032815D02*
X008568Y032815D01*
X008568Y032862D02*
X008336Y032862D01*
X008336Y032909D02*
X008568Y032909D01*
X008568Y032956D02*
X008336Y032956D01*
X008336Y033003D02*
X008568Y033003D01*
X008568Y033050D02*
X008336Y033050D01*
X008336Y033097D02*
X008568Y033097D01*
X008568Y033144D02*
X008336Y033144D01*
X008336Y033191D02*
X008568Y033191D01*
X008568Y033238D02*
X008336Y033238D01*
X008336Y033285D02*
X008568Y033285D01*
X008568Y033332D02*
X008336Y033332D01*
X008336Y033379D02*
X008568Y033379D01*
X008568Y033426D02*
X008336Y033426D01*
X008336Y033473D02*
X008568Y033473D01*
X008568Y033520D02*
X008336Y033520D01*
X008068Y033536D02*
X007836Y033536D01*
X008068Y033536D02*
X008068Y032674D01*
X007836Y032674D01*
X007836Y033536D01*
X007836Y032721D02*
X008068Y032721D01*
X008068Y032768D02*
X007836Y032768D01*
X007836Y032815D02*
X008068Y032815D01*
X008068Y032862D02*
X007836Y032862D01*
X007836Y032909D02*
X008068Y032909D01*
X008068Y032956D02*
X007836Y032956D01*
X007836Y033003D02*
X008068Y033003D01*
X008068Y033050D02*
X007836Y033050D01*
X007836Y033097D02*
X008068Y033097D01*
X008068Y033144D02*
X007836Y033144D01*
X007836Y033191D02*
X008068Y033191D01*
X008068Y033238D02*
X007836Y033238D01*
X007836Y033285D02*
X008068Y033285D01*
X008068Y033332D02*
X007836Y033332D01*
X007836Y033379D02*
X008068Y033379D01*
X008068Y033426D02*
X007836Y033426D01*
X007836Y033473D02*
X008068Y033473D01*
X008068Y033520D02*
X007836Y033520D01*
X007568Y033536D02*
X007336Y033536D01*
X007568Y033536D02*
X007568Y032674D01*
X007336Y032674D01*
X007336Y033536D01*
X007336Y032721D02*
X007568Y032721D01*
X007568Y032768D02*
X007336Y032768D01*
X007336Y032815D02*
X007568Y032815D01*
X007568Y032862D02*
X007336Y032862D01*
X007336Y032909D02*
X007568Y032909D01*
X007568Y032956D02*
X007336Y032956D01*
X007336Y033003D02*
X007568Y033003D01*
X007568Y033050D02*
X007336Y033050D01*
X007336Y033097D02*
X007568Y033097D01*
X007568Y033144D02*
X007336Y033144D01*
X007336Y033191D02*
X007568Y033191D01*
X007568Y033238D02*
X007336Y033238D01*
X007336Y033285D02*
X007568Y033285D01*
X007568Y033332D02*
X007336Y033332D01*
X007336Y033379D02*
X007568Y033379D01*
X007568Y033426D02*
X007336Y033426D01*
X007336Y033473D02*
X007568Y033473D01*
X007568Y033520D02*
X007336Y033520D01*
X007068Y033536D02*
X006836Y033536D01*
X007068Y033536D02*
X007068Y032674D01*
X006836Y032674D01*
X006836Y033536D01*
X006836Y032721D02*
X007068Y032721D01*
X007068Y032768D02*
X006836Y032768D01*
X006836Y032815D02*
X007068Y032815D01*
X007068Y032862D02*
X006836Y032862D01*
X006836Y032909D02*
X007068Y032909D01*
X007068Y032956D02*
X006836Y032956D01*
X006836Y033003D02*
X007068Y033003D01*
X007068Y033050D02*
X006836Y033050D01*
X006836Y033097D02*
X007068Y033097D01*
X007068Y033144D02*
X006836Y033144D01*
X006836Y033191D02*
X007068Y033191D01*
X007068Y033238D02*
X006836Y033238D01*
X006836Y033285D02*
X007068Y033285D01*
X007068Y033332D02*
X006836Y033332D01*
X006836Y033379D02*
X007068Y033379D01*
X007068Y033426D02*
X006836Y033426D01*
X006836Y033473D02*
X007068Y033473D01*
X007068Y033520D02*
X006836Y033520D01*
X006836Y033984D02*
X007068Y033984D01*
X006836Y033984D02*
X006836Y034846D01*
X007068Y034846D01*
X007068Y033984D01*
X007068Y034031D02*
X006836Y034031D01*
X006836Y034078D02*
X007068Y034078D01*
X007068Y034125D02*
X006836Y034125D01*
X006836Y034172D02*
X007068Y034172D01*
X007068Y034219D02*
X006836Y034219D01*
X006836Y034266D02*
X007068Y034266D01*
X007068Y034313D02*
X006836Y034313D01*
X006836Y034360D02*
X007068Y034360D01*
X007068Y034407D02*
X006836Y034407D01*
X006836Y034454D02*
X007068Y034454D01*
X007068Y034501D02*
X006836Y034501D01*
X006836Y034548D02*
X007068Y034548D01*
X007068Y034595D02*
X006836Y034595D01*
X006836Y034642D02*
X007068Y034642D01*
X007068Y034689D02*
X006836Y034689D01*
X006836Y034736D02*
X007068Y034736D01*
X007068Y034783D02*
X006836Y034783D01*
X006836Y034830D02*
X007068Y034830D01*
X007336Y033984D02*
X007568Y033984D01*
X007336Y033984D02*
X007336Y034846D01*
X007568Y034846D01*
X007568Y033984D01*
X007568Y034031D02*
X007336Y034031D01*
X007336Y034078D02*
X007568Y034078D01*
X007568Y034125D02*
X007336Y034125D01*
X007336Y034172D02*
X007568Y034172D01*
X007568Y034219D02*
X007336Y034219D01*
X007336Y034266D02*
X007568Y034266D01*
X007568Y034313D02*
X007336Y034313D01*
X007336Y034360D02*
X007568Y034360D01*
X007568Y034407D02*
X007336Y034407D01*
X007336Y034454D02*
X007568Y034454D01*
X007568Y034501D02*
X007336Y034501D01*
X007336Y034548D02*
X007568Y034548D01*
X007568Y034595D02*
X007336Y034595D01*
X007336Y034642D02*
X007568Y034642D01*
X007568Y034689D02*
X007336Y034689D01*
X007336Y034736D02*
X007568Y034736D01*
X007568Y034783D02*
X007336Y034783D01*
X007336Y034830D02*
X007568Y034830D01*
X007836Y033984D02*
X008068Y033984D01*
X007836Y033984D02*
X007836Y034846D01*
X008068Y034846D01*
X008068Y033984D01*
X008068Y034031D02*
X007836Y034031D01*
X007836Y034078D02*
X008068Y034078D01*
X008068Y034125D02*
X007836Y034125D01*
X007836Y034172D02*
X008068Y034172D01*
X008068Y034219D02*
X007836Y034219D01*
X007836Y034266D02*
X008068Y034266D01*
X008068Y034313D02*
X007836Y034313D01*
X007836Y034360D02*
X008068Y034360D01*
X008068Y034407D02*
X007836Y034407D01*
X007836Y034454D02*
X008068Y034454D01*
X008068Y034501D02*
X007836Y034501D01*
X007836Y034548D02*
X008068Y034548D01*
X008068Y034595D02*
X007836Y034595D01*
X007836Y034642D02*
X008068Y034642D01*
X008068Y034689D02*
X007836Y034689D01*
X007836Y034736D02*
X008068Y034736D01*
X008068Y034783D02*
X007836Y034783D01*
X007836Y034830D02*
X008068Y034830D01*
X008336Y033984D02*
X008568Y033984D01*
X008336Y033984D02*
X008336Y034846D01*
X008568Y034846D01*
X008568Y033984D01*
X008568Y034031D02*
X008336Y034031D01*
X008336Y034078D02*
X008568Y034078D01*
X008568Y034125D02*
X008336Y034125D01*
X008336Y034172D02*
X008568Y034172D01*
X008568Y034219D02*
X008336Y034219D01*
X008336Y034266D02*
X008568Y034266D01*
X008568Y034313D02*
X008336Y034313D01*
X008336Y034360D02*
X008568Y034360D01*
X008568Y034407D02*
X008336Y034407D01*
X008336Y034454D02*
X008568Y034454D01*
X008568Y034501D02*
X008336Y034501D01*
X008336Y034548D02*
X008568Y034548D01*
X008568Y034595D02*
X008336Y034595D01*
X008336Y034642D02*
X008568Y034642D01*
X008568Y034689D02*
X008336Y034689D01*
X008336Y034736D02*
X008568Y034736D01*
X008568Y034783D02*
X008336Y034783D01*
X008336Y034830D02*
X008568Y034830D01*
X008568Y036186D02*
X008336Y036186D01*
X008568Y036186D02*
X008568Y035324D01*
X008336Y035324D01*
X008336Y036186D01*
X008336Y035371D02*
X008568Y035371D01*
X008568Y035418D02*
X008336Y035418D01*
X008336Y035465D02*
X008568Y035465D01*
X008568Y035512D02*
X008336Y035512D01*
X008336Y035559D02*
X008568Y035559D01*
X008568Y035606D02*
X008336Y035606D01*
X008336Y035653D02*
X008568Y035653D01*
X008568Y035700D02*
X008336Y035700D01*
X008336Y035747D02*
X008568Y035747D01*
X008568Y035794D02*
X008336Y035794D01*
X008336Y035841D02*
X008568Y035841D01*
X008568Y035888D02*
X008336Y035888D01*
X008336Y035935D02*
X008568Y035935D01*
X008568Y035982D02*
X008336Y035982D01*
X008336Y036029D02*
X008568Y036029D01*
X008568Y036076D02*
X008336Y036076D01*
X008336Y036123D02*
X008568Y036123D01*
X008568Y036170D02*
X008336Y036170D01*
X008068Y036186D02*
X007836Y036186D01*
X008068Y036186D02*
X008068Y035324D01*
X007836Y035324D01*
X007836Y036186D01*
X007836Y035371D02*
X008068Y035371D01*
X008068Y035418D02*
X007836Y035418D01*
X007836Y035465D02*
X008068Y035465D01*
X008068Y035512D02*
X007836Y035512D01*
X007836Y035559D02*
X008068Y035559D01*
X008068Y035606D02*
X007836Y035606D01*
X007836Y035653D02*
X008068Y035653D01*
X008068Y035700D02*
X007836Y035700D01*
X007836Y035747D02*
X008068Y035747D01*
X008068Y035794D02*
X007836Y035794D01*
X007836Y035841D02*
X008068Y035841D01*
X008068Y035888D02*
X007836Y035888D01*
X007836Y035935D02*
X008068Y035935D01*
X008068Y035982D02*
X007836Y035982D01*
X007836Y036029D02*
X008068Y036029D01*
X008068Y036076D02*
X007836Y036076D01*
X007836Y036123D02*
X008068Y036123D01*
X008068Y036170D02*
X007836Y036170D01*
X007568Y036186D02*
X007336Y036186D01*
X007568Y036186D02*
X007568Y035324D01*
X007336Y035324D01*
X007336Y036186D01*
X007336Y035371D02*
X007568Y035371D01*
X007568Y035418D02*
X007336Y035418D01*
X007336Y035465D02*
X007568Y035465D01*
X007568Y035512D02*
X007336Y035512D01*
X007336Y035559D02*
X007568Y035559D01*
X007568Y035606D02*
X007336Y035606D01*
X007336Y035653D02*
X007568Y035653D01*
X007568Y035700D02*
X007336Y035700D01*
X007336Y035747D02*
X007568Y035747D01*
X007568Y035794D02*
X007336Y035794D01*
X007336Y035841D02*
X007568Y035841D01*
X007568Y035888D02*
X007336Y035888D01*
X007336Y035935D02*
X007568Y035935D01*
X007568Y035982D02*
X007336Y035982D01*
X007336Y036029D02*
X007568Y036029D01*
X007568Y036076D02*
X007336Y036076D01*
X007336Y036123D02*
X007568Y036123D01*
X007568Y036170D02*
X007336Y036170D01*
X007068Y036186D02*
X006836Y036186D01*
X007068Y036186D02*
X007068Y035324D01*
X006836Y035324D01*
X006836Y036186D01*
X006836Y035371D02*
X007068Y035371D01*
X007068Y035418D02*
X006836Y035418D01*
X006836Y035465D02*
X007068Y035465D01*
X007068Y035512D02*
X006836Y035512D01*
X006836Y035559D02*
X007068Y035559D01*
X007068Y035606D02*
X006836Y035606D01*
X006836Y035653D02*
X007068Y035653D01*
X007068Y035700D02*
X006836Y035700D01*
X006836Y035747D02*
X007068Y035747D01*
X007068Y035794D02*
X006836Y035794D01*
X006836Y035841D02*
X007068Y035841D01*
X007068Y035888D02*
X006836Y035888D01*
X006836Y035935D02*
X007068Y035935D01*
X007068Y035982D02*
X006836Y035982D01*
X006836Y036029D02*
X007068Y036029D01*
X007068Y036076D02*
X006836Y036076D01*
X006836Y036123D02*
X007068Y036123D01*
X007068Y036170D02*
X006836Y036170D01*
X006836Y036634D02*
X007068Y036634D01*
X006836Y036634D02*
X006836Y037496D01*
X007068Y037496D01*
X007068Y036634D01*
X007068Y036681D02*
X006836Y036681D01*
X006836Y036728D02*
X007068Y036728D01*
X007068Y036775D02*
X006836Y036775D01*
X006836Y036822D02*
X007068Y036822D01*
X007068Y036869D02*
X006836Y036869D01*
X006836Y036916D02*
X007068Y036916D01*
X007068Y036963D02*
X006836Y036963D01*
X006836Y037010D02*
X007068Y037010D01*
X007068Y037057D02*
X006836Y037057D01*
X006836Y037104D02*
X007068Y037104D01*
X007068Y037151D02*
X006836Y037151D01*
X006836Y037198D02*
X007068Y037198D01*
X007068Y037245D02*
X006836Y037245D01*
X006836Y037292D02*
X007068Y037292D01*
X007068Y037339D02*
X006836Y037339D01*
X006836Y037386D02*
X007068Y037386D01*
X007068Y037433D02*
X006836Y037433D01*
X006836Y037480D02*
X007068Y037480D01*
X007336Y036634D02*
X007568Y036634D01*
X007336Y036634D02*
X007336Y037496D01*
X007568Y037496D01*
X007568Y036634D01*
X007568Y036681D02*
X007336Y036681D01*
X007336Y036728D02*
X007568Y036728D01*
X007568Y036775D02*
X007336Y036775D01*
X007336Y036822D02*
X007568Y036822D01*
X007568Y036869D02*
X007336Y036869D01*
X007336Y036916D02*
X007568Y036916D01*
X007568Y036963D02*
X007336Y036963D01*
X007336Y037010D02*
X007568Y037010D01*
X007568Y037057D02*
X007336Y037057D01*
X007336Y037104D02*
X007568Y037104D01*
X007568Y037151D02*
X007336Y037151D01*
X007336Y037198D02*
X007568Y037198D01*
X007568Y037245D02*
X007336Y037245D01*
X007336Y037292D02*
X007568Y037292D01*
X007568Y037339D02*
X007336Y037339D01*
X007336Y037386D02*
X007568Y037386D01*
X007568Y037433D02*
X007336Y037433D01*
X007336Y037480D02*
X007568Y037480D01*
X007836Y036634D02*
X008068Y036634D01*
X007836Y036634D02*
X007836Y037496D01*
X008068Y037496D01*
X008068Y036634D01*
X008068Y036681D02*
X007836Y036681D01*
X007836Y036728D02*
X008068Y036728D01*
X008068Y036775D02*
X007836Y036775D01*
X007836Y036822D02*
X008068Y036822D01*
X008068Y036869D02*
X007836Y036869D01*
X007836Y036916D02*
X008068Y036916D01*
X008068Y036963D02*
X007836Y036963D01*
X007836Y037010D02*
X008068Y037010D01*
X008068Y037057D02*
X007836Y037057D01*
X007836Y037104D02*
X008068Y037104D01*
X008068Y037151D02*
X007836Y037151D01*
X007836Y037198D02*
X008068Y037198D01*
X008068Y037245D02*
X007836Y037245D01*
X007836Y037292D02*
X008068Y037292D01*
X008068Y037339D02*
X007836Y037339D01*
X007836Y037386D02*
X008068Y037386D01*
X008068Y037433D02*
X007836Y037433D01*
X007836Y037480D02*
X008068Y037480D01*
X008336Y036634D02*
X008568Y036634D01*
X008336Y036634D02*
X008336Y037496D01*
X008568Y037496D01*
X008568Y036634D01*
X008568Y036681D02*
X008336Y036681D01*
X008336Y036728D02*
X008568Y036728D01*
X008568Y036775D02*
X008336Y036775D01*
X008336Y036822D02*
X008568Y036822D01*
X008568Y036869D02*
X008336Y036869D01*
X008336Y036916D02*
X008568Y036916D01*
X008568Y036963D02*
X008336Y036963D01*
X008336Y037010D02*
X008568Y037010D01*
X008568Y037057D02*
X008336Y037057D01*
X008336Y037104D02*
X008568Y037104D01*
X008568Y037151D02*
X008336Y037151D01*
X008336Y037198D02*
X008568Y037198D01*
X008568Y037245D02*
X008336Y037245D01*
X008336Y037292D02*
X008568Y037292D01*
X008568Y037339D02*
X008336Y037339D01*
X008336Y037386D02*
X008568Y037386D01*
X008568Y037433D02*
X008336Y037433D01*
X008336Y037480D02*
X008568Y037480D01*
X011953Y012048D02*
X012585Y012048D01*
X012585Y011816D01*
X011953Y011816D01*
X011953Y012048D01*
X011953Y011863D02*
X012585Y011863D01*
X012585Y011910D02*
X011953Y011910D01*
X011953Y011957D02*
X012585Y011957D01*
X012585Y012004D02*
X011953Y012004D01*
X011953Y011548D02*
X012585Y011548D01*
X012585Y011316D01*
X011953Y011316D01*
X011953Y011548D01*
X011953Y011363D02*
X012585Y011363D01*
X012585Y011410D02*
X011953Y011410D01*
X011953Y011457D02*
X012585Y011457D01*
X012585Y011504D02*
X011953Y011504D01*
X011953Y011048D02*
X012585Y011048D01*
X012585Y010816D01*
X011953Y010816D01*
X011953Y011048D01*
X011953Y010863D02*
X012585Y010863D01*
X012585Y010910D02*
X011953Y010910D01*
X011953Y010957D02*
X012585Y010957D01*
X012585Y011004D02*
X011953Y011004D01*
X011953Y010548D02*
X012585Y010548D01*
X012585Y010316D01*
X011953Y010316D01*
X011953Y010548D01*
X011953Y010363D02*
X012585Y010363D01*
X012585Y010410D02*
X011953Y010410D01*
X011953Y010457D02*
X012585Y010457D01*
X012585Y010504D02*
X011953Y010504D01*
X011953Y010048D02*
X012585Y010048D01*
X012585Y009816D01*
X011953Y009816D01*
X011953Y010048D01*
X011953Y009863D02*
X012585Y009863D01*
X012585Y009910D02*
X011953Y009910D01*
X011953Y009957D02*
X012585Y009957D01*
X012585Y010004D02*
X011953Y010004D01*
D37*
X005041Y020809D03*
X005041Y021809D03*
X005041Y022809D03*
X005041Y023809D03*
X005041Y024809D03*
X005041Y025809D03*
X005041Y026809D03*
X005041Y027809D03*
X005041Y029809D03*
X005041Y030809D03*
X005041Y031809D03*
X005041Y032809D03*
X005041Y033809D03*
X005041Y034809D03*
X024041Y034809D03*
X024041Y033809D03*
X024041Y032809D03*
X024041Y031809D03*
X024041Y030809D03*
X024041Y029809D03*
X024041Y028809D03*
X024041Y027809D03*
X024041Y026209D03*
X024041Y025209D03*
X024041Y024209D03*
X024041Y023209D03*
X024041Y022209D03*
X024041Y021209D03*
X024041Y020209D03*
X024041Y019209D03*
X024041Y018209D03*
X024041Y017209D03*
D38*
X016041Y034859D03*
X015041Y034859D03*
X015041Y035859D03*
X016041Y035859D03*
X014041Y035859D03*
X014041Y034859D03*
X012041Y034859D03*
X011041Y034859D03*
X011041Y035859D03*
X011041Y036859D03*
X011041Y037859D03*
X011041Y038859D03*
X011041Y039859D03*
X011041Y040859D03*
X011041Y041859D03*
X012041Y041859D03*
X012041Y040859D03*
X012041Y039859D03*
X012041Y038859D03*
X012041Y037859D03*
X012041Y036859D03*
X012041Y035859D03*
D39*
X019614Y040363D03*
D40*
X020672Y041421D03*
D41*
X019198Y034357D03*
X019946Y034160D03*
X020537Y034042D03*
X020970Y033648D03*
X021206Y032388D03*
X021206Y031798D03*
X020458Y031995D03*
X019297Y032624D03*
X022781Y030262D03*
X022781Y029672D03*
X012328Y034042D03*
X010222Y019908D03*
X009434Y019908D03*
D42*
X007917Y008502D02*
X007917Y008242D01*
X007917Y008502D02*
X007999Y008502D01*
X007999Y008242D01*
X007917Y008242D01*
X007917Y008298D02*
X007999Y008298D01*
X007999Y008354D02*
X007917Y008354D01*
X007917Y008410D02*
X007999Y008410D01*
X007999Y008466D02*
X007917Y008466D01*
X007720Y008502D02*
X007720Y008242D01*
X007720Y008502D02*
X007802Y008502D01*
X007802Y008242D01*
X007720Y008242D01*
X007720Y008298D02*
X007802Y008298D01*
X007802Y008354D02*
X007720Y008354D01*
X007720Y008410D02*
X007802Y008410D01*
X007802Y008466D02*
X007720Y008466D01*
X007523Y008502D02*
X007523Y008242D01*
X007523Y008502D02*
X007605Y008502D01*
X007605Y008242D01*
X007523Y008242D01*
X007523Y008298D02*
X007605Y008298D01*
X007605Y008354D02*
X007523Y008354D01*
X007523Y008410D02*
X007605Y008410D01*
X007605Y008466D02*
X007523Y008466D01*
X007326Y008502D02*
X007326Y008242D01*
X007326Y008502D02*
X007408Y008502D01*
X007408Y008242D01*
X007326Y008242D01*
X007326Y008298D02*
X007408Y008298D01*
X007408Y008354D02*
X007326Y008354D01*
X007326Y008410D02*
X007408Y008410D01*
X007408Y008466D02*
X007326Y008466D01*
X007241Y008076D02*
X006981Y008076D01*
X006981Y008158D01*
X007241Y008158D01*
X007241Y008076D01*
X007241Y008132D02*
X006981Y008132D01*
X006981Y007879D02*
X007241Y007879D01*
X006981Y007879D02*
X006981Y007961D01*
X007241Y007961D01*
X007241Y007879D01*
X007241Y007935D02*
X006981Y007935D01*
X006981Y007682D02*
X007241Y007682D01*
X006981Y007682D02*
X006981Y007764D01*
X007241Y007764D01*
X007241Y007682D01*
X007241Y007738D02*
X006981Y007738D01*
X006981Y007485D02*
X007241Y007485D01*
X006981Y007485D02*
X006981Y007567D01*
X007241Y007567D01*
X007241Y007485D01*
X007241Y007541D02*
X006981Y007541D01*
X006981Y007288D02*
X007241Y007288D01*
X006981Y007288D02*
X006981Y007370D01*
X007241Y007370D01*
X007241Y007288D01*
X007241Y007344D02*
X006981Y007344D01*
X006981Y007091D02*
X007241Y007091D01*
X006981Y007091D02*
X006981Y007173D01*
X007241Y007173D01*
X007241Y007091D01*
X007241Y007147D02*
X006981Y007147D01*
X007408Y007006D02*
X007408Y006746D01*
X007326Y006746D01*
X007326Y007006D01*
X007408Y007006D01*
X007408Y006802D02*
X007326Y006802D01*
X007326Y006858D02*
X007408Y006858D01*
X007408Y006914D02*
X007326Y006914D01*
X007326Y006970D02*
X007408Y006970D01*
X007605Y007006D02*
X007605Y006746D01*
X007523Y006746D01*
X007523Y007006D01*
X007605Y007006D01*
X007605Y006802D02*
X007523Y006802D01*
X007523Y006858D02*
X007605Y006858D01*
X007605Y006914D02*
X007523Y006914D01*
X007523Y006970D02*
X007605Y006970D01*
X007802Y007006D02*
X007802Y006746D01*
X007720Y006746D01*
X007720Y007006D01*
X007802Y007006D01*
X007802Y006802D02*
X007720Y006802D01*
X007720Y006858D02*
X007802Y006858D01*
X007802Y006914D02*
X007720Y006914D01*
X007720Y006970D02*
X007802Y006970D01*
X007999Y007006D02*
X007999Y006746D01*
X007917Y006746D01*
X007917Y007006D01*
X007999Y007006D01*
X007999Y006802D02*
X007917Y006802D01*
X007917Y006858D02*
X007999Y006858D01*
X007999Y006914D02*
X007917Y006914D01*
X007917Y006970D02*
X007999Y006970D01*
X008084Y007173D02*
X008344Y007173D01*
X008344Y007091D01*
X008084Y007091D01*
X008084Y007173D01*
X008084Y007147D02*
X008344Y007147D01*
X008344Y007370D02*
X008084Y007370D01*
X008344Y007370D02*
X008344Y007288D01*
X008084Y007288D01*
X008084Y007370D01*
X008084Y007344D02*
X008344Y007344D01*
X008344Y007567D02*
X008084Y007567D01*
X008344Y007567D02*
X008344Y007485D01*
X008084Y007485D01*
X008084Y007567D01*
X008084Y007541D02*
X008344Y007541D01*
X008344Y007764D02*
X008084Y007764D01*
X008344Y007764D02*
X008344Y007682D01*
X008084Y007682D01*
X008084Y007764D01*
X008084Y007738D02*
X008344Y007738D01*
X008344Y007961D02*
X008084Y007961D01*
X008344Y007961D02*
X008344Y007879D01*
X008084Y007879D01*
X008084Y007961D01*
X008084Y007935D02*
X008344Y007935D01*
X008344Y008158D02*
X008084Y008158D01*
X008344Y008158D02*
X008344Y008076D01*
X008084Y008076D01*
X008084Y008158D01*
X008084Y008132D02*
X008344Y008132D01*
D43*
X007974Y008131D02*
X007974Y007117D01*
X007352Y007117D01*
X007352Y008131D01*
X007974Y008131D01*
X007974Y007185D02*
X007352Y007185D01*
X007352Y007253D02*
X007974Y007253D01*
X007974Y007321D02*
X007352Y007321D01*
X007352Y007389D02*
X007974Y007389D01*
X007974Y007457D02*
X007352Y007457D01*
X007352Y007525D02*
X007974Y007525D01*
X007974Y007593D02*
X007352Y007593D01*
X007352Y007661D02*
X007974Y007661D01*
X007974Y007729D02*
X007352Y007729D01*
X007352Y007797D02*
X007974Y007797D01*
X007974Y007865D02*
X007352Y007865D01*
X007352Y007933D02*
X007974Y007933D01*
X007974Y008001D02*
X007352Y008001D01*
X007352Y008069D02*
X007974Y008069D01*
D44*
X008765Y008067D02*
X009050Y008067D01*
X009050Y008010D02*
X008765Y008010D01*
X008765Y008008D02*
X009050Y008008D01*
X009050Y008166D01*
X009178Y008294D01*
X010094Y008294D01*
X010212Y008176D01*
X010212Y008008D01*
X010507Y008008D01*
X010507Y008343D01*
X010251Y008599D01*
X009011Y008599D01*
X008765Y008353D01*
X008765Y008008D01*
X008765Y008125D02*
X009050Y008125D01*
X009067Y008183D02*
X008765Y008183D01*
X008765Y008240D02*
X009125Y008240D01*
X008883Y008470D02*
X010380Y008470D01*
X010437Y008413D02*
X008825Y008413D01*
X008767Y008355D02*
X010495Y008355D01*
X010507Y008298D02*
X008765Y008298D01*
X008940Y008528D02*
X010322Y008528D01*
X010265Y008585D02*
X008998Y008585D01*
X009050Y007437D02*
X008755Y007437D01*
X008755Y007103D01*
X009011Y006847D01*
X010251Y006847D01*
X010497Y007093D01*
X010497Y007437D01*
X010212Y007437D01*
X010212Y007280D01*
X010084Y007152D01*
X009169Y007152D01*
X009050Y007270D01*
X009050Y007437D01*
X009050Y007434D02*
X008755Y007434D01*
X008755Y007377D02*
X009050Y007377D01*
X009050Y007319D02*
X008755Y007319D01*
X008755Y007262D02*
X009059Y007262D01*
X009116Y007204D02*
X008755Y007204D01*
X008755Y007147D02*
X010497Y007147D01*
X010497Y007204D02*
X010136Y007204D01*
X010194Y007262D02*
X010497Y007262D01*
X010497Y007319D02*
X010212Y007319D01*
X010212Y007377D02*
X010497Y007377D01*
X010497Y007434D02*
X010212Y007434D01*
X010493Y007089D02*
X008769Y007089D01*
X008826Y007031D02*
X010436Y007031D01*
X010378Y006974D02*
X008884Y006974D01*
X008942Y006916D02*
X010321Y006916D01*
X010263Y006859D02*
X008999Y006859D01*
X010212Y008010D02*
X010507Y008010D01*
X010507Y008067D02*
X010212Y008067D01*
X010212Y008125D02*
X010507Y008125D01*
X010507Y008183D02*
X010205Y008183D01*
X010147Y008240D02*
X010507Y008240D01*
D45*
X011058Y008511D02*
X011058Y008589D01*
X011087Y007734D02*
X011009Y007734D01*
X011009Y006964D02*
X011087Y006964D01*
X011827Y008511D02*
X011827Y008589D01*
X013096Y010429D02*
X013174Y010429D01*
X013174Y011198D02*
X013096Y011198D01*
X008607Y010214D02*
X008529Y010214D01*
X008529Y009445D02*
X008607Y009445D01*
X023687Y006474D02*
X023765Y006474D01*
X023765Y005704D02*
X023687Y005704D01*
D46*
X010146Y011539D02*
X009452Y011539D01*
X010146Y011539D02*
X010146Y010325D01*
X009452Y010325D01*
X009452Y011539D01*
X009452Y010401D02*
X010146Y010401D01*
X010146Y010477D02*
X009452Y010477D01*
X009452Y010553D02*
X010146Y010553D01*
X010146Y010629D02*
X009452Y010629D01*
X009452Y010705D02*
X010146Y010705D01*
X010146Y010781D02*
X009452Y010781D01*
X009452Y010857D02*
X010146Y010857D01*
X010146Y010933D02*
X009452Y010933D01*
X009452Y011009D02*
X010146Y011009D01*
X010146Y011085D02*
X009452Y011085D01*
X009452Y011161D02*
X010146Y011161D01*
X010146Y011237D02*
X009452Y011237D01*
X009452Y011313D02*
X010146Y011313D01*
X010146Y011389D02*
X009452Y011389D01*
X009452Y011465D02*
X010146Y011465D01*
D47*
X016205Y017584D02*
X016427Y017584D01*
X016427Y017546D01*
X016205Y017546D01*
X016205Y017584D01*
X016205Y017743D02*
X016427Y017743D01*
X016205Y017743D02*
X016205Y017781D01*
X016427Y017781D01*
X016427Y017743D01*
X016427Y017940D02*
X016205Y017940D01*
X016205Y017978D01*
X016427Y017978D01*
X016427Y017940D01*
X016427Y018137D02*
X016205Y018137D01*
X016205Y018175D01*
X016427Y018175D01*
X016427Y018137D01*
X016599Y018309D02*
X016599Y018531D01*
X016599Y018309D02*
X016561Y018309D01*
X016561Y018531D01*
X016599Y018531D01*
X016599Y018421D02*
X016561Y018421D01*
X016796Y018531D02*
X016796Y018309D01*
X016758Y018309D01*
X016758Y018531D01*
X016796Y018531D01*
X016796Y018421D02*
X016758Y018421D01*
X016993Y018531D02*
X016993Y018309D01*
X016955Y018309D01*
X016955Y018531D01*
X016993Y018531D01*
X016993Y018421D02*
X016955Y018421D01*
X017190Y018531D02*
X017190Y018309D01*
X017152Y018309D01*
X017152Y018531D01*
X017190Y018531D01*
X017190Y018421D02*
X017152Y018421D01*
X017323Y018137D02*
X017545Y018137D01*
X017323Y018137D02*
X017323Y018175D01*
X017545Y018175D01*
X017545Y018137D01*
X017545Y017940D02*
X017323Y017940D01*
X017323Y017978D01*
X017545Y017978D01*
X017545Y017940D01*
X017545Y017743D02*
X017323Y017743D01*
X017323Y017781D01*
X017545Y017781D01*
X017545Y017743D01*
X017545Y017546D02*
X017323Y017546D01*
X017323Y017584D01*
X017545Y017584D01*
X017545Y017546D01*
X017190Y017413D02*
X017190Y017191D01*
X017152Y017191D01*
X017152Y017413D01*
X017190Y017413D01*
X017190Y017303D02*
X017152Y017303D01*
X016993Y017413D02*
X016993Y017191D01*
X016955Y017191D01*
X016955Y017413D01*
X016993Y017413D01*
X016993Y017303D02*
X016955Y017303D01*
X016796Y017413D02*
X016796Y017191D01*
X016758Y017191D01*
X016758Y017413D01*
X016796Y017413D01*
X016796Y017303D02*
X016758Y017303D01*
X016599Y017413D02*
X016599Y017191D01*
X016561Y017191D01*
X016561Y017413D01*
X016599Y017413D01*
X016599Y017303D02*
X016561Y017303D01*
D48*
X005160Y009143D02*
X004890Y009143D01*
X004890Y009727D01*
X005160Y009727D01*
X005160Y009143D01*
X005160Y009189D02*
X004890Y009189D01*
X004890Y009235D02*
X005160Y009235D01*
X005160Y009281D02*
X004890Y009281D01*
X004890Y009327D02*
X005160Y009327D01*
X005160Y009373D02*
X004890Y009373D01*
X004890Y009419D02*
X005160Y009419D01*
X005160Y009465D02*
X004890Y009465D01*
X004890Y009511D02*
X005160Y009511D01*
X005160Y009557D02*
X004890Y009557D01*
X004890Y009603D02*
X005160Y009603D01*
X005160Y009649D02*
X004890Y009649D01*
X004890Y009695D02*
X005160Y009695D01*
X004569Y009143D02*
X004299Y009143D01*
X004299Y009727D01*
X004569Y009727D01*
X004569Y009143D01*
X004569Y009189D02*
X004299Y009189D01*
X004299Y009235D02*
X004569Y009235D01*
X004569Y009281D02*
X004299Y009281D01*
X004299Y009327D02*
X004569Y009327D01*
X004569Y009373D02*
X004299Y009373D01*
X004299Y009419D02*
X004569Y009419D01*
X004569Y009465D02*
X004299Y009465D01*
X004299Y009511D02*
X004569Y009511D01*
X004569Y009557D02*
X004299Y009557D01*
X004299Y009603D02*
X004569Y009603D01*
X004569Y009649D02*
X004299Y009649D01*
X004299Y009695D02*
X004569Y009695D01*
X003388Y009143D02*
X003118Y009143D01*
X003118Y009727D01*
X003388Y009727D01*
X003388Y009143D01*
X003388Y009189D02*
X003118Y009189D01*
X003118Y009235D02*
X003388Y009235D01*
X003388Y009281D02*
X003118Y009281D01*
X003118Y009327D02*
X003388Y009327D01*
X003388Y009373D02*
X003118Y009373D01*
X003118Y009419D02*
X003388Y009419D01*
X003388Y009465D02*
X003118Y009465D01*
X003118Y009511D02*
X003388Y009511D01*
X003388Y009557D02*
X003118Y009557D01*
X003118Y009603D02*
X003388Y009603D01*
X003388Y009649D02*
X003118Y009649D01*
X003118Y009695D02*
X003388Y009695D01*
D49*
X003548Y010124D03*
X004730Y010124D03*
D50*
X005182Y042546D03*
X024080Y042546D03*
M02*
