G75*
G70*
%OFA0B0*%
%FSLAX24Y24*%
%IPPOS*%
%LPD*%
%AMOC8*
5,1,8,0,0,1.08239X$1,22.5*
%
%ADD10C,0.0051*%
%ADD11C,0.0043*%
%ADD12C,0.0027*%
%ADD13C,0.0034*%
%ADD14C,0.0059*%
%ADD15C,0.0031*%
%ADD16C,0.0144*%
%ADD17C,0.0058*%
%ADD18C,0.0029*%
%ADD19C,0.0071*%
%ADD20C,0.0472*%
%ADD21C,0.0032*%
%ADD22C,0.0039*%
%ADD23C,0.0035*%
%ADD24C,0.0034*%
%ADD25C,0.0251*%
%ADD26C,0.0069*%
%ADD27C,0.0053*%
%ADD28C,0.0035*%
%ADD29C,0.0033*%
%ADD30C,0.0036*%
%ADD31R,0.0787X0.0787*%
D10*
X006055Y008742D02*
X006055Y009202D01*
X006515Y009202D01*
X006515Y008742D01*
X006055Y008742D01*
X006055Y008792D02*
X006515Y008792D01*
X006515Y008842D02*
X006055Y008842D01*
X006055Y008892D02*
X006515Y008892D01*
X006515Y008942D02*
X006055Y008942D01*
X006055Y008992D02*
X006515Y008992D01*
X006515Y009042D02*
X006055Y009042D01*
X006055Y009092D02*
X006515Y009092D01*
X006515Y009142D02*
X006055Y009142D01*
X006055Y009192D02*
X006515Y009192D01*
X006842Y009202D02*
X006842Y008742D01*
X006842Y009202D02*
X007302Y009202D01*
X007302Y008742D01*
X006842Y008742D01*
X006842Y008792D02*
X007302Y008792D01*
X007302Y008842D02*
X006842Y008842D01*
X006842Y008892D02*
X007302Y008892D01*
X007302Y008942D02*
X006842Y008942D01*
X006842Y008992D02*
X007302Y008992D01*
X007302Y009042D02*
X006842Y009042D01*
X006842Y009092D02*
X007302Y009092D01*
X007302Y009142D02*
X006842Y009142D01*
X006842Y009192D02*
X007302Y009192D01*
X007629Y009202D02*
X007629Y008742D01*
X007629Y009202D02*
X008089Y009202D01*
X008089Y008742D01*
X007629Y008742D01*
X007629Y008792D02*
X008089Y008792D01*
X008089Y008842D02*
X007629Y008842D01*
X007629Y008892D02*
X008089Y008892D01*
X008089Y008942D02*
X007629Y008942D01*
X007629Y008992D02*
X008089Y008992D01*
X008089Y009042D02*
X007629Y009042D01*
X007629Y009092D02*
X008089Y009092D01*
X008089Y009142D02*
X007629Y009142D01*
X007629Y009192D02*
X008089Y009192D01*
X008417Y009202D02*
X008417Y008742D01*
X008417Y009202D02*
X008877Y009202D01*
X008877Y008742D01*
X008417Y008742D01*
X008417Y008792D02*
X008877Y008792D01*
X008877Y008842D02*
X008417Y008842D01*
X008417Y008892D02*
X008877Y008892D01*
X008877Y008942D02*
X008417Y008942D01*
X008417Y008992D02*
X008877Y008992D01*
X008877Y009042D02*
X008417Y009042D01*
X008417Y009092D02*
X008877Y009092D01*
X008877Y009142D02*
X008417Y009142D01*
X008417Y009192D02*
X008877Y009192D01*
X009204Y009202D02*
X009204Y008742D01*
X009204Y009202D02*
X009664Y009202D01*
X009664Y008742D01*
X009204Y008742D01*
X009204Y008792D02*
X009664Y008792D01*
X009664Y008842D02*
X009204Y008842D01*
X009204Y008892D02*
X009664Y008892D01*
X009664Y008942D02*
X009204Y008942D01*
X009204Y008992D02*
X009664Y008992D01*
X009664Y009042D02*
X009204Y009042D01*
X009204Y009092D02*
X009664Y009092D01*
X009664Y009142D02*
X009204Y009142D01*
X009204Y009192D02*
X009664Y009192D01*
X009992Y009202D02*
X009992Y008742D01*
X009992Y009202D02*
X010452Y009202D01*
X010452Y008742D01*
X009992Y008742D01*
X009992Y008792D02*
X010452Y008792D01*
X010452Y008842D02*
X009992Y008842D01*
X009992Y008892D02*
X010452Y008892D01*
X010452Y008942D02*
X009992Y008942D01*
X009992Y008992D02*
X010452Y008992D01*
X010452Y009042D02*
X009992Y009042D01*
X009992Y009092D02*
X010452Y009092D01*
X010452Y009142D02*
X009992Y009142D01*
X009992Y009192D02*
X010452Y009192D01*
X010779Y009202D02*
X010779Y008742D01*
X010779Y009202D02*
X011239Y009202D01*
X011239Y008742D01*
X010779Y008742D01*
X010779Y008792D02*
X011239Y008792D01*
X011239Y008842D02*
X010779Y008842D01*
X010779Y008892D02*
X011239Y008892D01*
X011239Y008942D02*
X010779Y008942D01*
X010779Y008992D02*
X011239Y008992D01*
X011239Y009042D02*
X010779Y009042D01*
X010779Y009092D02*
X011239Y009092D01*
X011239Y009142D02*
X010779Y009142D01*
X010779Y009192D02*
X011239Y009192D01*
X011606Y009969D02*
X012066Y009969D01*
X012066Y009509D01*
X011606Y009509D01*
X011606Y009969D01*
X011606Y009559D02*
X012066Y009559D01*
X012066Y009609D02*
X011606Y009609D01*
X011606Y009659D02*
X012066Y009659D01*
X012066Y009709D02*
X011606Y009709D01*
X011606Y009759D02*
X012066Y009759D01*
X012066Y009809D02*
X011606Y009809D01*
X011606Y009859D02*
X012066Y009859D01*
X012066Y009909D02*
X011606Y009909D01*
X011606Y009959D02*
X012066Y009959D01*
X012066Y010757D02*
X011606Y010757D01*
X012066Y010757D02*
X012066Y010297D01*
X011606Y010297D01*
X011606Y010757D01*
X011606Y010347D02*
X012066Y010347D01*
X012066Y010397D02*
X011606Y010397D01*
X011606Y010447D02*
X012066Y010447D01*
X012066Y010497D02*
X011606Y010497D01*
X011606Y010547D02*
X012066Y010547D01*
X012066Y010597D02*
X011606Y010597D01*
X011606Y010647D02*
X012066Y010647D01*
X012066Y010697D02*
X011606Y010697D01*
X011606Y010747D02*
X012066Y010747D01*
X012066Y011544D02*
X011606Y011544D01*
X012066Y011544D02*
X012066Y011084D01*
X011606Y011084D01*
X011606Y011544D01*
X011606Y011134D02*
X012066Y011134D01*
X012066Y011184D02*
X011606Y011184D01*
X011606Y011234D02*
X012066Y011234D01*
X012066Y011284D02*
X011606Y011284D01*
X011606Y011334D02*
X012066Y011334D01*
X012066Y011384D02*
X011606Y011384D01*
X011606Y011434D02*
X012066Y011434D01*
X012066Y011484D02*
X011606Y011484D01*
X011606Y011534D02*
X012066Y011534D01*
X012066Y012331D02*
X011606Y012331D01*
X012066Y012331D02*
X012066Y011871D01*
X011606Y011871D01*
X011606Y012331D01*
X011606Y011921D02*
X012066Y011921D01*
X012066Y011971D02*
X011606Y011971D01*
X011606Y012021D02*
X012066Y012021D01*
X012066Y012071D02*
X011606Y012071D01*
X011606Y012121D02*
X012066Y012121D01*
X012066Y012171D02*
X011606Y012171D01*
X011606Y012221D02*
X012066Y012221D01*
X012066Y012271D02*
X011606Y012271D01*
X011606Y012321D02*
X012066Y012321D01*
X012066Y013119D02*
X011606Y013119D01*
X012066Y013119D02*
X012066Y012659D01*
X011606Y012659D01*
X011606Y013119D01*
X011606Y012709D02*
X012066Y012709D01*
X012066Y012759D02*
X011606Y012759D01*
X011606Y012809D02*
X012066Y012809D01*
X012066Y012859D02*
X011606Y012859D01*
X011606Y012909D02*
X012066Y012909D01*
X012066Y012959D02*
X011606Y012959D01*
X011606Y013009D02*
X012066Y013009D01*
X012066Y013059D02*
X011606Y013059D01*
X011606Y013109D02*
X012066Y013109D01*
X012066Y013906D02*
X011606Y013906D01*
X012066Y013906D02*
X012066Y013446D01*
X011606Y013446D01*
X011606Y013906D01*
X011606Y013496D02*
X012066Y013496D01*
X012066Y013546D02*
X011606Y013546D01*
X011606Y013596D02*
X012066Y013596D01*
X012066Y013646D02*
X011606Y013646D01*
X011606Y013696D02*
X012066Y013696D01*
X012066Y013746D02*
X011606Y013746D01*
X011606Y013796D02*
X012066Y013796D01*
X012066Y013846D02*
X011606Y013846D01*
X011606Y013896D02*
X012066Y013896D01*
X012066Y014694D02*
X011606Y014694D01*
X012066Y014694D02*
X012066Y014234D01*
X011606Y014234D01*
X011606Y014694D01*
X011606Y014284D02*
X012066Y014284D01*
X012066Y014334D02*
X011606Y014334D01*
X011606Y014384D02*
X012066Y014384D01*
X012066Y014434D02*
X011606Y014434D01*
X011606Y014484D02*
X012066Y014484D01*
X012066Y014534D02*
X011606Y014534D01*
X011606Y014584D02*
X012066Y014584D01*
X012066Y014634D02*
X011606Y014634D01*
X011606Y014684D02*
X012066Y014684D01*
X010779Y015001D02*
X010779Y015461D01*
X011239Y015461D01*
X011239Y015001D01*
X010779Y015001D01*
X010779Y015051D02*
X011239Y015051D01*
X011239Y015101D02*
X010779Y015101D01*
X010779Y015151D02*
X011239Y015151D01*
X011239Y015201D02*
X010779Y015201D01*
X010779Y015251D02*
X011239Y015251D01*
X011239Y015301D02*
X010779Y015301D01*
X010779Y015351D02*
X011239Y015351D01*
X011239Y015401D02*
X010779Y015401D01*
X010779Y015451D02*
X011239Y015451D01*
X009992Y015461D02*
X009992Y015001D01*
X009992Y015461D02*
X010452Y015461D01*
X010452Y015001D01*
X009992Y015001D01*
X009992Y015051D02*
X010452Y015051D01*
X010452Y015101D02*
X009992Y015101D01*
X009992Y015151D02*
X010452Y015151D01*
X010452Y015201D02*
X009992Y015201D01*
X009992Y015251D02*
X010452Y015251D01*
X010452Y015301D02*
X009992Y015301D01*
X009992Y015351D02*
X010452Y015351D01*
X010452Y015401D02*
X009992Y015401D01*
X009992Y015451D02*
X010452Y015451D01*
X009204Y015461D02*
X009204Y015001D01*
X009204Y015461D02*
X009664Y015461D01*
X009664Y015001D01*
X009204Y015001D01*
X009204Y015051D02*
X009664Y015051D01*
X009664Y015101D02*
X009204Y015101D01*
X009204Y015151D02*
X009664Y015151D01*
X009664Y015201D02*
X009204Y015201D01*
X009204Y015251D02*
X009664Y015251D01*
X009664Y015301D02*
X009204Y015301D01*
X009204Y015351D02*
X009664Y015351D01*
X009664Y015401D02*
X009204Y015401D01*
X009204Y015451D02*
X009664Y015451D01*
X008417Y015461D02*
X008417Y015001D01*
X008417Y015461D02*
X008877Y015461D01*
X008877Y015001D01*
X008417Y015001D01*
X008417Y015051D02*
X008877Y015051D01*
X008877Y015101D02*
X008417Y015101D01*
X008417Y015151D02*
X008877Y015151D01*
X008877Y015201D02*
X008417Y015201D01*
X008417Y015251D02*
X008877Y015251D01*
X008877Y015301D02*
X008417Y015301D01*
X008417Y015351D02*
X008877Y015351D01*
X008877Y015401D02*
X008417Y015401D01*
X008417Y015451D02*
X008877Y015451D01*
X007629Y015461D02*
X007629Y015001D01*
X007629Y015461D02*
X008089Y015461D01*
X008089Y015001D01*
X007629Y015001D01*
X007629Y015051D02*
X008089Y015051D01*
X008089Y015101D02*
X007629Y015101D01*
X007629Y015151D02*
X008089Y015151D01*
X008089Y015201D02*
X007629Y015201D01*
X007629Y015251D02*
X008089Y015251D01*
X008089Y015301D02*
X007629Y015301D01*
X007629Y015351D02*
X008089Y015351D01*
X008089Y015401D02*
X007629Y015401D01*
X007629Y015451D02*
X008089Y015451D01*
X006842Y015461D02*
X006842Y015001D01*
X006842Y015461D02*
X007302Y015461D01*
X007302Y015001D01*
X006842Y015001D01*
X006842Y015051D02*
X007302Y015051D01*
X007302Y015101D02*
X006842Y015101D01*
X006842Y015151D02*
X007302Y015151D01*
X007302Y015201D02*
X006842Y015201D01*
X006842Y015251D02*
X007302Y015251D01*
X007302Y015301D02*
X006842Y015301D01*
X006842Y015351D02*
X007302Y015351D01*
X007302Y015401D02*
X006842Y015401D01*
X006842Y015451D02*
X007302Y015451D01*
X006055Y015461D02*
X006055Y015001D01*
X006055Y015461D02*
X006515Y015461D01*
X006515Y015001D01*
X006055Y015001D01*
X006055Y015051D02*
X006515Y015051D01*
X006515Y015101D02*
X006055Y015101D01*
X006055Y015151D02*
X006515Y015151D01*
X006515Y015201D02*
X006055Y015201D01*
X006055Y015251D02*
X006515Y015251D01*
X006515Y015301D02*
X006055Y015301D01*
X006055Y015351D02*
X006515Y015351D01*
X006515Y015401D02*
X006055Y015401D01*
X006055Y015451D02*
X006515Y015451D01*
D11*
X019259Y021155D02*
X019767Y021155D01*
X019767Y020765D01*
X019259Y020765D01*
X019259Y021155D01*
X019259Y020807D02*
X019767Y020807D01*
X019767Y020849D02*
X019259Y020849D01*
X019259Y020891D02*
X019767Y020891D01*
X019767Y020933D02*
X019259Y020933D01*
X019259Y020975D02*
X019767Y020975D01*
X019767Y021017D02*
X019259Y021017D01*
X019259Y021059D02*
X019767Y021059D01*
X019767Y021101D02*
X019259Y021101D01*
X019259Y021143D02*
X019767Y021143D01*
X019767Y022021D02*
X019259Y022021D01*
X019767Y022021D02*
X019767Y021631D01*
X019259Y021631D01*
X019259Y022021D01*
X019259Y021673D02*
X019767Y021673D01*
X019767Y021715D02*
X019259Y021715D01*
X019259Y021757D02*
X019767Y021757D01*
X019767Y021799D02*
X019259Y021799D01*
X019259Y021841D02*
X019767Y021841D01*
X019767Y021883D02*
X019259Y021883D01*
X019259Y021925D02*
X019767Y021925D01*
X019767Y021967D02*
X019259Y021967D01*
X019259Y022009D02*
X019767Y022009D01*
X020755Y022021D02*
X021263Y022021D01*
X021263Y021631D01*
X020755Y021631D01*
X020755Y022021D01*
X020755Y021673D02*
X021263Y021673D01*
X021263Y021715D02*
X020755Y021715D01*
X020755Y021757D02*
X021263Y021757D01*
X021263Y021799D02*
X020755Y021799D01*
X020755Y021841D02*
X021263Y021841D01*
X021263Y021883D02*
X020755Y021883D01*
X020755Y021925D02*
X021263Y021925D01*
X021263Y021967D02*
X020755Y021967D01*
X020755Y022009D02*
X021263Y022009D01*
X021263Y021155D02*
X020755Y021155D01*
X021263Y021155D02*
X021263Y020765D01*
X020755Y020765D01*
X020755Y021155D01*
X020755Y020807D02*
X021263Y020807D01*
X021263Y020849D02*
X020755Y020849D01*
X020755Y020891D02*
X021263Y020891D01*
X021263Y020933D02*
X020755Y020933D01*
X020755Y020975D02*
X021263Y020975D01*
X021263Y021017D02*
X020755Y021017D01*
X020755Y021059D02*
X021263Y021059D01*
X021263Y021101D02*
X020755Y021101D01*
X020755Y021143D02*
X021263Y021143D01*
X017326Y037074D02*
X016916Y037074D01*
X016916Y037464D01*
X017326Y037464D01*
X017326Y037074D01*
X017326Y037116D02*
X016916Y037116D01*
X016916Y037158D02*
X017326Y037158D01*
X017326Y037200D02*
X016916Y037200D01*
X016916Y037242D02*
X017326Y037242D01*
X017326Y037284D02*
X016916Y037284D01*
X016916Y037326D02*
X017326Y037326D01*
X017326Y037368D02*
X016916Y037368D01*
X016916Y037410D02*
X017326Y037410D01*
X017326Y037452D02*
X016916Y037452D01*
X016916Y038826D02*
X017326Y038826D01*
X016916Y038826D02*
X016916Y039216D01*
X017326Y039216D01*
X017326Y038826D01*
X017326Y038868D02*
X016916Y038868D01*
X016916Y038910D02*
X017326Y038910D01*
X017326Y038952D02*
X016916Y038952D01*
X016916Y038994D02*
X017326Y038994D01*
X017326Y039036D02*
X016916Y039036D01*
X016916Y039078D02*
X017326Y039078D01*
X017326Y039120D02*
X016916Y039120D01*
X016916Y039162D02*
X017326Y039162D01*
X017326Y039204D02*
X016916Y039204D01*
X013133Y038826D02*
X012723Y038826D01*
X012723Y039216D01*
X013133Y039216D01*
X013133Y038826D01*
X013133Y038868D02*
X012723Y038868D01*
X012723Y038910D02*
X013133Y038910D01*
X013133Y038952D02*
X012723Y038952D01*
X012723Y038994D02*
X013133Y038994D01*
X013133Y039036D02*
X012723Y039036D01*
X012723Y039078D02*
X013133Y039078D01*
X013133Y039120D02*
X012723Y039120D01*
X012723Y039162D02*
X013133Y039162D01*
X013133Y039204D02*
X012723Y039204D01*
X012723Y037074D02*
X013133Y037074D01*
X012723Y037074D02*
X012723Y037464D01*
X013133Y037464D01*
X013133Y037074D01*
X013133Y037116D02*
X012723Y037116D01*
X012723Y037158D02*
X013133Y037158D01*
X013133Y037200D02*
X012723Y037200D01*
X012723Y037242D02*
X013133Y037242D01*
X013133Y037284D02*
X012723Y037284D01*
X012723Y037326D02*
X013133Y037326D01*
X013133Y037368D02*
X012723Y037368D01*
X012723Y037410D02*
X013133Y037410D01*
X013133Y037452D02*
X012723Y037452D01*
D12*
X012617Y029529D02*
X012617Y029123D01*
X012617Y029529D02*
X012669Y029529D01*
X012669Y029123D01*
X012617Y029123D01*
X012617Y029149D02*
X012669Y029149D01*
X012669Y029175D02*
X012617Y029175D01*
X012617Y029201D02*
X012669Y029201D01*
X012669Y029227D02*
X012617Y029227D01*
X012617Y029253D02*
X012669Y029253D01*
X012669Y029279D02*
X012617Y029279D01*
X012617Y029305D02*
X012669Y029305D01*
X012669Y029331D02*
X012617Y029331D01*
X012617Y029357D02*
X012669Y029357D01*
X012669Y029383D02*
X012617Y029383D01*
X012617Y029409D02*
X012669Y029409D01*
X012669Y029435D02*
X012617Y029435D01*
X012617Y029461D02*
X012669Y029461D01*
X012669Y029487D02*
X012617Y029487D01*
X012617Y029513D02*
X012669Y029513D01*
X012814Y029529D02*
X012814Y029123D01*
X012814Y029529D02*
X012866Y029529D01*
X012866Y029123D01*
X012814Y029123D01*
X012814Y029149D02*
X012866Y029149D01*
X012866Y029175D02*
X012814Y029175D01*
X012814Y029201D02*
X012866Y029201D01*
X012866Y029227D02*
X012814Y029227D01*
X012814Y029253D02*
X012866Y029253D01*
X012866Y029279D02*
X012814Y029279D01*
X012814Y029305D02*
X012866Y029305D01*
X012866Y029331D02*
X012814Y029331D01*
X012814Y029357D02*
X012866Y029357D01*
X012866Y029383D02*
X012814Y029383D01*
X012814Y029409D02*
X012866Y029409D01*
X012866Y029435D02*
X012814Y029435D01*
X012814Y029461D02*
X012866Y029461D01*
X012866Y029487D02*
X012814Y029487D01*
X012814Y029513D02*
X012866Y029513D01*
X013011Y029529D02*
X013011Y029123D01*
X013011Y029529D02*
X013063Y029529D01*
X013063Y029123D01*
X013011Y029123D01*
X013011Y029149D02*
X013063Y029149D01*
X013063Y029175D02*
X013011Y029175D01*
X013011Y029201D02*
X013063Y029201D01*
X013063Y029227D02*
X013011Y029227D01*
X013011Y029253D02*
X013063Y029253D01*
X013063Y029279D02*
X013011Y029279D01*
X013011Y029305D02*
X013063Y029305D01*
X013063Y029331D02*
X013011Y029331D01*
X013011Y029357D02*
X013063Y029357D01*
X013063Y029383D02*
X013011Y029383D01*
X013011Y029409D02*
X013063Y029409D01*
X013063Y029435D02*
X013011Y029435D01*
X013011Y029461D02*
X013063Y029461D01*
X013063Y029487D02*
X013011Y029487D01*
X013011Y029513D02*
X013063Y029513D01*
X013208Y029529D02*
X013208Y029123D01*
X013208Y029529D02*
X013260Y029529D01*
X013260Y029123D01*
X013208Y029123D01*
X013208Y029149D02*
X013260Y029149D01*
X013260Y029175D02*
X013208Y029175D01*
X013208Y029201D02*
X013260Y029201D01*
X013260Y029227D02*
X013208Y029227D01*
X013208Y029253D02*
X013260Y029253D01*
X013260Y029279D02*
X013208Y029279D01*
X013208Y029305D02*
X013260Y029305D01*
X013260Y029331D02*
X013208Y029331D01*
X013208Y029357D02*
X013260Y029357D01*
X013260Y029383D02*
X013208Y029383D01*
X013208Y029409D02*
X013260Y029409D01*
X013260Y029435D02*
X013208Y029435D01*
X013208Y029461D02*
X013260Y029461D01*
X013260Y029487D02*
X013208Y029487D01*
X013208Y029513D02*
X013260Y029513D01*
X013404Y029529D02*
X013404Y029123D01*
X013404Y029529D02*
X013456Y029529D01*
X013456Y029123D01*
X013404Y029123D01*
X013404Y029149D02*
X013456Y029149D01*
X013456Y029175D02*
X013404Y029175D01*
X013404Y029201D02*
X013456Y029201D01*
X013456Y029227D02*
X013404Y029227D01*
X013404Y029253D02*
X013456Y029253D01*
X013456Y029279D02*
X013404Y029279D01*
X013404Y029305D02*
X013456Y029305D01*
X013456Y029331D02*
X013404Y029331D01*
X013404Y029357D02*
X013456Y029357D01*
X013456Y029383D02*
X013404Y029383D01*
X013404Y029409D02*
X013456Y029409D01*
X013456Y029435D02*
X013404Y029435D01*
X013404Y029461D02*
X013456Y029461D01*
X013456Y029487D02*
X013404Y029487D01*
X013404Y029513D02*
X013456Y029513D01*
X013601Y029529D02*
X013601Y029123D01*
X013601Y029529D02*
X013653Y029529D01*
X013653Y029123D01*
X013601Y029123D01*
X013601Y029149D02*
X013653Y029149D01*
X013653Y029175D02*
X013601Y029175D01*
X013601Y029201D02*
X013653Y029201D01*
X013653Y029227D02*
X013601Y029227D01*
X013601Y029253D02*
X013653Y029253D01*
X013653Y029279D02*
X013601Y029279D01*
X013601Y029305D02*
X013653Y029305D01*
X013653Y029331D02*
X013601Y029331D01*
X013601Y029357D02*
X013653Y029357D01*
X013653Y029383D02*
X013601Y029383D01*
X013601Y029409D02*
X013653Y029409D01*
X013653Y029435D02*
X013601Y029435D01*
X013601Y029461D02*
X013653Y029461D01*
X013653Y029487D02*
X013601Y029487D01*
X013601Y029513D02*
X013653Y029513D01*
X013798Y029529D02*
X013798Y029123D01*
X013798Y029529D02*
X013850Y029529D01*
X013850Y029123D01*
X013798Y029123D01*
X013798Y029149D02*
X013850Y029149D01*
X013850Y029175D02*
X013798Y029175D01*
X013798Y029201D02*
X013850Y029201D01*
X013850Y029227D02*
X013798Y029227D01*
X013798Y029253D02*
X013850Y029253D01*
X013850Y029279D02*
X013798Y029279D01*
X013798Y029305D02*
X013850Y029305D01*
X013850Y029331D02*
X013798Y029331D01*
X013798Y029357D02*
X013850Y029357D01*
X013850Y029383D02*
X013798Y029383D01*
X013798Y029409D02*
X013850Y029409D01*
X013850Y029435D02*
X013798Y029435D01*
X013798Y029461D02*
X013850Y029461D01*
X013850Y029487D02*
X013798Y029487D01*
X013798Y029513D02*
X013850Y029513D01*
X013995Y029529D02*
X013995Y029123D01*
X013995Y029529D02*
X014047Y029529D01*
X014047Y029123D01*
X013995Y029123D01*
X013995Y029149D02*
X014047Y029149D01*
X014047Y029175D02*
X013995Y029175D01*
X013995Y029201D02*
X014047Y029201D01*
X014047Y029227D02*
X013995Y029227D01*
X013995Y029253D02*
X014047Y029253D01*
X014047Y029279D02*
X013995Y029279D01*
X013995Y029305D02*
X014047Y029305D01*
X014047Y029331D02*
X013995Y029331D01*
X013995Y029357D02*
X014047Y029357D01*
X014047Y029383D02*
X013995Y029383D01*
X013995Y029409D02*
X014047Y029409D01*
X014047Y029435D02*
X013995Y029435D01*
X013995Y029461D02*
X014047Y029461D01*
X014047Y029487D02*
X013995Y029487D01*
X013995Y029513D02*
X014047Y029513D01*
X014192Y029529D02*
X014192Y029123D01*
X014192Y029529D02*
X014244Y029529D01*
X014244Y029123D01*
X014192Y029123D01*
X014192Y029149D02*
X014244Y029149D01*
X014244Y029175D02*
X014192Y029175D01*
X014192Y029201D02*
X014244Y029201D01*
X014244Y029227D02*
X014192Y029227D01*
X014192Y029253D02*
X014244Y029253D01*
X014244Y029279D02*
X014192Y029279D01*
X014192Y029305D02*
X014244Y029305D01*
X014244Y029331D02*
X014192Y029331D01*
X014192Y029357D02*
X014244Y029357D01*
X014244Y029383D02*
X014192Y029383D01*
X014192Y029409D02*
X014244Y029409D01*
X014244Y029435D02*
X014192Y029435D01*
X014192Y029461D02*
X014244Y029461D01*
X014244Y029487D02*
X014192Y029487D01*
X014192Y029513D02*
X014244Y029513D01*
X014389Y029529D02*
X014389Y029123D01*
X014389Y029529D02*
X014441Y029529D01*
X014441Y029123D01*
X014389Y029123D01*
X014389Y029149D02*
X014441Y029149D01*
X014441Y029175D02*
X014389Y029175D01*
X014389Y029201D02*
X014441Y029201D01*
X014441Y029227D02*
X014389Y029227D01*
X014389Y029253D02*
X014441Y029253D01*
X014441Y029279D02*
X014389Y029279D01*
X014389Y029305D02*
X014441Y029305D01*
X014441Y029331D02*
X014389Y029331D01*
X014389Y029357D02*
X014441Y029357D01*
X014441Y029383D02*
X014389Y029383D01*
X014389Y029409D02*
X014441Y029409D01*
X014441Y029435D02*
X014389Y029435D01*
X014389Y029461D02*
X014441Y029461D01*
X014441Y029487D02*
X014389Y029487D01*
X014389Y029513D02*
X014441Y029513D01*
X014585Y029529D02*
X014585Y029123D01*
X014585Y029529D02*
X014637Y029529D01*
X014637Y029123D01*
X014585Y029123D01*
X014585Y029149D02*
X014637Y029149D01*
X014637Y029175D02*
X014585Y029175D01*
X014585Y029201D02*
X014637Y029201D01*
X014637Y029227D02*
X014585Y029227D01*
X014585Y029253D02*
X014637Y029253D01*
X014637Y029279D02*
X014585Y029279D01*
X014585Y029305D02*
X014637Y029305D01*
X014637Y029331D02*
X014585Y029331D01*
X014585Y029357D02*
X014637Y029357D01*
X014637Y029383D02*
X014585Y029383D01*
X014585Y029409D02*
X014637Y029409D01*
X014637Y029435D02*
X014585Y029435D01*
X014585Y029461D02*
X014637Y029461D01*
X014637Y029487D02*
X014585Y029487D01*
X014585Y029513D02*
X014637Y029513D01*
X014782Y029529D02*
X014782Y029123D01*
X014782Y029529D02*
X014834Y029529D01*
X014834Y029123D01*
X014782Y029123D01*
X014782Y029149D02*
X014834Y029149D01*
X014834Y029175D02*
X014782Y029175D01*
X014782Y029201D02*
X014834Y029201D01*
X014834Y029227D02*
X014782Y029227D01*
X014782Y029253D02*
X014834Y029253D01*
X014834Y029279D02*
X014782Y029279D01*
X014782Y029305D02*
X014834Y029305D01*
X014834Y029331D02*
X014782Y029331D01*
X014782Y029357D02*
X014834Y029357D01*
X014834Y029383D02*
X014782Y029383D01*
X014782Y029409D02*
X014834Y029409D01*
X014834Y029435D02*
X014782Y029435D01*
X014782Y029461D02*
X014834Y029461D01*
X014834Y029487D02*
X014782Y029487D01*
X014782Y029513D02*
X014834Y029513D01*
X014979Y029529D02*
X014979Y029123D01*
X014979Y029529D02*
X015031Y029529D01*
X015031Y029123D01*
X014979Y029123D01*
X014979Y029149D02*
X015031Y029149D01*
X015031Y029175D02*
X014979Y029175D01*
X014979Y029201D02*
X015031Y029201D01*
X015031Y029227D02*
X014979Y029227D01*
X014979Y029253D02*
X015031Y029253D01*
X015031Y029279D02*
X014979Y029279D01*
X014979Y029305D02*
X015031Y029305D01*
X015031Y029331D02*
X014979Y029331D01*
X014979Y029357D02*
X015031Y029357D01*
X015031Y029383D02*
X014979Y029383D01*
X014979Y029409D02*
X015031Y029409D01*
X015031Y029435D02*
X014979Y029435D01*
X014979Y029461D02*
X015031Y029461D01*
X015031Y029487D02*
X014979Y029487D01*
X014979Y029513D02*
X015031Y029513D01*
X015176Y029529D02*
X015176Y029123D01*
X015176Y029529D02*
X015228Y029529D01*
X015228Y029123D01*
X015176Y029123D01*
X015176Y029149D02*
X015228Y029149D01*
X015228Y029175D02*
X015176Y029175D01*
X015176Y029201D02*
X015228Y029201D01*
X015228Y029227D02*
X015176Y029227D01*
X015176Y029253D02*
X015228Y029253D01*
X015228Y029279D02*
X015176Y029279D01*
X015176Y029305D02*
X015228Y029305D01*
X015228Y029331D02*
X015176Y029331D01*
X015176Y029357D02*
X015228Y029357D01*
X015228Y029383D02*
X015176Y029383D01*
X015176Y029409D02*
X015228Y029409D01*
X015228Y029435D02*
X015176Y029435D01*
X015176Y029461D02*
X015228Y029461D01*
X015228Y029487D02*
X015176Y029487D01*
X015176Y029513D02*
X015228Y029513D01*
X015373Y029529D02*
X015373Y029123D01*
X015373Y029529D02*
X015425Y029529D01*
X015425Y029123D01*
X015373Y029123D01*
X015373Y029149D02*
X015425Y029149D01*
X015425Y029175D02*
X015373Y029175D01*
X015373Y029201D02*
X015425Y029201D01*
X015425Y029227D02*
X015373Y029227D01*
X015373Y029253D02*
X015425Y029253D01*
X015425Y029279D02*
X015373Y029279D01*
X015373Y029305D02*
X015425Y029305D01*
X015425Y029331D02*
X015373Y029331D01*
X015373Y029357D02*
X015425Y029357D01*
X015425Y029383D02*
X015373Y029383D01*
X015373Y029409D02*
X015425Y029409D01*
X015425Y029435D02*
X015373Y029435D01*
X015373Y029461D02*
X015425Y029461D01*
X015425Y029487D02*
X015373Y029487D01*
X015373Y029513D02*
X015425Y029513D01*
X015570Y029529D02*
X015570Y029123D01*
X015570Y029529D02*
X015622Y029529D01*
X015622Y029123D01*
X015570Y029123D01*
X015570Y029149D02*
X015622Y029149D01*
X015622Y029175D02*
X015570Y029175D01*
X015570Y029201D02*
X015622Y029201D01*
X015622Y029227D02*
X015570Y029227D01*
X015570Y029253D02*
X015622Y029253D01*
X015622Y029279D02*
X015570Y029279D01*
X015570Y029305D02*
X015622Y029305D01*
X015622Y029331D02*
X015570Y029331D01*
X015570Y029357D02*
X015622Y029357D01*
X015622Y029383D02*
X015570Y029383D01*
X015570Y029409D02*
X015622Y029409D01*
X015622Y029435D02*
X015570Y029435D01*
X015570Y029461D02*
X015622Y029461D01*
X015622Y029487D02*
X015570Y029487D01*
X015570Y029513D02*
X015622Y029513D01*
X015767Y029529D02*
X015767Y029123D01*
X015767Y029529D02*
X015819Y029529D01*
X015819Y029123D01*
X015767Y029123D01*
X015767Y029149D02*
X015819Y029149D01*
X015819Y029175D02*
X015767Y029175D01*
X015767Y029201D02*
X015819Y029201D01*
X015819Y029227D02*
X015767Y029227D01*
X015767Y029253D02*
X015819Y029253D01*
X015819Y029279D02*
X015767Y029279D01*
X015767Y029305D02*
X015819Y029305D01*
X015819Y029331D02*
X015767Y029331D01*
X015767Y029357D02*
X015819Y029357D01*
X015819Y029383D02*
X015767Y029383D01*
X015767Y029409D02*
X015819Y029409D01*
X015819Y029435D02*
X015767Y029435D01*
X015767Y029461D02*
X015819Y029461D01*
X015819Y029487D02*
X015767Y029487D01*
X015767Y029513D02*
X015819Y029513D01*
X015963Y029529D02*
X015963Y029123D01*
X015963Y029529D02*
X016015Y029529D01*
X016015Y029123D01*
X015963Y029123D01*
X015963Y029149D02*
X016015Y029149D01*
X016015Y029175D02*
X015963Y029175D01*
X015963Y029201D02*
X016015Y029201D01*
X016015Y029227D02*
X015963Y029227D01*
X015963Y029253D02*
X016015Y029253D01*
X016015Y029279D02*
X015963Y029279D01*
X015963Y029305D02*
X016015Y029305D01*
X016015Y029331D02*
X015963Y029331D01*
X015963Y029357D02*
X016015Y029357D01*
X016015Y029383D02*
X015963Y029383D01*
X015963Y029409D02*
X016015Y029409D01*
X016015Y029435D02*
X015963Y029435D01*
X015963Y029461D02*
X016015Y029461D01*
X016015Y029487D02*
X015963Y029487D01*
X015963Y029513D02*
X016015Y029513D01*
X016160Y029529D02*
X016160Y029123D01*
X016160Y029529D02*
X016212Y029529D01*
X016212Y029123D01*
X016160Y029123D01*
X016160Y029149D02*
X016212Y029149D01*
X016212Y029175D02*
X016160Y029175D01*
X016160Y029201D02*
X016212Y029201D01*
X016212Y029227D02*
X016160Y029227D01*
X016160Y029253D02*
X016212Y029253D01*
X016212Y029279D02*
X016160Y029279D01*
X016160Y029305D02*
X016212Y029305D01*
X016212Y029331D02*
X016160Y029331D01*
X016160Y029357D02*
X016212Y029357D01*
X016212Y029383D02*
X016160Y029383D01*
X016160Y029409D02*
X016212Y029409D01*
X016212Y029435D02*
X016160Y029435D01*
X016160Y029461D02*
X016212Y029461D01*
X016212Y029487D02*
X016160Y029487D01*
X016160Y029513D02*
X016212Y029513D01*
X016357Y029529D02*
X016357Y029123D01*
X016357Y029529D02*
X016409Y029529D01*
X016409Y029123D01*
X016357Y029123D01*
X016357Y029149D02*
X016409Y029149D01*
X016409Y029175D02*
X016357Y029175D01*
X016357Y029201D02*
X016409Y029201D01*
X016409Y029227D02*
X016357Y029227D01*
X016357Y029253D02*
X016409Y029253D01*
X016409Y029279D02*
X016357Y029279D01*
X016357Y029305D02*
X016409Y029305D01*
X016409Y029331D02*
X016357Y029331D01*
X016357Y029357D02*
X016409Y029357D01*
X016409Y029383D02*
X016357Y029383D01*
X016357Y029409D02*
X016409Y029409D01*
X016409Y029435D02*
X016357Y029435D01*
X016357Y029461D02*
X016409Y029461D01*
X016409Y029487D02*
X016357Y029487D01*
X016357Y029513D02*
X016409Y029513D01*
X016554Y029529D02*
X016554Y029123D01*
X016554Y029529D02*
X016606Y029529D01*
X016606Y029123D01*
X016554Y029123D01*
X016554Y029149D02*
X016606Y029149D01*
X016606Y029175D02*
X016554Y029175D01*
X016554Y029201D02*
X016606Y029201D01*
X016606Y029227D02*
X016554Y029227D01*
X016554Y029253D02*
X016606Y029253D01*
X016606Y029279D02*
X016554Y029279D01*
X016554Y029305D02*
X016606Y029305D01*
X016606Y029331D02*
X016554Y029331D01*
X016554Y029357D02*
X016606Y029357D01*
X016606Y029383D02*
X016554Y029383D01*
X016554Y029409D02*
X016606Y029409D01*
X016606Y029435D02*
X016554Y029435D01*
X016554Y029461D02*
X016606Y029461D01*
X016606Y029487D02*
X016554Y029487D01*
X016554Y029513D02*
X016606Y029513D01*
X016751Y029529D02*
X016751Y029123D01*
X016751Y029529D02*
X016803Y029529D01*
X016803Y029123D01*
X016751Y029123D01*
X016751Y029149D02*
X016803Y029149D01*
X016803Y029175D02*
X016751Y029175D01*
X016751Y029201D02*
X016803Y029201D01*
X016803Y029227D02*
X016751Y029227D01*
X016751Y029253D02*
X016803Y029253D01*
X016803Y029279D02*
X016751Y029279D01*
X016751Y029305D02*
X016803Y029305D01*
X016803Y029331D02*
X016751Y029331D01*
X016751Y029357D02*
X016803Y029357D01*
X016803Y029383D02*
X016751Y029383D01*
X016751Y029409D02*
X016803Y029409D01*
X016803Y029435D02*
X016751Y029435D01*
X016751Y029461D02*
X016803Y029461D01*
X016803Y029487D02*
X016751Y029487D01*
X016751Y029513D02*
X016803Y029513D01*
X016948Y029529D02*
X016948Y029123D01*
X016948Y029529D02*
X017000Y029529D01*
X017000Y029123D01*
X016948Y029123D01*
X016948Y029149D02*
X017000Y029149D01*
X017000Y029175D02*
X016948Y029175D01*
X016948Y029201D02*
X017000Y029201D01*
X017000Y029227D02*
X016948Y029227D01*
X016948Y029253D02*
X017000Y029253D01*
X017000Y029279D02*
X016948Y029279D01*
X016948Y029305D02*
X017000Y029305D01*
X017000Y029331D02*
X016948Y029331D01*
X016948Y029357D02*
X017000Y029357D01*
X017000Y029383D02*
X016948Y029383D01*
X016948Y029409D02*
X017000Y029409D01*
X017000Y029435D02*
X016948Y029435D01*
X016948Y029461D02*
X017000Y029461D01*
X017000Y029487D02*
X016948Y029487D01*
X016948Y029513D02*
X017000Y029513D01*
X017145Y029529D02*
X017145Y029123D01*
X017145Y029529D02*
X017197Y029529D01*
X017197Y029123D01*
X017145Y029123D01*
X017145Y029149D02*
X017197Y029149D01*
X017197Y029175D02*
X017145Y029175D01*
X017145Y029201D02*
X017197Y029201D01*
X017197Y029227D02*
X017145Y029227D01*
X017145Y029253D02*
X017197Y029253D01*
X017197Y029279D02*
X017145Y029279D01*
X017145Y029305D02*
X017197Y029305D01*
X017197Y029331D02*
X017145Y029331D01*
X017145Y029357D02*
X017197Y029357D01*
X017197Y029383D02*
X017145Y029383D01*
X017145Y029409D02*
X017197Y029409D01*
X017197Y029435D02*
X017145Y029435D01*
X017145Y029461D02*
X017197Y029461D01*
X017197Y029487D02*
X017145Y029487D01*
X017145Y029513D02*
X017197Y029513D01*
X017341Y029529D02*
X017341Y029123D01*
X017341Y029529D02*
X017393Y029529D01*
X017393Y029123D01*
X017341Y029123D01*
X017341Y029149D02*
X017393Y029149D01*
X017393Y029175D02*
X017341Y029175D01*
X017341Y029201D02*
X017393Y029201D01*
X017393Y029227D02*
X017341Y029227D01*
X017341Y029253D02*
X017393Y029253D01*
X017393Y029279D02*
X017341Y029279D01*
X017341Y029305D02*
X017393Y029305D01*
X017393Y029331D02*
X017341Y029331D01*
X017341Y029357D02*
X017393Y029357D01*
X017393Y029383D02*
X017341Y029383D01*
X017341Y029409D02*
X017393Y029409D01*
X017393Y029435D02*
X017341Y029435D01*
X017341Y029461D02*
X017393Y029461D01*
X017393Y029487D02*
X017341Y029487D01*
X017341Y029513D02*
X017393Y029513D01*
X017538Y029529D02*
X017538Y029123D01*
X017538Y029529D02*
X017590Y029529D01*
X017590Y029123D01*
X017538Y029123D01*
X017538Y029149D02*
X017590Y029149D01*
X017590Y029175D02*
X017538Y029175D01*
X017538Y029201D02*
X017590Y029201D01*
X017590Y029227D02*
X017538Y029227D01*
X017538Y029253D02*
X017590Y029253D01*
X017590Y029279D02*
X017538Y029279D01*
X017538Y029305D02*
X017590Y029305D01*
X017590Y029331D02*
X017538Y029331D01*
X017538Y029357D02*
X017590Y029357D01*
X017590Y029383D02*
X017538Y029383D01*
X017538Y029409D02*
X017590Y029409D01*
X017590Y029435D02*
X017538Y029435D01*
X017538Y029461D02*
X017590Y029461D01*
X017590Y029487D02*
X017538Y029487D01*
X017538Y029513D02*
X017590Y029513D01*
X017735Y029529D02*
X017735Y029123D01*
X017735Y029529D02*
X017787Y029529D01*
X017787Y029123D01*
X017735Y029123D01*
X017735Y029149D02*
X017787Y029149D01*
X017787Y029175D02*
X017735Y029175D01*
X017735Y029201D02*
X017787Y029201D01*
X017787Y029227D02*
X017735Y029227D01*
X017735Y029253D02*
X017787Y029253D01*
X017787Y029279D02*
X017735Y029279D01*
X017735Y029305D02*
X017787Y029305D01*
X017787Y029331D02*
X017735Y029331D01*
X017735Y029357D02*
X017787Y029357D01*
X017787Y029383D02*
X017735Y029383D01*
X017735Y029409D02*
X017787Y029409D01*
X017787Y029435D02*
X017735Y029435D01*
X017735Y029461D02*
X017787Y029461D01*
X017787Y029487D02*
X017735Y029487D01*
X017735Y029513D02*
X017787Y029513D01*
X018365Y028545D02*
X018365Y028493D01*
X018365Y028545D02*
X018771Y028545D01*
X018771Y028493D01*
X018365Y028493D01*
X018365Y028519D02*
X018771Y028519D01*
X018771Y028545D02*
X018365Y028545D01*
X018365Y028348D02*
X018365Y028296D01*
X018365Y028348D02*
X018771Y028348D01*
X018771Y028296D01*
X018365Y028296D01*
X018365Y028322D02*
X018771Y028322D01*
X018771Y028348D02*
X018365Y028348D01*
X018365Y028151D02*
X018365Y028099D01*
X018365Y028151D02*
X018771Y028151D01*
X018771Y028099D01*
X018365Y028099D01*
X018365Y028125D02*
X018771Y028125D01*
X018771Y028151D02*
X018365Y028151D01*
X018365Y027954D02*
X018365Y027902D01*
X018365Y027954D02*
X018771Y027954D01*
X018771Y027902D01*
X018365Y027902D01*
X018365Y027928D02*
X018771Y027928D01*
X018771Y027954D02*
X018365Y027954D01*
X018365Y027757D02*
X018365Y027705D01*
X018365Y027757D02*
X018771Y027757D01*
X018771Y027705D01*
X018365Y027705D01*
X018365Y027731D02*
X018771Y027731D01*
X018771Y027757D02*
X018365Y027757D01*
X018365Y027561D02*
X018365Y027509D01*
X018365Y027561D02*
X018771Y027561D01*
X018771Y027509D01*
X018365Y027509D01*
X018365Y027535D02*
X018771Y027535D01*
X018771Y027561D02*
X018365Y027561D01*
X018365Y027364D02*
X018365Y027312D01*
X018365Y027364D02*
X018771Y027364D01*
X018771Y027312D01*
X018365Y027312D01*
X018365Y027338D02*
X018771Y027338D01*
X018771Y027364D02*
X018365Y027364D01*
X018365Y027167D02*
X018365Y027115D01*
X018365Y027167D02*
X018771Y027167D01*
X018771Y027115D01*
X018365Y027115D01*
X018365Y027141D02*
X018771Y027141D01*
X018771Y027167D02*
X018365Y027167D01*
X018365Y026970D02*
X018365Y026918D01*
X018365Y026970D02*
X018771Y026970D01*
X018771Y026918D01*
X018365Y026918D01*
X018365Y026944D02*
X018771Y026944D01*
X018771Y026970D02*
X018365Y026970D01*
X018365Y026773D02*
X018365Y026721D01*
X018365Y026773D02*
X018771Y026773D01*
X018771Y026721D01*
X018365Y026721D01*
X018365Y026747D02*
X018771Y026747D01*
X018771Y026773D02*
X018365Y026773D01*
X018365Y026576D02*
X018365Y026524D01*
X018365Y026576D02*
X018771Y026576D01*
X018771Y026524D01*
X018365Y026524D01*
X018365Y026550D02*
X018771Y026550D01*
X018771Y026576D02*
X018365Y026576D01*
X018365Y026379D02*
X018365Y026327D01*
X018365Y026379D02*
X018771Y026379D01*
X018771Y026327D01*
X018365Y026327D01*
X018365Y026353D02*
X018771Y026353D01*
X018771Y026379D02*
X018365Y026379D01*
X018365Y026183D02*
X018365Y026131D01*
X018365Y026183D02*
X018771Y026183D01*
X018771Y026131D01*
X018365Y026131D01*
X018365Y026157D02*
X018771Y026157D01*
X018771Y026183D02*
X018365Y026183D01*
X018365Y025986D02*
X018365Y025934D01*
X018365Y025986D02*
X018771Y025986D01*
X018771Y025934D01*
X018365Y025934D01*
X018365Y025960D02*
X018771Y025960D01*
X018771Y025986D02*
X018365Y025986D01*
X018365Y025789D02*
X018365Y025737D01*
X018365Y025789D02*
X018771Y025789D01*
X018771Y025737D01*
X018365Y025737D01*
X018365Y025763D02*
X018771Y025763D01*
X018771Y025789D02*
X018365Y025789D01*
X018365Y025592D02*
X018365Y025540D01*
X018365Y025592D02*
X018771Y025592D01*
X018771Y025540D01*
X018365Y025540D01*
X018365Y025566D02*
X018771Y025566D01*
X018771Y025592D02*
X018365Y025592D01*
X018365Y025395D02*
X018365Y025343D01*
X018365Y025395D02*
X018771Y025395D01*
X018771Y025343D01*
X018365Y025343D01*
X018365Y025369D02*
X018771Y025369D01*
X018771Y025395D02*
X018365Y025395D01*
X018365Y025198D02*
X018365Y025146D01*
X018365Y025198D02*
X018771Y025198D01*
X018771Y025146D01*
X018365Y025146D01*
X018365Y025172D02*
X018771Y025172D01*
X018771Y025198D02*
X018365Y025198D01*
X018365Y025002D02*
X018365Y024950D01*
X018365Y025002D02*
X018771Y025002D01*
X018771Y024950D01*
X018365Y024950D01*
X018365Y024976D02*
X018771Y024976D01*
X018771Y025002D02*
X018365Y025002D01*
X018365Y024805D02*
X018365Y024753D01*
X018365Y024805D02*
X018771Y024805D01*
X018771Y024753D01*
X018365Y024753D01*
X018365Y024779D02*
X018771Y024779D01*
X018771Y024805D02*
X018365Y024805D01*
X018365Y024608D02*
X018365Y024556D01*
X018365Y024608D02*
X018771Y024608D01*
X018771Y024556D01*
X018365Y024556D01*
X018365Y024582D02*
X018771Y024582D01*
X018771Y024608D02*
X018365Y024608D01*
X018365Y024411D02*
X018365Y024359D01*
X018365Y024411D02*
X018771Y024411D01*
X018771Y024359D01*
X018365Y024359D01*
X018365Y024385D02*
X018771Y024385D01*
X018771Y024411D02*
X018365Y024411D01*
X018365Y024214D02*
X018365Y024162D01*
X018365Y024214D02*
X018771Y024214D01*
X018771Y024162D01*
X018365Y024162D01*
X018365Y024188D02*
X018771Y024188D01*
X018771Y024214D02*
X018365Y024214D01*
X018365Y024017D02*
X018365Y023965D01*
X018365Y024017D02*
X018771Y024017D01*
X018771Y023965D01*
X018365Y023965D01*
X018365Y023991D02*
X018771Y023991D01*
X018771Y024017D02*
X018365Y024017D01*
X018365Y023820D02*
X018365Y023768D01*
X018365Y023820D02*
X018771Y023820D01*
X018771Y023768D01*
X018365Y023768D01*
X018365Y023794D02*
X018771Y023794D01*
X018771Y023820D02*
X018365Y023820D01*
X018365Y023624D02*
X018365Y023572D01*
X018365Y023624D02*
X018771Y023624D01*
X018771Y023572D01*
X018365Y023572D01*
X018365Y023598D02*
X018771Y023598D01*
X018771Y023624D02*
X018365Y023624D01*
X018365Y023427D02*
X018365Y023375D01*
X018365Y023427D02*
X018771Y023427D01*
X018771Y023375D01*
X018365Y023375D01*
X018365Y023401D02*
X018771Y023401D01*
X018771Y023427D02*
X018365Y023427D01*
X018365Y023230D02*
X018365Y023178D01*
X018365Y023230D02*
X018771Y023230D01*
X018771Y023178D01*
X018365Y023178D01*
X018365Y023204D02*
X018771Y023204D01*
X018771Y023230D02*
X018365Y023230D01*
X018365Y023033D02*
X018365Y022981D01*
X018365Y023033D02*
X018771Y023033D01*
X018771Y022981D01*
X018365Y022981D01*
X018365Y023007D02*
X018771Y023007D01*
X018771Y023033D02*
X018365Y023033D01*
X018365Y022836D02*
X018365Y022784D01*
X018365Y022836D02*
X018771Y022836D01*
X018771Y022784D01*
X018365Y022784D01*
X018365Y022810D02*
X018771Y022810D01*
X018771Y022836D02*
X018365Y022836D01*
X018365Y022639D02*
X018365Y022587D01*
X018365Y022639D02*
X018771Y022639D01*
X018771Y022587D01*
X018365Y022587D01*
X018365Y022613D02*
X018771Y022613D01*
X018771Y022639D02*
X018365Y022639D01*
X018365Y022442D02*
X018365Y022390D01*
X018365Y022442D02*
X018771Y022442D01*
X018771Y022390D01*
X018365Y022390D01*
X018365Y022416D02*
X018771Y022416D01*
X018771Y022442D02*
X018365Y022442D01*
X018365Y022246D02*
X018365Y022194D01*
X018365Y022246D02*
X018771Y022246D01*
X018771Y022194D01*
X018365Y022194D01*
X018365Y022220D02*
X018771Y022220D01*
X018771Y022246D02*
X018365Y022246D01*
X018365Y022049D02*
X018365Y021997D01*
X018365Y022049D02*
X018771Y022049D01*
X018771Y021997D01*
X018365Y021997D01*
X018365Y022023D02*
X018771Y022023D01*
X018771Y022049D02*
X018365Y022049D01*
X018365Y021852D02*
X018365Y021800D01*
X018365Y021852D02*
X018771Y021852D01*
X018771Y021800D01*
X018365Y021800D01*
X018365Y021826D02*
X018771Y021826D01*
X018771Y021852D02*
X018365Y021852D01*
X018365Y021655D02*
X018365Y021603D01*
X018365Y021655D02*
X018771Y021655D01*
X018771Y021603D01*
X018365Y021603D01*
X018365Y021629D02*
X018771Y021629D01*
X018771Y021655D02*
X018365Y021655D01*
X017735Y021025D02*
X017735Y020619D01*
X017735Y021025D02*
X017787Y021025D01*
X017787Y020619D01*
X017735Y020619D01*
X017735Y020645D02*
X017787Y020645D01*
X017787Y020671D02*
X017735Y020671D01*
X017735Y020697D02*
X017787Y020697D01*
X017787Y020723D02*
X017735Y020723D01*
X017735Y020749D02*
X017787Y020749D01*
X017787Y020775D02*
X017735Y020775D01*
X017735Y020801D02*
X017787Y020801D01*
X017787Y020827D02*
X017735Y020827D01*
X017735Y020853D02*
X017787Y020853D01*
X017787Y020879D02*
X017735Y020879D01*
X017735Y020905D02*
X017787Y020905D01*
X017787Y020931D02*
X017735Y020931D01*
X017735Y020957D02*
X017787Y020957D01*
X017787Y020983D02*
X017735Y020983D01*
X017735Y021009D02*
X017787Y021009D01*
X017538Y021025D02*
X017538Y020619D01*
X017538Y021025D02*
X017590Y021025D01*
X017590Y020619D01*
X017538Y020619D01*
X017538Y020645D02*
X017590Y020645D01*
X017590Y020671D02*
X017538Y020671D01*
X017538Y020697D02*
X017590Y020697D01*
X017590Y020723D02*
X017538Y020723D01*
X017538Y020749D02*
X017590Y020749D01*
X017590Y020775D02*
X017538Y020775D01*
X017538Y020801D02*
X017590Y020801D01*
X017590Y020827D02*
X017538Y020827D01*
X017538Y020853D02*
X017590Y020853D01*
X017590Y020879D02*
X017538Y020879D01*
X017538Y020905D02*
X017590Y020905D01*
X017590Y020931D02*
X017538Y020931D01*
X017538Y020957D02*
X017590Y020957D01*
X017590Y020983D02*
X017538Y020983D01*
X017538Y021009D02*
X017590Y021009D01*
X017341Y021025D02*
X017341Y020619D01*
X017341Y021025D02*
X017393Y021025D01*
X017393Y020619D01*
X017341Y020619D01*
X017341Y020645D02*
X017393Y020645D01*
X017393Y020671D02*
X017341Y020671D01*
X017341Y020697D02*
X017393Y020697D01*
X017393Y020723D02*
X017341Y020723D01*
X017341Y020749D02*
X017393Y020749D01*
X017393Y020775D02*
X017341Y020775D01*
X017341Y020801D02*
X017393Y020801D01*
X017393Y020827D02*
X017341Y020827D01*
X017341Y020853D02*
X017393Y020853D01*
X017393Y020879D02*
X017341Y020879D01*
X017341Y020905D02*
X017393Y020905D01*
X017393Y020931D02*
X017341Y020931D01*
X017341Y020957D02*
X017393Y020957D01*
X017393Y020983D02*
X017341Y020983D01*
X017341Y021009D02*
X017393Y021009D01*
X017145Y021025D02*
X017145Y020619D01*
X017145Y021025D02*
X017197Y021025D01*
X017197Y020619D01*
X017145Y020619D01*
X017145Y020645D02*
X017197Y020645D01*
X017197Y020671D02*
X017145Y020671D01*
X017145Y020697D02*
X017197Y020697D01*
X017197Y020723D02*
X017145Y020723D01*
X017145Y020749D02*
X017197Y020749D01*
X017197Y020775D02*
X017145Y020775D01*
X017145Y020801D02*
X017197Y020801D01*
X017197Y020827D02*
X017145Y020827D01*
X017145Y020853D02*
X017197Y020853D01*
X017197Y020879D02*
X017145Y020879D01*
X017145Y020905D02*
X017197Y020905D01*
X017197Y020931D02*
X017145Y020931D01*
X017145Y020957D02*
X017197Y020957D01*
X017197Y020983D02*
X017145Y020983D01*
X017145Y021009D02*
X017197Y021009D01*
X016948Y021025D02*
X016948Y020619D01*
X016948Y021025D02*
X017000Y021025D01*
X017000Y020619D01*
X016948Y020619D01*
X016948Y020645D02*
X017000Y020645D01*
X017000Y020671D02*
X016948Y020671D01*
X016948Y020697D02*
X017000Y020697D01*
X017000Y020723D02*
X016948Y020723D01*
X016948Y020749D02*
X017000Y020749D01*
X017000Y020775D02*
X016948Y020775D01*
X016948Y020801D02*
X017000Y020801D01*
X017000Y020827D02*
X016948Y020827D01*
X016948Y020853D02*
X017000Y020853D01*
X017000Y020879D02*
X016948Y020879D01*
X016948Y020905D02*
X017000Y020905D01*
X017000Y020931D02*
X016948Y020931D01*
X016948Y020957D02*
X017000Y020957D01*
X017000Y020983D02*
X016948Y020983D01*
X016948Y021009D02*
X017000Y021009D01*
X016751Y021025D02*
X016751Y020619D01*
X016751Y021025D02*
X016803Y021025D01*
X016803Y020619D01*
X016751Y020619D01*
X016751Y020645D02*
X016803Y020645D01*
X016803Y020671D02*
X016751Y020671D01*
X016751Y020697D02*
X016803Y020697D01*
X016803Y020723D02*
X016751Y020723D01*
X016751Y020749D02*
X016803Y020749D01*
X016803Y020775D02*
X016751Y020775D01*
X016751Y020801D02*
X016803Y020801D01*
X016803Y020827D02*
X016751Y020827D01*
X016751Y020853D02*
X016803Y020853D01*
X016803Y020879D02*
X016751Y020879D01*
X016751Y020905D02*
X016803Y020905D01*
X016803Y020931D02*
X016751Y020931D01*
X016751Y020957D02*
X016803Y020957D01*
X016803Y020983D02*
X016751Y020983D01*
X016751Y021009D02*
X016803Y021009D01*
X016554Y021025D02*
X016554Y020619D01*
X016554Y021025D02*
X016606Y021025D01*
X016606Y020619D01*
X016554Y020619D01*
X016554Y020645D02*
X016606Y020645D01*
X016606Y020671D02*
X016554Y020671D01*
X016554Y020697D02*
X016606Y020697D01*
X016606Y020723D02*
X016554Y020723D01*
X016554Y020749D02*
X016606Y020749D01*
X016606Y020775D02*
X016554Y020775D01*
X016554Y020801D02*
X016606Y020801D01*
X016606Y020827D02*
X016554Y020827D01*
X016554Y020853D02*
X016606Y020853D01*
X016606Y020879D02*
X016554Y020879D01*
X016554Y020905D02*
X016606Y020905D01*
X016606Y020931D02*
X016554Y020931D01*
X016554Y020957D02*
X016606Y020957D01*
X016606Y020983D02*
X016554Y020983D01*
X016554Y021009D02*
X016606Y021009D01*
X016357Y021025D02*
X016357Y020619D01*
X016357Y021025D02*
X016409Y021025D01*
X016409Y020619D01*
X016357Y020619D01*
X016357Y020645D02*
X016409Y020645D01*
X016409Y020671D02*
X016357Y020671D01*
X016357Y020697D02*
X016409Y020697D01*
X016409Y020723D02*
X016357Y020723D01*
X016357Y020749D02*
X016409Y020749D01*
X016409Y020775D02*
X016357Y020775D01*
X016357Y020801D02*
X016409Y020801D01*
X016409Y020827D02*
X016357Y020827D01*
X016357Y020853D02*
X016409Y020853D01*
X016409Y020879D02*
X016357Y020879D01*
X016357Y020905D02*
X016409Y020905D01*
X016409Y020931D02*
X016357Y020931D01*
X016357Y020957D02*
X016409Y020957D01*
X016409Y020983D02*
X016357Y020983D01*
X016357Y021009D02*
X016409Y021009D01*
X016160Y021025D02*
X016160Y020619D01*
X016160Y021025D02*
X016212Y021025D01*
X016212Y020619D01*
X016160Y020619D01*
X016160Y020645D02*
X016212Y020645D01*
X016212Y020671D02*
X016160Y020671D01*
X016160Y020697D02*
X016212Y020697D01*
X016212Y020723D02*
X016160Y020723D01*
X016160Y020749D02*
X016212Y020749D01*
X016212Y020775D02*
X016160Y020775D01*
X016160Y020801D02*
X016212Y020801D01*
X016212Y020827D02*
X016160Y020827D01*
X016160Y020853D02*
X016212Y020853D01*
X016212Y020879D02*
X016160Y020879D01*
X016160Y020905D02*
X016212Y020905D01*
X016212Y020931D02*
X016160Y020931D01*
X016160Y020957D02*
X016212Y020957D01*
X016212Y020983D02*
X016160Y020983D01*
X016160Y021009D02*
X016212Y021009D01*
X015963Y021025D02*
X015963Y020619D01*
X015963Y021025D02*
X016015Y021025D01*
X016015Y020619D01*
X015963Y020619D01*
X015963Y020645D02*
X016015Y020645D01*
X016015Y020671D02*
X015963Y020671D01*
X015963Y020697D02*
X016015Y020697D01*
X016015Y020723D02*
X015963Y020723D01*
X015963Y020749D02*
X016015Y020749D01*
X016015Y020775D02*
X015963Y020775D01*
X015963Y020801D02*
X016015Y020801D01*
X016015Y020827D02*
X015963Y020827D01*
X015963Y020853D02*
X016015Y020853D01*
X016015Y020879D02*
X015963Y020879D01*
X015963Y020905D02*
X016015Y020905D01*
X016015Y020931D02*
X015963Y020931D01*
X015963Y020957D02*
X016015Y020957D01*
X016015Y020983D02*
X015963Y020983D01*
X015963Y021009D02*
X016015Y021009D01*
X015767Y021025D02*
X015767Y020619D01*
X015767Y021025D02*
X015819Y021025D01*
X015819Y020619D01*
X015767Y020619D01*
X015767Y020645D02*
X015819Y020645D01*
X015819Y020671D02*
X015767Y020671D01*
X015767Y020697D02*
X015819Y020697D01*
X015819Y020723D02*
X015767Y020723D01*
X015767Y020749D02*
X015819Y020749D01*
X015819Y020775D02*
X015767Y020775D01*
X015767Y020801D02*
X015819Y020801D01*
X015819Y020827D02*
X015767Y020827D01*
X015767Y020853D02*
X015819Y020853D01*
X015819Y020879D02*
X015767Y020879D01*
X015767Y020905D02*
X015819Y020905D01*
X015819Y020931D02*
X015767Y020931D01*
X015767Y020957D02*
X015819Y020957D01*
X015819Y020983D02*
X015767Y020983D01*
X015767Y021009D02*
X015819Y021009D01*
X015570Y021025D02*
X015570Y020619D01*
X015570Y021025D02*
X015622Y021025D01*
X015622Y020619D01*
X015570Y020619D01*
X015570Y020645D02*
X015622Y020645D01*
X015622Y020671D02*
X015570Y020671D01*
X015570Y020697D02*
X015622Y020697D01*
X015622Y020723D02*
X015570Y020723D01*
X015570Y020749D02*
X015622Y020749D01*
X015622Y020775D02*
X015570Y020775D01*
X015570Y020801D02*
X015622Y020801D01*
X015622Y020827D02*
X015570Y020827D01*
X015570Y020853D02*
X015622Y020853D01*
X015622Y020879D02*
X015570Y020879D01*
X015570Y020905D02*
X015622Y020905D01*
X015622Y020931D02*
X015570Y020931D01*
X015570Y020957D02*
X015622Y020957D01*
X015622Y020983D02*
X015570Y020983D01*
X015570Y021009D02*
X015622Y021009D01*
X015373Y021025D02*
X015373Y020619D01*
X015373Y021025D02*
X015425Y021025D01*
X015425Y020619D01*
X015373Y020619D01*
X015373Y020645D02*
X015425Y020645D01*
X015425Y020671D02*
X015373Y020671D01*
X015373Y020697D02*
X015425Y020697D01*
X015425Y020723D02*
X015373Y020723D01*
X015373Y020749D02*
X015425Y020749D01*
X015425Y020775D02*
X015373Y020775D01*
X015373Y020801D02*
X015425Y020801D01*
X015425Y020827D02*
X015373Y020827D01*
X015373Y020853D02*
X015425Y020853D01*
X015425Y020879D02*
X015373Y020879D01*
X015373Y020905D02*
X015425Y020905D01*
X015425Y020931D02*
X015373Y020931D01*
X015373Y020957D02*
X015425Y020957D01*
X015425Y020983D02*
X015373Y020983D01*
X015373Y021009D02*
X015425Y021009D01*
X015176Y021025D02*
X015176Y020619D01*
X015176Y021025D02*
X015228Y021025D01*
X015228Y020619D01*
X015176Y020619D01*
X015176Y020645D02*
X015228Y020645D01*
X015228Y020671D02*
X015176Y020671D01*
X015176Y020697D02*
X015228Y020697D01*
X015228Y020723D02*
X015176Y020723D01*
X015176Y020749D02*
X015228Y020749D01*
X015228Y020775D02*
X015176Y020775D01*
X015176Y020801D02*
X015228Y020801D01*
X015228Y020827D02*
X015176Y020827D01*
X015176Y020853D02*
X015228Y020853D01*
X015228Y020879D02*
X015176Y020879D01*
X015176Y020905D02*
X015228Y020905D01*
X015228Y020931D02*
X015176Y020931D01*
X015176Y020957D02*
X015228Y020957D01*
X015228Y020983D02*
X015176Y020983D01*
X015176Y021009D02*
X015228Y021009D01*
X014979Y021025D02*
X014979Y020619D01*
X014979Y021025D02*
X015031Y021025D01*
X015031Y020619D01*
X014979Y020619D01*
X014979Y020645D02*
X015031Y020645D01*
X015031Y020671D02*
X014979Y020671D01*
X014979Y020697D02*
X015031Y020697D01*
X015031Y020723D02*
X014979Y020723D01*
X014979Y020749D02*
X015031Y020749D01*
X015031Y020775D02*
X014979Y020775D01*
X014979Y020801D02*
X015031Y020801D01*
X015031Y020827D02*
X014979Y020827D01*
X014979Y020853D02*
X015031Y020853D01*
X015031Y020879D02*
X014979Y020879D01*
X014979Y020905D02*
X015031Y020905D01*
X015031Y020931D02*
X014979Y020931D01*
X014979Y020957D02*
X015031Y020957D01*
X015031Y020983D02*
X014979Y020983D01*
X014979Y021009D02*
X015031Y021009D01*
X014782Y021025D02*
X014782Y020619D01*
X014782Y021025D02*
X014834Y021025D01*
X014834Y020619D01*
X014782Y020619D01*
X014782Y020645D02*
X014834Y020645D01*
X014834Y020671D02*
X014782Y020671D01*
X014782Y020697D02*
X014834Y020697D01*
X014834Y020723D02*
X014782Y020723D01*
X014782Y020749D02*
X014834Y020749D01*
X014834Y020775D02*
X014782Y020775D01*
X014782Y020801D02*
X014834Y020801D01*
X014834Y020827D02*
X014782Y020827D01*
X014782Y020853D02*
X014834Y020853D01*
X014834Y020879D02*
X014782Y020879D01*
X014782Y020905D02*
X014834Y020905D01*
X014834Y020931D02*
X014782Y020931D01*
X014782Y020957D02*
X014834Y020957D01*
X014834Y020983D02*
X014782Y020983D01*
X014782Y021009D02*
X014834Y021009D01*
X014585Y021025D02*
X014585Y020619D01*
X014585Y021025D02*
X014637Y021025D01*
X014637Y020619D01*
X014585Y020619D01*
X014585Y020645D02*
X014637Y020645D01*
X014637Y020671D02*
X014585Y020671D01*
X014585Y020697D02*
X014637Y020697D01*
X014637Y020723D02*
X014585Y020723D01*
X014585Y020749D02*
X014637Y020749D01*
X014637Y020775D02*
X014585Y020775D01*
X014585Y020801D02*
X014637Y020801D01*
X014637Y020827D02*
X014585Y020827D01*
X014585Y020853D02*
X014637Y020853D01*
X014637Y020879D02*
X014585Y020879D01*
X014585Y020905D02*
X014637Y020905D01*
X014637Y020931D02*
X014585Y020931D01*
X014585Y020957D02*
X014637Y020957D01*
X014637Y020983D02*
X014585Y020983D01*
X014585Y021009D02*
X014637Y021009D01*
X014389Y021025D02*
X014389Y020619D01*
X014389Y021025D02*
X014441Y021025D01*
X014441Y020619D01*
X014389Y020619D01*
X014389Y020645D02*
X014441Y020645D01*
X014441Y020671D02*
X014389Y020671D01*
X014389Y020697D02*
X014441Y020697D01*
X014441Y020723D02*
X014389Y020723D01*
X014389Y020749D02*
X014441Y020749D01*
X014441Y020775D02*
X014389Y020775D01*
X014389Y020801D02*
X014441Y020801D01*
X014441Y020827D02*
X014389Y020827D01*
X014389Y020853D02*
X014441Y020853D01*
X014441Y020879D02*
X014389Y020879D01*
X014389Y020905D02*
X014441Y020905D01*
X014441Y020931D02*
X014389Y020931D01*
X014389Y020957D02*
X014441Y020957D01*
X014441Y020983D02*
X014389Y020983D01*
X014389Y021009D02*
X014441Y021009D01*
X014192Y021025D02*
X014192Y020619D01*
X014192Y021025D02*
X014244Y021025D01*
X014244Y020619D01*
X014192Y020619D01*
X014192Y020645D02*
X014244Y020645D01*
X014244Y020671D02*
X014192Y020671D01*
X014192Y020697D02*
X014244Y020697D01*
X014244Y020723D02*
X014192Y020723D01*
X014192Y020749D02*
X014244Y020749D01*
X014244Y020775D02*
X014192Y020775D01*
X014192Y020801D02*
X014244Y020801D01*
X014244Y020827D02*
X014192Y020827D01*
X014192Y020853D02*
X014244Y020853D01*
X014244Y020879D02*
X014192Y020879D01*
X014192Y020905D02*
X014244Y020905D01*
X014244Y020931D02*
X014192Y020931D01*
X014192Y020957D02*
X014244Y020957D01*
X014244Y020983D02*
X014192Y020983D01*
X014192Y021009D02*
X014244Y021009D01*
X013995Y021025D02*
X013995Y020619D01*
X013995Y021025D02*
X014047Y021025D01*
X014047Y020619D01*
X013995Y020619D01*
X013995Y020645D02*
X014047Y020645D01*
X014047Y020671D02*
X013995Y020671D01*
X013995Y020697D02*
X014047Y020697D01*
X014047Y020723D02*
X013995Y020723D01*
X013995Y020749D02*
X014047Y020749D01*
X014047Y020775D02*
X013995Y020775D01*
X013995Y020801D02*
X014047Y020801D01*
X014047Y020827D02*
X013995Y020827D01*
X013995Y020853D02*
X014047Y020853D01*
X014047Y020879D02*
X013995Y020879D01*
X013995Y020905D02*
X014047Y020905D01*
X014047Y020931D02*
X013995Y020931D01*
X013995Y020957D02*
X014047Y020957D01*
X014047Y020983D02*
X013995Y020983D01*
X013995Y021009D02*
X014047Y021009D01*
X013798Y021025D02*
X013798Y020619D01*
X013798Y021025D02*
X013850Y021025D01*
X013850Y020619D01*
X013798Y020619D01*
X013798Y020645D02*
X013850Y020645D01*
X013850Y020671D02*
X013798Y020671D01*
X013798Y020697D02*
X013850Y020697D01*
X013850Y020723D02*
X013798Y020723D01*
X013798Y020749D02*
X013850Y020749D01*
X013850Y020775D02*
X013798Y020775D01*
X013798Y020801D02*
X013850Y020801D01*
X013850Y020827D02*
X013798Y020827D01*
X013798Y020853D02*
X013850Y020853D01*
X013850Y020879D02*
X013798Y020879D01*
X013798Y020905D02*
X013850Y020905D01*
X013850Y020931D02*
X013798Y020931D01*
X013798Y020957D02*
X013850Y020957D01*
X013850Y020983D02*
X013798Y020983D01*
X013798Y021009D02*
X013850Y021009D01*
X013601Y021025D02*
X013601Y020619D01*
X013601Y021025D02*
X013653Y021025D01*
X013653Y020619D01*
X013601Y020619D01*
X013601Y020645D02*
X013653Y020645D01*
X013653Y020671D02*
X013601Y020671D01*
X013601Y020697D02*
X013653Y020697D01*
X013653Y020723D02*
X013601Y020723D01*
X013601Y020749D02*
X013653Y020749D01*
X013653Y020775D02*
X013601Y020775D01*
X013601Y020801D02*
X013653Y020801D01*
X013653Y020827D02*
X013601Y020827D01*
X013601Y020853D02*
X013653Y020853D01*
X013653Y020879D02*
X013601Y020879D01*
X013601Y020905D02*
X013653Y020905D01*
X013653Y020931D02*
X013601Y020931D01*
X013601Y020957D02*
X013653Y020957D01*
X013653Y020983D02*
X013601Y020983D01*
X013601Y021009D02*
X013653Y021009D01*
X013404Y021025D02*
X013404Y020619D01*
X013404Y021025D02*
X013456Y021025D01*
X013456Y020619D01*
X013404Y020619D01*
X013404Y020645D02*
X013456Y020645D01*
X013456Y020671D02*
X013404Y020671D01*
X013404Y020697D02*
X013456Y020697D01*
X013456Y020723D02*
X013404Y020723D01*
X013404Y020749D02*
X013456Y020749D01*
X013456Y020775D02*
X013404Y020775D01*
X013404Y020801D02*
X013456Y020801D01*
X013456Y020827D02*
X013404Y020827D01*
X013404Y020853D02*
X013456Y020853D01*
X013456Y020879D02*
X013404Y020879D01*
X013404Y020905D02*
X013456Y020905D01*
X013456Y020931D02*
X013404Y020931D01*
X013404Y020957D02*
X013456Y020957D01*
X013456Y020983D02*
X013404Y020983D01*
X013404Y021009D02*
X013456Y021009D01*
X013208Y021025D02*
X013208Y020619D01*
X013208Y021025D02*
X013260Y021025D01*
X013260Y020619D01*
X013208Y020619D01*
X013208Y020645D02*
X013260Y020645D01*
X013260Y020671D02*
X013208Y020671D01*
X013208Y020697D02*
X013260Y020697D01*
X013260Y020723D02*
X013208Y020723D01*
X013208Y020749D02*
X013260Y020749D01*
X013260Y020775D02*
X013208Y020775D01*
X013208Y020801D02*
X013260Y020801D01*
X013260Y020827D02*
X013208Y020827D01*
X013208Y020853D02*
X013260Y020853D01*
X013260Y020879D02*
X013208Y020879D01*
X013208Y020905D02*
X013260Y020905D01*
X013260Y020931D02*
X013208Y020931D01*
X013208Y020957D02*
X013260Y020957D01*
X013260Y020983D02*
X013208Y020983D01*
X013208Y021009D02*
X013260Y021009D01*
X013011Y021025D02*
X013011Y020619D01*
X013011Y021025D02*
X013063Y021025D01*
X013063Y020619D01*
X013011Y020619D01*
X013011Y020645D02*
X013063Y020645D01*
X013063Y020671D02*
X013011Y020671D01*
X013011Y020697D02*
X013063Y020697D01*
X013063Y020723D02*
X013011Y020723D01*
X013011Y020749D02*
X013063Y020749D01*
X013063Y020775D02*
X013011Y020775D01*
X013011Y020801D02*
X013063Y020801D01*
X013063Y020827D02*
X013011Y020827D01*
X013011Y020853D02*
X013063Y020853D01*
X013063Y020879D02*
X013011Y020879D01*
X013011Y020905D02*
X013063Y020905D01*
X013063Y020931D02*
X013011Y020931D01*
X013011Y020957D02*
X013063Y020957D01*
X013063Y020983D02*
X013011Y020983D01*
X013011Y021009D02*
X013063Y021009D01*
X012814Y021025D02*
X012814Y020619D01*
X012814Y021025D02*
X012866Y021025D01*
X012866Y020619D01*
X012814Y020619D01*
X012814Y020645D02*
X012866Y020645D01*
X012866Y020671D02*
X012814Y020671D01*
X012814Y020697D02*
X012866Y020697D01*
X012866Y020723D02*
X012814Y020723D01*
X012814Y020749D02*
X012866Y020749D01*
X012866Y020775D02*
X012814Y020775D01*
X012814Y020801D02*
X012866Y020801D01*
X012866Y020827D02*
X012814Y020827D01*
X012814Y020853D02*
X012866Y020853D01*
X012866Y020879D02*
X012814Y020879D01*
X012814Y020905D02*
X012866Y020905D01*
X012866Y020931D02*
X012814Y020931D01*
X012814Y020957D02*
X012866Y020957D01*
X012866Y020983D02*
X012814Y020983D01*
X012814Y021009D02*
X012866Y021009D01*
X012617Y021025D02*
X012617Y020619D01*
X012617Y021025D02*
X012669Y021025D01*
X012669Y020619D01*
X012617Y020619D01*
X012617Y020645D02*
X012669Y020645D01*
X012669Y020671D02*
X012617Y020671D01*
X012617Y020697D02*
X012669Y020697D01*
X012669Y020723D02*
X012617Y020723D01*
X012617Y020749D02*
X012669Y020749D01*
X012669Y020775D02*
X012617Y020775D01*
X012617Y020801D02*
X012669Y020801D01*
X012669Y020827D02*
X012617Y020827D01*
X012617Y020853D02*
X012669Y020853D01*
X012669Y020879D02*
X012617Y020879D01*
X012617Y020905D02*
X012669Y020905D01*
X012669Y020931D02*
X012617Y020931D01*
X012617Y020957D02*
X012669Y020957D01*
X012669Y020983D02*
X012617Y020983D01*
X012617Y021009D02*
X012669Y021009D01*
X012420Y021025D02*
X012420Y020619D01*
X012420Y021025D02*
X012472Y021025D01*
X012472Y020619D01*
X012420Y020619D01*
X012420Y020645D02*
X012472Y020645D01*
X012472Y020671D02*
X012420Y020671D01*
X012420Y020697D02*
X012472Y020697D01*
X012472Y020723D02*
X012420Y020723D01*
X012420Y020749D02*
X012472Y020749D01*
X012472Y020775D02*
X012420Y020775D01*
X012420Y020801D02*
X012472Y020801D01*
X012472Y020827D02*
X012420Y020827D01*
X012420Y020853D02*
X012472Y020853D01*
X012472Y020879D02*
X012420Y020879D01*
X012420Y020905D02*
X012472Y020905D01*
X012472Y020931D02*
X012420Y020931D01*
X012420Y020957D02*
X012472Y020957D01*
X012472Y020983D02*
X012420Y020983D01*
X012420Y021009D02*
X012472Y021009D01*
X012223Y021025D02*
X012223Y020619D01*
X012223Y021025D02*
X012275Y021025D01*
X012275Y020619D01*
X012223Y020619D01*
X012223Y020645D02*
X012275Y020645D01*
X012275Y020671D02*
X012223Y020671D01*
X012223Y020697D02*
X012275Y020697D01*
X012275Y020723D02*
X012223Y020723D01*
X012223Y020749D02*
X012275Y020749D01*
X012275Y020775D02*
X012223Y020775D01*
X012223Y020801D02*
X012275Y020801D01*
X012275Y020827D02*
X012223Y020827D01*
X012223Y020853D02*
X012275Y020853D01*
X012275Y020879D02*
X012223Y020879D01*
X012223Y020905D02*
X012275Y020905D01*
X012275Y020931D02*
X012223Y020931D01*
X012223Y020957D02*
X012275Y020957D01*
X012275Y020983D02*
X012223Y020983D01*
X012223Y021009D02*
X012275Y021009D01*
X012026Y021025D02*
X012026Y020619D01*
X012026Y021025D02*
X012078Y021025D01*
X012078Y020619D01*
X012026Y020619D01*
X012026Y020645D02*
X012078Y020645D01*
X012078Y020671D02*
X012026Y020671D01*
X012026Y020697D02*
X012078Y020697D01*
X012078Y020723D02*
X012026Y020723D01*
X012026Y020749D02*
X012078Y020749D01*
X012078Y020775D02*
X012026Y020775D01*
X012026Y020801D02*
X012078Y020801D01*
X012078Y020827D02*
X012026Y020827D01*
X012026Y020853D02*
X012078Y020853D01*
X012078Y020879D02*
X012026Y020879D01*
X012026Y020905D02*
X012078Y020905D01*
X012078Y020931D02*
X012026Y020931D01*
X012026Y020957D02*
X012078Y020957D01*
X012078Y020983D02*
X012026Y020983D01*
X012026Y021009D02*
X012078Y021009D01*
X011830Y021025D02*
X011830Y020619D01*
X011830Y021025D02*
X011882Y021025D01*
X011882Y020619D01*
X011830Y020619D01*
X011830Y020645D02*
X011882Y020645D01*
X011882Y020671D02*
X011830Y020671D01*
X011830Y020697D02*
X011882Y020697D01*
X011882Y020723D02*
X011830Y020723D01*
X011830Y020749D02*
X011882Y020749D01*
X011882Y020775D02*
X011830Y020775D01*
X011830Y020801D02*
X011882Y020801D01*
X011882Y020827D02*
X011830Y020827D01*
X011830Y020853D02*
X011882Y020853D01*
X011882Y020879D02*
X011830Y020879D01*
X011830Y020905D02*
X011882Y020905D01*
X011882Y020931D02*
X011830Y020931D01*
X011830Y020957D02*
X011882Y020957D01*
X011882Y020983D02*
X011830Y020983D01*
X011830Y021009D02*
X011882Y021009D01*
X011633Y021025D02*
X011633Y020619D01*
X011633Y021025D02*
X011685Y021025D01*
X011685Y020619D01*
X011633Y020619D01*
X011633Y020645D02*
X011685Y020645D01*
X011685Y020671D02*
X011633Y020671D01*
X011633Y020697D02*
X011685Y020697D01*
X011685Y020723D02*
X011633Y020723D01*
X011633Y020749D02*
X011685Y020749D01*
X011685Y020775D02*
X011633Y020775D01*
X011633Y020801D02*
X011685Y020801D01*
X011685Y020827D02*
X011633Y020827D01*
X011633Y020853D02*
X011685Y020853D01*
X011685Y020879D02*
X011633Y020879D01*
X011633Y020905D02*
X011685Y020905D01*
X011685Y020931D02*
X011633Y020931D01*
X011633Y020957D02*
X011685Y020957D01*
X011685Y020983D02*
X011633Y020983D01*
X011633Y021009D02*
X011685Y021009D01*
X011436Y021025D02*
X011436Y020619D01*
X011436Y021025D02*
X011488Y021025D01*
X011488Y020619D01*
X011436Y020619D01*
X011436Y020645D02*
X011488Y020645D01*
X011488Y020671D02*
X011436Y020671D01*
X011436Y020697D02*
X011488Y020697D01*
X011488Y020723D02*
X011436Y020723D01*
X011436Y020749D02*
X011488Y020749D01*
X011488Y020775D02*
X011436Y020775D01*
X011436Y020801D02*
X011488Y020801D01*
X011488Y020827D02*
X011436Y020827D01*
X011436Y020853D02*
X011488Y020853D01*
X011488Y020879D02*
X011436Y020879D01*
X011436Y020905D02*
X011488Y020905D01*
X011488Y020931D02*
X011436Y020931D01*
X011436Y020957D02*
X011488Y020957D01*
X011488Y020983D02*
X011436Y020983D01*
X011436Y021009D02*
X011488Y021009D01*
X011239Y021025D02*
X011239Y020619D01*
X011239Y021025D02*
X011291Y021025D01*
X011291Y020619D01*
X011239Y020619D01*
X011239Y020645D02*
X011291Y020645D01*
X011291Y020671D02*
X011239Y020671D01*
X011239Y020697D02*
X011291Y020697D01*
X011291Y020723D02*
X011239Y020723D01*
X011239Y020749D02*
X011291Y020749D01*
X011291Y020775D02*
X011239Y020775D01*
X011239Y020801D02*
X011291Y020801D01*
X011291Y020827D02*
X011239Y020827D01*
X011239Y020853D02*
X011291Y020853D01*
X011291Y020879D02*
X011239Y020879D01*
X011239Y020905D02*
X011291Y020905D01*
X011291Y020931D02*
X011239Y020931D01*
X011239Y020957D02*
X011291Y020957D01*
X011291Y020983D02*
X011239Y020983D01*
X011239Y021009D02*
X011291Y021009D01*
X011042Y021025D02*
X011042Y020619D01*
X011042Y021025D02*
X011094Y021025D01*
X011094Y020619D01*
X011042Y020619D01*
X011042Y020645D02*
X011094Y020645D01*
X011094Y020671D02*
X011042Y020671D01*
X011042Y020697D02*
X011094Y020697D01*
X011094Y020723D02*
X011042Y020723D01*
X011042Y020749D02*
X011094Y020749D01*
X011094Y020775D02*
X011042Y020775D01*
X011042Y020801D02*
X011094Y020801D01*
X011094Y020827D02*
X011042Y020827D01*
X011042Y020853D02*
X011094Y020853D01*
X011094Y020879D02*
X011042Y020879D01*
X011042Y020905D02*
X011094Y020905D01*
X011094Y020931D02*
X011042Y020931D01*
X011042Y020957D02*
X011094Y020957D01*
X011094Y020983D02*
X011042Y020983D01*
X011042Y021009D02*
X011094Y021009D01*
X010845Y021025D02*
X010845Y020619D01*
X010845Y021025D02*
X010897Y021025D01*
X010897Y020619D01*
X010845Y020619D01*
X010845Y020645D02*
X010897Y020645D01*
X010897Y020671D02*
X010845Y020671D01*
X010845Y020697D02*
X010897Y020697D01*
X010897Y020723D02*
X010845Y020723D01*
X010845Y020749D02*
X010897Y020749D01*
X010897Y020775D02*
X010845Y020775D01*
X010845Y020801D02*
X010897Y020801D01*
X010897Y020827D02*
X010845Y020827D01*
X010845Y020853D02*
X010897Y020853D01*
X010897Y020879D02*
X010845Y020879D01*
X010845Y020905D02*
X010897Y020905D01*
X010897Y020931D02*
X010845Y020931D01*
X010845Y020957D02*
X010897Y020957D01*
X010897Y020983D02*
X010845Y020983D01*
X010845Y021009D02*
X010897Y021009D01*
X009861Y021603D02*
X009861Y021655D01*
X010267Y021655D01*
X010267Y021603D01*
X009861Y021603D01*
X009861Y021629D02*
X010267Y021629D01*
X010267Y021655D02*
X009861Y021655D01*
X009861Y021800D02*
X009861Y021852D01*
X010267Y021852D01*
X010267Y021800D01*
X009861Y021800D01*
X009861Y021826D02*
X010267Y021826D01*
X010267Y021852D02*
X009861Y021852D01*
X009861Y021997D02*
X009861Y022049D01*
X010267Y022049D01*
X010267Y021997D01*
X009861Y021997D01*
X009861Y022023D02*
X010267Y022023D01*
X010267Y022049D02*
X009861Y022049D01*
X009861Y022194D02*
X009861Y022246D01*
X010267Y022246D01*
X010267Y022194D01*
X009861Y022194D01*
X009861Y022220D02*
X010267Y022220D01*
X010267Y022246D02*
X009861Y022246D01*
X009861Y022390D02*
X009861Y022442D01*
X010267Y022442D01*
X010267Y022390D01*
X009861Y022390D01*
X009861Y022416D02*
X010267Y022416D01*
X010267Y022442D02*
X009861Y022442D01*
X009861Y022587D02*
X009861Y022639D01*
X010267Y022639D01*
X010267Y022587D01*
X009861Y022587D01*
X009861Y022613D02*
X010267Y022613D01*
X010267Y022639D02*
X009861Y022639D01*
X009861Y022784D02*
X009861Y022836D01*
X010267Y022836D01*
X010267Y022784D01*
X009861Y022784D01*
X009861Y022810D02*
X010267Y022810D01*
X010267Y022836D02*
X009861Y022836D01*
X009861Y022981D02*
X009861Y023033D01*
X010267Y023033D01*
X010267Y022981D01*
X009861Y022981D01*
X009861Y023007D02*
X010267Y023007D01*
X010267Y023033D02*
X009861Y023033D01*
X009861Y023178D02*
X009861Y023230D01*
X010267Y023230D01*
X010267Y023178D01*
X009861Y023178D01*
X009861Y023204D02*
X010267Y023204D01*
X010267Y023230D02*
X009861Y023230D01*
X009861Y023375D02*
X009861Y023427D01*
X010267Y023427D01*
X010267Y023375D01*
X009861Y023375D01*
X009861Y023401D02*
X010267Y023401D01*
X010267Y023427D02*
X009861Y023427D01*
X009861Y023572D02*
X009861Y023624D01*
X010267Y023624D01*
X010267Y023572D01*
X009861Y023572D01*
X009861Y023598D02*
X010267Y023598D01*
X010267Y023624D02*
X009861Y023624D01*
X009861Y023768D02*
X009861Y023820D01*
X010267Y023820D01*
X010267Y023768D01*
X009861Y023768D01*
X009861Y023794D02*
X010267Y023794D01*
X010267Y023820D02*
X009861Y023820D01*
X009861Y023965D02*
X009861Y024017D01*
X010267Y024017D01*
X010267Y023965D01*
X009861Y023965D01*
X009861Y023991D02*
X010267Y023991D01*
X010267Y024017D02*
X009861Y024017D01*
X009861Y024162D02*
X009861Y024214D01*
X010267Y024214D01*
X010267Y024162D01*
X009861Y024162D01*
X009861Y024188D02*
X010267Y024188D01*
X010267Y024214D02*
X009861Y024214D01*
X009861Y024359D02*
X009861Y024411D01*
X010267Y024411D01*
X010267Y024359D01*
X009861Y024359D01*
X009861Y024385D02*
X010267Y024385D01*
X010267Y024411D02*
X009861Y024411D01*
X009861Y024556D02*
X009861Y024608D01*
X010267Y024608D01*
X010267Y024556D01*
X009861Y024556D01*
X009861Y024582D02*
X010267Y024582D01*
X010267Y024608D02*
X009861Y024608D01*
X009861Y024753D02*
X009861Y024805D01*
X010267Y024805D01*
X010267Y024753D01*
X009861Y024753D01*
X009861Y024779D02*
X010267Y024779D01*
X010267Y024805D02*
X009861Y024805D01*
X009861Y024950D02*
X009861Y025002D01*
X010267Y025002D01*
X010267Y024950D01*
X009861Y024950D01*
X009861Y024976D02*
X010267Y024976D01*
X010267Y025002D02*
X009861Y025002D01*
X009861Y025146D02*
X009861Y025198D01*
X010267Y025198D01*
X010267Y025146D01*
X009861Y025146D01*
X009861Y025172D02*
X010267Y025172D01*
X010267Y025198D02*
X009861Y025198D01*
X009861Y025343D02*
X009861Y025395D01*
X010267Y025395D01*
X010267Y025343D01*
X009861Y025343D01*
X009861Y025369D02*
X010267Y025369D01*
X010267Y025395D02*
X009861Y025395D01*
X009861Y025540D02*
X009861Y025592D01*
X010267Y025592D01*
X010267Y025540D01*
X009861Y025540D01*
X009861Y025566D02*
X010267Y025566D01*
X010267Y025592D02*
X009861Y025592D01*
X009861Y025737D02*
X009861Y025789D01*
X010267Y025789D01*
X010267Y025737D01*
X009861Y025737D01*
X009861Y025763D02*
X010267Y025763D01*
X010267Y025789D02*
X009861Y025789D01*
X009861Y025934D02*
X009861Y025986D01*
X010267Y025986D01*
X010267Y025934D01*
X009861Y025934D01*
X009861Y025960D02*
X010267Y025960D01*
X010267Y025986D02*
X009861Y025986D01*
X009861Y026131D02*
X009861Y026183D01*
X010267Y026183D01*
X010267Y026131D01*
X009861Y026131D01*
X009861Y026157D02*
X010267Y026157D01*
X010267Y026183D02*
X009861Y026183D01*
X009861Y026327D02*
X009861Y026379D01*
X010267Y026379D01*
X010267Y026327D01*
X009861Y026327D01*
X009861Y026353D02*
X010267Y026353D01*
X010267Y026379D02*
X009861Y026379D01*
X009861Y026524D02*
X009861Y026576D01*
X010267Y026576D01*
X010267Y026524D01*
X009861Y026524D01*
X009861Y026550D02*
X010267Y026550D01*
X010267Y026576D02*
X009861Y026576D01*
X009861Y026721D02*
X009861Y026773D01*
X010267Y026773D01*
X010267Y026721D01*
X009861Y026721D01*
X009861Y026747D02*
X010267Y026747D01*
X010267Y026773D02*
X009861Y026773D01*
X009861Y026918D02*
X009861Y026970D01*
X010267Y026970D01*
X010267Y026918D01*
X009861Y026918D01*
X009861Y026944D02*
X010267Y026944D01*
X010267Y026970D02*
X009861Y026970D01*
X009861Y027115D02*
X009861Y027167D01*
X010267Y027167D01*
X010267Y027115D01*
X009861Y027115D01*
X009861Y027141D02*
X010267Y027141D01*
X010267Y027167D02*
X009861Y027167D01*
X009861Y027312D02*
X009861Y027364D01*
X010267Y027364D01*
X010267Y027312D01*
X009861Y027312D01*
X009861Y027338D02*
X010267Y027338D01*
X010267Y027364D02*
X009861Y027364D01*
X009861Y027509D02*
X009861Y027561D01*
X010267Y027561D01*
X010267Y027509D01*
X009861Y027509D01*
X009861Y027535D02*
X010267Y027535D01*
X010267Y027561D02*
X009861Y027561D01*
X009861Y027705D02*
X009861Y027757D01*
X010267Y027757D01*
X010267Y027705D01*
X009861Y027705D01*
X009861Y027731D02*
X010267Y027731D01*
X010267Y027757D02*
X009861Y027757D01*
X009861Y027902D02*
X009861Y027954D01*
X010267Y027954D01*
X010267Y027902D01*
X009861Y027902D01*
X009861Y027928D02*
X010267Y027928D01*
X010267Y027954D02*
X009861Y027954D01*
X009861Y028099D02*
X009861Y028151D01*
X010267Y028151D01*
X010267Y028099D01*
X009861Y028099D01*
X009861Y028125D02*
X010267Y028125D01*
X010267Y028151D02*
X009861Y028151D01*
X009861Y028296D02*
X009861Y028348D01*
X010267Y028348D01*
X010267Y028296D01*
X009861Y028296D01*
X009861Y028322D02*
X010267Y028322D01*
X010267Y028348D02*
X009861Y028348D01*
X009861Y028493D02*
X009861Y028545D01*
X010267Y028545D01*
X010267Y028493D01*
X009861Y028493D01*
X009861Y028519D02*
X010267Y028519D01*
X010267Y028545D02*
X009861Y028545D01*
X010845Y029123D02*
X010845Y029529D01*
X010897Y029529D01*
X010897Y029123D01*
X010845Y029123D01*
X010845Y029149D02*
X010897Y029149D01*
X010897Y029175D02*
X010845Y029175D01*
X010845Y029201D02*
X010897Y029201D01*
X010897Y029227D02*
X010845Y029227D01*
X010845Y029253D02*
X010897Y029253D01*
X010897Y029279D02*
X010845Y029279D01*
X010845Y029305D02*
X010897Y029305D01*
X010897Y029331D02*
X010845Y029331D01*
X010845Y029357D02*
X010897Y029357D01*
X010897Y029383D02*
X010845Y029383D01*
X010845Y029409D02*
X010897Y029409D01*
X010897Y029435D02*
X010845Y029435D01*
X010845Y029461D02*
X010897Y029461D01*
X010897Y029487D02*
X010845Y029487D01*
X010845Y029513D02*
X010897Y029513D01*
X011042Y029529D02*
X011042Y029123D01*
X011042Y029529D02*
X011094Y029529D01*
X011094Y029123D01*
X011042Y029123D01*
X011042Y029149D02*
X011094Y029149D01*
X011094Y029175D02*
X011042Y029175D01*
X011042Y029201D02*
X011094Y029201D01*
X011094Y029227D02*
X011042Y029227D01*
X011042Y029253D02*
X011094Y029253D01*
X011094Y029279D02*
X011042Y029279D01*
X011042Y029305D02*
X011094Y029305D01*
X011094Y029331D02*
X011042Y029331D01*
X011042Y029357D02*
X011094Y029357D01*
X011094Y029383D02*
X011042Y029383D01*
X011042Y029409D02*
X011094Y029409D01*
X011094Y029435D02*
X011042Y029435D01*
X011042Y029461D02*
X011094Y029461D01*
X011094Y029487D02*
X011042Y029487D01*
X011042Y029513D02*
X011094Y029513D01*
X011239Y029529D02*
X011239Y029123D01*
X011239Y029529D02*
X011291Y029529D01*
X011291Y029123D01*
X011239Y029123D01*
X011239Y029149D02*
X011291Y029149D01*
X011291Y029175D02*
X011239Y029175D01*
X011239Y029201D02*
X011291Y029201D01*
X011291Y029227D02*
X011239Y029227D01*
X011239Y029253D02*
X011291Y029253D01*
X011291Y029279D02*
X011239Y029279D01*
X011239Y029305D02*
X011291Y029305D01*
X011291Y029331D02*
X011239Y029331D01*
X011239Y029357D02*
X011291Y029357D01*
X011291Y029383D02*
X011239Y029383D01*
X011239Y029409D02*
X011291Y029409D01*
X011291Y029435D02*
X011239Y029435D01*
X011239Y029461D02*
X011291Y029461D01*
X011291Y029487D02*
X011239Y029487D01*
X011239Y029513D02*
X011291Y029513D01*
X011436Y029529D02*
X011436Y029123D01*
X011436Y029529D02*
X011488Y029529D01*
X011488Y029123D01*
X011436Y029123D01*
X011436Y029149D02*
X011488Y029149D01*
X011488Y029175D02*
X011436Y029175D01*
X011436Y029201D02*
X011488Y029201D01*
X011488Y029227D02*
X011436Y029227D01*
X011436Y029253D02*
X011488Y029253D01*
X011488Y029279D02*
X011436Y029279D01*
X011436Y029305D02*
X011488Y029305D01*
X011488Y029331D02*
X011436Y029331D01*
X011436Y029357D02*
X011488Y029357D01*
X011488Y029383D02*
X011436Y029383D01*
X011436Y029409D02*
X011488Y029409D01*
X011488Y029435D02*
X011436Y029435D01*
X011436Y029461D02*
X011488Y029461D01*
X011488Y029487D02*
X011436Y029487D01*
X011436Y029513D02*
X011488Y029513D01*
X011633Y029529D02*
X011633Y029123D01*
X011633Y029529D02*
X011685Y029529D01*
X011685Y029123D01*
X011633Y029123D01*
X011633Y029149D02*
X011685Y029149D01*
X011685Y029175D02*
X011633Y029175D01*
X011633Y029201D02*
X011685Y029201D01*
X011685Y029227D02*
X011633Y029227D01*
X011633Y029253D02*
X011685Y029253D01*
X011685Y029279D02*
X011633Y029279D01*
X011633Y029305D02*
X011685Y029305D01*
X011685Y029331D02*
X011633Y029331D01*
X011633Y029357D02*
X011685Y029357D01*
X011685Y029383D02*
X011633Y029383D01*
X011633Y029409D02*
X011685Y029409D01*
X011685Y029435D02*
X011633Y029435D01*
X011633Y029461D02*
X011685Y029461D01*
X011685Y029487D02*
X011633Y029487D01*
X011633Y029513D02*
X011685Y029513D01*
X011830Y029529D02*
X011830Y029123D01*
X011830Y029529D02*
X011882Y029529D01*
X011882Y029123D01*
X011830Y029123D01*
X011830Y029149D02*
X011882Y029149D01*
X011882Y029175D02*
X011830Y029175D01*
X011830Y029201D02*
X011882Y029201D01*
X011882Y029227D02*
X011830Y029227D01*
X011830Y029253D02*
X011882Y029253D01*
X011882Y029279D02*
X011830Y029279D01*
X011830Y029305D02*
X011882Y029305D01*
X011882Y029331D02*
X011830Y029331D01*
X011830Y029357D02*
X011882Y029357D01*
X011882Y029383D02*
X011830Y029383D01*
X011830Y029409D02*
X011882Y029409D01*
X011882Y029435D02*
X011830Y029435D01*
X011830Y029461D02*
X011882Y029461D01*
X011882Y029487D02*
X011830Y029487D01*
X011830Y029513D02*
X011882Y029513D01*
X012026Y029529D02*
X012026Y029123D01*
X012026Y029529D02*
X012078Y029529D01*
X012078Y029123D01*
X012026Y029123D01*
X012026Y029149D02*
X012078Y029149D01*
X012078Y029175D02*
X012026Y029175D01*
X012026Y029201D02*
X012078Y029201D01*
X012078Y029227D02*
X012026Y029227D01*
X012026Y029253D02*
X012078Y029253D01*
X012078Y029279D02*
X012026Y029279D01*
X012026Y029305D02*
X012078Y029305D01*
X012078Y029331D02*
X012026Y029331D01*
X012026Y029357D02*
X012078Y029357D01*
X012078Y029383D02*
X012026Y029383D01*
X012026Y029409D02*
X012078Y029409D01*
X012078Y029435D02*
X012026Y029435D01*
X012026Y029461D02*
X012078Y029461D01*
X012078Y029487D02*
X012026Y029487D01*
X012026Y029513D02*
X012078Y029513D01*
X012223Y029529D02*
X012223Y029123D01*
X012223Y029529D02*
X012275Y029529D01*
X012275Y029123D01*
X012223Y029123D01*
X012223Y029149D02*
X012275Y029149D01*
X012275Y029175D02*
X012223Y029175D01*
X012223Y029201D02*
X012275Y029201D01*
X012275Y029227D02*
X012223Y029227D01*
X012223Y029253D02*
X012275Y029253D01*
X012275Y029279D02*
X012223Y029279D01*
X012223Y029305D02*
X012275Y029305D01*
X012275Y029331D02*
X012223Y029331D01*
X012223Y029357D02*
X012275Y029357D01*
X012275Y029383D02*
X012223Y029383D01*
X012223Y029409D02*
X012275Y029409D01*
X012275Y029435D02*
X012223Y029435D01*
X012223Y029461D02*
X012275Y029461D01*
X012275Y029487D02*
X012223Y029487D01*
X012223Y029513D02*
X012275Y029513D01*
X012420Y029529D02*
X012420Y029123D01*
X012420Y029529D02*
X012472Y029529D01*
X012472Y029123D01*
X012420Y029123D01*
X012420Y029149D02*
X012472Y029149D01*
X012472Y029175D02*
X012420Y029175D01*
X012420Y029201D02*
X012472Y029201D01*
X012472Y029227D02*
X012420Y029227D01*
X012420Y029253D02*
X012472Y029253D01*
X012472Y029279D02*
X012420Y029279D01*
X012420Y029305D02*
X012472Y029305D01*
X012472Y029331D02*
X012420Y029331D01*
X012420Y029357D02*
X012472Y029357D01*
X012472Y029383D02*
X012420Y029383D01*
X012420Y029409D02*
X012472Y029409D01*
X012472Y029435D02*
X012420Y029435D01*
X012420Y029461D02*
X012472Y029461D01*
X012472Y029487D02*
X012420Y029487D01*
X012420Y029513D02*
X012472Y029513D01*
X018720Y017115D02*
X019204Y017115D01*
X018720Y017115D02*
X018720Y017167D01*
X019204Y017167D01*
X019204Y017115D01*
X019204Y017141D02*
X018720Y017141D01*
X018720Y017167D02*
X019204Y017167D01*
X019204Y016970D02*
X018720Y016970D01*
X019204Y016970D02*
X019204Y016918D01*
X018720Y016918D01*
X018720Y016970D01*
X018720Y016944D02*
X019204Y016944D01*
X019204Y016970D02*
X018720Y016970D01*
X018720Y016773D02*
X019204Y016773D01*
X019204Y016721D01*
X018720Y016721D01*
X018720Y016773D01*
X018720Y016747D02*
X019204Y016747D01*
X019204Y016773D02*
X018720Y016773D01*
X018720Y016576D02*
X019204Y016576D01*
X019204Y016524D01*
X018720Y016524D01*
X018720Y016576D01*
X018720Y016550D02*
X019204Y016550D01*
X019204Y016576D02*
X018720Y016576D01*
X018720Y016379D02*
X019204Y016379D01*
X019204Y016327D01*
X018720Y016327D01*
X018720Y016379D01*
X018720Y016353D02*
X019204Y016353D01*
X019204Y016379D02*
X018720Y016379D01*
X018720Y016183D02*
X019204Y016183D01*
X019204Y016131D01*
X018720Y016131D01*
X018720Y016183D01*
X018720Y016157D02*
X019204Y016157D01*
X019204Y016183D02*
X018720Y016183D01*
X018720Y015986D02*
X019204Y015986D01*
X019204Y015934D01*
X018720Y015934D01*
X018720Y015986D01*
X018720Y015960D02*
X019204Y015960D01*
X019204Y015986D02*
X018720Y015986D01*
X018720Y015789D02*
X019204Y015789D01*
X019204Y015737D01*
X018720Y015737D01*
X018720Y015789D01*
X018720Y015763D02*
X019204Y015763D01*
X019204Y015789D02*
X018720Y015789D01*
X018720Y015592D02*
X019204Y015592D01*
X019204Y015540D01*
X018720Y015540D01*
X018720Y015592D01*
X018720Y015566D02*
X019204Y015566D01*
X019204Y015592D02*
X018720Y015592D01*
X018720Y015395D02*
X019204Y015395D01*
X019204Y015343D01*
X018720Y015343D01*
X018720Y015395D01*
X018720Y015369D02*
X019204Y015369D01*
X019204Y015395D02*
X018720Y015395D01*
X018720Y015198D02*
X019204Y015198D01*
X019204Y015146D01*
X018720Y015146D01*
X018720Y015198D01*
X018720Y015172D02*
X019204Y015172D01*
X019204Y015198D02*
X018720Y015198D01*
X018720Y015002D02*
X019204Y015002D01*
X019204Y014950D01*
X018720Y014950D01*
X018720Y015002D01*
X018720Y014976D02*
X019204Y014976D01*
X019204Y015002D02*
X018720Y015002D01*
X018720Y014805D02*
X019204Y014805D01*
X019204Y014753D01*
X018720Y014753D01*
X018720Y014805D01*
X018720Y014779D02*
X019204Y014779D01*
X019204Y014805D02*
X018720Y014805D01*
X018720Y014608D02*
X019204Y014608D01*
X019204Y014556D01*
X018720Y014556D01*
X018720Y014608D01*
X018720Y014582D02*
X019204Y014582D01*
X019204Y014608D02*
X018720Y014608D01*
X018720Y014411D02*
X019204Y014411D01*
X019204Y014359D01*
X018720Y014359D01*
X018720Y014411D01*
X018720Y014385D02*
X019204Y014385D01*
X019204Y014411D02*
X018720Y014411D01*
X018720Y014214D02*
X019204Y014214D01*
X019204Y014162D01*
X018720Y014162D01*
X018720Y014214D01*
X018720Y014188D02*
X019204Y014188D01*
X019204Y014214D02*
X018720Y014214D01*
X018720Y014017D02*
X019204Y014017D01*
X019204Y013965D01*
X018720Y013965D01*
X018720Y014017D01*
X018720Y013991D02*
X019204Y013991D01*
X019204Y014017D02*
X018720Y014017D01*
X018720Y013820D02*
X019204Y013820D01*
X019204Y013768D01*
X018720Y013768D01*
X018720Y013820D01*
X018720Y013794D02*
X019204Y013794D01*
X019204Y013820D02*
X018720Y013820D01*
X018720Y013624D02*
X019204Y013624D01*
X019204Y013572D01*
X018720Y013572D01*
X018720Y013624D01*
X018720Y013598D02*
X019204Y013598D01*
X019204Y013624D02*
X018720Y013624D01*
X018720Y013427D02*
X019204Y013427D01*
X019204Y013375D01*
X018720Y013375D01*
X018720Y013427D01*
X018720Y013401D02*
X019204Y013401D01*
X019204Y013427D02*
X018720Y013427D01*
X018720Y013230D02*
X019204Y013230D01*
X019204Y013178D01*
X018720Y013178D01*
X018720Y013230D01*
X018720Y013204D02*
X019204Y013204D01*
X019204Y013230D02*
X018720Y013230D01*
X018720Y013033D02*
X019204Y013033D01*
X019204Y012981D01*
X018720Y012981D01*
X018720Y013033D01*
X018720Y013007D02*
X019204Y013007D01*
X019204Y013033D02*
X018720Y013033D01*
X018720Y012836D02*
X019204Y012836D01*
X019204Y012784D01*
X018720Y012784D01*
X018720Y012836D01*
X018720Y012810D02*
X019204Y012810D01*
X019204Y012836D02*
X018720Y012836D01*
X018720Y012639D02*
X019204Y012639D01*
X019204Y012587D01*
X018720Y012587D01*
X018720Y012639D01*
X018720Y012613D02*
X019204Y012613D01*
X019204Y012639D02*
X018720Y012639D01*
X018720Y012442D02*
X019204Y012442D01*
X019204Y012390D01*
X018720Y012390D01*
X018720Y012442D01*
X018720Y012416D02*
X019204Y012416D01*
X019204Y012442D02*
X018720Y012442D01*
X018720Y012246D02*
X019204Y012246D01*
X019204Y012194D01*
X018720Y012194D01*
X018720Y012246D01*
X018720Y012220D02*
X019204Y012220D01*
X019204Y012246D02*
X018720Y012246D01*
X018720Y012049D02*
X019204Y012049D01*
X019204Y011997D01*
X018720Y011997D01*
X018720Y012049D01*
X018720Y012023D02*
X019204Y012023D01*
X019204Y012049D02*
X018720Y012049D01*
X018720Y011852D02*
X019204Y011852D01*
X019204Y011800D01*
X018720Y011800D01*
X018720Y011852D01*
X018720Y011826D02*
X019204Y011826D01*
X019204Y011852D02*
X018720Y011852D01*
X018720Y011655D02*
X019204Y011655D01*
X019204Y011603D01*
X018720Y011603D01*
X018720Y011655D01*
X018720Y011629D02*
X019204Y011629D01*
X019204Y011655D02*
X018720Y011655D01*
X018720Y011458D02*
X019204Y011458D01*
X019204Y011406D01*
X018720Y011406D01*
X018720Y011458D01*
X018720Y011432D02*
X019204Y011432D01*
X019204Y011458D02*
X018720Y011458D01*
D13*
X015329Y034998D02*
X015329Y035224D01*
X015855Y035224D01*
X015855Y034998D01*
X015329Y034998D01*
X015329Y035031D02*
X015855Y035031D01*
X015855Y035064D02*
X015329Y035064D01*
X015329Y035097D02*
X015855Y035097D01*
X015855Y035130D02*
X015329Y035130D01*
X015329Y035163D02*
X015855Y035163D01*
X015855Y035196D02*
X015329Y035196D01*
X015329Y036498D02*
X015329Y036724D01*
X015855Y036724D01*
X015855Y036498D01*
X015329Y036498D01*
X015329Y036531D02*
X015855Y036531D01*
X015855Y036564D02*
X015329Y036564D01*
X015329Y036597D02*
X015855Y036597D01*
X015855Y036630D02*
X015329Y036630D01*
X015329Y036663D02*
X015855Y036663D01*
X015855Y036696D02*
X015329Y036696D01*
X013329Y036724D02*
X013329Y036498D01*
X013329Y036724D02*
X013855Y036724D01*
X013855Y036498D01*
X013329Y036498D01*
X013329Y036531D02*
X013855Y036531D01*
X013855Y036564D02*
X013329Y036564D01*
X013329Y036597D02*
X013855Y036597D01*
X013855Y036630D02*
X013329Y036630D01*
X013329Y036663D02*
X013855Y036663D01*
X013855Y036696D02*
X013329Y036696D01*
X013329Y035224D02*
X013329Y034998D01*
X013329Y035224D02*
X013855Y035224D01*
X013855Y034998D01*
X013329Y034998D01*
X013329Y035031D02*
X013855Y035031D01*
X013855Y035064D02*
X013329Y035064D01*
X013329Y035097D02*
X013855Y035097D01*
X013855Y035130D02*
X013329Y035130D01*
X013329Y035163D02*
X013855Y035163D01*
X013855Y035196D02*
X013329Y035196D01*
D14*
X017593Y035005D02*
X018125Y035005D01*
X017593Y035005D02*
X017593Y036481D01*
X018125Y036481D01*
X018125Y035005D01*
X018125Y035063D02*
X017593Y035063D01*
X017593Y035121D02*
X018125Y035121D01*
X018125Y035179D02*
X017593Y035179D01*
X017593Y035237D02*
X018125Y035237D01*
X018125Y035295D02*
X017593Y035295D01*
X017593Y035353D02*
X018125Y035353D01*
X018125Y035411D02*
X017593Y035411D01*
X017593Y035469D02*
X018125Y035469D01*
X018125Y035527D02*
X017593Y035527D01*
X017593Y035585D02*
X018125Y035585D01*
X018125Y035643D02*
X017593Y035643D01*
X017593Y035701D02*
X018125Y035701D01*
X018125Y035759D02*
X017593Y035759D01*
X017593Y035817D02*
X018125Y035817D01*
X018125Y035875D02*
X017593Y035875D01*
X017593Y035933D02*
X018125Y035933D01*
X018125Y035991D02*
X017593Y035991D01*
X017593Y036049D02*
X018125Y036049D01*
X018125Y036107D02*
X017593Y036107D01*
X017593Y036165D02*
X018125Y036165D01*
X018125Y036223D02*
X017593Y036223D01*
X017593Y036281D02*
X018125Y036281D01*
X018125Y036339D02*
X017593Y036339D01*
X017593Y036397D02*
X018125Y036397D01*
X018125Y036455D02*
X017593Y036455D01*
X022160Y035005D02*
X022692Y035005D01*
X022160Y035005D02*
X022160Y036481D01*
X022692Y036481D01*
X022692Y035005D01*
X022692Y035063D02*
X022160Y035063D01*
X022160Y035121D02*
X022692Y035121D01*
X022692Y035179D02*
X022160Y035179D01*
X022160Y035237D02*
X022692Y035237D01*
X022692Y035295D02*
X022160Y035295D01*
X022160Y035353D02*
X022692Y035353D01*
X022692Y035411D02*
X022160Y035411D01*
X022160Y035469D02*
X022692Y035469D01*
X022692Y035527D02*
X022160Y035527D01*
X022160Y035585D02*
X022692Y035585D01*
X022692Y035643D02*
X022160Y035643D01*
X022160Y035701D02*
X022692Y035701D01*
X022692Y035759D02*
X022160Y035759D01*
X022160Y035817D02*
X022692Y035817D01*
X022692Y035875D02*
X022160Y035875D01*
X022160Y035933D02*
X022692Y035933D01*
X022692Y035991D02*
X022160Y035991D01*
X022160Y036049D02*
X022692Y036049D01*
X022692Y036107D02*
X022160Y036107D01*
X022160Y036165D02*
X022692Y036165D01*
X022692Y036223D02*
X022160Y036223D01*
X022160Y036281D02*
X022692Y036281D01*
X022692Y036339D02*
X022160Y036339D01*
X022160Y036397D02*
X022692Y036397D01*
X022692Y036455D02*
X022160Y036455D01*
X023332Y012131D02*
X023332Y011403D01*
X022800Y011403D01*
X022800Y012131D01*
X023332Y012131D01*
X023332Y011461D02*
X022800Y011461D01*
X022800Y011519D02*
X023332Y011519D01*
X023332Y011577D02*
X022800Y011577D01*
X022800Y011635D02*
X023332Y011635D01*
X023332Y011693D02*
X022800Y011693D01*
X022800Y011751D02*
X023332Y011751D01*
X023332Y011809D02*
X022800Y011809D01*
X022800Y011867D02*
X023332Y011867D01*
X023332Y011925D02*
X022800Y011925D01*
X022800Y011983D02*
X023332Y011983D01*
X023332Y012041D02*
X022800Y012041D01*
X022800Y012099D02*
X023332Y012099D01*
X023332Y009690D02*
X023332Y008962D01*
X022800Y008962D01*
X022800Y009690D01*
X023332Y009690D01*
X023332Y009020D02*
X022800Y009020D01*
X022800Y009078D02*
X023332Y009078D01*
X023332Y009136D02*
X022800Y009136D01*
X022800Y009194D02*
X023332Y009194D01*
X023332Y009252D02*
X022800Y009252D01*
X022800Y009310D02*
X023332Y009310D01*
X023332Y009368D02*
X022800Y009368D01*
X022800Y009426D02*
X023332Y009426D01*
X023332Y009484D02*
X022800Y009484D01*
X022800Y009542D02*
X023332Y009542D01*
X023332Y009600D02*
X022800Y009600D01*
X022800Y009658D02*
X023332Y009658D01*
D15*
X016604Y039470D02*
X016478Y039470D01*
X016478Y039832D01*
X016604Y039832D01*
X016604Y039470D01*
X016604Y039500D02*
X016478Y039500D01*
X016478Y039530D02*
X016604Y039530D01*
X016604Y039560D02*
X016478Y039560D01*
X016478Y039590D02*
X016604Y039590D01*
X016604Y039620D02*
X016478Y039620D01*
X016478Y039650D02*
X016604Y039650D01*
X016604Y039680D02*
X016478Y039680D01*
X016478Y039710D02*
X016604Y039710D01*
X016604Y039740D02*
X016478Y039740D01*
X016478Y039770D02*
X016604Y039770D01*
X016604Y039800D02*
X016478Y039800D01*
X016478Y039830D02*
X016604Y039830D01*
X016171Y039470D02*
X016045Y039470D01*
X016045Y039832D01*
X016171Y039832D01*
X016171Y039470D01*
X016171Y039500D02*
X016045Y039500D01*
X016045Y039530D02*
X016171Y039530D01*
X016171Y039560D02*
X016045Y039560D01*
X016045Y039590D02*
X016171Y039590D01*
X016171Y039620D02*
X016045Y039620D01*
X016045Y039650D02*
X016171Y039650D01*
X016171Y039680D02*
X016045Y039680D01*
X016045Y039710D02*
X016171Y039710D01*
X016171Y039740D02*
X016045Y039740D01*
X016045Y039770D02*
X016171Y039770D01*
X016171Y039800D02*
X016045Y039800D01*
X016045Y039830D02*
X016171Y039830D01*
X015737Y039470D02*
X015611Y039470D01*
X015611Y039832D01*
X015737Y039832D01*
X015737Y039470D01*
X015737Y039500D02*
X015611Y039500D01*
X015611Y039530D02*
X015737Y039530D01*
X015737Y039560D02*
X015611Y039560D01*
X015611Y039590D02*
X015737Y039590D01*
X015737Y039620D02*
X015611Y039620D01*
X015611Y039650D02*
X015737Y039650D01*
X015737Y039680D02*
X015611Y039680D01*
X015611Y039710D02*
X015737Y039710D01*
X015737Y039740D02*
X015611Y039740D01*
X015611Y039770D02*
X015737Y039770D01*
X015737Y039800D02*
X015611Y039800D01*
X015611Y039830D02*
X015737Y039830D01*
X015442Y039470D02*
X015316Y039470D01*
X015316Y039832D01*
X015442Y039832D01*
X015442Y039470D01*
X015442Y039500D02*
X015316Y039500D01*
X015316Y039530D02*
X015442Y039530D01*
X015442Y039560D02*
X015316Y039560D01*
X015316Y039590D02*
X015442Y039590D01*
X015442Y039620D02*
X015316Y039620D01*
X015316Y039650D02*
X015442Y039650D01*
X015442Y039680D02*
X015316Y039680D01*
X015316Y039710D02*
X015442Y039710D01*
X015442Y039740D02*
X015316Y039740D01*
X015316Y039770D02*
X015442Y039770D01*
X015442Y039800D02*
X015316Y039800D01*
X015316Y039830D02*
X015442Y039830D01*
X015167Y039470D02*
X015041Y039470D01*
X015041Y039832D01*
X015167Y039832D01*
X015167Y039470D01*
X015167Y039500D02*
X015041Y039500D01*
X015041Y039530D02*
X015167Y039530D01*
X015167Y039560D02*
X015041Y039560D01*
X015041Y039590D02*
X015167Y039590D01*
X015167Y039620D02*
X015041Y039620D01*
X015041Y039650D02*
X015167Y039650D01*
X015167Y039680D02*
X015041Y039680D01*
X015041Y039710D02*
X015167Y039710D01*
X015167Y039740D02*
X015041Y039740D01*
X015041Y039770D02*
X015167Y039770D01*
X015167Y039800D02*
X015041Y039800D01*
X015041Y039830D02*
X015167Y039830D01*
X014871Y039470D02*
X014745Y039470D01*
X014745Y039832D01*
X014871Y039832D01*
X014871Y039470D01*
X014871Y039500D02*
X014745Y039500D01*
X014745Y039530D02*
X014871Y039530D01*
X014871Y039560D02*
X014745Y039560D01*
X014745Y039590D02*
X014871Y039590D01*
X014871Y039620D02*
X014745Y039620D01*
X014745Y039650D02*
X014871Y039650D01*
X014871Y039680D02*
X014745Y039680D01*
X014745Y039710D02*
X014871Y039710D01*
X014871Y039740D02*
X014745Y039740D01*
X014745Y039770D02*
X014871Y039770D01*
X014871Y039800D02*
X014745Y039800D01*
X014745Y039830D02*
X014871Y039830D01*
X014438Y039470D02*
X014312Y039470D01*
X014312Y039832D01*
X014438Y039832D01*
X014438Y039470D01*
X014438Y039500D02*
X014312Y039500D01*
X014312Y039530D02*
X014438Y039530D01*
X014438Y039560D02*
X014312Y039560D01*
X014312Y039590D02*
X014438Y039590D01*
X014438Y039620D02*
X014312Y039620D01*
X014312Y039650D02*
X014438Y039650D01*
X014438Y039680D02*
X014312Y039680D01*
X014312Y039710D02*
X014438Y039710D01*
X014438Y039740D02*
X014312Y039740D01*
X014312Y039770D02*
X014438Y039770D01*
X014438Y039800D02*
X014312Y039800D01*
X014312Y039830D02*
X014438Y039830D01*
X014005Y039470D02*
X013879Y039470D01*
X013879Y039832D01*
X014005Y039832D01*
X014005Y039470D01*
X014005Y039500D02*
X013879Y039500D01*
X013879Y039530D02*
X014005Y039530D01*
X014005Y039560D02*
X013879Y039560D01*
X013879Y039590D02*
X014005Y039590D01*
X014005Y039620D02*
X013879Y039620D01*
X013879Y039650D02*
X014005Y039650D01*
X014005Y039680D02*
X013879Y039680D01*
X013879Y039710D02*
X014005Y039710D01*
X014005Y039740D02*
X013879Y039740D01*
X013879Y039770D02*
X014005Y039770D01*
X014005Y039800D02*
X013879Y039800D01*
X013879Y039830D02*
X014005Y039830D01*
X013572Y039470D02*
X013446Y039470D01*
X013446Y039832D01*
X013572Y039832D01*
X013572Y039470D01*
X013572Y039500D02*
X013446Y039500D01*
X013446Y039530D02*
X013572Y039530D01*
X013572Y039560D02*
X013446Y039560D01*
X013446Y039590D02*
X013572Y039590D01*
X013572Y039620D02*
X013446Y039620D01*
X013446Y039650D02*
X013572Y039650D01*
X013572Y039680D02*
X013446Y039680D01*
X013446Y039710D02*
X013572Y039710D01*
X013572Y039740D02*
X013446Y039740D01*
X013446Y039770D02*
X013572Y039770D01*
X013572Y039800D02*
X013446Y039800D01*
X013446Y039830D02*
X013572Y039830D01*
D16*
X017327Y036517D02*
X017327Y036501D01*
X017211Y036501D01*
X017211Y036517D01*
X017327Y036517D01*
X017327Y036167D02*
X017327Y036151D01*
X017211Y036151D01*
X017211Y036167D01*
X017327Y036167D01*
X016148Y033820D02*
X016148Y033804D01*
X016148Y033820D02*
X016264Y033820D01*
X016264Y033804D01*
X016148Y033804D01*
X015754Y033804D02*
X015754Y033820D01*
X015870Y033820D01*
X015870Y033804D01*
X015754Y033804D01*
X015361Y033804D02*
X015361Y033820D01*
X015477Y033820D01*
X015477Y033804D01*
X015361Y033804D01*
X015361Y033470D02*
X015361Y033454D01*
X015361Y033470D02*
X015477Y033470D01*
X015477Y033454D01*
X015361Y033454D01*
X015754Y033454D02*
X015754Y033470D01*
X015870Y033470D01*
X015870Y033454D01*
X015754Y033454D01*
X016148Y033454D02*
X016148Y033470D01*
X016264Y033470D01*
X016264Y033454D01*
X016148Y033454D01*
X014342Y030053D02*
X014326Y030053D01*
X014342Y030053D02*
X014342Y029937D01*
X014326Y029937D01*
X014326Y030053D01*
X013992Y030053D02*
X013976Y030053D01*
X013992Y030053D02*
X013992Y029937D01*
X013976Y029937D01*
X013976Y030053D01*
X013633Y029780D02*
X013617Y029780D01*
X013617Y029896D01*
X013633Y029896D01*
X013633Y029780D01*
X013283Y029780D02*
X013267Y029780D01*
X013267Y029896D01*
X013283Y029896D01*
X013283Y029780D01*
X013392Y033454D02*
X013392Y033470D01*
X013508Y033470D01*
X013508Y033454D01*
X013392Y033454D01*
X012998Y033454D02*
X012998Y033470D01*
X013114Y033470D01*
X013114Y033454D01*
X012998Y033454D01*
X012998Y033804D02*
X012998Y033820D01*
X013114Y033820D01*
X013114Y033804D01*
X012998Y033804D01*
X013392Y033804D02*
X013392Y033820D01*
X013508Y033820D01*
X013508Y033804D01*
X013392Y033804D01*
X013786Y033804D02*
X013786Y033820D01*
X013902Y033820D01*
X013902Y033804D01*
X013786Y033804D01*
X013786Y033470D02*
X013786Y033454D01*
X013786Y033470D02*
X013902Y033470D01*
X013902Y033454D01*
X013786Y033454D01*
X009243Y027555D02*
X009227Y027555D01*
X009227Y027671D01*
X009243Y027671D01*
X009243Y027555D01*
X009042Y027981D02*
X009042Y027997D01*
X009158Y027997D01*
X009158Y027981D01*
X009042Y027981D01*
X009042Y028331D02*
X009042Y028347D01*
X009158Y028347D01*
X009158Y028331D01*
X009042Y028331D01*
X008893Y027555D02*
X008877Y027555D01*
X008877Y027671D01*
X008893Y027671D01*
X008893Y027555D01*
X007736Y026998D02*
X007725Y026987D01*
X007736Y026998D02*
X007817Y026917D01*
X007806Y026906D01*
X007725Y026987D01*
X007488Y026751D02*
X007477Y026740D01*
X007488Y026751D02*
X007569Y026670D01*
X007558Y026659D01*
X007477Y026740D01*
X007373Y028244D02*
X007357Y028244D01*
X007357Y028360D01*
X007373Y028360D01*
X007373Y028244D01*
X007023Y028244D02*
X007007Y028244D01*
X007007Y028360D01*
X007023Y028360D01*
X007023Y028244D01*
X009492Y021950D02*
X009492Y021934D01*
X009376Y021934D01*
X009376Y021950D01*
X009492Y021950D01*
X009492Y021600D02*
X009492Y021584D01*
X009376Y021584D01*
X009376Y021600D01*
X009492Y021600D01*
X009684Y020803D02*
X009700Y020803D01*
X009684Y020803D02*
X009684Y020919D01*
X009700Y020919D01*
X009700Y020803D01*
X010034Y020803D02*
X010050Y020803D01*
X010034Y020803D02*
X010034Y020919D01*
X010050Y020919D01*
X010050Y020803D01*
X008987Y019425D02*
X008971Y019425D01*
X008971Y019541D01*
X008987Y019541D01*
X008987Y019425D01*
X008637Y019425D02*
X008621Y019425D01*
X008621Y019541D01*
X008637Y019541D01*
X008637Y019425D01*
X007806Y019465D02*
X007790Y019465D01*
X007790Y019581D01*
X007806Y019581D01*
X007806Y019465D01*
X007456Y019465D02*
X007440Y019465D01*
X007440Y019581D01*
X007456Y019581D01*
X007456Y019465D01*
X007110Y019017D02*
X007110Y019001D01*
X006994Y019001D01*
X006994Y019017D01*
X007110Y019017D01*
X007110Y018667D02*
X007110Y018651D01*
X006994Y018651D01*
X006994Y018667D01*
X007110Y018667D01*
X007066Y015919D02*
X007082Y015919D01*
X007082Y015803D01*
X007066Y015803D01*
X007066Y015919D01*
X007416Y015919D02*
X007432Y015919D01*
X007432Y015803D01*
X007416Y015803D01*
X007416Y015919D01*
X009376Y008446D02*
X009376Y008430D01*
X009376Y008446D02*
X009492Y008446D01*
X009492Y008430D01*
X009376Y008430D01*
X009376Y008096D02*
X009376Y008080D01*
X009376Y008096D02*
X009492Y008096D01*
X009492Y008080D01*
X009376Y008080D01*
X009790Y008080D02*
X009790Y008096D01*
X009906Y008096D01*
X009906Y008080D01*
X009790Y008080D01*
X009790Y008430D02*
X009790Y008446D01*
X009906Y008446D01*
X009906Y008430D01*
X009790Y008430D01*
X011948Y005193D02*
X011964Y005193D01*
X011948Y005193D02*
X011948Y005309D01*
X011964Y005309D01*
X011964Y005193D01*
X012298Y005193D02*
X012314Y005193D01*
X012298Y005193D02*
X012298Y005309D01*
X012314Y005309D01*
X012314Y005193D01*
X015083Y005915D02*
X015083Y005931D01*
X015083Y005915D02*
X014967Y005915D01*
X014967Y005931D01*
X015083Y005931D01*
X015083Y006265D02*
X015083Y006281D01*
X015083Y006265D02*
X014967Y006265D01*
X014967Y006281D01*
X015083Y006281D01*
X015905Y004974D02*
X015921Y004974D01*
X015921Y004858D01*
X015905Y004858D01*
X015905Y004974D01*
X016255Y004974D02*
X016271Y004974D01*
X016271Y004858D01*
X016255Y004858D01*
X016255Y004974D01*
X016732Y004974D02*
X016748Y004974D01*
X016748Y004858D01*
X016732Y004858D01*
X016732Y004974D01*
X017082Y004974D02*
X017098Y004974D01*
X017098Y004858D01*
X017082Y004858D01*
X017082Y004974D01*
X018385Y004839D02*
X018401Y004839D01*
X018385Y004839D02*
X018385Y004955D01*
X018401Y004955D01*
X018401Y004839D01*
X018735Y004839D02*
X018751Y004839D01*
X018735Y004839D02*
X018735Y004955D01*
X018751Y004955D01*
X018751Y004839D01*
X017998Y007607D02*
X017998Y007623D01*
X018114Y007623D01*
X018114Y007607D01*
X017998Y007607D01*
X017998Y007957D02*
X017998Y007973D01*
X018114Y007973D01*
X018114Y007957D01*
X017998Y007957D01*
X017491Y007888D02*
X017475Y007888D01*
X017491Y007888D02*
X017491Y007772D01*
X017475Y007772D01*
X017475Y007888D01*
X017141Y007888D02*
X017125Y007888D01*
X017141Y007888D02*
X017141Y007772D01*
X017125Y007772D01*
X017125Y007888D01*
X016802Y007772D02*
X016786Y007772D01*
X016786Y007888D01*
X016802Y007888D01*
X016802Y007772D01*
X016452Y007772D02*
X016436Y007772D01*
X016436Y007888D01*
X016452Y007888D01*
X016452Y007772D01*
X016113Y007986D02*
X016097Y007986D01*
X016113Y007986D02*
X016113Y007870D01*
X016097Y007870D01*
X016097Y007986D01*
X015763Y007986D02*
X015747Y007986D01*
X015763Y007986D02*
X015763Y007870D01*
X015747Y007870D01*
X015747Y007986D01*
X015704Y014760D02*
X015688Y014760D01*
X015688Y014876D01*
X015704Y014876D01*
X015704Y014760D01*
X016038Y014760D02*
X016054Y014760D01*
X016038Y014760D02*
X016038Y014876D01*
X016054Y014876D01*
X016054Y014760D01*
X016074Y017477D02*
X016058Y017477D01*
X016058Y017593D01*
X016074Y017593D01*
X016074Y017477D01*
X015724Y017477D02*
X015708Y017477D01*
X015708Y017593D01*
X015724Y017593D01*
X015724Y017477D01*
X015287Y017593D02*
X015271Y017593D01*
X015287Y017593D02*
X015287Y017477D01*
X015271Y017477D01*
X015271Y017593D01*
X014937Y017593D02*
X014921Y017593D01*
X014937Y017593D02*
X014937Y017477D01*
X014921Y017477D01*
X014921Y017593D01*
X014022Y018237D02*
X014022Y018253D01*
X014138Y018253D01*
X014138Y018237D01*
X014022Y018237D01*
X014022Y018587D02*
X014022Y018603D01*
X014138Y018603D01*
X014138Y018587D01*
X014022Y018587D01*
X013547Y019064D02*
X013547Y019080D01*
X013547Y019064D02*
X013431Y019064D01*
X013431Y019080D01*
X013547Y019080D01*
X013547Y019414D02*
X013547Y019430D01*
X013547Y019414D02*
X013431Y019414D01*
X013431Y019430D01*
X013547Y019430D01*
X014079Y019395D02*
X014079Y019379D01*
X013963Y019379D01*
X013963Y019395D01*
X014079Y019395D01*
X014079Y019729D02*
X014079Y019745D01*
X014079Y019729D02*
X013963Y019729D01*
X013963Y019745D01*
X014079Y019745D01*
X014625Y019640D02*
X014641Y019640D01*
X014641Y019524D01*
X014625Y019524D01*
X014625Y019640D01*
X014975Y019640D02*
X014991Y019640D01*
X014991Y019524D01*
X014975Y019524D01*
X014975Y019640D01*
X015043Y019970D02*
X015043Y019986D01*
X015043Y019970D02*
X014927Y019970D01*
X014927Y019986D01*
X015043Y019986D01*
X015043Y020320D02*
X015043Y020336D01*
X015043Y020320D02*
X014927Y020320D01*
X014927Y020336D01*
X015043Y020336D01*
X016185Y019844D02*
X016185Y019828D01*
X016069Y019828D01*
X016069Y019844D01*
X016185Y019844D01*
X016185Y019494D02*
X016185Y019478D01*
X016069Y019478D01*
X016069Y019494D01*
X016185Y019494D01*
X017071Y019556D02*
X017071Y019572D01*
X017071Y019556D02*
X016955Y019556D01*
X016955Y019572D01*
X017071Y019572D01*
X017071Y019906D02*
X017071Y019922D01*
X017071Y019906D02*
X016955Y019906D01*
X016955Y019922D01*
X017071Y019922D01*
X017344Y019266D02*
X017360Y019266D01*
X017360Y019150D01*
X017344Y019150D01*
X017344Y019266D01*
X017694Y019266D02*
X017710Y019266D01*
X017710Y019150D01*
X017694Y019150D01*
X017694Y019266D01*
X018070Y020429D02*
X018086Y020429D01*
X018070Y020429D02*
X018070Y020545D01*
X018086Y020545D01*
X018086Y020429D01*
X018420Y020429D02*
X018436Y020429D01*
X018420Y020429D02*
X018420Y020545D01*
X018436Y020545D01*
X018436Y020429D01*
X019507Y022337D02*
X019523Y022337D01*
X019523Y022221D01*
X019507Y022221D01*
X019507Y022337D01*
X019857Y022337D02*
X019873Y022337D01*
X019873Y022221D01*
X019857Y022221D01*
X019857Y022337D01*
X020673Y022607D02*
X020673Y022623D01*
X020673Y022607D02*
X020557Y022607D01*
X020557Y022623D01*
X020673Y022623D01*
X020673Y022957D02*
X020673Y022973D01*
X020673Y022957D02*
X020557Y022957D01*
X020557Y022973D01*
X020673Y022973D01*
X020280Y020533D02*
X020280Y020517D01*
X020164Y020517D01*
X020164Y020533D01*
X020280Y020533D01*
X020280Y020183D02*
X020280Y020167D01*
X020164Y020167D01*
X020164Y020183D01*
X020280Y020183D01*
X020496Y019844D02*
X020496Y019828D01*
X020380Y019828D01*
X020380Y019844D01*
X020496Y019844D01*
X020496Y019494D02*
X020496Y019478D01*
X020380Y019478D01*
X020380Y019494D01*
X020496Y019494D01*
X020483Y017496D02*
X020467Y017496D01*
X020467Y017612D01*
X020483Y017612D01*
X020483Y017496D01*
X020133Y017496D02*
X020117Y017496D01*
X020117Y017612D01*
X020133Y017612D01*
X020133Y017496D01*
X021988Y015134D02*
X022004Y015134D01*
X021988Y015134D02*
X021988Y015250D01*
X022004Y015250D01*
X022004Y015134D01*
X022338Y015134D02*
X022354Y015134D01*
X022338Y015134D02*
X022338Y015250D01*
X022354Y015250D01*
X022354Y015134D01*
X022358Y012457D02*
X022342Y012457D01*
X022342Y012573D01*
X022358Y012573D01*
X022358Y012457D01*
X022692Y012457D02*
X022708Y012457D01*
X022692Y012457D02*
X022692Y012573D01*
X022708Y012573D01*
X022708Y012457D01*
X022998Y007422D02*
X022998Y007406D01*
X022998Y007422D02*
X023114Y007422D01*
X023114Y007406D01*
X022998Y007406D01*
X022998Y007072D02*
X022998Y007056D01*
X022998Y007072D02*
X023114Y007072D01*
X023114Y007056D01*
X022998Y007056D01*
X021894Y006674D02*
X021894Y006658D01*
X021778Y006658D01*
X021778Y006674D01*
X021894Y006674D01*
X021894Y006324D02*
X021894Y006308D01*
X021778Y006308D01*
X021778Y006324D01*
X021894Y006324D01*
X024416Y003151D02*
X024416Y003135D01*
X024416Y003151D02*
X024532Y003151D01*
X024532Y003135D01*
X024416Y003135D01*
X024416Y002801D02*
X024416Y002785D01*
X024416Y002801D02*
X024532Y002801D01*
X024532Y002785D01*
X024416Y002785D01*
X024307Y002455D02*
X024291Y002455D01*
X024307Y002455D02*
X024307Y002339D01*
X024291Y002339D01*
X024291Y002455D01*
X024641Y002455D02*
X024657Y002455D01*
X024657Y002339D01*
X024641Y002339D01*
X024641Y002455D01*
X024960Y022534D02*
X024976Y022534D01*
X024976Y022418D01*
X024960Y022418D01*
X024960Y022534D01*
X024960Y022951D02*
X024976Y022951D01*
X024976Y022835D01*
X024960Y022835D01*
X024960Y022951D01*
X024960Y023451D02*
X024976Y023451D01*
X024976Y023335D01*
X024960Y023335D01*
X024960Y023451D01*
X025310Y023451D02*
X025326Y023451D01*
X025326Y023335D01*
X025310Y023335D01*
X025310Y023451D01*
X025310Y022951D02*
X025326Y022951D01*
X025326Y022835D01*
X025310Y022835D01*
X025310Y022951D01*
X025310Y022534D02*
X025326Y022534D01*
X025326Y022418D01*
X025310Y022418D01*
X025310Y022534D01*
X025310Y024451D02*
X025326Y024451D01*
X025326Y024335D01*
X025310Y024335D01*
X025310Y024451D01*
X025310Y024951D02*
X025326Y024951D01*
X025326Y024835D01*
X025310Y024835D01*
X025310Y024951D01*
X024976Y024951D02*
X024960Y024951D01*
X024976Y024951D02*
X024976Y024835D01*
X024960Y024835D01*
X024960Y024951D01*
X024960Y024451D02*
X024976Y024451D01*
X024976Y024335D01*
X024960Y024335D01*
X024960Y024451D01*
X025944Y026788D02*
X025960Y026788D01*
X025944Y026788D02*
X025944Y026904D01*
X025960Y026904D01*
X025960Y026788D01*
X026294Y026788D02*
X026310Y026788D01*
X026294Y026788D02*
X026294Y026904D01*
X026310Y026904D01*
X026310Y026788D01*
X026294Y027904D02*
X026310Y027904D01*
X026310Y027788D01*
X026294Y027788D01*
X026294Y027904D01*
X025960Y027904D02*
X025944Y027904D01*
X025960Y027904D02*
X025960Y027788D01*
X025944Y027788D01*
X025944Y027904D01*
X025944Y028904D02*
X025960Y028904D01*
X025960Y028788D01*
X025944Y028788D01*
X025944Y028904D01*
X026294Y028904D02*
X026310Y028904D01*
X026310Y028788D01*
X026294Y028788D01*
X026294Y028904D01*
X021369Y026687D02*
X021353Y026687D01*
X021369Y026687D02*
X021369Y026571D01*
X021353Y026571D01*
X021353Y026687D01*
X021019Y026687D02*
X021003Y026687D01*
X021019Y026687D02*
X021019Y026571D01*
X021003Y026571D01*
X021003Y026687D01*
X019637Y027120D02*
X019621Y027120D01*
X019637Y027120D02*
X019637Y027004D01*
X019621Y027004D01*
X019621Y027120D01*
X019287Y027120D02*
X019271Y027120D01*
X019287Y027120D02*
X019287Y027004D01*
X019271Y027004D01*
X019271Y027120D01*
X019453Y026596D02*
X019453Y026580D01*
X019337Y026580D01*
X019337Y026596D01*
X019453Y026596D01*
X019453Y026246D02*
X019453Y026230D01*
X019337Y026230D01*
X019337Y026246D01*
X019453Y026246D01*
X019562Y030959D02*
X019578Y030959D01*
X019578Y030843D01*
X019562Y030843D01*
X019562Y030959D01*
X019228Y030959D02*
X019212Y030959D01*
X019228Y030959D02*
X019228Y030843D01*
X019212Y030843D01*
X019212Y030959D01*
X012642Y020218D02*
X012642Y020202D01*
X012526Y020202D01*
X012526Y020218D01*
X012642Y020218D01*
X012642Y019868D02*
X012642Y019852D01*
X012526Y019852D01*
X012526Y019868D01*
X012642Y019868D01*
X012531Y019307D02*
X012515Y019307D01*
X012515Y019423D01*
X012531Y019423D01*
X012531Y019307D01*
X012181Y019307D02*
X012165Y019307D01*
X012165Y019423D01*
X012181Y019423D01*
X012181Y019307D01*
X006743Y006984D02*
X006727Y006984D01*
X006727Y007100D01*
X006743Y007100D01*
X006743Y006984D01*
X006393Y006984D02*
X006377Y006984D01*
X006377Y007100D01*
X006393Y007100D01*
X006393Y006984D01*
X007250Y006635D02*
X007250Y006619D01*
X007250Y006635D02*
X007366Y006635D01*
X007366Y006619D01*
X007250Y006619D01*
X007250Y006285D02*
X007250Y006269D01*
X007250Y006285D02*
X007366Y006285D01*
X007366Y006269D01*
X007250Y006269D01*
X007683Y006269D02*
X007683Y006285D01*
X007799Y006285D01*
X007799Y006269D01*
X007683Y006269D01*
X007683Y006619D02*
X007683Y006635D01*
X007799Y006635D01*
X007799Y006619D01*
X007683Y006619D01*
X007570Y004977D02*
X007554Y004977D01*
X007554Y005093D01*
X007570Y005093D01*
X007570Y004977D01*
X007220Y004977D02*
X007204Y004977D01*
X007204Y005093D01*
X007220Y005093D01*
X007220Y004977D01*
X007137Y001138D02*
X007121Y001138D01*
X007121Y001254D01*
X007137Y001254D01*
X007137Y001138D01*
X006787Y001138D02*
X006771Y001138D01*
X006771Y001254D01*
X006787Y001254D01*
X006787Y001138D01*
X007854Y001254D02*
X007870Y001254D01*
X007870Y001138D01*
X007854Y001138D01*
X007854Y001254D01*
X008204Y001254D02*
X008220Y001254D01*
X008220Y001138D01*
X008204Y001138D01*
X008204Y001254D01*
D17*
X015478Y005920D02*
X015714Y005920D01*
X015714Y006117D02*
X015478Y006117D01*
X015478Y006314D02*
X015714Y006314D01*
X015714Y006511D02*
X015478Y006511D01*
X015478Y006708D02*
X015714Y006708D01*
X015714Y006905D02*
X015478Y006905D01*
X015911Y007082D02*
X015911Y007338D01*
X016108Y007338D02*
X016108Y007082D01*
X016304Y007082D02*
X016304Y007338D01*
X016501Y007338D02*
X016501Y007082D01*
X016698Y007082D02*
X016698Y007338D01*
X016895Y007338D02*
X016895Y007082D01*
X017092Y006905D02*
X017328Y006905D01*
X017328Y006708D02*
X017092Y006708D01*
X017092Y006511D02*
X017328Y006511D01*
X017328Y006314D02*
X017092Y006314D01*
X017092Y006117D02*
X017328Y006117D01*
X017328Y005920D02*
X017092Y005920D01*
X016895Y005743D02*
X016895Y005487D01*
X016698Y005487D02*
X016698Y005743D01*
X016501Y005743D02*
X016501Y005487D01*
X016304Y005487D02*
X016304Y005743D01*
X016108Y005743D02*
X016108Y005487D01*
X015911Y005487D02*
X015911Y005743D01*
D18*
X023238Y009991D02*
X023238Y010079D01*
X023238Y009991D02*
X022756Y009991D01*
X022756Y010079D01*
X023238Y010079D01*
X023238Y010019D02*
X022756Y010019D01*
X022756Y010047D02*
X023238Y010047D01*
X023238Y010075D02*
X022756Y010075D01*
X023238Y010246D02*
X023238Y010334D01*
X023238Y010246D02*
X022756Y010246D01*
X022756Y010334D01*
X023238Y010334D01*
X023238Y010274D02*
X022756Y010274D01*
X022756Y010302D02*
X023238Y010302D01*
X023238Y010330D02*
X022756Y010330D01*
X023238Y010502D02*
X023238Y010590D01*
X023238Y010502D02*
X022756Y010502D01*
X022756Y010590D01*
X023238Y010590D01*
X023238Y010530D02*
X022756Y010530D01*
X022756Y010558D02*
X023238Y010558D01*
X023238Y010586D02*
X022756Y010586D01*
X023238Y010758D02*
X023238Y010846D01*
X023238Y010758D02*
X022756Y010758D01*
X022756Y010846D01*
X023238Y010846D01*
X023238Y010786D02*
X022756Y010786D01*
X022756Y010814D02*
X023238Y010814D01*
X023238Y010842D02*
X022756Y010842D01*
X023238Y011014D02*
X023238Y011102D01*
X023238Y011014D02*
X022756Y011014D01*
X022756Y011102D01*
X023238Y011102D01*
X023238Y011042D02*
X022756Y011042D01*
X022756Y011070D02*
X023238Y011070D01*
X023238Y011098D02*
X022756Y011098D01*
D19*
X024438Y011377D02*
X024438Y010701D01*
X023800Y010701D01*
X023800Y011377D01*
X024438Y011377D01*
X024438Y010771D02*
X023800Y010771D01*
X023800Y010841D02*
X024438Y010841D01*
X024438Y010911D02*
X023800Y010911D01*
X023800Y010981D02*
X024438Y010981D01*
X024438Y011051D02*
X023800Y011051D01*
X023800Y011121D02*
X024438Y011121D01*
X024438Y011191D02*
X023800Y011191D01*
X023800Y011261D02*
X024438Y011261D01*
X024438Y011331D02*
X023800Y011331D01*
X024438Y011743D02*
X024438Y012499D01*
X024438Y011743D02*
X023800Y011743D01*
X023800Y012499D01*
X024438Y012499D01*
X024438Y011813D02*
X023800Y011813D01*
X023800Y011883D02*
X024438Y011883D01*
X024438Y011953D02*
X023800Y011953D01*
X023800Y012023D02*
X024438Y012023D01*
X024438Y012093D02*
X023800Y012093D01*
X023800Y012163D02*
X024438Y012163D01*
X024438Y012233D02*
X023800Y012233D01*
X023800Y012303D02*
X024438Y012303D01*
X024438Y012373D02*
X023800Y012373D01*
X023800Y012443D02*
X024438Y012443D01*
X024438Y010392D02*
X024438Y009716D01*
X023800Y009716D01*
X023800Y010392D01*
X024438Y010392D01*
X024438Y009786D02*
X023800Y009786D01*
X023800Y009856D02*
X024438Y009856D01*
X024438Y009926D02*
X023800Y009926D01*
X023800Y009996D02*
X024438Y009996D01*
X024438Y010066D02*
X023800Y010066D01*
X023800Y010136D02*
X024438Y010136D01*
X024438Y010206D02*
X023800Y010206D01*
X023800Y010276D02*
X024438Y010276D01*
X024438Y010346D02*
X023800Y010346D01*
X024438Y009350D02*
X024438Y008594D01*
X023800Y008594D01*
X023800Y009350D01*
X024438Y009350D01*
X024438Y008664D02*
X023800Y008664D01*
X023800Y008734D02*
X024438Y008734D01*
X024438Y008804D02*
X023800Y008804D01*
X023800Y008874D02*
X024438Y008874D01*
X024438Y008944D02*
X023800Y008944D01*
X023800Y009014D02*
X024438Y009014D01*
X024438Y009084D02*
X023800Y009084D01*
X023800Y009154D02*
X024438Y009154D01*
X024438Y009224D02*
X023800Y009224D01*
X023800Y009294D02*
X024438Y009294D01*
D20*
X022299Y013618D02*
X022299Y013696D01*
X022299Y014366D02*
X022299Y014444D01*
X021530Y014444D02*
X021530Y014366D01*
X021530Y013696D02*
X021530Y013618D01*
X021943Y018539D02*
X021943Y018617D01*
X022713Y018617D02*
X022713Y018539D01*
X021284Y022603D02*
X021206Y022603D01*
X021206Y023372D02*
X021284Y023372D01*
X012406Y018844D02*
X012328Y018844D01*
X012328Y018075D02*
X012406Y018075D01*
X008441Y020271D02*
X008441Y020349D01*
X007672Y020349D02*
X007672Y020271D01*
X007829Y021728D02*
X007829Y021806D01*
X008598Y021806D02*
X008598Y021728D01*
X013096Y007230D02*
X013174Y007230D01*
X013174Y006461D02*
X013096Y006461D01*
X011363Y005262D02*
X011285Y005262D01*
X011285Y004492D02*
X011363Y004492D01*
X010843Y003617D02*
X010843Y003539D01*
X010073Y003539D02*
X010073Y003617D01*
X008312Y005240D02*
X008234Y005240D01*
X008234Y006010D02*
X008312Y006010D01*
X023687Y002506D02*
X023765Y002506D01*
X023765Y001737D02*
X023687Y001737D01*
D21*
X023591Y003207D02*
X023427Y003207D01*
X023591Y003207D02*
X023591Y003063D01*
X023427Y003063D01*
X023427Y003207D01*
X023427Y003094D02*
X023591Y003094D01*
X023591Y003125D02*
X023427Y003125D01*
X023427Y003156D02*
X023591Y003156D01*
X023591Y003187D02*
X023427Y003187D01*
X023939Y003207D02*
X024103Y003207D01*
X024103Y003063D01*
X023939Y003063D01*
X023939Y003207D01*
X023939Y003094D02*
X024103Y003094D01*
X024103Y003125D02*
X023939Y003125D01*
X023939Y003156D02*
X024103Y003156D01*
X024103Y003187D02*
X023939Y003187D01*
X023847Y003935D02*
X023683Y003935D01*
X023847Y003935D02*
X023847Y003791D01*
X023683Y003791D01*
X023683Y003935D01*
X023683Y003822D02*
X023847Y003822D01*
X023847Y003853D02*
X023683Y003853D01*
X023683Y003884D02*
X023847Y003884D01*
X023847Y003915D02*
X023683Y003915D01*
X023099Y006409D02*
X023099Y006573D01*
X023099Y006409D02*
X022955Y006409D01*
X022955Y006573D01*
X023099Y006573D01*
X023099Y006440D02*
X022955Y006440D01*
X022955Y006471D02*
X023099Y006471D01*
X023099Y006502D02*
X022955Y006502D01*
X022955Y006533D02*
X023099Y006533D01*
X023099Y006564D02*
X022955Y006564D01*
X022370Y006665D02*
X022370Y006829D01*
X022370Y006665D02*
X022226Y006665D01*
X022226Y006829D01*
X022370Y006829D01*
X022370Y006696D02*
X022226Y006696D01*
X022226Y006727D02*
X022370Y006727D01*
X022370Y006758D02*
X022226Y006758D01*
X022226Y006789D02*
X022370Y006789D01*
X022370Y006820D02*
X022226Y006820D01*
X022370Y006317D02*
X022370Y006153D01*
X022226Y006153D01*
X022226Y006317D01*
X022370Y006317D01*
X022370Y006184D02*
X022226Y006184D01*
X022226Y006215D02*
X022370Y006215D01*
X022370Y006246D02*
X022226Y006246D01*
X022226Y006277D02*
X022370Y006277D01*
X022370Y006308D02*
X022226Y006308D01*
X020382Y016409D02*
X020218Y016409D01*
X020218Y016553D01*
X020382Y016553D01*
X020382Y016409D01*
X020382Y016440D02*
X020218Y016440D01*
X020218Y016471D02*
X020382Y016471D01*
X020382Y016502D02*
X020218Y016502D01*
X020218Y016533D02*
X020382Y016533D01*
X020474Y017138D02*
X020638Y017138D01*
X020474Y017138D02*
X020474Y017282D01*
X020638Y017282D01*
X020638Y017138D01*
X020638Y017169D02*
X020474Y017169D01*
X020474Y017200D02*
X020638Y017200D01*
X020638Y017231D02*
X020474Y017231D01*
X020474Y017262D02*
X020638Y017262D01*
X020127Y017138D02*
X019963Y017138D01*
X019963Y017282D01*
X020127Y017282D01*
X020127Y017138D01*
X020127Y017169D02*
X019963Y017169D01*
X019963Y017200D02*
X020127Y017200D01*
X020127Y017231D02*
X019963Y017231D01*
X019963Y017262D02*
X020127Y017262D01*
X019772Y031337D02*
X019608Y031337D01*
X019772Y031337D02*
X019772Y031193D01*
X019608Y031193D01*
X019608Y031337D01*
X019608Y031224D02*
X019772Y031224D01*
X019772Y031255D02*
X019608Y031255D01*
X019608Y031286D02*
X019772Y031286D01*
X019772Y031317D02*
X019608Y031317D01*
X019516Y032065D02*
X019352Y032065D01*
X019516Y032065D02*
X019516Y031921D01*
X019352Y031921D01*
X019352Y032065D01*
X019352Y031952D02*
X019516Y031952D01*
X019516Y031983D02*
X019352Y031983D01*
X019352Y032014D02*
X019516Y032014D01*
X019516Y032045D02*
X019352Y032045D01*
X019260Y031337D02*
X019096Y031337D01*
X019260Y031337D02*
X019260Y031193D01*
X019096Y031193D01*
X019096Y031337D01*
X019096Y031224D02*
X019260Y031224D01*
X019260Y031255D02*
X019096Y031255D01*
X019096Y031286D02*
X019260Y031286D01*
X019260Y031317D02*
X019096Y031317D01*
X007564Y027428D02*
X007449Y027313D01*
X007564Y027428D02*
X007665Y027327D01*
X007550Y027212D01*
X007449Y027313D01*
X007519Y027243D02*
X007581Y027243D01*
X007612Y027274D02*
X007488Y027274D01*
X007457Y027305D02*
X007643Y027305D01*
X007656Y027336D02*
X007472Y027336D01*
X007503Y027367D02*
X007625Y027367D01*
X007594Y027398D02*
X007534Y027398D01*
X007202Y027066D02*
X007087Y026951D01*
X007202Y027066D02*
X007303Y026965D01*
X007188Y026850D01*
X007087Y026951D01*
X007157Y026881D02*
X007219Y026881D01*
X007250Y026912D02*
X007126Y026912D01*
X007095Y026943D02*
X007281Y026943D01*
X007294Y026974D02*
X007110Y026974D01*
X007141Y027005D02*
X007263Y027005D01*
X007232Y027036D02*
X007172Y027036D01*
X006753Y027647D02*
X006868Y027762D01*
X006969Y027661D01*
X006854Y027546D01*
X006753Y027647D01*
X006823Y027577D02*
X006885Y027577D01*
X006916Y027608D02*
X006792Y027608D01*
X006761Y027639D02*
X006947Y027639D01*
X006960Y027670D02*
X006776Y027670D01*
X006807Y027701D02*
X006929Y027701D01*
X006898Y027732D02*
X006838Y027732D01*
X006898Y006626D02*
X006734Y006626D01*
X006734Y006770D01*
X006898Y006770D01*
X006898Y006626D01*
X006898Y006657D02*
X006734Y006657D01*
X006734Y006688D02*
X006898Y006688D01*
X006898Y006719D02*
X006734Y006719D01*
X006734Y006750D02*
X006898Y006750D01*
X006642Y005898D02*
X006478Y005898D01*
X006478Y006042D01*
X006642Y006042D01*
X006642Y005898D01*
X006642Y005929D02*
X006478Y005929D01*
X006478Y005960D02*
X006642Y005960D01*
X006642Y005991D02*
X006478Y005991D01*
X006478Y006022D02*
X006642Y006022D01*
X006386Y006626D02*
X006222Y006626D01*
X006222Y006770D01*
X006386Y006770D01*
X006386Y006626D01*
X006386Y006657D02*
X006222Y006657D01*
X006222Y006688D02*
X006386Y006688D01*
X006386Y006719D02*
X006222Y006719D01*
X006222Y006750D02*
X006386Y006750D01*
X006248Y004614D02*
X006248Y004470D01*
X005848Y004470D01*
X005848Y004614D01*
X006248Y004614D01*
X006248Y004501D02*
X005848Y004501D01*
X005848Y004532D02*
X006248Y004532D01*
X006248Y004563D02*
X005848Y004563D01*
X005848Y004594D02*
X006248Y004594D01*
X006248Y004240D02*
X006248Y004096D01*
X005848Y004096D01*
X005848Y004240D01*
X006248Y004240D01*
X006248Y004127D02*
X005848Y004127D01*
X005848Y004158D02*
X006248Y004158D01*
X006248Y004189D02*
X005848Y004189D01*
X005848Y004220D02*
X006248Y004220D01*
X006248Y003866D02*
X006248Y003722D01*
X005848Y003722D01*
X005848Y003866D01*
X006248Y003866D01*
X006248Y003753D02*
X005848Y003753D01*
X005848Y003784D02*
X006248Y003784D01*
X006248Y003815D02*
X005848Y003815D01*
X005848Y003846D02*
X006248Y003846D01*
X007272Y003866D02*
X007272Y003722D01*
X006872Y003722D01*
X006872Y003866D01*
X007272Y003866D01*
X007272Y003753D02*
X006872Y003753D01*
X006872Y003784D02*
X007272Y003784D01*
X007272Y003815D02*
X006872Y003815D01*
X006872Y003846D02*
X007272Y003846D01*
X007272Y004470D02*
X007272Y004614D01*
X007272Y004470D02*
X006872Y004470D01*
X006872Y004614D01*
X007272Y004614D01*
X007272Y004501D02*
X006872Y004501D01*
X006872Y004532D02*
X007272Y004532D01*
X007272Y004563D02*
X006872Y004563D01*
X006872Y004594D02*
X007272Y004594D01*
X009201Y004654D02*
X009201Y004510D01*
X008801Y004510D01*
X008801Y004654D01*
X009201Y004654D01*
X009201Y004541D02*
X008801Y004541D01*
X008801Y004572D02*
X009201Y004572D01*
X009201Y004603D02*
X008801Y004603D01*
X008801Y004634D02*
X009201Y004634D01*
X009201Y004884D02*
X009201Y005028D01*
X009201Y004884D02*
X008801Y004884D01*
X008801Y005028D01*
X009201Y005028D01*
X009201Y004915D02*
X008801Y004915D01*
X008801Y004946D02*
X009201Y004946D01*
X009201Y004977D02*
X008801Y004977D01*
X008801Y005008D02*
X009201Y005008D01*
X009201Y005258D02*
X009201Y005402D01*
X009201Y005258D02*
X008801Y005258D01*
X008801Y005402D01*
X009201Y005402D01*
X009201Y005289D02*
X008801Y005289D01*
X008801Y005320D02*
X009201Y005320D01*
X009201Y005351D02*
X008801Y005351D01*
X008801Y005382D02*
X009201Y005382D01*
X010225Y005402D02*
X010225Y005258D01*
X009825Y005258D01*
X009825Y005402D01*
X010225Y005402D01*
X010225Y005289D02*
X009825Y005289D01*
X009825Y005320D02*
X010225Y005320D01*
X010225Y005351D02*
X009825Y005351D01*
X009825Y005382D02*
X010225Y005382D01*
X010225Y004654D02*
X010225Y004510D01*
X009825Y004510D01*
X009825Y004654D01*
X010225Y004654D01*
X010225Y004541D02*
X009825Y004541D01*
X009825Y004572D02*
X010225Y004572D01*
X010225Y004603D02*
X009825Y004603D01*
X009825Y004634D02*
X010225Y004634D01*
D22*
X015064Y017909D02*
X015064Y018539D01*
X015064Y017909D02*
X014710Y017909D01*
X014710Y018539D01*
X015064Y018539D01*
X015064Y017947D02*
X014710Y017947D01*
X014710Y017985D02*
X015064Y017985D01*
X015064Y018023D02*
X014710Y018023D01*
X014710Y018061D02*
X015064Y018061D01*
X015064Y018099D02*
X014710Y018099D01*
X014710Y018137D02*
X015064Y018137D01*
X015064Y018175D02*
X014710Y018175D01*
X014710Y018213D02*
X015064Y018213D01*
X015064Y018251D02*
X014710Y018251D01*
X014710Y018289D02*
X015064Y018289D01*
X015064Y018327D02*
X014710Y018327D01*
X014710Y018365D02*
X015064Y018365D01*
X015064Y018403D02*
X014710Y018403D01*
X014710Y018441D02*
X015064Y018441D01*
X015064Y018479D02*
X014710Y018479D01*
X014710Y018517D02*
X015064Y018517D01*
X016285Y018539D02*
X016285Y017909D01*
X015931Y017909D01*
X015931Y018539D01*
X016285Y018539D01*
X016285Y017947D02*
X015931Y017947D01*
X015931Y017985D02*
X016285Y017985D01*
X016285Y018023D02*
X015931Y018023D01*
X015931Y018061D02*
X016285Y018061D01*
X016285Y018099D02*
X015931Y018099D01*
X015931Y018137D02*
X016285Y018137D01*
X016285Y018175D02*
X015931Y018175D01*
X015931Y018213D02*
X016285Y018213D01*
X016285Y018251D02*
X015931Y018251D01*
X015931Y018289D02*
X016285Y018289D01*
X016285Y018327D02*
X015931Y018327D01*
X015931Y018365D02*
X016285Y018365D01*
X016285Y018403D02*
X015931Y018403D01*
X015931Y018441D02*
X016285Y018441D01*
X016285Y018479D02*
X015931Y018479D01*
X015931Y018517D02*
X016285Y018517D01*
D23*
X021957Y011947D02*
X021957Y011627D01*
X021637Y011627D01*
X021637Y011947D01*
X021957Y011947D01*
X021957Y011661D02*
X021637Y011661D01*
X021637Y011695D02*
X021957Y011695D01*
X021957Y011729D02*
X021637Y011729D01*
X021637Y011763D02*
X021957Y011763D01*
X021957Y011797D02*
X021637Y011797D01*
X021637Y011831D02*
X021957Y011831D01*
X021957Y011865D02*
X021637Y011865D01*
X021637Y011899D02*
X021957Y011899D01*
X021957Y011933D02*
X021637Y011933D01*
X021957Y011159D02*
X021957Y010839D01*
X021637Y010839D01*
X021637Y011159D01*
X021957Y011159D01*
X021957Y010873D02*
X021637Y010873D01*
X021637Y010907D02*
X021957Y010907D01*
X021957Y010941D02*
X021637Y010941D01*
X021637Y010975D02*
X021957Y010975D01*
X021957Y011009D02*
X021637Y011009D01*
X021637Y011043D02*
X021957Y011043D01*
X021957Y011077D02*
X021637Y011077D01*
X021637Y011111D02*
X021957Y011111D01*
X021957Y011145D02*
X021637Y011145D01*
X021637Y010510D02*
X021637Y010190D01*
X021637Y010510D02*
X021957Y010510D01*
X021957Y010190D01*
X021637Y010190D01*
X021637Y010224D02*
X021957Y010224D01*
X021957Y010258D02*
X021637Y010258D01*
X021637Y010292D02*
X021957Y010292D01*
X021957Y010326D02*
X021637Y010326D01*
X021637Y010360D02*
X021957Y010360D01*
X021957Y010394D02*
X021637Y010394D01*
X021637Y010428D02*
X021957Y010428D01*
X021957Y010462D02*
X021637Y010462D01*
X021637Y010496D02*
X021957Y010496D01*
X021637Y009722D02*
X021637Y009402D01*
X021637Y009722D02*
X021957Y009722D01*
X021957Y009402D01*
X021637Y009402D01*
X021637Y009436D02*
X021957Y009436D01*
X021957Y009470D02*
X021637Y009470D01*
X021637Y009504D02*
X021957Y009504D01*
X021957Y009538D02*
X021637Y009538D01*
X021637Y009572D02*
X021957Y009572D01*
X021957Y009606D02*
X021637Y009606D01*
X021637Y009640D02*
X021957Y009640D01*
X021957Y009674D02*
X021637Y009674D01*
X021637Y009708D02*
X021957Y009708D01*
X022188Y009092D02*
X022508Y009092D01*
X022508Y008772D01*
X022188Y008772D01*
X022188Y009092D01*
X022188Y008806D02*
X022508Y008806D01*
X022508Y008840D02*
X022188Y008840D01*
X022188Y008874D02*
X022508Y008874D01*
X022508Y008908D02*
X022188Y008908D01*
X022188Y008942D02*
X022508Y008942D01*
X022508Y008976D02*
X022188Y008976D01*
X022188Y009010D02*
X022508Y009010D01*
X022508Y009044D02*
X022188Y009044D01*
X022188Y009078D02*
X022508Y009078D01*
X021720Y009092D02*
X021400Y009092D01*
X021720Y009092D02*
X021720Y008772D01*
X021400Y008772D01*
X021400Y009092D01*
X021400Y008806D02*
X021720Y008806D01*
X021720Y008840D02*
X021400Y008840D01*
X021400Y008874D02*
X021720Y008874D01*
X021720Y008908D02*
X021400Y008908D01*
X021400Y008942D02*
X021720Y008942D01*
X021720Y008976D02*
X021400Y008976D01*
X021400Y009010D02*
X021720Y009010D01*
X021720Y009044D02*
X021400Y009044D01*
X021400Y009078D02*
X021720Y009078D01*
X022075Y021292D02*
X022075Y021690D01*
X022075Y021292D02*
X021755Y021292D01*
X021755Y021690D01*
X022075Y021690D01*
X022075Y021326D02*
X021755Y021326D01*
X021755Y021360D02*
X022075Y021360D01*
X022075Y021394D02*
X021755Y021394D01*
X021755Y021428D02*
X022075Y021428D01*
X022075Y021462D02*
X021755Y021462D01*
X021755Y021496D02*
X022075Y021496D01*
X022075Y021530D02*
X021755Y021530D01*
X021755Y021564D02*
X022075Y021564D01*
X022075Y021598D02*
X021755Y021598D01*
X021755Y021632D02*
X022075Y021632D01*
X022075Y021666D02*
X021755Y021666D01*
X022075Y022158D02*
X022075Y022556D01*
X022075Y022158D02*
X021755Y022158D01*
X021755Y022556D01*
X022075Y022556D01*
X022075Y022192D02*
X021755Y022192D01*
X021755Y022226D02*
X022075Y022226D01*
X022075Y022260D02*
X021755Y022260D01*
X021755Y022294D02*
X022075Y022294D01*
X022075Y022328D02*
X021755Y022328D01*
X021755Y022362D02*
X022075Y022362D01*
X022075Y022396D02*
X021755Y022396D01*
X021755Y022430D02*
X022075Y022430D01*
X022075Y022464D02*
X021755Y022464D01*
X021755Y022498D02*
X022075Y022498D01*
X022075Y022532D02*
X021755Y022532D01*
X022385Y022556D02*
X022385Y022158D01*
X022385Y022556D02*
X022705Y022556D01*
X022705Y022158D01*
X022385Y022158D01*
X022385Y022192D02*
X022705Y022192D01*
X022705Y022226D02*
X022385Y022226D01*
X022385Y022260D02*
X022705Y022260D01*
X022705Y022294D02*
X022385Y022294D01*
X022385Y022328D02*
X022705Y022328D01*
X022705Y022362D02*
X022385Y022362D01*
X022385Y022396D02*
X022705Y022396D01*
X022705Y022430D02*
X022385Y022430D01*
X022385Y022464D02*
X022705Y022464D01*
X022705Y022498D02*
X022385Y022498D01*
X022385Y022532D02*
X022705Y022532D01*
X022385Y021690D02*
X022385Y021292D01*
X022385Y021690D02*
X022705Y021690D01*
X022705Y021292D01*
X022385Y021292D01*
X022385Y021326D02*
X022705Y021326D01*
X022705Y021360D02*
X022385Y021360D01*
X022385Y021394D02*
X022705Y021394D01*
X022705Y021428D02*
X022385Y021428D01*
X022385Y021462D02*
X022705Y021462D01*
X022705Y021496D02*
X022385Y021496D01*
X022385Y021530D02*
X022705Y021530D01*
X022705Y021564D02*
X022385Y021564D01*
X022385Y021598D02*
X022705Y021598D01*
X022705Y021632D02*
X022385Y021632D01*
X022385Y021666D02*
X022705Y021666D01*
X010224Y020549D02*
X010224Y020151D01*
X009904Y020151D01*
X009904Y020549D01*
X010224Y020549D01*
X010224Y020185D02*
X009904Y020185D01*
X009904Y020219D02*
X010224Y020219D01*
X010224Y020253D02*
X009904Y020253D01*
X009904Y020287D02*
X010224Y020287D01*
X010224Y020321D02*
X009904Y020321D01*
X009904Y020355D02*
X010224Y020355D01*
X010224Y020389D02*
X009904Y020389D01*
X009904Y020423D02*
X010224Y020423D01*
X010224Y020457D02*
X009904Y020457D01*
X009904Y020491D02*
X010224Y020491D01*
X010224Y020525D02*
X009904Y020525D01*
X009594Y020549D02*
X009594Y020151D01*
X009274Y020151D01*
X009274Y020549D01*
X009594Y020549D01*
X009594Y020185D02*
X009274Y020185D01*
X009274Y020219D02*
X009594Y020219D01*
X009594Y020253D02*
X009274Y020253D01*
X009274Y020287D02*
X009594Y020287D01*
X009594Y020321D02*
X009274Y020321D01*
X009274Y020355D02*
X009594Y020355D01*
X009594Y020389D02*
X009274Y020389D01*
X009274Y020423D02*
X009594Y020423D01*
X009594Y020457D02*
X009274Y020457D01*
X009274Y020491D02*
X009594Y020491D01*
X009594Y020525D02*
X009274Y020525D01*
X009594Y019682D02*
X009594Y019284D01*
X009274Y019284D01*
X009274Y019682D01*
X009594Y019682D01*
X009594Y019318D02*
X009274Y019318D01*
X009274Y019352D02*
X009594Y019352D01*
X009594Y019386D02*
X009274Y019386D01*
X009274Y019420D02*
X009594Y019420D01*
X009594Y019454D02*
X009274Y019454D01*
X009274Y019488D02*
X009594Y019488D01*
X009594Y019522D02*
X009274Y019522D01*
X009274Y019556D02*
X009594Y019556D01*
X009594Y019590D02*
X009274Y019590D01*
X009274Y019624D02*
X009594Y019624D01*
X009594Y019658D02*
X009274Y019658D01*
X010224Y019682D02*
X010224Y019284D01*
X009904Y019284D01*
X009904Y019682D01*
X010224Y019682D01*
X010224Y019318D02*
X009904Y019318D01*
X009904Y019352D02*
X010224Y019352D01*
X010224Y019386D02*
X009904Y019386D01*
X009904Y019420D02*
X010224Y019420D01*
X010224Y019454D02*
X009904Y019454D01*
X009904Y019488D02*
X010224Y019488D01*
X010224Y019522D02*
X009904Y019522D01*
X009904Y019556D02*
X010224Y019556D01*
X010224Y019590D02*
X009904Y019590D01*
X009904Y019624D02*
X010224Y019624D01*
X010224Y019658D02*
X009904Y019658D01*
D24*
X008535Y029536D02*
X008369Y029536D01*
X008535Y029536D02*
X008535Y028740D01*
X008369Y028740D01*
X008369Y029536D01*
X008369Y028773D02*
X008535Y028773D01*
X008535Y028806D02*
X008369Y028806D01*
X008369Y028839D02*
X008535Y028839D01*
X008535Y028872D02*
X008369Y028872D01*
X008369Y028905D02*
X008535Y028905D01*
X008535Y028938D02*
X008369Y028938D01*
X008369Y028971D02*
X008535Y028971D01*
X008535Y029004D02*
X008369Y029004D01*
X008369Y029037D02*
X008535Y029037D01*
X008535Y029070D02*
X008369Y029070D01*
X008369Y029103D02*
X008535Y029103D01*
X008535Y029136D02*
X008369Y029136D01*
X008369Y029169D02*
X008535Y029169D01*
X008535Y029202D02*
X008369Y029202D01*
X008369Y029235D02*
X008535Y029235D01*
X008535Y029268D02*
X008369Y029268D01*
X008369Y029301D02*
X008535Y029301D01*
X008535Y029334D02*
X008369Y029334D01*
X008369Y029367D02*
X008535Y029367D01*
X008535Y029400D02*
X008369Y029400D01*
X008369Y029433D02*
X008535Y029433D01*
X008535Y029466D02*
X008369Y029466D01*
X008369Y029499D02*
X008535Y029499D01*
X008535Y029532D02*
X008369Y029532D01*
X008035Y029536D02*
X007869Y029536D01*
X008035Y029536D02*
X008035Y028740D01*
X007869Y028740D01*
X007869Y029536D01*
X007869Y028773D02*
X008035Y028773D01*
X008035Y028806D02*
X007869Y028806D01*
X007869Y028839D02*
X008035Y028839D01*
X008035Y028872D02*
X007869Y028872D01*
X007869Y028905D02*
X008035Y028905D01*
X008035Y028938D02*
X007869Y028938D01*
X007869Y028971D02*
X008035Y028971D01*
X008035Y029004D02*
X007869Y029004D01*
X007869Y029037D02*
X008035Y029037D01*
X008035Y029070D02*
X007869Y029070D01*
X007869Y029103D02*
X008035Y029103D01*
X008035Y029136D02*
X007869Y029136D01*
X007869Y029169D02*
X008035Y029169D01*
X008035Y029202D02*
X007869Y029202D01*
X007869Y029235D02*
X008035Y029235D01*
X008035Y029268D02*
X007869Y029268D01*
X007869Y029301D02*
X008035Y029301D01*
X008035Y029334D02*
X007869Y029334D01*
X007869Y029367D02*
X008035Y029367D01*
X008035Y029400D02*
X007869Y029400D01*
X007869Y029433D02*
X008035Y029433D01*
X008035Y029466D02*
X007869Y029466D01*
X007869Y029499D02*
X008035Y029499D01*
X008035Y029532D02*
X007869Y029532D01*
X007535Y029536D02*
X007369Y029536D01*
X007535Y029536D02*
X007535Y028740D01*
X007369Y028740D01*
X007369Y029536D01*
X007369Y028773D02*
X007535Y028773D01*
X007535Y028806D02*
X007369Y028806D01*
X007369Y028839D02*
X007535Y028839D01*
X007535Y028872D02*
X007369Y028872D01*
X007369Y028905D02*
X007535Y028905D01*
X007535Y028938D02*
X007369Y028938D01*
X007369Y028971D02*
X007535Y028971D01*
X007535Y029004D02*
X007369Y029004D01*
X007369Y029037D02*
X007535Y029037D01*
X007535Y029070D02*
X007369Y029070D01*
X007369Y029103D02*
X007535Y029103D01*
X007535Y029136D02*
X007369Y029136D01*
X007369Y029169D02*
X007535Y029169D01*
X007535Y029202D02*
X007369Y029202D01*
X007369Y029235D02*
X007535Y029235D01*
X007535Y029268D02*
X007369Y029268D01*
X007369Y029301D02*
X007535Y029301D01*
X007535Y029334D02*
X007369Y029334D01*
X007369Y029367D02*
X007535Y029367D01*
X007535Y029400D02*
X007369Y029400D01*
X007369Y029433D02*
X007535Y029433D01*
X007535Y029466D02*
X007369Y029466D01*
X007369Y029499D02*
X007535Y029499D01*
X007535Y029532D02*
X007369Y029532D01*
X007035Y029536D02*
X006869Y029536D01*
X007035Y029536D02*
X007035Y028740D01*
X006869Y028740D01*
X006869Y029536D01*
X006869Y028773D02*
X007035Y028773D01*
X007035Y028806D02*
X006869Y028806D01*
X006869Y028839D02*
X007035Y028839D01*
X007035Y028872D02*
X006869Y028872D01*
X006869Y028905D02*
X007035Y028905D01*
X007035Y028938D02*
X006869Y028938D01*
X006869Y028971D02*
X007035Y028971D01*
X007035Y029004D02*
X006869Y029004D01*
X006869Y029037D02*
X007035Y029037D01*
X007035Y029070D02*
X006869Y029070D01*
X006869Y029103D02*
X007035Y029103D01*
X007035Y029136D02*
X006869Y029136D01*
X006869Y029169D02*
X007035Y029169D01*
X007035Y029202D02*
X006869Y029202D01*
X006869Y029235D02*
X007035Y029235D01*
X007035Y029268D02*
X006869Y029268D01*
X006869Y029301D02*
X007035Y029301D01*
X007035Y029334D02*
X006869Y029334D01*
X006869Y029367D02*
X007035Y029367D01*
X007035Y029400D02*
X006869Y029400D01*
X006869Y029433D02*
X007035Y029433D01*
X007035Y029466D02*
X006869Y029466D01*
X006869Y029499D02*
X007035Y029499D01*
X007035Y029532D02*
X006869Y029532D01*
X006869Y032186D02*
X007035Y032186D01*
X007035Y031390D01*
X006869Y031390D01*
X006869Y032186D01*
X006869Y031423D02*
X007035Y031423D01*
X007035Y031456D02*
X006869Y031456D01*
X006869Y031489D02*
X007035Y031489D01*
X007035Y031522D02*
X006869Y031522D01*
X006869Y031555D02*
X007035Y031555D01*
X007035Y031588D02*
X006869Y031588D01*
X006869Y031621D02*
X007035Y031621D01*
X007035Y031654D02*
X006869Y031654D01*
X006869Y031687D02*
X007035Y031687D01*
X007035Y031720D02*
X006869Y031720D01*
X006869Y031753D02*
X007035Y031753D01*
X007035Y031786D02*
X006869Y031786D01*
X006869Y031819D02*
X007035Y031819D01*
X007035Y031852D02*
X006869Y031852D01*
X006869Y031885D02*
X007035Y031885D01*
X007035Y031918D02*
X006869Y031918D01*
X006869Y031951D02*
X007035Y031951D01*
X007035Y031984D02*
X006869Y031984D01*
X006869Y032017D02*
X007035Y032017D01*
X007035Y032050D02*
X006869Y032050D01*
X006869Y032083D02*
X007035Y032083D01*
X007035Y032116D02*
X006869Y032116D01*
X006869Y032149D02*
X007035Y032149D01*
X007035Y032182D02*
X006869Y032182D01*
X007369Y032186D02*
X007535Y032186D01*
X007535Y031390D01*
X007369Y031390D01*
X007369Y032186D01*
X007369Y031423D02*
X007535Y031423D01*
X007535Y031456D02*
X007369Y031456D01*
X007369Y031489D02*
X007535Y031489D01*
X007535Y031522D02*
X007369Y031522D01*
X007369Y031555D02*
X007535Y031555D01*
X007535Y031588D02*
X007369Y031588D01*
X007369Y031621D02*
X007535Y031621D01*
X007535Y031654D02*
X007369Y031654D01*
X007369Y031687D02*
X007535Y031687D01*
X007535Y031720D02*
X007369Y031720D01*
X007369Y031753D02*
X007535Y031753D01*
X007535Y031786D02*
X007369Y031786D01*
X007369Y031819D02*
X007535Y031819D01*
X007535Y031852D02*
X007369Y031852D01*
X007369Y031885D02*
X007535Y031885D01*
X007535Y031918D02*
X007369Y031918D01*
X007369Y031951D02*
X007535Y031951D01*
X007535Y031984D02*
X007369Y031984D01*
X007369Y032017D02*
X007535Y032017D01*
X007535Y032050D02*
X007369Y032050D01*
X007369Y032083D02*
X007535Y032083D01*
X007535Y032116D02*
X007369Y032116D01*
X007369Y032149D02*
X007535Y032149D01*
X007535Y032182D02*
X007369Y032182D01*
X007869Y032186D02*
X008035Y032186D01*
X008035Y031390D01*
X007869Y031390D01*
X007869Y032186D01*
X007869Y031423D02*
X008035Y031423D01*
X008035Y031456D02*
X007869Y031456D01*
X007869Y031489D02*
X008035Y031489D01*
X008035Y031522D02*
X007869Y031522D01*
X007869Y031555D02*
X008035Y031555D01*
X008035Y031588D02*
X007869Y031588D01*
X007869Y031621D02*
X008035Y031621D01*
X008035Y031654D02*
X007869Y031654D01*
X007869Y031687D02*
X008035Y031687D01*
X008035Y031720D02*
X007869Y031720D01*
X007869Y031753D02*
X008035Y031753D01*
X008035Y031786D02*
X007869Y031786D01*
X007869Y031819D02*
X008035Y031819D01*
X008035Y031852D02*
X007869Y031852D01*
X007869Y031885D02*
X008035Y031885D01*
X008035Y031918D02*
X007869Y031918D01*
X007869Y031951D02*
X008035Y031951D01*
X008035Y031984D02*
X007869Y031984D01*
X007869Y032017D02*
X008035Y032017D01*
X008035Y032050D02*
X007869Y032050D01*
X007869Y032083D02*
X008035Y032083D01*
X008035Y032116D02*
X007869Y032116D01*
X007869Y032149D02*
X008035Y032149D01*
X008035Y032182D02*
X007869Y032182D01*
X008369Y032186D02*
X008535Y032186D01*
X008535Y031390D01*
X008369Y031390D01*
X008369Y032186D01*
X008369Y031423D02*
X008535Y031423D01*
X008535Y031456D02*
X008369Y031456D01*
X008369Y031489D02*
X008535Y031489D01*
X008535Y031522D02*
X008369Y031522D01*
X008369Y031555D02*
X008535Y031555D01*
X008535Y031588D02*
X008369Y031588D01*
X008369Y031621D02*
X008535Y031621D01*
X008535Y031654D02*
X008369Y031654D01*
X008369Y031687D02*
X008535Y031687D01*
X008535Y031720D02*
X008369Y031720D01*
X008369Y031753D02*
X008535Y031753D01*
X008535Y031786D02*
X008369Y031786D01*
X008369Y031819D02*
X008535Y031819D01*
X008535Y031852D02*
X008369Y031852D01*
X008369Y031885D02*
X008535Y031885D01*
X008535Y031918D02*
X008369Y031918D01*
X008369Y031951D02*
X008535Y031951D01*
X008535Y031984D02*
X008369Y031984D01*
X008369Y032017D02*
X008535Y032017D01*
X008535Y032050D02*
X008369Y032050D01*
X008369Y032083D02*
X008535Y032083D01*
X008535Y032116D02*
X008369Y032116D01*
X008369Y032149D02*
X008535Y032149D01*
X008535Y032182D02*
X008369Y032182D01*
X011986Y008047D02*
X012552Y008047D01*
X012552Y007881D01*
X011986Y007881D01*
X011986Y008047D01*
X011986Y007914D02*
X012552Y007914D01*
X012552Y007947D02*
X011986Y007947D01*
X011986Y007980D02*
X012552Y007980D01*
X012552Y008013D02*
X011986Y008013D01*
X011986Y008046D02*
X012552Y008046D01*
X012552Y007547D02*
X011986Y007547D01*
X012552Y007547D02*
X012552Y007381D01*
X011986Y007381D01*
X011986Y007547D01*
X011986Y007414D02*
X012552Y007414D01*
X012552Y007447D02*
X011986Y007447D01*
X011986Y007480D02*
X012552Y007480D01*
X012552Y007513D02*
X011986Y007513D01*
X011986Y007546D02*
X012552Y007546D01*
X012552Y007047D02*
X011986Y007047D01*
X012552Y007047D02*
X012552Y006881D01*
X011986Y006881D01*
X011986Y007047D01*
X011986Y006914D02*
X012552Y006914D01*
X012552Y006947D02*
X011986Y006947D01*
X011986Y006980D02*
X012552Y006980D01*
X012552Y007013D02*
X011986Y007013D01*
X011986Y007046D02*
X012552Y007046D01*
X012552Y006547D02*
X011986Y006547D01*
X012552Y006547D02*
X012552Y006381D01*
X011986Y006381D01*
X011986Y006547D01*
X011986Y006414D02*
X012552Y006414D01*
X012552Y006447D02*
X011986Y006447D01*
X011986Y006480D02*
X012552Y006480D01*
X012552Y006513D02*
X011986Y006513D01*
X011986Y006546D02*
X012552Y006546D01*
X012552Y006047D02*
X011986Y006047D01*
X012552Y006047D02*
X012552Y005881D01*
X011986Y005881D01*
X011986Y006047D01*
X011986Y005914D02*
X012552Y005914D01*
X012552Y005947D02*
X011986Y005947D01*
X011986Y005980D02*
X012552Y005980D01*
X012552Y006013D02*
X011986Y006013D01*
X011986Y006046D02*
X012552Y006046D01*
D25*
X010726Y005338D02*
X010584Y005338D01*
X010726Y005338D02*
X010726Y005274D01*
X010584Y005274D01*
X010584Y005338D01*
X010584Y004638D02*
X010726Y004638D01*
X010726Y004574D01*
X010584Y004574D01*
X010584Y004638D01*
X007734Y004486D02*
X007592Y004486D01*
X007592Y004550D01*
X007734Y004550D01*
X007734Y004486D01*
X007734Y003786D02*
X007592Y003786D01*
X007592Y003850D01*
X007734Y003850D01*
X007734Y003786D01*
X005529Y003786D02*
X005387Y003786D01*
X005387Y003850D01*
X005529Y003850D01*
X005529Y003786D01*
X005529Y004486D02*
X005387Y004486D01*
X005387Y004550D01*
X005529Y004550D01*
X005529Y004486D01*
X018624Y007660D02*
X018624Y007802D01*
X018624Y007660D02*
X018560Y007660D01*
X018560Y007802D01*
X018624Y007802D01*
X019324Y007802D02*
X019324Y007660D01*
X019260Y007660D01*
X019260Y007802D01*
X019324Y007802D01*
X019963Y011243D02*
X019963Y011385D01*
X019963Y011243D02*
X019899Y011243D01*
X019899Y011385D01*
X019963Y011385D01*
X019963Y011775D02*
X019963Y011917D01*
X019963Y011775D02*
X019899Y011775D01*
X019899Y011917D01*
X019963Y011917D01*
X019963Y012306D02*
X019963Y012448D01*
X019963Y012306D02*
X019899Y012306D01*
X019899Y012448D01*
X019963Y012448D01*
X020663Y012448D02*
X020663Y012306D01*
X020599Y012306D01*
X020599Y012448D01*
X020663Y012448D01*
X020663Y011917D02*
X020663Y011775D01*
X020599Y011775D01*
X020599Y011917D01*
X020663Y011917D01*
X020663Y011385D02*
X020663Y011243D01*
X020599Y011243D01*
X020599Y011385D01*
X020663Y011385D01*
X021164Y012424D02*
X021164Y012566D01*
X021164Y012424D02*
X021100Y012424D01*
X021100Y012566D01*
X021164Y012566D01*
X021164Y012956D02*
X021164Y013098D01*
X021164Y012956D02*
X021100Y012956D01*
X021100Y013098D01*
X021164Y013098D01*
X020682Y013192D02*
X020682Y013334D01*
X020682Y013192D02*
X020618Y013192D01*
X020618Y013334D01*
X020682Y013334D01*
X020618Y013822D02*
X020618Y013964D01*
X020682Y013964D01*
X020682Y013822D01*
X020618Y013822D01*
X020682Y014353D02*
X020682Y014495D01*
X020682Y014353D02*
X020618Y014353D01*
X020618Y014495D01*
X020682Y014495D01*
X021037Y014885D02*
X021037Y015027D01*
X021037Y014885D02*
X020973Y014885D01*
X020973Y015027D01*
X021037Y015027D01*
X020337Y015027D02*
X020337Y014885D01*
X020273Y014885D01*
X020273Y015027D01*
X020337Y015027D01*
X019982Y014495D02*
X019982Y014353D01*
X019918Y014353D01*
X019918Y014495D01*
X019982Y014495D01*
X019918Y013964D02*
X019918Y013822D01*
X019918Y013964D02*
X019982Y013964D01*
X019982Y013822D01*
X019918Y013822D01*
X019982Y013334D02*
X019982Y013192D01*
X019918Y013192D01*
X019918Y013334D01*
X019982Y013334D01*
X021864Y013098D02*
X021864Y012956D01*
X021800Y012956D01*
X021800Y013098D01*
X021864Y013098D01*
X021864Y012566D02*
X021864Y012424D01*
X021800Y012424D01*
X021800Y012566D01*
X021864Y012566D01*
X020918Y019003D02*
X020918Y019067D01*
X021060Y019067D01*
X021060Y019003D01*
X020918Y019003D01*
X020918Y019703D02*
X020918Y019767D01*
X021060Y019767D01*
X021060Y019703D01*
X020918Y019703D01*
X025588Y029767D02*
X025588Y029909D01*
X025652Y029909D01*
X025652Y029767D01*
X025588Y029767D01*
X026288Y029767D02*
X026288Y029909D01*
X026352Y029909D01*
X026352Y029767D01*
X026288Y029767D01*
D26*
X010110Y007535D02*
X009488Y007535D01*
X010110Y007535D02*
X010110Y006393D01*
X009488Y006393D01*
X009488Y007535D01*
X009488Y006461D02*
X010110Y006461D01*
X010110Y006529D02*
X009488Y006529D01*
X009488Y006597D02*
X010110Y006597D01*
X010110Y006665D02*
X009488Y006665D01*
X009488Y006733D02*
X010110Y006733D01*
X010110Y006801D02*
X009488Y006801D01*
X009488Y006869D02*
X010110Y006869D01*
X010110Y006937D02*
X009488Y006937D01*
X009488Y007005D02*
X010110Y007005D01*
X010110Y007073D02*
X009488Y007073D01*
X009488Y007141D02*
X010110Y007141D01*
X010110Y007209D02*
X009488Y007209D01*
X009488Y007277D02*
X010110Y007277D01*
X010110Y007345D02*
X009488Y007345D01*
X009488Y007413D02*
X010110Y007413D01*
X010110Y007481D02*
X009488Y007481D01*
D27*
X017987Y006699D02*
X018189Y006699D01*
X017987Y006699D02*
X017987Y006717D01*
X018189Y006717D01*
X018189Y006699D01*
X018189Y006502D02*
X017987Y006502D01*
X017987Y006520D01*
X018189Y006520D01*
X018189Y006502D01*
X018189Y006305D02*
X017987Y006305D01*
X017987Y006323D01*
X018189Y006323D01*
X018189Y006305D01*
X018189Y006126D02*
X017987Y006126D01*
X018189Y006126D02*
X018189Y006108D01*
X017987Y006108D01*
X017987Y006126D01*
X018361Y005954D02*
X018361Y005752D01*
X018343Y005752D01*
X018343Y005954D01*
X018361Y005954D01*
X018361Y005804D02*
X018343Y005804D01*
X018343Y005856D02*
X018361Y005856D01*
X018361Y005908D02*
X018343Y005908D01*
X018557Y005954D02*
X018557Y005752D01*
X018539Y005752D01*
X018539Y005954D01*
X018557Y005954D01*
X018557Y005804D02*
X018539Y005804D01*
X018539Y005856D02*
X018557Y005856D01*
X018557Y005908D02*
X018539Y005908D01*
X018754Y005954D02*
X018754Y005752D01*
X018736Y005752D01*
X018736Y005954D01*
X018754Y005954D01*
X018754Y005804D02*
X018736Y005804D01*
X018736Y005856D02*
X018754Y005856D01*
X018754Y005908D02*
X018736Y005908D01*
X018951Y005954D02*
X018951Y005752D01*
X018933Y005752D01*
X018933Y005954D01*
X018951Y005954D01*
X018951Y005804D02*
X018933Y005804D01*
X018933Y005856D02*
X018951Y005856D01*
X018951Y005908D02*
X018933Y005908D01*
X019105Y006108D02*
X019307Y006108D01*
X019105Y006108D02*
X019105Y006126D01*
X019307Y006126D01*
X019307Y006108D01*
X019307Y006305D02*
X019105Y006305D01*
X019105Y006323D01*
X019307Y006323D01*
X019307Y006305D01*
X019307Y006502D02*
X019105Y006502D01*
X019105Y006520D01*
X019307Y006520D01*
X019307Y006502D01*
X019307Y006699D02*
X019105Y006699D01*
X019105Y006717D01*
X019307Y006717D01*
X019307Y006699D01*
X018951Y006871D02*
X018951Y007073D01*
X018951Y006871D02*
X018933Y006871D01*
X018933Y007073D01*
X018951Y007073D01*
X018951Y006923D02*
X018933Y006923D01*
X018933Y006975D02*
X018951Y006975D01*
X018951Y007027D02*
X018933Y007027D01*
X018754Y007073D02*
X018754Y006871D01*
X018736Y006871D01*
X018736Y007073D01*
X018754Y007073D01*
X018754Y006923D02*
X018736Y006923D01*
X018736Y006975D02*
X018754Y006975D01*
X018754Y007027D02*
X018736Y007027D01*
X018557Y007073D02*
X018557Y006871D01*
X018539Y006871D01*
X018539Y007073D01*
X018557Y007073D01*
X018557Y006923D02*
X018539Y006923D01*
X018539Y006975D02*
X018557Y006975D01*
X018557Y007027D02*
X018539Y007027D01*
X018361Y007073D02*
X018361Y006871D01*
X018343Y006871D01*
X018343Y007073D01*
X018361Y007073D01*
X018361Y006923D02*
X018343Y006923D01*
X018343Y006975D02*
X018361Y006975D01*
X018361Y007027D02*
X018343Y007027D01*
D28*
X005126Y005210D02*
X004924Y005210D01*
X004924Y005726D01*
X005126Y005726D01*
X005126Y005210D01*
X005126Y005244D02*
X004924Y005244D01*
X004924Y005278D02*
X005126Y005278D01*
X005126Y005312D02*
X004924Y005312D01*
X004924Y005346D02*
X005126Y005346D01*
X005126Y005380D02*
X004924Y005380D01*
X004924Y005414D02*
X005126Y005414D01*
X005126Y005448D02*
X004924Y005448D01*
X004924Y005482D02*
X005126Y005482D01*
X005126Y005516D02*
X004924Y005516D01*
X004924Y005550D02*
X005126Y005550D01*
X005126Y005584D02*
X004924Y005584D01*
X004924Y005618D02*
X005126Y005618D01*
X005126Y005652D02*
X004924Y005652D01*
X004924Y005686D02*
X005126Y005686D01*
X005126Y005720D02*
X004924Y005720D01*
X004535Y005210D02*
X004333Y005210D01*
X004333Y005726D01*
X004535Y005726D01*
X004535Y005210D01*
X004535Y005244D02*
X004333Y005244D01*
X004333Y005278D02*
X004535Y005278D01*
X004535Y005312D02*
X004333Y005312D01*
X004333Y005346D02*
X004535Y005346D01*
X004535Y005380D02*
X004333Y005380D01*
X004333Y005414D02*
X004535Y005414D01*
X004535Y005448D02*
X004333Y005448D01*
X004333Y005482D02*
X004535Y005482D01*
X004535Y005516D02*
X004333Y005516D01*
X004333Y005550D02*
X004535Y005550D01*
X004535Y005584D02*
X004333Y005584D01*
X004333Y005618D02*
X004535Y005618D01*
X004535Y005652D02*
X004333Y005652D01*
X004333Y005686D02*
X004535Y005686D01*
X004535Y005720D02*
X004333Y005720D01*
X003354Y005210D02*
X003152Y005210D01*
X003152Y005726D01*
X003354Y005726D01*
X003354Y005210D01*
X003354Y005244D02*
X003152Y005244D01*
X003152Y005278D02*
X003354Y005278D01*
X003354Y005312D02*
X003152Y005312D01*
X003152Y005346D02*
X003354Y005346D01*
X003354Y005380D02*
X003152Y005380D01*
X003152Y005414D02*
X003354Y005414D01*
X003354Y005448D02*
X003152Y005448D01*
X003152Y005482D02*
X003354Y005482D01*
X003354Y005516D02*
X003152Y005516D01*
X003152Y005550D02*
X003354Y005550D01*
X003354Y005584D02*
X003152Y005584D01*
X003152Y005618D02*
X003354Y005618D01*
X003354Y005652D02*
X003152Y005652D01*
X003152Y005686D02*
X003354Y005686D01*
X003354Y005720D02*
X003152Y005720D01*
D29*
X002863Y006632D02*
X002541Y006632D01*
X002863Y006632D02*
X002863Y006468D01*
X002541Y006468D01*
X002541Y006632D01*
X002541Y006500D02*
X002863Y006500D01*
X002863Y006532D02*
X002541Y006532D01*
X002541Y006564D02*
X002863Y006564D01*
X002863Y006596D02*
X002541Y006596D01*
X002541Y006628D02*
X002863Y006628D01*
X003631Y004782D02*
X003631Y004618D01*
X003427Y004618D01*
X003427Y004782D01*
X003631Y004782D01*
X003631Y004650D02*
X003427Y004650D01*
X003427Y004682D02*
X003631Y004682D01*
X003631Y004714D02*
X003427Y004714D01*
X003427Y004746D02*
X003631Y004746D01*
X003631Y004778D02*
X003427Y004778D01*
X003631Y004034D02*
X003631Y003870D01*
X003427Y003870D01*
X003427Y004034D01*
X003631Y004034D01*
X003631Y003902D02*
X003427Y003902D01*
X003427Y003934D02*
X003631Y003934D01*
X003631Y003966D02*
X003427Y003966D01*
X003427Y003998D02*
X003631Y003998D01*
X003631Y004030D02*
X003427Y004030D01*
X004418Y004244D02*
X004418Y004408D01*
X004418Y004244D02*
X004214Y004244D01*
X004214Y004408D01*
X004418Y004408D01*
X004418Y004276D02*
X004214Y004276D01*
X004214Y004308D02*
X004418Y004308D01*
X004418Y004340D02*
X004214Y004340D01*
X004214Y004372D02*
X004418Y004372D01*
X004418Y004404D02*
X004214Y004404D01*
X005415Y006632D02*
X005737Y006632D01*
X005737Y006468D01*
X005415Y006468D01*
X005415Y006632D01*
X005415Y006500D02*
X005737Y006500D01*
X005737Y006532D02*
X005415Y006532D01*
X005415Y006564D02*
X005737Y006564D01*
X005737Y006596D02*
X005415Y006596D01*
X005415Y006628D02*
X005737Y006628D01*
D30*
X002861Y005843D02*
X002543Y005843D01*
X002861Y005843D02*
X002861Y005605D01*
X002543Y005605D01*
X002543Y005843D01*
X002543Y005640D02*
X002861Y005640D01*
X002861Y005675D02*
X002543Y005675D01*
X002543Y005710D02*
X002861Y005710D01*
X002861Y005745D02*
X002543Y005745D01*
X002543Y005780D02*
X002861Y005780D01*
X002861Y005815D02*
X002543Y005815D01*
X005417Y005843D02*
X005735Y005843D01*
X005735Y005605D01*
X005417Y005605D01*
X005417Y005843D01*
X005417Y005640D02*
X005735Y005640D01*
X005735Y005675D02*
X005417Y005675D01*
X005417Y005710D02*
X005735Y005710D01*
X005735Y005745D02*
X005417Y005745D01*
X005417Y005780D02*
X005735Y005780D01*
X005735Y005815D02*
X005417Y005815D01*
D31*
X018450Y010743D03*
X018450Y017830D03*
M02*
