G75*
G70*
%OFA0B0*%
%FSLAX24Y24*%
%IPPOS*%
%LPD*%
%AMOC8*
5,1,8,0,0,1.08239X$1,22.5*
%
%ADD10C,0.0050*%
%ADD11C,0.0060*%
%ADD12C,0.0040*%
%ADD13R,0.0202X0.0006*%
%ADD14R,0.0277X0.0006*%
%ADD15R,0.0328X0.0006*%
%ADD16R,0.0378X0.0006*%
%ADD17R,0.0416X0.0006*%
%ADD18R,0.0454X0.0006*%
%ADD19R,0.0479X0.0006*%
%ADD20R,0.0517X0.0006*%
%ADD21R,0.0542X0.0006*%
%ADD22R,0.0567X0.0006*%
%ADD23R,0.0592X0.0006*%
%ADD24R,0.0617X0.0006*%
%ADD25R,0.0643X0.0006*%
%ADD26R,0.0661X0.0006*%
%ADD27R,0.0680X0.0006*%
%ADD28R,0.0706X0.0006*%
%ADD29R,0.0718X0.0006*%
%ADD30R,0.0353X0.0006*%
%ADD31R,0.0296X0.0006*%
%ADD32R,0.0271X0.0006*%
%ADD33R,0.0258X0.0006*%
%ADD34R,0.0265X0.0006*%
%ADD35R,0.0246X0.0006*%
%ADD36R,0.0239X0.0006*%
%ADD37R,0.0233X0.0006*%
%ADD38R,0.0227X0.0006*%
%ADD39R,0.0220X0.0006*%
%ADD40R,0.0214X0.0006*%
%ADD41R,0.0208X0.0006*%
%ADD42R,0.0195X0.0006*%
%ADD43R,0.0189X0.0006*%
%ADD44R,0.0183X0.0006*%
%ADD45R,0.0176X0.0006*%
%ADD46R,0.0170X0.0006*%
%ADD47R,0.0164X0.0006*%
%ADD48R,0.0157X0.0006*%
%ADD49R,0.0151X0.0006*%
%ADD50R,0.0145X0.0006*%
%ADD51R,0.0139X0.0006*%
%ADD52R,0.0132X0.0006*%
%ADD53R,0.0126X0.0006*%
%ADD54R,0.0019X0.0006*%
%ADD55R,0.0088X0.0006*%
%ADD56R,0.0038X0.0006*%
%ADD57R,0.0050X0.0006*%
%ADD58R,0.0069X0.0006*%
%ADD59R,0.0076X0.0006*%
%ADD60R,0.0120X0.0006*%
%ADD61R,0.0094X0.0006*%
%ADD62R,0.0107X0.0006*%
%ADD63R,0.0252X0.0006*%
%ADD64R,0.0309X0.0006*%
%ADD65R,0.0340X0.0006*%
%ADD66R,0.0359X0.0006*%
%ADD67R,0.0649X0.0006*%
%ADD68R,0.0655X0.0006*%
%ADD69R,0.0397X0.0006*%
%ADD70R,0.0372X0.0006*%
%ADD71R,0.0290X0.0006*%
%ADD72R,0.0113X0.0006*%
%ADD73R,0.0101X0.0006*%
%ADD74R,0.0082X0.0006*%
%ADD75R,0.0057X0.0006*%
%ADD76R,0.0044X0.0006*%
%ADD77R,0.0025X0.0006*%
%ADD78R,0.0334X0.0006*%
%ADD79R,0.0731X0.0006*%
%ADD80R,0.0693X0.0006*%
%ADD81R,0.0668X0.0006*%
%ADD82R,0.0624X0.0006*%
%ADD83R,0.0605X0.0006*%
%ADD84R,0.0580X0.0006*%
%ADD85R,0.0548X0.0006*%
%ADD86R,0.0491X0.0006*%
%ADD87R,0.0422X0.0006*%
%ADD88R,0.0120X0.1216*%
%ADD89R,0.0120X0.1203*%
%ADD90C,0.0120*%
%ADD91C,0.0080*%
%ADD92C,0.0100*%
%ADD93C,0.0020*%
%ADD94R,0.0344X0.0197*%
%ADD95R,0.0220X0.0005*%
%ADD96R,0.0118X0.0005*%
%ADD97R,0.0343X0.0005*%
%ADD98R,0.0435X0.0005*%
%ADD99R,0.0077X0.0005*%
%ADD100R,0.0246X0.0005*%
%ADD101R,0.0363X0.0005*%
%ADD102R,0.0128X0.0005*%
%ADD103R,0.0261X0.0005*%
%ADD104R,0.0379X0.0005*%
%ADD105R,0.0159X0.0005*%
%ADD106R,0.0276X0.0005*%
%ADD107R,0.0389X0.0005*%
%ADD108R,0.0189X0.0005*%
%ADD109R,0.0287X0.0005*%
%ADD110R,0.0399X0.0005*%
%ADD111R,0.0210X0.0005*%
%ADD112R,0.0297X0.0005*%
%ADD113R,0.0404X0.0005*%
%ADD114R,0.0230X0.0005*%
%ADD115R,0.0307X0.0005*%
%ADD116R,0.0409X0.0005*%
%ADD117R,0.0251X0.0005*%
%ADD118R,0.0317X0.0005*%
%ADD119R,0.0420X0.0005*%
%ADD120R,0.0271X0.0005*%
%ADD121R,0.0322X0.0005*%
%ADD122R,0.0425X0.0005*%
%ADD123R,0.0281X0.0005*%
%ADD124R,0.0333X0.0005*%
%ADD125R,0.0430X0.0005*%
%ADD126R,0.0302X0.0005*%
%ADD127R,0.0338X0.0005*%
%ADD128R,0.0312X0.0005*%
%ADD129R,0.0348X0.0005*%
%ADD130R,0.0440X0.0005*%
%ADD131R,0.0353X0.0005*%
%ADD132R,0.0445X0.0005*%
%ADD133R,0.0358X0.0005*%
%ADD134R,0.0450X0.0005*%
%ADD135R,0.0369X0.0005*%
%ADD136R,0.0456X0.0005*%
%ADD137R,0.0374X0.0005*%
%ADD138R,0.0384X0.0005*%
%ADD139R,0.0461X0.0005*%
%ADD140R,0.0394X0.0005*%
%ADD141R,0.0415X0.0005*%
%ADD142R,0.0466X0.0005*%
%ADD143R,0.0138X0.0005*%
%ADD144R,0.0174X0.0005*%
%ADD145R,0.0169X0.0005*%
%ADD146R,0.0164X0.0005*%
%ADD147R,0.0154X0.0005*%
%ADD148R,0.0123X0.0005*%
%ADD149R,0.0143X0.0005*%
%ADD150R,0.0133X0.0005*%
%ADD151C,0.0028*%
%ADD152R,0.0118X0.0276*%
%ADD153C,0.0079*%
%ADD154C,0.0059*%
D10*
X001988Y008875D02*
X002033Y008875D01*
X001988Y008875D02*
X001943Y008920D01*
X001943Y009145D01*
X002123Y009145D02*
X002123Y009010D01*
X002078Y008965D01*
X001943Y008965D01*
X002237Y009010D02*
X002282Y008965D01*
X002417Y008965D01*
X002417Y009235D01*
X002282Y009235D01*
X002237Y009190D01*
X002237Y009145D01*
X002282Y009100D01*
X002417Y009100D01*
X002282Y009100D02*
X002237Y009055D01*
X002237Y009010D01*
X002827Y008965D02*
X002962Y008965D01*
X003007Y009010D01*
X003007Y009100D01*
X002962Y009145D01*
X002827Y009145D01*
X002827Y009235D02*
X002827Y008965D01*
X003121Y009055D02*
X003301Y009055D01*
X003301Y009100D02*
X003256Y009145D01*
X003166Y009145D01*
X003121Y009100D01*
X003121Y009055D01*
X003166Y008965D02*
X003256Y008965D01*
X003301Y009010D01*
X003301Y009100D01*
X003412Y009145D02*
X003457Y009145D01*
X003547Y009055D01*
X003547Y008965D02*
X003547Y009145D01*
X003661Y009100D02*
X003706Y009145D01*
X003797Y009145D01*
X003842Y009100D01*
X003842Y009010D01*
X003797Y008965D01*
X003706Y008965D01*
X003661Y009010D01*
X003661Y009100D01*
X003956Y009145D02*
X004091Y009145D01*
X004136Y009100D01*
X004091Y009055D01*
X004001Y009055D01*
X003956Y009010D01*
X004001Y008965D01*
X004136Y008965D01*
X004251Y008965D02*
X004251Y009100D01*
X004296Y009145D01*
X004431Y009145D01*
X004431Y008965D01*
X004545Y009010D02*
X004545Y009100D01*
X004590Y009145D01*
X004680Y009145D01*
X004726Y009100D01*
X004726Y009010D01*
X004680Y008965D01*
X004590Y008965D01*
X004545Y009010D01*
X004840Y009010D02*
X004885Y008965D01*
X005020Y008965D01*
X005020Y008875D02*
X005020Y009145D01*
X004885Y009145D01*
X004840Y009100D01*
X004840Y009010D01*
X005135Y009010D02*
X005180Y008965D01*
X005270Y008965D01*
X005315Y009010D01*
X005270Y009100D02*
X005180Y009100D01*
X005135Y009055D01*
X005135Y009010D01*
X005270Y009100D02*
X005315Y009145D01*
X005315Y009190D01*
X005270Y009235D01*
X005180Y009235D01*
X005135Y009190D01*
X005135Y009437D02*
X005225Y009527D01*
X005180Y009527D02*
X005315Y009527D01*
X005315Y009437D02*
X005315Y009707D01*
X005180Y009707D01*
X005135Y009662D01*
X005135Y009572D01*
X005180Y009527D01*
X005020Y009482D02*
X004975Y009527D01*
X004840Y009527D01*
X004840Y009572D02*
X004840Y009437D01*
X004975Y009437D01*
X005020Y009482D01*
X004975Y009617D02*
X004885Y009617D01*
X004840Y009572D01*
X004726Y009572D02*
X004680Y009617D01*
X004545Y009617D01*
X004545Y009707D02*
X004545Y009437D01*
X004680Y009437D01*
X004726Y009482D01*
X004726Y009572D01*
X004431Y009617D02*
X004386Y009617D01*
X004386Y009437D01*
X004431Y009437D02*
X004341Y009437D01*
X004234Y009482D02*
X004189Y009437D01*
X004099Y009437D01*
X004054Y009482D01*
X004054Y009572D01*
X004099Y009617D01*
X004189Y009617D01*
X004234Y009572D01*
X004234Y009482D01*
X004386Y009707D02*
X004386Y009752D01*
X005104Y010082D02*
X005143Y010080D01*
X005181Y010074D01*
X005218Y010065D01*
X005255Y010052D01*
X005290Y010035D01*
X005323Y010016D01*
X005354Y009993D01*
X005383Y009967D01*
X005409Y009938D01*
X005432Y009907D01*
X005451Y009874D01*
X005468Y009839D01*
X005481Y009802D01*
X005490Y009765D01*
X005496Y009727D01*
X005498Y009688D01*
X005497Y009688D02*
X005497Y008900D01*
X005911Y008900D01*
X005497Y010003D02*
X005497Y014058D01*
X005497Y014373D02*
X005497Y015160D01*
X005911Y015160D01*
X005498Y014373D02*
X005496Y014334D01*
X005490Y014296D01*
X005481Y014259D01*
X005468Y014222D01*
X005451Y014187D01*
X005432Y014154D01*
X005409Y014123D01*
X005383Y014094D01*
X005354Y014068D01*
X005323Y014045D01*
X005290Y014026D01*
X005255Y014009D01*
X005218Y013996D01*
X005181Y013987D01*
X005143Y013981D01*
X005104Y013979D01*
X001419Y013979D01*
X001419Y010081D01*
X005104Y010081D01*
X005806Y017675D02*
X005806Y017946D01*
X005626Y017946D01*
X005716Y017811D02*
X005806Y017811D01*
X005921Y017946D02*
X006101Y017946D01*
X006101Y017675D01*
X005921Y017675D01*
X006011Y017811D02*
X006101Y017811D01*
X006215Y017811D02*
X006260Y017766D01*
X006396Y017766D01*
X006306Y017766D02*
X006215Y017675D01*
X006215Y017811D02*
X006215Y017901D01*
X006260Y017946D01*
X006396Y017946D01*
X006396Y017675D01*
X006510Y017721D02*
X006510Y017901D01*
X006555Y017946D01*
X006645Y017946D01*
X006690Y017901D01*
X006690Y017721D01*
X006645Y017675D01*
X006555Y017675D01*
X006510Y017721D01*
X006797Y017675D02*
X006887Y017675D01*
X006842Y017675D02*
X006842Y017946D01*
X006887Y017946D02*
X006797Y017946D01*
X006396Y018675D02*
X006396Y018946D01*
X006260Y018946D01*
X006215Y018901D01*
X006215Y018811D01*
X006260Y018766D01*
X006396Y018766D01*
X006306Y018766D02*
X006215Y018675D01*
X006101Y018721D02*
X006056Y018675D01*
X005966Y018675D01*
X005921Y018721D01*
X005921Y018766D01*
X005966Y018811D01*
X006056Y018811D01*
X006101Y018856D01*
X006101Y018901D01*
X006056Y018946D01*
X005966Y018946D01*
X005921Y018901D01*
X005806Y018946D02*
X005626Y018946D01*
X005716Y018946D02*
X005716Y018675D01*
X005791Y019477D02*
X005836Y019523D01*
X005836Y019613D01*
X005791Y019658D01*
X005746Y019658D01*
X005701Y019613D01*
X005656Y019658D01*
X005611Y019658D01*
X005566Y019613D01*
X005566Y019523D01*
X005611Y019477D01*
X005701Y019568D02*
X005701Y019613D01*
X005656Y019772D02*
X005566Y019862D01*
X005656Y019952D01*
X005836Y019952D01*
X005791Y020067D02*
X005836Y020112D01*
X005836Y020202D01*
X005791Y020247D01*
X005746Y020247D01*
X005701Y020202D01*
X005656Y020247D01*
X005611Y020247D01*
X005566Y020202D01*
X005566Y020112D01*
X005611Y020067D01*
X005701Y020157D02*
X005701Y020202D01*
X005701Y020577D02*
X005746Y020668D01*
X005746Y020713D01*
X005701Y020758D01*
X005611Y020758D01*
X005566Y020713D01*
X005566Y020623D01*
X005611Y020577D01*
X005701Y020577D02*
X005836Y020577D01*
X005836Y020758D01*
X005836Y020872D02*
X005656Y020872D01*
X005566Y020962D01*
X005656Y021052D01*
X005836Y021052D01*
X005791Y021167D02*
X005611Y021167D01*
X005791Y021347D01*
X005611Y021347D01*
X005566Y021302D01*
X005566Y021212D01*
X005611Y021167D01*
X005791Y021167D02*
X005836Y021212D01*
X005836Y021302D01*
X005791Y021347D01*
X005791Y021849D02*
X005611Y021849D01*
X005566Y021894D01*
X005566Y021985D01*
X005611Y022030D01*
X005701Y022030D01*
X005701Y021940D01*
X005791Y022030D02*
X005836Y021985D01*
X005836Y021894D01*
X005791Y021849D01*
X005836Y022144D02*
X005566Y022144D01*
X005566Y022324D02*
X005836Y022324D01*
X005836Y022439D02*
X005836Y022574D01*
X005791Y022619D01*
X005611Y022619D01*
X005566Y022574D01*
X005566Y022439D01*
X005836Y022439D01*
X005566Y022324D02*
X005836Y022144D01*
X005836Y023427D02*
X005656Y023427D01*
X005566Y023518D01*
X005656Y023608D01*
X005836Y023608D01*
X005836Y023722D02*
X005836Y023812D01*
X005836Y023767D02*
X005566Y023767D01*
X005566Y023722D02*
X005566Y023812D01*
X005566Y023919D02*
X005836Y023919D01*
X005566Y024099D01*
X005836Y024099D01*
X005746Y025645D02*
X005566Y025645D01*
X005701Y025645D02*
X005701Y025826D01*
X005746Y025826D02*
X005566Y025826D01*
X005611Y025940D02*
X005791Y026120D01*
X005611Y026120D01*
X005566Y026075D01*
X005566Y025985D01*
X005611Y025940D01*
X005791Y025940D01*
X005836Y025985D01*
X005836Y026075D01*
X005791Y026120D01*
X005746Y025826D02*
X005836Y025736D01*
X005746Y025645D01*
X005746Y026645D02*
X005566Y026645D01*
X005701Y026645D02*
X005701Y026826D01*
X005746Y026826D02*
X005566Y026826D01*
X005566Y026940D02*
X005566Y027120D01*
X005566Y027030D02*
X005836Y027030D01*
X005746Y026940D01*
X005746Y026826D02*
X005836Y026736D01*
X005746Y026645D01*
X005746Y027645D02*
X005566Y027645D01*
X005701Y027645D02*
X005701Y027826D01*
X005746Y027826D02*
X005566Y027826D01*
X005566Y027940D02*
X005746Y028120D01*
X005791Y028120D01*
X005836Y028075D01*
X005836Y027985D01*
X005791Y027940D01*
X005746Y027826D02*
X005836Y027736D01*
X005746Y027645D01*
X005566Y027940D02*
X005566Y028120D01*
X005566Y028645D02*
X005746Y028645D01*
X005836Y028736D01*
X005746Y028826D01*
X005566Y028826D01*
X005611Y028940D02*
X005566Y028985D01*
X005566Y029075D01*
X005611Y029120D01*
X005656Y029120D01*
X005701Y029075D01*
X005701Y029030D01*
X005701Y029075D02*
X005746Y029120D01*
X005791Y029120D01*
X005836Y029075D01*
X005836Y028985D01*
X005791Y028940D01*
X005701Y028826D02*
X005701Y028645D01*
X005701Y029645D02*
X005701Y029826D01*
X005746Y029826D02*
X005566Y029826D01*
X005701Y029940D02*
X005701Y030120D01*
X005566Y030075D02*
X005836Y030075D01*
X005701Y029940D01*
X005746Y029826D02*
X005836Y029736D01*
X005746Y029645D01*
X005566Y029645D01*
X005566Y030645D02*
X005746Y030645D01*
X005836Y030736D01*
X005746Y030826D01*
X005566Y030826D01*
X005611Y030940D02*
X005566Y030985D01*
X005566Y031075D01*
X005611Y031120D01*
X005701Y031120D01*
X005746Y031075D01*
X005746Y031030D01*
X005701Y030940D01*
X005836Y030940D01*
X005836Y031120D01*
X005701Y030826D02*
X005701Y030645D01*
X005734Y031640D02*
X005644Y031640D01*
X005599Y031685D01*
X005599Y031865D01*
X005779Y031685D01*
X005734Y031640D01*
X005779Y031685D02*
X005779Y031865D01*
X005734Y031910D01*
X005644Y031910D01*
X005599Y031865D01*
X005893Y031865D02*
X005938Y031910D01*
X006028Y031910D01*
X006073Y031865D01*
X006073Y031685D01*
X006028Y031640D01*
X005938Y031640D01*
X005893Y031685D01*
X006188Y031640D02*
X006188Y031820D01*
X006278Y031910D01*
X006368Y031820D01*
X006368Y031640D01*
X006483Y031685D02*
X006528Y031640D01*
X006663Y031640D01*
X006663Y031910D01*
X006528Y031910D01*
X006483Y031865D01*
X006483Y031685D01*
X006368Y031775D02*
X006188Y031775D01*
X006188Y032640D02*
X006188Y032820D01*
X006278Y032910D01*
X006368Y032820D01*
X006368Y032640D01*
X006483Y032685D02*
X006483Y032865D01*
X006528Y032910D01*
X006663Y032910D01*
X006663Y032640D01*
X006528Y032640D01*
X006483Y032685D01*
X006368Y032775D02*
X006188Y032775D01*
X006073Y032685D02*
X006028Y032640D01*
X005938Y032640D01*
X005893Y032685D01*
X005779Y032640D02*
X005599Y032640D01*
X005689Y032640D02*
X005689Y032910D01*
X005779Y032820D01*
X005893Y032865D02*
X005938Y032910D01*
X006028Y032910D01*
X006073Y032865D01*
X006073Y032685D01*
X008790Y032721D02*
X008790Y032856D01*
X008835Y032901D01*
X009015Y032901D01*
X009060Y032856D01*
X009060Y032721D01*
X008790Y032721D01*
X008835Y032606D02*
X008790Y032561D01*
X008790Y032471D01*
X008835Y032426D01*
X008925Y032426D02*
X008970Y032516D01*
X008970Y032561D01*
X008925Y032606D01*
X008835Y032606D01*
X008925Y032426D02*
X009060Y032426D01*
X009060Y032606D01*
X008925Y032311D02*
X008925Y032131D01*
X009060Y032266D01*
X008790Y032266D01*
X008790Y031927D02*
X009060Y031927D01*
X009060Y031837D02*
X009060Y032017D01*
X008970Y031722D02*
X008790Y031722D01*
X008925Y031722D02*
X008925Y031542D01*
X008970Y031542D02*
X009060Y031632D01*
X008970Y031722D01*
X008970Y031542D02*
X008790Y031542D01*
X008970Y031137D02*
X008970Y031092D01*
X008880Y031002D01*
X008790Y031002D02*
X008970Y031002D01*
X008925Y030887D02*
X008970Y030842D01*
X008970Y030752D01*
X008925Y030707D01*
X008835Y030707D01*
X008790Y030752D01*
X008790Y030842D01*
X008835Y030887D01*
X008925Y030887D01*
X008790Y030298D02*
X008790Y030118D01*
X009060Y030118D01*
X009060Y030003D02*
X009060Y029823D01*
X008790Y029823D01*
X008835Y029709D02*
X008790Y029664D01*
X008790Y029574D01*
X008835Y029528D01*
X008925Y029528D02*
X008970Y029619D01*
X008970Y029664D01*
X008925Y029709D01*
X008835Y029709D01*
X008925Y029823D02*
X008925Y029913D01*
X009060Y029709D02*
X009060Y029528D01*
X008925Y029528D01*
X008970Y029414D02*
X009015Y029414D01*
X009060Y029369D01*
X009060Y029279D01*
X009015Y029234D01*
X009015Y029119D02*
X009060Y029074D01*
X009060Y028984D01*
X009015Y028939D01*
X008970Y028939D01*
X008925Y028984D01*
X008925Y029074D01*
X008880Y029119D01*
X008835Y029119D01*
X008790Y029074D01*
X008790Y028984D01*
X008835Y028939D01*
X008790Y029234D02*
X008970Y029414D01*
X008790Y029414D02*
X008790Y029234D01*
X010379Y028940D02*
X010379Y028546D01*
X010379Y028940D02*
X010773Y028940D01*
X009006Y026213D02*
X008826Y026213D01*
X008871Y026123D02*
X008826Y026078D01*
X008826Y025988D01*
X008871Y025943D01*
X008961Y025943D01*
X009006Y025988D01*
X009006Y026078D02*
X008916Y026123D01*
X008871Y026123D01*
X009006Y026078D02*
X009006Y026213D01*
X008711Y026213D02*
X008711Y026033D01*
X008621Y025943D01*
X008531Y026033D01*
X008531Y026213D01*
X008417Y026168D02*
X008371Y026213D01*
X008281Y026213D01*
X008236Y026168D01*
X008417Y025988D01*
X008371Y025943D01*
X008281Y025943D01*
X008236Y025988D01*
X008236Y026168D01*
X008417Y026168D02*
X008417Y025988D01*
X008464Y025222D02*
X008464Y024952D01*
X008644Y025222D01*
X008644Y024952D01*
X008759Y024997D02*
X008759Y025087D01*
X008849Y025087D01*
X008939Y025177D02*
X008939Y024997D01*
X008894Y024952D01*
X008804Y024952D01*
X008759Y024997D01*
X008759Y025177D02*
X008804Y025222D01*
X008894Y025222D01*
X008939Y025177D01*
X008350Y025222D02*
X008350Y024952D01*
X008215Y024952D01*
X008169Y024997D01*
X008169Y025177D01*
X008215Y025222D01*
X008350Y025222D01*
X008350Y024222D02*
X008169Y023952D01*
X008169Y024222D01*
X008350Y024222D02*
X008350Y023952D01*
X008456Y023952D02*
X008546Y023952D01*
X008501Y023952D02*
X008501Y024222D01*
X008546Y024222D02*
X008456Y024222D01*
X008661Y024222D02*
X008661Y024042D01*
X008751Y023952D01*
X008841Y024042D01*
X008841Y024222D01*
X010379Y021459D02*
X010379Y021066D01*
X010773Y021066D01*
X014597Y018295D02*
X014597Y017695D01*
X016397Y017695D02*
X016397Y018295D01*
X017092Y017470D02*
X017092Y017290D01*
X017092Y017380D02*
X016822Y017380D01*
X016867Y017175D02*
X016822Y017130D01*
X016822Y017040D01*
X016867Y016995D01*
X016957Y017040D02*
X017002Y016995D01*
X017047Y016995D01*
X017092Y017040D01*
X017092Y017130D01*
X017047Y017175D01*
X016957Y017130D02*
X016912Y017175D01*
X016867Y017175D01*
X016957Y017130D02*
X016957Y017040D01*
X016957Y016881D02*
X016912Y016835D01*
X016912Y016700D01*
X016912Y016790D02*
X016822Y016881D01*
X016957Y016881D02*
X017047Y016881D01*
X017092Y016835D01*
X017092Y016700D01*
X016822Y016700D01*
X016822Y016586D02*
X017092Y016586D01*
X017092Y016406D02*
X016822Y016586D01*
X016822Y016406D02*
X017092Y016406D01*
X015340Y014648D02*
X015458Y014530D01*
X015307Y014522D02*
X015309Y014532D01*
X015314Y014540D01*
X015322Y014545D01*
X015332Y014547D01*
X015342Y014545D01*
X015350Y014540D01*
X015355Y014532D01*
X015357Y014522D01*
X015355Y014512D01*
X015350Y014504D01*
X015342Y014499D01*
X015332Y014497D01*
X015322Y014499D01*
X015314Y014504D01*
X015309Y014512D01*
X015307Y014522D01*
X015458Y013113D02*
X015458Y012995D01*
X015340Y012995D01*
X013922Y012995D02*
X013804Y012995D01*
X013804Y013113D01*
X013804Y014530D02*
X013804Y014648D01*
X013922Y014648D01*
X011836Y014767D02*
X011836Y015160D01*
X011375Y015160D01*
X011836Y009294D02*
X011836Y008900D01*
X011375Y008900D01*
X013827Y004885D02*
X013829Y004899D01*
X013835Y004913D01*
X013843Y004925D01*
X013855Y004933D01*
X013869Y004939D01*
X013883Y004941D01*
X013897Y004939D01*
X013911Y004933D01*
X013923Y004925D01*
X013931Y004913D01*
X013937Y004899D01*
X013939Y004885D01*
X013937Y004871D01*
X013931Y004857D01*
X013923Y004845D01*
X013911Y004837D01*
X013897Y004831D01*
X013883Y004829D01*
X013869Y004831D01*
X013855Y004837D01*
X013843Y004845D01*
X013835Y004857D01*
X013829Y004871D01*
X013827Y004885D01*
X018593Y016366D02*
X018863Y016366D01*
X018593Y016546D01*
X018863Y016546D01*
X018863Y016661D02*
X018593Y016661D01*
X018683Y016661D02*
X018683Y016796D01*
X018728Y016841D01*
X018818Y016841D01*
X018863Y016796D01*
X018863Y016661D01*
X018683Y016751D02*
X018593Y016841D01*
X018638Y016956D02*
X018593Y017001D01*
X018593Y017091D01*
X018638Y017136D01*
X018683Y017136D01*
X018728Y017091D01*
X018728Y017001D01*
X018773Y016956D01*
X018818Y016956D01*
X018863Y017001D01*
X018863Y017091D01*
X018818Y017136D01*
X018863Y017250D02*
X018863Y017430D01*
X018863Y017340D02*
X018593Y017340D01*
X018593Y017545D02*
X018593Y017680D01*
X018638Y017725D01*
X018683Y017725D01*
X018728Y017680D01*
X018728Y017545D01*
X018593Y017545D02*
X018863Y017545D01*
X018863Y017680D01*
X018818Y017725D01*
X018773Y017725D01*
X018728Y017680D01*
X018253Y021066D02*
X017938Y021066D01*
X018253Y021066D02*
X018253Y021459D01*
X022858Y016263D02*
X022813Y016218D01*
X022813Y016037D01*
X022858Y015992D01*
X022993Y015992D01*
X022993Y016263D01*
X022858Y016263D01*
X023108Y016263D02*
X023108Y015992D01*
X023288Y016263D01*
X023288Y015992D01*
X023402Y016037D02*
X023402Y016127D01*
X023492Y016127D01*
X023402Y016037D02*
X023447Y015992D01*
X023537Y015992D01*
X023583Y016037D01*
X023583Y016218D01*
X023537Y016263D01*
X023447Y016263D01*
X023402Y016218D01*
X023492Y015266D02*
X023402Y015176D01*
X023402Y014995D01*
X023288Y014995D02*
X023288Y015266D01*
X023153Y015266D01*
X023108Y015221D01*
X023108Y015131D01*
X023153Y015086D01*
X023288Y015086D01*
X023198Y015086D02*
X023108Y014995D01*
X022993Y015041D02*
X022948Y014995D01*
X022858Y014995D01*
X022813Y015086D02*
X022993Y015086D01*
X022993Y015131D02*
X022948Y015176D01*
X022858Y015176D01*
X022813Y015131D01*
X022813Y015086D01*
X022699Y015131D02*
X022608Y015131D01*
X022654Y015221D02*
X022608Y015266D01*
X022654Y015221D02*
X022654Y014995D01*
X022993Y015041D02*
X022993Y015131D01*
X023402Y015131D02*
X023583Y015131D01*
X023583Y015176D02*
X023492Y015266D01*
X023583Y015176D02*
X023583Y014995D01*
X023537Y014266D02*
X023583Y014221D01*
X023583Y014176D01*
X023537Y014131D01*
X023447Y014131D01*
X023402Y014086D01*
X023402Y014041D01*
X023447Y013995D01*
X023537Y013995D01*
X023583Y014041D01*
X023537Y014266D02*
X023447Y014266D01*
X023402Y014221D01*
X023288Y014266D02*
X023288Y013995D01*
X023153Y013995D01*
X023108Y014041D01*
X023108Y014221D01*
X023153Y014266D01*
X023288Y014266D01*
X022993Y014176D02*
X022903Y014266D01*
X022813Y014176D01*
X022813Y013995D01*
X022813Y014131D02*
X022993Y014131D01*
X022993Y014176D02*
X022993Y013995D01*
X022993Y013266D02*
X022993Y012995D01*
X022813Y012995D01*
X023108Y013041D02*
X023153Y012995D01*
X023243Y012995D01*
X023288Y013041D01*
X023288Y013221D01*
X023243Y013266D01*
X023153Y013266D01*
X023108Y013221D01*
X023402Y013221D02*
X023447Y013266D01*
X023537Y013266D01*
X023583Y013221D01*
X023583Y013176D01*
X023537Y013131D01*
X023447Y013131D01*
X023402Y013086D01*
X023402Y013041D01*
X023447Y012995D01*
X023537Y012995D01*
X023583Y013041D01*
X023426Y017056D02*
X023516Y017146D01*
X023246Y017146D01*
X023246Y017056D02*
X023246Y017236D01*
X023291Y017351D02*
X023246Y017396D01*
X023246Y017486D01*
X023291Y017531D01*
X023336Y017531D01*
X023381Y017486D01*
X023381Y017441D01*
X023381Y017486D02*
X023426Y017531D01*
X023471Y017531D01*
X023516Y017486D01*
X023516Y017396D01*
X023471Y017351D01*
X023426Y018056D02*
X023516Y018146D01*
X023246Y018146D01*
X023246Y018056D02*
X023246Y018236D01*
X023246Y018351D02*
X023426Y018531D01*
X023471Y018531D01*
X023516Y018486D01*
X023516Y018396D01*
X023471Y018351D01*
X023246Y018351D02*
X023246Y018531D01*
X023246Y019056D02*
X023246Y019236D01*
X023246Y019146D02*
X023516Y019146D01*
X023426Y019056D01*
X023426Y019351D02*
X023516Y019441D01*
X023246Y019441D01*
X023246Y019351D02*
X023246Y019531D01*
X023246Y020056D02*
X023246Y020236D01*
X023246Y020146D02*
X023516Y020146D01*
X023426Y020056D01*
X023471Y020351D02*
X023291Y020351D01*
X023471Y020531D01*
X023291Y020531D01*
X023246Y020486D01*
X023246Y020396D01*
X023291Y020351D01*
X023471Y020351D02*
X023516Y020396D01*
X023516Y020486D01*
X023471Y020531D01*
X023471Y021151D02*
X023426Y021151D01*
X023381Y021196D01*
X023381Y021331D01*
X023291Y021331D02*
X023471Y021331D01*
X023516Y021286D01*
X023516Y021196D01*
X023471Y021151D01*
X023291Y021151D02*
X023246Y021196D01*
X023246Y021286D01*
X023291Y021331D01*
X023291Y022151D02*
X023336Y022151D01*
X023381Y022196D01*
X023381Y022286D01*
X023336Y022331D01*
X023291Y022331D01*
X023246Y022286D01*
X023246Y022196D01*
X023291Y022151D01*
X023381Y022196D02*
X023426Y022151D01*
X023471Y022151D01*
X023516Y022196D01*
X023516Y022286D01*
X023471Y022331D01*
X023426Y022331D01*
X023381Y022286D01*
X023291Y023751D02*
X023246Y023751D01*
X023291Y023751D02*
X023471Y023931D01*
X023516Y023931D01*
X023516Y023751D01*
X023381Y024751D02*
X023381Y024886D01*
X023336Y024931D01*
X023291Y024931D01*
X023246Y024886D01*
X023246Y024796D01*
X023291Y024751D01*
X023381Y024751D01*
X023471Y024841D01*
X023516Y024931D01*
X023516Y025751D02*
X023381Y025751D01*
X023426Y025841D01*
X023426Y025886D01*
X023381Y025931D01*
X023291Y025931D01*
X023246Y025886D01*
X023246Y025796D01*
X023291Y025751D01*
X023516Y025751D02*
X023516Y025931D01*
X023381Y026751D02*
X023381Y026931D01*
X023246Y026886D02*
X023516Y026886D01*
X023381Y026751D01*
X023471Y027751D02*
X023516Y027796D01*
X023516Y027886D01*
X023471Y027931D01*
X023426Y027931D01*
X023381Y027886D01*
X023336Y027931D01*
X023291Y027931D01*
X023246Y027886D01*
X023246Y027796D01*
X023291Y027751D01*
X023381Y027841D02*
X023381Y027886D01*
X023471Y028751D02*
X023516Y028796D01*
X023516Y028886D01*
X023471Y028931D01*
X023426Y028931D01*
X023246Y028751D01*
X023246Y028931D01*
X023246Y029751D02*
X023246Y029931D01*
X023246Y029841D02*
X023516Y029841D01*
X023426Y029751D01*
X023471Y030751D02*
X023291Y030751D01*
X023471Y030931D01*
X023291Y030931D01*
X023246Y030886D01*
X023246Y030796D01*
X023291Y030751D01*
X023471Y030751D02*
X023516Y030796D01*
X023516Y030886D01*
X023471Y030931D01*
X023498Y031642D02*
X023408Y031642D01*
X023363Y031687D01*
X023249Y031642D02*
X023249Y031822D01*
X023158Y031912D01*
X023068Y031822D01*
X023068Y031642D01*
X022954Y031642D02*
X022954Y031912D01*
X022774Y031642D01*
X022774Y031912D01*
X022659Y031912D02*
X022524Y031912D01*
X022479Y031867D01*
X022479Y031777D01*
X022524Y031732D01*
X022659Y031732D01*
X022569Y031732D02*
X022479Y031642D01*
X022365Y031642D02*
X022184Y031912D01*
X022365Y031912D02*
X022184Y031642D01*
X022659Y031642D02*
X022659Y031912D01*
X023068Y031777D02*
X023249Y031777D01*
X023363Y031867D02*
X023408Y031912D01*
X023498Y031912D01*
X023543Y031867D01*
X023543Y031687D01*
X023498Y031642D01*
X023498Y032626D02*
X023408Y032626D01*
X023363Y032671D01*
X023249Y032626D02*
X023249Y032806D01*
X023158Y032896D01*
X023068Y032806D01*
X023068Y032626D01*
X022954Y032626D02*
X022954Y032896D01*
X022774Y032626D01*
X022774Y032896D01*
X022659Y032896D02*
X022479Y032896D01*
X022569Y032896D02*
X022569Y032626D01*
X022365Y032626D02*
X022184Y032896D01*
X022365Y032896D02*
X022184Y032626D01*
X023068Y032761D02*
X023249Y032761D01*
X023363Y032851D02*
X023408Y032896D01*
X023498Y032896D01*
X023543Y032851D01*
X023543Y032671D01*
X023498Y032626D01*
X023686Y034491D02*
X023686Y035948D01*
X023686Y034491D02*
X018962Y034491D01*
X018962Y035948D01*
X019689Y036717D02*
X019749Y036717D01*
X019749Y036765D02*
X019640Y036765D01*
X019592Y036814D02*
X019749Y036814D01*
X019749Y036862D02*
X019562Y036862D01*
X019552Y036853D02*
X019749Y037050D01*
X019749Y036656D01*
X019552Y036853D01*
X019610Y036911D02*
X019749Y036911D01*
X019749Y036959D02*
X019659Y036959D01*
X019707Y037008D02*
X019749Y037008D01*
X019737Y036668D02*
X019749Y036668D01*
X018962Y037759D02*
X018962Y039215D01*
X023686Y039215D01*
X023686Y037759D01*
X018017Y028940D02*
X017859Y028940D01*
X018017Y028940D02*
X018253Y028704D01*
X018253Y028546D01*
X025686Y025091D02*
X025686Y022552D01*
X026726Y022552D01*
X026726Y024822D01*
X026776Y024822D01*
X026826Y024822D01*
X026826Y025191D01*
X026456Y025191D01*
X026456Y025141D01*
X026456Y025091D01*
X025686Y025091D01*
X026456Y025091D02*
X026726Y025091D01*
X026726Y024822D01*
X026776Y024822D02*
X026776Y025141D01*
X026456Y025141D01*
X009060Y033015D02*
X009060Y033150D01*
X009015Y033195D01*
X008970Y033195D01*
X008925Y033150D01*
X008925Y033015D01*
X008790Y033015D02*
X009060Y033015D01*
X008925Y033150D02*
X008880Y033195D01*
X008835Y033195D01*
X008790Y033150D01*
X008790Y033015D01*
X005836Y019772D02*
X005656Y019772D01*
D11*
X004096Y018094D02*
X004096Y017867D01*
X003756Y017867D01*
X003756Y018094D01*
X003756Y018236D02*
X003982Y018236D01*
X003869Y018236D02*
X003982Y018349D01*
X003982Y018406D01*
X003982Y018599D02*
X003982Y018713D01*
X003926Y018770D01*
X003756Y018770D01*
X003756Y018599D01*
X003812Y018543D01*
X003869Y018599D01*
X003869Y018770D01*
X003926Y018911D02*
X003982Y018968D01*
X003982Y019138D01*
X003869Y019081D02*
X003869Y018968D01*
X003926Y018911D01*
X003756Y018911D02*
X003756Y019081D01*
X003812Y019138D01*
X003869Y019081D01*
X003869Y019279D02*
X003869Y019506D01*
X003926Y019506D01*
X003982Y019449D01*
X003982Y019336D01*
X003926Y019279D01*
X003812Y019279D01*
X003756Y019336D01*
X003756Y019449D01*
X003926Y017981D02*
X003926Y017867D01*
X009664Y017928D02*
X009664Y018928D01*
X009666Y018945D01*
X009670Y018962D01*
X009677Y018978D01*
X009687Y018992D01*
X009700Y019005D01*
X009714Y019015D01*
X009730Y019022D01*
X009747Y019026D01*
X009764Y019028D01*
X010364Y019028D01*
X010381Y019026D01*
X010398Y019022D01*
X010414Y019015D01*
X010428Y019005D01*
X010441Y018992D01*
X010451Y018978D01*
X010458Y018962D01*
X010462Y018945D01*
X010464Y018928D01*
X010464Y017928D01*
X010462Y017911D01*
X010458Y017894D01*
X010451Y017878D01*
X010441Y017864D01*
X010428Y017851D01*
X010414Y017841D01*
X010398Y017834D01*
X010381Y017830D01*
X010364Y017828D01*
X009764Y017828D01*
X009747Y017830D01*
X009730Y017834D01*
X009714Y017841D01*
X009700Y017851D01*
X009687Y017864D01*
X009677Y017878D01*
X009670Y017894D01*
X009666Y017911D01*
X009664Y017928D01*
X016394Y011168D02*
X016394Y010806D01*
X017120Y010806D01*
X017120Y011168D01*
X016394Y011168D01*
X017599Y011057D02*
X017962Y011057D01*
X017962Y011783D01*
X017599Y011783D01*
X017599Y011057D01*
X018784Y011055D02*
X019301Y011055D01*
X019301Y010658D01*
X019301Y010234D02*
X019301Y009817D01*
X018784Y009817D01*
X018781Y010264D02*
X018781Y010602D01*
X021418Y008476D02*
X021418Y007750D01*
X021781Y007750D01*
X021781Y008476D01*
X021418Y008476D01*
X022678Y007964D02*
X022678Y007238D01*
X023041Y007238D01*
X023041Y007964D01*
X022678Y007964D01*
X022536Y006719D02*
X022536Y006357D01*
X023262Y006357D01*
X023262Y006719D01*
X022536Y006719D01*
X024307Y006168D02*
X024307Y005806D01*
X025034Y005806D01*
X025034Y006168D01*
X024307Y006168D01*
X025040Y005287D02*
X025040Y004561D01*
X025403Y004561D01*
X025403Y005287D01*
X025040Y005287D01*
X024128Y003609D02*
X023402Y003609D01*
X023402Y003247D01*
X024128Y003247D01*
X024128Y003609D01*
X025190Y002460D02*
X025361Y002290D01*
X025134Y002290D01*
X025190Y002460D02*
X025190Y002119D01*
X025559Y002176D02*
X025559Y002460D01*
X025615Y002460D02*
X025502Y002460D01*
X025559Y002176D02*
X025615Y002119D01*
X025672Y002119D01*
X025729Y002176D01*
X025870Y002176D02*
X025927Y002119D01*
X026040Y002119D01*
X026097Y002176D01*
X026040Y002290D02*
X025927Y002290D01*
X025870Y002233D01*
X025870Y002176D01*
X026040Y002290D02*
X026097Y002346D01*
X026097Y002403D01*
X026040Y002460D01*
X025927Y002460D01*
X025870Y002403D01*
X018304Y016096D02*
X018191Y016096D01*
X018134Y016152D01*
X018134Y016209D01*
X018191Y016266D01*
X018304Y016266D01*
X018361Y016323D01*
X018361Y016379D01*
X018304Y016436D01*
X018191Y016436D01*
X018134Y016379D01*
X017879Y016436D02*
X017766Y016436D01*
X017823Y016436D02*
X017823Y016152D01*
X017879Y016096D01*
X017936Y016096D01*
X017993Y016152D01*
X018304Y016096D02*
X018361Y016152D01*
X018359Y016611D02*
X017359Y016611D01*
X017342Y016613D01*
X017325Y016617D01*
X017309Y016624D01*
X017295Y016634D01*
X017282Y016647D01*
X017272Y016661D01*
X017265Y016677D01*
X017261Y016694D01*
X017259Y016711D01*
X017259Y017311D01*
X017261Y017328D01*
X017265Y017345D01*
X017272Y017361D01*
X017282Y017375D01*
X017295Y017388D01*
X017309Y017398D01*
X017325Y017405D01*
X017342Y017409D01*
X017359Y017411D01*
X018359Y017411D01*
X018376Y017409D01*
X018393Y017405D01*
X018409Y017398D01*
X018423Y017388D01*
X018436Y017375D01*
X018446Y017361D01*
X018453Y017345D01*
X018457Y017328D01*
X018459Y017311D01*
X018459Y016711D01*
X018457Y016694D01*
X018453Y016677D01*
X018446Y016661D01*
X018436Y016647D01*
X018423Y016634D01*
X018409Y016624D01*
X018393Y016617D01*
X018376Y016613D01*
X018359Y016611D01*
X017624Y016436D02*
X017624Y016266D01*
X017511Y016323D01*
X017454Y016323D01*
X017398Y016266D01*
X017398Y016152D01*
X017454Y016096D01*
X017568Y016096D01*
X017624Y016152D01*
X017624Y016436D02*
X017398Y016436D01*
X011739Y008213D02*
X011739Y005573D01*
X010279Y005573D01*
X010279Y006203D01*
X009849Y005976D02*
X009332Y005976D01*
X009332Y005559D01*
X009332Y005135D02*
X009332Y004738D01*
X009849Y004738D01*
X009852Y005191D02*
X009852Y005529D01*
X010279Y007583D02*
X010279Y008213D01*
X011739Y008213D01*
X011812Y003673D02*
X011812Y002947D01*
X012175Y002947D01*
X012175Y003673D01*
X011812Y003673D01*
X007954Y007550D02*
X007897Y007493D01*
X007841Y007493D01*
X007784Y007550D01*
X007784Y007664D01*
X007727Y007720D01*
X007671Y007720D01*
X007614Y007664D01*
X007614Y007550D01*
X007671Y007493D01*
X007954Y007550D02*
X007954Y007664D01*
X007897Y007720D01*
X007954Y007975D02*
X007954Y008089D01*
X007954Y008032D02*
X007671Y008032D01*
X007614Y007975D01*
X007614Y007918D01*
X007671Y007862D01*
X007614Y008230D02*
X007614Y008457D01*
X007614Y008343D02*
X007954Y008343D01*
X007841Y008230D01*
X006923Y006680D02*
X006197Y006680D01*
X006197Y006318D01*
X006923Y006318D01*
X006923Y006680D01*
X005749Y007511D02*
X005693Y007454D01*
X005636Y007454D01*
X005579Y007511D01*
X005579Y007624D01*
X005523Y007681D01*
X005466Y007681D01*
X005409Y007624D01*
X005409Y007511D01*
X005466Y007454D01*
X005749Y007511D02*
X005749Y007624D01*
X005693Y007681D01*
X005749Y007936D02*
X005749Y008049D01*
X005749Y007992D02*
X005466Y007992D01*
X005409Y007936D01*
X005409Y007879D01*
X005466Y007822D01*
X005409Y008191D02*
X005636Y008418D01*
X005693Y008418D01*
X005749Y008361D01*
X005749Y008247D01*
X005693Y008191D01*
X005409Y008191D02*
X005409Y008418D01*
X006772Y029387D02*
X006772Y031396D01*
X006772Y030696D02*
X006772Y032706D01*
X008632Y032706D02*
X008632Y030696D01*
X008632Y031396D02*
X008632Y029387D01*
X010244Y030230D02*
X010244Y030456D01*
X010244Y030343D02*
X010584Y030343D01*
X010471Y030230D01*
X010791Y030320D02*
X010541Y030570D01*
X010541Y031070D01*
X010791Y031320D01*
X012291Y031320D01*
X012541Y031570D01*
X012541Y032070D01*
X012291Y032320D01*
X010791Y032320D01*
X010541Y032570D01*
X010541Y033070D01*
X010791Y033320D01*
X012291Y033320D01*
X012541Y033570D01*
X012541Y034070D01*
X012291Y034320D01*
X010791Y034320D01*
X010541Y034570D01*
X010541Y035070D01*
X010791Y035320D01*
X012291Y035320D01*
X012541Y035570D01*
X012541Y036070D01*
X012291Y036320D01*
X010791Y036320D01*
X010541Y036570D01*
X010541Y037070D01*
X010791Y037320D01*
X012291Y037320D01*
X012541Y037570D01*
X012541Y038070D01*
X012291Y038320D01*
X010791Y038320D01*
X010541Y038070D01*
X010541Y037570D01*
X010791Y037320D01*
X010791Y036320D02*
X010541Y036070D01*
X010541Y035570D01*
X010791Y035320D01*
X010791Y034320D02*
X010541Y034070D01*
X010541Y033570D01*
X010791Y033320D01*
X010299Y033167D02*
X010072Y033167D01*
X010015Y033223D01*
X010242Y033223D02*
X010242Y033110D01*
X010186Y032968D02*
X010129Y032968D01*
X010129Y032742D01*
X010186Y032742D02*
X010242Y032798D01*
X010242Y032912D01*
X010186Y032968D01*
X010015Y032912D02*
X010015Y032798D01*
X010072Y032742D01*
X010186Y032742D01*
X010186Y032600D02*
X010015Y032600D01*
X010186Y032600D02*
X010242Y032543D01*
X010242Y032373D01*
X010015Y032373D01*
X010242Y032236D02*
X010242Y032180D01*
X010129Y032066D01*
X010242Y032066D02*
X010015Y032066D01*
X010129Y031925D02*
X010129Y031698D01*
X010186Y031698D02*
X010242Y031755D01*
X010242Y031868D01*
X010186Y031925D01*
X010129Y031925D01*
X010015Y031868D02*
X010015Y031755D01*
X010072Y031698D01*
X010186Y031698D01*
X010186Y031557D02*
X010015Y031557D01*
X010186Y031557D02*
X010242Y031500D01*
X010242Y031386D01*
X010186Y031330D01*
X010242Y031198D02*
X010242Y031084D01*
X010299Y031141D02*
X010072Y031141D01*
X010015Y031198D01*
X010015Y031330D02*
X010356Y031330D01*
X010541Y031570D02*
X010541Y032070D01*
X010791Y032320D01*
X010541Y031570D02*
X010791Y031320D01*
X010356Y030943D02*
X010356Y030716D01*
X010015Y030716D01*
X010015Y030943D01*
X010186Y030829D02*
X010186Y030716D01*
X010791Y030320D02*
X012291Y030320D01*
X012541Y030570D01*
X012541Y031070D01*
X012291Y031320D01*
X013047Y030732D02*
X013047Y030505D01*
X013047Y030619D02*
X013387Y030619D01*
X013274Y030505D01*
X013541Y030570D02*
X013791Y030320D01*
X014291Y030320D01*
X014541Y030570D01*
X014791Y030320D01*
X015291Y030320D01*
X015541Y030570D01*
X015791Y030320D01*
X016291Y030320D01*
X016541Y030570D01*
X016541Y032070D01*
X016291Y032320D01*
X015791Y032320D01*
X015541Y032070D01*
X015291Y032320D01*
X014791Y032320D01*
X014541Y032070D01*
X014291Y032320D01*
X013791Y032320D01*
X013541Y032070D01*
X013541Y030570D01*
X012291Y032320D02*
X012541Y032570D01*
X012541Y033070D01*
X012291Y033320D01*
X012291Y034320D02*
X012541Y034570D01*
X012541Y035070D01*
X012291Y035320D01*
X012291Y036320D02*
X012541Y036570D01*
X012541Y037070D01*
X012291Y037320D01*
X016630Y033925D02*
X016630Y033325D01*
X016632Y033308D01*
X016636Y033291D01*
X016643Y033275D01*
X016653Y033261D01*
X016666Y033248D01*
X016680Y033238D01*
X016696Y033231D01*
X016713Y033227D01*
X016730Y033225D01*
X017730Y033225D01*
X017747Y033227D01*
X017764Y033231D01*
X017780Y033238D01*
X017794Y033248D01*
X017807Y033261D01*
X017817Y033275D01*
X017824Y033291D01*
X017828Y033308D01*
X017830Y033325D01*
X017830Y033925D01*
X017828Y033942D01*
X017824Y033959D01*
X017817Y033975D01*
X017807Y033989D01*
X017794Y034002D01*
X017780Y034012D01*
X017764Y034019D01*
X017747Y034023D01*
X017730Y034025D01*
X016730Y034025D01*
X016713Y034023D01*
X016696Y034019D01*
X016680Y034012D01*
X016666Y034002D01*
X016653Y033989D01*
X016643Y033975D01*
X016636Y033959D01*
X016632Y033942D01*
X016630Y033925D01*
X016805Y033109D02*
X016748Y033053D01*
X016748Y032996D01*
X016805Y032939D01*
X016748Y032882D01*
X016748Y032826D01*
X016805Y032769D01*
X016918Y032769D01*
X016975Y032826D01*
X016861Y032939D02*
X016805Y032939D01*
X016805Y033109D02*
X016918Y033109D01*
X016975Y033053D01*
X017116Y033109D02*
X017230Y033109D01*
X017173Y033109D02*
X017173Y032826D01*
X017230Y032769D01*
X017286Y032769D01*
X017343Y032826D01*
X017485Y032826D02*
X017485Y032882D01*
X017541Y032939D01*
X017655Y032939D01*
X017711Y032996D01*
X017711Y033053D01*
X017655Y033109D01*
X017541Y033109D01*
X017485Y033053D01*
X017485Y032826D02*
X017541Y032769D01*
X017655Y032769D01*
X017711Y032826D01*
X018210Y033262D02*
X018210Y033988D01*
X018572Y033988D01*
X018572Y033262D01*
X018210Y033262D01*
X017009Y031749D02*
X017009Y031636D01*
X017009Y031692D02*
X016669Y031692D01*
X016669Y031636D02*
X016669Y031749D01*
X016839Y031494D02*
X016782Y031437D01*
X016782Y031267D01*
X016669Y031267D02*
X017009Y031267D01*
X017009Y031437D01*
X016953Y031494D01*
X016839Y031494D01*
X016782Y031126D02*
X016726Y031126D01*
X016669Y031069D01*
X016669Y030956D01*
X016726Y030899D01*
X016839Y030956D02*
X016839Y031069D01*
X016782Y031126D01*
X016953Y031126D02*
X017009Y031069D01*
X017009Y030956D01*
X016953Y030899D01*
X016896Y030899D01*
X016839Y030956D01*
X017415Y037592D02*
X017358Y037649D01*
X017358Y037762D01*
X017415Y037819D01*
X017471Y037819D01*
X017528Y037762D01*
X017528Y037649D01*
X017585Y037592D01*
X017642Y037592D01*
X017698Y037649D01*
X017698Y037762D01*
X017642Y037819D01*
X017698Y038074D02*
X017698Y038187D01*
X017698Y038130D02*
X017415Y038130D01*
X017358Y038074D01*
X017358Y038017D01*
X017415Y037960D01*
X017415Y038328D02*
X017358Y038328D01*
X017415Y038328D02*
X017642Y038555D01*
X017698Y038555D01*
X017698Y038328D01*
X023874Y033700D02*
X023987Y033643D01*
X024101Y033530D01*
X023931Y033530D01*
X023874Y033473D01*
X023874Y033416D01*
X023931Y033360D01*
X024044Y033360D01*
X024101Y033416D01*
X024101Y033530D01*
X024242Y033700D02*
X024356Y033700D01*
X024299Y033700D02*
X024299Y033416D01*
X024356Y033360D01*
X024412Y033360D01*
X024469Y033416D01*
X024611Y033416D02*
X024667Y033360D01*
X024781Y033360D01*
X024837Y033416D01*
X024781Y033530D02*
X024837Y033586D01*
X024837Y033643D01*
X024781Y033700D01*
X024667Y033700D01*
X024611Y033643D01*
X024667Y033530D02*
X024611Y033473D01*
X024611Y033416D01*
X024667Y033530D02*
X024781Y033530D01*
X025180Y034718D02*
X025237Y034775D01*
X025237Y035001D01*
X025293Y034945D02*
X025180Y034945D01*
X025435Y034888D02*
X025435Y034831D01*
X025662Y034831D01*
X025662Y034775D02*
X025662Y034888D01*
X025605Y034945D01*
X025491Y034945D01*
X025435Y034888D01*
X025491Y034718D02*
X025605Y034718D01*
X025662Y034775D01*
X025803Y034775D02*
X025860Y034831D01*
X025973Y034831D01*
X026030Y034888D01*
X025973Y034945D01*
X025803Y034945D01*
X025803Y034775D02*
X025860Y034718D01*
X026030Y034718D01*
X026171Y034831D02*
X026398Y034831D01*
X026398Y034775D02*
X026398Y034888D01*
X026341Y034945D01*
X026228Y034945D01*
X026171Y034888D01*
X026171Y034831D01*
X026228Y034718D02*
X026341Y034718D01*
X026398Y034775D01*
X026540Y034718D02*
X026653Y034831D01*
X026596Y034831D02*
X026767Y034831D01*
X026767Y034718D02*
X026767Y035058D01*
X026596Y035058D01*
X026540Y035001D01*
X026540Y034888D01*
X026596Y034831D01*
X026395Y031436D02*
X026452Y031379D01*
X026452Y031152D01*
X026395Y031096D01*
X026281Y031096D01*
X026225Y031152D01*
X026225Y031266D01*
X026338Y031266D01*
X026225Y031379D02*
X026281Y031436D01*
X026395Y031436D01*
X026083Y031436D02*
X026083Y031096D01*
X025856Y031096D02*
X025856Y031436D01*
X025715Y031436D02*
X025545Y031436D01*
X025488Y031379D01*
X025488Y031152D01*
X025545Y031096D01*
X025715Y031096D01*
X025715Y031436D01*
X026083Y031436D02*
X025856Y031096D01*
X025856Y030436D02*
X026083Y030436D01*
X025970Y030436D02*
X025970Y030096D01*
X026225Y030152D02*
X026281Y030096D01*
X026395Y030096D01*
X026452Y030152D01*
X026452Y030379D01*
X026395Y030436D01*
X026281Y030436D01*
X026225Y030379D01*
X025715Y030379D02*
X025715Y030323D01*
X025658Y030266D01*
X025545Y030266D01*
X025488Y030209D01*
X025488Y030152D01*
X025545Y030096D01*
X025658Y030096D01*
X025715Y030152D01*
X025715Y030379D02*
X025658Y030436D01*
X025545Y030436D01*
X025488Y030379D01*
X025545Y029436D02*
X025488Y029379D01*
X025488Y029323D01*
X025545Y029266D01*
X025488Y029209D01*
X025488Y029152D01*
X025545Y029096D01*
X025658Y029096D01*
X025715Y029152D01*
X025856Y029209D02*
X025856Y029436D01*
X025715Y029379D02*
X025658Y029436D01*
X025545Y029436D01*
X025545Y029266D02*
X025601Y029266D01*
X025856Y029209D02*
X025970Y029096D01*
X026083Y029209D01*
X026083Y029436D01*
X026225Y029379D02*
X026225Y029323D01*
X026281Y029266D01*
X026225Y029209D01*
X026225Y029152D01*
X026281Y029096D01*
X026395Y029096D01*
X026452Y029152D01*
X026338Y029266D02*
X026281Y029266D01*
X026225Y029379D02*
X026281Y029436D01*
X026395Y029436D01*
X026452Y029379D01*
X026452Y028436D02*
X026281Y028436D01*
X026225Y028379D01*
X026225Y028266D01*
X026281Y028209D01*
X026452Y028209D01*
X026452Y028096D02*
X026452Y028436D01*
X026338Y028209D02*
X026225Y028096D01*
X026083Y028096D02*
X025856Y028436D01*
X026083Y028436D02*
X025856Y028096D01*
X025856Y027436D02*
X026083Y027096D01*
X025856Y027096D02*
X026083Y027436D01*
X026225Y027436D02*
X026452Y027436D01*
X026338Y027436D02*
X026338Y027096D01*
X026281Y026436D02*
X026225Y026379D01*
X026225Y026152D01*
X026281Y026096D01*
X026452Y026096D01*
X026452Y026436D01*
X026281Y026436D01*
X026083Y026436D02*
X025856Y026436D01*
X025970Y026436D02*
X025970Y026096D01*
X025715Y026096D02*
X025715Y026436D01*
X025545Y026436D01*
X025488Y026379D01*
X025488Y026266D01*
X025545Y026209D01*
X025715Y026209D01*
X025601Y026209D02*
X025488Y026096D01*
X026618Y022420D02*
X026732Y022420D01*
X026675Y022420D02*
X026675Y022137D01*
X026732Y022080D01*
X026789Y022080D01*
X026845Y022137D01*
X026477Y022307D02*
X026364Y022307D01*
X026420Y022364D02*
X026420Y022137D01*
X026364Y022080D01*
X026231Y022137D02*
X026175Y022193D01*
X026005Y022193D01*
X026005Y022250D02*
X026005Y022080D01*
X026175Y022080D01*
X026231Y022137D01*
X026175Y022307D02*
X026061Y022307D01*
X026005Y022250D01*
X025863Y022250D02*
X025863Y022137D01*
X025806Y022080D01*
X025636Y022080D01*
X025636Y022023D02*
X025636Y022307D01*
X025806Y022307D01*
X025863Y022250D01*
X025750Y021967D02*
X025693Y021967D01*
X025636Y022023D01*
D12*
X022485Y004727D02*
X021974Y004727D01*
X022485Y004727D02*
X022511Y004725D01*
X022536Y004720D01*
X022560Y004712D01*
X022584Y004701D01*
X022605Y004686D01*
X022624Y004669D01*
X022641Y004650D01*
X022656Y004628D01*
X022667Y004605D01*
X022675Y004581D01*
X022680Y004556D01*
X022682Y004530D01*
X022682Y004389D01*
X022682Y003211D02*
X022682Y003152D01*
X021974Y003152D01*
X021816Y003310D01*
X013982Y003310D01*
X013824Y003152D01*
X013115Y003152D01*
X013115Y003211D01*
X013115Y003152D02*
X012919Y003152D01*
X012909Y003151D01*
X012900Y003147D01*
X012891Y003141D01*
X012885Y003132D01*
X012881Y003123D01*
X012880Y003113D01*
X012879Y003113D02*
X012879Y002798D01*
X012880Y002798D02*
X012881Y002788D01*
X012885Y002778D01*
X012891Y002770D01*
X012900Y002764D01*
X012909Y002760D01*
X012919Y002759D01*
X022879Y002759D01*
X022889Y002760D01*
X022898Y002764D01*
X022907Y002770D01*
X022913Y002778D01*
X022917Y002788D01*
X022918Y002798D01*
X022919Y002798D02*
X022919Y003113D01*
X022918Y003113D02*
X022917Y003123D01*
X022913Y003132D01*
X022907Y003141D01*
X022899Y003147D01*
X022889Y003151D01*
X022879Y003152D01*
X022682Y003152D01*
X013824Y004727D02*
X013312Y004727D01*
X013286Y004725D01*
X013261Y004720D01*
X013237Y004712D01*
X013213Y004701D01*
X013192Y004686D01*
X013173Y004669D01*
X013156Y004650D01*
X013141Y004629D01*
X013130Y004605D01*
X013122Y004581D01*
X013117Y004556D01*
X013115Y004530D01*
X013115Y004389D01*
X010202Y016283D02*
X010202Y016483D01*
X010102Y016483D01*
X010068Y016449D01*
X010068Y016383D01*
X010102Y016349D01*
X010202Y016349D01*
X010135Y016349D02*
X010068Y016283D01*
X009981Y016316D02*
X009981Y016383D01*
X009947Y016416D01*
X009881Y016416D01*
X009847Y016383D01*
X009847Y016349D01*
X009981Y016349D01*
X009981Y016316D02*
X009947Y016283D01*
X009881Y016283D01*
X009760Y016283D02*
X009660Y016283D01*
X009626Y016316D01*
X009660Y016349D01*
X009726Y016349D01*
X009760Y016383D01*
X009726Y016416D01*
X009626Y016416D01*
X009539Y016383D02*
X009505Y016416D01*
X009439Y016416D01*
X009405Y016383D01*
X009405Y016349D01*
X009539Y016349D01*
X009539Y016316D02*
X009539Y016383D01*
X009539Y016316D02*
X009505Y016283D01*
X009439Y016283D01*
X009284Y016316D02*
X009251Y016283D01*
X009284Y016316D02*
X009284Y016449D01*
X009251Y016416D02*
X009318Y016416D01*
X009693Y016698D02*
X009760Y016698D01*
X009847Y016698D02*
X009881Y016664D01*
X009981Y016664D01*
X009981Y016598D02*
X009981Y016798D01*
X009881Y016798D01*
X009847Y016764D01*
X009847Y016698D01*
X009914Y016664D02*
X009847Y016598D01*
X009760Y016598D02*
X009760Y016798D01*
X009626Y016798D01*
X010068Y016764D02*
X010102Y016798D01*
X010168Y016798D01*
X010202Y016764D01*
X010202Y016731D01*
X010168Y016698D01*
X010102Y016698D01*
X010068Y016664D01*
X010068Y016631D01*
X010102Y016598D01*
X010168Y016598D01*
X010202Y016631D01*
X010616Y017621D02*
X010616Y017755D01*
X010616Y017842D02*
X010749Y017976D01*
X010749Y018063D02*
X010749Y018130D01*
X010783Y018097D02*
X010649Y018097D01*
X010616Y018130D01*
X010616Y017976D02*
X010749Y017842D01*
X010816Y017755D02*
X010816Y017621D01*
X010616Y017621D01*
X010716Y017621D02*
X010716Y017688D01*
X010816Y018431D02*
X010616Y018431D01*
X010649Y018726D02*
X010616Y018759D01*
X010616Y018826D01*
X010649Y018860D01*
X010682Y018860D01*
X010716Y018826D01*
X010716Y018793D01*
X010716Y018826D02*
X010749Y018860D01*
X010783Y018860D01*
X010816Y018826D01*
X010816Y018759D01*
X010783Y018726D01*
X010816Y018947D02*
X010682Y018947D01*
X010616Y019014D01*
X010682Y019081D01*
X010816Y019081D01*
X010783Y019168D02*
X010816Y019201D01*
X010816Y019268D01*
X010783Y019302D01*
X010749Y019302D01*
X010716Y019268D01*
X010682Y019302D01*
X010649Y019302D01*
X010616Y019268D01*
X010616Y019201D01*
X010649Y019168D01*
X010716Y019235D02*
X010716Y019268D01*
X009517Y018784D02*
X009483Y018751D01*
X009317Y018751D01*
X009417Y018717D02*
X009417Y018784D01*
X009417Y018630D02*
X009383Y018630D01*
X009383Y018496D01*
X009350Y018496D02*
X009417Y018496D01*
X009450Y018530D01*
X009450Y018596D01*
X009417Y018630D01*
X009317Y018596D02*
X009317Y018530D01*
X009350Y018496D01*
X009317Y018409D02*
X009383Y018342D01*
X009383Y018375D02*
X009383Y018275D01*
X009317Y018275D02*
X009517Y018275D01*
X009517Y018375D01*
X009483Y018409D01*
X009417Y018409D01*
X009383Y018375D01*
X009417Y018188D02*
X009417Y018054D01*
X009450Y018054D02*
X009517Y018121D01*
X009450Y018188D01*
X009317Y018188D01*
X009317Y018054D02*
X009450Y018054D01*
D13*
X024854Y019159D03*
X025207Y018983D03*
X025553Y019153D03*
X025566Y020092D03*
X024860Y020098D03*
D14*
X024955Y020148D03*
X025459Y019103D03*
X025207Y018989D03*
D15*
X025207Y018996D03*
X025093Y019556D03*
X025326Y019695D03*
D16*
X025106Y019575D03*
X025207Y020249D03*
X025207Y019002D03*
D17*
X025207Y019008D03*
D18*
X025207Y019015D03*
X025207Y020237D03*
D19*
X025207Y019021D03*
D20*
X025207Y019027D03*
X025207Y020224D03*
D21*
X025207Y019033D03*
D22*
X025207Y019040D03*
D23*
X025207Y019046D03*
D24*
X025207Y019052D03*
D25*
X025207Y019059D03*
X025207Y020193D03*
D26*
X025191Y019657D03*
X025197Y019644D03*
X025210Y019626D03*
X025216Y019613D03*
X025210Y019065D03*
D27*
X025207Y019071D03*
D28*
X025207Y019078D03*
X025207Y020174D03*
D29*
X025207Y019084D03*
D30*
X025402Y019090D03*
X025320Y019689D03*
X025011Y019090D03*
D31*
X024977Y019096D03*
X025090Y019544D03*
X024971Y020155D03*
X025443Y020155D03*
X025437Y019096D03*
D32*
X025336Y019714D03*
X025090Y019537D03*
X024958Y019103D03*
X025462Y020148D03*
D33*
X024939Y020142D03*
X025474Y019109D03*
D34*
X024942Y019109D03*
X025478Y020142D03*
D35*
X025493Y020136D03*
X025487Y019115D03*
X024926Y019115D03*
D36*
X025503Y019122D03*
X025503Y020130D03*
X024911Y020130D03*
D37*
X025336Y019726D03*
X025084Y019525D03*
X024914Y019122D03*
X025512Y019128D03*
D38*
X024904Y019128D03*
X024892Y019134D03*
X024967Y019676D03*
X024898Y020123D03*
X025515Y020123D03*
D39*
X025525Y020117D03*
X025537Y020111D03*
X025456Y019575D03*
X025525Y019134D03*
X024889Y020117D03*
D40*
X024879Y020111D03*
X025207Y020268D03*
X025547Y020104D03*
X025339Y019733D03*
X025534Y019141D03*
X024879Y019141D03*
D41*
X024870Y019147D03*
X024863Y019153D03*
X025084Y019519D03*
X024952Y019682D03*
X024870Y020104D03*
X025556Y020098D03*
X025462Y019569D03*
X025544Y019147D03*
D42*
X025563Y019159D03*
X025569Y019166D03*
X025468Y019563D03*
X025582Y020079D03*
X025575Y020085D03*
X024851Y020092D03*
X024845Y020085D03*
X024945Y019689D03*
X024838Y019172D03*
X024845Y019166D03*
D43*
X024829Y019178D03*
X024822Y019185D03*
X025081Y019512D03*
X025345Y019739D03*
X025597Y020067D03*
X025591Y020073D03*
X024835Y020079D03*
X024829Y020073D03*
X025585Y019178D03*
X025578Y019172D03*
D44*
X025594Y019185D03*
X025600Y019191D03*
X024945Y019695D03*
X024813Y020060D03*
X024819Y020067D03*
X024807Y019197D03*
X024813Y019191D03*
D45*
X024804Y019204D03*
X024785Y020035D03*
X024791Y020041D03*
X024797Y020048D03*
X024804Y020054D03*
X025604Y020060D03*
X025610Y020054D03*
X025616Y020048D03*
X025465Y019556D03*
X025622Y019210D03*
X025616Y019204D03*
X025610Y019197D03*
D46*
X025626Y019216D03*
X025638Y020029D03*
X025632Y020035D03*
X025626Y020041D03*
X024782Y020029D03*
X024775Y019229D03*
X024782Y019222D03*
X024788Y019216D03*
X024794Y019210D03*
D47*
X024772Y019235D03*
X024766Y019241D03*
X024759Y019248D03*
X024753Y019254D03*
X025081Y019506D03*
X024942Y019701D03*
X024759Y020010D03*
X024766Y020016D03*
X024772Y020022D03*
X025345Y019745D03*
X025641Y020022D03*
X025648Y020016D03*
X025654Y020010D03*
X025660Y020004D03*
X025654Y019241D03*
X025648Y019235D03*
X025641Y019229D03*
X025635Y019222D03*
D48*
X025657Y019248D03*
X025663Y019254D03*
X025670Y019260D03*
X025468Y019550D03*
X025676Y019985D03*
X025670Y019991D03*
X025663Y019997D03*
X024756Y020004D03*
X024750Y019997D03*
X024744Y019991D03*
X024744Y019985D03*
X024737Y019978D03*
X024731Y019972D03*
X024737Y019273D03*
X024744Y019267D03*
X024750Y019260D03*
D49*
X024734Y019279D03*
X024728Y019285D03*
X024728Y019292D03*
X024722Y019298D03*
X024715Y019304D03*
X024709Y019317D03*
X024709Y019941D03*
X024715Y019947D03*
X024722Y019959D03*
X024728Y019966D03*
X025679Y019978D03*
X025685Y019972D03*
X025692Y019966D03*
X025698Y019953D03*
X025704Y019311D03*
X025692Y019292D03*
X025685Y019285D03*
X025685Y019279D03*
X025679Y019273D03*
X025673Y019267D03*
D50*
X025695Y019298D03*
X025701Y019304D03*
X025708Y019317D03*
X025714Y019323D03*
X025720Y019336D03*
X025714Y019928D03*
X025708Y019941D03*
X025701Y019947D03*
X025695Y019959D03*
X024945Y019707D03*
X024681Y019890D03*
X024687Y019903D03*
X024693Y019909D03*
X024693Y019915D03*
X024700Y019922D03*
X024700Y019928D03*
X024706Y019934D03*
X024719Y019953D03*
X024687Y019355D03*
X024693Y019342D03*
X024700Y019330D03*
X024706Y019323D03*
X024712Y019311D03*
D51*
X024697Y019336D03*
X024690Y019348D03*
X024684Y019361D03*
X024678Y019367D03*
X024678Y019374D03*
X024671Y019386D03*
X024665Y019399D03*
X024659Y019840D03*
X024665Y019852D03*
X024665Y019859D03*
X024671Y019865D03*
X024671Y019871D03*
X024678Y019878D03*
X024678Y019884D03*
X024684Y019896D03*
X025465Y019544D03*
X025748Y019393D03*
X025742Y019380D03*
X025736Y019367D03*
X025736Y019361D03*
X025730Y019355D03*
X025730Y019348D03*
X025723Y019342D03*
X025717Y019330D03*
X025748Y019865D03*
X025742Y019878D03*
X025736Y019890D03*
X025730Y019896D03*
X025730Y019903D03*
X025723Y019909D03*
X025723Y019915D03*
X025717Y019922D03*
X025711Y019934D03*
D52*
X025739Y019884D03*
X025745Y019871D03*
X025752Y019859D03*
X025752Y019852D03*
X025758Y019846D03*
X025758Y019840D03*
X025764Y019827D03*
X025764Y019821D03*
X025771Y019808D03*
X025771Y019802D03*
X025777Y019783D03*
X025771Y019449D03*
X025764Y019430D03*
X025758Y019418D03*
X025758Y019411D03*
X025752Y019405D03*
X025752Y019399D03*
X025745Y019386D03*
X025739Y019374D03*
X025348Y019752D03*
X024945Y019714D03*
X024649Y019808D03*
X024649Y019815D03*
X024649Y019821D03*
X024656Y019827D03*
X024656Y019833D03*
X024662Y019846D03*
X024643Y019802D03*
X024643Y019796D03*
X024643Y019789D03*
X024637Y019777D03*
X024637Y019770D03*
X024630Y019745D03*
X024630Y019512D03*
X024637Y019487D03*
X024637Y019481D03*
X024643Y019462D03*
X024643Y019456D03*
X024649Y019449D03*
X024649Y019443D03*
X024649Y019437D03*
X024656Y019430D03*
X024656Y019424D03*
X024656Y019418D03*
X024662Y019411D03*
X024662Y019405D03*
X024668Y019393D03*
X024674Y019380D03*
D53*
X024640Y019468D03*
X024640Y019474D03*
X024634Y019493D03*
X024634Y019500D03*
X024634Y019506D03*
X024627Y019519D03*
X024627Y019525D03*
X024627Y019531D03*
X024627Y019537D03*
X024627Y019544D03*
X024621Y019556D03*
X024621Y019563D03*
X024621Y019569D03*
X024621Y019575D03*
X024621Y019581D03*
X024621Y019588D03*
X024621Y019594D03*
X024621Y019600D03*
X024621Y019607D03*
X024621Y019613D03*
X024621Y019644D03*
X024621Y019651D03*
X024621Y019657D03*
X024621Y019663D03*
X024621Y019670D03*
X024621Y019676D03*
X024621Y019682D03*
X024621Y019689D03*
X024621Y019695D03*
X024621Y019701D03*
X024627Y019714D03*
X024627Y019720D03*
X024627Y019726D03*
X024627Y019733D03*
X024627Y019739D03*
X024634Y019752D03*
X024634Y019758D03*
X024634Y019764D03*
X024640Y019783D03*
X025081Y019500D03*
X025465Y019537D03*
X025774Y019468D03*
X025774Y019462D03*
X025774Y019456D03*
X025767Y019443D03*
X025767Y019437D03*
X025761Y019424D03*
X025780Y019474D03*
X025780Y019481D03*
X025780Y019487D03*
X025780Y019493D03*
X025786Y019500D03*
X025786Y019506D03*
X025786Y019512D03*
X025786Y019519D03*
X025793Y019537D03*
X025793Y019544D03*
X025793Y019550D03*
X025793Y019701D03*
X025793Y019707D03*
X025793Y019714D03*
X025786Y019739D03*
X025786Y019745D03*
X025786Y019752D03*
X025780Y019764D03*
X025780Y019770D03*
X025780Y019777D03*
X025774Y019789D03*
X025774Y019796D03*
X025767Y019815D03*
X025761Y019833D03*
D54*
X025449Y019493D03*
X024964Y019764D03*
D55*
X025081Y019493D03*
X025345Y019758D03*
D56*
X025452Y019500D03*
D57*
X025452Y019506D03*
D58*
X025456Y019512D03*
D59*
X025459Y019519D03*
X024955Y019739D03*
D60*
X024624Y019707D03*
X024618Y019638D03*
X024618Y019632D03*
X024618Y019626D03*
X024618Y019619D03*
X024624Y019550D03*
X025789Y019531D03*
X025789Y019525D03*
X025796Y019556D03*
X025796Y019563D03*
X025796Y019569D03*
X025796Y019575D03*
X025796Y019581D03*
X025796Y019588D03*
X025796Y019594D03*
X025796Y019600D03*
X025796Y019607D03*
X025796Y019613D03*
X025796Y019619D03*
X025796Y019626D03*
X025796Y019632D03*
X025796Y019638D03*
X025796Y019644D03*
X025796Y019651D03*
X025796Y019657D03*
X025796Y019663D03*
X025796Y019670D03*
X025796Y019676D03*
X025796Y019682D03*
X025796Y019689D03*
X025796Y019695D03*
X025789Y019720D03*
X025789Y019726D03*
X025789Y019733D03*
X025783Y019758D03*
D61*
X025462Y019525D03*
D62*
X025462Y019531D03*
D63*
X025339Y019720D03*
X025087Y019531D03*
X024923Y020136D03*
D64*
X025330Y019701D03*
X025090Y019550D03*
D65*
X025100Y019563D03*
X025207Y020256D03*
D66*
X025103Y019569D03*
D67*
X025229Y019594D03*
X025235Y019581D03*
D68*
X025232Y019588D03*
X025226Y019600D03*
X025219Y019607D03*
X025213Y019619D03*
X025207Y019632D03*
X025200Y019638D03*
X025194Y019651D03*
X025188Y019663D03*
X025182Y019670D03*
D69*
X025304Y019676D03*
D70*
X025317Y019682D03*
D71*
X025333Y019707D03*
X025207Y020262D03*
D72*
X024948Y019720D03*
D73*
X024948Y019726D03*
D74*
X024952Y019733D03*
D75*
X024958Y019745D03*
D76*
X024958Y019752D03*
D77*
X024961Y019758D03*
D78*
X025002Y020161D03*
X025411Y020161D03*
D79*
X025207Y020167D03*
D80*
X025207Y020180D03*
D81*
X025207Y020186D03*
D82*
X025210Y020199D03*
D83*
X025207Y020205D03*
D84*
X025207Y020211D03*
D85*
X025210Y020218D03*
D86*
X025207Y020230D03*
D87*
X025210Y020243D03*
D88*
X025210Y020879D03*
D89*
X025210Y018378D03*
D90*
X017427Y028349D02*
X017429Y028379D01*
X017435Y028409D01*
X017444Y028438D01*
X017457Y028465D01*
X017474Y028490D01*
X017493Y028513D01*
X017516Y028534D01*
X017541Y028551D01*
X017567Y028565D01*
X017596Y028575D01*
X017625Y028582D01*
X017655Y028585D01*
X017686Y028584D01*
X017716Y028579D01*
X017745Y028570D01*
X017772Y028558D01*
X017798Y028543D01*
X017822Y028524D01*
X017843Y028502D01*
X017861Y028478D01*
X017876Y028451D01*
X017887Y028423D01*
X017895Y028394D01*
X017899Y028364D01*
X017899Y028334D01*
X017895Y028304D01*
X017887Y028275D01*
X017876Y028247D01*
X017861Y028220D01*
X017843Y028196D01*
X017822Y028174D01*
X017798Y028155D01*
X017772Y028140D01*
X017745Y028128D01*
X017716Y028119D01*
X017686Y028114D01*
X017655Y028113D01*
X017625Y028116D01*
X017596Y028123D01*
X017567Y028133D01*
X017541Y028147D01*
X017516Y028164D01*
X017493Y028185D01*
X017474Y028208D01*
X017457Y028233D01*
X017444Y028260D01*
X017435Y028289D01*
X017429Y028319D01*
X017427Y028349D01*
D91*
X003873Y004146D02*
X003873Y004087D01*
X005448Y004087D01*
X005448Y004294D01*
X005448Y005475D01*
X005448Y005682D01*
X003873Y005682D01*
X003873Y005623D01*
X003873Y004146D01*
X005891Y007680D02*
X005891Y008310D01*
X005897Y008328D01*
X005906Y008346D01*
X005918Y008361D01*
X005934Y008373D01*
X005951Y008382D01*
X005970Y008388D01*
X005989Y008390D01*
X006009Y008388D01*
X006560Y008388D02*
X006578Y008390D01*
X006595Y008389D01*
X006612Y008385D01*
X006628Y008378D01*
X006643Y008368D01*
X006655Y008356D01*
X006665Y008342D01*
X006673Y008326D01*
X006678Y008310D01*
X006678Y007680D01*
X006678Y008310D01*
X006679Y008310D02*
X006685Y008328D01*
X006694Y008346D01*
X006706Y008361D01*
X006722Y008373D01*
X006739Y008382D01*
X006758Y008388D01*
X006777Y008390D01*
X006797Y008388D01*
X007347Y008388D02*
X007365Y008390D01*
X007382Y008389D01*
X007399Y008385D01*
X007415Y008378D01*
X007430Y008368D01*
X007442Y008356D01*
X007452Y008342D01*
X007460Y008326D01*
X007465Y008310D01*
X007466Y008310D02*
X007466Y007680D01*
X007465Y007680D02*
X007460Y007664D01*
X007452Y007648D01*
X007442Y007634D01*
X007430Y007622D01*
X007415Y007612D01*
X007399Y007605D01*
X007382Y007601D01*
X007365Y007600D01*
X007347Y007602D01*
X006797Y007602D02*
X006777Y007600D01*
X006758Y007602D01*
X006739Y007608D01*
X006722Y007617D01*
X006706Y007629D01*
X006694Y007644D01*
X006685Y007662D01*
X006679Y007680D01*
X006678Y007680D02*
X006673Y007664D01*
X006665Y007648D01*
X006655Y007634D01*
X006643Y007622D01*
X006628Y007612D01*
X006612Y007605D01*
X006595Y007601D01*
X006578Y007600D01*
X006560Y007602D01*
X006009Y007602D02*
X005989Y007600D01*
X005970Y007602D01*
X005951Y007608D01*
X005934Y007617D01*
X005918Y007629D01*
X005906Y007644D01*
X005897Y007662D01*
X005891Y007680D01*
X003385Y017637D02*
X002885Y017637D01*
X002635Y017887D01*
X002635Y018387D01*
X002885Y018637D01*
X002635Y018887D01*
X002635Y019387D01*
X002885Y019637D01*
X003385Y019637D01*
X003635Y019387D01*
X003635Y018887D01*
X003385Y018637D01*
X003635Y018387D01*
X003635Y017887D01*
X003385Y017637D01*
X007058Y023534D02*
X006808Y023784D01*
X006808Y024284D01*
X007058Y024534D01*
X006808Y024784D01*
X006808Y025284D01*
X007058Y025534D01*
X006808Y025784D01*
X006808Y026284D01*
X007058Y026534D01*
X006808Y026784D01*
X006808Y027284D01*
X007058Y027534D01*
X007558Y027534D01*
X007808Y027284D01*
X007808Y026784D01*
X007558Y026534D01*
X007808Y026284D01*
X007808Y025784D01*
X007558Y025534D01*
X007808Y025284D01*
X007808Y024784D01*
X007558Y024534D01*
X007808Y024284D01*
X007808Y023784D01*
X007558Y023534D01*
X007058Y023534D01*
X008355Y029706D02*
X008357Y029721D01*
X008363Y029734D01*
X008372Y029746D01*
X008383Y029755D01*
X008397Y029761D01*
X008412Y029763D01*
X008427Y029761D01*
X008440Y029755D01*
X008452Y029746D01*
X008461Y029735D01*
X008467Y029721D01*
X008469Y029706D01*
X008467Y029691D01*
X008461Y029678D01*
X008452Y029666D01*
X008441Y029657D01*
X008427Y029651D01*
X008412Y029649D01*
X008397Y029651D01*
X008384Y029657D01*
X008372Y029666D01*
X008363Y029677D01*
X008357Y029691D01*
X008355Y029706D01*
X006935Y032386D02*
X006937Y032401D01*
X006943Y032414D01*
X006952Y032426D01*
X006963Y032435D01*
X006977Y032441D01*
X006992Y032443D01*
X007007Y032441D01*
X007020Y032435D01*
X007032Y032426D01*
X007041Y032415D01*
X007047Y032401D01*
X007049Y032386D01*
X007047Y032371D01*
X007041Y032358D01*
X007032Y032346D01*
X007021Y032337D01*
X007007Y032331D01*
X006992Y032329D01*
X006977Y032331D01*
X006964Y032337D01*
X006952Y032346D01*
X006943Y032357D01*
X006937Y032371D01*
X006935Y032386D01*
X005694Y034048D02*
X010222Y034048D01*
X010222Y038270D02*
X010222Y039776D01*
X004198Y039776D01*
X003529Y039058D02*
X003529Y038270D01*
X004178Y038270D01*
X004179Y038271D02*
X004252Y038159D01*
X004321Y038044D01*
X004383Y037925D01*
X004440Y037803D01*
X004490Y037679D01*
X004535Y037553D01*
X004573Y037425D01*
X004605Y037294D01*
X004631Y037163D01*
X004651Y037030D01*
X004664Y036897D01*
X004670Y036763D01*
X004670Y036629D01*
X004664Y036495D01*
X004651Y036362D01*
X004631Y036229D01*
X004605Y036098D01*
X004573Y035967D01*
X004535Y035839D01*
X004490Y035713D01*
X004440Y035589D01*
X004383Y035467D01*
X004321Y035348D01*
X004252Y035233D01*
X004179Y035121D01*
X004178Y035121D02*
X003922Y035121D01*
X003922Y034727D01*
X004552Y034048D02*
X004946Y034048D01*
X017873Y037768D02*
X017873Y038418D01*
X017875Y038435D01*
X017879Y038452D01*
X017886Y038468D01*
X017896Y038482D01*
X017909Y038495D01*
X017923Y038505D01*
X017939Y038512D01*
X017956Y038516D01*
X017973Y038518D01*
X017873Y037768D02*
X017875Y037751D01*
X017879Y037734D01*
X017886Y037718D01*
X017896Y037704D01*
X017909Y037691D01*
X017923Y037681D01*
X017939Y037674D01*
X017956Y037670D01*
X017973Y037668D01*
X018573Y037668D02*
X018590Y037670D01*
X018607Y037674D01*
X018623Y037681D01*
X018637Y037691D01*
X018650Y037704D01*
X018660Y037718D01*
X018667Y037734D01*
X018671Y037751D01*
X018673Y037768D01*
X018673Y038418D01*
X018671Y038435D01*
X018667Y038452D01*
X018660Y038468D01*
X018650Y038482D01*
X018637Y038495D01*
X018623Y038505D01*
X018607Y038512D01*
X018590Y038516D01*
X018573Y038518D01*
X024041Y034648D02*
X024671Y034648D01*
X024687Y034643D01*
X024703Y034635D01*
X024717Y034625D01*
X024729Y034613D01*
X024739Y034598D01*
X024746Y034582D01*
X024750Y034565D01*
X024751Y034548D01*
X024749Y034530D01*
X024749Y033979D02*
X024751Y033961D01*
X024750Y033944D01*
X024746Y033927D01*
X024739Y033911D01*
X024729Y033896D01*
X024717Y033884D01*
X024703Y033874D01*
X024687Y033866D01*
X024671Y033861D01*
X024041Y033861D01*
X024040Y033861D02*
X024024Y033866D01*
X024008Y033874D01*
X023994Y033884D01*
X023982Y033896D01*
X023972Y033911D01*
X023965Y033927D01*
X023961Y033944D01*
X023960Y033961D01*
X023962Y033979D01*
X023962Y034530D02*
X023960Y034548D01*
X023961Y034565D01*
X023965Y034582D01*
X023972Y034598D01*
X023982Y034613D01*
X023994Y034625D01*
X024008Y034635D01*
X024024Y034643D01*
X024040Y034648D01*
X024970Y033837D02*
X024970Y032625D01*
X025482Y032231D02*
X026458Y032231D01*
X026970Y032625D02*
X026970Y033837D01*
X026458Y034231D02*
X025470Y034231D01*
X025470Y033231D02*
X025472Y033275D01*
X025478Y033319D01*
X025488Y033362D01*
X025501Y033404D01*
X025518Y033445D01*
X025539Y033484D01*
X025563Y033521D01*
X025590Y033556D01*
X025620Y033588D01*
X025653Y033618D01*
X025689Y033644D01*
X025726Y033668D01*
X025766Y033687D01*
X025807Y033704D01*
X025850Y033716D01*
X025893Y033725D01*
X025937Y033730D01*
X025981Y033731D01*
X026025Y033728D01*
X026069Y033721D01*
X026112Y033710D01*
X026154Y033696D01*
X026194Y033678D01*
X026233Y033656D01*
X026269Y033632D01*
X026303Y033604D01*
X026335Y033573D01*
X026364Y033539D01*
X026390Y033503D01*
X026412Y033465D01*
X026431Y033425D01*
X026446Y033383D01*
X026458Y033341D01*
X026466Y033297D01*
X026470Y033253D01*
X026470Y033209D01*
X026466Y033165D01*
X026458Y033121D01*
X026446Y033079D01*
X026431Y033037D01*
X026412Y032997D01*
X026390Y032959D01*
X026364Y032923D01*
X026335Y032889D01*
X026303Y032858D01*
X026269Y032830D01*
X026233Y032806D01*
X026194Y032784D01*
X026154Y032766D01*
X026112Y032752D01*
X026069Y032741D01*
X026025Y032734D01*
X025981Y032731D01*
X025937Y032732D01*
X025893Y032737D01*
X025850Y032746D01*
X025807Y032758D01*
X025766Y032775D01*
X025726Y032794D01*
X025689Y032818D01*
X025653Y032844D01*
X025620Y032874D01*
X025590Y032906D01*
X025563Y032941D01*
X025539Y032978D01*
X025518Y033017D01*
X025501Y033058D01*
X025488Y033100D01*
X025478Y033143D01*
X025472Y033187D01*
X025470Y033231D01*
X026901Y031723D02*
X026651Y031473D01*
X026651Y030973D01*
X026901Y030723D01*
X026651Y030473D01*
X026651Y029973D01*
X026901Y029723D01*
X026651Y029473D01*
X026651Y028973D01*
X026901Y028723D01*
X026651Y028473D01*
X026651Y027973D01*
X026901Y027723D01*
X026651Y027473D01*
X026651Y026973D01*
X026901Y026723D01*
X026651Y026473D01*
X026651Y025973D01*
X026901Y025723D01*
X027401Y025723D01*
X027651Y025973D01*
X027651Y026473D01*
X027401Y026723D01*
X027651Y026973D01*
X027651Y027473D01*
X027401Y027723D01*
X027651Y027973D01*
X027651Y028473D01*
X027401Y028723D01*
X027651Y028973D01*
X027651Y029473D01*
X027401Y029723D01*
X027651Y029973D01*
X027651Y030473D01*
X027401Y030723D01*
X027651Y030973D01*
X027651Y031473D01*
X027401Y031723D01*
X026901Y031723D01*
X017505Y014452D02*
X017348Y014452D01*
X017505Y014452D02*
X017505Y014294D01*
X017505Y013349D02*
X017348Y013192D01*
X016403Y013192D02*
X016245Y013192D01*
X016245Y013349D01*
X016245Y014294D02*
X016245Y014452D01*
X016403Y014452D01*
X025251Y003474D02*
X025901Y003474D01*
X025918Y003472D01*
X025935Y003468D01*
X025951Y003461D01*
X025965Y003451D01*
X025978Y003438D01*
X025988Y003424D01*
X025995Y003408D01*
X025999Y003391D01*
X026001Y003374D01*
X026001Y002774D02*
X025999Y002757D01*
X025995Y002740D01*
X025988Y002724D01*
X025978Y002710D01*
X025965Y002697D01*
X025951Y002687D01*
X025935Y002680D01*
X025918Y002676D01*
X025901Y002674D01*
X025251Y002674D01*
X025234Y002676D01*
X025217Y002680D01*
X025201Y002687D01*
X025187Y002697D01*
X025174Y002710D01*
X025164Y002724D01*
X025157Y002740D01*
X025153Y002757D01*
X025151Y002774D01*
X025151Y003374D02*
X025153Y003391D01*
X025157Y003408D01*
X025164Y003424D01*
X025174Y003438D01*
X025187Y003451D01*
X025201Y003461D01*
X025217Y003468D01*
X025234Y003472D01*
X025251Y003474D01*
D92*
X024789Y008861D02*
X024631Y008861D01*
X024631Y012089D02*
X024789Y012089D01*
X008312Y004432D02*
X008312Y004255D01*
X008312Y004432D02*
X008135Y004432D01*
X007190Y004432D02*
X007013Y004432D01*
X007013Y004255D01*
X007013Y002916D02*
X007013Y002837D01*
X007111Y002837D01*
X007111Y002739D01*
X007013Y002739D01*
X007013Y002837D01*
X007111Y002739D02*
X007190Y002739D01*
X008155Y002739D02*
X008312Y002739D01*
X008312Y002916D01*
D93*
X005448Y004294D02*
X005202Y004294D01*
X005202Y004097D01*
X005202Y004540D02*
X005399Y004540D01*
X005202Y004540D02*
X005202Y004737D01*
X005399Y004737D01*
X005399Y005032D02*
X005202Y005032D01*
X005202Y005229D01*
X005399Y005229D01*
X005448Y005475D02*
X005202Y005475D01*
X005202Y005672D01*
X004513Y005377D02*
X004513Y004393D01*
X004267Y004393D01*
X004267Y004294D01*
X004021Y004294D01*
X003873Y004146D01*
X004021Y004294D02*
X004021Y005475D01*
X003873Y005623D01*
X004021Y005475D02*
X004267Y005475D01*
X004267Y005377D01*
X004513Y005377D01*
X004267Y005475D02*
X004267Y005672D01*
X004267Y004294D02*
X004267Y004097D01*
D94*
X004341Y004639D03*
X004341Y005131D03*
D95*
X005002Y008276D03*
X005002Y008777D03*
X003426Y008777D03*
X003426Y008276D03*
D96*
X003226Y008480D03*
X003226Y008485D03*
X003231Y008501D03*
X003231Y008506D03*
X003231Y008511D03*
X003231Y008516D03*
X003231Y008521D03*
X003231Y008526D03*
X003231Y008531D03*
X003231Y008537D03*
X003231Y008542D03*
X003231Y008547D03*
X003231Y008552D03*
X003226Y008567D03*
X003226Y008572D03*
X003687Y008572D03*
X003687Y008567D03*
X003692Y008552D03*
X003692Y008547D03*
X003692Y008542D03*
X003692Y008537D03*
X003692Y008531D03*
X003692Y008526D03*
X003692Y008521D03*
X003692Y008516D03*
X003692Y008511D03*
X003692Y008506D03*
X003692Y008501D03*
X003687Y008485D03*
X003687Y008480D03*
X004158Y008465D03*
X004158Y008460D03*
X004158Y008455D03*
X004158Y008450D03*
X004158Y008444D03*
X004158Y008439D03*
X004158Y008434D03*
X004158Y008429D03*
X004158Y008424D03*
X004158Y008419D03*
X004158Y008414D03*
X004158Y008409D03*
X004158Y008404D03*
X004158Y008398D03*
X004158Y008393D03*
X004306Y008419D03*
X004306Y008424D03*
X004306Y008429D03*
X004306Y008434D03*
X004306Y008439D03*
X004158Y008588D03*
X004158Y008593D03*
X004158Y008598D03*
X004158Y008603D03*
X004158Y008608D03*
X004158Y008613D03*
X004158Y008619D03*
X004158Y008624D03*
X004158Y008629D03*
X004158Y008634D03*
X004158Y008639D03*
X004158Y008644D03*
X004158Y008649D03*
X004158Y008654D03*
X004158Y008659D03*
X004659Y008634D03*
X004659Y008629D03*
X004659Y008624D03*
X004659Y008619D03*
X004659Y008613D03*
X004802Y008613D03*
X004802Y008608D03*
X004802Y008603D03*
X004802Y008598D03*
X004802Y008593D03*
X004802Y008588D03*
X004802Y008583D03*
X004802Y008578D03*
X004802Y008572D03*
X004802Y008567D03*
X004802Y008562D03*
X004802Y008557D03*
X004802Y008552D03*
X004802Y008547D03*
X004802Y008542D03*
X004802Y008537D03*
X004802Y008531D03*
X004802Y008526D03*
X004802Y008521D03*
X004802Y008516D03*
X004802Y008511D03*
X004802Y008506D03*
X004802Y008501D03*
X004802Y008496D03*
X004802Y008491D03*
X004802Y008485D03*
X004802Y008480D03*
X004802Y008475D03*
X004802Y008470D03*
X004802Y008465D03*
X004802Y008460D03*
X004802Y008455D03*
X004802Y008450D03*
X004802Y008444D03*
X004802Y008439D03*
X004802Y008434D03*
X004802Y008429D03*
X004802Y008424D03*
X004802Y008419D03*
X004802Y008414D03*
X004802Y008409D03*
X004802Y008404D03*
X004802Y008398D03*
X004802Y008393D03*
X004802Y008388D03*
X004802Y008383D03*
X004802Y008378D03*
X004802Y008373D03*
X004802Y008368D03*
X004802Y008363D03*
X004802Y008357D03*
X004802Y008352D03*
X004802Y008347D03*
X004802Y008342D03*
X004802Y008337D03*
X004802Y008332D03*
X004802Y008327D03*
X004802Y008322D03*
X004802Y008317D03*
X004802Y008311D03*
X004802Y008306D03*
X004802Y008301D03*
X004802Y008296D03*
X004802Y008291D03*
X004802Y008286D03*
X004802Y008281D03*
X004802Y008276D03*
X004802Y008619D03*
X004802Y008624D03*
X004802Y008629D03*
X004802Y008634D03*
X004802Y008639D03*
X004802Y008644D03*
X004802Y008649D03*
X004802Y008654D03*
X004802Y008659D03*
X004802Y008665D03*
X004802Y008670D03*
X004802Y008675D03*
X004802Y008680D03*
X004802Y008685D03*
X004802Y008690D03*
X004802Y008695D03*
X004802Y008700D03*
X004802Y008706D03*
X004802Y008711D03*
X004802Y008716D03*
X004802Y008721D03*
X004802Y008726D03*
X004802Y008731D03*
X004802Y008736D03*
X004802Y008741D03*
X004802Y008746D03*
X004802Y008752D03*
X004802Y008757D03*
X004802Y008762D03*
X004802Y008767D03*
X004802Y008772D03*
X004802Y008777D03*
X005263Y008572D03*
X005263Y008567D03*
X005268Y008552D03*
X005268Y008547D03*
X005268Y008542D03*
X005268Y008537D03*
X005268Y008531D03*
X005268Y008526D03*
X005268Y008521D03*
X005268Y008516D03*
X005268Y008511D03*
X005268Y008506D03*
X005268Y008501D03*
X005263Y008485D03*
X005263Y008480D03*
X002847Y008480D03*
X002847Y008485D03*
X002842Y008501D03*
X002842Y008506D03*
X002842Y008511D03*
X002842Y008516D03*
X002842Y008521D03*
X002842Y008526D03*
X002842Y008531D03*
X002842Y008537D03*
X002842Y008542D03*
X002842Y008547D03*
X002842Y008552D03*
X002847Y008567D03*
X002847Y008572D03*
D97*
X003037Y008711D03*
X003037Y008342D03*
X003487Y008332D03*
X003487Y008721D03*
X004419Y008777D03*
X004547Y008276D03*
X005063Y008332D03*
X005063Y008721D03*
D98*
X004465Y008721D03*
X004465Y008726D03*
X004500Y008332D03*
X004500Y008327D03*
X003999Y008327D03*
X003999Y008332D03*
X003999Y008337D03*
X003999Y008342D03*
X003999Y008347D03*
X003999Y008352D03*
X003999Y008357D03*
X003999Y008363D03*
X003999Y008368D03*
X003999Y008373D03*
X003999Y008378D03*
X003999Y008383D03*
X003999Y008388D03*
X003999Y008322D03*
X003999Y008317D03*
X003999Y008311D03*
X003999Y008306D03*
X003999Y008301D03*
X003999Y008296D03*
X003999Y008291D03*
X003999Y008286D03*
X003999Y008281D03*
X003999Y008276D03*
X003999Y008665D03*
X003999Y008670D03*
X003999Y008675D03*
X003999Y008680D03*
X003999Y008685D03*
X003999Y008690D03*
X003999Y008695D03*
X003999Y008700D03*
X003999Y008706D03*
X003999Y008711D03*
X003999Y008716D03*
X003999Y008721D03*
X003999Y008726D03*
X003999Y008731D03*
X003999Y008736D03*
X003999Y008741D03*
X003999Y008746D03*
X003999Y008752D03*
X003999Y008757D03*
X003999Y008762D03*
X003999Y008767D03*
X003999Y008772D03*
X003999Y008777D03*
D99*
X003037Y008777D03*
X003037Y008276D03*
D100*
X003438Y008281D03*
X003438Y008772D03*
X005015Y008772D03*
X005015Y008281D03*
D101*
X005074Y008352D03*
X005074Y008700D03*
X004429Y008772D03*
X004035Y008583D03*
X004035Y008578D03*
X004035Y008572D03*
X004035Y008567D03*
X004035Y008562D03*
X004035Y008557D03*
X004035Y008552D03*
X004035Y008547D03*
X004035Y008542D03*
X004035Y008537D03*
X004035Y008531D03*
X004035Y008526D03*
X004035Y008521D03*
X004035Y008516D03*
X004035Y008511D03*
X004035Y008506D03*
X004035Y008501D03*
X004035Y008496D03*
X004035Y008491D03*
X004035Y008485D03*
X004035Y008480D03*
X004035Y008475D03*
X004035Y008470D03*
X004536Y008281D03*
X003497Y008352D03*
X003497Y008700D03*
X003037Y008700D03*
X003037Y008706D03*
X003037Y008352D03*
X003037Y008347D03*
D102*
X003037Y008281D03*
X003211Y008444D03*
X003216Y008455D03*
X003221Y008465D03*
X003221Y008588D03*
X003216Y008598D03*
X003211Y008608D03*
X003037Y008772D03*
X002863Y008608D03*
X002858Y008598D03*
X002852Y008588D03*
X002852Y008465D03*
X002858Y008455D03*
X002863Y008444D03*
X003671Y008444D03*
X003676Y008455D03*
X003682Y008465D03*
X003682Y008588D03*
X003676Y008598D03*
X003671Y008608D03*
X004311Y008455D03*
X004316Y008460D03*
X004311Y008404D03*
X004316Y008398D03*
X004649Y008593D03*
X004654Y008598D03*
X004654Y008649D03*
X004649Y008654D03*
X005248Y008608D03*
X005253Y008598D03*
X005258Y008588D03*
X005258Y008465D03*
X005253Y008455D03*
X005248Y008444D03*
D103*
X005022Y008286D03*
X005022Y008767D03*
X003446Y008767D03*
X003446Y008286D03*
D104*
X003505Y008368D03*
X003505Y008685D03*
X004436Y008767D03*
X004518Y008567D03*
X004447Y008485D03*
X004529Y008286D03*
X005081Y008368D03*
X005081Y008685D03*
D105*
X003037Y008767D03*
X003037Y008286D03*
D106*
X003454Y008291D03*
X003454Y008762D03*
X005030Y008762D03*
X005030Y008291D03*
D107*
X005086Y008378D03*
X005086Y008383D03*
X005086Y008670D03*
X005086Y008675D03*
X004513Y008562D03*
X004508Y008557D03*
X004457Y008496D03*
X004452Y008491D03*
X004523Y008291D03*
X004442Y008762D03*
X003510Y008675D03*
X003510Y008670D03*
X003510Y008383D03*
X003510Y008378D03*
D108*
X003620Y008393D03*
X003620Y008659D03*
X003159Y008659D03*
X003037Y008762D03*
X002914Y008659D03*
X002914Y008393D03*
X003037Y008291D03*
X003159Y008393D03*
X005197Y008393D03*
X005197Y008659D03*
D109*
X005035Y008757D03*
X005035Y008296D03*
X003459Y008296D03*
X003459Y008757D03*
D110*
X004447Y008757D03*
X004498Y008547D03*
X004483Y008526D03*
X004467Y008506D03*
X004518Y008296D03*
D111*
X003037Y008296D03*
X003037Y008757D03*
D112*
X003464Y008752D03*
X003464Y008301D03*
X005040Y008301D03*
X005040Y008752D03*
D113*
X004495Y008542D03*
X004490Y008537D03*
X004485Y008531D03*
X004480Y008521D03*
X004475Y008516D03*
X004470Y008511D03*
X004516Y008301D03*
X004449Y008752D03*
X003037Y008680D03*
X003037Y008373D03*
D114*
X003037Y008301D03*
X003037Y008752D03*
D115*
X003469Y008746D03*
X003469Y008306D03*
X005046Y008306D03*
X005046Y008746D03*
D116*
X004452Y008746D03*
X004513Y008306D03*
D117*
X003037Y008306D03*
X003037Y008746D03*
D118*
X003474Y008741D03*
X003474Y008311D03*
X005051Y008311D03*
X005051Y008741D03*
D119*
X004457Y008741D03*
X004508Y008311D03*
D120*
X003037Y008311D03*
X003037Y008741D03*
D121*
X003037Y008721D03*
X003037Y008332D03*
X003477Y008317D03*
X003477Y008736D03*
X005053Y008736D03*
X005053Y008317D03*
D122*
X004506Y008317D03*
X004459Y008736D03*
X003037Y008665D03*
X003037Y008388D03*
D123*
X003037Y008317D03*
X003037Y008736D03*
D124*
X003037Y008716D03*
X003037Y008337D03*
X003482Y008322D03*
X003482Y008731D03*
X005058Y008731D03*
X005058Y008322D03*
D125*
X004503Y008322D03*
X004462Y008731D03*
D126*
X003037Y008731D03*
X003037Y008322D03*
D127*
X003484Y008327D03*
X003484Y008726D03*
X004421Y008470D03*
X004544Y008583D03*
X005061Y008726D03*
X005061Y008327D03*
D128*
X003037Y008327D03*
X003037Y008726D03*
D129*
X003490Y008716D03*
X003490Y008337D03*
X005066Y008337D03*
X005066Y008716D03*
D130*
X004467Y008716D03*
X004498Y008337D03*
D131*
X005069Y008342D03*
X005069Y008711D03*
X003492Y008711D03*
X003492Y008342D03*
D132*
X004495Y008342D03*
X004470Y008711D03*
D133*
X004534Y008578D03*
X004431Y008475D03*
X005071Y008347D03*
X005071Y008706D03*
X003495Y008706D03*
X003495Y008347D03*
D134*
X004493Y008347D03*
X004493Y008352D03*
X004472Y008700D03*
X004472Y008706D03*
D135*
X004523Y008572D03*
X004442Y008480D03*
X005076Y008357D03*
X005076Y008695D03*
X003500Y008695D03*
X003500Y008357D03*
D136*
X004490Y008357D03*
X004490Y008363D03*
X004475Y008690D03*
X004475Y008695D03*
D137*
X005079Y008690D03*
X005079Y008363D03*
X003502Y008363D03*
X003502Y008690D03*
X003037Y008695D03*
X003037Y008357D03*
D138*
X003037Y008363D03*
X003037Y008690D03*
X003508Y008680D03*
X003508Y008373D03*
X005084Y008373D03*
X005084Y008680D03*
D139*
X004477Y008680D03*
X004477Y008685D03*
X004477Y008675D03*
X004488Y008378D03*
X004488Y008373D03*
X004488Y008368D03*
D140*
X004459Y008501D03*
X004506Y008552D03*
X005089Y008665D03*
X005089Y008388D03*
X003513Y008388D03*
X003513Y008665D03*
X003037Y008685D03*
X003037Y008368D03*
D141*
X003037Y008378D03*
X003037Y008383D03*
X003037Y008670D03*
X003037Y008675D03*
D142*
X004480Y008670D03*
X004480Y008665D03*
X004485Y008388D03*
X004485Y008383D03*
D143*
X004321Y008393D03*
X004321Y008465D03*
X004644Y008588D03*
X004644Y008659D03*
X005237Y008624D03*
X005243Y008619D03*
X005243Y008434D03*
X005237Y008429D03*
X003666Y008434D03*
X003661Y008429D03*
X003666Y008619D03*
X003661Y008624D03*
X003206Y008619D03*
X003200Y008624D03*
X003206Y008434D03*
X003200Y008429D03*
X002873Y008429D03*
X002868Y008434D03*
X002868Y008619D03*
X002873Y008624D03*
D144*
X003167Y008654D03*
X003167Y008398D03*
X003628Y008398D03*
X003628Y008654D03*
X005204Y008654D03*
X005204Y008398D03*
D145*
X002904Y008398D03*
X002904Y008654D03*
D146*
X002896Y008649D03*
X002896Y008404D03*
X003177Y008404D03*
X003177Y008649D03*
X003638Y008649D03*
X003638Y008404D03*
X005214Y008404D03*
X005214Y008649D03*
D147*
X005220Y008644D03*
X005225Y008639D03*
X005225Y008414D03*
X005220Y008409D03*
X003648Y008414D03*
X003643Y008409D03*
X003648Y008639D03*
X003643Y008644D03*
X003188Y008639D03*
X003183Y008644D03*
X003188Y008414D03*
X003183Y008409D03*
X002891Y008409D03*
X002886Y008414D03*
X002886Y008639D03*
X002891Y008644D03*
D148*
X002855Y008593D03*
X002850Y008583D03*
X002850Y008578D03*
X002845Y008562D03*
X002845Y008557D03*
X002845Y008496D03*
X002845Y008491D03*
X002850Y008475D03*
X002850Y008470D03*
X002855Y008460D03*
X003218Y008460D03*
X003223Y008470D03*
X003223Y008475D03*
X003229Y008491D03*
X003229Y008496D03*
X003229Y008557D03*
X003229Y008562D03*
X003223Y008578D03*
X003223Y008583D03*
X003218Y008593D03*
X003679Y008593D03*
X003684Y008583D03*
X003684Y008578D03*
X003689Y008562D03*
X003689Y008557D03*
X003689Y008496D03*
X003689Y008491D03*
X003684Y008475D03*
X003684Y008470D03*
X003679Y008460D03*
X004309Y008450D03*
X004309Y008444D03*
X004309Y008414D03*
X004309Y008409D03*
X004657Y008603D03*
X004657Y008608D03*
X004657Y008639D03*
X004657Y008644D03*
X005255Y008593D03*
X005260Y008583D03*
X005260Y008578D03*
X005266Y008562D03*
X005266Y008557D03*
X005266Y008496D03*
X005266Y008491D03*
X005260Y008475D03*
X005260Y008470D03*
X005255Y008460D03*
D149*
X005235Y008424D03*
X005230Y008419D03*
X005235Y008629D03*
X005230Y008634D03*
X003659Y008629D03*
X003653Y008634D03*
X003659Y008424D03*
X003653Y008419D03*
X003198Y008424D03*
X003193Y008419D03*
X003198Y008629D03*
X003193Y008634D03*
X002881Y008634D03*
X002875Y008629D03*
X002875Y008424D03*
X002881Y008419D03*
D150*
X002865Y008439D03*
X002860Y008450D03*
X002860Y008603D03*
X002865Y008613D03*
X003208Y008613D03*
X003213Y008603D03*
X003213Y008450D03*
X003208Y008439D03*
X003669Y008439D03*
X003674Y008450D03*
X003674Y008603D03*
X003669Y008613D03*
X005245Y008613D03*
X005250Y008603D03*
X005250Y008450D03*
X005245Y008439D03*
D151*
X009188Y019727D02*
X009188Y019963D01*
X009680Y019963D02*
X009680Y019727D01*
X009818Y019727D02*
X009818Y019963D01*
X010310Y019963D02*
X010310Y019727D01*
X021393Y021223D02*
X021393Y021459D01*
X021885Y021459D02*
X021885Y021223D01*
X022062Y021184D02*
X022062Y021420D01*
X022554Y021420D02*
X022554Y021184D01*
D152*
X022308Y021302D03*
X021639Y021341D03*
X010064Y019845D03*
X009434Y019845D03*
D153*
X009631Y004156D03*
D154*
X008814Y003881D02*
X008814Y003487D01*
X010448Y003487D02*
X010448Y003881D01*
X007308Y022581D02*
X006915Y022581D01*
X006876Y022583D01*
X006838Y022589D01*
X006801Y022598D01*
X006764Y022611D01*
X006729Y022628D01*
X006696Y022647D01*
X006665Y022670D01*
X006636Y022696D01*
X006610Y022725D01*
X006587Y022756D01*
X006568Y022789D01*
X006551Y022824D01*
X006538Y022861D01*
X006529Y022898D01*
X006523Y022936D01*
X006521Y022975D01*
X006521Y028093D01*
X006523Y028132D01*
X006529Y028170D01*
X006538Y028207D01*
X006551Y028244D01*
X006568Y028279D01*
X006587Y028312D01*
X006610Y028343D01*
X006636Y028372D01*
X006665Y028398D01*
X006696Y028421D01*
X006729Y028440D01*
X006764Y028457D01*
X006801Y028470D01*
X006838Y028479D01*
X006876Y028485D01*
X006915Y028487D01*
X007308Y028487D01*
M02*
