G75*
G70*
%OFA0B0*%
%FSLAX24Y24*%
%IPPOS*%
%LPD*%
%AMOC8*
5,1,8,0,0,1.08239X$1,22.5*
%
%ADD10C,0.0050*%
%ADD11C,0.0060*%
%ADD12C,0.0040*%
%ADD13C,0.0090*%
%ADD14R,0.0202X0.0006*%
%ADD15R,0.0277X0.0006*%
%ADD16R,0.0328X0.0006*%
%ADD17R,0.0378X0.0006*%
%ADD18R,0.0416X0.0006*%
%ADD19R,0.0454X0.0006*%
%ADD20R,0.0479X0.0006*%
%ADD21R,0.0517X0.0006*%
%ADD22R,0.0542X0.0006*%
%ADD23R,0.0567X0.0006*%
%ADD24R,0.0592X0.0006*%
%ADD25R,0.0617X0.0006*%
%ADD26R,0.0643X0.0006*%
%ADD27R,0.0661X0.0006*%
%ADD28R,0.0680X0.0006*%
%ADD29R,0.0706X0.0006*%
%ADD30R,0.0718X0.0006*%
%ADD31R,0.0353X0.0006*%
%ADD32R,0.0296X0.0006*%
%ADD33R,0.0271X0.0006*%
%ADD34R,0.0258X0.0006*%
%ADD35R,0.0265X0.0006*%
%ADD36R,0.0246X0.0006*%
%ADD37R,0.0239X0.0006*%
%ADD38R,0.0233X0.0006*%
%ADD39R,0.0227X0.0006*%
%ADD40R,0.0220X0.0006*%
%ADD41R,0.0214X0.0006*%
%ADD42R,0.0208X0.0006*%
%ADD43R,0.0195X0.0006*%
%ADD44R,0.0189X0.0006*%
%ADD45R,0.0183X0.0006*%
%ADD46R,0.0176X0.0006*%
%ADD47R,0.0170X0.0006*%
%ADD48R,0.0164X0.0006*%
%ADD49R,0.0157X0.0006*%
%ADD50R,0.0151X0.0006*%
%ADD51R,0.0145X0.0006*%
%ADD52R,0.0139X0.0006*%
%ADD53R,0.0132X0.0006*%
%ADD54R,0.0126X0.0006*%
%ADD55R,0.0019X0.0006*%
%ADD56R,0.0088X0.0006*%
%ADD57R,0.0038X0.0006*%
%ADD58R,0.0050X0.0006*%
%ADD59R,0.0069X0.0006*%
%ADD60R,0.0076X0.0006*%
%ADD61R,0.0120X0.0006*%
%ADD62R,0.0094X0.0006*%
%ADD63R,0.0107X0.0006*%
%ADD64R,0.0252X0.0006*%
%ADD65R,0.0309X0.0006*%
%ADD66R,0.0340X0.0006*%
%ADD67R,0.0359X0.0006*%
%ADD68R,0.0649X0.0006*%
%ADD69R,0.0655X0.0006*%
%ADD70R,0.0397X0.0006*%
%ADD71R,0.0372X0.0006*%
%ADD72R,0.0290X0.0006*%
%ADD73R,0.0113X0.0006*%
%ADD74R,0.0101X0.0006*%
%ADD75R,0.0082X0.0006*%
%ADD76R,0.0057X0.0006*%
%ADD77R,0.0044X0.0006*%
%ADD78R,0.0025X0.0006*%
%ADD79R,0.0334X0.0006*%
%ADD80R,0.0731X0.0006*%
%ADD81R,0.0693X0.0006*%
%ADD82R,0.0668X0.0006*%
%ADD83R,0.0624X0.0006*%
%ADD84R,0.0605X0.0006*%
%ADD85R,0.0580X0.0006*%
%ADD86R,0.0548X0.0006*%
%ADD87R,0.0491X0.0006*%
%ADD88R,0.0422X0.0006*%
%ADD89R,0.0120X0.1216*%
%ADD90R,0.0120X0.1203*%
%ADD91C,0.0080*%
%ADD92C,0.0120*%
%ADD93C,0.0100*%
%ADD94R,0.0220X0.0005*%
%ADD95R,0.0118X0.0005*%
%ADD96R,0.0343X0.0005*%
%ADD97R,0.0435X0.0005*%
%ADD98R,0.0077X0.0005*%
%ADD99R,0.0246X0.0005*%
%ADD100R,0.0363X0.0005*%
%ADD101R,0.0128X0.0005*%
%ADD102R,0.0261X0.0005*%
%ADD103R,0.0379X0.0005*%
%ADD104R,0.0159X0.0005*%
%ADD105R,0.0276X0.0005*%
%ADD106R,0.0389X0.0005*%
%ADD107R,0.0189X0.0005*%
%ADD108R,0.0287X0.0005*%
%ADD109R,0.0399X0.0005*%
%ADD110R,0.0210X0.0005*%
%ADD111R,0.0297X0.0005*%
%ADD112R,0.0404X0.0005*%
%ADD113R,0.0230X0.0005*%
%ADD114R,0.0307X0.0005*%
%ADD115R,0.0409X0.0005*%
%ADD116R,0.0251X0.0005*%
%ADD117R,0.0317X0.0005*%
%ADD118R,0.0420X0.0005*%
%ADD119R,0.0271X0.0005*%
%ADD120R,0.0322X0.0005*%
%ADD121R,0.0425X0.0005*%
%ADD122R,0.0281X0.0005*%
%ADD123R,0.0333X0.0005*%
%ADD124R,0.0430X0.0005*%
%ADD125R,0.0302X0.0005*%
%ADD126R,0.0338X0.0005*%
%ADD127R,0.0312X0.0005*%
%ADD128R,0.0348X0.0005*%
%ADD129R,0.0440X0.0005*%
%ADD130R,0.0353X0.0005*%
%ADD131R,0.0445X0.0005*%
%ADD132R,0.0358X0.0005*%
%ADD133R,0.0450X0.0005*%
%ADD134R,0.0369X0.0005*%
%ADD135R,0.0456X0.0005*%
%ADD136R,0.0374X0.0005*%
%ADD137R,0.0384X0.0005*%
%ADD138R,0.0461X0.0005*%
%ADD139R,0.0394X0.0005*%
%ADD140R,0.0415X0.0005*%
%ADD141R,0.0466X0.0005*%
%ADD142R,0.0138X0.0005*%
%ADD143R,0.0174X0.0005*%
%ADD144R,0.0169X0.0005*%
%ADD145R,0.0164X0.0005*%
%ADD146R,0.0154X0.0005*%
%ADD147R,0.0123X0.0005*%
%ADD148R,0.0143X0.0005*%
%ADD149R,0.0133X0.0005*%
%ADD150C,0.0028*%
%ADD151R,0.0118X0.0276*%
%ADD152C,0.0079*%
%ADD153C,0.0059*%
D10*
X005287Y007887D02*
X005242Y007932D01*
X005242Y007977D01*
X005287Y008022D01*
X005512Y008022D01*
X005512Y007977D02*
X005512Y008067D01*
X005377Y008182D02*
X005512Y008317D01*
X005242Y008317D01*
X005377Y008362D02*
X005377Y008182D01*
X006388Y007449D02*
X006659Y007449D01*
X006524Y007314D01*
X006524Y007494D01*
X006614Y007199D02*
X006659Y007154D01*
X006659Y007064D01*
X006614Y007019D01*
X006433Y007019D01*
X006388Y007064D01*
X006388Y007154D01*
X006433Y007199D01*
X006388Y006913D02*
X006388Y006823D01*
X006388Y006868D02*
X006659Y006868D01*
X006659Y006823D02*
X006659Y006913D01*
X008993Y009618D02*
X008947Y009663D01*
X008947Y009753D01*
X008993Y009798D01*
X009173Y009798D01*
X009218Y009753D01*
X009218Y009663D01*
X009173Y009618D01*
X008993Y009618D01*
X009038Y009708D02*
X008947Y009798D01*
X008947Y009913D02*
X008947Y010093D01*
X008947Y010003D02*
X009218Y010003D01*
X009128Y009913D01*
X009173Y010207D02*
X009218Y010252D01*
X009218Y010342D01*
X009173Y010387D01*
X009128Y010387D01*
X008947Y010207D01*
X008947Y010387D01*
X007520Y010962D02*
X007474Y010917D01*
X007384Y010917D01*
X007339Y010962D01*
X007339Y011142D01*
X007384Y011187D01*
X007474Y011187D01*
X007520Y011142D01*
X007520Y010962D01*
X007429Y011007D02*
X007339Y010917D01*
X007225Y010962D02*
X007225Y011007D01*
X007180Y011052D01*
X007090Y011052D01*
X007045Y011007D01*
X007045Y010962D01*
X007090Y010917D01*
X007180Y010917D01*
X007225Y010962D01*
X007180Y011052D02*
X007225Y011097D01*
X007225Y011142D01*
X007180Y011187D01*
X007090Y011187D01*
X007045Y011142D01*
X007045Y011097D01*
X007090Y011052D01*
X005911Y012939D02*
X005497Y012939D01*
X005497Y013727D01*
X005315Y013746D02*
X005315Y013476D01*
X005315Y013566D02*
X005180Y013566D01*
X005135Y013611D01*
X005135Y013701D01*
X005180Y013746D01*
X005315Y013746D01*
X005225Y013566D02*
X005135Y013476D01*
X005020Y013521D02*
X004975Y013566D01*
X004840Y013566D01*
X004840Y013611D02*
X004840Y013476D01*
X004975Y013476D01*
X005020Y013521D01*
X004975Y013656D02*
X004885Y013656D01*
X004840Y013611D01*
X004726Y013611D02*
X004680Y013656D01*
X004545Y013656D01*
X004545Y013746D02*
X004545Y013476D01*
X004680Y013476D01*
X004726Y013521D01*
X004726Y013611D01*
X004431Y013656D02*
X004386Y013656D01*
X004386Y013476D01*
X004431Y013476D02*
X004341Y013476D01*
X004234Y013521D02*
X004189Y013476D01*
X004099Y013476D01*
X004054Y013521D01*
X004054Y013611D01*
X004099Y013656D01*
X004189Y013656D01*
X004234Y013611D01*
X004234Y013521D01*
X004386Y013746D02*
X004386Y013791D01*
X004431Y013184D02*
X004296Y013184D01*
X004251Y013139D01*
X004251Y013004D01*
X004136Y013004D02*
X004001Y013004D01*
X003956Y013049D01*
X004001Y013094D01*
X004091Y013094D01*
X004136Y013139D01*
X004091Y013184D01*
X003956Y013184D01*
X003842Y013139D02*
X003842Y013049D01*
X003797Y013004D01*
X003706Y013004D01*
X003661Y013049D01*
X003661Y013139D01*
X003706Y013184D01*
X003797Y013184D01*
X003842Y013139D01*
X003547Y013184D02*
X003547Y013004D01*
X003547Y013094D02*
X003457Y013184D01*
X003412Y013184D01*
X003301Y013139D02*
X003256Y013184D01*
X003166Y013184D01*
X003121Y013139D01*
X003121Y013094D01*
X003301Y013094D01*
X003301Y013049D02*
X003301Y013139D01*
X003301Y013049D02*
X003256Y013004D01*
X003166Y013004D01*
X003007Y013049D02*
X003007Y013139D01*
X002962Y013184D01*
X002827Y013184D01*
X002827Y013274D02*
X002827Y013004D01*
X002962Y013004D01*
X003007Y013049D01*
X002417Y013004D02*
X002282Y013004D01*
X002237Y013049D01*
X002237Y013094D01*
X002282Y013139D01*
X002417Y013139D01*
X002282Y013139D02*
X002237Y013184D01*
X002237Y013229D01*
X002282Y013274D01*
X002417Y013274D01*
X002417Y013004D01*
X002123Y013049D02*
X002078Y013004D01*
X001943Y013004D01*
X001943Y012959D02*
X001988Y012914D01*
X002033Y012914D01*
X001943Y012959D02*
X001943Y013184D01*
X002123Y013184D02*
X002123Y013049D01*
X001419Y014121D02*
X005104Y014121D01*
X005143Y014119D01*
X005181Y014113D01*
X005218Y014104D01*
X005255Y014091D01*
X005290Y014074D01*
X005323Y014055D01*
X005354Y014032D01*
X005383Y014006D01*
X005409Y013977D01*
X005432Y013946D01*
X005451Y013913D01*
X005468Y013878D01*
X005481Y013841D01*
X005490Y013804D01*
X005496Y013766D01*
X005498Y013727D01*
X005497Y014042D02*
X005497Y018097D01*
X005497Y018412D02*
X005497Y019199D01*
X005911Y019199D01*
X006145Y019972D02*
X006235Y019972D01*
X006280Y020017D01*
X006395Y020017D02*
X006440Y019972D01*
X006530Y019972D01*
X006575Y020017D01*
X006575Y020197D01*
X006530Y020243D01*
X006440Y020243D01*
X006395Y020197D01*
X006280Y020197D02*
X006235Y020243D01*
X006145Y020243D01*
X006100Y020197D01*
X006100Y020152D01*
X006145Y020107D01*
X006100Y020062D01*
X006100Y020017D01*
X006145Y019972D01*
X006145Y020107D02*
X006190Y020107D01*
X006681Y019972D02*
X006772Y019972D01*
X006726Y019972D02*
X006726Y020243D01*
X006681Y020243D02*
X006772Y020243D01*
X006797Y021714D02*
X006887Y021714D01*
X006842Y021714D02*
X006842Y021985D01*
X006887Y021985D02*
X006797Y021985D01*
X006690Y021940D02*
X006690Y021760D01*
X006645Y021714D01*
X006555Y021714D01*
X006510Y021760D01*
X006510Y021940D01*
X006555Y021985D01*
X006645Y021985D01*
X006690Y021940D01*
X006396Y021985D02*
X006260Y021985D01*
X006215Y021940D01*
X006215Y021850D01*
X006260Y021805D01*
X006396Y021805D01*
X006306Y021805D02*
X006215Y021714D01*
X006101Y021714D02*
X005921Y021714D01*
X005806Y021714D02*
X005806Y021985D01*
X005626Y021985D01*
X005716Y021850D02*
X005806Y021850D01*
X005921Y021985D02*
X006101Y021985D01*
X006101Y021714D01*
X006101Y021850D02*
X006011Y021850D01*
X006396Y021985D02*
X006396Y021714D01*
X006396Y022714D02*
X006396Y022985D01*
X006260Y022985D01*
X006215Y022940D01*
X006215Y022850D01*
X006260Y022805D01*
X006396Y022805D01*
X006306Y022805D02*
X006215Y022714D01*
X006101Y022760D02*
X006056Y022714D01*
X005966Y022714D01*
X005921Y022760D01*
X005921Y022805D01*
X005966Y022850D01*
X006056Y022850D01*
X006101Y022895D01*
X006101Y022940D01*
X006056Y022985D01*
X005966Y022985D01*
X005921Y022940D01*
X005806Y022985D02*
X005626Y022985D01*
X005716Y022985D02*
X005716Y022714D01*
X005791Y023517D02*
X005836Y023562D01*
X005836Y023652D01*
X005791Y023697D01*
X005746Y023697D01*
X005701Y023652D01*
X005656Y023697D01*
X005611Y023697D01*
X005566Y023652D01*
X005566Y023562D01*
X005611Y023517D01*
X005701Y023607D02*
X005701Y023652D01*
X005656Y023811D02*
X005566Y023901D01*
X005656Y023991D01*
X005836Y023991D01*
X005791Y024106D02*
X005836Y024151D01*
X005836Y024241D01*
X005791Y024286D01*
X005746Y024286D01*
X005701Y024241D01*
X005656Y024286D01*
X005611Y024286D01*
X005566Y024241D01*
X005566Y024151D01*
X005611Y024106D01*
X005701Y024196D02*
X005701Y024241D01*
X005701Y024617D02*
X005746Y024707D01*
X005746Y024752D01*
X005701Y024797D01*
X005611Y024797D01*
X005566Y024752D01*
X005566Y024662D01*
X005611Y024617D01*
X005701Y024617D02*
X005836Y024617D01*
X005836Y024797D01*
X005836Y024911D02*
X005656Y024911D01*
X005566Y025001D01*
X005656Y025091D01*
X005836Y025091D01*
X005791Y025206D02*
X005836Y025251D01*
X005836Y025341D01*
X005791Y025386D01*
X005611Y025206D01*
X005566Y025251D01*
X005566Y025341D01*
X005611Y025386D01*
X005791Y025386D01*
X005791Y025206D02*
X005611Y025206D01*
X005611Y025888D02*
X005566Y025934D01*
X005566Y026024D01*
X005611Y026069D01*
X005701Y026069D01*
X005701Y025979D01*
X005791Y026069D02*
X005836Y026024D01*
X005836Y025934D01*
X005791Y025888D01*
X005611Y025888D01*
X005566Y026183D02*
X005836Y026183D01*
X005566Y026363D01*
X005836Y026363D01*
X005836Y026478D02*
X005566Y026478D01*
X005566Y026613D01*
X005611Y026658D01*
X005791Y026658D01*
X005836Y026613D01*
X005836Y026478D01*
X005836Y027467D02*
X005656Y027467D01*
X005566Y027557D01*
X005656Y027647D01*
X005836Y027647D01*
X005836Y027761D02*
X005836Y027851D01*
X005836Y027806D02*
X005566Y027806D01*
X005566Y027761D02*
X005566Y027851D01*
X005566Y027958D02*
X005836Y027958D01*
X005566Y028138D01*
X005836Y028138D01*
X006113Y028555D02*
X006383Y028555D01*
X006383Y028690D01*
X006338Y028735D01*
X006248Y028735D01*
X006203Y028690D01*
X006203Y028555D01*
X006248Y028850D02*
X006158Y028850D01*
X006113Y028895D01*
X006113Y028985D01*
X006158Y029030D01*
X006248Y029030D01*
X006293Y028985D01*
X006293Y028895D01*
X006248Y028850D01*
X006293Y029144D02*
X006158Y029144D01*
X006113Y029189D01*
X006158Y029234D01*
X006113Y029279D01*
X006158Y029324D01*
X006293Y029324D01*
X006248Y029439D02*
X006293Y029484D01*
X006293Y029574D01*
X006248Y029619D01*
X006203Y029619D01*
X006203Y029439D01*
X006158Y029439D02*
X006248Y029439D01*
X006158Y029439D02*
X006113Y029484D01*
X006113Y029574D01*
X006113Y029734D02*
X006293Y029734D01*
X006293Y029824D02*
X006293Y029869D01*
X006293Y029824D02*
X006203Y029734D01*
X006248Y029979D02*
X006248Y030159D01*
X006203Y030274D02*
X006203Y030409D01*
X006248Y030454D01*
X006338Y030454D01*
X006383Y030409D01*
X006383Y030274D01*
X006113Y030274D01*
X006158Y030568D02*
X006113Y030613D01*
X006113Y030704D01*
X006158Y030749D01*
X006338Y030749D01*
X006383Y030704D01*
X006383Y030613D01*
X006338Y030568D01*
X006158Y030568D01*
X006113Y030863D02*
X006113Y030998D01*
X006158Y031043D01*
X006338Y031043D01*
X006383Y030998D01*
X006383Y030863D01*
X006113Y030863D01*
X005836Y030775D02*
X005746Y030865D01*
X005566Y030865D01*
X005566Y030979D02*
X005566Y031159D01*
X005566Y031069D02*
X005836Y031069D01*
X005746Y030979D01*
X005701Y030865D02*
X005701Y030684D01*
X005746Y030684D02*
X005566Y030684D01*
X005746Y030684D02*
X005836Y030775D01*
X005791Y030159D02*
X005611Y029979D01*
X005566Y030024D01*
X005566Y030114D01*
X005611Y030159D01*
X005791Y030159D01*
X005836Y030114D01*
X005836Y030024D01*
X005791Y029979D01*
X005611Y029979D01*
X005566Y029865D02*
X005746Y029865D01*
X005836Y029775D01*
X005746Y029684D01*
X005566Y029684D01*
X005701Y029684D02*
X005701Y029865D01*
X005701Y031684D02*
X005701Y031865D01*
X005746Y031865D02*
X005566Y031865D01*
X005566Y031979D02*
X005746Y032159D01*
X005791Y032159D01*
X005836Y032114D01*
X005836Y032024D01*
X005791Y031979D01*
X005746Y031865D02*
X005836Y031775D01*
X005746Y031684D01*
X005566Y031684D01*
X005566Y031979D02*
X005566Y032159D01*
X005566Y032684D02*
X005746Y032684D01*
X005836Y032775D01*
X005746Y032865D01*
X005566Y032865D01*
X005611Y032979D02*
X005566Y033024D01*
X005566Y033114D01*
X005611Y033159D01*
X005656Y033159D01*
X005701Y033114D01*
X005701Y033069D01*
X005701Y033114D02*
X005746Y033159D01*
X005791Y033159D01*
X005836Y033114D01*
X005836Y033024D01*
X005791Y032979D01*
X005701Y032865D02*
X005701Y032684D01*
X005701Y033684D02*
X005701Y033865D01*
X005746Y033865D02*
X005566Y033865D01*
X005701Y033979D02*
X005701Y034159D01*
X005836Y034114D02*
X005701Y033979D01*
X005746Y033865D02*
X005836Y033775D01*
X005746Y033684D01*
X005566Y033684D01*
X005566Y034114D02*
X005836Y034114D01*
X005746Y034684D02*
X005566Y034684D01*
X005701Y034684D02*
X005701Y034865D01*
X005746Y034865D02*
X005566Y034865D01*
X005611Y034979D02*
X005566Y035024D01*
X005566Y035114D01*
X005611Y035159D01*
X005701Y035159D01*
X005746Y035114D01*
X005746Y035069D01*
X005701Y034979D01*
X005836Y034979D01*
X005836Y035159D01*
X005746Y034865D02*
X005836Y034775D01*
X005746Y034684D01*
X005734Y035679D02*
X005779Y035724D01*
X005599Y035904D01*
X005599Y035724D01*
X005644Y035679D01*
X005734Y035679D01*
X005779Y035724D02*
X005779Y035904D01*
X005734Y035949D01*
X005644Y035949D01*
X005599Y035904D01*
X005893Y035904D02*
X005938Y035949D01*
X006028Y035949D01*
X006073Y035904D01*
X006073Y035724D01*
X006028Y035679D01*
X005938Y035679D01*
X005893Y035724D01*
X006188Y035679D02*
X006188Y035859D01*
X006278Y035949D01*
X006368Y035859D01*
X006368Y035679D01*
X006483Y035724D02*
X006483Y035904D01*
X006528Y035949D01*
X006663Y035949D01*
X006663Y035679D01*
X006528Y035679D01*
X006483Y035724D01*
X006368Y035814D02*
X006188Y035814D01*
X006188Y036679D02*
X006188Y036859D01*
X006278Y036949D01*
X006368Y036859D01*
X006368Y036679D01*
X006483Y036724D02*
X006483Y036904D01*
X006528Y036949D01*
X006663Y036949D01*
X006663Y036679D01*
X006528Y036679D01*
X006483Y036724D01*
X006368Y036814D02*
X006188Y036814D01*
X006073Y036904D02*
X006073Y036724D01*
X006028Y036679D01*
X005938Y036679D01*
X005893Y036724D01*
X005779Y036679D02*
X005599Y036679D01*
X005689Y036679D02*
X005689Y036949D01*
X005779Y036859D01*
X005893Y036904D02*
X005938Y036949D01*
X006028Y036949D01*
X006073Y036904D01*
X008790Y036895D02*
X008790Y036760D01*
X009060Y036760D01*
X009060Y036895D01*
X009015Y036940D01*
X008835Y036940D01*
X008790Y036895D01*
X008790Y037054D02*
X008790Y037189D01*
X008835Y037234D01*
X008880Y037234D01*
X008925Y037189D01*
X008925Y037054D01*
X008790Y037054D02*
X009060Y037054D01*
X009060Y037189D01*
X009015Y037234D01*
X008970Y037234D01*
X008925Y037189D01*
X008925Y036645D02*
X008835Y036645D01*
X008790Y036600D01*
X008790Y036510D01*
X008835Y036465D01*
X008925Y036465D02*
X008970Y036555D01*
X008970Y036600D01*
X008925Y036645D01*
X009060Y036645D02*
X009060Y036465D01*
X008925Y036465D01*
X008925Y036350D02*
X008925Y036170D01*
X009060Y036305D01*
X008790Y036305D01*
X008790Y035966D02*
X009060Y035966D01*
X009060Y035876D02*
X009060Y036056D01*
X009223Y036099D02*
X009223Y036189D01*
X009268Y036234D01*
X009313Y036234D01*
X009358Y036189D01*
X009358Y036054D01*
X009268Y036054D01*
X009223Y036099D01*
X009358Y036054D02*
X009448Y036144D01*
X009493Y036234D01*
X009448Y035939D02*
X009493Y035894D01*
X009493Y035804D01*
X009448Y035759D01*
X009268Y035759D01*
X009223Y035804D01*
X009223Y035894D01*
X009268Y035939D01*
X009223Y035653D02*
X009223Y035563D01*
X009223Y035608D02*
X009493Y035608D01*
X009493Y035563D02*
X009493Y035653D01*
X009060Y035671D02*
X008970Y035761D01*
X008790Y035761D01*
X008925Y035761D02*
X008925Y035581D01*
X008970Y035581D02*
X009060Y035671D01*
X008970Y035581D02*
X008790Y035581D01*
X008970Y035176D02*
X008970Y035131D01*
X008880Y035041D01*
X008790Y035041D02*
X008970Y035041D01*
X008925Y034926D02*
X008970Y034881D01*
X008970Y034791D01*
X008925Y034746D01*
X008835Y034746D01*
X008790Y034791D01*
X008790Y034881D01*
X008835Y034926D01*
X008925Y034926D01*
X008790Y034337D02*
X008790Y034157D01*
X009060Y034157D01*
X009060Y034042D02*
X009060Y033862D01*
X008790Y033862D01*
X008835Y033748D02*
X008790Y033703D01*
X008790Y033613D01*
X008835Y033568D01*
X008925Y033568D02*
X008970Y033658D01*
X008970Y033703D01*
X008925Y033748D01*
X008835Y033748D01*
X008925Y033862D02*
X008925Y033952D01*
X009060Y033748D02*
X009060Y033568D01*
X008925Y033568D01*
X008970Y033453D02*
X008790Y033273D01*
X008790Y033453D01*
X008970Y033453D02*
X009015Y033453D01*
X009060Y033408D01*
X009060Y033318D01*
X009015Y033273D01*
X009015Y033158D02*
X009060Y033113D01*
X009060Y033023D01*
X009015Y032978D01*
X008970Y032978D01*
X008925Y033023D01*
X008925Y033113D01*
X008880Y033158D01*
X008835Y033158D01*
X008790Y033113D01*
X008790Y033023D01*
X008835Y032978D01*
X009223Y032964D02*
X009223Y033054D01*
X009223Y033009D02*
X009493Y033009D01*
X009493Y032964D02*
X009493Y033054D01*
X009448Y033161D02*
X009493Y033206D01*
X009493Y033296D01*
X009448Y033341D01*
X009493Y033456D02*
X009358Y033456D01*
X009403Y033546D01*
X009403Y033591D01*
X009358Y033636D01*
X009268Y033636D01*
X009223Y033591D01*
X009223Y033501D01*
X009268Y033456D01*
X009268Y033341D02*
X009223Y033296D01*
X009223Y033206D01*
X009268Y033161D01*
X009448Y033161D01*
X009493Y033456D02*
X009493Y033636D01*
X010379Y032979D02*
X010379Y032585D01*
X010379Y032979D02*
X010773Y032979D01*
X008939Y030261D02*
X008939Y030126D01*
X008849Y030171D01*
X008804Y030171D01*
X008759Y030126D01*
X008759Y030036D01*
X008804Y029991D01*
X008894Y029991D01*
X008939Y030036D01*
X008939Y030261D02*
X008759Y030261D01*
X008644Y030261D02*
X008644Y030081D01*
X008554Y029991D01*
X008464Y030081D01*
X008464Y030261D01*
X008350Y030216D02*
X008305Y030261D01*
X008215Y030261D01*
X008169Y030216D01*
X008350Y030036D01*
X008305Y029991D01*
X008215Y029991D01*
X008169Y030036D01*
X008169Y030216D01*
X008350Y030216D02*
X008350Y030036D01*
X008350Y029261D02*
X008215Y029261D01*
X008169Y029216D01*
X008169Y029036D01*
X008215Y028991D01*
X008350Y028991D01*
X008350Y029261D01*
X008464Y029261D02*
X008464Y028991D01*
X008644Y029261D01*
X008644Y028991D01*
X008759Y029036D02*
X008759Y029126D01*
X008849Y029126D01*
X008939Y029216D02*
X008894Y029261D01*
X008804Y029261D01*
X008759Y029216D01*
X008939Y029216D02*
X008939Y029036D01*
X008894Y028991D01*
X008804Y028991D01*
X008759Y029036D01*
X008804Y028261D02*
X008759Y028216D01*
X008759Y028171D01*
X008804Y028126D01*
X008759Y028081D01*
X008759Y028036D01*
X008804Y027991D01*
X008894Y027991D01*
X008939Y028036D01*
X008849Y028126D02*
X008804Y028126D01*
X008804Y028261D02*
X008894Y028261D01*
X008939Y028216D01*
X008644Y028261D02*
X008644Y028081D01*
X008554Y027991D01*
X008464Y028081D01*
X008464Y028261D01*
X008350Y028216D02*
X008305Y028261D01*
X008215Y028261D01*
X008169Y028216D01*
X008169Y028171D01*
X008215Y028126D01*
X008169Y028081D01*
X008169Y028036D01*
X008215Y027991D01*
X008305Y027991D01*
X008350Y028036D01*
X008260Y028126D02*
X008215Y028126D01*
X010379Y025498D02*
X010379Y025105D01*
X010773Y025105D01*
X008780Y022287D02*
X008509Y022287D01*
X008509Y022197D02*
X008509Y022377D01*
X008347Y022332D02*
X008301Y022377D01*
X008256Y022377D01*
X008211Y022332D01*
X008166Y022377D01*
X008121Y022377D01*
X008076Y022332D01*
X008076Y022242D01*
X008121Y022197D01*
X008121Y022083D02*
X008076Y022038D01*
X008076Y021948D01*
X008121Y021903D01*
X008301Y022083D01*
X008121Y022083D01*
X008121Y021903D02*
X008301Y021903D01*
X008347Y021948D01*
X008347Y022038D01*
X008301Y022083D01*
X008301Y022197D02*
X008347Y022242D01*
X008347Y022332D01*
X008211Y022332D02*
X008211Y022287D01*
X008509Y022038D02*
X008509Y021948D01*
X008554Y021903D01*
X008735Y022083D01*
X008554Y022083D01*
X008509Y022038D01*
X008554Y021903D02*
X008735Y021903D01*
X008780Y021948D01*
X008780Y022038D01*
X008735Y022083D01*
X008690Y022197D02*
X008780Y022287D01*
X008509Y021788D02*
X008509Y021608D01*
X008509Y021698D02*
X008780Y021698D01*
X008690Y021608D01*
X008509Y021494D02*
X008509Y021313D01*
X008780Y021313D01*
X008347Y021313D02*
X008076Y021313D01*
X008076Y021494D01*
X008076Y021608D02*
X008076Y021788D01*
X008076Y021698D02*
X008347Y021698D01*
X008256Y021608D01*
X005836Y023811D02*
X005656Y023811D01*
X005067Y020006D02*
X004977Y019916D01*
X004977Y019736D01*
X004863Y019736D02*
X004863Y020006D01*
X004683Y019736D01*
X004683Y020006D01*
X004568Y020006D02*
X004388Y020006D01*
X004478Y020006D02*
X004478Y019736D01*
X004977Y019871D02*
X005157Y019871D01*
X005157Y019916D02*
X005067Y020006D01*
X005157Y019916D02*
X005157Y019736D01*
X005498Y018412D02*
X005496Y018373D01*
X005490Y018335D01*
X005481Y018298D01*
X005468Y018261D01*
X005451Y018226D01*
X005432Y018193D01*
X005409Y018162D01*
X005383Y018133D01*
X005354Y018107D01*
X005323Y018084D01*
X005290Y018065D01*
X005255Y018048D01*
X005218Y018035D01*
X005181Y018026D01*
X005143Y018020D01*
X005104Y018018D01*
X001419Y018018D01*
X001419Y014121D01*
X003293Y011491D02*
X003248Y011446D01*
X003248Y011311D01*
X003428Y011311D02*
X003428Y011491D01*
X003293Y011491D01*
X003543Y011536D02*
X003588Y011581D01*
X003678Y011581D01*
X003723Y011536D01*
X003723Y011356D01*
X003678Y011311D01*
X003588Y011311D01*
X003543Y011356D01*
X003543Y011536D01*
X004419Y011581D02*
X004464Y011536D01*
X004464Y011311D01*
X004509Y011446D02*
X004419Y011446D01*
X004615Y011446D02*
X004705Y011446D01*
X004660Y011536D02*
X004615Y011581D01*
X004660Y011536D02*
X004660Y011311D01*
X004820Y011356D02*
X004865Y011311D01*
X004955Y011311D01*
X005000Y011356D01*
X005000Y011536D01*
X004955Y011581D01*
X004865Y011581D01*
X004820Y011536D01*
X004820Y011356D01*
X005020Y012914D02*
X005020Y013184D01*
X004885Y013184D01*
X004840Y013139D01*
X004840Y013049D01*
X004885Y013004D01*
X005020Y013004D01*
X005135Y013049D02*
X005180Y013004D01*
X005270Y013004D01*
X005315Y013049D01*
X005270Y013139D02*
X005180Y013139D01*
X005135Y013094D01*
X005135Y013049D01*
X005270Y013139D02*
X005315Y013184D01*
X005315Y013229D01*
X005270Y013274D01*
X005180Y013274D01*
X005135Y013229D01*
X004726Y013139D02*
X004726Y013049D01*
X004680Y013004D01*
X004590Y013004D01*
X004545Y013049D01*
X004545Y013139D01*
X004590Y013184D01*
X004680Y013184D01*
X004726Y013139D01*
X004431Y013184D02*
X004431Y013004D01*
X004010Y009494D02*
X004055Y009449D01*
X004055Y009404D01*
X004010Y009359D01*
X003920Y009359D01*
X003875Y009314D01*
X003875Y009269D01*
X003920Y009224D01*
X004010Y009224D01*
X004055Y009269D01*
X004010Y009494D02*
X003920Y009494D01*
X003875Y009449D01*
X003760Y009449D02*
X003760Y009404D01*
X003715Y009359D01*
X003625Y009359D01*
X003580Y009314D01*
X003580Y009269D01*
X003625Y009224D01*
X003715Y009224D01*
X003760Y009269D01*
X003760Y009314D01*
X003715Y009359D01*
X003625Y009359D02*
X003580Y009404D01*
X003580Y009449D01*
X003625Y009494D01*
X003715Y009494D01*
X003760Y009449D01*
X009458Y006739D02*
X009458Y006468D01*
X009548Y006468D02*
X009368Y006468D01*
X009548Y006649D02*
X009458Y006739D01*
X009662Y006468D02*
X009842Y006468D01*
X009842Y006739D01*
X010750Y009219D02*
X010840Y009219D01*
X010885Y009264D01*
X010885Y009309D01*
X010840Y009354D01*
X010750Y009354D01*
X010705Y009309D01*
X010705Y009264D01*
X010750Y009219D01*
X010750Y009354D02*
X010705Y009399D01*
X010705Y009444D01*
X010750Y009489D01*
X010840Y009489D01*
X010885Y009444D01*
X010885Y009399D01*
X010840Y009354D01*
X011000Y009264D02*
X011045Y009219D01*
X011135Y009219D01*
X011180Y009264D01*
X011180Y009444D01*
X011135Y009489D01*
X011045Y009489D01*
X011000Y009444D01*
X011286Y009489D02*
X011376Y009489D01*
X011331Y009489D02*
X011331Y009219D01*
X011376Y009219D02*
X011286Y009219D01*
X012688Y006726D02*
X012688Y006546D01*
X012688Y006636D02*
X012958Y006636D01*
X012868Y006546D01*
X012688Y006431D02*
X012688Y006251D01*
X012688Y006341D02*
X012958Y006341D01*
X012868Y006251D01*
X012913Y006137D02*
X012733Y006137D01*
X012688Y006092D01*
X012688Y006002D01*
X012733Y005957D01*
X012913Y005957D01*
X012958Y006002D01*
X012958Y006092D01*
X012913Y006137D01*
X012778Y006047D02*
X012688Y006137D01*
X013827Y008924D02*
X013829Y008938D01*
X013835Y008952D01*
X013843Y008964D01*
X013855Y008972D01*
X013869Y008978D01*
X013883Y008980D01*
X013897Y008978D01*
X013911Y008972D01*
X013923Y008964D01*
X013931Y008952D01*
X013937Y008938D01*
X013939Y008924D01*
X013937Y008910D01*
X013931Y008896D01*
X013923Y008884D01*
X013911Y008876D01*
X013897Y008870D01*
X013883Y008868D01*
X013869Y008870D01*
X013855Y008876D01*
X013843Y008884D01*
X013835Y008896D01*
X013829Y008910D01*
X013827Y008924D01*
X013583Y009151D02*
X013537Y009106D01*
X013492Y009106D01*
X013447Y009151D01*
X013447Y009376D01*
X013492Y009376D02*
X013402Y009376D01*
X013288Y009331D02*
X013243Y009376D01*
X013153Y009376D01*
X013108Y009331D01*
X013108Y009286D01*
X013288Y009106D01*
X013108Y009106D01*
X011836Y012939D02*
X011375Y012939D01*
X011836Y012939D02*
X011836Y013333D01*
X013482Y013949D02*
X013663Y013949D01*
X013572Y013949D02*
X013572Y014219D01*
X013663Y014129D01*
X013777Y014174D02*
X013777Y014084D01*
X013822Y014039D01*
X013957Y014039D01*
X013867Y014039D02*
X013777Y013949D01*
X013957Y013949D02*
X013957Y014219D01*
X013822Y014219D01*
X013777Y014174D01*
X014072Y014219D02*
X014252Y014219D01*
X014162Y014219D02*
X014162Y013949D01*
X015785Y014933D02*
X015965Y014933D01*
X015785Y015113D01*
X015785Y015158D01*
X015830Y015203D01*
X015920Y015203D01*
X015965Y015158D01*
X016080Y015158D02*
X016080Y014978D01*
X016125Y014933D01*
X016215Y014933D01*
X016260Y014978D01*
X016260Y015158D01*
X016215Y015203D01*
X016125Y015203D01*
X016080Y015158D01*
X016170Y015023D02*
X016080Y014933D01*
X017648Y016002D02*
X017693Y015957D01*
X017873Y015957D01*
X017919Y016002D01*
X017919Y016092D01*
X017873Y016137D01*
X017693Y016137D01*
X017648Y016092D01*
X017648Y016002D01*
X017738Y016047D02*
X017648Y016137D01*
X017693Y016251D02*
X017648Y016296D01*
X017648Y016386D01*
X017693Y016431D01*
X017738Y016431D01*
X017783Y016386D01*
X017783Y016341D01*
X017783Y016386D02*
X017828Y016431D01*
X017873Y016431D01*
X017919Y016386D01*
X017919Y016296D01*
X017873Y016251D01*
X018239Y017492D02*
X018239Y017582D01*
X018239Y017537D02*
X018509Y017537D01*
X018509Y017492D02*
X018509Y017582D01*
X018464Y017688D02*
X018284Y017688D01*
X018239Y017733D01*
X018239Y017824D01*
X018284Y017869D01*
X018284Y017983D02*
X018239Y017983D01*
X018284Y017983D02*
X018464Y018163D01*
X018509Y018163D01*
X018509Y017983D01*
X018464Y017869D02*
X018509Y017824D01*
X018509Y017733D01*
X018464Y017688D01*
X019459Y015250D02*
X019459Y015070D01*
X019459Y015160D02*
X019730Y015160D01*
X019639Y015070D01*
X019684Y014956D02*
X019504Y014956D01*
X019459Y014911D01*
X019459Y014820D01*
X019504Y014775D01*
X019684Y014775D01*
X019730Y014820D01*
X019730Y014911D01*
X019684Y014956D01*
X019549Y014866D02*
X019459Y014956D01*
X021147Y015013D02*
X021147Y015193D01*
X021147Y015308D02*
X021327Y015488D01*
X021372Y015488D01*
X021417Y015443D01*
X021417Y015353D01*
X021372Y015308D01*
X021372Y015193D02*
X021192Y015013D01*
X021147Y015013D01*
X021417Y015013D02*
X021417Y015193D01*
X021372Y015193D01*
X021147Y015308D02*
X021147Y015488D01*
X021147Y014149D02*
X021147Y013969D01*
X021147Y014059D02*
X021417Y014059D01*
X021327Y013969D01*
X021372Y013854D02*
X021192Y013674D01*
X021147Y013674D01*
X021147Y013854D01*
X021372Y013854D02*
X021417Y013854D01*
X021417Y013674D01*
X022162Y013460D02*
X022162Y013415D01*
X022207Y013370D01*
X022162Y013325D01*
X022162Y013280D01*
X022207Y013235D01*
X022297Y013235D01*
X022342Y013280D01*
X022456Y013235D02*
X022636Y013235D01*
X022636Y013280D01*
X022456Y013460D01*
X022456Y013505D01*
X022636Y013505D01*
X022342Y013460D02*
X022297Y013505D01*
X022207Y013505D01*
X022162Y013460D01*
X022207Y013370D02*
X022252Y013370D01*
X022530Y012573D02*
X022530Y012393D01*
X022530Y012483D02*
X022800Y012483D01*
X022710Y012393D01*
X022755Y012278D02*
X022800Y012233D01*
X022800Y012098D01*
X022530Y012098D01*
X022530Y012233D01*
X022575Y012278D01*
X022755Y012278D01*
X024092Y012098D02*
X024272Y012098D01*
X024182Y012098D02*
X024182Y012369D01*
X024272Y012278D01*
X024387Y012369D02*
X024477Y012369D01*
X024432Y012369D02*
X024432Y012143D01*
X024477Y012098D01*
X024522Y012098D01*
X024567Y012143D01*
X024522Y010872D02*
X024432Y010872D01*
X024387Y010827D01*
X024387Y010647D01*
X024432Y010602D01*
X024522Y010602D01*
X024567Y010647D01*
X024567Y010827D01*
X024522Y010872D01*
X024477Y010692D02*
X024387Y010602D01*
X024272Y010602D02*
X024272Y010647D01*
X024092Y010827D01*
X024092Y010872D01*
X024272Y010872D01*
X023897Y010749D02*
X023852Y010794D01*
X023762Y010794D01*
X023717Y010749D01*
X023717Y010569D01*
X023762Y010523D01*
X023852Y010523D01*
X023897Y010569D01*
X023897Y010749D01*
X023807Y010614D02*
X023717Y010523D01*
X023603Y010569D02*
X023558Y010523D01*
X023468Y010523D01*
X023423Y010569D01*
X023423Y010659D01*
X023468Y010704D01*
X023513Y010704D01*
X023603Y010659D01*
X023603Y010794D01*
X023423Y010794D01*
X024898Y008439D02*
X024943Y008439D01*
X024988Y008394D01*
X024988Y008259D01*
X024898Y008259D01*
X024853Y008304D01*
X024853Y008394D01*
X024898Y008439D01*
X025078Y008349D02*
X024988Y008259D01*
X025078Y008349D02*
X025123Y008439D01*
X025078Y008145D02*
X024898Y008145D01*
X024853Y008100D01*
X024853Y008009D01*
X024898Y007964D01*
X025078Y007964D01*
X025123Y008009D01*
X025123Y008100D01*
X025078Y008145D01*
X024943Y008054D02*
X024853Y008145D01*
X024679Y007565D02*
X024589Y007565D01*
X024544Y007520D01*
X024544Y007340D01*
X024589Y007295D01*
X024679Y007295D01*
X024724Y007340D01*
X024724Y007520D01*
X024679Y007565D01*
X024634Y007385D02*
X024544Y007295D01*
X024430Y007340D02*
X024385Y007295D01*
X024294Y007295D01*
X024249Y007340D01*
X024249Y007520D01*
X024294Y007565D01*
X024385Y007565D01*
X024430Y007520D01*
X024430Y007475D01*
X024385Y007430D01*
X024249Y007430D01*
X020984Y011705D02*
X021029Y011750D01*
X021029Y011840D01*
X020984Y011885D01*
X020804Y011885D01*
X020759Y011840D01*
X020759Y011750D01*
X020804Y011705D01*
X020984Y011705D01*
X020849Y011795D02*
X020759Y011885D01*
X020894Y011999D02*
X020894Y012179D01*
X021029Y012134D02*
X020894Y011999D01*
X020759Y012134D02*
X021029Y012134D01*
X022813Y017034D02*
X022993Y017034D01*
X022993Y017305D01*
X023108Y017260D02*
X023153Y017305D01*
X023243Y017305D01*
X023288Y017260D01*
X023288Y017080D01*
X023243Y017034D01*
X023153Y017034D01*
X023108Y017080D01*
X023402Y017080D02*
X023447Y017034D01*
X023537Y017034D01*
X023583Y017080D01*
X023537Y017170D02*
X023447Y017170D01*
X023402Y017125D01*
X023402Y017080D01*
X023537Y017170D02*
X023583Y017215D01*
X023583Y017260D01*
X023537Y017305D01*
X023447Y017305D01*
X023402Y017260D01*
X023447Y018034D02*
X023537Y018034D01*
X023583Y018080D01*
X023537Y018170D02*
X023447Y018170D01*
X023402Y018125D01*
X023402Y018080D01*
X023447Y018034D01*
X023288Y018034D02*
X023153Y018034D01*
X023108Y018080D01*
X023108Y018260D01*
X023153Y018305D01*
X023288Y018305D01*
X023288Y018034D01*
X023402Y018260D02*
X023447Y018305D01*
X023537Y018305D01*
X023583Y018260D01*
X023583Y018215D01*
X023537Y018170D01*
X022993Y018170D02*
X022813Y018170D01*
X022813Y018215D02*
X022813Y018034D01*
X022993Y018034D02*
X022993Y018215D01*
X022903Y018305D01*
X022813Y018215D01*
X022858Y019034D02*
X022948Y019034D01*
X022993Y019080D01*
X022993Y019170D01*
X022948Y019215D01*
X022858Y019215D01*
X022813Y019170D01*
X022813Y019125D01*
X022993Y019125D01*
X023108Y019170D02*
X023153Y019125D01*
X023288Y019125D01*
X023198Y019125D02*
X023108Y019034D01*
X023108Y019170D02*
X023108Y019260D01*
X023153Y019305D01*
X023288Y019305D01*
X023288Y019034D01*
X023402Y019034D02*
X023402Y019215D01*
X023492Y019305D01*
X023583Y019215D01*
X023583Y019034D01*
X023583Y019170D02*
X023402Y019170D01*
X022699Y019170D02*
X022608Y019170D01*
X022654Y019260D02*
X022608Y019305D01*
X022654Y019260D02*
X022654Y019034D01*
X022858Y020031D02*
X022813Y020076D01*
X022813Y020257D01*
X022858Y020302D01*
X022993Y020302D01*
X022993Y020031D01*
X022858Y020031D01*
X023108Y020031D02*
X023108Y020302D01*
X023288Y020302D02*
X023108Y020031D01*
X023288Y020031D02*
X023288Y020302D01*
X023402Y020257D02*
X023447Y020302D01*
X023537Y020302D01*
X023583Y020257D01*
X023583Y020076D01*
X023537Y020031D01*
X023447Y020031D01*
X023402Y020076D01*
X023402Y020166D01*
X023492Y020166D01*
X023426Y021095D02*
X023516Y021185D01*
X023246Y021185D01*
X023246Y021095D02*
X023246Y021275D01*
X023291Y021390D02*
X023246Y021435D01*
X023246Y021525D01*
X023291Y021570D01*
X023336Y021570D01*
X023381Y021525D01*
X023381Y021480D01*
X023381Y021525D02*
X023426Y021570D01*
X023471Y021570D01*
X023516Y021525D01*
X023516Y021435D01*
X023471Y021390D01*
X023426Y022095D02*
X023516Y022185D01*
X023246Y022185D01*
X023246Y022095D02*
X023246Y022275D01*
X023246Y022390D02*
X023426Y022570D01*
X023471Y022570D01*
X023516Y022525D01*
X023516Y022435D01*
X023471Y022390D01*
X023246Y022390D02*
X023246Y022570D01*
X023246Y023095D02*
X023246Y023275D01*
X023246Y023185D02*
X023516Y023185D01*
X023426Y023095D01*
X023426Y023390D02*
X023516Y023480D01*
X023246Y023480D01*
X023246Y023390D02*
X023246Y023570D01*
X023246Y024095D02*
X023246Y024275D01*
X023246Y024185D02*
X023516Y024185D01*
X023426Y024095D01*
X023471Y024390D02*
X023516Y024435D01*
X023516Y024525D01*
X023471Y024570D01*
X023291Y024390D01*
X023246Y024435D01*
X023246Y024525D01*
X023291Y024570D01*
X023471Y024570D01*
X023471Y024390D02*
X023291Y024390D01*
X023291Y025190D02*
X023246Y025235D01*
X023246Y025325D01*
X023291Y025370D01*
X023471Y025370D01*
X023516Y025325D01*
X023516Y025235D01*
X023471Y025190D01*
X023426Y025190D01*
X023381Y025235D01*
X023381Y025370D01*
X023426Y026190D02*
X023471Y026190D01*
X023516Y026235D01*
X023516Y026325D01*
X023471Y026370D01*
X023426Y026370D01*
X023381Y026325D01*
X023381Y026235D01*
X023426Y026190D01*
X023381Y026235D02*
X023336Y026190D01*
X023291Y026190D01*
X023246Y026235D01*
X023246Y026325D01*
X023291Y026370D01*
X023336Y026370D01*
X023381Y026325D01*
X023291Y027790D02*
X023246Y027790D01*
X023291Y027790D02*
X023471Y027970D01*
X023516Y027970D01*
X023516Y027790D01*
X023381Y028790D02*
X023381Y028925D01*
X023336Y028970D01*
X023291Y028970D01*
X023246Y028925D01*
X023246Y028835D01*
X023291Y028790D01*
X023381Y028790D01*
X023471Y028880D01*
X023516Y028970D01*
X023516Y029790D02*
X023381Y029790D01*
X023426Y029880D01*
X023426Y029925D01*
X023381Y029970D01*
X023291Y029970D01*
X023246Y029925D01*
X023246Y029835D01*
X023291Y029790D01*
X023516Y029790D02*
X023516Y029970D01*
X023381Y030790D02*
X023381Y030970D01*
X023516Y030925D02*
X023381Y030790D01*
X023246Y030925D02*
X023516Y030925D01*
X023471Y031790D02*
X023516Y031835D01*
X023516Y031925D01*
X023471Y031970D01*
X023426Y031970D01*
X023381Y031925D01*
X023336Y031970D01*
X023291Y031970D01*
X023246Y031925D01*
X023246Y031835D01*
X023291Y031790D01*
X023381Y031880D02*
X023381Y031925D01*
X023471Y032790D02*
X023516Y032835D01*
X023516Y032925D01*
X023471Y032970D01*
X023426Y032970D01*
X023246Y032790D01*
X023246Y032970D01*
X023246Y033790D02*
X023246Y033970D01*
X023246Y033880D02*
X023516Y033880D01*
X023426Y033790D01*
X023471Y034790D02*
X023516Y034835D01*
X023516Y034925D01*
X023471Y034970D01*
X023291Y034790D01*
X023246Y034835D01*
X023246Y034925D01*
X023291Y034970D01*
X023471Y034970D01*
X023471Y034790D02*
X023291Y034790D01*
X023249Y035681D02*
X023249Y035861D01*
X023158Y035951D01*
X023068Y035861D01*
X023068Y035681D01*
X022954Y035681D02*
X022954Y035951D01*
X022774Y035681D01*
X022774Y035951D01*
X022659Y035951D02*
X022659Y035681D01*
X022659Y035771D02*
X022524Y035771D01*
X022479Y035816D01*
X022479Y035906D01*
X022524Y035951D01*
X022659Y035951D01*
X022569Y035771D02*
X022479Y035681D01*
X022365Y035681D02*
X022184Y035951D01*
X022365Y035951D02*
X022184Y035681D01*
X022184Y036665D02*
X022365Y036935D01*
X022479Y036935D02*
X022659Y036935D01*
X022569Y036935D02*
X022569Y036665D01*
X022365Y036665D02*
X022184Y036935D01*
X022774Y036935D02*
X022774Y036665D01*
X022954Y036935D01*
X022954Y036665D01*
X023068Y036665D02*
X023068Y036845D01*
X023158Y036935D01*
X023249Y036845D01*
X023249Y036665D01*
X023363Y036710D02*
X023408Y036665D01*
X023498Y036665D01*
X023543Y036710D01*
X023543Y036890D01*
X023498Y036935D01*
X023408Y036935D01*
X023363Y036890D01*
X023249Y036800D02*
X023068Y036800D01*
X023408Y035951D02*
X023498Y035951D01*
X023543Y035906D01*
X023543Y035726D01*
X023498Y035681D01*
X023408Y035681D01*
X023363Y035726D01*
X023249Y035816D02*
X023068Y035816D01*
X023363Y035906D02*
X023408Y035951D01*
X022505Y038254D02*
X022505Y039711D01*
X022851Y040523D02*
X022806Y040569D01*
X022806Y040659D01*
X022851Y040704D01*
X022896Y040704D01*
X022941Y040659D01*
X022941Y040569D01*
X022986Y040523D01*
X023031Y040523D01*
X023076Y040569D01*
X023076Y040659D01*
X023031Y040704D01*
X023031Y040818D02*
X022851Y040818D01*
X022806Y040863D01*
X022806Y040953D01*
X022851Y040998D01*
X022941Y040998D01*
X022941Y040908D01*
X023031Y040818D02*
X023076Y040863D01*
X023076Y040953D01*
X023031Y040998D01*
X022986Y041113D02*
X023076Y041203D01*
X022806Y041203D01*
X022806Y041113D02*
X022806Y041293D01*
X022505Y041522D02*
X022505Y042979D01*
X017781Y042979D01*
X017781Y041522D01*
X017237Y041601D02*
X017237Y042624D01*
X016964Y043333D02*
X016964Y043382D01*
X016757Y043382D01*
X016718Y041000D02*
X013293Y041000D01*
X012812Y041601D02*
X012812Y042624D01*
X012544Y042818D02*
X012544Y042908D01*
X012544Y042863D02*
X012319Y042863D01*
X012274Y042818D01*
X012274Y042773D01*
X012319Y042728D01*
X012319Y043023D02*
X012274Y043068D01*
X012274Y043158D01*
X012319Y043203D01*
X012409Y043203D01*
X012454Y043158D01*
X012454Y043113D01*
X012409Y043023D01*
X012544Y043023D01*
X012544Y043203D01*
X013086Y043333D02*
X013086Y043382D01*
X013293Y043382D01*
X015719Y039772D02*
X015989Y039772D01*
X015854Y039637D01*
X015854Y039817D01*
X015809Y039523D02*
X015764Y039523D01*
X015719Y039477D01*
X015719Y039387D01*
X015764Y039342D01*
X015854Y039387D02*
X015854Y039477D01*
X015809Y039523D01*
X015944Y039523D02*
X015989Y039477D01*
X015989Y039387D01*
X015944Y039342D01*
X015899Y039342D01*
X015854Y039387D01*
X017781Y039711D02*
X017781Y038254D01*
X022505Y038254D01*
X020579Y034686D02*
X020669Y034596D01*
X020534Y034596D01*
X020489Y034551D01*
X020489Y034506D01*
X020534Y034460D01*
X020624Y034460D01*
X020669Y034506D01*
X020669Y034596D01*
X020579Y034686D02*
X020489Y034731D01*
X020039Y034809D02*
X019859Y034809D01*
X019859Y034764D01*
X020039Y034584D01*
X020039Y034539D01*
X019252Y034781D02*
X019207Y034736D01*
X019117Y034736D01*
X019072Y034781D01*
X019072Y034961D01*
X019117Y035006D01*
X019207Y035006D01*
X019252Y034961D01*
X019252Y034916D01*
X019207Y034871D01*
X019072Y034871D01*
X018740Y033431D02*
X018650Y033431D01*
X018695Y033431D02*
X018695Y033161D01*
X018740Y033161D02*
X018650Y033161D01*
X018544Y033206D02*
X018499Y033161D01*
X018408Y033161D01*
X018363Y033206D01*
X018249Y033161D02*
X018069Y033161D01*
X018159Y033161D02*
X018159Y033431D01*
X018249Y033341D01*
X018363Y033386D02*
X018408Y033431D01*
X018499Y033431D01*
X018544Y033386D01*
X018544Y033206D01*
X018253Y032743D02*
X018253Y032585D01*
X018253Y032743D02*
X018017Y032979D01*
X017859Y032979D01*
X019190Y033178D02*
X019370Y033178D01*
X019235Y033313D01*
X019235Y033043D01*
X020239Y031660D02*
X020329Y031660D01*
X020374Y031615D01*
X020239Y031660D02*
X020194Y031615D01*
X020194Y031570D01*
X020374Y031390D01*
X020194Y031390D01*
X020489Y031390D02*
X020669Y031390D01*
X020579Y031390D02*
X020579Y031660D01*
X020669Y031570D01*
X020982Y031418D02*
X021162Y031238D01*
X021117Y031193D01*
X021027Y031193D01*
X020982Y031238D01*
X020982Y031418D01*
X021027Y031463D01*
X021117Y031463D01*
X021162Y031418D01*
X021162Y031238D01*
X021276Y031193D02*
X021457Y031193D01*
X021366Y031193D02*
X021366Y031463D01*
X021457Y031373D01*
X021887Y030439D02*
X022067Y030439D01*
X022067Y030304D01*
X021977Y030349D01*
X021932Y030349D01*
X021887Y030304D01*
X021887Y030214D01*
X021932Y030169D01*
X022022Y030169D01*
X022067Y030214D01*
X022182Y030169D02*
X022362Y030169D01*
X022272Y030169D02*
X022272Y030439D01*
X022362Y030349D01*
X022272Y029888D02*
X022272Y029618D01*
X022362Y029618D02*
X022182Y029618D01*
X022067Y029663D02*
X022067Y029753D01*
X021932Y029753D01*
X021887Y029708D01*
X021887Y029663D01*
X021932Y029618D01*
X022022Y029618D01*
X022067Y029663D01*
X022067Y029753D02*
X021977Y029843D01*
X021887Y029888D01*
X022272Y029888D02*
X022362Y029798D01*
X021457Y032768D02*
X021276Y032768D01*
X021366Y032768D02*
X021366Y033038D01*
X021457Y032948D01*
X021162Y032948D02*
X021072Y033038D01*
X021072Y032768D01*
X021162Y032768D02*
X020982Y032768D01*
X021006Y033988D02*
X021097Y033988D01*
X021142Y034033D01*
X021142Y034123D02*
X021052Y034168D01*
X021006Y034168D01*
X020961Y034123D01*
X020961Y034033D01*
X021006Y033988D01*
X021142Y034123D02*
X021142Y034258D01*
X020961Y034258D01*
X019606Y036468D02*
X019651Y036513D01*
X019651Y036603D01*
X019606Y036649D01*
X019426Y036649D01*
X019381Y036603D01*
X019381Y036513D01*
X019426Y036468D01*
X019606Y036468D01*
X019471Y036558D02*
X019381Y036649D01*
X019381Y036763D02*
X019381Y036943D01*
X019381Y036853D02*
X019651Y036853D01*
X019561Y036763D01*
X019606Y037058D02*
X019426Y037058D01*
X019606Y037238D01*
X019426Y037238D01*
X019381Y037193D01*
X019381Y037103D01*
X019426Y037058D01*
X019606Y037058D02*
X019651Y037103D01*
X019651Y037193D01*
X019606Y037238D01*
X018568Y040420D02*
X018568Y040813D01*
X018371Y040617D01*
X018568Y040420D01*
X018568Y040465D02*
X018523Y040465D01*
X018568Y040513D02*
X018475Y040513D01*
X018426Y040562D02*
X018568Y040562D01*
X018568Y040610D02*
X018378Y040610D01*
X018414Y040659D02*
X018568Y040659D01*
X018568Y040707D02*
X018462Y040707D01*
X018511Y040756D02*
X018568Y040756D01*
X018559Y040804D02*
X018568Y040804D01*
X020968Y043358D02*
X020923Y043403D01*
X020923Y043583D01*
X020968Y043628D01*
X021058Y043628D01*
X021103Y043583D01*
X021103Y043538D01*
X021058Y043493D01*
X020923Y043493D01*
X020968Y043358D02*
X021058Y043358D01*
X021103Y043403D01*
X021218Y043358D02*
X021398Y043358D01*
X021308Y043358D02*
X021308Y043628D01*
X021398Y043538D01*
X021513Y043583D02*
X021558Y043628D01*
X021693Y043628D01*
X021693Y043358D01*
X021558Y043358D01*
X021513Y043403D01*
X021513Y043583D01*
X025254Y040631D02*
X025254Y040450D01*
X025299Y040405D01*
X025434Y040405D01*
X025434Y040676D01*
X025299Y040676D01*
X025254Y040631D01*
X025549Y040676D02*
X025549Y040405D01*
X025729Y040676D01*
X025729Y040405D01*
X025843Y040450D02*
X025843Y040540D01*
X025933Y040540D01*
X025843Y040450D02*
X025888Y040405D01*
X025978Y040405D01*
X026023Y040450D01*
X026023Y040631D01*
X025978Y040676D01*
X025888Y040676D01*
X025843Y040631D01*
X026456Y029230D02*
X026826Y029230D01*
X026826Y028861D01*
X026776Y028861D01*
X026776Y029180D01*
X026456Y029180D01*
X026456Y029230D01*
X026456Y029180D02*
X026456Y029130D01*
X025686Y029130D01*
X025686Y026591D01*
X026726Y026591D01*
X026726Y028861D01*
X026776Y028861D01*
X026726Y028861D02*
X026726Y029130D01*
X026456Y029130D01*
X022559Y024540D02*
X022604Y024495D01*
X022604Y024405D01*
X022559Y024360D01*
X022559Y024246D02*
X022378Y024066D01*
X022333Y024111D01*
X022333Y024201D01*
X022378Y024246D01*
X022559Y024246D01*
X022604Y024201D01*
X022604Y024111D01*
X022559Y024066D01*
X022378Y024066D01*
X022333Y023951D02*
X022333Y023771D01*
X022333Y023861D02*
X022604Y023861D01*
X022513Y023771D01*
X022333Y023656D02*
X022333Y023476D01*
X022604Y023476D01*
X022170Y023476D02*
X021900Y023476D01*
X021900Y023656D01*
X021900Y023771D02*
X021900Y023951D01*
X021900Y023861D02*
X022170Y023861D01*
X022080Y023771D01*
X022125Y024066D02*
X021945Y024066D01*
X022125Y024246D01*
X021945Y024246D01*
X021900Y024201D01*
X021900Y024111D01*
X021945Y024066D01*
X022125Y024066D02*
X022170Y024111D01*
X022170Y024201D01*
X022125Y024246D01*
X022170Y024360D02*
X022035Y024360D01*
X022080Y024450D01*
X022080Y024495D01*
X022035Y024540D01*
X021945Y024540D01*
X021900Y024495D01*
X021900Y024405D01*
X021945Y024360D01*
X022170Y024360D02*
X022170Y024540D01*
X022333Y024540D02*
X022333Y024360D01*
X022513Y024540D01*
X022559Y024540D01*
X019882Y026586D02*
X019702Y026857D01*
X019587Y026767D02*
X019497Y026857D01*
X019497Y026586D01*
X019587Y026586D02*
X019407Y026586D01*
X019702Y026586D02*
X019882Y026857D01*
X018253Y025498D02*
X018253Y025105D01*
X017938Y025105D01*
X016397Y022334D02*
X016397Y021734D01*
X016822Y021419D02*
X017092Y021419D01*
X017092Y021329D02*
X017092Y021509D01*
X017047Y021214D02*
X017092Y021169D01*
X017092Y021079D01*
X017047Y021034D01*
X017002Y021034D01*
X016957Y021079D01*
X016957Y021169D01*
X016912Y021214D01*
X016867Y021214D01*
X016822Y021169D01*
X016822Y021079D01*
X016867Y021034D01*
X016822Y020920D02*
X016912Y020829D01*
X016912Y020874D02*
X016912Y020739D01*
X016822Y020739D02*
X017092Y020739D01*
X017092Y020874D01*
X017047Y020920D01*
X016957Y020920D01*
X016912Y020874D01*
X016822Y020625D02*
X017092Y020625D01*
X017092Y020445D02*
X016822Y020625D01*
X016822Y020445D02*
X017092Y020445D01*
X018593Y020405D02*
X018863Y020405D01*
X018593Y020586D01*
X018863Y020586D01*
X018863Y020700D02*
X018863Y020835D01*
X018818Y020880D01*
X018728Y020880D01*
X018683Y020835D01*
X018683Y020700D01*
X018593Y020700D02*
X018863Y020700D01*
X018683Y020790D02*
X018593Y020880D01*
X018638Y020995D02*
X018593Y021040D01*
X018593Y021130D01*
X018638Y021175D01*
X018683Y021175D01*
X018728Y021130D01*
X018728Y021040D01*
X018773Y020995D01*
X018818Y020995D01*
X018863Y021040D01*
X018863Y021130D01*
X018818Y021175D01*
X018863Y021289D02*
X018863Y021469D01*
X018863Y021379D02*
X018593Y021379D01*
X018593Y021584D02*
X018593Y021719D01*
X018638Y021764D01*
X018683Y021764D01*
X018728Y021719D01*
X018728Y021584D01*
X018593Y021584D02*
X018863Y021584D01*
X018863Y021719D01*
X018818Y021764D01*
X018773Y021764D01*
X018728Y021719D01*
X015984Y018242D02*
X016029Y018197D01*
X016029Y018107D01*
X015984Y018062D01*
X015984Y017947D02*
X016029Y017902D01*
X016029Y017812D01*
X015984Y017767D01*
X015804Y017767D01*
X015759Y017812D01*
X015759Y017902D01*
X015804Y017947D01*
X015759Y018062D02*
X015939Y018242D01*
X015984Y018242D01*
X015759Y018242D02*
X015759Y018062D01*
X015759Y017661D02*
X015759Y017571D01*
X015759Y017616D02*
X016029Y017616D01*
X016029Y017571D02*
X016029Y017661D01*
X015458Y017152D02*
X015458Y017034D01*
X015340Y017034D01*
X015307Y018561D02*
X015309Y018571D01*
X015314Y018579D01*
X015322Y018584D01*
X015332Y018586D01*
X015342Y018584D01*
X015350Y018579D01*
X015355Y018571D01*
X015357Y018561D01*
X015355Y018551D01*
X015350Y018543D01*
X015342Y018538D01*
X015332Y018536D01*
X015322Y018538D01*
X015314Y018543D01*
X015309Y018551D01*
X015307Y018561D01*
X015340Y018687D02*
X015458Y018569D01*
X013922Y018687D02*
X013804Y018687D01*
X013804Y018569D01*
X013804Y017152D02*
X013804Y017034D01*
X013922Y017034D01*
X011836Y018806D02*
X011836Y019199D01*
X011375Y019199D01*
X014597Y021734D02*
X014597Y022334D01*
X015234Y022492D02*
X015414Y022492D01*
X015234Y022672D01*
X015234Y022717D01*
X015279Y022762D01*
X015369Y022762D01*
X015414Y022717D01*
X015528Y022762D02*
X015709Y022492D01*
X015528Y022492D02*
X015709Y022762D01*
X012829Y033909D02*
X012874Y033954D01*
X012874Y033999D01*
X012829Y034044D01*
X012739Y034044D01*
X012694Y033999D01*
X012694Y033954D01*
X012739Y033909D01*
X012829Y033909D01*
X012829Y034044D02*
X012874Y034089D01*
X012874Y034134D01*
X012829Y034180D01*
X012739Y034180D01*
X012694Y034134D01*
X012694Y034089D01*
X012739Y034044D01*
X008346Y043358D02*
X008211Y043358D01*
X008166Y043403D01*
X008166Y043583D01*
X008211Y043628D01*
X008346Y043628D01*
X008346Y043358D01*
X008052Y043358D02*
X007872Y043358D01*
X007962Y043358D02*
X007962Y043628D01*
X008052Y043538D01*
X007757Y043538D02*
X007757Y043583D01*
X007712Y043628D01*
X007622Y043628D01*
X007577Y043583D01*
X007577Y043538D01*
X007622Y043493D01*
X007712Y043493D01*
X007757Y043538D01*
X007712Y043493D02*
X007757Y043448D01*
X007757Y043403D01*
X007712Y043358D01*
X007622Y043358D01*
X007577Y043403D01*
X007577Y043448D01*
X007622Y043493D01*
X002795Y043403D02*
X002750Y043358D01*
X002660Y043358D01*
X002615Y043403D01*
X002615Y043448D01*
X002660Y043493D01*
X002705Y043493D01*
X002660Y043493D02*
X002615Y043538D01*
X002615Y043583D01*
X002660Y043628D01*
X002750Y043628D01*
X002795Y043583D01*
X002500Y043628D02*
X002500Y043448D01*
X002410Y043358D01*
X002320Y043448D01*
X002320Y043628D01*
X002206Y043583D02*
X002161Y043628D01*
X002071Y043628D01*
X002026Y043583D01*
X002026Y043538D01*
X002071Y043493D01*
X002026Y043448D01*
X002026Y043403D01*
X002071Y043358D01*
X002161Y043358D01*
X002206Y043403D01*
X002116Y043493D02*
X002071Y043493D01*
D11*
X006772Y036745D02*
X006772Y034735D01*
X006772Y035435D02*
X006772Y033426D01*
X008632Y033426D02*
X008632Y035435D01*
X008632Y034735D02*
X008632Y036745D01*
X010015Y036837D02*
X010072Y036781D01*
X010186Y036781D01*
X010242Y036837D01*
X010242Y036951D01*
X010186Y037007D01*
X010129Y037007D01*
X010129Y036781D01*
X010015Y036837D02*
X010015Y036951D01*
X010072Y037206D02*
X010015Y037262D01*
X010072Y037206D02*
X010299Y037206D01*
X010242Y037262D02*
X010242Y037149D01*
X010541Y037109D02*
X010541Y036609D01*
X010791Y036359D01*
X012291Y036359D01*
X012541Y036609D01*
X012541Y037109D01*
X012291Y037359D01*
X010791Y037359D01*
X010541Y037609D01*
X010541Y038109D01*
X010791Y038359D01*
X012291Y038359D01*
X012541Y038609D01*
X012541Y039109D01*
X012291Y039359D01*
X010791Y039359D01*
X010541Y039609D01*
X010541Y040109D01*
X010791Y040359D01*
X012291Y040359D01*
X012541Y040609D01*
X012541Y041109D01*
X012291Y041359D01*
X010791Y041359D01*
X010541Y041109D01*
X010541Y040609D01*
X010791Y040359D01*
X010791Y039359D02*
X010541Y039109D01*
X010541Y038609D01*
X010791Y038359D01*
X010791Y037359D02*
X010541Y037109D01*
X010186Y036639D02*
X010015Y036639D01*
X010186Y036639D02*
X010242Y036582D01*
X010242Y036412D01*
X010015Y036412D01*
X010242Y036275D02*
X010242Y036219D01*
X010129Y036105D01*
X010242Y036105D02*
X010015Y036105D01*
X010129Y035964D02*
X010129Y035737D01*
X010186Y035737D02*
X010242Y035794D01*
X010242Y035907D01*
X010186Y035964D01*
X010129Y035964D01*
X010015Y035907D02*
X010015Y035794D01*
X010072Y035737D01*
X010186Y035737D01*
X010186Y035596D02*
X010015Y035596D01*
X010186Y035596D02*
X010242Y035539D01*
X010242Y035425D01*
X010186Y035369D01*
X010242Y035237D02*
X010242Y035123D01*
X010299Y035180D02*
X010072Y035180D01*
X010015Y035237D01*
X010015Y035369D02*
X010356Y035369D01*
X010541Y035609D02*
X010541Y036109D01*
X010791Y036359D01*
X010541Y035609D02*
X010791Y035359D01*
X012291Y035359D01*
X012541Y035609D01*
X012541Y036109D01*
X012291Y036359D01*
X012291Y035359D02*
X012541Y035109D01*
X012541Y034609D01*
X012291Y034359D01*
X010791Y034359D01*
X010541Y034609D01*
X010541Y035109D01*
X010791Y035359D01*
X010356Y034982D02*
X010356Y034755D01*
X010015Y034755D01*
X010015Y034982D01*
X010186Y034868D02*
X010186Y034755D01*
X010244Y034495D02*
X010244Y034269D01*
X010244Y034382D02*
X010584Y034382D01*
X010471Y034269D01*
X012291Y037359D02*
X012541Y037609D01*
X012541Y038109D01*
X012291Y038359D01*
X012291Y039359D02*
X012541Y039609D01*
X012541Y040109D01*
X012291Y040359D01*
X012291Y041359D02*
X012541Y041609D01*
X012541Y042109D01*
X012291Y042359D01*
X010791Y042359D01*
X010541Y042109D01*
X010541Y041609D01*
X010791Y041359D01*
X013841Y038629D02*
X013955Y038629D01*
X013898Y038686D02*
X013898Y038459D01*
X013841Y038402D01*
X014096Y038516D02*
X014323Y038516D01*
X014323Y038573D02*
X014266Y038629D01*
X014153Y038629D01*
X014096Y038573D01*
X014096Y038516D01*
X014153Y038402D02*
X014266Y038402D01*
X014323Y038459D01*
X014323Y038573D01*
X014464Y038629D02*
X014635Y038629D01*
X014691Y038573D01*
X014635Y038516D01*
X014521Y038516D01*
X014464Y038459D01*
X014521Y038402D01*
X014691Y038402D01*
X014833Y038516D02*
X015060Y038516D01*
X015060Y038573D02*
X015003Y038629D01*
X014889Y038629D01*
X014833Y038573D01*
X014833Y038516D01*
X014889Y038402D02*
X015003Y038402D01*
X015060Y038459D01*
X015060Y038573D01*
X015201Y038573D02*
X015258Y038516D01*
X015428Y038516D01*
X015314Y038516D02*
X015201Y038402D01*
X015201Y038573D02*
X015201Y038686D01*
X015258Y038743D01*
X015428Y038743D01*
X015428Y038402D01*
X016286Y039584D02*
X016286Y039640D01*
X016059Y039867D01*
X016059Y039924D01*
X016286Y039924D01*
X016427Y039924D02*
X016541Y039924D01*
X016484Y039924D02*
X016484Y039640D01*
X016541Y039584D01*
X016597Y039584D01*
X016654Y039640D01*
X016796Y039640D02*
X016852Y039584D01*
X016966Y039584D01*
X017022Y039640D01*
X016966Y039754D02*
X016852Y039754D01*
X016796Y039697D01*
X016796Y039640D01*
X016966Y039754D02*
X017022Y039810D01*
X017022Y039867D01*
X016966Y039924D01*
X016852Y039924D01*
X016796Y039867D01*
X016748Y037266D02*
X016861Y037210D01*
X016975Y037096D01*
X016805Y037096D01*
X016748Y037040D01*
X016748Y036983D01*
X016805Y036926D01*
X016918Y036926D01*
X016975Y036983D01*
X016975Y037096D01*
X017116Y037266D02*
X017230Y037266D01*
X017173Y037266D02*
X017173Y036983D01*
X017230Y036926D01*
X017286Y036926D01*
X017343Y036983D01*
X017485Y036983D02*
X017541Y036926D01*
X017655Y036926D01*
X017711Y036983D01*
X017655Y037096D02*
X017541Y037096D01*
X017485Y037040D01*
X017485Y036983D01*
X017655Y037096D02*
X017711Y037153D01*
X017711Y037210D01*
X017655Y037266D01*
X017541Y037266D01*
X017485Y037210D01*
X017730Y036728D02*
X017673Y036671D01*
X017673Y036558D01*
X017730Y036501D01*
X017843Y036615D02*
X017843Y036671D01*
X017786Y036728D01*
X017730Y036728D01*
X017843Y036671D02*
X017900Y036728D01*
X017957Y036728D01*
X018013Y036671D01*
X018013Y036558D01*
X017957Y036501D01*
X018013Y036360D02*
X018013Y036246D01*
X018013Y036303D02*
X017730Y036303D01*
X017673Y036246D01*
X017673Y036190D01*
X017730Y036133D01*
X017730Y035992D02*
X017673Y035935D01*
X017673Y035821D01*
X017730Y035765D01*
X017843Y035821D02*
X017843Y035935D01*
X017786Y035992D01*
X017730Y035992D01*
X017843Y035821D02*
X017900Y035765D01*
X017957Y035765D01*
X018013Y035821D01*
X018013Y035935D01*
X017957Y035992D01*
X018168Y035786D02*
X018168Y036786D01*
X018170Y036803D01*
X018174Y036820D01*
X018181Y036836D01*
X018191Y036850D01*
X018204Y036863D01*
X018218Y036873D01*
X018234Y036880D01*
X018251Y036884D01*
X018268Y036886D01*
X018868Y036886D01*
X018885Y036884D01*
X018902Y036880D01*
X018918Y036873D01*
X018932Y036863D01*
X018945Y036850D01*
X018955Y036836D01*
X018962Y036820D01*
X018966Y036803D01*
X018968Y036786D01*
X018968Y035786D01*
X018966Y035769D01*
X018962Y035752D01*
X018955Y035736D01*
X018945Y035722D01*
X018932Y035709D01*
X018918Y035699D01*
X018902Y035692D01*
X018885Y035688D01*
X018868Y035686D01*
X018268Y035686D01*
X018251Y035688D01*
X018234Y035692D01*
X018218Y035699D01*
X018204Y035709D01*
X018191Y035722D01*
X018181Y035736D01*
X018174Y035752D01*
X018170Y035769D01*
X018168Y035786D01*
X017009Y035788D02*
X017009Y035675D01*
X017009Y035731D02*
X016669Y035731D01*
X016669Y035675D02*
X016669Y035788D01*
X016839Y035533D02*
X016782Y035476D01*
X016782Y035306D01*
X016669Y035306D02*
X017009Y035306D01*
X017009Y035476D01*
X016953Y035533D01*
X016839Y035533D01*
X016782Y035165D02*
X016726Y035165D01*
X016669Y035108D01*
X016669Y034995D01*
X016726Y034938D01*
X016839Y034995D02*
X016839Y035108D01*
X016782Y035165D01*
X016953Y035165D02*
X017009Y035108D01*
X017009Y034995D01*
X016953Y034938D01*
X016896Y034938D01*
X016839Y034995D01*
X016541Y034609D02*
X016541Y036109D01*
X016291Y036359D01*
X015791Y036359D01*
X015541Y036109D01*
X015291Y036359D01*
X014791Y036359D01*
X014541Y036109D01*
X014291Y036359D01*
X013791Y036359D01*
X013541Y036109D01*
X013541Y034609D01*
X013791Y034359D01*
X014291Y034359D01*
X014541Y034609D01*
X014791Y034359D01*
X015291Y034359D01*
X015541Y034609D01*
X015791Y034359D01*
X016291Y034359D01*
X016541Y034609D01*
X019351Y035608D02*
X019351Y036334D01*
X019714Y036334D01*
X019714Y035608D01*
X019351Y035608D01*
X013505Y034461D02*
X013165Y034461D01*
X013165Y034574D02*
X013165Y034347D01*
X013392Y034347D02*
X013505Y034461D01*
X010364Y023067D02*
X009764Y023067D01*
X009747Y023065D01*
X009730Y023061D01*
X009714Y023054D01*
X009700Y023044D01*
X009687Y023031D01*
X009677Y023017D01*
X009670Y023001D01*
X009666Y022984D01*
X009664Y022967D01*
X009664Y021967D01*
X009666Y021950D01*
X009670Y021933D01*
X009677Y021917D01*
X009687Y021903D01*
X009700Y021890D01*
X009714Y021880D01*
X009730Y021873D01*
X009747Y021869D01*
X009764Y021867D01*
X010364Y021867D01*
X010381Y021869D01*
X010398Y021873D01*
X010414Y021880D01*
X010428Y021890D01*
X010441Y021903D01*
X010451Y021917D01*
X010458Y021933D01*
X010462Y021950D01*
X010464Y021967D01*
X010464Y022967D01*
X010462Y022984D01*
X010458Y023001D01*
X010451Y023017D01*
X010441Y023031D01*
X010428Y023044D01*
X010414Y023054D01*
X010398Y023061D01*
X010381Y023065D01*
X010364Y023067D01*
X016394Y015207D02*
X016394Y014845D01*
X017120Y014845D01*
X017120Y015207D01*
X016394Y015207D01*
X017599Y015096D02*
X017962Y015096D01*
X017962Y015822D01*
X017599Y015822D01*
X017599Y015096D01*
X018784Y015094D02*
X019301Y015094D01*
X019301Y014697D01*
X019301Y014273D02*
X019301Y013856D01*
X018784Y013856D01*
X018781Y014303D02*
X018781Y014641D01*
X021418Y012515D02*
X021418Y011789D01*
X021781Y011789D01*
X021781Y012515D01*
X021418Y012515D01*
X022536Y010758D02*
X022536Y010396D01*
X023262Y010396D01*
X023262Y010758D01*
X022536Y010758D01*
X022678Y011277D02*
X023041Y011277D01*
X023041Y012003D01*
X022678Y012003D01*
X022678Y011277D01*
X024071Y010207D02*
X024071Y009845D01*
X024797Y009845D01*
X024797Y010207D01*
X024071Y010207D01*
X024804Y009326D02*
X024804Y008600D01*
X025167Y008600D01*
X025167Y009326D01*
X024804Y009326D01*
X024128Y007648D02*
X023402Y007648D01*
X023402Y007286D01*
X024128Y007286D01*
X024128Y007648D01*
X025190Y006499D02*
X025361Y006329D01*
X025134Y006329D01*
X025190Y006499D02*
X025190Y006158D01*
X025502Y006499D02*
X025615Y006499D01*
X025559Y006499D02*
X025559Y006215D01*
X025615Y006158D01*
X025672Y006158D01*
X025729Y006215D01*
X025870Y006215D02*
X025927Y006158D01*
X026040Y006158D01*
X026097Y006215D01*
X026040Y006329D02*
X025927Y006329D01*
X025870Y006272D01*
X025870Y006215D01*
X026040Y006329D02*
X026097Y006385D01*
X026097Y006442D01*
X026040Y006499D01*
X025927Y006499D01*
X025870Y006442D01*
X018304Y020135D02*
X018361Y020191D01*
X018304Y020135D02*
X018191Y020135D01*
X018134Y020191D01*
X018134Y020248D01*
X018191Y020305D01*
X018304Y020305D01*
X018361Y020362D01*
X018361Y020418D01*
X018304Y020475D01*
X018191Y020475D01*
X018134Y020418D01*
X017879Y020475D02*
X017766Y020475D01*
X017823Y020475D02*
X017823Y020191D01*
X017879Y020135D01*
X017936Y020135D01*
X017993Y020191D01*
X017624Y020191D02*
X017568Y020135D01*
X017454Y020135D01*
X017398Y020191D01*
X017398Y020305D01*
X017454Y020362D01*
X017511Y020362D01*
X017624Y020305D01*
X017624Y020475D01*
X017398Y020475D01*
X017359Y020650D02*
X018359Y020650D01*
X018376Y020652D01*
X018393Y020656D01*
X018409Y020663D01*
X018423Y020673D01*
X018436Y020686D01*
X018446Y020700D01*
X018453Y020716D01*
X018457Y020733D01*
X018459Y020750D01*
X018459Y021350D01*
X018457Y021367D01*
X018453Y021384D01*
X018446Y021400D01*
X018436Y021414D01*
X018423Y021427D01*
X018409Y021437D01*
X018393Y021444D01*
X018376Y021448D01*
X018359Y021450D01*
X017359Y021450D01*
X017342Y021448D01*
X017325Y021444D01*
X017309Y021437D01*
X017295Y021427D01*
X017282Y021414D01*
X017272Y021400D01*
X017265Y021384D01*
X017261Y021367D01*
X017259Y021350D01*
X017259Y020750D01*
X017261Y020733D01*
X017265Y020716D01*
X017272Y020700D01*
X017282Y020686D01*
X017295Y020673D01*
X017309Y020663D01*
X017325Y020656D01*
X017342Y020652D01*
X017359Y020650D01*
X011739Y012252D02*
X011739Y009612D01*
X010279Y009612D01*
X010279Y010242D01*
X009849Y010015D02*
X009332Y010015D01*
X009332Y009598D01*
X009332Y009174D02*
X009332Y008777D01*
X009849Y008777D01*
X009852Y009230D02*
X009852Y009568D01*
X010279Y011622D02*
X010279Y012252D01*
X011739Y012252D01*
X011812Y007712D02*
X011812Y006986D01*
X012175Y006986D01*
X012175Y007712D01*
X011812Y007712D01*
X007954Y011589D02*
X007897Y011532D01*
X007841Y011532D01*
X007784Y011589D01*
X007784Y011703D01*
X007727Y011759D01*
X007671Y011759D01*
X007614Y011703D01*
X007614Y011589D01*
X007671Y011532D01*
X007954Y011589D02*
X007954Y011703D01*
X007897Y011759D01*
X007954Y012014D02*
X007954Y012128D01*
X007954Y012071D02*
X007671Y012071D01*
X007614Y012014D01*
X007614Y011957D01*
X007671Y011901D01*
X007614Y012269D02*
X007614Y012496D01*
X007614Y012382D02*
X007954Y012382D01*
X007841Y012269D01*
X006923Y010877D02*
X006197Y010877D01*
X006197Y010514D01*
X006923Y010514D01*
X006923Y010877D01*
X005749Y011550D02*
X005693Y011493D01*
X005636Y011493D01*
X005579Y011550D01*
X005579Y011663D01*
X005523Y011720D01*
X005466Y011720D01*
X005409Y011663D01*
X005409Y011550D01*
X005466Y011493D01*
X005749Y011550D02*
X005749Y011663D01*
X005693Y011720D01*
X005749Y011975D02*
X005749Y012088D01*
X005749Y012031D02*
X005466Y012031D01*
X005409Y011975D01*
X005409Y011918D01*
X005466Y011861D01*
X005409Y012230D02*
X005409Y012457D01*
X005409Y012230D02*
X005636Y012457D01*
X005693Y012457D01*
X005749Y012400D01*
X005749Y012286D01*
X005693Y012230D01*
X004096Y021906D02*
X003756Y021906D01*
X003756Y022133D01*
X003756Y022275D02*
X003982Y022275D01*
X003869Y022275D02*
X003982Y022388D01*
X003982Y022445D01*
X003982Y022638D02*
X003982Y022752D01*
X003926Y022809D01*
X003756Y022809D01*
X003756Y022638D01*
X003812Y022582D01*
X003869Y022638D01*
X003869Y022809D01*
X003926Y022950D02*
X003982Y023007D01*
X003982Y023177D01*
X003869Y023120D02*
X003869Y023007D01*
X003926Y022950D01*
X003756Y022950D02*
X003756Y023120D01*
X003812Y023177D01*
X003869Y023120D01*
X003869Y023318D02*
X003869Y023545D01*
X003926Y023545D01*
X003982Y023488D01*
X003982Y023375D01*
X003926Y023318D01*
X003812Y023318D01*
X003756Y023375D01*
X003756Y023488D01*
X004096Y022133D02*
X004096Y021906D01*
X003926Y021906D02*
X003926Y022020D01*
X025488Y030135D02*
X025601Y030248D01*
X025545Y030248D02*
X025715Y030248D01*
X025715Y030135D02*
X025715Y030475D01*
X025545Y030475D01*
X025488Y030418D01*
X025488Y030305D01*
X025545Y030248D01*
X025856Y030475D02*
X026083Y030475D01*
X025970Y030475D02*
X025970Y030135D01*
X026225Y030191D02*
X026225Y030418D01*
X026281Y030475D01*
X026452Y030475D01*
X026452Y030135D01*
X026281Y030135D01*
X026225Y030191D01*
X026338Y031135D02*
X026338Y031475D01*
X026225Y031475D02*
X026452Y031475D01*
X026083Y031475D02*
X025856Y031135D01*
X026083Y031135D02*
X025856Y031475D01*
X025856Y032135D02*
X026083Y032475D01*
X026225Y032418D02*
X026225Y032305D01*
X026281Y032248D01*
X026452Y032248D01*
X026452Y032135D02*
X026452Y032475D01*
X026281Y032475D01*
X026225Y032418D01*
X026338Y032248D02*
X026225Y032135D01*
X026083Y032135D02*
X025856Y032475D01*
X025970Y033135D02*
X025856Y033248D01*
X025856Y033475D01*
X025715Y033418D02*
X025658Y033475D01*
X025545Y033475D01*
X025488Y033418D01*
X025488Y033362D01*
X025545Y033305D01*
X025488Y033248D01*
X025488Y033191D01*
X025545Y033135D01*
X025658Y033135D01*
X025715Y033191D01*
X025601Y033305D02*
X025545Y033305D01*
X025970Y033135D02*
X026083Y033248D01*
X026083Y033475D01*
X026225Y033418D02*
X026225Y033362D01*
X026281Y033305D01*
X026225Y033248D01*
X026225Y033191D01*
X026281Y033135D01*
X026395Y033135D01*
X026452Y033191D01*
X026338Y033305D02*
X026281Y033305D01*
X026225Y033418D02*
X026281Y033475D01*
X026395Y033475D01*
X026452Y033418D01*
X026395Y034135D02*
X026281Y034135D01*
X026225Y034191D01*
X026395Y034135D02*
X026452Y034191D01*
X026452Y034418D01*
X026395Y034475D01*
X026281Y034475D01*
X026225Y034418D01*
X026083Y034475D02*
X025856Y034475D01*
X025970Y034475D02*
X025970Y034135D01*
X025715Y034191D02*
X025658Y034135D01*
X025545Y034135D01*
X025488Y034191D01*
X025488Y034248D01*
X025545Y034305D01*
X025658Y034305D01*
X025715Y034362D01*
X025715Y034418D01*
X025658Y034475D01*
X025545Y034475D01*
X025488Y034418D01*
X025545Y035135D02*
X025488Y035191D01*
X025488Y035418D01*
X025545Y035475D01*
X025715Y035475D01*
X025715Y035135D01*
X025545Y035135D01*
X025856Y035135D02*
X025856Y035475D01*
X026083Y035475D02*
X025856Y035135D01*
X026083Y035135D02*
X026083Y035475D01*
X026225Y035418D02*
X026281Y035475D01*
X026395Y035475D01*
X026452Y035418D01*
X026452Y035191D01*
X026395Y035135D01*
X026281Y035135D01*
X026225Y035191D01*
X026225Y035305D01*
X026338Y035305D01*
X026618Y026459D02*
X026732Y026459D01*
X026675Y026459D02*
X026675Y026176D01*
X026732Y026119D01*
X026789Y026119D01*
X026845Y026176D01*
X026477Y026346D02*
X026364Y026346D01*
X026420Y026403D02*
X026420Y026176D01*
X026364Y026119D01*
X026231Y026176D02*
X026175Y026232D01*
X026005Y026232D01*
X026005Y026289D02*
X026005Y026119D01*
X026175Y026119D01*
X026231Y026176D01*
X026175Y026346D02*
X026061Y026346D01*
X026005Y026289D01*
X025863Y026289D02*
X025863Y026176D01*
X025806Y026119D01*
X025636Y026119D01*
X025636Y026062D02*
X025636Y026346D01*
X025806Y026346D01*
X025863Y026289D01*
X025750Y026006D02*
X025693Y026006D01*
X025636Y026062D01*
D12*
X025756Y025837D02*
X025756Y025637D01*
X025823Y025637D02*
X025689Y025637D01*
X025723Y025522D02*
X025789Y025522D01*
X025823Y025488D01*
X025910Y025488D02*
X025944Y025522D01*
X026010Y025522D01*
X026044Y025488D01*
X026131Y025488D02*
X026131Y025422D01*
X026165Y025388D01*
X026265Y025388D01*
X026265Y025322D02*
X026265Y025522D01*
X026165Y025522D01*
X026131Y025488D01*
X026198Y025388D02*
X026131Y025322D01*
X026044Y025322D02*
X025910Y025455D01*
X025910Y025488D01*
X025910Y025637D02*
X026044Y025637D01*
X025910Y025770D01*
X025910Y025803D01*
X025944Y025837D01*
X026010Y025837D01*
X026044Y025803D01*
X026131Y025803D02*
X026131Y025737D01*
X026165Y025703D01*
X026265Y025703D01*
X026265Y025637D02*
X026265Y025837D01*
X026165Y025837D01*
X026131Y025803D01*
X026198Y025703D02*
X026131Y025637D01*
X026044Y025322D02*
X025910Y025322D01*
X025823Y025322D02*
X025689Y025455D01*
X025689Y025488D01*
X025723Y025522D01*
X025689Y025322D02*
X025823Y025322D01*
X025789Y025049D02*
X025723Y025049D01*
X025689Y025016D01*
X025689Y024983D01*
X025723Y024949D01*
X025689Y024916D01*
X025689Y024883D01*
X025723Y024849D01*
X025789Y024849D01*
X025823Y024883D01*
X025910Y024849D02*
X026044Y024849D01*
X025910Y024983D01*
X025910Y025016D01*
X025944Y025049D01*
X026010Y025049D01*
X026044Y025016D01*
X026131Y025016D02*
X026131Y024949D01*
X026165Y024916D01*
X026265Y024916D01*
X026265Y024849D02*
X026265Y025049D01*
X026165Y025049D01*
X026131Y025016D01*
X026198Y024916D02*
X026131Y024849D01*
X026165Y024734D02*
X026131Y024701D01*
X026131Y024634D01*
X026165Y024601D01*
X026265Y024601D01*
X026265Y024534D02*
X026265Y024734D01*
X026165Y024734D01*
X026044Y024701D02*
X026010Y024734D01*
X025944Y024734D01*
X025910Y024701D01*
X025910Y024668D01*
X026044Y024534D01*
X025910Y024534D01*
X025910Y024419D02*
X025910Y024386D01*
X026044Y024253D01*
X026044Y024219D01*
X026131Y024219D02*
X026198Y024286D01*
X026165Y024286D02*
X026265Y024286D01*
X026265Y024219D02*
X026265Y024419D01*
X026165Y024419D01*
X026131Y024386D01*
X026131Y024319D01*
X026165Y024286D01*
X026044Y024419D02*
X025910Y024419D01*
X025723Y024534D02*
X025723Y024734D01*
X025823Y024634D01*
X025689Y024634D01*
X025723Y024949D02*
X025756Y024949D01*
X025823Y025016D02*
X025789Y025049D01*
X025823Y025770D02*
X025756Y025837D01*
X026198Y024601D02*
X026131Y024534D01*
X022446Y019616D02*
X022346Y019616D01*
X022312Y019583D01*
X022312Y019516D01*
X022346Y019483D01*
X022446Y019483D01*
X022446Y019416D02*
X022446Y019616D01*
X022379Y019483D02*
X022312Y019416D01*
X022225Y019416D02*
X022091Y019416D01*
X022158Y019416D02*
X022158Y019616D01*
X022225Y019550D01*
X022004Y019583D02*
X021970Y019616D01*
X021904Y019616D01*
X021870Y019583D01*
X022004Y019449D01*
X021970Y019416D01*
X021904Y019416D01*
X021870Y019449D01*
X021870Y019583D01*
X021783Y019583D02*
X021749Y019616D01*
X021683Y019616D01*
X021649Y019583D01*
X021649Y019550D01*
X021783Y019416D01*
X021649Y019416D01*
X022004Y019449D02*
X022004Y019583D01*
X021747Y021581D02*
X021614Y021581D01*
X021580Y021615D01*
X021580Y021682D01*
X021614Y021715D01*
X021580Y021802D02*
X021580Y021936D01*
X021580Y021869D02*
X021780Y021869D01*
X021714Y021802D01*
X021747Y021715D02*
X021780Y021682D01*
X021780Y021615D01*
X021747Y021581D01*
X021747Y022023D02*
X021780Y022057D01*
X021780Y022124D01*
X021747Y022157D01*
X021614Y022023D01*
X021580Y022057D01*
X021580Y022124D01*
X021614Y022157D01*
X021747Y022157D01*
X021747Y022244D02*
X021780Y022278D01*
X021780Y022345D01*
X021747Y022378D01*
X021714Y022378D01*
X021580Y022244D01*
X021580Y022378D01*
X021614Y022023D02*
X021747Y022023D01*
X021623Y023038D02*
X021423Y023038D01*
X021490Y023038D02*
X021490Y023138D01*
X021523Y023172D01*
X021590Y023172D01*
X021623Y023138D01*
X021623Y023038D01*
X021490Y023105D02*
X021423Y023172D01*
X021423Y023259D02*
X021423Y023393D01*
X021423Y023326D02*
X021623Y023326D01*
X021556Y023259D01*
X021590Y023480D02*
X021623Y023513D01*
X021623Y023580D01*
X021590Y023614D01*
X021456Y023480D01*
X021423Y023513D01*
X021423Y023580D01*
X021456Y023614D01*
X021590Y023614D01*
X021623Y023701D02*
X021623Y023835D01*
X021590Y023835D01*
X021456Y023701D01*
X021423Y023701D01*
X021456Y023480D02*
X021590Y023480D01*
X020206Y023513D02*
X020172Y023480D01*
X020206Y023513D02*
X020206Y023580D01*
X020172Y023614D01*
X020139Y023614D01*
X020005Y023480D01*
X020005Y023614D01*
X020039Y023701D02*
X020005Y023734D01*
X020005Y023801D01*
X020039Y023835D01*
X020106Y023835D01*
X020139Y023801D01*
X020139Y023768D01*
X020106Y023701D01*
X020206Y023701D01*
X020206Y023835D01*
X020005Y023393D02*
X020005Y023259D01*
X020005Y023326D02*
X020206Y023326D01*
X020139Y023259D01*
X020172Y023172D02*
X020206Y023138D01*
X020206Y023072D01*
X020172Y023038D01*
X020039Y023038D01*
X020005Y023072D01*
X020005Y023138D01*
X020039Y023172D01*
X019539Y023729D02*
X019405Y023729D01*
X019372Y023762D01*
X019372Y023829D01*
X019405Y023862D01*
X019372Y023950D02*
X019372Y024083D01*
X019372Y024017D02*
X019572Y024017D01*
X019505Y023950D01*
X019539Y023862D02*
X019572Y023829D01*
X019572Y023762D01*
X019539Y023729D01*
X019539Y024171D02*
X019572Y024204D01*
X019572Y024271D01*
X019539Y024304D01*
X019505Y024304D01*
X019372Y024171D01*
X019372Y024304D01*
X019372Y024392D02*
X019505Y024525D01*
X019539Y024525D01*
X019572Y024492D01*
X019572Y024425D01*
X019539Y024392D01*
X019372Y024392D02*
X019372Y024525D01*
X018666Y024144D02*
X018666Y023944D01*
X018666Y024010D02*
X018566Y024010D01*
X018533Y024044D01*
X018533Y024110D01*
X018566Y024144D01*
X018666Y024144D01*
X018600Y024010D02*
X018533Y023944D01*
X018445Y023944D02*
X018312Y023944D01*
X018379Y023944D02*
X018379Y024144D01*
X018445Y024077D01*
X018224Y024110D02*
X018224Y023977D01*
X018091Y024110D01*
X018091Y023977D01*
X018124Y023944D01*
X018191Y023944D01*
X018224Y023977D01*
X018224Y024110D02*
X018191Y024144D01*
X018124Y024144D01*
X018091Y024110D01*
X018003Y024144D02*
X018003Y024044D01*
X017937Y024077D01*
X017903Y024077D01*
X017870Y024044D01*
X017870Y023977D01*
X017903Y023944D01*
X017970Y023944D01*
X018003Y023977D01*
X018003Y024144D02*
X017870Y024144D01*
X017858Y022963D02*
X017824Y022929D01*
X017824Y022863D01*
X017858Y022829D01*
X017958Y022829D01*
X017958Y022763D02*
X017958Y022963D01*
X017858Y022963D01*
X017891Y022829D02*
X017824Y022763D01*
X017737Y022763D02*
X017603Y022763D01*
X017670Y022763D02*
X017670Y022963D01*
X017737Y022896D01*
X017516Y022929D02*
X017482Y022963D01*
X017416Y022963D01*
X017382Y022929D01*
X017516Y022796D01*
X017482Y022763D01*
X017416Y022763D01*
X017382Y022796D01*
X017382Y022929D01*
X017295Y022863D02*
X017195Y022863D01*
X017161Y022829D01*
X017161Y022796D01*
X017195Y022763D01*
X017261Y022763D01*
X017295Y022796D01*
X017295Y022863D01*
X017228Y022929D01*
X017161Y022963D01*
X016820Y023314D02*
X016820Y023414D01*
X016786Y023447D01*
X016720Y023447D01*
X016686Y023414D01*
X016686Y023314D01*
X016620Y023314D02*
X016820Y023314D01*
X016686Y023380D02*
X016620Y023447D01*
X016620Y023535D02*
X016620Y023668D01*
X016620Y023601D02*
X016820Y023601D01*
X016753Y023535D01*
X016786Y023756D02*
X016820Y023789D01*
X016820Y023856D01*
X016786Y023889D01*
X016653Y023756D01*
X016620Y023789D01*
X016620Y023856D01*
X016653Y023889D01*
X016786Y023889D01*
X016786Y023977D02*
X016753Y023977D01*
X016720Y024010D01*
X016720Y024110D01*
X016786Y024110D02*
X016820Y024077D01*
X016820Y024010D01*
X016786Y023977D01*
X016653Y023977D02*
X016620Y024010D01*
X016620Y024077D01*
X016653Y024110D01*
X016786Y024110D01*
X016786Y023756D02*
X016653Y023756D01*
X015875Y023665D02*
X015675Y023665D01*
X015675Y023598D02*
X015675Y023732D01*
X015775Y023819D02*
X015775Y023953D01*
X015875Y023919D02*
X015775Y023819D01*
X015675Y023919D02*
X015875Y023919D01*
X015875Y023665D02*
X015808Y023598D01*
X015675Y023511D02*
X015675Y023377D01*
X015675Y023444D02*
X015875Y023444D01*
X015808Y023377D01*
X015842Y023290D02*
X015875Y023256D01*
X015875Y023190D01*
X015842Y023156D01*
X015708Y023156D01*
X015675Y023190D01*
X015675Y023256D01*
X015708Y023290D01*
X015556Y023347D02*
X015523Y023314D01*
X015456Y023314D01*
X015423Y023347D01*
X015335Y023347D02*
X015302Y023314D01*
X015235Y023314D01*
X015202Y023347D01*
X015202Y023481D01*
X015235Y023514D01*
X015302Y023514D01*
X015335Y023481D01*
X015335Y023447D01*
X015302Y023414D01*
X015202Y023414D01*
X015202Y023629D02*
X015403Y023629D01*
X015403Y023729D01*
X015369Y023762D01*
X015302Y023762D01*
X015269Y023729D01*
X015269Y023629D01*
X015269Y023695D02*
X015202Y023762D01*
X015202Y023850D02*
X015202Y023983D01*
X015202Y023916D02*
X015403Y023916D01*
X015336Y023850D01*
X015369Y024071D02*
X015403Y024104D01*
X015403Y024171D01*
X015369Y024204D01*
X015236Y024071D01*
X015202Y024104D01*
X015202Y024171D01*
X015236Y024204D01*
X015369Y024204D01*
X015369Y024292D02*
X015336Y024292D01*
X015302Y024325D01*
X015302Y024392D01*
X015269Y024425D01*
X015236Y024425D01*
X015202Y024392D01*
X015202Y024325D01*
X015236Y024292D01*
X015269Y024292D01*
X015302Y024325D01*
X015302Y024392D02*
X015336Y024425D01*
X015369Y024425D01*
X015403Y024392D01*
X015403Y024325D01*
X015369Y024292D01*
X015369Y024071D02*
X015236Y024071D01*
X015456Y023514D02*
X015523Y023514D01*
X015556Y023481D01*
X015556Y023347D01*
X015423Y023481D02*
X015456Y023514D01*
X014497Y023483D02*
X014297Y023483D01*
X014297Y023417D02*
X014297Y023550D01*
X014297Y023638D02*
X014297Y023771D01*
X014297Y023704D02*
X014497Y023704D01*
X014430Y023638D01*
X014497Y023483D02*
X014430Y023417D01*
X014464Y023329D02*
X014497Y023296D01*
X014497Y023229D01*
X014464Y023196D01*
X014330Y023196D01*
X014297Y023229D01*
X014297Y023296D01*
X014330Y023329D01*
X014330Y023859D02*
X014297Y023892D01*
X014297Y023959D01*
X014330Y023992D01*
X014397Y023992D01*
X014430Y023959D01*
X014430Y023925D01*
X014397Y023859D01*
X014497Y023859D01*
X014497Y023992D01*
X013828Y022699D02*
X013728Y022599D01*
X013728Y022732D01*
X013628Y022699D02*
X013828Y022699D01*
X013794Y022511D02*
X013661Y022378D01*
X013628Y022411D01*
X013628Y022478D01*
X013661Y022511D01*
X013794Y022511D01*
X013828Y022478D01*
X013828Y022411D01*
X013794Y022378D01*
X013661Y022378D01*
X013628Y022290D02*
X013628Y022157D01*
X013628Y022224D02*
X013828Y022224D01*
X013761Y022157D01*
X013794Y022069D02*
X013728Y022069D01*
X013694Y022036D01*
X013694Y021936D01*
X013628Y021936D02*
X013828Y021936D01*
X013828Y022036D01*
X013794Y022069D01*
X013694Y022003D02*
X013628Y022069D01*
X013361Y023156D02*
X013228Y023156D01*
X013194Y023190D01*
X013194Y023256D01*
X013228Y023290D01*
X013194Y023377D02*
X013194Y023511D01*
X013194Y023444D02*
X013395Y023444D01*
X013328Y023377D01*
X013361Y023290D02*
X013395Y023256D01*
X013395Y023190D01*
X013361Y023156D01*
X013361Y023598D02*
X013395Y023632D01*
X013395Y023698D01*
X013361Y023732D01*
X013228Y023598D01*
X013194Y023632D01*
X013194Y023698D01*
X013228Y023732D01*
X013361Y023732D01*
X013295Y023819D02*
X013295Y023919D01*
X013261Y023953D01*
X013228Y023953D01*
X013194Y023919D01*
X013194Y023853D01*
X013228Y023819D01*
X013295Y023819D01*
X013361Y023886D01*
X013395Y023953D01*
X013361Y023598D02*
X013228Y023598D01*
X012135Y023623D02*
X012101Y023589D01*
X011968Y023589D01*
X011935Y023623D01*
X011935Y023689D01*
X011968Y023723D01*
X011935Y023810D02*
X011935Y023944D01*
X011935Y023877D02*
X012135Y023877D01*
X012068Y023810D01*
X012101Y023723D02*
X012135Y023689D01*
X012135Y023623D01*
X012097Y023435D02*
X012031Y023435D01*
X011997Y023402D01*
X011910Y023368D02*
X011843Y023435D01*
X011843Y023235D01*
X011910Y023235D02*
X011776Y023235D01*
X011689Y023235D02*
X011555Y023235D01*
X011622Y023235D02*
X011622Y023435D01*
X011689Y023368D01*
X011468Y023402D02*
X011435Y023435D01*
X011368Y023435D01*
X011334Y023402D01*
X011334Y023368D01*
X011468Y023235D01*
X011334Y023235D01*
X010816Y023240D02*
X010816Y023307D01*
X010783Y023341D01*
X010749Y023341D01*
X010716Y023307D01*
X010682Y023341D01*
X010649Y023341D01*
X010616Y023307D01*
X010616Y023240D01*
X010649Y023207D01*
X010682Y023120D02*
X010816Y023120D01*
X010783Y023207D02*
X010816Y023240D01*
X010716Y023274D02*
X010716Y023307D01*
X010682Y023120D02*
X010616Y023053D01*
X010682Y022986D01*
X010816Y022986D01*
X010783Y022899D02*
X010749Y022899D01*
X010716Y022865D01*
X010682Y022899D01*
X010649Y022899D01*
X010616Y022865D01*
X010616Y022799D01*
X010649Y022765D01*
X010716Y022832D02*
X010716Y022865D01*
X010783Y022899D02*
X010816Y022865D01*
X010816Y022799D01*
X010783Y022765D01*
X010816Y022470D02*
X010616Y022470D01*
X010616Y022169D02*
X010649Y022136D01*
X010783Y022136D01*
X010749Y022169D02*
X010749Y022102D01*
X010749Y022015D02*
X010616Y021881D01*
X010616Y021794D02*
X010616Y021660D01*
X010816Y021660D01*
X010816Y021794D01*
X010749Y021881D02*
X010616Y022015D01*
X010716Y021727D02*
X010716Y021660D01*
X010168Y020837D02*
X010202Y020803D01*
X010202Y020770D01*
X010168Y020737D01*
X010102Y020737D01*
X010068Y020703D01*
X010068Y020670D01*
X010102Y020637D01*
X010168Y020637D01*
X010202Y020670D01*
X010202Y020522D02*
X010102Y020522D01*
X010068Y020488D01*
X010068Y020422D01*
X010102Y020388D01*
X010202Y020388D01*
X010202Y020322D02*
X010202Y020522D01*
X010135Y020388D02*
X010068Y020322D01*
X009981Y020355D02*
X009981Y020422D01*
X009947Y020455D01*
X009881Y020455D01*
X009847Y020422D01*
X009847Y020388D01*
X009981Y020388D01*
X009981Y020355D02*
X009947Y020322D01*
X009881Y020322D01*
X009760Y020322D02*
X009660Y020322D01*
X009626Y020355D01*
X009660Y020388D01*
X009726Y020388D01*
X009760Y020422D01*
X009726Y020455D01*
X009626Y020455D01*
X009539Y020422D02*
X009505Y020455D01*
X009439Y020455D01*
X009405Y020422D01*
X009405Y020388D01*
X009539Y020388D01*
X009539Y020355D02*
X009539Y020422D01*
X009539Y020355D02*
X009505Y020322D01*
X009439Y020322D01*
X009284Y020355D02*
X009251Y020322D01*
X009284Y020355D02*
X009284Y020488D01*
X009251Y020455D02*
X009318Y020455D01*
X009693Y020737D02*
X009760Y020737D01*
X009847Y020737D02*
X009881Y020703D01*
X009981Y020703D01*
X009981Y020637D02*
X009981Y020837D01*
X009881Y020837D01*
X009847Y020803D01*
X009847Y020737D01*
X009914Y020703D02*
X009847Y020637D01*
X009760Y020637D02*
X009760Y020837D01*
X009626Y020837D01*
X010068Y020803D02*
X010102Y020837D01*
X010168Y020837D01*
X009450Y022093D02*
X009517Y022160D01*
X009450Y022227D01*
X009317Y022227D01*
X009317Y022314D02*
X009517Y022314D01*
X009517Y022414D01*
X009483Y022448D01*
X009417Y022448D01*
X009383Y022414D01*
X009383Y022314D01*
X009383Y022381D02*
X009317Y022448D01*
X009350Y022535D02*
X009417Y022535D01*
X009450Y022569D01*
X009450Y022635D01*
X009417Y022669D01*
X009383Y022669D01*
X009383Y022535D01*
X009350Y022535D02*
X009317Y022569D01*
X009317Y022635D01*
X009317Y022790D02*
X009483Y022790D01*
X009517Y022823D01*
X009417Y022823D02*
X009417Y022756D01*
X009417Y022227D02*
X009417Y022093D01*
X009450Y022093D02*
X009317Y022093D01*
X008784Y022638D02*
X008751Y022605D01*
X008684Y022605D01*
X008651Y022638D01*
X008563Y022605D02*
X008430Y022605D01*
X008497Y022605D02*
X008497Y022805D01*
X008563Y022739D01*
X008651Y022772D02*
X008684Y022805D01*
X008751Y022805D01*
X008784Y022772D01*
X008784Y022638D01*
X008342Y022605D02*
X008209Y022605D01*
X008276Y022605D02*
X008276Y022805D01*
X008342Y022739D01*
X008121Y022772D02*
X008088Y022805D01*
X008021Y022805D01*
X007988Y022772D01*
X008121Y022638D01*
X008088Y022605D01*
X008021Y022605D01*
X007988Y022638D01*
X007988Y022772D01*
X008121Y022772D02*
X008121Y022638D01*
X007688Y023038D02*
X007621Y023038D01*
X007588Y023072D01*
X007500Y023038D02*
X007367Y023038D01*
X007434Y023038D02*
X007434Y023238D01*
X007500Y023172D01*
X007588Y023205D02*
X007621Y023238D01*
X007688Y023238D01*
X007721Y023205D01*
X007721Y023072D01*
X007688Y023038D01*
X007279Y023038D02*
X007146Y023038D01*
X007213Y023038D02*
X007213Y023238D01*
X007279Y023172D01*
X007058Y023172D02*
X007058Y023205D01*
X007025Y023238D01*
X006958Y023238D01*
X006925Y023205D01*
X006925Y023172D01*
X006958Y023138D01*
X007025Y023138D01*
X007058Y023172D01*
X007025Y023138D02*
X007058Y023105D01*
X007058Y023072D01*
X007025Y023038D01*
X006958Y023038D01*
X006925Y023072D01*
X006925Y023105D01*
X006958Y023138D01*
X006940Y024495D02*
X006873Y024495D01*
X006840Y024528D01*
X006752Y024495D02*
X006619Y024495D01*
X006686Y024495D02*
X006686Y024695D01*
X006752Y024628D01*
X006840Y024662D02*
X006873Y024695D01*
X006940Y024695D01*
X006973Y024662D01*
X006973Y024528D01*
X006940Y024495D01*
X006531Y024528D02*
X006498Y024495D01*
X006431Y024495D01*
X006398Y024528D01*
X006398Y024662D01*
X006531Y024528D01*
X006531Y024662D01*
X006498Y024695D01*
X006431Y024695D01*
X006398Y024662D01*
X006310Y024628D02*
X006244Y024695D01*
X006244Y024495D01*
X006310Y024495D02*
X006177Y024495D01*
X007116Y026030D02*
X007183Y026030D01*
X007216Y026064D01*
X007303Y026064D02*
X007337Y026030D01*
X007404Y026030D01*
X007437Y026064D01*
X007303Y026197D01*
X007303Y026064D01*
X007303Y026197D02*
X007337Y026230D01*
X007404Y026230D01*
X007437Y026197D01*
X007437Y026064D01*
X007524Y026030D02*
X007658Y026030D01*
X007591Y026030D02*
X007591Y026230D01*
X007658Y026164D01*
X007745Y026197D02*
X007779Y026230D01*
X007846Y026230D01*
X007879Y026197D01*
X007879Y026064D01*
X007846Y026030D01*
X007779Y026030D01*
X007745Y026064D01*
X007216Y026197D02*
X007183Y026230D01*
X007116Y026230D01*
X007082Y026197D01*
X007082Y026164D01*
X007116Y026130D01*
X007082Y026097D01*
X007082Y026064D01*
X007116Y026030D01*
X007116Y026130D02*
X007149Y026130D01*
X008942Y026124D02*
X008976Y026157D01*
X009109Y026157D01*
X009143Y026124D01*
X009143Y026057D01*
X009109Y026024D01*
X009076Y026024D01*
X009043Y026057D01*
X009043Y026157D01*
X008942Y026124D02*
X008942Y026057D01*
X008976Y026024D01*
X008942Y025936D02*
X008942Y025803D01*
X008942Y025870D02*
X009143Y025870D01*
X009076Y025803D01*
X008942Y025715D02*
X008942Y025582D01*
X008942Y025649D02*
X009143Y025649D01*
X009076Y025582D01*
X009109Y025494D02*
X009143Y025461D01*
X009143Y025394D01*
X009109Y025361D01*
X008976Y025361D01*
X008942Y025394D01*
X008942Y025461D01*
X008976Y025494D01*
X007924Y021545D02*
X007958Y021512D01*
X007958Y021379D01*
X007924Y021345D01*
X007858Y021345D01*
X007824Y021379D01*
X007737Y021345D02*
X007603Y021345D01*
X007670Y021345D02*
X007670Y021545D01*
X007737Y021479D01*
X007824Y021512D02*
X007858Y021545D01*
X007924Y021545D01*
X007516Y021512D02*
X007482Y021545D01*
X007416Y021545D01*
X007382Y021512D01*
X007382Y021479D01*
X007416Y021445D01*
X007382Y021412D01*
X007382Y021379D01*
X007416Y021345D01*
X007482Y021345D01*
X007516Y021379D01*
X007449Y021445D02*
X007416Y021445D01*
X007295Y021445D02*
X007161Y021445D01*
X007195Y021345D02*
X007195Y021545D01*
X007295Y021445D01*
X007306Y020364D02*
X007373Y020364D01*
X007406Y020331D01*
X007406Y020198D01*
X007373Y020164D01*
X007306Y020164D01*
X007273Y020198D01*
X007185Y020164D02*
X007052Y020298D01*
X007052Y020331D01*
X007085Y020364D01*
X007152Y020364D01*
X007185Y020331D01*
X007273Y020331D02*
X007306Y020364D01*
X007185Y020164D02*
X007052Y020164D01*
X011935Y021772D02*
X011935Y021839D01*
X011968Y021872D01*
X011935Y021960D02*
X011935Y022093D01*
X011935Y022027D02*
X012135Y022027D01*
X012068Y021960D01*
X012101Y021872D02*
X012135Y021839D01*
X012135Y021772D01*
X012101Y021739D01*
X011968Y021739D01*
X011935Y021772D01*
X011935Y022181D02*
X011935Y022314D01*
X011935Y022248D02*
X012135Y022248D01*
X012068Y022181D01*
X012068Y022402D02*
X012135Y022469D01*
X011935Y022469D01*
X011935Y022535D02*
X011935Y022402D01*
X012031Y023235D02*
X011997Y023268D01*
X012031Y023235D02*
X012097Y023235D01*
X012131Y023268D01*
X012131Y023402D01*
X012097Y023435D01*
X012101Y024031D02*
X011968Y024031D01*
X012101Y024165D01*
X011968Y024165D01*
X011935Y024131D01*
X011935Y024065D01*
X011968Y024031D01*
X012101Y024031D02*
X012135Y024065D01*
X012135Y024131D01*
X012101Y024165D01*
X012035Y024252D02*
X012135Y024352D01*
X011935Y024352D01*
X012035Y024386D02*
X012035Y024252D01*
X013981Y020089D02*
X014115Y020089D01*
X014115Y019989D01*
X014048Y020022D01*
X014014Y020022D01*
X013981Y019989D01*
X013981Y019922D01*
X014014Y019889D01*
X014081Y019889D01*
X014115Y019922D01*
X014202Y019922D02*
X014235Y019889D01*
X014302Y019889D01*
X014336Y019922D01*
X014336Y020055D01*
X014302Y020089D01*
X014235Y020089D01*
X014202Y020055D01*
X014548Y019989D02*
X014681Y019989D01*
X014581Y020089D01*
X014581Y019889D01*
X014769Y019922D02*
X014802Y019889D01*
X014869Y019889D01*
X014902Y019922D01*
X014990Y019889D02*
X015056Y019955D01*
X015023Y019955D02*
X015123Y019955D01*
X015123Y019889D02*
X015123Y020089D01*
X015023Y020089D01*
X014990Y020055D01*
X014990Y019989D01*
X015023Y019955D01*
X014902Y020055D02*
X014869Y020089D01*
X014802Y020089D01*
X014769Y020055D01*
X014769Y020022D01*
X014802Y019989D01*
X014769Y019955D01*
X014769Y019922D01*
X014802Y019989D02*
X014835Y019989D01*
X015296Y020022D02*
X015329Y019989D01*
X015296Y019955D01*
X015296Y019922D01*
X015329Y019889D01*
X015396Y019889D01*
X015429Y019922D01*
X015517Y019922D02*
X015550Y019889D01*
X015617Y019889D01*
X015650Y019922D01*
X015738Y019889D02*
X015804Y019955D01*
X015771Y019955D02*
X015871Y019955D01*
X015871Y019889D02*
X015871Y020089D01*
X015771Y020089D01*
X015738Y020055D01*
X015738Y019989D01*
X015771Y019955D01*
X015650Y020055D02*
X015617Y020089D01*
X015550Y020089D01*
X015517Y020055D01*
X015517Y020022D01*
X015550Y019989D01*
X015517Y019955D01*
X015517Y019922D01*
X015550Y019989D02*
X015583Y019989D01*
X015429Y020055D02*
X015396Y020089D01*
X015329Y020089D01*
X015296Y020055D01*
X015296Y020022D01*
X015329Y019989D02*
X015362Y019989D01*
X015338Y020833D02*
X015304Y020867D01*
X015338Y020833D02*
X015405Y020833D01*
X015438Y020867D01*
X015438Y021000D01*
X015405Y021034D01*
X015338Y021034D01*
X015304Y021000D01*
X015217Y020967D02*
X015150Y021034D01*
X015150Y020833D01*
X015217Y020833D02*
X015083Y020833D01*
X014996Y020833D02*
X014862Y020967D01*
X014862Y021000D01*
X014896Y021034D01*
X014963Y021034D01*
X014996Y021000D01*
X014996Y020833D02*
X014862Y020833D01*
X014775Y020867D02*
X014742Y020833D01*
X014675Y020833D01*
X014642Y020867D01*
X014642Y020900D01*
X014675Y020934D01*
X014708Y020934D01*
X014675Y020934D02*
X014642Y020967D01*
X014642Y021000D01*
X014675Y021034D01*
X014742Y021034D01*
X014775Y021000D01*
X015547Y020934D02*
X015680Y020934D01*
X015580Y021034D01*
X015580Y020833D01*
X015768Y020833D02*
X015901Y020833D01*
X015768Y020967D01*
X015768Y021000D01*
X015801Y021034D01*
X015868Y021034D01*
X015901Y021000D01*
X016056Y021034D02*
X016056Y020833D01*
X016122Y020833D02*
X015989Y020833D01*
X016122Y020967D02*
X016056Y021034D01*
X016210Y021000D02*
X016243Y021034D01*
X016310Y021034D01*
X016343Y021000D01*
X016343Y020867D01*
X016310Y020833D01*
X016243Y020833D01*
X016210Y020867D01*
X016187Y020228D02*
X016187Y020094D01*
X016187Y020161D02*
X016387Y020161D01*
X016320Y020094D01*
X016320Y020007D02*
X016287Y019973D01*
X016253Y020007D01*
X016220Y020007D01*
X016187Y019973D01*
X016187Y019907D01*
X016220Y019873D01*
X016220Y019786D02*
X016187Y019752D01*
X016187Y019686D01*
X016220Y019652D01*
X016353Y019652D01*
X016387Y019686D01*
X016387Y019752D01*
X016353Y019786D01*
X016353Y019873D02*
X016387Y019907D01*
X016387Y019973D01*
X016353Y020007D01*
X016320Y020007D01*
X016287Y019973D02*
X016287Y019940D01*
X016949Y019701D02*
X016949Y019668D01*
X016982Y019634D01*
X017049Y019634D01*
X017083Y019668D01*
X017083Y019701D01*
X017049Y019734D01*
X016982Y019734D01*
X016949Y019701D01*
X016982Y019634D02*
X016949Y019601D01*
X016949Y019568D01*
X016982Y019534D01*
X017049Y019534D01*
X017083Y019568D01*
X017083Y019601D01*
X017049Y019634D01*
X017170Y019668D02*
X017170Y019701D01*
X017203Y019734D01*
X017270Y019734D01*
X017304Y019701D01*
X017391Y019701D02*
X017424Y019734D01*
X017491Y019734D01*
X017525Y019701D01*
X017525Y019568D01*
X017491Y019534D01*
X017424Y019534D01*
X017391Y019568D01*
X017304Y019534D02*
X017170Y019668D01*
X017170Y019534D02*
X017304Y019534D01*
X018746Y019558D02*
X018746Y019692D01*
X018746Y019625D02*
X018946Y019625D01*
X018879Y019558D01*
X018912Y019471D02*
X018946Y019437D01*
X018946Y019371D01*
X018912Y019337D01*
X018779Y019337D01*
X018746Y019371D01*
X018746Y019437D01*
X018779Y019471D01*
X018746Y019779D02*
X018879Y019913D01*
X018912Y019913D01*
X018946Y019879D01*
X018946Y019813D01*
X018912Y019779D01*
X018746Y019779D02*
X018746Y019913D01*
X018779Y020000D02*
X018912Y020134D01*
X018779Y020134D01*
X018746Y020100D01*
X018746Y020034D01*
X018779Y020000D01*
X018912Y020000D01*
X018946Y020034D01*
X018946Y020100D01*
X018912Y020134D01*
X017516Y022796D02*
X017516Y022929D01*
X019090Y026975D02*
X019224Y026975D01*
X019157Y026975D02*
X019157Y027175D01*
X019224Y027109D01*
X019311Y027109D02*
X019311Y027142D01*
X019345Y027175D01*
X019411Y027175D01*
X019445Y027142D01*
X019311Y027109D02*
X019445Y026975D01*
X019311Y026975D01*
X019532Y026975D02*
X019666Y026975D01*
X019599Y026975D02*
X019599Y027175D01*
X019666Y027109D01*
X019753Y027142D02*
X019787Y027175D01*
X019853Y027175D01*
X019887Y027142D01*
X019887Y027009D01*
X019853Y026975D01*
X019787Y026975D01*
X019753Y027009D01*
X020163Y026966D02*
X020163Y026899D01*
X020196Y026866D01*
X020163Y026778D02*
X020163Y026645D01*
X020163Y026712D02*
X020363Y026712D01*
X020296Y026645D01*
X020330Y026557D02*
X020363Y026524D01*
X020363Y026457D01*
X020330Y026424D01*
X020196Y026424D01*
X020163Y026457D01*
X020163Y026524D01*
X020196Y026557D01*
X020330Y026866D02*
X020363Y026899D01*
X020363Y026966D01*
X020330Y026999D01*
X020296Y026999D01*
X020263Y026966D01*
X020230Y026999D01*
X020196Y026999D01*
X020163Y026966D01*
X020263Y026966D02*
X020263Y026933D01*
X020330Y027087D02*
X020363Y027120D01*
X020363Y027187D01*
X020330Y027220D01*
X020296Y027220D01*
X020163Y027087D01*
X020163Y027220D01*
X019779Y029180D02*
X019645Y029180D01*
X019612Y029213D01*
X019612Y029280D01*
X019645Y029313D01*
X019612Y029401D02*
X019612Y029534D01*
X019612Y029468D02*
X019812Y029468D01*
X019745Y029401D01*
X019779Y029313D02*
X019812Y029280D01*
X019812Y029213D01*
X019779Y029180D01*
X019779Y029622D02*
X019812Y029655D01*
X019812Y029722D01*
X019779Y029755D01*
X019645Y029622D01*
X019612Y029655D01*
X019612Y029722D01*
X019645Y029755D01*
X019779Y029755D01*
X019812Y029843D02*
X019712Y029843D01*
X019745Y029910D01*
X019745Y029943D01*
X019712Y029976D01*
X019645Y029976D01*
X019612Y029943D01*
X019612Y029876D01*
X019645Y029843D01*
X019812Y029843D02*
X019812Y029976D01*
X019779Y029622D02*
X019645Y029622D01*
X019418Y029804D02*
X019385Y029770D01*
X019251Y029770D01*
X019218Y029804D01*
X019218Y029871D01*
X019251Y029904D01*
X019218Y029991D02*
X019218Y030125D01*
X019218Y030058D02*
X019418Y030058D01*
X019352Y029991D01*
X019385Y029904D02*
X019418Y029871D01*
X019418Y029804D01*
X019352Y030212D02*
X019418Y030279D01*
X019218Y030279D01*
X019218Y030212D02*
X019218Y030346D01*
X019251Y030433D02*
X019218Y030467D01*
X019218Y030533D01*
X019251Y030567D01*
X019285Y030567D01*
X019318Y030533D01*
X019318Y030500D01*
X019318Y030533D02*
X019352Y030567D01*
X019385Y030567D01*
X019418Y030533D01*
X019418Y030467D01*
X019385Y030433D01*
X022007Y027772D02*
X021974Y027738D01*
X021974Y027671D01*
X022007Y027638D01*
X022007Y027551D02*
X021974Y027517D01*
X021974Y027451D01*
X022007Y027417D01*
X021974Y027330D02*
X021974Y027196D01*
X021974Y027263D02*
X022174Y027263D01*
X022107Y027196D01*
X022141Y027109D02*
X022174Y027075D01*
X022174Y027009D01*
X022141Y026975D01*
X022007Y026975D01*
X021974Y027009D01*
X021974Y027075D01*
X022007Y027109D01*
X022141Y027417D02*
X022174Y027451D01*
X022174Y027517D01*
X022141Y027551D01*
X022107Y027551D01*
X022074Y027517D01*
X022041Y027551D01*
X022007Y027551D01*
X022074Y027517D02*
X022074Y027484D01*
X022141Y027638D02*
X022174Y027671D01*
X022174Y027738D01*
X022141Y027772D01*
X022107Y027772D01*
X022074Y027738D01*
X022041Y027772D01*
X022007Y027772D01*
X022074Y027738D02*
X022074Y027705D01*
X025099Y030749D02*
X025099Y030882D01*
X025132Y030915D01*
X025199Y030915D01*
X025232Y030882D01*
X025232Y030849D01*
X025199Y030815D01*
X025099Y030815D01*
X025099Y030749D02*
X025132Y030715D01*
X025199Y030715D01*
X025232Y030749D01*
X025320Y030715D02*
X025453Y030715D01*
X025320Y030849D01*
X025320Y030882D01*
X025353Y030915D01*
X025420Y030915D01*
X025453Y030882D01*
X025541Y030882D02*
X025574Y030915D01*
X025641Y030915D01*
X025674Y030882D01*
X025674Y030749D01*
X025641Y030715D01*
X025574Y030715D01*
X025541Y030749D01*
X025580Y031700D02*
X025647Y031766D01*
X025613Y031766D02*
X025714Y031766D01*
X025714Y031700D02*
X025714Y031900D01*
X025613Y031900D01*
X025580Y031866D01*
X025580Y031800D01*
X025613Y031766D01*
X025493Y031733D02*
X025459Y031700D01*
X025392Y031700D01*
X025359Y031733D01*
X025359Y031766D01*
X025392Y031800D01*
X025426Y031800D01*
X025392Y031800D02*
X025359Y031833D01*
X025359Y031866D01*
X025392Y031900D01*
X025459Y031900D01*
X025493Y031866D01*
X025272Y031833D02*
X025205Y031900D01*
X025205Y031700D01*
X025272Y031700D02*
X025138Y031700D01*
X025177Y032723D02*
X025311Y032723D01*
X025177Y032857D01*
X025177Y032890D01*
X025211Y032923D01*
X025278Y032923D01*
X025311Y032890D01*
X025398Y032890D02*
X025398Y032857D01*
X025432Y032823D01*
X025398Y032790D01*
X025398Y032757D01*
X025432Y032723D01*
X025499Y032723D01*
X025532Y032757D01*
X025619Y032723D02*
X025686Y032790D01*
X025653Y032790D02*
X025753Y032790D01*
X025753Y032723D02*
X025753Y032923D01*
X025653Y032923D01*
X025619Y032890D01*
X025619Y032823D01*
X025653Y032790D01*
X025532Y032890D02*
X025499Y032923D01*
X025432Y032923D01*
X025398Y032890D01*
X025432Y032823D02*
X025465Y032823D01*
X025208Y033707D02*
X025141Y033707D01*
X025108Y033741D01*
X025020Y033741D02*
X024987Y033707D01*
X024920Y033707D01*
X024887Y033741D01*
X024887Y033774D01*
X024920Y033808D01*
X024953Y033808D01*
X024920Y033808D02*
X024887Y033841D01*
X024887Y033874D01*
X024920Y033908D01*
X024987Y033908D01*
X025020Y033874D01*
X025108Y033874D02*
X025141Y033908D01*
X025208Y033908D01*
X025241Y033874D01*
X025241Y033741D01*
X025208Y033707D01*
X024799Y033741D02*
X024799Y033774D01*
X024766Y033808D01*
X024699Y033808D01*
X024666Y033774D01*
X024666Y033741D01*
X024699Y033707D01*
X024766Y033707D01*
X024799Y033741D01*
X024766Y033808D02*
X024799Y033841D01*
X024799Y033874D01*
X024766Y033908D01*
X024699Y033908D01*
X024666Y033874D01*
X024666Y033841D01*
X024699Y033808D01*
X017603Y039967D02*
X017603Y040167D01*
X017503Y040167D01*
X017470Y040134D01*
X017470Y040067D01*
X017503Y040034D01*
X017603Y040034D01*
X017537Y040034D02*
X017470Y039967D01*
X017382Y039967D02*
X017249Y040101D01*
X017249Y040134D01*
X017282Y040167D01*
X017349Y040167D01*
X017382Y040134D01*
X017382Y039967D02*
X017249Y039967D01*
X017161Y040001D02*
X017128Y039967D01*
X017061Y039967D01*
X017028Y040001D01*
X017028Y040067D01*
X017061Y040101D01*
X017095Y040101D01*
X017161Y040067D01*
X017161Y040167D01*
X017028Y040167D01*
X016275Y037157D02*
X016308Y037124D01*
X016308Y037057D01*
X016275Y037023D01*
X016241Y037023D01*
X016208Y037057D01*
X016208Y037157D01*
X016141Y037157D02*
X016275Y037157D01*
X016141Y037157D02*
X016108Y037124D01*
X016108Y037057D01*
X016141Y037023D01*
X016108Y036936D02*
X016108Y036802D01*
X016108Y036869D02*
X016308Y036869D01*
X016241Y036802D01*
X016208Y036715D02*
X016175Y036682D01*
X016175Y036581D01*
X016108Y036581D02*
X016308Y036581D01*
X016308Y036682D01*
X016275Y036715D01*
X016208Y036715D01*
X016175Y036648D02*
X016108Y036715D01*
X015914Y036682D02*
X015881Y036715D01*
X015814Y036715D01*
X015781Y036682D01*
X015781Y036581D01*
X015714Y036581D02*
X015914Y036581D01*
X015914Y036682D01*
X015881Y036802D02*
X015914Y036836D01*
X015914Y036903D01*
X015881Y036936D01*
X015848Y036936D01*
X015714Y036802D01*
X015714Y036936D01*
X015748Y037023D02*
X015881Y037157D01*
X015748Y037157D01*
X015714Y037124D01*
X015714Y037057D01*
X015748Y037023D01*
X015881Y037023D01*
X015914Y037057D01*
X015914Y037124D01*
X015881Y037157D01*
X015521Y037124D02*
X015487Y037157D01*
X015454Y037157D01*
X015421Y037124D01*
X015421Y037057D01*
X015454Y037023D01*
X015487Y037023D01*
X015521Y037057D01*
X015521Y037124D01*
X015421Y037124D02*
X015387Y037157D01*
X015354Y037157D01*
X015320Y037124D01*
X015320Y037057D01*
X015354Y037023D01*
X015387Y037023D01*
X015421Y037057D01*
X015320Y036936D02*
X015320Y036802D01*
X015320Y036869D02*
X015521Y036869D01*
X015454Y036802D01*
X015487Y036715D02*
X015421Y036715D01*
X015387Y036682D01*
X015387Y036581D01*
X015320Y036581D02*
X015521Y036581D01*
X015521Y036682D01*
X015487Y036715D01*
X015387Y036648D02*
X015320Y036715D01*
X015714Y036715D02*
X015781Y036648D01*
X015777Y034262D02*
X015744Y034229D01*
X015744Y034195D01*
X015777Y034162D01*
X015844Y034162D01*
X015877Y034195D01*
X015877Y034229D01*
X015844Y034262D01*
X015777Y034262D01*
X015777Y034162D02*
X015744Y034129D01*
X015744Y034095D01*
X015777Y034062D01*
X015844Y034062D01*
X015877Y034095D01*
X015877Y034129D01*
X015844Y034162D01*
X015965Y034229D02*
X016098Y034095D01*
X016065Y034062D01*
X015998Y034062D01*
X015965Y034095D01*
X015965Y034229D01*
X015998Y034262D01*
X016065Y034262D01*
X016098Y034229D01*
X016098Y034095D01*
X016186Y034062D02*
X016319Y034062D01*
X016253Y034062D02*
X016253Y034262D01*
X016319Y034195D01*
X016407Y034229D02*
X016440Y034262D01*
X016507Y034262D01*
X016540Y034229D01*
X016540Y034095D01*
X016507Y034062D01*
X016440Y034062D01*
X016407Y034095D01*
X015714Y033835D02*
X015714Y033701D01*
X015680Y033668D01*
X015613Y033668D01*
X015580Y033701D01*
X015493Y033668D02*
X015359Y033668D01*
X015426Y033668D02*
X015426Y033868D01*
X015493Y033802D01*
X015580Y033835D02*
X015613Y033868D01*
X015680Y033868D01*
X015714Y033835D01*
X015272Y033802D02*
X015205Y033868D01*
X015205Y033668D01*
X015272Y033668D02*
X015138Y033668D01*
X015051Y033668D02*
X015051Y033701D01*
X014917Y033835D01*
X014917Y033868D01*
X015051Y033868D01*
X013946Y036581D02*
X013746Y036581D01*
X013812Y036581D02*
X013812Y036682D01*
X013846Y036715D01*
X013912Y036715D01*
X013946Y036682D01*
X013946Y036581D01*
X013812Y036648D02*
X013746Y036715D01*
X013746Y036802D02*
X013746Y036936D01*
X013746Y036869D02*
X013946Y036869D01*
X013879Y036802D01*
X013846Y037023D02*
X013846Y037124D01*
X013812Y037157D01*
X013779Y037157D01*
X013746Y037124D01*
X013746Y037057D01*
X013779Y037023D01*
X013846Y037023D01*
X013912Y037090D01*
X013946Y037157D01*
X013552Y037157D02*
X013519Y037157D01*
X013385Y037023D01*
X013352Y037023D01*
X013352Y036936D02*
X013352Y036802D01*
X013352Y036869D02*
X013552Y036869D01*
X013485Y036802D01*
X013452Y036715D02*
X013419Y036682D01*
X013419Y036581D01*
X013352Y036581D02*
X013552Y036581D01*
X013552Y036682D01*
X013519Y036715D01*
X013452Y036715D01*
X013419Y036648D02*
X013352Y036715D01*
X013158Y036682D02*
X013125Y036715D01*
X013058Y036715D01*
X013025Y036682D01*
X013025Y036581D01*
X012958Y036581D02*
X013158Y036581D01*
X013158Y036682D01*
X013025Y036648D02*
X012958Y036715D01*
X012958Y036802D02*
X012958Y036936D01*
X012958Y036869D02*
X013158Y036869D01*
X013092Y036802D01*
X013058Y037023D02*
X013092Y037090D01*
X013092Y037124D01*
X013058Y037157D01*
X012992Y037157D01*
X012958Y037124D01*
X012958Y037057D01*
X012992Y037023D01*
X013058Y037023D02*
X013158Y037023D01*
X013158Y037157D01*
X013552Y037157D02*
X013552Y037023D01*
X009263Y031230D02*
X009296Y031197D01*
X009296Y031064D01*
X009263Y031030D01*
X009196Y031030D01*
X009163Y031064D01*
X009075Y031030D02*
X008942Y031030D01*
X009008Y031030D02*
X009008Y031230D01*
X009075Y031164D01*
X009163Y031197D02*
X009196Y031230D01*
X009263Y031230D01*
X008854Y031164D02*
X008787Y031230D01*
X008787Y031030D01*
X008721Y031030D02*
X008854Y031030D01*
X008633Y031064D02*
X008600Y031030D01*
X008533Y031030D01*
X008500Y031064D01*
X008500Y031097D01*
X008533Y031130D01*
X008633Y031130D01*
X008633Y031064D01*
X008633Y031130D02*
X008567Y031197D01*
X008500Y031230D01*
X008503Y031778D02*
X008470Y031812D01*
X008470Y031878D01*
X008503Y031912D01*
X008470Y031999D02*
X008470Y032133D01*
X008470Y032066D02*
X008670Y032066D01*
X008603Y031999D01*
X008637Y031912D02*
X008670Y031878D01*
X008670Y031812D01*
X008637Y031778D01*
X008503Y031778D01*
X008503Y032220D02*
X008637Y032354D01*
X008503Y032354D01*
X008470Y032320D01*
X008470Y032254D01*
X008503Y032220D01*
X008637Y032220D01*
X008670Y032254D01*
X008670Y032320D01*
X008637Y032354D01*
X008670Y032441D02*
X008670Y032575D01*
X008637Y032575D01*
X008503Y032441D01*
X008470Y032441D01*
X007485Y031945D02*
X007485Y031812D01*
X007452Y031778D01*
X007385Y031778D01*
X007352Y031812D01*
X007264Y031812D02*
X007231Y031778D01*
X007164Y031778D01*
X007131Y031812D01*
X007131Y031845D01*
X007164Y031878D01*
X007197Y031878D01*
X007164Y031878D02*
X007131Y031912D01*
X007131Y031945D01*
X007164Y031978D01*
X007231Y031978D01*
X007264Y031945D01*
X007352Y031945D02*
X007385Y031978D01*
X007452Y031978D01*
X007485Y031945D01*
X007043Y031945D02*
X007010Y031978D01*
X006943Y031978D01*
X006910Y031945D01*
X006910Y031912D01*
X007043Y031778D01*
X006910Y031778D01*
X012801Y017690D02*
X013001Y017690D01*
X012901Y017590D01*
X012901Y017723D01*
X012968Y017502D02*
X013001Y017469D01*
X013001Y017402D01*
X012968Y017369D01*
X012834Y017369D01*
X012801Y017402D01*
X012801Y017469D01*
X012834Y017502D01*
X014296Y016230D02*
X014363Y016197D01*
X014430Y016130D01*
X014329Y016130D01*
X014296Y016097D01*
X014296Y016064D01*
X014329Y016030D01*
X014396Y016030D01*
X014430Y016064D01*
X014430Y016130D01*
X014517Y016064D02*
X014550Y016030D01*
X014617Y016030D01*
X014651Y016064D01*
X014651Y016197D01*
X014617Y016230D01*
X014550Y016230D01*
X014517Y016197D01*
X015005Y016197D02*
X015005Y016164D01*
X015038Y016130D01*
X015105Y016130D01*
X015138Y016164D01*
X015138Y016197D01*
X015105Y016230D01*
X015038Y016230D01*
X015005Y016197D01*
X015038Y016130D02*
X015005Y016097D01*
X015005Y016064D01*
X015038Y016030D01*
X015105Y016030D01*
X015138Y016064D01*
X015138Y016097D01*
X015105Y016130D01*
X015226Y016064D02*
X015259Y016030D01*
X015326Y016030D01*
X015359Y016064D01*
X015359Y016197D01*
X015326Y016230D01*
X015259Y016230D01*
X015226Y016197D01*
X016477Y016034D02*
X016477Y016000D01*
X016610Y015867D01*
X016610Y015833D01*
X016698Y015833D02*
X016831Y015833D01*
X016698Y015967D01*
X016698Y016000D01*
X016731Y016034D01*
X016798Y016034D01*
X016831Y016000D01*
X016919Y016000D02*
X016952Y016034D01*
X017019Y016034D01*
X017052Y016000D01*
X017052Y015867D01*
X017019Y015833D01*
X016952Y015833D01*
X016919Y015867D01*
X016610Y016034D02*
X016477Y016034D01*
X017119Y014695D02*
X017119Y014495D01*
X017185Y014495D02*
X017052Y014495D01*
X017185Y014628D02*
X017119Y014695D01*
X017273Y014662D02*
X017273Y014595D01*
X017306Y014562D01*
X017406Y014562D01*
X017340Y014562D02*
X017273Y014495D01*
X017406Y014495D02*
X017406Y014695D01*
X017306Y014695D01*
X017273Y014662D01*
X018194Y014634D02*
X018194Y014568D01*
X018228Y014534D01*
X018361Y014534D01*
X018395Y014568D01*
X018395Y014634D01*
X018361Y014668D01*
X018361Y014755D02*
X018395Y014789D01*
X018395Y014855D01*
X018361Y014889D01*
X018328Y014889D01*
X018295Y014855D01*
X018261Y014889D01*
X018228Y014889D01*
X018194Y014855D01*
X018194Y014789D01*
X018228Y014755D01*
X018228Y014668D02*
X018194Y014634D01*
X018295Y014822D02*
X018295Y014855D01*
X017883Y012905D02*
X017849Y012905D01*
X017716Y012771D01*
X017683Y012771D01*
X017683Y012684D02*
X017683Y012550D01*
X017683Y012617D02*
X017883Y012617D01*
X017816Y012550D01*
X017849Y012463D02*
X017883Y012430D01*
X017883Y012363D01*
X017849Y012329D01*
X017716Y012329D01*
X017683Y012363D01*
X017683Y012430D01*
X017716Y012463D01*
X017765Y012118D02*
X017731Y012051D01*
X017665Y011984D01*
X017665Y012084D01*
X017631Y012118D01*
X017598Y012118D01*
X017565Y012084D01*
X017565Y012017D01*
X017598Y011984D01*
X017665Y011984D01*
X017565Y011897D02*
X017565Y011763D01*
X017565Y011830D02*
X017765Y011830D01*
X017698Y011763D01*
X017731Y011676D02*
X017765Y011642D01*
X017765Y011575D01*
X017731Y011542D01*
X017598Y011542D01*
X017565Y011575D01*
X017565Y011642D01*
X017598Y011676D01*
X017598Y010543D02*
X017565Y010509D01*
X017565Y010443D01*
X017598Y010409D01*
X017665Y010409D02*
X017698Y010476D01*
X017698Y010509D01*
X017665Y010543D01*
X017598Y010543D01*
X017665Y010409D02*
X017765Y010409D01*
X017765Y010543D01*
X017765Y010255D02*
X017565Y010255D01*
X017565Y010188D02*
X017565Y010322D01*
X017698Y010188D02*
X017765Y010255D01*
X017731Y010101D02*
X017765Y010067D01*
X017765Y010001D01*
X017731Y009967D01*
X017598Y009967D01*
X017565Y010001D01*
X017565Y010067D01*
X017598Y010101D01*
X018903Y010067D02*
X018936Y010101D01*
X018903Y010067D02*
X018903Y010001D01*
X018936Y009967D01*
X019070Y009967D01*
X019103Y010001D01*
X019103Y010067D01*
X019070Y010101D01*
X019037Y010188D02*
X019103Y010255D01*
X018903Y010255D01*
X018903Y010188D02*
X018903Y010322D01*
X018936Y010409D02*
X018970Y010409D01*
X019003Y010443D01*
X019003Y010509D01*
X018970Y010543D01*
X018936Y010543D01*
X018903Y010509D01*
X018903Y010443D01*
X018936Y010409D01*
X019003Y010443D02*
X019037Y010409D01*
X019070Y010409D01*
X019103Y010443D01*
X019103Y010509D01*
X019070Y010543D01*
X019037Y010543D01*
X019003Y010509D01*
X018936Y011503D02*
X018903Y011536D01*
X018903Y011603D01*
X018936Y011636D01*
X018903Y011724D02*
X018903Y011857D01*
X018903Y011790D02*
X019103Y011790D01*
X019037Y011724D01*
X019070Y011636D02*
X019103Y011603D01*
X019103Y011536D01*
X019070Y011503D01*
X018936Y011503D01*
X018936Y011945D02*
X018903Y011978D01*
X018903Y012045D01*
X018936Y012078D01*
X019070Y012078D01*
X019103Y012045D01*
X019103Y011978D01*
X019070Y011945D01*
X019037Y011945D01*
X019003Y011978D01*
X019003Y012078D01*
X018978Y012723D02*
X018912Y012723D01*
X018878Y012757D01*
X018878Y012890D01*
X019012Y012757D01*
X018978Y012723D01*
X019012Y012757D02*
X019012Y012890D01*
X018978Y012923D01*
X018912Y012923D01*
X018878Y012890D01*
X019099Y012890D02*
X019133Y012923D01*
X019199Y012923D01*
X019233Y012890D01*
X019320Y012890D02*
X019354Y012923D01*
X019420Y012923D01*
X019454Y012890D01*
X019454Y012757D01*
X019420Y012723D01*
X019354Y012723D01*
X019320Y012757D01*
X019233Y012723D02*
X019099Y012723D01*
X019099Y012857D02*
X019099Y012890D01*
X019099Y012857D02*
X019233Y012723D01*
X019808Y013629D02*
X019941Y013629D01*
X019875Y013629D02*
X019875Y013829D01*
X019941Y013762D01*
X020029Y013796D02*
X020062Y013829D01*
X020129Y013829D01*
X020162Y013796D01*
X020162Y013662D01*
X020129Y013629D01*
X020062Y013629D01*
X020029Y013662D01*
X019926Y013983D02*
X019926Y014183D01*
X019826Y014183D01*
X019793Y014150D01*
X019793Y014083D01*
X019826Y014050D01*
X019926Y014050D01*
X019859Y014050D02*
X019793Y013983D01*
X019705Y013983D02*
X019572Y014116D01*
X019572Y014150D01*
X019605Y014183D01*
X019672Y014183D01*
X019705Y014150D01*
X019705Y013983D02*
X019572Y013983D01*
X020099Y014016D02*
X020132Y013983D01*
X020199Y013983D01*
X020232Y014016D01*
X020320Y013983D02*
X020453Y013983D01*
X020386Y013983D02*
X020386Y014183D01*
X020453Y014116D01*
X020541Y014083D02*
X020574Y014050D01*
X020674Y014050D01*
X020607Y014050D02*
X020541Y013983D01*
X020541Y014083D02*
X020541Y014150D01*
X020574Y014183D01*
X020674Y014183D01*
X020674Y013983D01*
X020232Y014150D02*
X020199Y014183D01*
X020132Y014183D01*
X020099Y014150D01*
X020099Y014116D01*
X020132Y014083D01*
X020099Y014050D01*
X020099Y014016D01*
X020132Y014083D02*
X020165Y014083D01*
X020384Y015637D02*
X020350Y015670D01*
X020350Y015703D01*
X020384Y015737D01*
X020484Y015737D01*
X020484Y015670D01*
X020450Y015637D01*
X020384Y015637D01*
X020484Y015737D02*
X020417Y015803D01*
X020350Y015837D01*
X020484Y015952D02*
X020484Y015985D01*
X020350Y016118D01*
X020350Y016152D01*
X020484Y016152D01*
X020571Y016118D02*
X020605Y016152D01*
X020671Y016152D01*
X020705Y016118D01*
X020571Y016118D02*
X020571Y016085D01*
X020705Y015952D01*
X020571Y015952D01*
X020605Y015837D02*
X020671Y015837D01*
X020705Y015803D01*
X020605Y015837D02*
X020571Y015803D01*
X020571Y015770D01*
X020705Y015637D01*
X020571Y015637D01*
X020792Y015637D02*
X020926Y015637D01*
X020859Y015637D02*
X020859Y015837D01*
X020926Y015770D01*
X021013Y015803D02*
X021046Y015837D01*
X021113Y015837D01*
X021147Y015803D01*
X021147Y015670D01*
X021113Y015637D01*
X021046Y015637D01*
X021013Y015670D01*
X021046Y015952D02*
X021013Y015985D01*
X021046Y015952D02*
X021113Y015952D01*
X021147Y015985D01*
X021147Y016118D01*
X021113Y016152D01*
X021046Y016152D01*
X021013Y016118D01*
X020926Y016085D02*
X020859Y016152D01*
X020859Y015952D01*
X020926Y015952D02*
X020792Y015952D01*
X020792Y016267D02*
X020926Y016267D01*
X020859Y016267D02*
X020859Y016467D01*
X020926Y016400D01*
X021013Y016433D02*
X021046Y016467D01*
X021113Y016467D01*
X021147Y016433D01*
X021147Y016300D01*
X021113Y016267D01*
X021046Y016267D01*
X021013Y016300D01*
X020705Y016300D02*
X020671Y016267D01*
X020605Y016267D01*
X020571Y016300D01*
X020571Y016333D01*
X020605Y016367D01*
X020638Y016367D01*
X020605Y016367D02*
X020571Y016400D01*
X020571Y016433D01*
X020605Y016467D01*
X020671Y016467D01*
X020705Y016433D01*
X020484Y016467D02*
X020484Y016367D01*
X020417Y016400D01*
X020384Y016400D01*
X020350Y016367D01*
X020350Y016300D01*
X020384Y016267D01*
X020450Y016267D01*
X020484Y016300D01*
X020484Y016467D02*
X020350Y016467D01*
X017883Y012905D02*
X017883Y012771D01*
X016662Y012872D02*
X016562Y012771D01*
X016562Y012905D01*
X016462Y012872D02*
X016662Y012872D01*
X016662Y012617D02*
X016462Y012617D01*
X016462Y012550D02*
X016462Y012684D01*
X016596Y012550D02*
X016662Y012617D01*
X016629Y012463D02*
X016662Y012430D01*
X016662Y012363D01*
X016629Y012329D01*
X016496Y012329D01*
X016462Y012363D01*
X016462Y012430D01*
X016496Y012463D01*
X016157Y012118D02*
X016190Y012084D01*
X016190Y012017D01*
X016157Y011984D01*
X016157Y012118D02*
X016123Y012118D01*
X015990Y011984D01*
X015990Y012118D01*
X015990Y011897D02*
X015990Y011763D01*
X015990Y011830D02*
X016190Y011830D01*
X016123Y011763D01*
X016157Y011676D02*
X016190Y011642D01*
X016190Y011575D01*
X016157Y011542D01*
X016023Y011542D01*
X015990Y011575D01*
X015990Y011642D01*
X016023Y011676D01*
X015990Y010543D02*
X015990Y010409D01*
X015990Y010476D02*
X016190Y010476D01*
X016123Y010409D01*
X015990Y010322D02*
X015990Y010188D01*
X015990Y010255D02*
X016190Y010255D01*
X016123Y010188D01*
X016157Y010101D02*
X016190Y010067D01*
X016190Y010001D01*
X016157Y009967D01*
X016023Y009967D01*
X015990Y010001D01*
X015990Y010067D01*
X016023Y010101D01*
X014773Y009777D02*
X014739Y009810D01*
X014706Y009810D01*
X014672Y009777D01*
X014639Y009810D01*
X014606Y009810D01*
X014572Y009777D01*
X014572Y009710D01*
X014606Y009676D01*
X014572Y009589D02*
X014639Y009522D01*
X014639Y009556D02*
X014639Y009455D01*
X014572Y009455D02*
X014773Y009455D01*
X014773Y009556D01*
X014739Y009589D01*
X014672Y009589D01*
X014639Y009556D01*
X014739Y009676D02*
X014773Y009710D01*
X014773Y009777D01*
X014672Y009777D02*
X014672Y009743D01*
X013824Y008766D02*
X013312Y008766D01*
X013286Y008764D01*
X013261Y008759D01*
X013237Y008751D01*
X013213Y008740D01*
X013192Y008725D01*
X013173Y008708D01*
X013156Y008689D01*
X013141Y008668D01*
X013130Y008644D01*
X013122Y008620D01*
X013117Y008595D01*
X013115Y008569D01*
X013115Y008428D01*
X013115Y007250D02*
X013115Y007191D01*
X013824Y007191D01*
X013982Y007349D01*
X021816Y007349D01*
X021974Y007191D01*
X022682Y007191D01*
X022682Y007250D01*
X022682Y007191D02*
X022879Y007191D01*
X022889Y007190D01*
X022899Y007186D01*
X022907Y007180D01*
X022913Y007171D01*
X022917Y007162D01*
X022918Y007152D01*
X022919Y007152D02*
X022919Y006837D01*
X022918Y006837D02*
X022917Y006827D01*
X022913Y006817D01*
X022907Y006809D01*
X022898Y006803D01*
X022889Y006799D01*
X022879Y006798D01*
X012919Y006798D01*
X012909Y006799D01*
X012900Y006803D01*
X012891Y006809D01*
X012885Y006817D01*
X012881Y006827D01*
X012880Y006837D01*
X012879Y006837D02*
X012879Y007152D01*
X012880Y007152D02*
X012881Y007162D01*
X012885Y007171D01*
X012891Y007180D01*
X012900Y007186D01*
X012909Y007190D01*
X012919Y007191D01*
X013115Y007191D01*
X013110Y006330D02*
X013076Y006297D01*
X013076Y006230D01*
X013110Y006197D01*
X013143Y006197D01*
X013176Y006230D01*
X013176Y006297D01*
X013143Y006330D01*
X013110Y006330D01*
X013176Y006297D02*
X013210Y006330D01*
X013243Y006330D01*
X013277Y006297D01*
X013277Y006230D01*
X013243Y006197D01*
X013210Y006197D01*
X013176Y006230D01*
X013210Y006109D02*
X013076Y005976D01*
X013076Y006109D01*
X013210Y006109D02*
X013243Y006109D01*
X013277Y006076D01*
X013277Y006009D01*
X013243Y005976D01*
X013243Y005888D02*
X013176Y005888D01*
X013143Y005855D01*
X013143Y005755D01*
X013143Y005821D02*
X013076Y005888D01*
X013076Y005755D02*
X013277Y005755D01*
X013277Y005855D01*
X013243Y005888D01*
X011625Y008904D02*
X011558Y008904D01*
X011525Y008938D01*
X011437Y008938D02*
X011404Y008904D01*
X011337Y008904D01*
X011304Y008938D01*
X011304Y008971D01*
X011337Y009004D01*
X011371Y009004D01*
X011337Y009004D02*
X011304Y009038D01*
X011304Y009071D01*
X011337Y009104D01*
X011404Y009104D01*
X011437Y009071D01*
X011525Y009071D02*
X011558Y009104D01*
X011625Y009104D01*
X011658Y009071D01*
X011658Y008938D01*
X011625Y008904D01*
X011216Y008938D02*
X011216Y009004D01*
X011116Y009004D01*
X011083Y008971D01*
X011083Y008938D01*
X011116Y008904D01*
X011183Y008904D01*
X011216Y008938D01*
X011216Y009004D02*
X011150Y009071D01*
X011083Y009104D01*
X012146Y009489D02*
X012146Y009522D01*
X012179Y009556D01*
X012279Y009556D01*
X012279Y009489D01*
X012246Y009455D01*
X012179Y009455D01*
X012146Y009489D01*
X012213Y009622D02*
X012279Y009556D01*
X012213Y009622D02*
X012146Y009656D01*
X012367Y009622D02*
X012400Y009656D01*
X012467Y009656D01*
X012500Y009622D01*
X012588Y009622D02*
X012588Y009556D01*
X012621Y009522D01*
X012721Y009522D01*
X012655Y009522D02*
X012588Y009455D01*
X012500Y009455D02*
X012367Y009589D01*
X012367Y009622D01*
X012367Y009455D02*
X012500Y009455D01*
X012588Y009622D02*
X012621Y009656D01*
X012721Y009656D01*
X012721Y009455D01*
X013543Y010361D02*
X013509Y010394D01*
X013509Y010461D01*
X013543Y010494D01*
X013543Y010582D02*
X013509Y010615D01*
X013509Y010682D01*
X013543Y010715D01*
X013576Y010715D01*
X013610Y010682D01*
X013610Y010649D01*
X013610Y010682D02*
X013643Y010715D01*
X013676Y010715D01*
X013710Y010682D01*
X013710Y010615D01*
X013676Y010582D01*
X013676Y010494D02*
X013710Y010461D01*
X013710Y010394D01*
X013676Y010361D01*
X013543Y010361D01*
X013543Y010803D02*
X013676Y010936D01*
X013543Y010936D01*
X013509Y010903D01*
X013509Y010836D01*
X013543Y010803D01*
X013676Y010803D01*
X013710Y010836D01*
X013710Y010903D01*
X013676Y010936D01*
X014100Y011064D02*
X014100Y011130D01*
X014133Y011164D01*
X014100Y011251D02*
X014100Y011385D01*
X014100Y011318D02*
X014300Y011318D01*
X014233Y011251D01*
X014267Y011164D02*
X014300Y011130D01*
X014300Y011064D01*
X014267Y011030D01*
X014133Y011030D01*
X014100Y011064D01*
X014133Y011472D02*
X014267Y011606D01*
X014133Y011606D01*
X014100Y011572D01*
X014100Y011506D01*
X014133Y011472D01*
X014267Y011472D01*
X014300Y011506D01*
X014300Y011572D01*
X014267Y011606D01*
X014320Y012684D02*
X014387Y012751D01*
X014354Y012751D02*
X014454Y012751D01*
X014454Y012684D02*
X014454Y012884D01*
X014354Y012884D01*
X014320Y012851D01*
X014320Y012784D01*
X014354Y012751D01*
X014233Y012717D02*
X014199Y012684D01*
X014133Y012684D01*
X014099Y012717D01*
X014099Y012751D01*
X014133Y012784D01*
X014166Y012784D01*
X014133Y012784D02*
X014099Y012817D01*
X014099Y012851D01*
X014133Y012884D01*
X014199Y012884D01*
X014233Y012851D01*
X014012Y012884D02*
X013878Y012884D01*
X013878Y012851D01*
X014012Y012717D01*
X014012Y012684D01*
X013978Y013117D02*
X013912Y013117D01*
X013878Y013150D01*
X013878Y013184D01*
X013912Y013217D01*
X014012Y013217D01*
X014012Y013150D01*
X013978Y013117D01*
X014012Y013217D02*
X013945Y013284D01*
X013878Y013317D01*
X014099Y013284D02*
X014099Y013250D01*
X014133Y013217D01*
X014099Y013184D01*
X014099Y013150D01*
X014133Y013117D01*
X014199Y013117D01*
X014233Y013150D01*
X014320Y013117D02*
X014387Y013184D01*
X014354Y013184D02*
X014454Y013184D01*
X014454Y013117D02*
X014454Y013317D01*
X014354Y013317D01*
X014320Y013284D01*
X014320Y013217D01*
X014354Y013184D01*
X014233Y013284D02*
X014199Y013317D01*
X014133Y013317D01*
X014099Y013284D01*
X014133Y013217D02*
X014166Y013217D01*
X014160Y013550D02*
X014193Y013583D01*
X014160Y013550D02*
X014093Y013550D01*
X014060Y013583D01*
X014060Y013617D01*
X014093Y013650D01*
X014127Y013650D01*
X014093Y013650D02*
X014060Y013683D01*
X014060Y013717D01*
X014093Y013750D01*
X014160Y013750D01*
X014193Y013717D01*
X014281Y013717D02*
X014281Y013650D01*
X014314Y013617D01*
X014414Y013617D01*
X014348Y013617D02*
X014281Y013550D01*
X014414Y013550D02*
X014414Y013750D01*
X014314Y013750D01*
X014281Y013717D01*
X013972Y013750D02*
X013972Y013650D01*
X013906Y013683D01*
X013872Y013683D01*
X013839Y013650D01*
X013839Y013583D01*
X013872Y013550D01*
X013939Y013550D01*
X013972Y013583D01*
X013972Y013750D02*
X013839Y013750D01*
X015990Y013620D02*
X015990Y013553D01*
X016023Y013520D01*
X016090Y013586D02*
X016090Y013620D01*
X016056Y013653D01*
X016023Y013653D01*
X015990Y013620D01*
X016090Y013620D02*
X016123Y013653D01*
X016157Y013653D01*
X016190Y013620D01*
X016190Y013553D01*
X016157Y013520D01*
X016190Y013365D02*
X015990Y013365D01*
X015990Y013299D02*
X015990Y013432D01*
X016123Y013299D02*
X016190Y013365D01*
X016157Y013211D02*
X016190Y013178D01*
X016190Y013111D01*
X016157Y013078D01*
X016023Y013078D01*
X015990Y013111D01*
X015990Y013178D01*
X016023Y013211D01*
X019966Y009777D02*
X019999Y009810D01*
X020133Y009810D01*
X020166Y009777D01*
X020166Y009710D01*
X020133Y009676D01*
X020100Y009676D01*
X020066Y009710D01*
X020066Y009810D01*
X019966Y009777D02*
X019966Y009710D01*
X019999Y009676D01*
X019966Y009589D02*
X020033Y009522D01*
X020033Y009556D02*
X020033Y009455D01*
X019966Y009455D02*
X020166Y009455D01*
X020166Y009556D01*
X020133Y009589D01*
X020066Y009589D01*
X020033Y009556D01*
X020911Y009528D02*
X020911Y009595D01*
X020944Y009628D01*
X020911Y009716D02*
X021044Y009849D01*
X021078Y009849D01*
X021111Y009816D01*
X021111Y009749D01*
X021078Y009716D01*
X021078Y009628D02*
X021111Y009595D01*
X021111Y009528D01*
X021078Y009495D01*
X020944Y009495D01*
X020911Y009528D01*
X020911Y009716D02*
X020911Y009849D01*
X020911Y009937D02*
X021044Y010070D01*
X021078Y010070D01*
X021111Y010037D01*
X021111Y009970D01*
X021078Y009937D01*
X020911Y009937D02*
X020911Y010070D01*
X020487Y010873D02*
X020354Y010873D01*
X020320Y010906D01*
X020320Y010973D01*
X020354Y011006D01*
X020320Y011094D02*
X020454Y011227D01*
X020487Y011227D01*
X020521Y011194D01*
X020521Y011127D01*
X020487Y011094D01*
X020487Y011006D02*
X020521Y010973D01*
X020521Y010906D01*
X020487Y010873D01*
X020320Y011094D02*
X020320Y011227D01*
X020320Y011315D02*
X020320Y011448D01*
X020320Y011382D02*
X020521Y011382D01*
X020454Y011315D01*
X021692Y010070D02*
X021659Y010037D01*
X021659Y009970D01*
X021692Y009937D01*
X021659Y009849D02*
X021659Y009716D01*
X021792Y009849D01*
X021826Y009849D01*
X021859Y009816D01*
X021859Y009749D01*
X021826Y009716D01*
X021826Y009628D02*
X021859Y009595D01*
X021859Y009528D01*
X021826Y009495D01*
X021692Y009495D01*
X021659Y009528D01*
X021659Y009595D01*
X021692Y009628D01*
X021826Y009937D02*
X021859Y009970D01*
X021859Y010037D01*
X021826Y010070D01*
X021792Y010070D01*
X021759Y010037D01*
X021726Y010070D01*
X021692Y010070D01*
X021759Y010037D02*
X021759Y010004D01*
X022297Y009183D02*
X022398Y009083D01*
X022264Y009083D01*
X022297Y008983D02*
X022297Y009183D01*
X022485Y009150D02*
X022518Y009183D01*
X022585Y009183D01*
X022619Y009150D01*
X022706Y009150D02*
X022739Y009183D01*
X022806Y009183D01*
X022839Y009150D01*
X022839Y009016D01*
X022806Y008983D01*
X022739Y008983D01*
X022706Y009016D01*
X022619Y008983D02*
X022485Y009116D01*
X022485Y009150D01*
X022485Y008983D02*
X022619Y008983D01*
X022485Y008766D02*
X021974Y008766D01*
X022485Y008766D02*
X022511Y008764D01*
X022536Y008759D01*
X022560Y008751D01*
X022584Y008740D01*
X022605Y008725D01*
X022624Y008708D01*
X022641Y008689D01*
X022656Y008667D01*
X022667Y008644D01*
X022675Y008620D01*
X022680Y008595D01*
X022682Y008569D01*
X022682Y008428D01*
X023031Y008786D02*
X022998Y008820D01*
X022998Y008886D01*
X023031Y008920D01*
X022998Y009007D02*
X023131Y009141D01*
X023164Y009141D01*
X023198Y009107D01*
X023198Y009041D01*
X023164Y009007D01*
X023164Y008920D02*
X023198Y008886D01*
X023198Y008820D01*
X023164Y008786D01*
X023031Y008786D01*
X022998Y009007D02*
X022998Y009141D01*
X023031Y009228D02*
X022998Y009262D01*
X022998Y009328D01*
X023031Y009362D01*
X023098Y009362D01*
X023131Y009328D01*
X023131Y009295D01*
X023098Y009228D01*
X023198Y009228D01*
X023198Y009362D01*
X023276Y008238D02*
X023276Y008038D01*
X023342Y008038D02*
X023209Y008038D01*
X023342Y008172D02*
X023276Y008238D01*
X023497Y008238D02*
X023497Y008038D01*
X023563Y008038D02*
X023430Y008038D01*
X023563Y008172D02*
X023497Y008238D01*
X023651Y008205D02*
X023651Y008138D01*
X023684Y008105D01*
X023784Y008105D01*
X023718Y008105D02*
X023651Y008038D01*
X023784Y008038D02*
X023784Y008238D01*
X023684Y008238D01*
X023651Y008205D01*
X024139Y008172D02*
X024206Y008105D01*
X024206Y008138D02*
X024206Y008038D01*
X024139Y008038D02*
X024340Y008038D01*
X024340Y008138D01*
X024306Y008172D01*
X024239Y008172D01*
X024206Y008138D01*
X024139Y008259D02*
X024139Y008393D01*
X024139Y008326D02*
X024340Y008326D01*
X024273Y008259D01*
X024306Y008480D02*
X024340Y008513D01*
X024340Y008580D01*
X024306Y008614D01*
X024173Y008480D01*
X024139Y008513D01*
X024139Y008580D01*
X024173Y008614D01*
X024306Y008614D01*
X024306Y008480D02*
X024173Y008480D01*
X024408Y007097D02*
X024508Y006997D01*
X024375Y006997D01*
X024408Y007097D02*
X024408Y006896D01*
X024596Y006896D02*
X024663Y006963D01*
X024629Y006963D02*
X024729Y006963D01*
X024729Y006896D02*
X024729Y007097D01*
X024629Y007097D01*
X024596Y007063D01*
X024596Y006997D01*
X024629Y006963D01*
X024379Y006291D02*
X024346Y006291D01*
X024212Y006157D01*
X024179Y006157D01*
X024212Y006070D02*
X024179Y006036D01*
X024179Y005970D01*
X024212Y005936D01*
X024212Y005849D02*
X024179Y005815D01*
X024179Y005749D01*
X024212Y005715D01*
X024346Y005715D01*
X024379Y005749D01*
X024379Y005815D01*
X024346Y005849D01*
X024346Y005936D02*
X024379Y005970D01*
X024379Y006036D01*
X024346Y006070D01*
X024312Y006070D01*
X024279Y006036D01*
X024245Y006070D01*
X024212Y006070D01*
X024279Y006036D02*
X024279Y006003D01*
X024379Y006157D02*
X024379Y006291D01*
X024927Y010204D02*
X025127Y010204D01*
X025127Y010304D01*
X025094Y010337D01*
X025027Y010337D01*
X024993Y010304D01*
X024993Y010204D01*
X024993Y010270D02*
X024927Y010337D01*
X024927Y010424D02*
X024927Y010558D01*
X024927Y010491D02*
X025127Y010491D01*
X025060Y010424D01*
X025094Y010645D02*
X025127Y010679D01*
X025127Y010746D01*
X025094Y010779D01*
X025060Y010779D01*
X024927Y010645D01*
X024927Y010779D01*
X024064Y011615D02*
X024031Y011581D01*
X023897Y011581D01*
X023864Y011615D01*
X023864Y011682D01*
X023897Y011715D01*
X023864Y011802D02*
X023997Y011936D01*
X024031Y011936D01*
X024064Y011903D01*
X024064Y011836D01*
X024031Y011802D01*
X024031Y011715D02*
X024064Y011682D01*
X024064Y011615D01*
X023864Y011802D02*
X023864Y011936D01*
X023897Y012023D02*
X023864Y012057D01*
X023864Y012124D01*
X023897Y012157D01*
X023930Y012157D01*
X023964Y012124D01*
X023964Y012023D01*
X023897Y012023D01*
X023964Y012023D02*
X024031Y012090D01*
X024064Y012157D01*
X011072Y006494D02*
X011038Y006527D01*
X011005Y006527D01*
X010972Y006494D01*
X010938Y006527D01*
X010905Y006527D01*
X010872Y006494D01*
X010872Y006427D01*
X010905Y006394D01*
X010905Y006306D02*
X010872Y006273D01*
X010872Y006206D01*
X010905Y006173D01*
X010905Y006085D02*
X010872Y006052D01*
X010872Y005985D01*
X010905Y005952D01*
X011038Y005952D01*
X011072Y005985D01*
X011072Y006052D01*
X011038Y006085D01*
X011038Y006173D02*
X011072Y006206D01*
X011072Y006273D01*
X011038Y006306D01*
X011005Y006306D01*
X010972Y006273D01*
X010938Y006306D01*
X010905Y006306D01*
X010972Y006273D02*
X010972Y006239D01*
X011038Y006394D02*
X011072Y006427D01*
X011072Y006494D01*
X010972Y006494D02*
X010972Y006460D01*
X009454Y005922D02*
X009454Y005788D01*
X009420Y005755D01*
X009354Y005755D01*
X009320Y005788D01*
X009233Y005788D02*
X009233Y005755D01*
X009233Y005788D02*
X009099Y005922D01*
X009099Y005955D01*
X009233Y005955D01*
X009320Y005922D02*
X009354Y005955D01*
X009420Y005955D01*
X009454Y005922D01*
X009454Y005640D02*
X009354Y005640D01*
X009320Y005607D01*
X009320Y005540D01*
X009354Y005506D01*
X009454Y005506D01*
X009454Y005440D02*
X009454Y005640D01*
X009387Y005506D02*
X009320Y005440D01*
X009233Y005473D02*
X009199Y005440D01*
X009133Y005440D01*
X009099Y005473D01*
X009099Y005506D01*
X009133Y005540D01*
X009166Y005540D01*
X009133Y005540D02*
X009099Y005573D01*
X009099Y005607D01*
X009133Y005640D01*
X009199Y005640D01*
X009233Y005607D01*
X009012Y005607D02*
X008978Y005640D01*
X008912Y005640D01*
X008878Y005607D01*
X009012Y005473D01*
X008978Y005440D01*
X008912Y005440D01*
X008878Y005473D01*
X008878Y005607D01*
X009012Y005607D02*
X009012Y005473D01*
X008912Y005325D02*
X009012Y005225D01*
X008878Y005225D01*
X008912Y005125D02*
X008912Y005325D01*
X009099Y005292D02*
X009099Y005258D01*
X009133Y005225D01*
X009099Y005191D01*
X009099Y005158D01*
X009133Y005125D01*
X009199Y005125D01*
X009233Y005158D01*
X009320Y005158D02*
X009354Y005125D01*
X009420Y005125D01*
X009454Y005158D01*
X009454Y005292D01*
X009420Y005325D01*
X009354Y005325D01*
X009320Y005292D01*
X009233Y005292D02*
X009199Y005325D01*
X009133Y005325D01*
X009099Y005292D01*
X009133Y005225D02*
X009166Y005225D01*
X007564Y006030D02*
X007564Y006230D01*
X007464Y006230D01*
X007430Y006197D01*
X007430Y006130D01*
X007464Y006097D01*
X007564Y006097D01*
X007497Y006097D02*
X007430Y006030D01*
X007343Y006030D02*
X007209Y006164D01*
X007209Y006197D01*
X007243Y006230D01*
X007310Y006230D01*
X007343Y006197D01*
X007343Y006030D02*
X007209Y006030D01*
X007122Y006030D02*
X007122Y006064D01*
X006988Y006197D01*
X006988Y006230D01*
X007122Y006230D01*
X007149Y005719D02*
X007115Y005685D01*
X007115Y005619D01*
X007149Y005585D01*
X007249Y005585D01*
X007249Y005518D02*
X007249Y005719D01*
X007149Y005719D01*
X007182Y005585D02*
X007115Y005518D01*
X007028Y005518D02*
X006895Y005518D01*
X006961Y005518D02*
X006961Y005719D01*
X007028Y005652D01*
X006807Y005619D02*
X006707Y005719D01*
X006707Y005518D01*
X006674Y005619D02*
X006807Y005619D01*
X006422Y005585D02*
X006322Y005585D01*
X006289Y005619D01*
X006289Y005685D01*
X006322Y005719D01*
X006422Y005719D01*
X006422Y005518D01*
X006355Y005585D02*
X006289Y005518D01*
X006201Y005552D02*
X006201Y005585D01*
X006168Y005619D01*
X006101Y005619D01*
X006068Y005585D01*
X006068Y005552D01*
X006101Y005518D01*
X006168Y005518D01*
X006201Y005552D01*
X006168Y005619D02*
X006201Y005652D01*
X006201Y005685D01*
X006168Y005719D01*
X006101Y005719D01*
X006068Y005685D01*
X006068Y005652D01*
X006101Y005619D01*
X006746Y009377D02*
X006713Y009410D01*
X006713Y009544D01*
X006746Y009577D01*
X006813Y009577D01*
X006846Y009544D01*
X006846Y009510D01*
X006813Y009477D01*
X006713Y009477D01*
X006746Y009377D02*
X006813Y009377D01*
X006846Y009410D01*
X006934Y009377D02*
X007067Y009377D01*
X006934Y009510D01*
X006934Y009544D01*
X006967Y009577D01*
X007034Y009577D01*
X007067Y009544D01*
X007155Y009544D02*
X007155Y009477D01*
X007188Y009443D01*
X007288Y009443D01*
X007288Y009377D02*
X007288Y009577D01*
X007188Y009577D01*
X007155Y009544D01*
X007222Y009443D02*
X007155Y009377D01*
X007958Y009449D02*
X007992Y009416D01*
X008125Y009416D01*
X008158Y009449D01*
X008158Y009516D01*
X008125Y009550D01*
X008125Y009637D02*
X008158Y009670D01*
X008158Y009737D01*
X008125Y009771D01*
X008092Y009771D01*
X008058Y009737D01*
X008025Y009771D01*
X007992Y009771D01*
X007958Y009737D01*
X007958Y009670D01*
X007992Y009637D01*
X007992Y009550D02*
X007958Y009516D01*
X007958Y009449D01*
X008058Y009704D02*
X008058Y009737D01*
X008058Y009858D02*
X008092Y009925D01*
X008092Y009958D01*
X008058Y009992D01*
X007992Y009992D01*
X007958Y009958D01*
X007958Y009891D01*
X007992Y009858D01*
X008058Y009858D02*
X008158Y009858D01*
X008158Y009992D01*
X008104Y010833D02*
X008104Y010934D01*
X008137Y010967D01*
X008204Y010967D01*
X008237Y010934D01*
X008237Y010833D01*
X008037Y010833D01*
X008104Y010900D02*
X008037Y010967D01*
X008070Y011054D02*
X008037Y011088D01*
X008037Y011155D01*
X008070Y011188D01*
X008104Y011188D01*
X008137Y011155D01*
X008137Y011121D01*
X008137Y011155D02*
X008170Y011188D01*
X008204Y011188D01*
X008237Y011155D01*
X008237Y011088D01*
X008204Y011054D01*
X008352Y011088D02*
X008385Y011054D01*
X008352Y011088D02*
X008352Y011155D01*
X008385Y011188D01*
X008419Y011188D01*
X008452Y011155D01*
X008452Y011121D01*
X008452Y011155D02*
X008485Y011188D01*
X008519Y011188D01*
X008552Y011155D01*
X008552Y011088D01*
X008519Y011054D01*
X008519Y010967D02*
X008452Y010967D01*
X008419Y010934D01*
X008419Y010833D01*
X008352Y010833D02*
X008552Y010833D01*
X008552Y010934D01*
X008519Y010967D01*
X008419Y010900D02*
X008352Y010967D01*
X008385Y011275D02*
X008419Y011275D01*
X008452Y011309D01*
X008452Y011375D01*
X008419Y011409D01*
X008385Y011409D01*
X008352Y011375D01*
X008352Y011309D01*
X008385Y011275D01*
X008452Y011309D02*
X008485Y011275D01*
X008519Y011275D01*
X008552Y011309D01*
X008552Y011375D01*
X008519Y011409D01*
X008485Y011409D01*
X008452Y011375D01*
X008237Y011375D02*
X008237Y011309D01*
X008204Y011275D01*
X008170Y011275D01*
X008137Y011309D01*
X008137Y011409D01*
X008070Y011409D02*
X008204Y011409D01*
X008237Y011375D01*
X008070Y011409D02*
X008037Y011375D01*
X008037Y011309D01*
X008070Y011275D01*
X008746Y011503D02*
X008946Y011503D01*
X008946Y011603D01*
X008912Y011636D01*
X008846Y011636D01*
X008812Y011603D01*
X008812Y011503D01*
X008812Y011569D02*
X008746Y011636D01*
X008779Y011724D02*
X008746Y011757D01*
X008746Y011824D01*
X008779Y011857D01*
X008846Y011857D01*
X008879Y011824D01*
X008879Y011790D01*
X008846Y011724D01*
X008946Y011724D01*
X008946Y011857D01*
X009061Y011824D02*
X009094Y011857D01*
X009127Y011857D01*
X009161Y011824D01*
X009161Y011724D01*
X009094Y011724D01*
X009061Y011757D01*
X009061Y011824D01*
X009161Y011724D02*
X009227Y011790D01*
X009261Y011857D01*
X009227Y011636D02*
X009161Y011636D01*
X009127Y011603D01*
X009127Y011503D01*
X009061Y011503D02*
X009261Y011503D01*
X009261Y011603D01*
X009227Y011636D01*
X009127Y011569D02*
X009061Y011636D01*
D13*
X024597Y031646D02*
X025008Y031646D01*
X025008Y031919D01*
X025008Y032106D02*
X025008Y032380D01*
X025008Y032243D02*
X024597Y032243D01*
X024597Y032567D02*
X024597Y032772D01*
X024666Y032840D01*
X024939Y032840D01*
X025008Y032772D01*
X025008Y032567D01*
X024597Y032567D01*
X024597Y033027D02*
X024597Y033164D01*
X024597Y033095D02*
X025008Y033095D01*
X025008Y033027D02*
X025008Y033164D01*
X024803Y031783D02*
X024803Y031646D01*
D14*
X024860Y024137D03*
X024854Y023198D03*
X025207Y023022D03*
X025553Y023192D03*
X025566Y024131D03*
D15*
X025459Y023142D03*
X025207Y023028D03*
X024955Y024187D03*
D16*
X025093Y023595D03*
X025326Y023734D03*
X025207Y023035D03*
D17*
X025207Y023041D03*
X025106Y023614D03*
X025207Y024288D03*
D18*
X025207Y023047D03*
D19*
X025207Y023054D03*
X025207Y024276D03*
D20*
X025207Y023060D03*
D21*
X025207Y023066D03*
X025207Y024263D03*
D22*
X025207Y023072D03*
D23*
X025207Y023079D03*
D24*
X025207Y023085D03*
D25*
X025207Y023091D03*
D26*
X025207Y023098D03*
X025207Y024232D03*
D27*
X025191Y023696D03*
X025197Y023684D03*
X025210Y023665D03*
X025216Y023652D03*
X025210Y023104D03*
D28*
X025207Y023110D03*
D29*
X025207Y023117D03*
X025207Y024213D03*
D30*
X025207Y023123D03*
D31*
X025402Y023129D03*
X025011Y023129D03*
X025320Y023728D03*
D32*
X025090Y023583D03*
X024977Y023135D03*
X025437Y023135D03*
X025443Y024194D03*
X024971Y024194D03*
D33*
X025462Y024187D03*
X025336Y023753D03*
X025090Y023576D03*
X024958Y023142D03*
D34*
X025474Y023148D03*
X024939Y024181D03*
D35*
X025478Y024181D03*
X024942Y023148D03*
D36*
X024926Y023154D03*
X025487Y023154D03*
X025493Y024175D03*
D37*
X025503Y024169D03*
X024911Y024169D03*
X025503Y023161D03*
D38*
X025512Y023167D03*
X025084Y023564D03*
X025336Y023765D03*
X024914Y023161D03*
D39*
X024904Y023167D03*
X024892Y023173D03*
X024967Y023715D03*
X024898Y024162D03*
X025515Y024162D03*
D40*
X025525Y024156D03*
X025537Y024150D03*
X025456Y023614D03*
X025525Y023173D03*
X024889Y024156D03*
D41*
X024879Y024150D03*
X025207Y024307D03*
X025339Y023772D03*
X025547Y024143D03*
X025534Y023180D03*
X024879Y023180D03*
D42*
X024870Y023186D03*
X024863Y023192D03*
X025084Y023558D03*
X024952Y023721D03*
X024870Y024143D03*
X025462Y023608D03*
X025544Y023186D03*
X025556Y024137D03*
D43*
X025575Y024124D03*
X025582Y024118D03*
X025468Y023602D03*
X025569Y023205D03*
X025563Y023198D03*
X024845Y023205D03*
X024838Y023211D03*
X024945Y023728D03*
X024845Y024124D03*
X024851Y024131D03*
D44*
X024835Y024118D03*
X024829Y024112D03*
X025081Y023551D03*
X025345Y023778D03*
X025597Y024106D03*
X025591Y024112D03*
X025585Y023217D03*
X025578Y023211D03*
X024829Y023217D03*
X024822Y023224D03*
D45*
X024813Y023230D03*
X024807Y023236D03*
X024945Y023734D03*
X024813Y024099D03*
X024819Y024106D03*
X025600Y023230D03*
X025594Y023224D03*
D46*
X025610Y023236D03*
X025616Y023243D03*
X025622Y023249D03*
X025465Y023595D03*
X025616Y024087D03*
X025610Y024093D03*
X025604Y024099D03*
X024804Y024093D03*
X024797Y024087D03*
X024791Y024080D03*
X024785Y024074D03*
X024804Y023243D03*
D47*
X024794Y023249D03*
X024788Y023255D03*
X024782Y023261D03*
X024775Y023268D03*
X024782Y024068D03*
X025626Y024080D03*
X025632Y024074D03*
X025638Y024068D03*
X025626Y023255D03*
D48*
X025635Y023261D03*
X025641Y023268D03*
X025648Y023274D03*
X025654Y023280D03*
X025345Y023784D03*
X025081Y023545D03*
X024942Y023740D03*
X024759Y024049D03*
X024766Y024055D03*
X024772Y024061D03*
X024753Y023293D03*
X024759Y023287D03*
X024766Y023280D03*
X024772Y023274D03*
X025641Y024061D03*
X025648Y024055D03*
X025654Y024049D03*
X025660Y024043D03*
D49*
X025663Y024036D03*
X025670Y024030D03*
X025676Y024024D03*
X025468Y023589D03*
X025670Y023299D03*
X025663Y023293D03*
X025657Y023287D03*
X024750Y023299D03*
X024744Y023306D03*
X024737Y023312D03*
X024731Y024011D03*
X024737Y024017D03*
X024744Y024024D03*
X024744Y024030D03*
X024750Y024036D03*
X024756Y024043D03*
D50*
X024728Y024005D03*
X024722Y023998D03*
X024715Y023986D03*
X024709Y023980D03*
X024709Y023356D03*
X024715Y023343D03*
X024722Y023337D03*
X024728Y023331D03*
X024728Y023324D03*
X024734Y023318D03*
X025673Y023306D03*
X025679Y023312D03*
X025685Y023318D03*
X025685Y023324D03*
X025692Y023331D03*
X025704Y023350D03*
X025698Y023992D03*
X025692Y024005D03*
X025685Y024011D03*
X025679Y024017D03*
D51*
X025695Y023998D03*
X025701Y023986D03*
X025708Y023980D03*
X025714Y023967D03*
X025720Y023375D03*
X025714Y023362D03*
X025708Y023356D03*
X025701Y023343D03*
X025695Y023337D03*
X024945Y023747D03*
X024681Y023929D03*
X024687Y023942D03*
X024693Y023948D03*
X024693Y023954D03*
X024700Y023961D03*
X024700Y023967D03*
X024706Y023973D03*
X024719Y023992D03*
X024687Y023394D03*
X024693Y023381D03*
X024700Y023369D03*
X024706Y023362D03*
X024712Y023350D03*
D52*
X024697Y023375D03*
X024690Y023387D03*
X024684Y023400D03*
X024678Y023406D03*
X024678Y023413D03*
X024671Y023425D03*
X024665Y023438D03*
X024659Y023879D03*
X024665Y023891D03*
X024665Y023898D03*
X024671Y023904D03*
X024671Y023910D03*
X024678Y023917D03*
X024678Y023923D03*
X024684Y023935D03*
X025465Y023583D03*
X025748Y023432D03*
X025742Y023419D03*
X025736Y023406D03*
X025736Y023400D03*
X025730Y023394D03*
X025730Y023387D03*
X025723Y023381D03*
X025717Y023369D03*
X025748Y023904D03*
X025742Y023917D03*
X025736Y023929D03*
X025730Y023935D03*
X025730Y023942D03*
X025723Y023948D03*
X025723Y023954D03*
X025717Y023961D03*
X025711Y023973D03*
D53*
X025739Y023923D03*
X025745Y023910D03*
X025752Y023898D03*
X025752Y023891D03*
X025758Y023885D03*
X025758Y023879D03*
X025764Y023866D03*
X025764Y023860D03*
X025771Y023847D03*
X025771Y023841D03*
X025777Y023822D03*
X025771Y023488D03*
X025764Y023469D03*
X025758Y023457D03*
X025758Y023450D03*
X025752Y023444D03*
X025752Y023438D03*
X025745Y023425D03*
X025739Y023413D03*
X025348Y023791D03*
X024945Y023753D03*
X024649Y023847D03*
X024649Y023854D03*
X024649Y023860D03*
X024656Y023866D03*
X024656Y023872D03*
X024662Y023885D03*
X024643Y023841D03*
X024643Y023835D03*
X024643Y023828D03*
X024637Y023816D03*
X024637Y023809D03*
X024630Y023784D03*
X024630Y023551D03*
X024637Y023526D03*
X024637Y023520D03*
X024643Y023501D03*
X024643Y023495D03*
X024649Y023488D03*
X024649Y023482D03*
X024649Y023476D03*
X024656Y023469D03*
X024656Y023463D03*
X024656Y023457D03*
X024662Y023450D03*
X024662Y023444D03*
X024668Y023432D03*
X024674Y023419D03*
D54*
X024640Y023507D03*
X024640Y023513D03*
X024634Y023532D03*
X024634Y023539D03*
X024634Y023545D03*
X024627Y023558D03*
X024627Y023564D03*
X024627Y023570D03*
X024627Y023576D03*
X024627Y023583D03*
X024621Y023595D03*
X024621Y023602D03*
X024621Y023608D03*
X024621Y023614D03*
X024621Y023621D03*
X024621Y023627D03*
X024621Y023633D03*
X024621Y023639D03*
X024621Y023646D03*
X024621Y023652D03*
X024621Y023684D03*
X024621Y023690D03*
X024621Y023696D03*
X024621Y023702D03*
X024621Y023709D03*
X024621Y023715D03*
X024621Y023721D03*
X024621Y023728D03*
X024621Y023734D03*
X024621Y023740D03*
X024627Y023753D03*
X024627Y023759D03*
X024627Y023765D03*
X024627Y023772D03*
X024627Y023778D03*
X024634Y023791D03*
X024634Y023797D03*
X024634Y023803D03*
X024640Y023822D03*
X025081Y023539D03*
X025465Y023576D03*
X025774Y023507D03*
X025774Y023501D03*
X025774Y023495D03*
X025767Y023482D03*
X025767Y023476D03*
X025761Y023463D03*
X025780Y023513D03*
X025780Y023520D03*
X025780Y023526D03*
X025780Y023532D03*
X025786Y023539D03*
X025786Y023545D03*
X025786Y023551D03*
X025786Y023558D03*
X025793Y023576D03*
X025793Y023583D03*
X025793Y023589D03*
X025793Y023740D03*
X025793Y023747D03*
X025793Y023753D03*
X025786Y023778D03*
X025786Y023784D03*
X025786Y023791D03*
X025780Y023803D03*
X025780Y023809D03*
X025780Y023816D03*
X025774Y023828D03*
X025774Y023835D03*
X025767Y023854D03*
X025761Y023872D03*
D55*
X025449Y023532D03*
X024964Y023803D03*
D56*
X025081Y023532D03*
X025345Y023797D03*
D57*
X025452Y023539D03*
D58*
X025452Y023545D03*
D59*
X025456Y023551D03*
D60*
X025459Y023558D03*
X024955Y023778D03*
D61*
X024624Y023747D03*
X024618Y023677D03*
X024618Y023671D03*
X024618Y023665D03*
X024618Y023658D03*
X024624Y023589D03*
X025789Y023570D03*
X025789Y023564D03*
X025796Y023595D03*
X025796Y023602D03*
X025796Y023608D03*
X025796Y023614D03*
X025796Y023621D03*
X025796Y023627D03*
X025796Y023633D03*
X025796Y023639D03*
X025796Y023646D03*
X025796Y023652D03*
X025796Y023658D03*
X025796Y023665D03*
X025796Y023671D03*
X025796Y023677D03*
X025796Y023684D03*
X025796Y023690D03*
X025796Y023696D03*
X025796Y023702D03*
X025796Y023709D03*
X025796Y023715D03*
X025796Y023721D03*
X025796Y023728D03*
X025796Y023734D03*
X025789Y023759D03*
X025789Y023765D03*
X025789Y023772D03*
X025783Y023797D03*
D62*
X025462Y023564D03*
D63*
X025462Y023570D03*
D64*
X025339Y023759D03*
X025087Y023570D03*
X024923Y024175D03*
D65*
X025090Y023589D03*
X025330Y023740D03*
D66*
X025100Y023602D03*
X025207Y024295D03*
D67*
X025103Y023608D03*
D68*
X025229Y023633D03*
X025235Y023621D03*
D69*
X025232Y023627D03*
X025226Y023639D03*
X025219Y023646D03*
X025213Y023658D03*
X025207Y023671D03*
X025200Y023677D03*
X025194Y023690D03*
X025188Y023702D03*
X025182Y023709D03*
D70*
X025304Y023715D03*
D71*
X025317Y023721D03*
D72*
X025333Y023747D03*
X025207Y024301D03*
D73*
X024948Y023759D03*
D74*
X024948Y023765D03*
D75*
X024952Y023772D03*
D76*
X024958Y023784D03*
D77*
X024958Y023791D03*
D78*
X024961Y023797D03*
D79*
X025002Y024200D03*
X025411Y024200D03*
D80*
X025207Y024206D03*
D81*
X025207Y024219D03*
D82*
X025207Y024225D03*
D83*
X025210Y024238D03*
D84*
X025207Y024244D03*
D85*
X025207Y024250D03*
D86*
X025210Y024257D03*
D87*
X025207Y024269D03*
D88*
X025210Y024282D03*
D89*
X025210Y024918D03*
D90*
X025210Y022417D03*
D91*
X003673Y007359D02*
X004346Y005914D01*
X005738Y006563D02*
X005064Y008008D01*
X004139Y009613D02*
X003548Y009613D01*
X003076Y010636D02*
X005202Y010636D01*
X005458Y010243D02*
X005458Y010006D01*
X005891Y011719D02*
X005891Y012349D01*
X005897Y012367D01*
X005906Y012385D01*
X005918Y012400D01*
X005934Y012412D01*
X005951Y012421D01*
X005970Y012427D01*
X005989Y012429D01*
X006009Y012427D01*
X006560Y012427D02*
X006578Y012429D01*
X006595Y012428D01*
X006612Y012424D01*
X006628Y012417D01*
X006643Y012407D01*
X006655Y012395D01*
X006665Y012381D01*
X006673Y012365D01*
X006678Y012349D01*
X006678Y011719D01*
X006678Y012349D01*
X006679Y012349D02*
X006685Y012367D01*
X006694Y012385D01*
X006706Y012400D01*
X006722Y012412D01*
X006739Y012421D01*
X006758Y012427D01*
X006777Y012429D01*
X006797Y012427D01*
X007347Y012427D02*
X007365Y012429D01*
X007382Y012428D01*
X007399Y012424D01*
X007415Y012417D01*
X007430Y012407D01*
X007442Y012395D01*
X007452Y012381D01*
X007460Y012365D01*
X007465Y012349D01*
X007466Y012349D02*
X007466Y011719D01*
X007465Y011719D02*
X007460Y011703D01*
X007452Y011687D01*
X007442Y011673D01*
X007430Y011661D01*
X007415Y011651D01*
X007399Y011644D01*
X007382Y011640D01*
X007365Y011639D01*
X007347Y011641D01*
X006797Y011641D02*
X006777Y011639D01*
X006758Y011641D01*
X006739Y011647D01*
X006722Y011656D01*
X006706Y011668D01*
X006694Y011683D01*
X006685Y011701D01*
X006679Y011719D01*
X006678Y011719D02*
X006673Y011703D01*
X006665Y011687D01*
X006655Y011673D01*
X006643Y011661D01*
X006628Y011651D01*
X006612Y011644D01*
X006595Y011640D01*
X006578Y011639D01*
X006560Y011641D01*
X006009Y011641D02*
X005989Y011639D01*
X005970Y011641D01*
X005951Y011647D01*
X005934Y011656D01*
X005918Y011668D01*
X005906Y011683D01*
X005897Y011701D01*
X005891Y011719D01*
X002820Y010243D02*
X002820Y010006D01*
X002885Y021676D02*
X003385Y021676D01*
X003635Y021926D01*
X003635Y022426D01*
X003385Y022676D01*
X003635Y022926D01*
X003635Y023426D01*
X003385Y023676D01*
X002885Y023676D01*
X002635Y023426D01*
X002635Y022926D01*
X002885Y022676D01*
X002635Y022426D01*
X002635Y021926D01*
X002885Y021676D01*
X007058Y027573D02*
X006808Y027823D01*
X006808Y028323D01*
X007058Y028573D01*
X006808Y028823D01*
X006808Y029323D01*
X007058Y029573D01*
X006808Y029823D01*
X006808Y030323D01*
X007058Y030573D01*
X006808Y030823D01*
X006808Y031323D01*
X007058Y031573D01*
X007558Y031573D01*
X007808Y031323D01*
X007808Y030823D01*
X007558Y030573D01*
X007808Y030323D01*
X007808Y029823D01*
X007558Y029573D01*
X007808Y029323D01*
X007808Y028823D01*
X007558Y028573D01*
X007808Y028323D01*
X007808Y027823D01*
X007558Y027573D01*
X007058Y027573D01*
X008355Y033745D02*
X008357Y033760D01*
X008363Y033773D01*
X008372Y033785D01*
X008383Y033794D01*
X008397Y033800D01*
X008412Y033802D01*
X008427Y033800D01*
X008440Y033794D01*
X008452Y033785D01*
X008461Y033774D01*
X008467Y033760D01*
X008469Y033745D01*
X008467Y033730D01*
X008461Y033717D01*
X008452Y033705D01*
X008441Y033696D01*
X008427Y033690D01*
X008412Y033688D01*
X008397Y033690D01*
X008384Y033696D01*
X008372Y033705D01*
X008363Y033716D01*
X008357Y033730D01*
X008355Y033745D01*
X006935Y036425D02*
X006937Y036440D01*
X006943Y036453D01*
X006952Y036465D01*
X006963Y036474D01*
X006977Y036480D01*
X006992Y036482D01*
X007007Y036480D01*
X007020Y036474D01*
X007032Y036465D01*
X007041Y036454D01*
X007047Y036440D01*
X007049Y036425D01*
X007047Y036410D01*
X007041Y036397D01*
X007032Y036385D01*
X007021Y036376D01*
X007007Y036370D01*
X006992Y036368D01*
X006977Y036370D01*
X006964Y036376D01*
X006952Y036385D01*
X006943Y036396D01*
X006937Y036410D01*
X006935Y036425D01*
X013592Y039329D02*
X013592Y040317D01*
X013985Y040829D02*
X015198Y040829D01*
X015592Y040317D02*
X015592Y039341D01*
X015198Y038829D02*
X013985Y038829D01*
X014092Y039829D02*
X014094Y039873D01*
X014100Y039917D01*
X014110Y039960D01*
X014123Y040002D01*
X014140Y040043D01*
X014161Y040082D01*
X014185Y040119D01*
X014212Y040154D01*
X014242Y040186D01*
X014275Y040216D01*
X014311Y040242D01*
X014348Y040266D01*
X014388Y040285D01*
X014429Y040302D01*
X014472Y040314D01*
X014515Y040323D01*
X014559Y040328D01*
X014603Y040329D01*
X014647Y040326D01*
X014691Y040319D01*
X014734Y040308D01*
X014776Y040294D01*
X014816Y040276D01*
X014855Y040254D01*
X014891Y040230D01*
X014925Y040202D01*
X014957Y040171D01*
X014986Y040137D01*
X015012Y040101D01*
X015034Y040063D01*
X015053Y040023D01*
X015068Y039981D01*
X015080Y039939D01*
X015088Y039895D01*
X015092Y039851D01*
X015092Y039807D01*
X015088Y039763D01*
X015080Y039719D01*
X015068Y039677D01*
X015053Y039635D01*
X015034Y039595D01*
X015012Y039557D01*
X014986Y039521D01*
X014957Y039487D01*
X014925Y039456D01*
X014891Y039428D01*
X014855Y039404D01*
X014816Y039382D01*
X014776Y039364D01*
X014734Y039350D01*
X014691Y039339D01*
X014647Y039332D01*
X014603Y039329D01*
X014559Y039330D01*
X014515Y039335D01*
X014472Y039344D01*
X014429Y039356D01*
X014388Y039373D01*
X014348Y039392D01*
X014311Y039416D01*
X014275Y039442D01*
X014242Y039472D01*
X014212Y039504D01*
X014185Y039539D01*
X014161Y039576D01*
X014140Y039615D01*
X014123Y039656D01*
X014110Y039698D01*
X014100Y039741D01*
X014094Y039785D01*
X014092Y039829D01*
X016157Y040059D02*
X016807Y040059D01*
X016824Y040061D01*
X016841Y040065D01*
X016857Y040072D01*
X016871Y040082D01*
X016884Y040095D01*
X016894Y040109D01*
X016901Y040125D01*
X016905Y040142D01*
X016907Y040159D01*
X016907Y040759D02*
X016905Y040776D01*
X016901Y040793D01*
X016894Y040809D01*
X016884Y040823D01*
X016871Y040836D01*
X016857Y040846D01*
X016841Y040853D01*
X016824Y040857D01*
X016807Y040859D01*
X016157Y040859D01*
X016140Y040857D01*
X016123Y040853D01*
X016107Y040846D01*
X016093Y040836D01*
X016080Y040823D01*
X016070Y040809D01*
X016063Y040793D01*
X016059Y040776D01*
X016057Y040759D01*
X016057Y040159D02*
X016059Y040142D01*
X016063Y040125D01*
X016070Y040109D01*
X016080Y040095D01*
X016093Y040082D01*
X016107Y040072D01*
X016123Y040065D01*
X016140Y040061D01*
X016157Y040059D01*
X016915Y038176D02*
X017545Y038176D01*
X017545Y038175D02*
X017561Y038170D01*
X017577Y038162D01*
X017591Y038152D01*
X017603Y038140D01*
X017613Y038125D01*
X017620Y038109D01*
X017624Y038092D01*
X017625Y038075D01*
X017623Y038057D01*
X017623Y037507D02*
X017625Y037489D01*
X017624Y037472D01*
X017620Y037455D01*
X017613Y037439D01*
X017603Y037424D01*
X017591Y037412D01*
X017577Y037402D01*
X017561Y037394D01*
X017545Y037389D01*
X017545Y037388D02*
X016915Y037388D01*
X016914Y037389D02*
X016898Y037394D01*
X016882Y037402D01*
X016868Y037412D01*
X016856Y037424D01*
X016846Y037439D01*
X016839Y037455D01*
X016835Y037472D01*
X016834Y037489D01*
X016836Y037507D01*
X016836Y038057D02*
X016834Y038075D01*
X016835Y038092D01*
X016839Y038109D01*
X016846Y038125D01*
X016856Y038140D01*
X016868Y038152D01*
X016882Y038162D01*
X016898Y038170D01*
X016914Y038175D01*
X020025Y025991D02*
X020497Y025991D01*
X021245Y025439D02*
X021245Y025282D01*
X020497Y024731D02*
X020025Y024731D01*
X019277Y025282D02*
X019277Y025439D01*
X017505Y018491D02*
X017505Y018333D01*
X017505Y018491D02*
X017348Y018491D01*
X016403Y018491D02*
X016245Y018491D01*
X016245Y018333D01*
X016245Y017388D02*
X016245Y017231D01*
X016403Y017231D01*
X017348Y017231D02*
X017505Y017388D01*
X025251Y007513D02*
X025901Y007513D01*
X025918Y007511D01*
X025935Y007507D01*
X025951Y007500D01*
X025965Y007490D01*
X025978Y007477D01*
X025988Y007463D01*
X025995Y007447D01*
X025999Y007430D01*
X026001Y007413D01*
X026001Y006813D02*
X025999Y006796D01*
X025995Y006779D01*
X025988Y006763D01*
X025978Y006749D01*
X025965Y006736D01*
X025951Y006726D01*
X025935Y006719D01*
X025918Y006715D01*
X025901Y006713D01*
X025251Y006713D01*
X025234Y006715D01*
X025217Y006719D01*
X025201Y006726D01*
X025187Y006736D01*
X025174Y006749D01*
X025164Y006763D01*
X025157Y006779D01*
X025153Y006796D01*
X025151Y006813D01*
X025151Y007413D02*
X025153Y007430D01*
X025157Y007447D01*
X025164Y007463D01*
X025174Y007477D01*
X025187Y007490D01*
X025201Y007500D01*
X025217Y007507D01*
X025234Y007511D01*
X025251Y007513D01*
X026901Y029762D02*
X026651Y030012D01*
X026651Y030512D01*
X026901Y030762D01*
X026651Y031012D01*
X026651Y031512D01*
X026901Y031762D01*
X026651Y032012D01*
X026651Y032512D01*
X026901Y032762D01*
X026651Y033012D01*
X026651Y033512D01*
X026901Y033762D01*
X026651Y034012D01*
X026651Y034512D01*
X026901Y034762D01*
X026651Y035012D01*
X026651Y035512D01*
X026901Y035762D01*
X027401Y035762D01*
X027651Y035512D01*
X027651Y035012D01*
X027401Y034762D01*
X027651Y034512D01*
X027651Y034012D01*
X027401Y033762D01*
X027651Y033512D01*
X027651Y033012D01*
X027401Y032762D01*
X027651Y032512D01*
X027651Y032012D01*
X027401Y031762D01*
X027651Y031512D01*
X027651Y031012D01*
X027401Y030762D01*
X027651Y030512D01*
X027651Y030012D01*
X027401Y029762D01*
X026901Y029762D01*
D92*
X017427Y032388D02*
X017429Y032418D01*
X017435Y032448D01*
X017444Y032477D01*
X017457Y032504D01*
X017474Y032529D01*
X017493Y032552D01*
X017516Y032573D01*
X017541Y032590D01*
X017567Y032604D01*
X017596Y032614D01*
X017625Y032621D01*
X017655Y032624D01*
X017686Y032623D01*
X017716Y032618D01*
X017745Y032609D01*
X017772Y032597D01*
X017798Y032582D01*
X017822Y032563D01*
X017843Y032541D01*
X017861Y032517D01*
X017876Y032490D01*
X017887Y032462D01*
X017895Y032433D01*
X017899Y032403D01*
X017899Y032373D01*
X017895Y032343D01*
X017887Y032314D01*
X017876Y032286D01*
X017861Y032259D01*
X017843Y032235D01*
X017822Y032213D01*
X017798Y032194D01*
X017772Y032179D01*
X017745Y032167D01*
X017716Y032158D01*
X017686Y032153D01*
X017655Y032152D01*
X017625Y032155D01*
X017596Y032162D01*
X017567Y032172D01*
X017541Y032186D01*
X017516Y032203D01*
X017493Y032224D01*
X017474Y032247D01*
X017457Y032272D01*
X017444Y032299D01*
X017435Y032328D01*
X017429Y032358D01*
X017427Y032388D01*
D93*
X024631Y016128D02*
X024789Y016128D01*
X024789Y012900D02*
X024631Y012900D01*
X008312Y008471D02*
X008312Y008294D01*
X008312Y008471D02*
X008135Y008471D01*
X007190Y008471D02*
X007013Y008471D01*
X007013Y008294D01*
X007013Y006955D02*
X007013Y006876D01*
X007111Y006876D01*
X007111Y006778D01*
X007013Y006778D01*
X007013Y006876D01*
X007111Y006778D02*
X007190Y006778D01*
X008155Y006778D02*
X008312Y006778D01*
X008312Y006955D01*
D94*
X005002Y012315D03*
X005002Y012816D03*
X003426Y012816D03*
X003426Y012315D03*
D95*
X003226Y012519D03*
X003226Y012524D03*
X003231Y012540D03*
X003231Y012545D03*
X003231Y012550D03*
X003231Y012555D03*
X003231Y012560D03*
X003231Y012565D03*
X003231Y012571D03*
X003231Y012576D03*
X003231Y012581D03*
X003231Y012586D03*
X003231Y012591D03*
X003226Y012606D03*
X003226Y012611D03*
X003687Y012611D03*
X003687Y012606D03*
X003692Y012591D03*
X003692Y012586D03*
X003692Y012581D03*
X003692Y012576D03*
X003692Y012571D03*
X003692Y012565D03*
X003692Y012560D03*
X003692Y012555D03*
X003692Y012550D03*
X003692Y012545D03*
X003692Y012540D03*
X003687Y012524D03*
X003687Y012519D03*
X004158Y012504D03*
X004158Y012499D03*
X004158Y012494D03*
X004158Y012489D03*
X004158Y012484D03*
X004158Y012478D03*
X004158Y012473D03*
X004158Y012468D03*
X004158Y012463D03*
X004158Y012458D03*
X004158Y012453D03*
X004158Y012448D03*
X004158Y012443D03*
X004158Y012437D03*
X004158Y012432D03*
X004306Y012458D03*
X004306Y012463D03*
X004306Y012468D03*
X004306Y012473D03*
X004306Y012478D03*
X004158Y012627D03*
X004158Y012632D03*
X004158Y012637D03*
X004158Y012642D03*
X004158Y012647D03*
X004158Y012652D03*
X004158Y012658D03*
X004158Y012663D03*
X004158Y012668D03*
X004158Y012673D03*
X004158Y012678D03*
X004158Y012683D03*
X004158Y012688D03*
X004158Y012693D03*
X004158Y012698D03*
X004659Y012673D03*
X004659Y012668D03*
X004659Y012663D03*
X004659Y012658D03*
X004659Y012652D03*
X004802Y012652D03*
X004802Y012647D03*
X004802Y012642D03*
X004802Y012637D03*
X004802Y012632D03*
X004802Y012627D03*
X004802Y012622D03*
X004802Y012617D03*
X004802Y012611D03*
X004802Y012606D03*
X004802Y012601D03*
X004802Y012596D03*
X004802Y012591D03*
X004802Y012586D03*
X004802Y012581D03*
X004802Y012576D03*
X004802Y012571D03*
X004802Y012565D03*
X004802Y012560D03*
X004802Y012555D03*
X004802Y012550D03*
X004802Y012545D03*
X004802Y012540D03*
X004802Y012535D03*
X004802Y012530D03*
X004802Y012524D03*
X004802Y012519D03*
X004802Y012514D03*
X004802Y012509D03*
X004802Y012504D03*
X004802Y012499D03*
X004802Y012494D03*
X004802Y012489D03*
X004802Y012484D03*
X004802Y012478D03*
X004802Y012473D03*
X004802Y012468D03*
X004802Y012463D03*
X004802Y012458D03*
X004802Y012453D03*
X004802Y012448D03*
X004802Y012443D03*
X004802Y012437D03*
X004802Y012432D03*
X004802Y012427D03*
X004802Y012422D03*
X004802Y012417D03*
X004802Y012412D03*
X004802Y012407D03*
X004802Y012402D03*
X004802Y012397D03*
X004802Y012391D03*
X004802Y012386D03*
X004802Y012381D03*
X004802Y012376D03*
X004802Y012371D03*
X004802Y012366D03*
X004802Y012361D03*
X004802Y012356D03*
X004802Y012350D03*
X004802Y012345D03*
X004802Y012340D03*
X004802Y012335D03*
X004802Y012330D03*
X004802Y012325D03*
X004802Y012320D03*
X004802Y012315D03*
X004802Y012658D03*
X004802Y012663D03*
X004802Y012668D03*
X004802Y012673D03*
X004802Y012678D03*
X004802Y012683D03*
X004802Y012688D03*
X004802Y012693D03*
X004802Y012698D03*
X004802Y012704D03*
X004802Y012709D03*
X004802Y012714D03*
X004802Y012719D03*
X004802Y012724D03*
X004802Y012729D03*
X004802Y012734D03*
X004802Y012739D03*
X004802Y012745D03*
X004802Y012750D03*
X004802Y012755D03*
X004802Y012760D03*
X004802Y012765D03*
X004802Y012770D03*
X004802Y012775D03*
X004802Y012780D03*
X004802Y012785D03*
X004802Y012791D03*
X004802Y012796D03*
X004802Y012801D03*
X004802Y012806D03*
X004802Y012811D03*
X004802Y012816D03*
X005263Y012611D03*
X005263Y012606D03*
X005268Y012591D03*
X005268Y012586D03*
X005268Y012581D03*
X005268Y012576D03*
X005268Y012571D03*
X005268Y012565D03*
X005268Y012560D03*
X005268Y012555D03*
X005268Y012550D03*
X005268Y012545D03*
X005268Y012540D03*
X005263Y012524D03*
X005263Y012519D03*
X002847Y012519D03*
X002847Y012524D03*
X002842Y012540D03*
X002842Y012545D03*
X002842Y012550D03*
X002842Y012555D03*
X002842Y012560D03*
X002842Y012565D03*
X002842Y012571D03*
X002842Y012576D03*
X002842Y012581D03*
X002842Y012586D03*
X002842Y012591D03*
X002847Y012606D03*
X002847Y012611D03*
D96*
X003037Y012750D03*
X003037Y012381D03*
X003487Y012371D03*
X003487Y012760D03*
X004419Y012816D03*
X004547Y012315D03*
X005063Y012371D03*
X005063Y012760D03*
D97*
X004465Y012760D03*
X004465Y012765D03*
X004500Y012371D03*
X004500Y012366D03*
X003999Y012366D03*
X003999Y012371D03*
X003999Y012376D03*
X003999Y012381D03*
X003999Y012386D03*
X003999Y012391D03*
X003999Y012397D03*
X003999Y012402D03*
X003999Y012407D03*
X003999Y012412D03*
X003999Y012417D03*
X003999Y012422D03*
X003999Y012427D03*
X003999Y012361D03*
X003999Y012356D03*
X003999Y012350D03*
X003999Y012345D03*
X003999Y012340D03*
X003999Y012335D03*
X003999Y012330D03*
X003999Y012325D03*
X003999Y012320D03*
X003999Y012315D03*
X003999Y012704D03*
X003999Y012709D03*
X003999Y012714D03*
X003999Y012719D03*
X003999Y012724D03*
X003999Y012729D03*
X003999Y012734D03*
X003999Y012739D03*
X003999Y012745D03*
X003999Y012750D03*
X003999Y012755D03*
X003999Y012760D03*
X003999Y012765D03*
X003999Y012770D03*
X003999Y012775D03*
X003999Y012780D03*
X003999Y012785D03*
X003999Y012791D03*
X003999Y012796D03*
X003999Y012801D03*
X003999Y012806D03*
X003999Y012811D03*
X003999Y012816D03*
D98*
X003037Y012816D03*
X003037Y012315D03*
D99*
X003438Y012320D03*
X003438Y012811D03*
X005015Y012811D03*
X005015Y012320D03*
D100*
X005074Y012391D03*
X005074Y012739D03*
X004429Y012811D03*
X004035Y012622D03*
X004035Y012617D03*
X004035Y012611D03*
X004035Y012606D03*
X004035Y012601D03*
X004035Y012596D03*
X004035Y012591D03*
X004035Y012586D03*
X004035Y012581D03*
X004035Y012576D03*
X004035Y012571D03*
X004035Y012565D03*
X004035Y012560D03*
X004035Y012555D03*
X004035Y012550D03*
X004035Y012545D03*
X004035Y012540D03*
X004035Y012535D03*
X004035Y012530D03*
X004035Y012524D03*
X004035Y012519D03*
X004035Y012514D03*
X004035Y012509D03*
X004536Y012320D03*
X003497Y012391D03*
X003497Y012739D03*
X003037Y012739D03*
X003037Y012745D03*
X003037Y012391D03*
X003037Y012386D03*
D101*
X003037Y012320D03*
X003211Y012484D03*
X003216Y012494D03*
X003221Y012504D03*
X003221Y012627D03*
X003216Y012637D03*
X003211Y012647D03*
X003037Y012811D03*
X002863Y012647D03*
X002858Y012637D03*
X002852Y012627D03*
X002852Y012504D03*
X002858Y012494D03*
X002863Y012484D03*
X003671Y012484D03*
X003676Y012494D03*
X003682Y012504D03*
X003682Y012627D03*
X003676Y012637D03*
X003671Y012647D03*
X004311Y012494D03*
X004316Y012499D03*
X004311Y012443D03*
X004316Y012437D03*
X004649Y012632D03*
X004654Y012637D03*
X004654Y012688D03*
X004649Y012693D03*
X005248Y012647D03*
X005253Y012637D03*
X005258Y012627D03*
X005258Y012504D03*
X005253Y012494D03*
X005248Y012484D03*
D102*
X005022Y012325D03*
X005022Y012806D03*
X003446Y012806D03*
X003446Y012325D03*
D103*
X003505Y012407D03*
X003505Y012724D03*
X004436Y012806D03*
X004518Y012606D03*
X004447Y012524D03*
X004529Y012325D03*
X005081Y012407D03*
X005081Y012724D03*
D104*
X003037Y012806D03*
X003037Y012325D03*
D105*
X003454Y012330D03*
X003454Y012801D03*
X005030Y012801D03*
X005030Y012330D03*
D106*
X005086Y012417D03*
X005086Y012422D03*
X005086Y012709D03*
X005086Y012714D03*
X004513Y012601D03*
X004508Y012596D03*
X004457Y012535D03*
X004452Y012530D03*
X004523Y012330D03*
X004442Y012801D03*
X003510Y012714D03*
X003510Y012709D03*
X003510Y012422D03*
X003510Y012417D03*
D107*
X003620Y012432D03*
X003620Y012698D03*
X003159Y012698D03*
X003037Y012801D03*
X002914Y012698D03*
X002914Y012432D03*
X003037Y012330D03*
X003159Y012432D03*
X005197Y012432D03*
X005197Y012698D03*
D108*
X005035Y012796D03*
X005035Y012335D03*
X003459Y012335D03*
X003459Y012796D03*
D109*
X004447Y012796D03*
X004498Y012586D03*
X004483Y012565D03*
X004467Y012545D03*
X004518Y012335D03*
D110*
X003037Y012335D03*
X003037Y012796D03*
D111*
X003464Y012791D03*
X003464Y012340D03*
X005040Y012340D03*
X005040Y012791D03*
D112*
X004495Y012581D03*
X004490Y012576D03*
X004485Y012571D03*
X004480Y012560D03*
X004475Y012555D03*
X004470Y012550D03*
X004516Y012340D03*
X004449Y012791D03*
X003037Y012719D03*
X003037Y012412D03*
D113*
X003037Y012340D03*
X003037Y012791D03*
D114*
X003469Y012785D03*
X003469Y012345D03*
X005046Y012345D03*
X005046Y012785D03*
D115*
X004452Y012785D03*
X004513Y012345D03*
D116*
X003037Y012345D03*
X003037Y012785D03*
D117*
X003474Y012780D03*
X003474Y012350D03*
X005051Y012350D03*
X005051Y012780D03*
D118*
X004457Y012780D03*
X004508Y012350D03*
D119*
X003037Y012350D03*
X003037Y012780D03*
D120*
X003037Y012760D03*
X003037Y012371D03*
X003477Y012356D03*
X003477Y012775D03*
X005053Y012775D03*
X005053Y012356D03*
D121*
X004506Y012356D03*
X004459Y012775D03*
X003037Y012704D03*
X003037Y012427D03*
D122*
X003037Y012356D03*
X003037Y012775D03*
D123*
X003037Y012755D03*
X003037Y012376D03*
X003482Y012361D03*
X003482Y012770D03*
X005058Y012770D03*
X005058Y012361D03*
D124*
X004503Y012361D03*
X004462Y012770D03*
D125*
X003037Y012770D03*
X003037Y012361D03*
D126*
X003484Y012366D03*
X003484Y012765D03*
X004421Y012509D03*
X004544Y012622D03*
X005061Y012765D03*
X005061Y012366D03*
D127*
X003037Y012366D03*
X003037Y012765D03*
D128*
X003490Y012755D03*
X003490Y012376D03*
X005066Y012376D03*
X005066Y012755D03*
D129*
X004467Y012755D03*
X004498Y012376D03*
D130*
X005069Y012381D03*
X005069Y012750D03*
X003492Y012750D03*
X003492Y012381D03*
D131*
X004495Y012381D03*
X004470Y012750D03*
D132*
X004534Y012617D03*
X004431Y012514D03*
X005071Y012386D03*
X005071Y012745D03*
X003495Y012745D03*
X003495Y012386D03*
D133*
X004493Y012386D03*
X004493Y012391D03*
X004472Y012739D03*
X004472Y012745D03*
D134*
X004523Y012611D03*
X004442Y012519D03*
X005076Y012397D03*
X005076Y012734D03*
X003500Y012734D03*
X003500Y012397D03*
D135*
X004490Y012397D03*
X004490Y012402D03*
X004475Y012729D03*
X004475Y012734D03*
D136*
X005079Y012729D03*
X005079Y012402D03*
X003502Y012402D03*
X003502Y012729D03*
X003037Y012734D03*
X003037Y012397D03*
D137*
X003037Y012402D03*
X003037Y012729D03*
X003508Y012719D03*
X003508Y012412D03*
X005084Y012412D03*
X005084Y012719D03*
D138*
X004477Y012719D03*
X004477Y012724D03*
X004477Y012714D03*
X004488Y012417D03*
X004488Y012412D03*
X004488Y012407D03*
D139*
X004459Y012540D03*
X004506Y012591D03*
X005089Y012704D03*
X005089Y012427D03*
X003513Y012427D03*
X003513Y012704D03*
X003037Y012724D03*
X003037Y012407D03*
D140*
X003037Y012417D03*
X003037Y012422D03*
X003037Y012709D03*
X003037Y012714D03*
D141*
X004480Y012709D03*
X004480Y012704D03*
X004485Y012427D03*
X004485Y012422D03*
D142*
X004321Y012432D03*
X004321Y012504D03*
X004644Y012627D03*
X004644Y012698D03*
X005237Y012663D03*
X005243Y012658D03*
X005243Y012473D03*
X005237Y012468D03*
X003666Y012473D03*
X003661Y012468D03*
X003666Y012658D03*
X003661Y012663D03*
X003206Y012658D03*
X003200Y012663D03*
X003206Y012473D03*
X003200Y012468D03*
X002873Y012468D03*
X002868Y012473D03*
X002868Y012658D03*
X002873Y012663D03*
D143*
X003167Y012693D03*
X003167Y012437D03*
X003628Y012437D03*
X003628Y012693D03*
X005204Y012693D03*
X005204Y012437D03*
D144*
X002904Y012437D03*
X002904Y012693D03*
D145*
X002896Y012688D03*
X002896Y012443D03*
X003177Y012443D03*
X003177Y012688D03*
X003638Y012688D03*
X003638Y012443D03*
X005214Y012443D03*
X005214Y012688D03*
D146*
X005220Y012683D03*
X005225Y012678D03*
X005225Y012453D03*
X005220Y012448D03*
X003648Y012453D03*
X003643Y012448D03*
X003648Y012678D03*
X003643Y012683D03*
X003188Y012678D03*
X003183Y012683D03*
X003188Y012453D03*
X003183Y012448D03*
X002891Y012448D03*
X002886Y012453D03*
X002886Y012678D03*
X002891Y012683D03*
D147*
X002855Y012632D03*
X002850Y012622D03*
X002850Y012617D03*
X002845Y012601D03*
X002845Y012596D03*
X002845Y012535D03*
X002845Y012530D03*
X002850Y012514D03*
X002850Y012509D03*
X002855Y012499D03*
X003218Y012499D03*
X003223Y012509D03*
X003223Y012514D03*
X003229Y012530D03*
X003229Y012535D03*
X003229Y012596D03*
X003229Y012601D03*
X003223Y012617D03*
X003223Y012622D03*
X003218Y012632D03*
X003679Y012632D03*
X003684Y012622D03*
X003684Y012617D03*
X003689Y012601D03*
X003689Y012596D03*
X003689Y012535D03*
X003689Y012530D03*
X003684Y012514D03*
X003684Y012509D03*
X003679Y012499D03*
X004309Y012489D03*
X004309Y012484D03*
X004309Y012453D03*
X004309Y012448D03*
X004657Y012642D03*
X004657Y012647D03*
X004657Y012678D03*
X004657Y012683D03*
X005255Y012632D03*
X005260Y012622D03*
X005260Y012617D03*
X005266Y012601D03*
X005266Y012596D03*
X005266Y012535D03*
X005266Y012530D03*
X005260Y012514D03*
X005260Y012509D03*
X005255Y012499D03*
D148*
X005235Y012463D03*
X005230Y012458D03*
X005235Y012668D03*
X005230Y012673D03*
X003659Y012668D03*
X003653Y012673D03*
X003659Y012463D03*
X003653Y012458D03*
X003198Y012463D03*
X003193Y012458D03*
X003198Y012668D03*
X003193Y012673D03*
X002881Y012673D03*
X002875Y012668D03*
X002875Y012463D03*
X002881Y012458D03*
D149*
X002865Y012478D03*
X002860Y012489D03*
X002860Y012642D03*
X002865Y012652D03*
X003208Y012652D03*
X003213Y012642D03*
X003213Y012489D03*
X003208Y012478D03*
X003669Y012478D03*
X003674Y012489D03*
X003674Y012642D03*
X003669Y012652D03*
X005245Y012652D03*
X005250Y012642D03*
X005250Y012489D03*
X005245Y012478D03*
D150*
X009188Y023766D02*
X009188Y024002D01*
X009680Y024002D02*
X009680Y023766D01*
X009818Y023766D02*
X009818Y024002D01*
X010310Y024002D02*
X010310Y023766D01*
X021432Y025223D02*
X021432Y025459D01*
X021924Y025459D02*
X021924Y025223D01*
X022062Y025223D02*
X022062Y025459D01*
X022554Y025459D02*
X022554Y025223D01*
D151*
X022308Y025341D03*
X021678Y025341D03*
X010064Y023884D03*
X009434Y023884D03*
D152*
X009631Y008195D03*
D153*
X008814Y007920D02*
X008814Y007526D01*
X010448Y007526D02*
X010448Y007920D01*
X007308Y026621D02*
X006915Y026621D01*
X006915Y026620D02*
X006876Y026622D01*
X006838Y026628D01*
X006801Y026637D01*
X006764Y026650D01*
X006729Y026667D01*
X006696Y026686D01*
X006665Y026709D01*
X006636Y026735D01*
X006610Y026764D01*
X006587Y026795D01*
X006568Y026828D01*
X006551Y026863D01*
X006538Y026900D01*
X006529Y026937D01*
X006523Y026975D01*
X006521Y027014D01*
X006521Y032132D01*
X006523Y032171D01*
X006529Y032209D01*
X006538Y032246D01*
X006551Y032283D01*
X006568Y032318D01*
X006587Y032351D01*
X006610Y032382D01*
X006636Y032411D01*
X006665Y032437D01*
X006696Y032460D01*
X006729Y032479D01*
X006764Y032496D01*
X006801Y032509D01*
X006838Y032518D01*
X006876Y032524D01*
X006915Y032526D01*
X007308Y032526D01*
M02*
