G75*
G70*
%OFA0B0*%
%FSLAX24Y24*%
%IPPOS*%
%LPD*%
%AMOC8*
5,1,8,0,0,1.08239X$1,22.5*
%
%ADD10C,0.0059*%
%ADD11C,0.0045*%
%ADD12C,0.0054*%
%ADD13C,0.2009*%
%ADD14C,0.0098*%
%ADD15R,0.0118X0.0453*%
%ADD16C,0.0216*%
%ADD17C,0.0055*%
%ADD18C,0.0046*%
%ADD19C,0.0044*%
%ADD20C,0.1181*%
%ADD21C,0.0780*%
%ADD22C,0.0051*%
%ADD23C,0.0057*%
%ADD24C,0.0043*%
%ADD25C,0.0047*%
%ADD26OC8,0.0890*%
%ADD27C,0.0047*%
%ADD28C,0.0138*%
%ADD29C,0.0049*%
%ADD30C,0.0079*%
%ADD31C,0.0067*%
%ADD32C,0.0046*%
%ADD33C,0.0087*%
%ADD34C,0.0046*%
%ADD35C,0.0047*%
%ADD36R,0.0476X0.0476*%
%ADD37C,0.0476*%
%ADD38C,0.0048*%
%ADD39OC8,0.0700*%
%ADD40OC8,0.0780*%
%ADD41C,0.0335*%
%ADD42C,0.0453*%
%ADD43C,0.0315*%
%ADD44C,0.0540*%
%ADD45C,0.0057*%
%ADD46C,0.0069*%
%ADD47C,0.0059*%
%ADD48C,0.0552*%
%ADD49C,0.0077*%
%ADD50C,0.0113*%
D10*
X006019Y008634D02*
X006019Y009166D01*
X006551Y009166D01*
X006551Y008634D01*
X006019Y008634D01*
X006019Y008692D02*
X006551Y008692D01*
X006551Y008750D02*
X006019Y008750D01*
X006019Y008808D02*
X006551Y008808D01*
X006551Y008866D02*
X006019Y008866D01*
X006019Y008924D02*
X006551Y008924D01*
X006551Y008982D02*
X006019Y008982D01*
X006019Y009040D02*
X006551Y009040D01*
X006551Y009098D02*
X006019Y009098D01*
X006019Y009156D02*
X006551Y009156D01*
X006806Y009166D02*
X006806Y008634D01*
X006806Y009166D02*
X007338Y009166D01*
X007338Y008634D01*
X006806Y008634D01*
X006806Y008692D02*
X007338Y008692D01*
X007338Y008750D02*
X006806Y008750D01*
X006806Y008808D02*
X007338Y008808D01*
X007338Y008866D02*
X006806Y008866D01*
X006806Y008924D02*
X007338Y008924D01*
X007338Y008982D02*
X006806Y008982D01*
X006806Y009040D02*
X007338Y009040D01*
X007338Y009098D02*
X006806Y009098D01*
X006806Y009156D02*
X007338Y009156D01*
X007593Y009166D02*
X007593Y008634D01*
X007593Y009166D02*
X008125Y009166D01*
X008125Y008634D01*
X007593Y008634D01*
X007593Y008692D02*
X008125Y008692D01*
X008125Y008750D02*
X007593Y008750D01*
X007593Y008808D02*
X008125Y008808D01*
X008125Y008866D02*
X007593Y008866D01*
X007593Y008924D02*
X008125Y008924D01*
X008125Y008982D02*
X007593Y008982D01*
X007593Y009040D02*
X008125Y009040D01*
X008125Y009098D02*
X007593Y009098D01*
X007593Y009156D02*
X008125Y009156D01*
X008381Y009166D02*
X008381Y008634D01*
X008381Y009166D02*
X008913Y009166D01*
X008913Y008634D01*
X008381Y008634D01*
X008381Y008692D02*
X008913Y008692D01*
X008913Y008750D02*
X008381Y008750D01*
X008381Y008808D02*
X008913Y008808D01*
X008913Y008866D02*
X008381Y008866D01*
X008381Y008924D02*
X008913Y008924D01*
X008913Y008982D02*
X008381Y008982D01*
X008381Y009040D02*
X008913Y009040D01*
X008913Y009098D02*
X008381Y009098D01*
X008381Y009156D02*
X008913Y009156D01*
X009168Y009166D02*
X009168Y008634D01*
X009168Y009166D02*
X009700Y009166D01*
X009700Y008634D01*
X009168Y008634D01*
X009168Y008692D02*
X009700Y008692D01*
X009700Y008750D02*
X009168Y008750D01*
X009168Y008808D02*
X009700Y008808D01*
X009700Y008866D02*
X009168Y008866D01*
X009168Y008924D02*
X009700Y008924D01*
X009700Y008982D02*
X009168Y008982D01*
X009168Y009040D02*
X009700Y009040D01*
X009700Y009098D02*
X009168Y009098D01*
X009168Y009156D02*
X009700Y009156D01*
X009956Y009166D02*
X009956Y008634D01*
X009956Y009166D02*
X010488Y009166D01*
X010488Y008634D01*
X009956Y008634D01*
X009956Y008692D02*
X010488Y008692D01*
X010488Y008750D02*
X009956Y008750D01*
X009956Y008808D02*
X010488Y008808D01*
X010488Y008866D02*
X009956Y008866D01*
X009956Y008924D02*
X010488Y008924D01*
X010488Y008982D02*
X009956Y008982D01*
X009956Y009040D02*
X010488Y009040D01*
X010488Y009098D02*
X009956Y009098D01*
X009956Y009156D02*
X010488Y009156D01*
X010743Y009166D02*
X010743Y008634D01*
X010743Y009166D02*
X011275Y009166D01*
X011275Y008634D01*
X010743Y008634D01*
X010743Y008692D02*
X011275Y008692D01*
X011275Y008750D02*
X010743Y008750D01*
X010743Y008808D02*
X011275Y008808D01*
X011275Y008866D02*
X010743Y008866D01*
X010743Y008924D02*
X011275Y008924D01*
X011275Y008982D02*
X010743Y008982D01*
X010743Y009040D02*
X011275Y009040D01*
X011275Y009098D02*
X010743Y009098D01*
X010743Y009156D02*
X011275Y009156D01*
X011570Y009934D02*
X012102Y009934D01*
X012102Y009402D01*
X011570Y009402D01*
X011570Y009934D01*
X011570Y009460D02*
X012102Y009460D01*
X012102Y009518D02*
X011570Y009518D01*
X011570Y009576D02*
X012102Y009576D01*
X012102Y009634D02*
X011570Y009634D01*
X011570Y009692D02*
X012102Y009692D01*
X012102Y009750D02*
X011570Y009750D01*
X011570Y009808D02*
X012102Y009808D01*
X012102Y009866D02*
X011570Y009866D01*
X011570Y009924D02*
X012102Y009924D01*
X012102Y010722D02*
X011570Y010722D01*
X012102Y010722D02*
X012102Y010190D01*
X011570Y010190D01*
X011570Y010722D01*
X011570Y010248D02*
X012102Y010248D01*
X012102Y010306D02*
X011570Y010306D01*
X011570Y010364D02*
X012102Y010364D01*
X012102Y010422D02*
X011570Y010422D01*
X011570Y010480D02*
X012102Y010480D01*
X012102Y010538D02*
X011570Y010538D01*
X011570Y010596D02*
X012102Y010596D01*
X012102Y010654D02*
X011570Y010654D01*
X011570Y010712D02*
X012102Y010712D01*
X012102Y011509D02*
X011570Y011509D01*
X012102Y011509D02*
X012102Y010977D01*
X011570Y010977D01*
X011570Y011509D01*
X011570Y011035D02*
X012102Y011035D01*
X012102Y011093D02*
X011570Y011093D01*
X011570Y011151D02*
X012102Y011151D01*
X012102Y011209D02*
X011570Y011209D01*
X011570Y011267D02*
X012102Y011267D01*
X012102Y011325D02*
X011570Y011325D01*
X011570Y011383D02*
X012102Y011383D01*
X012102Y011441D02*
X011570Y011441D01*
X011570Y011499D02*
X012102Y011499D01*
X012102Y012296D02*
X011570Y012296D01*
X012102Y012296D02*
X012102Y011764D01*
X011570Y011764D01*
X011570Y012296D01*
X011570Y011822D02*
X012102Y011822D01*
X012102Y011880D02*
X011570Y011880D01*
X011570Y011938D02*
X012102Y011938D01*
X012102Y011996D02*
X011570Y011996D01*
X011570Y012054D02*
X012102Y012054D01*
X012102Y012112D02*
X011570Y012112D01*
X011570Y012170D02*
X012102Y012170D01*
X012102Y012228D02*
X011570Y012228D01*
X011570Y012286D02*
X012102Y012286D01*
X012102Y013084D02*
X011570Y013084D01*
X012102Y013084D02*
X012102Y012552D01*
X011570Y012552D01*
X011570Y013084D01*
X011570Y012610D02*
X012102Y012610D01*
X012102Y012668D02*
X011570Y012668D01*
X011570Y012726D02*
X012102Y012726D01*
X012102Y012784D02*
X011570Y012784D01*
X011570Y012842D02*
X012102Y012842D01*
X012102Y012900D02*
X011570Y012900D01*
X011570Y012958D02*
X012102Y012958D01*
X012102Y013016D02*
X011570Y013016D01*
X011570Y013074D02*
X012102Y013074D01*
X012102Y013871D02*
X011570Y013871D01*
X012102Y013871D02*
X012102Y013339D01*
X011570Y013339D01*
X011570Y013871D01*
X011570Y013397D02*
X012102Y013397D01*
X012102Y013455D02*
X011570Y013455D01*
X011570Y013513D02*
X012102Y013513D01*
X012102Y013571D02*
X011570Y013571D01*
X011570Y013629D02*
X012102Y013629D01*
X012102Y013687D02*
X011570Y013687D01*
X011570Y013745D02*
X012102Y013745D01*
X012102Y013803D02*
X011570Y013803D01*
X011570Y013861D02*
X012102Y013861D01*
X012102Y014659D02*
X011570Y014659D01*
X012102Y014659D02*
X012102Y014127D01*
X011570Y014127D01*
X011570Y014659D01*
X011570Y014185D02*
X012102Y014185D01*
X012102Y014243D02*
X011570Y014243D01*
X011570Y014301D02*
X012102Y014301D01*
X012102Y014359D02*
X011570Y014359D01*
X011570Y014417D02*
X012102Y014417D01*
X012102Y014475D02*
X011570Y014475D01*
X011570Y014533D02*
X012102Y014533D01*
X012102Y014591D02*
X011570Y014591D01*
X011570Y014649D02*
X012102Y014649D01*
X010743Y014894D02*
X010743Y015426D01*
X011275Y015426D01*
X011275Y014894D01*
X010743Y014894D01*
X010743Y014952D02*
X011275Y014952D01*
X011275Y015010D02*
X010743Y015010D01*
X010743Y015068D02*
X011275Y015068D01*
X011275Y015126D02*
X010743Y015126D01*
X010743Y015184D02*
X011275Y015184D01*
X011275Y015242D02*
X010743Y015242D01*
X010743Y015300D02*
X011275Y015300D01*
X011275Y015358D02*
X010743Y015358D01*
X010743Y015416D02*
X011275Y015416D01*
X009956Y015426D02*
X009956Y014894D01*
X009956Y015426D02*
X010488Y015426D01*
X010488Y014894D01*
X009956Y014894D01*
X009956Y014952D02*
X010488Y014952D01*
X010488Y015010D02*
X009956Y015010D01*
X009956Y015068D02*
X010488Y015068D01*
X010488Y015126D02*
X009956Y015126D01*
X009956Y015184D02*
X010488Y015184D01*
X010488Y015242D02*
X009956Y015242D01*
X009956Y015300D02*
X010488Y015300D01*
X010488Y015358D02*
X009956Y015358D01*
X009956Y015416D02*
X010488Y015416D01*
X009168Y015426D02*
X009168Y014894D01*
X009168Y015426D02*
X009700Y015426D01*
X009700Y014894D01*
X009168Y014894D01*
X009168Y014952D02*
X009700Y014952D01*
X009700Y015010D02*
X009168Y015010D01*
X009168Y015068D02*
X009700Y015068D01*
X009700Y015126D02*
X009168Y015126D01*
X009168Y015184D02*
X009700Y015184D01*
X009700Y015242D02*
X009168Y015242D01*
X009168Y015300D02*
X009700Y015300D01*
X009700Y015358D02*
X009168Y015358D01*
X009168Y015416D02*
X009700Y015416D01*
X008381Y015426D02*
X008381Y014894D01*
X008381Y015426D02*
X008913Y015426D01*
X008913Y014894D01*
X008381Y014894D01*
X008381Y014952D02*
X008913Y014952D01*
X008913Y015010D02*
X008381Y015010D01*
X008381Y015068D02*
X008913Y015068D01*
X008913Y015126D02*
X008381Y015126D01*
X008381Y015184D02*
X008913Y015184D01*
X008913Y015242D02*
X008381Y015242D01*
X008381Y015300D02*
X008913Y015300D01*
X008913Y015358D02*
X008381Y015358D01*
X008381Y015416D02*
X008913Y015416D01*
X007593Y015426D02*
X007593Y014894D01*
X007593Y015426D02*
X008125Y015426D01*
X008125Y014894D01*
X007593Y014894D01*
X007593Y014952D02*
X008125Y014952D01*
X008125Y015010D02*
X007593Y015010D01*
X007593Y015068D02*
X008125Y015068D01*
X008125Y015126D02*
X007593Y015126D01*
X007593Y015184D02*
X008125Y015184D01*
X008125Y015242D02*
X007593Y015242D01*
X007593Y015300D02*
X008125Y015300D01*
X008125Y015358D02*
X007593Y015358D01*
X007593Y015416D02*
X008125Y015416D01*
X006806Y015426D02*
X006806Y014894D01*
X006806Y015426D02*
X007338Y015426D01*
X007338Y014894D01*
X006806Y014894D01*
X006806Y014952D02*
X007338Y014952D01*
X007338Y015010D02*
X006806Y015010D01*
X006806Y015068D02*
X007338Y015068D01*
X007338Y015126D02*
X006806Y015126D01*
X006806Y015184D02*
X007338Y015184D01*
X007338Y015242D02*
X006806Y015242D01*
X006806Y015300D02*
X007338Y015300D01*
X007338Y015358D02*
X006806Y015358D01*
X006806Y015416D02*
X007338Y015416D01*
X006019Y015426D02*
X006019Y014894D01*
X006019Y015426D02*
X006551Y015426D01*
X006551Y014894D01*
X006019Y014894D01*
X006019Y014952D02*
X006551Y014952D01*
X006551Y015010D02*
X006019Y015010D01*
X006019Y015068D02*
X006551Y015068D01*
X006551Y015126D02*
X006019Y015126D01*
X006019Y015184D02*
X006551Y015184D01*
X006551Y015242D02*
X006019Y015242D01*
X006019Y015300D02*
X006551Y015300D01*
X006551Y015358D02*
X006019Y015358D01*
X006019Y015416D02*
X006551Y015416D01*
D11*
X019944Y020675D02*
X019944Y021083D01*
X019944Y020675D02*
X019436Y020675D01*
X019436Y021083D01*
X019944Y021083D01*
X019944Y020719D02*
X019436Y020719D01*
X019436Y020763D02*
X019944Y020763D01*
X019944Y020807D02*
X019436Y020807D01*
X019436Y020851D02*
X019944Y020851D01*
X019944Y020895D02*
X019436Y020895D01*
X019436Y020939D02*
X019944Y020939D01*
X019944Y020983D02*
X019436Y020983D01*
X019436Y021027D02*
X019944Y021027D01*
X019944Y021071D02*
X019436Y021071D01*
X019944Y021403D02*
X019944Y021811D01*
X019944Y021403D02*
X019436Y021403D01*
X019436Y021811D01*
X019944Y021811D01*
X019944Y021447D02*
X019436Y021447D01*
X019436Y021491D02*
X019944Y021491D01*
X019944Y021535D02*
X019436Y021535D01*
X019436Y021579D02*
X019944Y021579D01*
X019944Y021623D02*
X019436Y021623D01*
X019436Y021667D02*
X019944Y021667D01*
X019944Y021711D02*
X019436Y021711D01*
X019436Y021755D02*
X019944Y021755D01*
X019944Y021799D02*
X019436Y021799D01*
X020850Y021811D02*
X020850Y021403D01*
X020342Y021403D01*
X020342Y021811D01*
X020850Y021811D01*
X020850Y021447D02*
X020342Y021447D01*
X020342Y021491D02*
X020850Y021491D01*
X020850Y021535D02*
X020342Y021535D01*
X020342Y021579D02*
X020850Y021579D01*
X020850Y021623D02*
X020342Y021623D01*
X020342Y021667D02*
X020850Y021667D01*
X020850Y021711D02*
X020342Y021711D01*
X020342Y021755D02*
X020850Y021755D01*
X020850Y021799D02*
X020342Y021799D01*
X020850Y021083D02*
X020850Y020675D01*
X020342Y020675D01*
X020342Y021083D01*
X020850Y021083D01*
X020850Y020719D02*
X020342Y020719D01*
X020342Y020763D02*
X020850Y020763D01*
X020850Y020807D02*
X020342Y020807D01*
X020342Y020851D02*
X020850Y020851D01*
X020850Y020895D02*
X020342Y020895D01*
X020342Y020939D02*
X020850Y020939D01*
X020850Y020983D02*
X020342Y020983D01*
X020342Y021027D02*
X020850Y021027D01*
X020850Y021071D02*
X020342Y021071D01*
D12*
X018339Y021506D02*
X018339Y021610D01*
X018797Y021610D01*
X018797Y021506D01*
X018339Y021506D01*
X018339Y021559D02*
X018797Y021559D01*
X018339Y021703D02*
X018339Y021807D01*
X018797Y021807D01*
X018797Y021703D01*
X018339Y021703D01*
X018339Y021756D02*
X018797Y021756D01*
X018339Y021900D02*
X018339Y022004D01*
X018797Y022004D01*
X018797Y021900D01*
X018339Y021900D01*
X018339Y021953D02*
X018797Y021953D01*
X018339Y022096D02*
X018339Y022200D01*
X018797Y022200D01*
X018797Y022096D01*
X018339Y022096D01*
X018339Y022149D02*
X018797Y022149D01*
X018339Y022293D02*
X018339Y022397D01*
X018797Y022397D01*
X018797Y022293D01*
X018339Y022293D01*
X018339Y022346D02*
X018797Y022346D01*
X018339Y022490D02*
X018339Y022594D01*
X018797Y022594D01*
X018797Y022490D01*
X018339Y022490D01*
X018339Y022543D02*
X018797Y022543D01*
X018339Y022687D02*
X018339Y022791D01*
X018797Y022791D01*
X018797Y022687D01*
X018339Y022687D01*
X018339Y022740D02*
X018797Y022740D01*
X018339Y022884D02*
X018339Y022988D01*
X018797Y022988D01*
X018797Y022884D01*
X018339Y022884D01*
X018339Y022937D02*
X018797Y022937D01*
X018339Y023081D02*
X018339Y023185D01*
X018797Y023185D01*
X018797Y023081D01*
X018339Y023081D01*
X018339Y023134D02*
X018797Y023134D01*
X018339Y023278D02*
X018339Y023382D01*
X018797Y023382D01*
X018797Y023278D01*
X018339Y023278D01*
X018339Y023331D02*
X018797Y023331D01*
X018339Y023474D02*
X018339Y023578D01*
X018797Y023578D01*
X018797Y023474D01*
X018339Y023474D01*
X018339Y023527D02*
X018797Y023527D01*
X018339Y023671D02*
X018339Y023775D01*
X018797Y023775D01*
X018797Y023671D01*
X018339Y023671D01*
X018339Y023724D02*
X018797Y023724D01*
X018339Y023868D02*
X018339Y023972D01*
X018797Y023972D01*
X018797Y023868D01*
X018339Y023868D01*
X018339Y023921D02*
X018797Y023921D01*
X018339Y024065D02*
X018339Y024169D01*
X018797Y024169D01*
X018797Y024065D01*
X018339Y024065D01*
X018339Y024118D02*
X018797Y024118D01*
X018339Y024262D02*
X018339Y024366D01*
X018797Y024366D01*
X018797Y024262D01*
X018339Y024262D01*
X018339Y024315D02*
X018797Y024315D01*
X018339Y024459D02*
X018339Y024563D01*
X018797Y024563D01*
X018797Y024459D01*
X018339Y024459D01*
X018339Y024512D02*
X018797Y024512D01*
X018339Y024655D02*
X018339Y024759D01*
X018797Y024759D01*
X018797Y024655D01*
X018339Y024655D01*
X018339Y024708D02*
X018797Y024708D01*
X018339Y024852D02*
X018339Y024956D01*
X018797Y024956D01*
X018797Y024852D01*
X018339Y024852D01*
X018339Y024905D02*
X018797Y024905D01*
X018339Y025049D02*
X018339Y025153D01*
X018797Y025153D01*
X018797Y025049D01*
X018339Y025049D01*
X018339Y025102D02*
X018797Y025102D01*
X018339Y025246D02*
X018339Y025350D01*
X018797Y025350D01*
X018797Y025246D01*
X018339Y025246D01*
X018339Y025299D02*
X018797Y025299D01*
X018339Y025443D02*
X018339Y025547D01*
X018797Y025547D01*
X018797Y025443D01*
X018339Y025443D01*
X018339Y025496D02*
X018797Y025496D01*
X018339Y025640D02*
X018339Y025744D01*
X018797Y025744D01*
X018797Y025640D01*
X018339Y025640D01*
X018339Y025693D02*
X018797Y025693D01*
X018339Y025837D02*
X018339Y025941D01*
X018797Y025941D01*
X018797Y025837D01*
X018339Y025837D01*
X018339Y025890D02*
X018797Y025890D01*
X018339Y026033D02*
X018339Y026137D01*
X018797Y026137D01*
X018797Y026033D01*
X018339Y026033D01*
X018339Y026086D02*
X018797Y026086D01*
X018339Y026230D02*
X018339Y026334D01*
X018797Y026334D01*
X018797Y026230D01*
X018339Y026230D01*
X018339Y026283D02*
X018797Y026283D01*
X018339Y026427D02*
X018339Y026531D01*
X018797Y026531D01*
X018797Y026427D01*
X018339Y026427D01*
X018339Y026480D02*
X018797Y026480D01*
X018339Y026624D02*
X018339Y026728D01*
X018797Y026728D01*
X018797Y026624D01*
X018339Y026624D01*
X018339Y026677D02*
X018797Y026677D01*
X018339Y026821D02*
X018339Y026925D01*
X018797Y026925D01*
X018797Y026821D01*
X018339Y026821D01*
X018339Y026874D02*
X018797Y026874D01*
X018339Y027018D02*
X018339Y027122D01*
X018797Y027122D01*
X018797Y027018D01*
X018339Y027018D01*
X018339Y027071D02*
X018797Y027071D01*
X018339Y027215D02*
X018339Y027319D01*
X018797Y027319D01*
X018797Y027215D01*
X018339Y027215D01*
X018339Y027268D02*
X018797Y027268D01*
X018339Y027411D02*
X018339Y027515D01*
X018797Y027515D01*
X018797Y027411D01*
X018339Y027411D01*
X018339Y027464D02*
X018797Y027464D01*
X018339Y027608D02*
X018339Y027712D01*
X018797Y027712D01*
X018797Y027608D01*
X018339Y027608D01*
X018339Y027661D02*
X018797Y027661D01*
X018339Y027805D02*
X018339Y027909D01*
X018797Y027909D01*
X018797Y027805D01*
X018339Y027805D01*
X018339Y027858D02*
X018797Y027858D01*
X018339Y028002D02*
X018339Y028106D01*
X018797Y028106D01*
X018797Y028002D01*
X018339Y028002D01*
X018339Y028055D02*
X018797Y028055D01*
X018339Y028199D02*
X018339Y028303D01*
X018797Y028303D01*
X018797Y028199D01*
X018339Y028199D01*
X018339Y028252D02*
X018797Y028252D01*
X018339Y028396D02*
X018339Y028500D01*
X018797Y028500D01*
X018797Y028396D01*
X018339Y028396D01*
X018339Y028449D02*
X018797Y028449D01*
X017709Y029026D02*
X017709Y029484D01*
X017813Y029484D01*
X017813Y029026D01*
X017709Y029026D01*
X017709Y029079D02*
X017813Y029079D01*
X017813Y029132D02*
X017709Y029132D01*
X017709Y029185D02*
X017813Y029185D01*
X017813Y029238D02*
X017709Y029238D01*
X017709Y029291D02*
X017813Y029291D01*
X017813Y029344D02*
X017709Y029344D01*
X017709Y029397D02*
X017813Y029397D01*
X017813Y029450D02*
X017709Y029450D01*
X017512Y029484D02*
X017512Y029026D01*
X017512Y029484D02*
X017616Y029484D01*
X017616Y029026D01*
X017512Y029026D01*
X017512Y029079D02*
X017616Y029079D01*
X017616Y029132D02*
X017512Y029132D01*
X017512Y029185D02*
X017616Y029185D01*
X017616Y029238D02*
X017512Y029238D01*
X017512Y029291D02*
X017616Y029291D01*
X017616Y029344D02*
X017512Y029344D01*
X017512Y029397D02*
X017616Y029397D01*
X017616Y029450D02*
X017512Y029450D01*
X017315Y029484D02*
X017315Y029026D01*
X017315Y029484D02*
X017419Y029484D01*
X017419Y029026D01*
X017315Y029026D01*
X017315Y029079D02*
X017419Y029079D01*
X017419Y029132D02*
X017315Y029132D01*
X017315Y029185D02*
X017419Y029185D01*
X017419Y029238D02*
X017315Y029238D01*
X017315Y029291D02*
X017419Y029291D01*
X017419Y029344D02*
X017315Y029344D01*
X017315Y029397D02*
X017419Y029397D01*
X017419Y029450D02*
X017315Y029450D01*
X017119Y029484D02*
X017119Y029026D01*
X017119Y029484D02*
X017223Y029484D01*
X017223Y029026D01*
X017119Y029026D01*
X017119Y029079D02*
X017223Y029079D01*
X017223Y029132D02*
X017119Y029132D01*
X017119Y029185D02*
X017223Y029185D01*
X017223Y029238D02*
X017119Y029238D01*
X017119Y029291D02*
X017223Y029291D01*
X017223Y029344D02*
X017119Y029344D01*
X017119Y029397D02*
X017223Y029397D01*
X017223Y029450D02*
X017119Y029450D01*
X016922Y029484D02*
X016922Y029026D01*
X016922Y029484D02*
X017026Y029484D01*
X017026Y029026D01*
X016922Y029026D01*
X016922Y029079D02*
X017026Y029079D01*
X017026Y029132D02*
X016922Y029132D01*
X016922Y029185D02*
X017026Y029185D01*
X017026Y029238D02*
X016922Y029238D01*
X016922Y029291D02*
X017026Y029291D01*
X017026Y029344D02*
X016922Y029344D01*
X016922Y029397D02*
X017026Y029397D01*
X017026Y029450D02*
X016922Y029450D01*
X016725Y029484D02*
X016725Y029026D01*
X016725Y029484D02*
X016829Y029484D01*
X016829Y029026D01*
X016725Y029026D01*
X016725Y029079D02*
X016829Y029079D01*
X016829Y029132D02*
X016725Y029132D01*
X016725Y029185D02*
X016829Y029185D01*
X016829Y029238D02*
X016725Y029238D01*
X016725Y029291D02*
X016829Y029291D01*
X016829Y029344D02*
X016725Y029344D01*
X016725Y029397D02*
X016829Y029397D01*
X016829Y029450D02*
X016725Y029450D01*
X016528Y029484D02*
X016528Y029026D01*
X016528Y029484D02*
X016632Y029484D01*
X016632Y029026D01*
X016528Y029026D01*
X016528Y029079D02*
X016632Y029079D01*
X016632Y029132D02*
X016528Y029132D01*
X016528Y029185D02*
X016632Y029185D01*
X016632Y029238D02*
X016528Y029238D01*
X016528Y029291D02*
X016632Y029291D01*
X016632Y029344D02*
X016528Y029344D01*
X016528Y029397D02*
X016632Y029397D01*
X016632Y029450D02*
X016528Y029450D01*
X016331Y029484D02*
X016331Y029026D01*
X016331Y029484D02*
X016435Y029484D01*
X016435Y029026D01*
X016331Y029026D01*
X016331Y029079D02*
X016435Y029079D01*
X016435Y029132D02*
X016331Y029132D01*
X016331Y029185D02*
X016435Y029185D01*
X016435Y029238D02*
X016331Y029238D01*
X016331Y029291D02*
X016435Y029291D01*
X016435Y029344D02*
X016331Y029344D01*
X016331Y029397D02*
X016435Y029397D01*
X016435Y029450D02*
X016331Y029450D01*
X016134Y029484D02*
X016134Y029026D01*
X016134Y029484D02*
X016238Y029484D01*
X016238Y029026D01*
X016134Y029026D01*
X016134Y029079D02*
X016238Y029079D01*
X016238Y029132D02*
X016134Y029132D01*
X016134Y029185D02*
X016238Y029185D01*
X016238Y029238D02*
X016134Y029238D01*
X016134Y029291D02*
X016238Y029291D01*
X016238Y029344D02*
X016134Y029344D01*
X016134Y029397D02*
X016238Y029397D01*
X016238Y029450D02*
X016134Y029450D01*
X015937Y029484D02*
X015937Y029026D01*
X015937Y029484D02*
X016041Y029484D01*
X016041Y029026D01*
X015937Y029026D01*
X015937Y029079D02*
X016041Y029079D01*
X016041Y029132D02*
X015937Y029132D01*
X015937Y029185D02*
X016041Y029185D01*
X016041Y029238D02*
X015937Y029238D01*
X015937Y029291D02*
X016041Y029291D01*
X016041Y029344D02*
X015937Y029344D01*
X015937Y029397D02*
X016041Y029397D01*
X016041Y029450D02*
X015937Y029450D01*
X015741Y029484D02*
X015741Y029026D01*
X015741Y029484D02*
X015845Y029484D01*
X015845Y029026D01*
X015741Y029026D01*
X015741Y029079D02*
X015845Y029079D01*
X015845Y029132D02*
X015741Y029132D01*
X015741Y029185D02*
X015845Y029185D01*
X015845Y029238D02*
X015741Y029238D01*
X015741Y029291D02*
X015845Y029291D01*
X015845Y029344D02*
X015741Y029344D01*
X015741Y029397D02*
X015845Y029397D01*
X015845Y029450D02*
X015741Y029450D01*
X015544Y029484D02*
X015544Y029026D01*
X015544Y029484D02*
X015648Y029484D01*
X015648Y029026D01*
X015544Y029026D01*
X015544Y029079D02*
X015648Y029079D01*
X015648Y029132D02*
X015544Y029132D01*
X015544Y029185D02*
X015648Y029185D01*
X015648Y029238D02*
X015544Y029238D01*
X015544Y029291D02*
X015648Y029291D01*
X015648Y029344D02*
X015544Y029344D01*
X015544Y029397D02*
X015648Y029397D01*
X015648Y029450D02*
X015544Y029450D01*
X015347Y029484D02*
X015347Y029026D01*
X015347Y029484D02*
X015451Y029484D01*
X015451Y029026D01*
X015347Y029026D01*
X015347Y029079D02*
X015451Y029079D01*
X015451Y029132D02*
X015347Y029132D01*
X015347Y029185D02*
X015451Y029185D01*
X015451Y029238D02*
X015347Y029238D01*
X015347Y029291D02*
X015451Y029291D01*
X015451Y029344D02*
X015347Y029344D01*
X015347Y029397D02*
X015451Y029397D01*
X015451Y029450D02*
X015347Y029450D01*
X015150Y029484D02*
X015150Y029026D01*
X015150Y029484D02*
X015254Y029484D01*
X015254Y029026D01*
X015150Y029026D01*
X015150Y029079D02*
X015254Y029079D01*
X015254Y029132D02*
X015150Y029132D01*
X015150Y029185D02*
X015254Y029185D01*
X015254Y029238D02*
X015150Y029238D01*
X015150Y029291D02*
X015254Y029291D01*
X015254Y029344D02*
X015150Y029344D01*
X015150Y029397D02*
X015254Y029397D01*
X015254Y029450D02*
X015150Y029450D01*
X014953Y029484D02*
X014953Y029026D01*
X014953Y029484D02*
X015057Y029484D01*
X015057Y029026D01*
X014953Y029026D01*
X014953Y029079D02*
X015057Y029079D01*
X015057Y029132D02*
X014953Y029132D01*
X014953Y029185D02*
X015057Y029185D01*
X015057Y029238D02*
X014953Y029238D01*
X014953Y029291D02*
X015057Y029291D01*
X015057Y029344D02*
X014953Y029344D01*
X014953Y029397D02*
X015057Y029397D01*
X015057Y029450D02*
X014953Y029450D01*
X014756Y029484D02*
X014756Y029026D01*
X014756Y029484D02*
X014860Y029484D01*
X014860Y029026D01*
X014756Y029026D01*
X014756Y029079D02*
X014860Y029079D01*
X014860Y029132D02*
X014756Y029132D01*
X014756Y029185D02*
X014860Y029185D01*
X014860Y029238D02*
X014756Y029238D01*
X014756Y029291D02*
X014860Y029291D01*
X014860Y029344D02*
X014756Y029344D01*
X014756Y029397D02*
X014860Y029397D01*
X014860Y029450D02*
X014756Y029450D01*
X014559Y029484D02*
X014559Y029026D01*
X014559Y029484D02*
X014663Y029484D01*
X014663Y029026D01*
X014559Y029026D01*
X014559Y029079D02*
X014663Y029079D01*
X014663Y029132D02*
X014559Y029132D01*
X014559Y029185D02*
X014663Y029185D01*
X014663Y029238D02*
X014559Y029238D01*
X014559Y029291D02*
X014663Y029291D01*
X014663Y029344D02*
X014559Y029344D01*
X014559Y029397D02*
X014663Y029397D01*
X014663Y029450D02*
X014559Y029450D01*
X014363Y029484D02*
X014363Y029026D01*
X014363Y029484D02*
X014467Y029484D01*
X014467Y029026D01*
X014363Y029026D01*
X014363Y029079D02*
X014467Y029079D01*
X014467Y029132D02*
X014363Y029132D01*
X014363Y029185D02*
X014467Y029185D01*
X014467Y029238D02*
X014363Y029238D01*
X014363Y029291D02*
X014467Y029291D01*
X014467Y029344D02*
X014363Y029344D01*
X014363Y029397D02*
X014467Y029397D01*
X014467Y029450D02*
X014363Y029450D01*
X014166Y029484D02*
X014166Y029026D01*
X014166Y029484D02*
X014270Y029484D01*
X014270Y029026D01*
X014166Y029026D01*
X014166Y029079D02*
X014270Y029079D01*
X014270Y029132D02*
X014166Y029132D01*
X014166Y029185D02*
X014270Y029185D01*
X014270Y029238D02*
X014166Y029238D01*
X014166Y029291D02*
X014270Y029291D01*
X014270Y029344D02*
X014166Y029344D01*
X014166Y029397D02*
X014270Y029397D01*
X014270Y029450D02*
X014166Y029450D01*
X013969Y029484D02*
X013969Y029026D01*
X013969Y029484D02*
X014073Y029484D01*
X014073Y029026D01*
X013969Y029026D01*
X013969Y029079D02*
X014073Y029079D01*
X014073Y029132D02*
X013969Y029132D01*
X013969Y029185D02*
X014073Y029185D01*
X014073Y029238D02*
X013969Y029238D01*
X013969Y029291D02*
X014073Y029291D01*
X014073Y029344D02*
X013969Y029344D01*
X013969Y029397D02*
X014073Y029397D01*
X014073Y029450D02*
X013969Y029450D01*
X013772Y029484D02*
X013772Y029026D01*
X013772Y029484D02*
X013876Y029484D01*
X013876Y029026D01*
X013772Y029026D01*
X013772Y029079D02*
X013876Y029079D01*
X013876Y029132D02*
X013772Y029132D01*
X013772Y029185D02*
X013876Y029185D01*
X013876Y029238D02*
X013772Y029238D01*
X013772Y029291D02*
X013876Y029291D01*
X013876Y029344D02*
X013772Y029344D01*
X013772Y029397D02*
X013876Y029397D01*
X013876Y029450D02*
X013772Y029450D01*
X013575Y029484D02*
X013575Y029026D01*
X013575Y029484D02*
X013679Y029484D01*
X013679Y029026D01*
X013575Y029026D01*
X013575Y029079D02*
X013679Y029079D01*
X013679Y029132D02*
X013575Y029132D01*
X013575Y029185D02*
X013679Y029185D01*
X013679Y029238D02*
X013575Y029238D01*
X013575Y029291D02*
X013679Y029291D01*
X013679Y029344D02*
X013575Y029344D01*
X013575Y029397D02*
X013679Y029397D01*
X013679Y029450D02*
X013575Y029450D01*
X013378Y029484D02*
X013378Y029026D01*
X013378Y029484D02*
X013482Y029484D01*
X013482Y029026D01*
X013378Y029026D01*
X013378Y029079D02*
X013482Y029079D01*
X013482Y029132D02*
X013378Y029132D01*
X013378Y029185D02*
X013482Y029185D01*
X013482Y029238D02*
X013378Y029238D01*
X013378Y029291D02*
X013482Y029291D01*
X013482Y029344D02*
X013378Y029344D01*
X013378Y029397D02*
X013482Y029397D01*
X013482Y029450D02*
X013378Y029450D01*
X013182Y029484D02*
X013182Y029026D01*
X013182Y029484D02*
X013286Y029484D01*
X013286Y029026D01*
X013182Y029026D01*
X013182Y029079D02*
X013286Y029079D01*
X013286Y029132D02*
X013182Y029132D01*
X013182Y029185D02*
X013286Y029185D01*
X013286Y029238D02*
X013182Y029238D01*
X013182Y029291D02*
X013286Y029291D01*
X013286Y029344D02*
X013182Y029344D01*
X013182Y029397D02*
X013286Y029397D01*
X013286Y029450D02*
X013182Y029450D01*
X012985Y029484D02*
X012985Y029026D01*
X012985Y029484D02*
X013089Y029484D01*
X013089Y029026D01*
X012985Y029026D01*
X012985Y029079D02*
X013089Y029079D01*
X013089Y029132D02*
X012985Y029132D01*
X012985Y029185D02*
X013089Y029185D01*
X013089Y029238D02*
X012985Y029238D01*
X012985Y029291D02*
X013089Y029291D01*
X013089Y029344D02*
X012985Y029344D01*
X012985Y029397D02*
X013089Y029397D01*
X013089Y029450D02*
X012985Y029450D01*
X012788Y029484D02*
X012788Y029026D01*
X012788Y029484D02*
X012892Y029484D01*
X012892Y029026D01*
X012788Y029026D01*
X012788Y029079D02*
X012892Y029079D01*
X012892Y029132D02*
X012788Y029132D01*
X012788Y029185D02*
X012892Y029185D01*
X012892Y029238D02*
X012788Y029238D01*
X012788Y029291D02*
X012892Y029291D01*
X012892Y029344D02*
X012788Y029344D01*
X012788Y029397D02*
X012892Y029397D01*
X012892Y029450D02*
X012788Y029450D01*
X012591Y029484D02*
X012591Y029026D01*
X012591Y029484D02*
X012695Y029484D01*
X012695Y029026D01*
X012591Y029026D01*
X012591Y029079D02*
X012695Y029079D01*
X012695Y029132D02*
X012591Y029132D01*
X012591Y029185D02*
X012695Y029185D01*
X012695Y029238D02*
X012591Y029238D01*
X012591Y029291D02*
X012695Y029291D01*
X012695Y029344D02*
X012591Y029344D01*
X012591Y029397D02*
X012695Y029397D01*
X012695Y029450D02*
X012591Y029450D01*
X012394Y029484D02*
X012394Y029026D01*
X012394Y029484D02*
X012498Y029484D01*
X012498Y029026D01*
X012394Y029026D01*
X012394Y029079D02*
X012498Y029079D01*
X012498Y029132D02*
X012394Y029132D01*
X012394Y029185D02*
X012498Y029185D01*
X012498Y029238D02*
X012394Y029238D01*
X012394Y029291D02*
X012498Y029291D01*
X012498Y029344D02*
X012394Y029344D01*
X012394Y029397D02*
X012498Y029397D01*
X012498Y029450D02*
X012394Y029450D01*
X012197Y029484D02*
X012197Y029026D01*
X012197Y029484D02*
X012301Y029484D01*
X012301Y029026D01*
X012197Y029026D01*
X012197Y029079D02*
X012301Y029079D01*
X012301Y029132D02*
X012197Y029132D01*
X012197Y029185D02*
X012301Y029185D01*
X012301Y029238D02*
X012197Y029238D01*
X012197Y029291D02*
X012301Y029291D01*
X012301Y029344D02*
X012197Y029344D01*
X012197Y029397D02*
X012301Y029397D01*
X012301Y029450D02*
X012197Y029450D01*
X012000Y029484D02*
X012000Y029026D01*
X012000Y029484D02*
X012104Y029484D01*
X012104Y029026D01*
X012000Y029026D01*
X012000Y029079D02*
X012104Y029079D01*
X012104Y029132D02*
X012000Y029132D01*
X012000Y029185D02*
X012104Y029185D01*
X012104Y029238D02*
X012000Y029238D01*
X012000Y029291D02*
X012104Y029291D01*
X012104Y029344D02*
X012000Y029344D01*
X012000Y029397D02*
X012104Y029397D01*
X012104Y029450D02*
X012000Y029450D01*
X011804Y029484D02*
X011804Y029026D01*
X011804Y029484D02*
X011908Y029484D01*
X011908Y029026D01*
X011804Y029026D01*
X011804Y029079D02*
X011908Y029079D01*
X011908Y029132D02*
X011804Y029132D01*
X011804Y029185D02*
X011908Y029185D01*
X011908Y029238D02*
X011804Y029238D01*
X011804Y029291D02*
X011908Y029291D01*
X011908Y029344D02*
X011804Y029344D01*
X011804Y029397D02*
X011908Y029397D01*
X011908Y029450D02*
X011804Y029450D01*
X011607Y029484D02*
X011607Y029026D01*
X011607Y029484D02*
X011711Y029484D01*
X011711Y029026D01*
X011607Y029026D01*
X011607Y029079D02*
X011711Y029079D01*
X011711Y029132D02*
X011607Y029132D01*
X011607Y029185D02*
X011711Y029185D01*
X011711Y029238D02*
X011607Y029238D01*
X011607Y029291D02*
X011711Y029291D01*
X011711Y029344D02*
X011607Y029344D01*
X011607Y029397D02*
X011711Y029397D01*
X011711Y029450D02*
X011607Y029450D01*
X011410Y029484D02*
X011410Y029026D01*
X011410Y029484D02*
X011514Y029484D01*
X011514Y029026D01*
X011410Y029026D01*
X011410Y029079D02*
X011514Y029079D01*
X011514Y029132D02*
X011410Y029132D01*
X011410Y029185D02*
X011514Y029185D01*
X011514Y029238D02*
X011410Y029238D01*
X011410Y029291D02*
X011514Y029291D01*
X011514Y029344D02*
X011410Y029344D01*
X011410Y029397D02*
X011514Y029397D01*
X011514Y029450D02*
X011410Y029450D01*
X011213Y029484D02*
X011213Y029026D01*
X011213Y029484D02*
X011317Y029484D01*
X011317Y029026D01*
X011213Y029026D01*
X011213Y029079D02*
X011317Y029079D01*
X011317Y029132D02*
X011213Y029132D01*
X011213Y029185D02*
X011317Y029185D01*
X011317Y029238D02*
X011213Y029238D01*
X011213Y029291D02*
X011317Y029291D01*
X011317Y029344D02*
X011213Y029344D01*
X011213Y029397D02*
X011317Y029397D01*
X011317Y029450D02*
X011213Y029450D01*
X011016Y029484D02*
X011016Y029026D01*
X011016Y029484D02*
X011120Y029484D01*
X011120Y029026D01*
X011016Y029026D01*
X011016Y029079D02*
X011120Y029079D01*
X011120Y029132D02*
X011016Y029132D01*
X011016Y029185D02*
X011120Y029185D01*
X011120Y029238D02*
X011016Y029238D01*
X011016Y029291D02*
X011120Y029291D01*
X011120Y029344D02*
X011016Y029344D01*
X011016Y029397D02*
X011120Y029397D01*
X011120Y029450D02*
X011016Y029450D01*
X010819Y029484D02*
X010819Y029026D01*
X010819Y029484D02*
X010923Y029484D01*
X010923Y029026D01*
X010819Y029026D01*
X010819Y029079D02*
X010923Y029079D01*
X010923Y029132D02*
X010819Y029132D01*
X010819Y029185D02*
X010923Y029185D01*
X010923Y029238D02*
X010819Y029238D01*
X010819Y029291D02*
X010923Y029291D01*
X010923Y029344D02*
X010819Y029344D01*
X010819Y029397D02*
X010923Y029397D01*
X010923Y029450D02*
X010819Y029450D01*
X009835Y028500D02*
X009835Y028396D01*
X009835Y028500D02*
X010293Y028500D01*
X010293Y028396D01*
X009835Y028396D01*
X009835Y028449D02*
X010293Y028449D01*
X009835Y028303D02*
X009835Y028199D01*
X009835Y028303D02*
X010293Y028303D01*
X010293Y028199D01*
X009835Y028199D01*
X009835Y028252D02*
X010293Y028252D01*
X009835Y028106D02*
X009835Y028002D01*
X009835Y028106D02*
X010293Y028106D01*
X010293Y028002D01*
X009835Y028002D01*
X009835Y028055D02*
X010293Y028055D01*
X009835Y027909D02*
X009835Y027805D01*
X009835Y027909D02*
X010293Y027909D01*
X010293Y027805D01*
X009835Y027805D01*
X009835Y027858D02*
X010293Y027858D01*
X009835Y027712D02*
X009835Y027608D01*
X009835Y027712D02*
X010293Y027712D01*
X010293Y027608D01*
X009835Y027608D01*
X009835Y027661D02*
X010293Y027661D01*
X009835Y027515D02*
X009835Y027411D01*
X009835Y027515D02*
X010293Y027515D01*
X010293Y027411D01*
X009835Y027411D01*
X009835Y027464D02*
X010293Y027464D01*
X009835Y027319D02*
X009835Y027215D01*
X009835Y027319D02*
X010293Y027319D01*
X010293Y027215D01*
X009835Y027215D01*
X009835Y027268D02*
X010293Y027268D01*
X009835Y027122D02*
X009835Y027018D01*
X009835Y027122D02*
X010293Y027122D01*
X010293Y027018D01*
X009835Y027018D01*
X009835Y027071D02*
X010293Y027071D01*
X009835Y026925D02*
X009835Y026821D01*
X009835Y026925D02*
X010293Y026925D01*
X010293Y026821D01*
X009835Y026821D01*
X009835Y026874D02*
X010293Y026874D01*
X009835Y026728D02*
X009835Y026624D01*
X009835Y026728D02*
X010293Y026728D01*
X010293Y026624D01*
X009835Y026624D01*
X009835Y026677D02*
X010293Y026677D01*
X009835Y026531D02*
X009835Y026427D01*
X009835Y026531D02*
X010293Y026531D01*
X010293Y026427D01*
X009835Y026427D01*
X009835Y026480D02*
X010293Y026480D01*
X009835Y026334D02*
X009835Y026230D01*
X009835Y026334D02*
X010293Y026334D01*
X010293Y026230D01*
X009835Y026230D01*
X009835Y026283D02*
X010293Y026283D01*
X009835Y026137D02*
X009835Y026033D01*
X009835Y026137D02*
X010293Y026137D01*
X010293Y026033D01*
X009835Y026033D01*
X009835Y026086D02*
X010293Y026086D01*
X009835Y025941D02*
X009835Y025837D01*
X009835Y025941D02*
X010293Y025941D01*
X010293Y025837D01*
X009835Y025837D01*
X009835Y025890D02*
X010293Y025890D01*
X009835Y025744D02*
X009835Y025640D01*
X009835Y025744D02*
X010293Y025744D01*
X010293Y025640D01*
X009835Y025640D01*
X009835Y025693D02*
X010293Y025693D01*
X009835Y025547D02*
X009835Y025443D01*
X009835Y025547D02*
X010293Y025547D01*
X010293Y025443D01*
X009835Y025443D01*
X009835Y025496D02*
X010293Y025496D01*
X009835Y025350D02*
X009835Y025246D01*
X009835Y025350D02*
X010293Y025350D01*
X010293Y025246D01*
X009835Y025246D01*
X009835Y025299D02*
X010293Y025299D01*
X009835Y025153D02*
X009835Y025049D01*
X009835Y025153D02*
X010293Y025153D01*
X010293Y025049D01*
X009835Y025049D01*
X009835Y025102D02*
X010293Y025102D01*
X009835Y024956D02*
X009835Y024852D01*
X009835Y024956D02*
X010293Y024956D01*
X010293Y024852D01*
X009835Y024852D01*
X009835Y024905D02*
X010293Y024905D01*
X009835Y024759D02*
X009835Y024655D01*
X009835Y024759D02*
X010293Y024759D01*
X010293Y024655D01*
X009835Y024655D01*
X009835Y024708D02*
X010293Y024708D01*
X009835Y024563D02*
X009835Y024459D01*
X009835Y024563D02*
X010293Y024563D01*
X010293Y024459D01*
X009835Y024459D01*
X009835Y024512D02*
X010293Y024512D01*
X009835Y024366D02*
X009835Y024262D01*
X009835Y024366D02*
X010293Y024366D01*
X010293Y024262D01*
X009835Y024262D01*
X009835Y024315D02*
X010293Y024315D01*
X009835Y024169D02*
X009835Y024065D01*
X009835Y024169D02*
X010293Y024169D01*
X010293Y024065D01*
X009835Y024065D01*
X009835Y024118D02*
X010293Y024118D01*
X009835Y023972D02*
X009835Y023868D01*
X009835Y023972D02*
X010293Y023972D01*
X010293Y023868D01*
X009835Y023868D01*
X009835Y023921D02*
X010293Y023921D01*
X009835Y023775D02*
X009835Y023671D01*
X009835Y023775D02*
X010293Y023775D01*
X010293Y023671D01*
X009835Y023671D01*
X009835Y023724D02*
X010293Y023724D01*
X009835Y023578D02*
X009835Y023474D01*
X009835Y023578D02*
X010293Y023578D01*
X010293Y023474D01*
X009835Y023474D01*
X009835Y023527D02*
X010293Y023527D01*
X009835Y023382D02*
X009835Y023278D01*
X009835Y023382D02*
X010293Y023382D01*
X010293Y023278D01*
X009835Y023278D01*
X009835Y023331D02*
X010293Y023331D01*
X009835Y023185D02*
X009835Y023081D01*
X009835Y023185D02*
X010293Y023185D01*
X010293Y023081D01*
X009835Y023081D01*
X009835Y023134D02*
X010293Y023134D01*
X009835Y022988D02*
X009835Y022884D01*
X009835Y022988D02*
X010293Y022988D01*
X010293Y022884D01*
X009835Y022884D01*
X009835Y022937D02*
X010293Y022937D01*
X009835Y022791D02*
X009835Y022687D01*
X009835Y022791D02*
X010293Y022791D01*
X010293Y022687D01*
X009835Y022687D01*
X009835Y022740D02*
X010293Y022740D01*
X009835Y022594D02*
X009835Y022490D01*
X009835Y022594D02*
X010293Y022594D01*
X010293Y022490D01*
X009835Y022490D01*
X009835Y022543D02*
X010293Y022543D01*
X009835Y022397D02*
X009835Y022293D01*
X009835Y022397D02*
X010293Y022397D01*
X010293Y022293D01*
X009835Y022293D01*
X009835Y022346D02*
X010293Y022346D01*
X009835Y022200D02*
X009835Y022096D01*
X009835Y022200D02*
X010293Y022200D01*
X010293Y022096D01*
X009835Y022096D01*
X009835Y022149D02*
X010293Y022149D01*
X009835Y022004D02*
X009835Y021900D01*
X009835Y022004D02*
X010293Y022004D01*
X010293Y021900D01*
X009835Y021900D01*
X009835Y021953D02*
X010293Y021953D01*
X009835Y021807D02*
X009835Y021703D01*
X009835Y021807D02*
X010293Y021807D01*
X010293Y021703D01*
X009835Y021703D01*
X009835Y021756D02*
X010293Y021756D01*
X009835Y021610D02*
X009835Y021506D01*
X009835Y021610D02*
X010293Y021610D01*
X010293Y021506D01*
X009835Y021506D01*
X009835Y021559D02*
X010293Y021559D01*
X010819Y020980D02*
X010819Y020522D01*
X010819Y020980D02*
X010923Y020980D01*
X010923Y020522D01*
X010819Y020522D01*
X010819Y020575D02*
X010923Y020575D01*
X010923Y020628D02*
X010819Y020628D01*
X010819Y020681D02*
X010923Y020681D01*
X010923Y020734D02*
X010819Y020734D01*
X010819Y020787D02*
X010923Y020787D01*
X010923Y020840D02*
X010819Y020840D01*
X010819Y020893D02*
X010923Y020893D01*
X010923Y020946D02*
X010819Y020946D01*
X011016Y020980D02*
X011016Y020522D01*
X011016Y020980D02*
X011120Y020980D01*
X011120Y020522D01*
X011016Y020522D01*
X011016Y020575D02*
X011120Y020575D01*
X011120Y020628D02*
X011016Y020628D01*
X011016Y020681D02*
X011120Y020681D01*
X011120Y020734D02*
X011016Y020734D01*
X011016Y020787D02*
X011120Y020787D01*
X011120Y020840D02*
X011016Y020840D01*
X011016Y020893D02*
X011120Y020893D01*
X011120Y020946D02*
X011016Y020946D01*
X011213Y020980D02*
X011213Y020522D01*
X011213Y020980D02*
X011317Y020980D01*
X011317Y020522D01*
X011213Y020522D01*
X011213Y020575D02*
X011317Y020575D01*
X011317Y020628D02*
X011213Y020628D01*
X011213Y020681D02*
X011317Y020681D01*
X011317Y020734D02*
X011213Y020734D01*
X011213Y020787D02*
X011317Y020787D01*
X011317Y020840D02*
X011213Y020840D01*
X011213Y020893D02*
X011317Y020893D01*
X011317Y020946D02*
X011213Y020946D01*
X011410Y020980D02*
X011410Y020522D01*
X011410Y020980D02*
X011514Y020980D01*
X011514Y020522D01*
X011410Y020522D01*
X011410Y020575D02*
X011514Y020575D01*
X011514Y020628D02*
X011410Y020628D01*
X011410Y020681D02*
X011514Y020681D01*
X011514Y020734D02*
X011410Y020734D01*
X011410Y020787D02*
X011514Y020787D01*
X011514Y020840D02*
X011410Y020840D01*
X011410Y020893D02*
X011514Y020893D01*
X011514Y020946D02*
X011410Y020946D01*
X011607Y020980D02*
X011607Y020522D01*
X011607Y020980D02*
X011711Y020980D01*
X011711Y020522D01*
X011607Y020522D01*
X011607Y020575D02*
X011711Y020575D01*
X011711Y020628D02*
X011607Y020628D01*
X011607Y020681D02*
X011711Y020681D01*
X011711Y020734D02*
X011607Y020734D01*
X011607Y020787D02*
X011711Y020787D01*
X011711Y020840D02*
X011607Y020840D01*
X011607Y020893D02*
X011711Y020893D01*
X011711Y020946D02*
X011607Y020946D01*
X011804Y020980D02*
X011804Y020522D01*
X011804Y020980D02*
X011908Y020980D01*
X011908Y020522D01*
X011804Y020522D01*
X011804Y020575D02*
X011908Y020575D01*
X011908Y020628D02*
X011804Y020628D01*
X011804Y020681D02*
X011908Y020681D01*
X011908Y020734D02*
X011804Y020734D01*
X011804Y020787D02*
X011908Y020787D01*
X011908Y020840D02*
X011804Y020840D01*
X011804Y020893D02*
X011908Y020893D01*
X011908Y020946D02*
X011804Y020946D01*
X012000Y020980D02*
X012000Y020522D01*
X012000Y020980D02*
X012104Y020980D01*
X012104Y020522D01*
X012000Y020522D01*
X012000Y020575D02*
X012104Y020575D01*
X012104Y020628D02*
X012000Y020628D01*
X012000Y020681D02*
X012104Y020681D01*
X012104Y020734D02*
X012000Y020734D01*
X012000Y020787D02*
X012104Y020787D01*
X012104Y020840D02*
X012000Y020840D01*
X012000Y020893D02*
X012104Y020893D01*
X012104Y020946D02*
X012000Y020946D01*
X012197Y020980D02*
X012197Y020522D01*
X012197Y020980D02*
X012301Y020980D01*
X012301Y020522D01*
X012197Y020522D01*
X012197Y020575D02*
X012301Y020575D01*
X012301Y020628D02*
X012197Y020628D01*
X012197Y020681D02*
X012301Y020681D01*
X012301Y020734D02*
X012197Y020734D01*
X012197Y020787D02*
X012301Y020787D01*
X012301Y020840D02*
X012197Y020840D01*
X012197Y020893D02*
X012301Y020893D01*
X012301Y020946D02*
X012197Y020946D01*
X012394Y020980D02*
X012394Y020522D01*
X012394Y020980D02*
X012498Y020980D01*
X012498Y020522D01*
X012394Y020522D01*
X012394Y020575D02*
X012498Y020575D01*
X012498Y020628D02*
X012394Y020628D01*
X012394Y020681D02*
X012498Y020681D01*
X012498Y020734D02*
X012394Y020734D01*
X012394Y020787D02*
X012498Y020787D01*
X012498Y020840D02*
X012394Y020840D01*
X012394Y020893D02*
X012498Y020893D01*
X012498Y020946D02*
X012394Y020946D01*
X012591Y020980D02*
X012591Y020522D01*
X012591Y020980D02*
X012695Y020980D01*
X012695Y020522D01*
X012591Y020522D01*
X012591Y020575D02*
X012695Y020575D01*
X012695Y020628D02*
X012591Y020628D01*
X012591Y020681D02*
X012695Y020681D01*
X012695Y020734D02*
X012591Y020734D01*
X012591Y020787D02*
X012695Y020787D01*
X012695Y020840D02*
X012591Y020840D01*
X012591Y020893D02*
X012695Y020893D01*
X012695Y020946D02*
X012591Y020946D01*
X012788Y020980D02*
X012788Y020522D01*
X012788Y020980D02*
X012892Y020980D01*
X012892Y020522D01*
X012788Y020522D01*
X012788Y020575D02*
X012892Y020575D01*
X012892Y020628D02*
X012788Y020628D01*
X012788Y020681D02*
X012892Y020681D01*
X012892Y020734D02*
X012788Y020734D01*
X012788Y020787D02*
X012892Y020787D01*
X012892Y020840D02*
X012788Y020840D01*
X012788Y020893D02*
X012892Y020893D01*
X012892Y020946D02*
X012788Y020946D01*
X012985Y020980D02*
X012985Y020522D01*
X012985Y020980D02*
X013089Y020980D01*
X013089Y020522D01*
X012985Y020522D01*
X012985Y020575D02*
X013089Y020575D01*
X013089Y020628D02*
X012985Y020628D01*
X012985Y020681D02*
X013089Y020681D01*
X013089Y020734D02*
X012985Y020734D01*
X012985Y020787D02*
X013089Y020787D01*
X013089Y020840D02*
X012985Y020840D01*
X012985Y020893D02*
X013089Y020893D01*
X013089Y020946D02*
X012985Y020946D01*
X013182Y020980D02*
X013182Y020522D01*
X013182Y020980D02*
X013286Y020980D01*
X013286Y020522D01*
X013182Y020522D01*
X013182Y020575D02*
X013286Y020575D01*
X013286Y020628D02*
X013182Y020628D01*
X013182Y020681D02*
X013286Y020681D01*
X013286Y020734D02*
X013182Y020734D01*
X013182Y020787D02*
X013286Y020787D01*
X013286Y020840D02*
X013182Y020840D01*
X013182Y020893D02*
X013286Y020893D01*
X013286Y020946D02*
X013182Y020946D01*
X013378Y020980D02*
X013378Y020522D01*
X013378Y020980D02*
X013482Y020980D01*
X013482Y020522D01*
X013378Y020522D01*
X013378Y020575D02*
X013482Y020575D01*
X013482Y020628D02*
X013378Y020628D01*
X013378Y020681D02*
X013482Y020681D01*
X013482Y020734D02*
X013378Y020734D01*
X013378Y020787D02*
X013482Y020787D01*
X013482Y020840D02*
X013378Y020840D01*
X013378Y020893D02*
X013482Y020893D01*
X013482Y020946D02*
X013378Y020946D01*
X013575Y020980D02*
X013575Y020522D01*
X013575Y020980D02*
X013679Y020980D01*
X013679Y020522D01*
X013575Y020522D01*
X013575Y020575D02*
X013679Y020575D01*
X013679Y020628D02*
X013575Y020628D01*
X013575Y020681D02*
X013679Y020681D01*
X013679Y020734D02*
X013575Y020734D01*
X013575Y020787D02*
X013679Y020787D01*
X013679Y020840D02*
X013575Y020840D01*
X013575Y020893D02*
X013679Y020893D01*
X013679Y020946D02*
X013575Y020946D01*
X013772Y020980D02*
X013772Y020522D01*
X013772Y020980D02*
X013876Y020980D01*
X013876Y020522D01*
X013772Y020522D01*
X013772Y020575D02*
X013876Y020575D01*
X013876Y020628D02*
X013772Y020628D01*
X013772Y020681D02*
X013876Y020681D01*
X013876Y020734D02*
X013772Y020734D01*
X013772Y020787D02*
X013876Y020787D01*
X013876Y020840D02*
X013772Y020840D01*
X013772Y020893D02*
X013876Y020893D01*
X013876Y020946D02*
X013772Y020946D01*
X013969Y020980D02*
X013969Y020522D01*
X013969Y020980D02*
X014073Y020980D01*
X014073Y020522D01*
X013969Y020522D01*
X013969Y020575D02*
X014073Y020575D01*
X014073Y020628D02*
X013969Y020628D01*
X013969Y020681D02*
X014073Y020681D01*
X014073Y020734D02*
X013969Y020734D01*
X013969Y020787D02*
X014073Y020787D01*
X014073Y020840D02*
X013969Y020840D01*
X013969Y020893D02*
X014073Y020893D01*
X014073Y020946D02*
X013969Y020946D01*
X014166Y020980D02*
X014166Y020522D01*
X014166Y020980D02*
X014270Y020980D01*
X014270Y020522D01*
X014166Y020522D01*
X014166Y020575D02*
X014270Y020575D01*
X014270Y020628D02*
X014166Y020628D01*
X014166Y020681D02*
X014270Y020681D01*
X014270Y020734D02*
X014166Y020734D01*
X014166Y020787D02*
X014270Y020787D01*
X014270Y020840D02*
X014166Y020840D01*
X014166Y020893D02*
X014270Y020893D01*
X014270Y020946D02*
X014166Y020946D01*
X014363Y020980D02*
X014363Y020522D01*
X014363Y020980D02*
X014467Y020980D01*
X014467Y020522D01*
X014363Y020522D01*
X014363Y020575D02*
X014467Y020575D01*
X014467Y020628D02*
X014363Y020628D01*
X014363Y020681D02*
X014467Y020681D01*
X014467Y020734D02*
X014363Y020734D01*
X014363Y020787D02*
X014467Y020787D01*
X014467Y020840D02*
X014363Y020840D01*
X014363Y020893D02*
X014467Y020893D01*
X014467Y020946D02*
X014363Y020946D01*
X014559Y020980D02*
X014559Y020522D01*
X014559Y020980D02*
X014663Y020980D01*
X014663Y020522D01*
X014559Y020522D01*
X014559Y020575D02*
X014663Y020575D01*
X014663Y020628D02*
X014559Y020628D01*
X014559Y020681D02*
X014663Y020681D01*
X014663Y020734D02*
X014559Y020734D01*
X014559Y020787D02*
X014663Y020787D01*
X014663Y020840D02*
X014559Y020840D01*
X014559Y020893D02*
X014663Y020893D01*
X014663Y020946D02*
X014559Y020946D01*
X014756Y020980D02*
X014756Y020522D01*
X014756Y020980D02*
X014860Y020980D01*
X014860Y020522D01*
X014756Y020522D01*
X014756Y020575D02*
X014860Y020575D01*
X014860Y020628D02*
X014756Y020628D01*
X014756Y020681D02*
X014860Y020681D01*
X014860Y020734D02*
X014756Y020734D01*
X014756Y020787D02*
X014860Y020787D01*
X014860Y020840D02*
X014756Y020840D01*
X014756Y020893D02*
X014860Y020893D01*
X014860Y020946D02*
X014756Y020946D01*
X014953Y020980D02*
X014953Y020522D01*
X014953Y020980D02*
X015057Y020980D01*
X015057Y020522D01*
X014953Y020522D01*
X014953Y020575D02*
X015057Y020575D01*
X015057Y020628D02*
X014953Y020628D01*
X014953Y020681D02*
X015057Y020681D01*
X015057Y020734D02*
X014953Y020734D01*
X014953Y020787D02*
X015057Y020787D01*
X015057Y020840D02*
X014953Y020840D01*
X014953Y020893D02*
X015057Y020893D01*
X015057Y020946D02*
X014953Y020946D01*
X015150Y020980D02*
X015150Y020522D01*
X015150Y020980D02*
X015254Y020980D01*
X015254Y020522D01*
X015150Y020522D01*
X015150Y020575D02*
X015254Y020575D01*
X015254Y020628D02*
X015150Y020628D01*
X015150Y020681D02*
X015254Y020681D01*
X015254Y020734D02*
X015150Y020734D01*
X015150Y020787D02*
X015254Y020787D01*
X015254Y020840D02*
X015150Y020840D01*
X015150Y020893D02*
X015254Y020893D01*
X015254Y020946D02*
X015150Y020946D01*
X015347Y020980D02*
X015347Y020522D01*
X015347Y020980D02*
X015451Y020980D01*
X015451Y020522D01*
X015347Y020522D01*
X015347Y020575D02*
X015451Y020575D01*
X015451Y020628D02*
X015347Y020628D01*
X015347Y020681D02*
X015451Y020681D01*
X015451Y020734D02*
X015347Y020734D01*
X015347Y020787D02*
X015451Y020787D01*
X015451Y020840D02*
X015347Y020840D01*
X015347Y020893D02*
X015451Y020893D01*
X015451Y020946D02*
X015347Y020946D01*
X015544Y020980D02*
X015544Y020522D01*
X015544Y020980D02*
X015648Y020980D01*
X015648Y020522D01*
X015544Y020522D01*
X015544Y020575D02*
X015648Y020575D01*
X015648Y020628D02*
X015544Y020628D01*
X015544Y020681D02*
X015648Y020681D01*
X015648Y020734D02*
X015544Y020734D01*
X015544Y020787D02*
X015648Y020787D01*
X015648Y020840D02*
X015544Y020840D01*
X015544Y020893D02*
X015648Y020893D01*
X015648Y020946D02*
X015544Y020946D01*
X015741Y020980D02*
X015741Y020522D01*
X015741Y020980D02*
X015845Y020980D01*
X015845Y020522D01*
X015741Y020522D01*
X015741Y020575D02*
X015845Y020575D01*
X015845Y020628D02*
X015741Y020628D01*
X015741Y020681D02*
X015845Y020681D01*
X015845Y020734D02*
X015741Y020734D01*
X015741Y020787D02*
X015845Y020787D01*
X015845Y020840D02*
X015741Y020840D01*
X015741Y020893D02*
X015845Y020893D01*
X015845Y020946D02*
X015741Y020946D01*
X015937Y020980D02*
X015937Y020522D01*
X015937Y020980D02*
X016041Y020980D01*
X016041Y020522D01*
X015937Y020522D01*
X015937Y020575D02*
X016041Y020575D01*
X016041Y020628D02*
X015937Y020628D01*
X015937Y020681D02*
X016041Y020681D01*
X016041Y020734D02*
X015937Y020734D01*
X015937Y020787D02*
X016041Y020787D01*
X016041Y020840D02*
X015937Y020840D01*
X015937Y020893D02*
X016041Y020893D01*
X016041Y020946D02*
X015937Y020946D01*
X016134Y020980D02*
X016134Y020522D01*
X016134Y020980D02*
X016238Y020980D01*
X016238Y020522D01*
X016134Y020522D01*
X016134Y020575D02*
X016238Y020575D01*
X016238Y020628D02*
X016134Y020628D01*
X016134Y020681D02*
X016238Y020681D01*
X016238Y020734D02*
X016134Y020734D01*
X016134Y020787D02*
X016238Y020787D01*
X016238Y020840D02*
X016134Y020840D01*
X016134Y020893D02*
X016238Y020893D01*
X016238Y020946D02*
X016134Y020946D01*
X016331Y020980D02*
X016331Y020522D01*
X016331Y020980D02*
X016435Y020980D01*
X016435Y020522D01*
X016331Y020522D01*
X016331Y020575D02*
X016435Y020575D01*
X016435Y020628D02*
X016331Y020628D01*
X016331Y020681D02*
X016435Y020681D01*
X016435Y020734D02*
X016331Y020734D01*
X016331Y020787D02*
X016435Y020787D01*
X016435Y020840D02*
X016331Y020840D01*
X016331Y020893D02*
X016435Y020893D01*
X016435Y020946D02*
X016331Y020946D01*
X016528Y020980D02*
X016528Y020522D01*
X016528Y020980D02*
X016632Y020980D01*
X016632Y020522D01*
X016528Y020522D01*
X016528Y020575D02*
X016632Y020575D01*
X016632Y020628D02*
X016528Y020628D01*
X016528Y020681D02*
X016632Y020681D01*
X016632Y020734D02*
X016528Y020734D01*
X016528Y020787D02*
X016632Y020787D01*
X016632Y020840D02*
X016528Y020840D01*
X016528Y020893D02*
X016632Y020893D01*
X016632Y020946D02*
X016528Y020946D01*
X016725Y020980D02*
X016725Y020522D01*
X016725Y020980D02*
X016829Y020980D01*
X016829Y020522D01*
X016725Y020522D01*
X016725Y020575D02*
X016829Y020575D01*
X016829Y020628D02*
X016725Y020628D01*
X016725Y020681D02*
X016829Y020681D01*
X016829Y020734D02*
X016725Y020734D01*
X016725Y020787D02*
X016829Y020787D01*
X016829Y020840D02*
X016725Y020840D01*
X016725Y020893D02*
X016829Y020893D01*
X016829Y020946D02*
X016725Y020946D01*
X016922Y020980D02*
X016922Y020522D01*
X016922Y020980D02*
X017026Y020980D01*
X017026Y020522D01*
X016922Y020522D01*
X016922Y020575D02*
X017026Y020575D01*
X017026Y020628D02*
X016922Y020628D01*
X016922Y020681D02*
X017026Y020681D01*
X017026Y020734D02*
X016922Y020734D01*
X016922Y020787D02*
X017026Y020787D01*
X017026Y020840D02*
X016922Y020840D01*
X016922Y020893D02*
X017026Y020893D01*
X017026Y020946D02*
X016922Y020946D01*
X017119Y020980D02*
X017119Y020522D01*
X017119Y020980D02*
X017223Y020980D01*
X017223Y020522D01*
X017119Y020522D01*
X017119Y020575D02*
X017223Y020575D01*
X017223Y020628D02*
X017119Y020628D01*
X017119Y020681D02*
X017223Y020681D01*
X017223Y020734D02*
X017119Y020734D01*
X017119Y020787D02*
X017223Y020787D01*
X017223Y020840D02*
X017119Y020840D01*
X017119Y020893D02*
X017223Y020893D01*
X017223Y020946D02*
X017119Y020946D01*
X017315Y020980D02*
X017315Y020522D01*
X017315Y020980D02*
X017419Y020980D01*
X017419Y020522D01*
X017315Y020522D01*
X017315Y020575D02*
X017419Y020575D01*
X017419Y020628D02*
X017315Y020628D01*
X017315Y020681D02*
X017419Y020681D01*
X017419Y020734D02*
X017315Y020734D01*
X017315Y020787D02*
X017419Y020787D01*
X017419Y020840D02*
X017315Y020840D01*
X017315Y020893D02*
X017419Y020893D01*
X017419Y020946D02*
X017315Y020946D01*
X017512Y020980D02*
X017512Y020522D01*
X017512Y020980D02*
X017616Y020980D01*
X017616Y020522D01*
X017512Y020522D01*
X017512Y020575D02*
X017616Y020575D01*
X017616Y020628D02*
X017512Y020628D01*
X017512Y020681D02*
X017616Y020681D01*
X017616Y020734D02*
X017512Y020734D01*
X017512Y020787D02*
X017616Y020787D01*
X017616Y020840D02*
X017512Y020840D01*
X017512Y020893D02*
X017616Y020893D01*
X017616Y020946D02*
X017512Y020946D01*
X017709Y020980D02*
X017709Y020522D01*
X017709Y020980D02*
X017813Y020980D01*
X017813Y020522D01*
X017709Y020522D01*
X017709Y020575D02*
X017813Y020575D01*
X017813Y020628D02*
X017709Y020628D01*
X017709Y020681D02*
X017813Y020681D01*
X017813Y020734D02*
X017709Y020734D01*
X017709Y020787D02*
X017813Y020787D01*
X017813Y020840D02*
X017709Y020840D01*
X017709Y020893D02*
X017813Y020893D01*
X017813Y020946D02*
X017709Y020946D01*
D13*
X014631Y037719D03*
D14*
X013677Y004221D02*
X013677Y003335D01*
X012791Y003335D01*
X012791Y004221D01*
X013677Y004221D01*
X013677Y003432D02*
X012791Y003432D01*
X012791Y003529D02*
X013677Y003529D01*
X013677Y003626D02*
X012791Y003626D01*
X012791Y003723D02*
X013677Y003723D01*
X013677Y003820D02*
X012791Y003820D01*
X012791Y003917D02*
X013677Y003917D01*
X013677Y004014D02*
X012791Y004014D01*
X012791Y004111D02*
X013677Y004111D01*
X013677Y004208D02*
X012791Y004208D01*
X023007Y004221D02*
X023007Y003335D01*
X022121Y003335D01*
X022121Y004221D01*
X023007Y004221D01*
X023007Y003432D02*
X022121Y003432D01*
X022121Y003529D02*
X023007Y003529D01*
X023007Y003626D02*
X022121Y003626D01*
X022121Y003723D02*
X023007Y003723D01*
X023007Y003820D02*
X022121Y003820D01*
X022121Y003917D02*
X023007Y003917D01*
X023007Y004014D02*
X022121Y004014D01*
X022121Y004111D02*
X023007Y004111D01*
X023007Y004208D02*
X022121Y004208D01*
D15*
X021737Y004845D03*
X021541Y004845D03*
X021344Y004845D03*
X021147Y004845D03*
X020950Y004845D03*
X020753Y004845D03*
X020556Y004845D03*
X020359Y004845D03*
X020163Y004845D03*
X019966Y004845D03*
X019769Y004845D03*
X019572Y004845D03*
X019375Y004845D03*
X019178Y004845D03*
X018982Y004845D03*
X018785Y004845D03*
X018588Y004845D03*
X018391Y004845D03*
X018194Y004845D03*
X017997Y004845D03*
X017800Y004845D03*
X017604Y004845D03*
X017407Y004845D03*
X017210Y004845D03*
X017013Y004845D03*
X016816Y004845D03*
X016619Y004845D03*
X016422Y004845D03*
X016226Y004845D03*
X016029Y004845D03*
X015832Y004845D03*
X015635Y004845D03*
X015438Y004845D03*
X015241Y004845D03*
X015045Y004845D03*
X014848Y004845D03*
X014651Y004845D03*
X014454Y004845D03*
X014257Y004845D03*
X014060Y004845D03*
D16*
X014609Y006036D02*
X014609Y006060D01*
X014733Y006060D01*
X014733Y006036D01*
X014609Y006036D01*
X014609Y006386D02*
X014609Y006410D01*
X014733Y006410D01*
X014733Y006386D01*
X014609Y006386D01*
X013283Y008681D02*
X013259Y008681D01*
X013259Y008805D01*
X013283Y008805D01*
X013283Y008681D01*
X012933Y008681D02*
X012909Y008681D01*
X012909Y008805D01*
X012933Y008805D01*
X012933Y008681D01*
X012933Y009114D02*
X012909Y009114D01*
X012909Y009238D01*
X012933Y009238D01*
X012933Y009114D01*
X013259Y009114D02*
X013283Y009114D01*
X013259Y009114D02*
X013259Y009238D01*
X013283Y009238D01*
X013283Y009114D01*
X013283Y009547D02*
X013259Y009547D01*
X013259Y009671D01*
X013283Y009671D01*
X013283Y009547D01*
X012933Y009547D02*
X012909Y009547D01*
X012909Y009671D01*
X012933Y009671D01*
X012933Y009547D01*
X012933Y009980D02*
X012909Y009980D01*
X012909Y010104D01*
X012933Y010104D01*
X012933Y009980D01*
X013259Y009980D02*
X013283Y009980D01*
X013259Y009980D02*
X013259Y010104D01*
X013283Y010104D01*
X013283Y009980D01*
X014129Y012506D02*
X014153Y012506D01*
X014153Y012382D01*
X014129Y012382D01*
X014129Y012506D01*
X014479Y012506D02*
X014503Y012506D01*
X014503Y012382D01*
X014479Y012382D01*
X014479Y012506D01*
X014956Y012506D02*
X014980Y012506D01*
X014980Y012382D01*
X014956Y012382D01*
X014956Y012506D01*
X015306Y012506D02*
X015330Y012506D01*
X015330Y012382D01*
X015306Y012382D01*
X015306Y012506D01*
X016610Y012244D02*
X016634Y012244D01*
X016610Y012244D02*
X016610Y012368D01*
X016634Y012368D01*
X016634Y012244D01*
X016960Y012244D02*
X016984Y012244D01*
X016960Y012244D02*
X016960Y012368D01*
X016984Y012368D01*
X016984Y012244D01*
X017594Y010649D02*
X017618Y010649D01*
X017594Y010649D02*
X017594Y010773D01*
X017618Y010773D01*
X017618Y010649D01*
X017944Y010649D02*
X017968Y010649D01*
X017944Y010649D02*
X017944Y010773D01*
X017968Y010773D01*
X017968Y010649D01*
X018236Y010308D02*
X018236Y010284D01*
X018112Y010284D01*
X018112Y010308D01*
X018236Y010308D01*
X018236Y009958D02*
X018236Y009934D01*
X018112Y009934D01*
X018112Y009958D01*
X018236Y009958D01*
X019641Y009153D02*
X019665Y009153D01*
X019641Y009153D02*
X019641Y009277D01*
X019665Y009277D01*
X019665Y009153D01*
X019991Y009153D02*
X020015Y009153D01*
X019991Y009153D02*
X019991Y009277D01*
X020015Y009277D01*
X020015Y009153D01*
X020369Y009153D02*
X020393Y009153D01*
X020369Y009153D02*
X020369Y009277D01*
X020393Y009277D01*
X020393Y009153D01*
X020719Y009153D02*
X020743Y009153D01*
X020719Y009153D02*
X020719Y009277D01*
X020743Y009277D01*
X020743Y009153D01*
X021944Y012348D02*
X021968Y012348D01*
X021968Y012224D01*
X021944Y012224D01*
X021944Y012348D01*
X022294Y012348D02*
X022318Y012348D01*
X022318Y012224D01*
X022294Y012224D01*
X022294Y012348D01*
X022358Y015059D02*
X022334Y015059D01*
X022334Y015183D01*
X022358Y015183D01*
X022358Y015059D01*
X022008Y015059D02*
X021984Y015059D01*
X021984Y015183D01*
X022008Y015183D01*
X022008Y015059D01*
X020500Y019402D02*
X020500Y019426D01*
X020500Y019402D02*
X020376Y019402D01*
X020376Y019426D01*
X020500Y019426D01*
X020500Y019752D02*
X020500Y019776D01*
X020500Y019752D02*
X020376Y019752D01*
X020376Y019776D01*
X020500Y019776D01*
X020448Y020216D02*
X020424Y020216D01*
X020424Y020340D01*
X020448Y020340D01*
X020448Y020216D01*
X020098Y020216D02*
X020074Y020216D01*
X020074Y020340D01*
X020098Y020340D01*
X020098Y020216D01*
X019897Y022191D02*
X019873Y022191D01*
X019897Y022191D02*
X019897Y022067D01*
X019873Y022067D01*
X019873Y022191D01*
X019547Y022191D02*
X019523Y022191D01*
X019547Y022191D02*
X019547Y022067D01*
X019523Y022067D01*
X019523Y022191D01*
X020677Y022532D02*
X020677Y022556D01*
X020677Y022532D02*
X020553Y022532D01*
X020553Y022556D01*
X020677Y022556D01*
X020677Y022882D02*
X020677Y022906D01*
X020677Y022882D02*
X020553Y022882D01*
X020553Y022906D01*
X020677Y022906D01*
X018440Y020354D02*
X018416Y020354D01*
X018416Y020478D01*
X018440Y020478D01*
X018440Y020354D01*
X018090Y020354D02*
X018066Y020354D01*
X018066Y020478D01*
X018090Y020478D01*
X018090Y020354D01*
X017714Y019199D02*
X017690Y019199D01*
X017714Y019199D02*
X017714Y019075D01*
X017690Y019075D01*
X017690Y019199D01*
X017364Y019199D02*
X017340Y019199D01*
X017364Y019199D02*
X017364Y019075D01*
X017340Y019075D01*
X017340Y019199D01*
X017075Y019481D02*
X017075Y019505D01*
X017075Y019481D02*
X016951Y019481D01*
X016951Y019505D01*
X017075Y019505D01*
X017075Y019831D02*
X017075Y019855D01*
X017075Y019831D02*
X016951Y019831D01*
X016951Y019855D01*
X017075Y019855D01*
X016189Y019698D02*
X016189Y019674D01*
X016065Y019674D01*
X016065Y019698D01*
X016189Y019698D01*
X016189Y019348D02*
X016189Y019324D01*
X016065Y019324D01*
X016065Y019348D01*
X016189Y019348D01*
X014995Y019455D02*
X014971Y019455D01*
X014995Y019455D02*
X014995Y019331D01*
X014971Y019331D01*
X014971Y019455D01*
X015047Y019776D02*
X015047Y019800D01*
X015047Y019776D02*
X014923Y019776D01*
X014923Y019800D01*
X015047Y019800D01*
X015047Y020126D02*
X015047Y020150D01*
X015047Y020126D02*
X014923Y020126D01*
X014923Y020150D01*
X015047Y020150D01*
X014645Y019455D02*
X014621Y019455D01*
X014645Y019455D02*
X014645Y019331D01*
X014621Y019331D01*
X014621Y019455D01*
X014083Y019328D02*
X014083Y019304D01*
X013959Y019304D01*
X013959Y019328D01*
X014083Y019328D01*
X014083Y019654D02*
X014083Y019678D01*
X014083Y019654D02*
X013959Y019654D01*
X013959Y019678D01*
X014083Y019678D01*
X013670Y019678D02*
X013670Y019654D01*
X013546Y019654D01*
X013546Y019678D01*
X013670Y019678D01*
X013670Y019328D02*
X013670Y019304D01*
X013546Y019304D01*
X013546Y019328D01*
X013670Y019328D01*
X014018Y018536D02*
X014018Y018512D01*
X014018Y018536D02*
X014142Y018536D01*
X014142Y018512D01*
X014018Y018512D01*
X014018Y018186D02*
X014018Y018162D01*
X014018Y018186D02*
X014142Y018186D01*
X014142Y018162D01*
X014018Y018162D01*
X014917Y017368D02*
X014941Y017368D01*
X014941Y017244D01*
X014917Y017244D01*
X014917Y017368D01*
X015267Y017368D02*
X015291Y017368D01*
X015291Y017244D01*
X015267Y017244D01*
X015267Y017368D01*
X015704Y017244D02*
X015728Y017244D01*
X015704Y017244D02*
X015704Y017368D01*
X015728Y017368D01*
X015728Y017244D01*
X016054Y017244D02*
X016078Y017244D01*
X016054Y017244D02*
X016054Y017368D01*
X016078Y017368D01*
X016078Y017244D01*
X016223Y015387D02*
X016223Y015363D01*
X016223Y015387D02*
X016347Y015387D01*
X016347Y015363D01*
X016223Y015363D01*
X016223Y015037D02*
X016223Y015013D01*
X016223Y015037D02*
X016347Y015037D01*
X016347Y015013D01*
X016223Y015013D01*
X015724Y015301D02*
X015700Y015301D01*
X015724Y015301D02*
X015724Y015177D01*
X015700Y015177D01*
X015700Y015301D01*
X015374Y015301D02*
X015350Y015301D01*
X015374Y015301D02*
X015374Y015177D01*
X015350Y015177D01*
X015350Y015301D01*
X015035Y015177D02*
X015011Y015177D01*
X015011Y015301D01*
X015035Y015301D01*
X015035Y015177D01*
X014685Y015177D02*
X014661Y015177D01*
X014661Y015301D01*
X014685Y015301D01*
X014685Y015177D01*
X014346Y015399D02*
X014322Y015399D01*
X014346Y015399D02*
X014346Y015275D01*
X014322Y015275D01*
X014322Y015399D01*
X013996Y015399D02*
X013972Y015399D01*
X013996Y015399D02*
X013996Y015275D01*
X013972Y015275D01*
X013972Y015399D01*
X013315Y013694D02*
X013315Y013670D01*
X013191Y013670D01*
X013191Y013694D01*
X013315Y013694D01*
X013315Y013344D02*
X013315Y013320D01*
X013191Y013320D01*
X013191Y013344D01*
X013315Y013344D01*
X009786Y008379D02*
X009786Y008355D01*
X009786Y008379D02*
X009910Y008379D01*
X009910Y008355D01*
X009786Y008355D01*
X009786Y008029D02*
X009786Y008005D01*
X009786Y008029D02*
X009910Y008029D01*
X009910Y008005D01*
X009786Y008005D01*
X009372Y008005D02*
X009372Y008029D01*
X009496Y008029D01*
X009496Y008005D01*
X009372Y008005D01*
X009372Y008355D02*
X009372Y008379D01*
X009496Y008379D01*
X009496Y008355D01*
X009372Y008355D01*
X007679Y006568D02*
X007679Y006544D01*
X007679Y006568D02*
X007803Y006568D01*
X007803Y006544D01*
X007679Y006544D01*
X007679Y006218D02*
X007679Y006194D01*
X007679Y006218D02*
X007803Y006218D01*
X007803Y006194D01*
X007679Y006194D01*
X007246Y006194D02*
X007246Y006218D01*
X007370Y006218D01*
X007370Y006194D01*
X007246Y006194D01*
X007246Y006544D02*
X007246Y006568D01*
X007370Y006568D01*
X007370Y006544D01*
X007246Y006544D01*
X007106Y004868D02*
X007082Y004868D01*
X007106Y004868D02*
X007106Y004744D01*
X007082Y004744D01*
X007082Y004868D01*
X007432Y004868D02*
X007456Y004868D01*
X007456Y004744D01*
X007432Y004744D01*
X007432Y004868D01*
X007491Y002382D02*
X007515Y002382D01*
X007491Y002382D02*
X007491Y002506D01*
X007515Y002506D01*
X007515Y002382D01*
X007165Y002382D02*
X007141Y002382D01*
X007141Y002506D01*
X007165Y002506D01*
X007165Y002382D01*
X008007Y002506D02*
X008031Y002506D01*
X008031Y002382D01*
X008007Y002382D01*
X008007Y002506D01*
X008357Y002506D02*
X008381Y002506D01*
X008381Y002382D01*
X008357Y002382D01*
X008357Y002506D01*
X008381Y001968D02*
X008357Y001968D01*
X008357Y002092D01*
X008381Y002092D01*
X008381Y001968D01*
X008031Y001968D02*
X008007Y001968D01*
X008007Y002092D01*
X008031Y002092D01*
X008031Y001968D01*
X005717Y001843D02*
X005717Y001819D01*
X005593Y001819D01*
X005593Y001843D01*
X005717Y001843D01*
X005717Y001493D02*
X005717Y001469D01*
X005593Y001469D01*
X005593Y001493D01*
X005717Y001493D01*
X005205Y001493D02*
X005205Y001469D01*
X005081Y001469D01*
X005081Y001493D01*
X005205Y001493D01*
X005205Y001819D02*
X005205Y001843D01*
X005205Y001819D02*
X005081Y001819D01*
X005081Y001843D01*
X005205Y001843D01*
X011944Y005118D02*
X011968Y005118D01*
X011944Y005118D02*
X011944Y005242D01*
X011968Y005242D01*
X011968Y005118D01*
X012294Y005118D02*
X012318Y005118D01*
X012294Y005118D02*
X012294Y005242D01*
X012318Y005242D01*
X012318Y005118D01*
X012286Y002729D02*
X012286Y002705D01*
X012286Y002729D02*
X012410Y002729D01*
X012410Y002705D01*
X012286Y002705D01*
X012286Y002379D02*
X012286Y002355D01*
X012286Y002379D02*
X012410Y002379D01*
X012410Y002355D01*
X012286Y002355D01*
X019648Y005524D02*
X019648Y005548D01*
X019772Y005548D01*
X019772Y005524D01*
X019648Y005524D01*
X019648Y005874D02*
X019648Y005898D01*
X019772Y005898D01*
X019772Y005874D01*
X019648Y005874D01*
X023342Y004494D02*
X023366Y004494D01*
X023366Y004370D01*
X023342Y004370D01*
X023342Y004494D01*
X023692Y004494D02*
X023716Y004494D01*
X023716Y004370D01*
X023692Y004370D01*
X023692Y004494D01*
X024412Y004757D02*
X024412Y004781D01*
X024536Y004781D01*
X024536Y004757D01*
X024412Y004757D01*
X024412Y005107D02*
X024412Y005131D01*
X024536Y005131D01*
X024536Y005107D01*
X024412Y005107D01*
X025278Y005564D02*
X025278Y005588D01*
X025402Y005588D01*
X025402Y005564D01*
X025278Y005564D01*
X025278Y005914D02*
X025278Y005938D01*
X025402Y005938D01*
X025402Y005914D01*
X025278Y005914D01*
X023670Y007611D02*
X023670Y007635D01*
X023670Y007611D02*
X023546Y007611D01*
X023546Y007635D01*
X023670Y007635D01*
X023670Y007961D02*
X023670Y007985D01*
X023670Y007961D02*
X023546Y007961D01*
X023546Y007985D01*
X023670Y007985D01*
X023578Y002663D02*
X023602Y002663D01*
X023602Y002539D01*
X023578Y002539D01*
X023578Y002663D01*
X023928Y002663D02*
X023952Y002663D01*
X023952Y002539D01*
X023928Y002539D01*
X023928Y002663D01*
X018650Y014954D02*
X018650Y014978D01*
X018650Y014954D02*
X018526Y014954D01*
X018526Y014978D01*
X018650Y014978D01*
X018650Y015304D02*
X018650Y015328D01*
X018650Y015304D02*
X018526Y015304D01*
X018526Y015328D01*
X018650Y015328D01*
X012692Y019232D02*
X012668Y019232D01*
X012668Y019356D01*
X012692Y019356D01*
X012692Y019232D01*
X012342Y019232D02*
X012318Y019232D01*
X012318Y019356D01*
X012342Y019356D01*
X012342Y019232D01*
X012646Y019776D02*
X012646Y019800D01*
X012646Y019776D02*
X012522Y019776D01*
X012522Y019800D01*
X012646Y019800D01*
X012646Y020126D02*
X012646Y020150D01*
X012646Y020126D02*
X012522Y020126D01*
X012522Y020150D01*
X012646Y020150D01*
X010054Y020728D02*
X010030Y020728D01*
X010030Y020852D01*
X010054Y020852D01*
X010054Y020728D01*
X009704Y020728D02*
X009680Y020728D01*
X009680Y020852D01*
X009704Y020852D01*
X009704Y020728D01*
X009496Y021509D02*
X009496Y021533D01*
X009496Y021509D02*
X009372Y021509D01*
X009372Y021533D01*
X009496Y021533D01*
X009496Y021859D02*
X009496Y021883D01*
X009496Y021859D02*
X009372Y021859D01*
X009372Y021883D01*
X009496Y021883D01*
X008991Y019350D02*
X008967Y019350D01*
X008967Y019474D01*
X008991Y019474D01*
X008991Y019350D01*
X008641Y019350D02*
X008617Y019350D01*
X008617Y019474D01*
X008641Y019474D01*
X008641Y019350D01*
X007613Y019390D02*
X007589Y019390D01*
X007589Y019514D01*
X007613Y019514D01*
X007613Y019390D01*
X007263Y019390D02*
X007239Y019390D01*
X007239Y019514D01*
X007263Y019514D01*
X007263Y019390D01*
X007412Y015852D02*
X007436Y015852D01*
X007436Y015728D01*
X007412Y015728D01*
X007412Y015852D01*
X007086Y015852D02*
X007062Y015852D01*
X007086Y015852D02*
X007086Y015728D01*
X007062Y015728D01*
X007062Y015852D01*
X008873Y027480D02*
X008897Y027480D01*
X008873Y027480D02*
X008873Y027604D01*
X008897Y027604D01*
X008897Y027480D01*
X009223Y027480D02*
X009247Y027480D01*
X009223Y027480D02*
X009223Y027604D01*
X009247Y027604D01*
X009247Y027480D01*
X009038Y027906D02*
X009038Y027930D01*
X009162Y027930D01*
X009162Y027906D01*
X009038Y027906D01*
X009038Y028256D02*
X009038Y028280D01*
X009162Y028280D01*
X009162Y028256D01*
X009038Y028256D01*
X007377Y028169D02*
X007353Y028169D01*
X007353Y028293D01*
X007377Y028293D01*
X007377Y028169D01*
X007027Y028169D02*
X007003Y028169D01*
X007003Y028293D01*
X007027Y028293D01*
X007027Y028169D01*
X012994Y033379D02*
X012994Y033403D01*
X013118Y033403D01*
X013118Y033379D01*
X012994Y033379D01*
X012994Y033729D02*
X012994Y033753D01*
X013118Y033753D01*
X013118Y033729D01*
X012994Y033729D01*
X013388Y033729D02*
X013388Y033753D01*
X013512Y033753D01*
X013512Y033729D01*
X013388Y033729D01*
X013388Y033403D02*
X013388Y033379D01*
X013388Y033403D02*
X013512Y033403D01*
X013512Y033379D01*
X013388Y033379D01*
X013782Y033379D02*
X013782Y033403D01*
X013906Y033403D01*
X013906Y033379D01*
X013782Y033379D01*
X013782Y033729D02*
X013782Y033753D01*
X013906Y033753D01*
X013906Y033729D01*
X013782Y033729D01*
X015357Y033729D02*
X015357Y033753D01*
X015481Y033753D01*
X015481Y033729D01*
X015357Y033729D01*
X015357Y033403D02*
X015357Y033379D01*
X015357Y033403D02*
X015481Y033403D01*
X015481Y033379D01*
X015357Y033379D01*
X015750Y033379D02*
X015750Y033403D01*
X015874Y033403D01*
X015874Y033379D01*
X015750Y033379D01*
X015750Y033729D02*
X015750Y033753D01*
X015874Y033753D01*
X015874Y033729D01*
X015750Y033729D01*
X016144Y033729D02*
X016144Y033753D01*
X016268Y033753D01*
X016268Y033729D01*
X016144Y033729D01*
X016144Y033403D02*
X016144Y033379D01*
X016144Y033403D02*
X016268Y033403D01*
X016268Y033379D01*
X016144Y033379D01*
X018263Y036915D02*
X018287Y036915D01*
X018287Y036791D01*
X018263Y036791D01*
X018263Y036915D01*
X018613Y036915D02*
X018637Y036915D01*
X018637Y036791D01*
X018613Y036791D01*
X018613Y036915D01*
X014346Y029986D02*
X014322Y029986D01*
X014346Y029986D02*
X014346Y029862D01*
X014322Y029862D01*
X014322Y029986D01*
X013996Y029986D02*
X013972Y029986D01*
X013996Y029986D02*
X013996Y029862D01*
X013972Y029862D01*
X013972Y029986D01*
X013637Y029705D02*
X013613Y029705D01*
X013613Y029829D01*
X013637Y029829D01*
X013637Y029705D01*
X013287Y029705D02*
X013263Y029705D01*
X013263Y029829D01*
X013287Y029829D01*
X013287Y029705D01*
X019235Y027099D02*
X019235Y027075D01*
X019235Y027099D02*
X019359Y027099D01*
X019359Y027075D01*
X019235Y027075D01*
X019235Y026749D02*
X019235Y026725D01*
X019235Y026749D02*
X019359Y026749D01*
X019359Y026725D01*
X019235Y026725D01*
X019792Y026528D02*
X019792Y026504D01*
X019668Y026504D01*
X019668Y026528D01*
X019792Y026528D01*
X019792Y026178D02*
X019792Y026154D01*
X019668Y026154D01*
X019668Y026178D01*
X019792Y026178D01*
X024956Y024884D02*
X024980Y024884D01*
X024980Y024760D01*
X024956Y024760D01*
X024956Y024884D01*
X025306Y024884D02*
X025330Y024884D01*
X025330Y024760D01*
X025306Y024760D01*
X025306Y024884D01*
X025306Y024384D02*
X025330Y024384D01*
X025330Y024260D01*
X025306Y024260D01*
X025306Y024384D01*
X024980Y024384D02*
X024956Y024384D01*
X024980Y024384D02*
X024980Y024260D01*
X024956Y024260D01*
X024956Y024384D01*
X024956Y023384D02*
X024980Y023384D01*
X024980Y023260D01*
X024956Y023260D01*
X024956Y023384D01*
X025306Y023384D02*
X025330Y023384D01*
X025330Y023260D01*
X025306Y023260D01*
X025306Y023384D01*
X025306Y022884D02*
X025330Y022884D01*
X025330Y022760D01*
X025306Y022760D01*
X025306Y022884D01*
X024980Y022884D02*
X024956Y022884D01*
X024980Y022884D02*
X024980Y022760D01*
X024956Y022760D01*
X024956Y022884D01*
X024956Y022466D02*
X024980Y022466D01*
X024980Y022342D01*
X024956Y022342D01*
X024956Y022466D01*
X025306Y022466D02*
X025330Y022466D01*
X025330Y022342D01*
X025306Y022342D01*
X025306Y022466D01*
X025940Y026712D02*
X025964Y026712D01*
X025940Y026712D02*
X025940Y026836D01*
X025964Y026836D01*
X025964Y026712D01*
X026290Y026712D02*
X026314Y026712D01*
X026290Y026712D02*
X026290Y026836D01*
X026314Y026836D01*
X026314Y026712D01*
X026290Y027836D02*
X026314Y027836D01*
X026314Y027712D01*
X026290Y027712D01*
X026290Y027836D01*
X025964Y027836D02*
X025940Y027836D01*
X025964Y027836D02*
X025964Y027712D01*
X025940Y027712D01*
X025940Y027836D01*
X025940Y028836D02*
X025964Y028836D01*
X025964Y028712D01*
X025940Y028712D01*
X025940Y028836D01*
X026290Y028836D02*
X026314Y028836D01*
X026314Y028712D01*
X026290Y028712D01*
X026290Y028836D01*
D17*
X017197Y010291D02*
X017197Y009793D01*
X017197Y010291D02*
X017813Y010291D01*
X017813Y009793D01*
X017197Y009793D01*
X017197Y009847D02*
X017813Y009847D01*
X017813Y009901D02*
X017197Y009901D01*
X017197Y009955D02*
X017813Y009955D01*
X017813Y010009D02*
X017197Y010009D01*
X017197Y010063D02*
X017813Y010063D01*
X017813Y010117D02*
X017197Y010117D01*
X017197Y010171D02*
X017813Y010171D01*
X017813Y010225D02*
X017197Y010225D01*
X017197Y010279D02*
X017813Y010279D01*
X017197Y009504D02*
X017197Y009006D01*
X017197Y009504D02*
X017813Y009504D01*
X017813Y009006D01*
X017197Y009006D01*
X017197Y009060D02*
X017813Y009060D01*
X017813Y009114D02*
X017197Y009114D01*
X017197Y009168D02*
X017813Y009168D01*
X017813Y009222D02*
X017197Y009222D01*
X017197Y009276D02*
X017813Y009276D01*
X017813Y009330D02*
X017197Y009330D01*
X017197Y009384D02*
X017813Y009384D01*
X017813Y009438D02*
X017197Y009438D01*
X017197Y009492D02*
X017813Y009492D01*
X018162Y009602D02*
X018660Y009602D01*
X018660Y008986D01*
X018162Y008986D01*
X018162Y009602D01*
X018162Y009040D02*
X018660Y009040D01*
X018660Y009094D02*
X018162Y009094D01*
X018162Y009148D02*
X018660Y009148D01*
X018660Y009202D02*
X018162Y009202D01*
X018162Y009256D02*
X018660Y009256D01*
X018660Y009310D02*
X018162Y009310D01*
X018162Y009364D02*
X018660Y009364D01*
X018660Y009418D02*
X018162Y009418D01*
X018162Y009472D02*
X018660Y009472D01*
X018660Y009526D02*
X018162Y009526D01*
X018162Y009580D02*
X018660Y009580D01*
X018949Y009602D02*
X019447Y009602D01*
X019447Y008986D01*
X018949Y008986D01*
X018949Y009602D01*
X018949Y009040D02*
X019447Y009040D01*
X019447Y009094D02*
X018949Y009094D01*
X018949Y009148D02*
X019447Y009148D01*
X019447Y009202D02*
X018949Y009202D01*
X018949Y009256D02*
X019447Y009256D01*
X019447Y009310D02*
X018949Y009310D01*
X018949Y009364D02*
X019447Y009364D01*
X019447Y009418D02*
X018949Y009418D01*
X018949Y009472D02*
X019447Y009472D01*
X019447Y009526D02*
X018949Y009526D01*
X018949Y009580D02*
X019447Y009580D01*
X019697Y008933D02*
X020195Y008933D01*
X020195Y008317D01*
X019697Y008317D01*
X019697Y008933D01*
X019697Y008371D02*
X020195Y008371D01*
X020195Y008425D02*
X019697Y008425D01*
X019697Y008479D02*
X020195Y008479D01*
X020195Y008533D02*
X019697Y008533D01*
X019697Y008587D02*
X020195Y008587D01*
X020195Y008641D02*
X019697Y008641D01*
X019697Y008695D02*
X020195Y008695D01*
X020195Y008749D02*
X019697Y008749D01*
X019697Y008803D02*
X020195Y008803D01*
X020195Y008857D02*
X019697Y008857D01*
X019697Y008911D02*
X020195Y008911D01*
X020485Y008933D02*
X020983Y008933D01*
X020983Y008317D01*
X020485Y008317D01*
X020485Y008933D01*
X020485Y008371D02*
X020983Y008371D01*
X020983Y008425D02*
X020485Y008425D01*
X020485Y008479D02*
X020983Y008479D01*
X020983Y008533D02*
X020485Y008533D01*
X020485Y008587D02*
X020983Y008587D01*
X020983Y008641D02*
X020485Y008641D01*
X020485Y008695D02*
X020983Y008695D01*
X020983Y008749D02*
X020485Y008749D01*
X020485Y008803D02*
X020983Y008803D01*
X020983Y008857D02*
X020485Y008857D01*
X020485Y008911D02*
X020983Y008911D01*
X021475Y007496D02*
X021475Y006998D01*
X020859Y006998D01*
X020859Y007496D01*
X021475Y007496D01*
X021475Y007052D02*
X020859Y007052D01*
X020859Y007106D02*
X021475Y007106D01*
X021475Y007160D02*
X020859Y007160D01*
X020859Y007214D02*
X021475Y007214D01*
X021475Y007268D02*
X020859Y007268D01*
X020859Y007322D02*
X021475Y007322D01*
X021475Y007376D02*
X020859Y007376D01*
X020859Y007430D02*
X021475Y007430D01*
X021475Y007484D02*
X020859Y007484D01*
X021475Y006708D02*
X021475Y006210D01*
X020859Y006210D01*
X020859Y006708D01*
X021475Y006708D01*
X021475Y006264D02*
X020859Y006264D01*
X020859Y006318D02*
X021475Y006318D01*
X021475Y006372D02*
X020859Y006372D01*
X020859Y006426D02*
X021475Y006426D01*
X021475Y006480D02*
X020859Y006480D01*
X020859Y006534D02*
X021475Y006534D01*
X021475Y006588D02*
X020859Y006588D01*
X020859Y006642D02*
X021475Y006642D01*
X021475Y006696D02*
X020859Y006696D01*
X022242Y006708D02*
X022242Y006210D01*
X021626Y006210D01*
X021626Y006708D01*
X022242Y006708D01*
X022242Y006264D02*
X021626Y006264D01*
X021626Y006318D02*
X022242Y006318D01*
X022242Y006372D02*
X021626Y006372D01*
X021626Y006426D02*
X022242Y006426D01*
X022242Y006480D02*
X021626Y006480D01*
X021626Y006534D02*
X022242Y006534D01*
X022242Y006588D02*
X021626Y006588D01*
X021626Y006642D02*
X022242Y006642D01*
X022242Y006696D02*
X021626Y006696D01*
X022242Y006998D02*
X022242Y007496D01*
X022242Y006998D02*
X021626Y006998D01*
X021626Y007496D01*
X022242Y007496D01*
X022242Y007052D02*
X021626Y007052D01*
X021626Y007106D02*
X022242Y007106D01*
X022242Y007160D02*
X021626Y007160D01*
X021626Y007214D02*
X022242Y007214D01*
X022242Y007268D02*
X021626Y007268D01*
X021626Y007322D02*
X022242Y007322D01*
X022242Y007376D02*
X021626Y007376D01*
X021626Y007430D02*
X022242Y007430D01*
X022242Y007484D02*
X021626Y007484D01*
X022059Y005344D02*
X022557Y005344D01*
X022059Y005344D02*
X022059Y005960D01*
X022557Y005960D01*
X022557Y005344D01*
X022557Y005398D02*
X022059Y005398D01*
X022059Y005452D02*
X022557Y005452D01*
X022557Y005506D02*
X022059Y005506D01*
X022059Y005560D02*
X022557Y005560D01*
X022557Y005614D02*
X022059Y005614D01*
X022059Y005668D02*
X022557Y005668D01*
X022557Y005722D02*
X022059Y005722D01*
X022059Y005776D02*
X022557Y005776D01*
X022557Y005830D02*
X022059Y005830D01*
X022059Y005884D02*
X022557Y005884D01*
X022557Y005938D02*
X022059Y005938D01*
X022847Y005344D02*
X023345Y005344D01*
X022847Y005344D02*
X022847Y005960D01*
X023345Y005960D01*
X023345Y005344D01*
X023345Y005398D02*
X022847Y005398D01*
X022847Y005452D02*
X023345Y005452D01*
X023345Y005506D02*
X022847Y005506D01*
X022847Y005560D02*
X023345Y005560D01*
X023345Y005614D02*
X022847Y005614D01*
X022847Y005668D02*
X023345Y005668D01*
X023345Y005722D02*
X022847Y005722D01*
X022847Y005776D02*
X023345Y005776D01*
X023345Y005830D02*
X022847Y005830D01*
X022847Y005884D02*
X023345Y005884D01*
X023345Y005938D02*
X022847Y005938D01*
X024132Y005817D02*
X024132Y006315D01*
X024132Y005817D02*
X023516Y005817D01*
X023516Y006315D01*
X024132Y006315D01*
X024132Y005871D02*
X023516Y005871D01*
X023516Y005925D02*
X024132Y005925D01*
X024132Y005979D02*
X023516Y005979D01*
X023516Y006033D02*
X024132Y006033D01*
X024132Y006087D02*
X023516Y006087D01*
X023516Y006141D02*
X024132Y006141D01*
X024132Y006195D02*
X023516Y006195D01*
X023516Y006249D02*
X024132Y006249D01*
X024132Y006303D02*
X023516Y006303D01*
X024132Y005527D02*
X024132Y005029D01*
X023516Y005029D01*
X023516Y005527D01*
X024132Y005527D01*
X024132Y005083D02*
X023516Y005083D01*
X023516Y005137D02*
X024132Y005137D01*
X024132Y005191D02*
X023516Y005191D01*
X023516Y005245D02*
X024132Y005245D01*
X024132Y005299D02*
X023516Y005299D01*
X023516Y005353D02*
X024132Y005353D01*
X024132Y005407D02*
X023516Y005407D01*
X023516Y005461D02*
X024132Y005461D01*
X024132Y005515D02*
X023516Y005515D01*
X020254Y006525D02*
X020254Y007023D01*
X020254Y006525D02*
X019638Y006525D01*
X019638Y007023D01*
X020254Y007023D01*
X020254Y006579D02*
X019638Y006579D01*
X019638Y006633D02*
X020254Y006633D01*
X020254Y006687D02*
X019638Y006687D01*
X019638Y006741D02*
X020254Y006741D01*
X020254Y006795D02*
X019638Y006795D01*
X019638Y006849D02*
X020254Y006849D01*
X020254Y006903D02*
X019638Y006903D01*
X019638Y006957D02*
X020254Y006957D01*
X020254Y007011D02*
X019638Y007011D01*
X020254Y007313D02*
X020254Y007811D01*
X020254Y007313D02*
X019638Y007313D01*
X019638Y007811D01*
X020254Y007811D01*
X020254Y007367D02*
X019638Y007367D01*
X019638Y007421D02*
X020254Y007421D01*
X020254Y007475D02*
X019638Y007475D01*
X019638Y007529D02*
X020254Y007529D01*
X020254Y007583D02*
X019638Y007583D01*
X019638Y007637D02*
X020254Y007637D01*
X020254Y007691D02*
X019638Y007691D01*
X019638Y007745D02*
X020254Y007745D01*
X020254Y007799D02*
X019638Y007799D01*
X018142Y007929D02*
X018142Y007431D01*
X018142Y007929D02*
X018758Y007929D01*
X018758Y007431D01*
X018142Y007431D01*
X018142Y007485D02*
X018758Y007485D01*
X018758Y007539D02*
X018142Y007539D01*
X018142Y007593D02*
X018758Y007593D01*
X018758Y007647D02*
X018142Y007647D01*
X018142Y007701D02*
X018758Y007701D01*
X018758Y007755D02*
X018142Y007755D01*
X018142Y007809D02*
X018758Y007809D01*
X018758Y007863D02*
X018142Y007863D01*
X018142Y007917D02*
X018758Y007917D01*
X018142Y008218D02*
X018142Y008716D01*
X018758Y008716D01*
X018758Y008218D01*
X018142Y008218D01*
X018142Y008272D02*
X018758Y008272D01*
X018758Y008326D02*
X018142Y008326D01*
X018142Y008380D02*
X018758Y008380D01*
X018758Y008434D02*
X018142Y008434D01*
X018142Y008488D02*
X018758Y008488D01*
X018758Y008542D02*
X018142Y008542D01*
X018142Y008596D02*
X018758Y008596D01*
X018758Y008650D02*
X018142Y008650D01*
X018142Y008704D02*
X018758Y008704D01*
X018142Y007181D02*
X018142Y006683D01*
X018142Y007181D02*
X018758Y007181D01*
X018758Y006683D01*
X018142Y006683D01*
X018142Y006737D02*
X018758Y006737D01*
X018758Y006791D02*
X018142Y006791D01*
X018142Y006845D02*
X018758Y006845D01*
X018758Y006899D02*
X018142Y006899D01*
X018142Y006953D02*
X018758Y006953D01*
X018758Y007007D02*
X018142Y007007D01*
X018142Y007061D02*
X018758Y007061D01*
X018758Y007115D02*
X018142Y007115D01*
X018142Y007169D02*
X018758Y007169D01*
X018142Y006393D02*
X018142Y005895D01*
X018142Y006393D02*
X018758Y006393D01*
X018758Y005895D01*
X018142Y005895D01*
X018142Y005949D02*
X018758Y005949D01*
X018758Y006003D02*
X018142Y006003D01*
X018142Y006057D02*
X018758Y006057D01*
X018758Y006111D02*
X018142Y006111D01*
X018142Y006165D02*
X018758Y006165D01*
X018758Y006219D02*
X018142Y006219D01*
X018142Y006273D02*
X018758Y006273D01*
X018758Y006327D02*
X018142Y006327D01*
X018142Y006381D02*
X018758Y006381D01*
X017419Y006393D02*
X017419Y005895D01*
X016803Y005895D01*
X016803Y006393D01*
X017419Y006393D01*
X017419Y005949D02*
X016803Y005949D01*
X016803Y006003D02*
X017419Y006003D01*
X017419Y006057D02*
X016803Y006057D01*
X016803Y006111D02*
X017419Y006111D01*
X017419Y006165D02*
X016803Y006165D01*
X016803Y006219D02*
X017419Y006219D01*
X017419Y006273D02*
X016803Y006273D01*
X016803Y006327D02*
X017419Y006327D01*
X017419Y006381D02*
X016803Y006381D01*
X017419Y006683D02*
X017419Y007181D01*
X017419Y006683D02*
X016803Y006683D01*
X016803Y007181D01*
X017419Y007181D01*
X017419Y006737D02*
X016803Y006737D01*
X016803Y006791D02*
X017419Y006791D01*
X017419Y006845D02*
X016803Y006845D01*
X016803Y006899D02*
X017419Y006899D01*
X017419Y006953D02*
X016803Y006953D01*
X016803Y007007D02*
X017419Y007007D01*
X017419Y007061D02*
X016803Y007061D01*
X016803Y007115D02*
X017419Y007115D01*
X017419Y007169D02*
X016803Y007169D01*
X016803Y007470D02*
X016803Y007968D01*
X017419Y007968D01*
X017419Y007470D01*
X016803Y007470D01*
X016803Y007524D02*
X017419Y007524D01*
X017419Y007578D02*
X016803Y007578D01*
X016803Y007632D02*
X017419Y007632D01*
X017419Y007686D02*
X016803Y007686D01*
X016803Y007740D02*
X017419Y007740D01*
X017419Y007794D02*
X016803Y007794D01*
X016803Y007848D02*
X017419Y007848D01*
X017419Y007902D02*
X016803Y007902D01*
X016803Y007956D02*
X017419Y007956D01*
X016803Y008258D02*
X016803Y008756D01*
X017419Y008756D01*
X017419Y008258D01*
X016803Y008258D01*
X016803Y008312D02*
X017419Y008312D01*
X017419Y008366D02*
X016803Y008366D01*
X016803Y008420D02*
X017419Y008420D01*
X017419Y008474D02*
X016803Y008474D01*
X016803Y008528D02*
X017419Y008528D01*
X017419Y008582D02*
X016803Y008582D01*
X016803Y008636D02*
X017419Y008636D01*
X017419Y008690D02*
X016803Y008690D01*
X016803Y008744D02*
X017419Y008744D01*
X016410Y009006D02*
X016410Y009504D01*
X017026Y009504D01*
X017026Y009006D01*
X016410Y009006D01*
X016410Y009060D02*
X017026Y009060D01*
X017026Y009114D02*
X016410Y009114D01*
X016410Y009168D02*
X017026Y009168D01*
X017026Y009222D02*
X016410Y009222D01*
X016410Y009276D02*
X017026Y009276D01*
X017026Y009330D02*
X016410Y009330D01*
X016410Y009384D02*
X017026Y009384D01*
X017026Y009438D02*
X016410Y009438D01*
X016410Y009492D02*
X017026Y009492D01*
X016410Y009793D02*
X016410Y010291D01*
X017026Y010291D01*
X017026Y009793D01*
X016410Y009793D01*
X016410Y009847D02*
X017026Y009847D01*
X017026Y009901D02*
X016410Y009901D01*
X016410Y009955D02*
X017026Y009955D01*
X017026Y010009D02*
X016410Y010009D01*
X016410Y010063D02*
X017026Y010063D01*
X017026Y010117D02*
X016410Y010117D01*
X016410Y010171D02*
X017026Y010171D01*
X017026Y010225D02*
X016410Y010225D01*
X016410Y010279D02*
X017026Y010279D01*
X015845Y010291D02*
X015845Y009793D01*
X015229Y009793D01*
X015229Y010291D01*
X015845Y010291D01*
X015845Y009847D02*
X015229Y009847D01*
X015229Y009901D02*
X015845Y009901D01*
X015845Y009955D02*
X015229Y009955D01*
X015229Y010009D02*
X015845Y010009D01*
X015845Y010063D02*
X015229Y010063D01*
X015229Y010117D02*
X015845Y010117D01*
X015845Y010171D02*
X015229Y010171D01*
X015229Y010225D02*
X015845Y010225D01*
X015845Y010279D02*
X015229Y010279D01*
X015845Y009504D02*
X015845Y009006D01*
X015229Y009006D01*
X015229Y009504D01*
X015845Y009504D01*
X015845Y009060D02*
X015229Y009060D01*
X015229Y009114D02*
X015845Y009114D01*
X015845Y009168D02*
X015229Y009168D01*
X015229Y009222D02*
X015845Y009222D01*
X015845Y009276D02*
X015229Y009276D01*
X015229Y009330D02*
X015845Y009330D01*
X015845Y009384D02*
X015229Y009384D01*
X015229Y009438D02*
X015845Y009438D01*
X015845Y009492D02*
X015229Y009492D01*
X015845Y008756D02*
X015845Y008258D01*
X015229Y008258D01*
X015229Y008756D01*
X015845Y008756D01*
X015845Y008312D02*
X015229Y008312D01*
X015229Y008366D02*
X015845Y008366D01*
X015845Y008420D02*
X015229Y008420D01*
X015229Y008474D02*
X015845Y008474D01*
X015845Y008528D02*
X015229Y008528D01*
X015229Y008582D02*
X015845Y008582D01*
X015845Y008636D02*
X015229Y008636D01*
X015229Y008690D02*
X015845Y008690D01*
X015845Y008744D02*
X015229Y008744D01*
X015845Y007968D02*
X015845Y007470D01*
X015229Y007470D01*
X015229Y007968D01*
X015845Y007968D01*
X015845Y007524D02*
X015229Y007524D01*
X015229Y007578D02*
X015845Y007578D01*
X015845Y007632D02*
X015229Y007632D01*
X015229Y007686D02*
X015845Y007686D01*
X015845Y007740D02*
X015229Y007740D01*
X015229Y007794D02*
X015845Y007794D01*
X015845Y007848D02*
X015229Y007848D01*
X015229Y007902D02*
X015845Y007902D01*
X015845Y007956D02*
X015229Y007956D01*
X015057Y007968D02*
X015057Y007470D01*
X014441Y007470D01*
X014441Y007968D01*
X015057Y007968D01*
X015057Y007524D02*
X014441Y007524D01*
X014441Y007578D02*
X015057Y007578D01*
X015057Y007632D02*
X014441Y007632D01*
X014441Y007686D02*
X015057Y007686D01*
X015057Y007740D02*
X014441Y007740D01*
X014441Y007794D02*
X015057Y007794D01*
X015057Y007848D02*
X014441Y007848D01*
X014441Y007902D02*
X015057Y007902D01*
X015057Y007956D02*
X014441Y007956D01*
X015057Y007181D02*
X015057Y006683D01*
X014441Y006683D01*
X014441Y007181D01*
X015057Y007181D01*
X015057Y006737D02*
X014441Y006737D01*
X014441Y006791D02*
X015057Y006791D01*
X015057Y006845D02*
X014441Y006845D01*
X014441Y006899D02*
X015057Y006899D01*
X015057Y006953D02*
X014441Y006953D01*
X014441Y007007D02*
X015057Y007007D01*
X015057Y007061D02*
X014441Y007061D01*
X014441Y007115D02*
X015057Y007115D01*
X015057Y007169D02*
X014441Y007169D01*
X015845Y007181D02*
X015845Y006683D01*
X015229Y006683D01*
X015229Y007181D01*
X015845Y007181D01*
X015845Y006737D02*
X015229Y006737D01*
X015229Y006791D02*
X015845Y006791D01*
X015845Y006845D02*
X015229Y006845D01*
X015229Y006899D02*
X015845Y006899D01*
X015845Y006953D02*
X015229Y006953D01*
X015229Y007007D02*
X015845Y007007D01*
X015845Y007061D02*
X015229Y007061D01*
X015229Y007115D02*
X015845Y007115D01*
X015845Y007169D02*
X015229Y007169D01*
X015845Y006393D02*
X015845Y005895D01*
X015229Y005895D01*
X015229Y006393D01*
X015845Y006393D01*
X015845Y005949D02*
X015229Y005949D01*
X015229Y006003D02*
X015845Y006003D01*
X015845Y006057D02*
X015229Y006057D01*
X015229Y006111D02*
X015845Y006111D01*
X015845Y006165D02*
X015229Y006165D01*
X015229Y006219D02*
X015845Y006219D01*
X015845Y006273D02*
X015229Y006273D01*
X015229Y006327D02*
X015845Y006327D01*
X015845Y006381D02*
X015229Y006381D01*
D18*
X012463Y003425D02*
X012463Y003195D01*
X012253Y003195D01*
X012253Y003425D01*
X012463Y003425D01*
X012463Y003240D02*
X012253Y003240D01*
X012253Y003285D02*
X012463Y003285D01*
X012463Y003330D02*
X012253Y003330D01*
X012253Y003375D02*
X012463Y003375D01*
X012463Y003420D02*
X012253Y003420D01*
X011734Y003451D02*
X011734Y003681D01*
X011734Y003451D02*
X011524Y003451D01*
X011524Y003681D01*
X011734Y003681D01*
X011734Y003496D02*
X011524Y003496D01*
X011524Y003541D02*
X011734Y003541D01*
X011734Y003586D02*
X011524Y003586D01*
X011524Y003631D02*
X011734Y003631D01*
X011734Y003676D02*
X011524Y003676D01*
X011734Y003169D02*
X011734Y002939D01*
X011524Y002939D01*
X011524Y003169D01*
X011734Y003169D01*
X011734Y002984D02*
X011524Y002984D01*
X011524Y003029D02*
X011734Y003029D01*
X011734Y003074D02*
X011524Y003074D01*
X011524Y003119D02*
X011734Y003119D01*
X011734Y003164D02*
X011524Y003164D01*
X006931Y006758D02*
X006701Y006758D01*
X006701Y006968D01*
X006931Y006968D01*
X006931Y006758D01*
X006931Y006803D02*
X006701Y006803D01*
X006701Y006848D02*
X006931Y006848D01*
X006931Y006893D02*
X006701Y006893D01*
X006701Y006938D02*
X006931Y006938D01*
X006419Y006758D02*
X006189Y006758D01*
X006189Y006968D01*
X006419Y006968D01*
X006419Y006758D01*
X006419Y006803D02*
X006189Y006803D01*
X006189Y006848D02*
X006419Y006848D01*
X006419Y006893D02*
X006189Y006893D01*
X006189Y006938D02*
X006419Y006938D01*
X006445Y006030D02*
X006675Y006030D01*
X006445Y006030D02*
X006445Y006240D01*
X006675Y006240D01*
X006675Y006030D01*
X006675Y006075D02*
X006445Y006075D01*
X006445Y006120D02*
X006675Y006120D01*
X006675Y006165D02*
X006445Y006165D01*
X006445Y006210D02*
X006675Y006210D01*
X016386Y011246D02*
X016616Y011246D01*
X016386Y011246D02*
X016386Y011456D01*
X016616Y011456D01*
X016616Y011246D01*
X016616Y011291D02*
X016386Y011291D01*
X016386Y011336D02*
X016616Y011336D01*
X016616Y011381D02*
X016386Y011381D01*
X016386Y011426D02*
X016616Y011426D01*
X016898Y011246D02*
X017128Y011246D01*
X016898Y011246D02*
X016898Y011456D01*
X017128Y011456D01*
X017128Y011246D01*
X017128Y011291D02*
X016898Y011291D01*
X016898Y011336D02*
X017128Y011336D01*
X017128Y011381D02*
X016898Y011381D01*
X016898Y011426D02*
X017128Y011426D01*
X017522Y011561D02*
X017522Y011791D01*
X017522Y011561D02*
X017312Y011561D01*
X017312Y011791D01*
X017522Y011791D01*
X017522Y011606D02*
X017312Y011606D01*
X017312Y011651D02*
X017522Y011651D01*
X017522Y011696D02*
X017312Y011696D01*
X017312Y011741D02*
X017522Y011741D01*
X017522Y011786D02*
X017312Y011786D01*
X017522Y011279D02*
X017522Y011049D01*
X017312Y011049D01*
X017312Y011279D01*
X017522Y011279D01*
X017522Y011094D02*
X017312Y011094D01*
X017312Y011139D02*
X017522Y011139D01*
X017522Y011184D02*
X017312Y011184D01*
X017312Y011229D02*
X017522Y011229D01*
X017522Y011274D02*
X017312Y011274D01*
X016872Y010518D02*
X016642Y010518D01*
X016642Y010728D01*
X016872Y010728D01*
X016872Y010518D01*
X016872Y010563D02*
X016642Y010563D01*
X016642Y010608D02*
X016872Y010608D01*
X016872Y010653D02*
X016642Y010653D01*
X016642Y010698D02*
X016872Y010698D01*
X018250Y011305D02*
X018250Y011535D01*
X018250Y011305D02*
X018040Y011305D01*
X018040Y011535D01*
X018250Y011535D01*
X018250Y011350D02*
X018040Y011350D01*
X018040Y011395D02*
X018250Y011395D01*
X018250Y011440D02*
X018040Y011440D01*
X018040Y011485D02*
X018250Y011485D01*
X018250Y011530D02*
X018040Y011530D01*
X021130Y008228D02*
X021130Y007998D01*
X021130Y008228D02*
X021340Y008228D01*
X021340Y007998D01*
X021130Y007998D01*
X021130Y008043D02*
X021340Y008043D01*
X021340Y008088D02*
X021130Y008088D01*
X021130Y008133D02*
X021340Y008133D01*
X021340Y008178D02*
X021130Y008178D01*
X021130Y008223D02*
X021340Y008223D01*
X021859Y008254D02*
X021859Y008484D01*
X022069Y008484D01*
X022069Y008254D01*
X021859Y008254D01*
X021859Y008299D02*
X022069Y008299D01*
X022069Y008344D02*
X021859Y008344D01*
X021859Y008389D02*
X022069Y008389D01*
X022069Y008434D02*
X021859Y008434D01*
X021859Y008479D02*
X022069Y008479D01*
X021859Y007972D02*
X021859Y007742D01*
X021859Y007972D02*
X022069Y007972D01*
X022069Y007742D01*
X021859Y007742D01*
X021859Y007787D02*
X022069Y007787D01*
X022069Y007832D02*
X021859Y007832D01*
X021859Y007877D02*
X022069Y007877D01*
X022069Y007922D02*
X021859Y007922D01*
X021859Y007967D02*
X022069Y007967D01*
X022600Y007972D02*
X022600Y007742D01*
X022390Y007742D01*
X022390Y007972D01*
X022600Y007972D01*
X022600Y007787D02*
X022390Y007787D01*
X022390Y007832D02*
X022600Y007832D01*
X022600Y007877D02*
X022390Y007877D01*
X022390Y007922D02*
X022600Y007922D01*
X022600Y007967D02*
X022390Y007967D01*
X022600Y007460D02*
X022600Y007230D01*
X022390Y007230D01*
X022390Y007460D01*
X022600Y007460D01*
X022600Y007275D02*
X022390Y007275D01*
X022390Y007320D02*
X022600Y007320D01*
X022600Y007365D02*
X022390Y007365D01*
X022390Y007410D02*
X022600Y007410D01*
X022600Y007455D02*
X022390Y007455D01*
X022528Y006797D02*
X022758Y006797D01*
X022528Y006797D02*
X022528Y007007D01*
X022758Y007007D01*
X022758Y006797D01*
X022758Y006842D02*
X022528Y006842D01*
X022528Y006887D02*
X022758Y006887D01*
X022758Y006932D02*
X022528Y006932D01*
X022528Y006977D02*
X022758Y006977D01*
X023040Y006797D02*
X023270Y006797D01*
X023040Y006797D02*
X023040Y007007D01*
X023270Y007007D01*
X023270Y006797D01*
X023270Y006842D02*
X023040Y006842D01*
X023040Y006887D02*
X023270Y006887D01*
X023270Y006932D02*
X023040Y006932D01*
X023040Y006977D02*
X023270Y006977D01*
X023329Y007486D02*
X023329Y007716D01*
X023329Y007486D02*
X023119Y007486D01*
X023119Y007716D01*
X023329Y007716D01*
X023329Y007531D02*
X023119Y007531D01*
X023119Y007576D02*
X023329Y007576D01*
X023329Y007621D02*
X023119Y007621D01*
X023119Y007666D02*
X023329Y007666D01*
X023329Y007711D02*
X023119Y007711D01*
X023014Y006069D02*
X022784Y006069D01*
X022784Y006279D01*
X023014Y006279D01*
X023014Y006069D01*
X023014Y006114D02*
X022784Y006114D01*
X022784Y006159D02*
X023014Y006159D01*
X023014Y006204D02*
X022784Y006204D01*
X022784Y006249D02*
X023014Y006249D01*
X024300Y006246D02*
X024530Y006246D01*
X024300Y006246D02*
X024300Y006456D01*
X024530Y006456D01*
X024530Y006246D01*
X024530Y006291D02*
X024300Y006291D01*
X024300Y006336D02*
X024530Y006336D01*
X024530Y006381D02*
X024300Y006381D01*
X024300Y006426D02*
X024530Y006426D01*
X024811Y006246D02*
X025041Y006246D01*
X024811Y006246D02*
X024811Y006456D01*
X025041Y006456D01*
X025041Y006246D01*
X025041Y006291D02*
X024811Y006291D01*
X024811Y006336D02*
X025041Y006336D01*
X025041Y006381D02*
X024811Y006381D01*
X024811Y006426D02*
X025041Y006426D01*
X024786Y005518D02*
X024556Y005518D01*
X024556Y005728D01*
X024786Y005728D01*
X024786Y005518D01*
X024786Y005563D02*
X024556Y005563D01*
X024556Y005608D02*
X024786Y005608D01*
X024786Y005653D02*
X024556Y005653D01*
X024556Y005698D02*
X024786Y005698D01*
X024963Y005295D02*
X024963Y005065D01*
X024753Y005065D01*
X024753Y005295D01*
X024963Y005295D01*
X024963Y005110D02*
X024753Y005110D01*
X024753Y005155D02*
X024963Y005155D01*
X024963Y005200D02*
X024753Y005200D01*
X024753Y005245D02*
X024963Y005245D01*
X024963Y005290D02*
X024753Y005290D01*
X024963Y004783D02*
X024963Y004553D01*
X024753Y004553D01*
X024753Y004783D01*
X024963Y004783D01*
X024963Y004598D02*
X024753Y004598D01*
X024753Y004643D02*
X024963Y004643D01*
X024963Y004688D02*
X024753Y004688D01*
X024753Y004733D02*
X024963Y004733D01*
X024963Y004778D02*
X024753Y004778D01*
X025691Y004809D02*
X025691Y005039D01*
X025691Y004809D02*
X025481Y004809D01*
X025481Y005039D01*
X025691Y005039D01*
X025691Y004854D02*
X025481Y004854D01*
X025481Y004899D02*
X025691Y004899D01*
X025691Y004944D02*
X025481Y004944D01*
X025481Y004989D02*
X025691Y004989D01*
X025691Y005034D02*
X025481Y005034D01*
X024136Y003169D02*
X023906Y003169D01*
X024136Y003169D02*
X024136Y002959D01*
X023906Y002959D01*
X023906Y003169D01*
X023906Y003004D02*
X024136Y003004D01*
X024136Y003049D02*
X023906Y003049D01*
X023906Y003094D02*
X024136Y003094D01*
X024136Y003139D02*
X023906Y003139D01*
X023624Y003169D02*
X023394Y003169D01*
X023624Y003169D02*
X023624Y002959D01*
X023394Y002959D01*
X023394Y003169D01*
X023394Y003004D02*
X023624Y003004D01*
X023624Y003049D02*
X023394Y003049D01*
X023394Y003094D02*
X023624Y003094D01*
X023624Y003139D02*
X023394Y003139D01*
X023650Y003897D02*
X023880Y003897D01*
X023880Y003687D01*
X023650Y003687D01*
X023650Y003897D01*
X023650Y003732D02*
X023880Y003732D01*
X023880Y003777D02*
X023650Y003777D01*
X023650Y003822D02*
X023880Y003822D01*
X023880Y003867D02*
X023650Y003867D01*
X018650Y033254D02*
X018650Y033484D01*
X018860Y033484D01*
X018860Y033254D01*
X018650Y033254D01*
X018650Y033299D02*
X018860Y033299D01*
X018860Y033344D02*
X018650Y033344D01*
X018650Y033389D02*
X018860Y033389D01*
X018860Y033434D02*
X018650Y033434D01*
X018650Y033479D02*
X018860Y033479D01*
X018650Y033766D02*
X018650Y033996D01*
X018860Y033996D01*
X018860Y033766D01*
X018650Y033766D01*
X018650Y033811D02*
X018860Y033811D01*
X018860Y033856D02*
X018650Y033856D01*
X018650Y033901D02*
X018860Y033901D01*
X018860Y033946D02*
X018650Y033946D01*
X018650Y033991D02*
X018860Y033991D01*
X017922Y033740D02*
X017922Y033510D01*
X017922Y033740D02*
X018132Y033740D01*
X018132Y033510D01*
X017922Y033510D01*
X017922Y033555D02*
X018132Y033555D01*
X018132Y033600D02*
X017922Y033600D01*
X017922Y033645D02*
X018132Y033645D01*
X018132Y033690D02*
X017922Y033690D01*
X017922Y033735D02*
X018132Y033735D01*
D19*
X025072Y034529D02*
X025368Y034529D01*
X025368Y033933D01*
X025072Y033933D01*
X025072Y034529D01*
X025072Y033976D02*
X025368Y033976D01*
X025368Y034019D02*
X025072Y034019D01*
X025072Y034062D02*
X025368Y034062D01*
X025368Y034105D02*
X025072Y034105D01*
X025072Y034148D02*
X025368Y034148D01*
X025368Y034191D02*
X025072Y034191D01*
X025072Y034234D02*
X025368Y034234D01*
X025368Y034277D02*
X025072Y034277D01*
X025072Y034320D02*
X025368Y034320D01*
X025368Y034363D02*
X025072Y034363D01*
X025072Y034406D02*
X025368Y034406D01*
X025368Y034449D02*
X025072Y034449D01*
X025072Y034492D02*
X025368Y034492D01*
X026572Y034529D02*
X026868Y034529D01*
X026868Y033933D01*
X026572Y033933D01*
X026572Y034529D01*
X026572Y033976D02*
X026868Y033976D01*
X026868Y034019D02*
X026572Y034019D01*
X026572Y034062D02*
X026868Y034062D01*
X026868Y034105D02*
X026572Y034105D01*
X026572Y034148D02*
X026868Y034148D01*
X026868Y034191D02*
X026572Y034191D01*
X026572Y034234D02*
X026868Y034234D01*
X026868Y034277D02*
X026572Y034277D01*
X026572Y034320D02*
X026868Y034320D01*
X026868Y034363D02*
X026572Y034363D01*
X026572Y034406D02*
X026868Y034406D01*
X026868Y034449D02*
X026572Y034449D01*
X026572Y034492D02*
X026868Y034492D01*
X026868Y032529D02*
X026572Y032529D01*
X026868Y032529D02*
X026868Y031933D01*
X026572Y031933D01*
X026572Y032529D01*
X026572Y031976D02*
X026868Y031976D01*
X026868Y032019D02*
X026572Y032019D01*
X026572Y032062D02*
X026868Y032062D01*
X026868Y032105D02*
X026572Y032105D01*
X026572Y032148D02*
X026868Y032148D01*
X026868Y032191D02*
X026572Y032191D01*
X026572Y032234D02*
X026868Y032234D01*
X026868Y032277D02*
X026572Y032277D01*
X026572Y032320D02*
X026868Y032320D01*
X026868Y032363D02*
X026572Y032363D01*
X026572Y032406D02*
X026868Y032406D01*
X026868Y032449D02*
X026572Y032449D01*
X026572Y032492D02*
X026868Y032492D01*
X025368Y032529D02*
X025072Y032529D01*
X025368Y032529D02*
X025368Y031933D01*
X025072Y031933D01*
X025072Y032529D01*
X025072Y031976D02*
X025368Y031976D01*
X025368Y032019D02*
X025072Y032019D01*
X025072Y032062D02*
X025368Y032062D01*
X025368Y032105D02*
X025072Y032105D01*
X025072Y032148D02*
X025368Y032148D01*
X025368Y032191D02*
X025072Y032191D01*
X025072Y032234D02*
X025368Y032234D01*
X025368Y032277D02*
X025072Y032277D01*
X025072Y032320D02*
X025368Y032320D01*
X025368Y032363D02*
X025072Y032363D01*
X025072Y032406D02*
X025368Y032406D01*
X025368Y032449D02*
X025072Y032449D01*
X025072Y032492D02*
X025368Y032492D01*
D20*
X004277Y002601D03*
X026639Y001420D03*
X012269Y039137D03*
D21*
X005041Y032770D03*
X005041Y031770D03*
X007308Y027034D03*
X007308Y026034D03*
X007308Y025034D03*
X007308Y024034D03*
X003135Y019137D03*
X003135Y018137D03*
X024041Y031770D03*
X024041Y032770D03*
X027151Y031223D03*
X027151Y030223D03*
X027151Y029223D03*
X027151Y028223D03*
X027151Y027223D03*
X027151Y026223D03*
D22*
X023760Y036071D02*
X023298Y036071D01*
X023298Y037635D01*
X023760Y037635D01*
X023760Y036071D01*
X023760Y036121D02*
X023298Y036121D01*
X023298Y036171D02*
X023760Y036171D01*
X023760Y036221D02*
X023298Y036221D01*
X023298Y036271D02*
X023760Y036271D01*
X023760Y036321D02*
X023298Y036321D01*
X023298Y036371D02*
X023760Y036371D01*
X023760Y036421D02*
X023298Y036421D01*
X023298Y036471D02*
X023760Y036471D01*
X023760Y036521D02*
X023298Y036521D01*
X023298Y036571D02*
X023760Y036571D01*
X023760Y036621D02*
X023298Y036621D01*
X023298Y036671D02*
X023760Y036671D01*
X023760Y036721D02*
X023298Y036721D01*
X023298Y036771D02*
X023760Y036771D01*
X023760Y036821D02*
X023298Y036821D01*
X023298Y036871D02*
X023760Y036871D01*
X023760Y036921D02*
X023298Y036921D01*
X023298Y036971D02*
X023760Y036971D01*
X023760Y037021D02*
X023298Y037021D01*
X023298Y037071D02*
X023760Y037071D01*
X023760Y037121D02*
X023298Y037121D01*
X023298Y037171D02*
X023760Y037171D01*
X023760Y037221D02*
X023298Y037221D01*
X023298Y037271D02*
X023760Y037271D01*
X023760Y037321D02*
X023298Y037321D01*
X023298Y037371D02*
X023760Y037371D01*
X023760Y037421D02*
X023298Y037421D01*
X023298Y037471D02*
X023760Y037471D01*
X023760Y037521D02*
X023298Y037521D01*
X023298Y037571D02*
X023760Y037571D01*
X023760Y037621D02*
X023298Y037621D01*
X019350Y036071D02*
X018888Y036071D01*
X018888Y037635D01*
X019350Y037635D01*
X019350Y036071D01*
X019350Y036121D02*
X018888Y036121D01*
X018888Y036171D02*
X019350Y036171D01*
X019350Y036221D02*
X018888Y036221D01*
X018888Y036271D02*
X019350Y036271D01*
X019350Y036321D02*
X018888Y036321D01*
X018888Y036371D02*
X019350Y036371D01*
X019350Y036421D02*
X018888Y036421D01*
X018888Y036471D02*
X019350Y036471D01*
X019350Y036521D02*
X018888Y036521D01*
X018888Y036571D02*
X019350Y036571D01*
X019350Y036621D02*
X018888Y036621D01*
X018888Y036671D02*
X019350Y036671D01*
X019350Y036721D02*
X018888Y036721D01*
X018888Y036771D02*
X019350Y036771D01*
X019350Y036821D02*
X018888Y036821D01*
X018888Y036871D02*
X019350Y036871D01*
X019350Y036921D02*
X018888Y036921D01*
X018888Y036971D02*
X019350Y036971D01*
X019350Y037021D02*
X018888Y037021D01*
X018888Y037071D02*
X019350Y037071D01*
X019350Y037121D02*
X018888Y037121D01*
X018888Y037171D02*
X019350Y037171D01*
X019350Y037221D02*
X018888Y037221D01*
X018888Y037271D02*
X019350Y037271D01*
X019350Y037321D02*
X018888Y037321D01*
X018888Y037371D02*
X019350Y037371D01*
X019350Y037421D02*
X018888Y037421D01*
X018888Y037471D02*
X019350Y037471D01*
X019350Y037521D02*
X018888Y037521D01*
X018888Y037571D02*
X019350Y037571D01*
X019350Y037621D02*
X018888Y037621D01*
D23*
X004366Y034512D02*
X004366Y033938D01*
X003852Y033938D01*
X003852Y034512D01*
X004366Y034512D01*
X004366Y033994D02*
X003852Y033994D01*
X003852Y034050D02*
X004366Y034050D01*
X004366Y034106D02*
X003852Y034106D01*
X003852Y034162D02*
X004366Y034162D01*
X004366Y034218D02*
X003852Y034218D01*
X003852Y034274D02*
X004366Y034274D01*
X004366Y034330D02*
X003852Y034330D01*
X003852Y034386D02*
X004366Y034386D01*
X004366Y034442D02*
X003852Y034442D01*
X003852Y034498D02*
X004366Y034498D01*
X003973Y039312D02*
X003973Y039886D01*
X003973Y039312D02*
X003459Y039312D01*
X003459Y039886D01*
X003973Y039886D01*
X003973Y039368D02*
X003459Y039368D01*
X003459Y039424D02*
X003973Y039424D01*
X003973Y039480D02*
X003459Y039480D01*
X003459Y039536D02*
X003973Y039536D01*
X003973Y039592D02*
X003459Y039592D01*
X003459Y039648D02*
X003973Y039648D01*
X003973Y039704D02*
X003459Y039704D01*
X003459Y039760D02*
X003973Y039760D01*
X003973Y039816D02*
X003459Y039816D01*
X003459Y039872D02*
X003973Y039872D01*
D24*
X005496Y034440D02*
X005496Y033892D01*
X005104Y033892D01*
X005104Y034440D01*
X005496Y034440D01*
X005496Y033934D02*
X005104Y033934D01*
X005104Y033976D02*
X005496Y033976D01*
X005496Y034018D02*
X005104Y034018D01*
X005104Y034060D02*
X005496Y034060D01*
X005496Y034102D02*
X005104Y034102D01*
X005104Y034144D02*
X005496Y034144D01*
X005496Y034186D02*
X005104Y034186D01*
X005104Y034228D02*
X005496Y034228D01*
X005496Y034270D02*
X005104Y034270D01*
X005104Y034312D02*
X005496Y034312D01*
X005496Y034354D02*
X005104Y034354D01*
X005104Y034396D02*
X005496Y034396D01*
X005496Y034438D02*
X005104Y034438D01*
X010378Y034589D02*
X010378Y034197D01*
X009868Y034197D01*
X009868Y034589D01*
X010378Y034589D01*
X010378Y034239D02*
X009868Y034239D01*
X009868Y034281D02*
X010378Y034281D01*
X010378Y034323D02*
X009868Y034323D01*
X009868Y034365D02*
X010378Y034365D01*
X010378Y034407D02*
X009868Y034407D01*
X009868Y034449D02*
X010378Y034449D01*
X010378Y034491D02*
X009868Y034491D01*
X009868Y034533D02*
X010378Y034533D01*
X010378Y034575D02*
X009868Y034575D01*
X010260Y020513D02*
X010260Y020043D01*
X009868Y020043D01*
X009868Y020513D01*
X010260Y020513D01*
X010260Y020085D02*
X009868Y020085D01*
X009868Y020127D02*
X010260Y020127D01*
X010260Y020169D02*
X009868Y020169D01*
X009868Y020211D02*
X010260Y020211D01*
X010260Y020253D02*
X009868Y020253D01*
X009868Y020295D02*
X010260Y020295D01*
X010260Y020337D02*
X009868Y020337D01*
X009868Y020379D02*
X010260Y020379D01*
X010260Y020421D02*
X009868Y020421D01*
X009868Y020463D02*
X010260Y020463D01*
X010260Y020505D02*
X009868Y020505D01*
X009630Y020513D02*
X009630Y020043D01*
X009238Y020043D01*
X009238Y020513D01*
X009630Y020513D01*
X009630Y020085D02*
X009238Y020085D01*
X009238Y020127D02*
X009630Y020127D01*
X009630Y020169D02*
X009238Y020169D01*
X009238Y020211D02*
X009630Y020211D01*
X009630Y020253D02*
X009238Y020253D01*
X009238Y020295D02*
X009630Y020295D01*
X009630Y020337D02*
X009238Y020337D01*
X009238Y020379D02*
X009630Y020379D01*
X009630Y020421D02*
X009238Y020421D01*
X009238Y020463D02*
X009630Y020463D01*
X009630Y020505D02*
X009238Y020505D01*
X009630Y019647D02*
X009630Y019177D01*
X009238Y019177D01*
X009238Y019647D01*
X009630Y019647D01*
X009630Y019219D02*
X009238Y019219D01*
X009238Y019261D02*
X009630Y019261D01*
X009630Y019303D02*
X009238Y019303D01*
X009238Y019345D02*
X009630Y019345D01*
X009630Y019387D02*
X009238Y019387D01*
X009238Y019429D02*
X009630Y019429D01*
X009630Y019471D02*
X009238Y019471D01*
X009238Y019513D02*
X009630Y019513D01*
X009630Y019555D02*
X009238Y019555D01*
X009238Y019597D02*
X009630Y019597D01*
X009630Y019639D02*
X009238Y019639D01*
X010260Y019647D02*
X010260Y019177D01*
X009868Y019177D01*
X009868Y019647D01*
X010260Y019647D01*
X010260Y019219D02*
X009868Y019219D01*
X009868Y019261D02*
X010260Y019261D01*
X010260Y019303D02*
X009868Y019303D01*
X009868Y019345D02*
X010260Y019345D01*
X010260Y019387D02*
X009868Y019387D01*
X009868Y019429D02*
X010260Y019429D01*
X010260Y019471D02*
X009868Y019471D01*
X009868Y019513D02*
X010260Y019513D01*
X010260Y019555D02*
X009868Y019555D01*
X009868Y019597D02*
X010260Y019597D01*
X010260Y019639D02*
X009868Y019639D01*
X021835Y020673D02*
X021835Y021143D01*
X021835Y020673D02*
X021443Y020673D01*
X021443Y021143D01*
X021835Y021143D01*
X021835Y020715D02*
X021443Y020715D01*
X021443Y020757D02*
X021835Y020757D01*
X021835Y020799D02*
X021443Y020799D01*
X021443Y020841D02*
X021835Y020841D01*
X021835Y020883D02*
X021443Y020883D01*
X021443Y020925D02*
X021835Y020925D01*
X021835Y020967D02*
X021443Y020967D01*
X021443Y021009D02*
X021835Y021009D01*
X021835Y021051D02*
X021443Y021051D01*
X021443Y021093D02*
X021835Y021093D01*
X021835Y021135D02*
X021443Y021135D01*
X021835Y021539D02*
X021835Y022009D01*
X021835Y021539D02*
X021443Y021539D01*
X021443Y022009D01*
X021835Y022009D01*
X021835Y021581D02*
X021443Y021581D01*
X021443Y021623D02*
X021835Y021623D01*
X021835Y021665D02*
X021443Y021665D01*
X021443Y021707D02*
X021835Y021707D01*
X021835Y021749D02*
X021443Y021749D01*
X021443Y021791D02*
X021835Y021791D01*
X021835Y021833D02*
X021443Y021833D01*
X021443Y021875D02*
X021835Y021875D01*
X021835Y021917D02*
X021443Y021917D01*
X021443Y021959D02*
X021835Y021959D01*
X021835Y022001D02*
X021443Y022001D01*
X022112Y021970D02*
X022112Y021500D01*
X022112Y021970D02*
X022504Y021970D01*
X022504Y021500D01*
X022112Y021500D01*
X022112Y021542D02*
X022504Y021542D01*
X022504Y021584D02*
X022112Y021584D01*
X022112Y021626D02*
X022504Y021626D01*
X022504Y021668D02*
X022112Y021668D01*
X022112Y021710D02*
X022504Y021710D01*
X022504Y021752D02*
X022112Y021752D01*
X022112Y021794D02*
X022504Y021794D01*
X022504Y021836D02*
X022112Y021836D01*
X022112Y021878D02*
X022504Y021878D01*
X022504Y021920D02*
X022112Y021920D01*
X022112Y021962D02*
X022504Y021962D01*
X022112Y021104D02*
X022112Y020634D01*
X022112Y021104D02*
X022504Y021104D01*
X022504Y020634D01*
X022112Y020634D01*
X022112Y020676D02*
X022504Y020676D01*
X022504Y020718D02*
X022112Y020718D01*
X022112Y020760D02*
X022504Y020760D01*
X022504Y020802D02*
X022112Y020802D01*
X022112Y020844D02*
X022504Y020844D01*
X022504Y020886D02*
X022112Y020886D01*
X022112Y020928D02*
X022504Y020928D01*
X022504Y020970D02*
X022112Y020970D01*
X022112Y021012D02*
X022504Y021012D01*
X022504Y021054D02*
X022112Y021054D01*
X022112Y021096D02*
X022504Y021096D01*
X021993Y011911D02*
X021993Y011519D01*
X021601Y011519D01*
X021601Y011911D01*
X021993Y011911D01*
X021993Y011561D02*
X021601Y011561D01*
X021601Y011603D02*
X021993Y011603D01*
X021993Y011645D02*
X021601Y011645D01*
X021601Y011687D02*
X021993Y011687D01*
X021993Y011729D02*
X021601Y011729D01*
X021601Y011771D02*
X021993Y011771D01*
X021993Y011813D02*
X021601Y011813D01*
X021601Y011855D02*
X021993Y011855D01*
X021993Y011897D02*
X021601Y011897D01*
X021993Y011124D02*
X021993Y010732D01*
X021601Y010732D01*
X021601Y011124D01*
X021993Y011124D01*
X021993Y010774D02*
X021601Y010774D01*
X021601Y010816D02*
X021993Y010816D01*
X021993Y010858D02*
X021601Y010858D01*
X021601Y010900D02*
X021993Y010900D01*
X021993Y010942D02*
X021601Y010942D01*
X021601Y010984D02*
X021993Y010984D01*
X021993Y011026D02*
X021601Y011026D01*
X021601Y011068D02*
X021993Y011068D01*
X021993Y011110D02*
X021601Y011110D01*
X021601Y010474D02*
X021601Y010082D01*
X021601Y010474D02*
X021993Y010474D01*
X021993Y010082D01*
X021601Y010082D01*
X021601Y010124D02*
X021993Y010124D01*
X021993Y010166D02*
X021601Y010166D01*
X021601Y010208D02*
X021993Y010208D01*
X021993Y010250D02*
X021601Y010250D01*
X021601Y010292D02*
X021993Y010292D01*
X021993Y010334D02*
X021601Y010334D01*
X021601Y010376D02*
X021993Y010376D01*
X021993Y010418D02*
X021601Y010418D01*
X021601Y010460D02*
X021993Y010460D01*
X021601Y009687D02*
X021601Y009295D01*
X021601Y009687D02*
X021993Y009687D01*
X021993Y009295D01*
X021601Y009295D01*
X021601Y009337D02*
X021993Y009337D01*
X021993Y009379D02*
X021601Y009379D01*
X021601Y009421D02*
X021993Y009421D01*
X021993Y009463D02*
X021601Y009463D01*
X021601Y009505D02*
X021993Y009505D01*
X021993Y009547D02*
X021601Y009547D01*
X021601Y009589D02*
X021993Y009589D01*
X021993Y009631D02*
X021601Y009631D01*
X021601Y009673D02*
X021993Y009673D01*
X022152Y009057D02*
X022544Y009057D01*
X022544Y008665D01*
X022152Y008665D01*
X022152Y009057D01*
X022152Y008707D02*
X022544Y008707D01*
X022544Y008749D02*
X022152Y008749D01*
X022152Y008791D02*
X022544Y008791D01*
X022544Y008833D02*
X022152Y008833D01*
X022152Y008875D02*
X022544Y008875D01*
X022544Y008917D02*
X022152Y008917D01*
X022152Y008959D02*
X022544Y008959D01*
X022544Y009001D02*
X022152Y009001D01*
X022152Y009043D02*
X022544Y009043D01*
X021756Y009057D02*
X021364Y009057D01*
X021756Y009057D02*
X021756Y008665D01*
X021364Y008665D01*
X021364Y009057D01*
X021364Y008707D02*
X021756Y008707D01*
X021756Y008749D02*
X021364Y008749D01*
X021364Y008791D02*
X021756Y008791D01*
X021756Y008833D02*
X021364Y008833D01*
X021364Y008875D02*
X021756Y008875D01*
X021756Y008917D02*
X021364Y008917D01*
X021364Y008959D02*
X021756Y008959D01*
X021756Y009001D02*
X021364Y009001D01*
X021364Y009043D02*
X021756Y009043D01*
D25*
X010435Y034780D02*
X010435Y035068D01*
X010435Y034780D02*
X009851Y034780D01*
X009851Y035068D01*
X010435Y035068D01*
X010435Y034826D02*
X009851Y034826D01*
X009851Y034872D02*
X010435Y034872D01*
X010435Y034918D02*
X009851Y034918D01*
X009851Y034964D02*
X010435Y034964D01*
X010435Y035010D02*
X009851Y035010D01*
X009851Y035056D02*
X010435Y035056D01*
X010435Y035213D02*
X010435Y035501D01*
X010435Y035213D02*
X009851Y035213D01*
X009851Y035501D01*
X010435Y035501D01*
X010435Y035259D02*
X009851Y035259D01*
X009851Y035305D02*
X010435Y035305D01*
X010435Y035351D02*
X009851Y035351D01*
X009851Y035397D02*
X010435Y035397D01*
X010435Y035443D02*
X009851Y035443D01*
X009851Y035489D02*
X010435Y035489D01*
X010435Y035646D02*
X010435Y035934D01*
X010435Y035646D02*
X009851Y035646D01*
X009851Y035934D01*
X010435Y035934D01*
X010435Y035692D02*
X009851Y035692D01*
X009851Y035738D02*
X010435Y035738D01*
X010435Y035784D02*
X009851Y035784D01*
X009851Y035830D02*
X010435Y035830D01*
X010435Y035876D02*
X009851Y035876D01*
X009851Y035922D02*
X010435Y035922D01*
X010435Y036079D02*
X010435Y036367D01*
X010435Y036079D02*
X009851Y036079D01*
X009851Y036367D01*
X010435Y036367D01*
X010435Y036125D02*
X009851Y036125D01*
X009851Y036171D02*
X010435Y036171D01*
X010435Y036217D02*
X009851Y036217D01*
X009851Y036263D02*
X010435Y036263D01*
X010435Y036309D02*
X009851Y036309D01*
X009851Y036355D02*
X010435Y036355D01*
X010435Y036512D02*
X010435Y036800D01*
X010435Y036512D02*
X009851Y036512D01*
X009851Y036800D01*
X010435Y036800D01*
X010435Y036558D02*
X009851Y036558D01*
X009851Y036604D02*
X010435Y036604D01*
X010435Y036650D02*
X009851Y036650D01*
X009851Y036696D02*
X010435Y036696D01*
X010435Y036742D02*
X009851Y036742D01*
X009851Y036788D02*
X010435Y036788D01*
X010435Y036945D02*
X010435Y037233D01*
X010435Y036945D02*
X009851Y036945D01*
X009851Y037233D01*
X010435Y037233D01*
X010435Y036991D02*
X009851Y036991D01*
X009851Y037037D02*
X010435Y037037D01*
X010435Y037083D02*
X009851Y037083D01*
X009851Y037129D02*
X010435Y037129D01*
X010435Y037175D02*
X009851Y037175D01*
X009851Y037221D02*
X010435Y037221D01*
X010435Y037378D02*
X010435Y037666D01*
X010435Y037378D02*
X009851Y037378D01*
X009851Y037666D01*
X010435Y037666D01*
X010435Y037424D02*
X009851Y037424D01*
X009851Y037470D02*
X010435Y037470D01*
X010435Y037516D02*
X009851Y037516D01*
X009851Y037562D02*
X010435Y037562D01*
X010435Y037608D02*
X009851Y037608D01*
X009851Y037654D02*
X010435Y037654D01*
X010435Y037812D02*
X010435Y038100D01*
X010435Y037812D02*
X009851Y037812D01*
X009851Y038100D01*
X010435Y038100D01*
X010435Y037858D02*
X009851Y037858D01*
X009851Y037904D02*
X010435Y037904D01*
X010435Y037950D02*
X009851Y037950D01*
X009851Y037996D02*
X010435Y037996D01*
X010435Y038042D02*
X009851Y038042D01*
X009851Y038088D02*
X010435Y038088D01*
D26*
X004828Y015160D03*
D27*
X009850Y005846D02*
X009850Y005616D01*
X009850Y005846D02*
X010120Y005846D01*
X010120Y005616D01*
X009850Y005616D01*
X009850Y005662D02*
X010120Y005662D01*
X010120Y005708D02*
X009850Y005708D01*
X009850Y005754D02*
X010120Y005754D01*
X010120Y005800D02*
X009850Y005800D01*
X009850Y005846D02*
X010120Y005846D01*
X009850Y005098D02*
X009850Y004868D01*
X009850Y005098D02*
X010120Y005098D01*
X010120Y004868D01*
X009850Y004868D01*
X009850Y004914D02*
X010120Y004914D01*
X010120Y004960D02*
X009850Y004960D01*
X009850Y005006D02*
X010120Y005006D01*
X010120Y005052D02*
X009850Y005052D01*
X009850Y005098D02*
X010120Y005098D01*
X009063Y005242D02*
X009063Y005472D01*
X009333Y005472D01*
X009333Y005242D01*
X009063Y005242D01*
X009063Y005288D02*
X009333Y005288D01*
X009333Y005334D02*
X009063Y005334D01*
X009063Y005380D02*
X009333Y005380D01*
X009333Y005426D02*
X009063Y005426D01*
X009063Y005472D02*
X009333Y005472D01*
X018782Y009947D02*
X018782Y010177D01*
X018782Y009947D02*
X018512Y009947D01*
X018512Y010177D01*
X018782Y010177D01*
X018782Y009993D02*
X018512Y009993D01*
X018512Y010039D02*
X018782Y010039D01*
X018782Y010085D02*
X018512Y010085D01*
X018512Y010131D02*
X018782Y010131D01*
X018782Y010177D02*
X018512Y010177D01*
X018782Y010695D02*
X018782Y010925D01*
X018782Y010695D02*
X018512Y010695D01*
X018512Y010925D01*
X018782Y010925D01*
X018782Y010741D02*
X018512Y010741D01*
X018512Y010787D02*
X018782Y010787D01*
X018782Y010833D02*
X018512Y010833D01*
X018512Y010879D02*
X018782Y010879D01*
X018782Y010925D02*
X018512Y010925D01*
X019569Y010551D02*
X019569Y010321D01*
X019299Y010321D01*
X019299Y010551D01*
X019569Y010551D01*
X019569Y010367D02*
X019299Y010367D01*
X019299Y010413D02*
X019569Y010413D01*
X019569Y010459D02*
X019299Y010459D01*
X019299Y010505D02*
X019569Y010505D01*
X019569Y010551D02*
X019299Y010551D01*
D28*
X015556Y013330D02*
X015320Y013330D01*
X015320Y013526D02*
X015556Y013526D01*
X015556Y013723D02*
X015320Y013723D01*
X015320Y013920D02*
X015556Y013920D01*
X015556Y014117D02*
X015320Y014117D01*
X015320Y014314D02*
X015556Y014314D01*
X015123Y014491D02*
X015123Y014747D01*
X014926Y014747D02*
X014926Y014491D01*
X014730Y014491D02*
X014730Y014747D01*
X014533Y014747D02*
X014533Y014491D01*
X014336Y014491D02*
X014336Y014747D01*
X014139Y014747D02*
X014139Y014491D01*
X013942Y014314D02*
X013706Y014314D01*
X013706Y014117D02*
X013942Y014117D01*
X013942Y013920D02*
X013706Y013920D01*
X013706Y013723D02*
X013942Y013723D01*
X013942Y013526D02*
X013706Y013526D01*
X013706Y013330D02*
X013942Y013330D01*
X014139Y013152D02*
X014139Y012896D01*
X014336Y012896D02*
X014336Y013152D01*
X014533Y013152D02*
X014533Y012896D01*
X014730Y012896D02*
X014730Y013152D01*
X014926Y013152D02*
X014926Y012896D01*
X015123Y012896D02*
X015123Y013152D01*
D29*
X023268Y011061D02*
X023268Y010913D01*
X022726Y010913D01*
X022726Y011061D01*
X023268Y011061D01*
X023268Y010961D02*
X022726Y010961D01*
X022726Y011009D02*
X023268Y011009D01*
X023268Y011057D02*
X022726Y011057D01*
X023268Y010805D02*
X023268Y010657D01*
X022726Y010657D01*
X022726Y010805D01*
X023268Y010805D01*
X023268Y010705D02*
X022726Y010705D01*
X022726Y010753D02*
X023268Y010753D01*
X023268Y010801D02*
X022726Y010801D01*
X023268Y010549D02*
X023268Y010401D01*
X022726Y010401D01*
X022726Y010549D01*
X023268Y010549D01*
X023268Y010449D02*
X022726Y010449D01*
X022726Y010497D02*
X023268Y010497D01*
X023268Y010545D02*
X022726Y010545D01*
X023268Y010293D02*
X023268Y010145D01*
X022726Y010145D01*
X022726Y010293D01*
X023268Y010293D01*
X023268Y010193D02*
X022726Y010193D01*
X022726Y010241D02*
X023268Y010241D01*
X023268Y010289D02*
X022726Y010289D01*
X023268Y010037D02*
X023268Y009889D01*
X022726Y009889D01*
X022726Y010037D01*
X023268Y010037D01*
X023268Y009937D02*
X022726Y009937D01*
X022726Y009985D02*
X023268Y009985D01*
X023268Y010033D02*
X022726Y010033D01*
D30*
X024474Y010357D02*
X024474Y009609D01*
X023764Y009609D01*
X023764Y010357D01*
X024474Y010357D01*
X024474Y009687D02*
X023764Y009687D01*
X023764Y009765D02*
X024474Y009765D01*
X024474Y009843D02*
X023764Y009843D01*
X023764Y009921D02*
X024474Y009921D01*
X024474Y009999D02*
X023764Y009999D01*
X023764Y010077D02*
X024474Y010077D01*
X024474Y010155D02*
X023764Y010155D01*
X023764Y010233D02*
X024474Y010233D01*
X024474Y010311D02*
X023764Y010311D01*
X024474Y010593D02*
X024474Y011341D01*
X024474Y010593D02*
X023764Y010593D01*
X023764Y011341D01*
X024474Y011341D01*
X024474Y010671D02*
X023764Y010671D01*
X023764Y010749D02*
X024474Y010749D01*
X024474Y010827D02*
X023764Y010827D01*
X023764Y010905D02*
X024474Y010905D01*
X024474Y010983D02*
X023764Y010983D01*
X023764Y011061D02*
X024474Y011061D01*
X024474Y011139D02*
X023764Y011139D01*
X023764Y011217D02*
X024474Y011217D01*
X024474Y011295D02*
X023764Y011295D01*
X024474Y011636D02*
X024474Y012464D01*
X024474Y011636D02*
X023764Y011636D01*
X023764Y012464D01*
X024474Y012464D01*
X024474Y011714D02*
X023764Y011714D01*
X023764Y011792D02*
X024474Y011792D01*
X024474Y011870D02*
X023764Y011870D01*
X023764Y011948D02*
X024474Y011948D01*
X024474Y012026D02*
X023764Y012026D01*
X023764Y012104D02*
X024474Y012104D01*
X024474Y012182D02*
X023764Y012182D01*
X023764Y012260D02*
X024474Y012260D01*
X024474Y012338D02*
X023764Y012338D01*
X023764Y012416D02*
X024474Y012416D01*
X024474Y009314D02*
X024474Y008486D01*
X023764Y008486D01*
X023764Y009314D01*
X024474Y009314D01*
X024474Y008564D02*
X023764Y008564D01*
X023764Y008642D02*
X024474Y008642D01*
X024474Y008720D02*
X023764Y008720D01*
X023764Y008798D02*
X024474Y008798D01*
X024474Y008876D02*
X023764Y008876D01*
X023764Y008954D02*
X024474Y008954D01*
X024474Y009032D02*
X023764Y009032D01*
X023764Y009110D02*
X024474Y009110D01*
X024474Y009188D02*
X023764Y009188D01*
X023764Y009266D02*
X024474Y009266D01*
D31*
X023368Y009655D02*
X023368Y008855D01*
X022764Y008855D01*
X022764Y009655D01*
X023368Y009655D01*
X023368Y008921D02*
X022764Y008921D01*
X022764Y008987D02*
X023368Y008987D01*
X023368Y009053D02*
X022764Y009053D01*
X022764Y009119D02*
X023368Y009119D01*
X023368Y009185D02*
X022764Y009185D01*
X022764Y009251D02*
X023368Y009251D01*
X023368Y009317D02*
X022764Y009317D01*
X022764Y009383D02*
X023368Y009383D01*
X023368Y009449D02*
X022764Y009449D01*
X022764Y009515D02*
X023368Y009515D01*
X023368Y009581D02*
X022764Y009581D01*
X022764Y009647D02*
X023368Y009647D01*
X023368Y011296D02*
X023368Y012096D01*
X023368Y011296D02*
X022764Y011296D01*
X022764Y012096D01*
X023368Y012096D01*
X023368Y011362D02*
X022764Y011362D01*
X022764Y011428D02*
X023368Y011428D01*
X023368Y011494D02*
X022764Y011494D01*
X022764Y011560D02*
X023368Y011560D01*
X023368Y011626D02*
X022764Y011626D01*
X022764Y011692D02*
X023368Y011692D01*
X023368Y011758D02*
X022764Y011758D01*
X022764Y011824D02*
X023368Y011824D01*
X023368Y011890D02*
X022764Y011890D01*
X022764Y011956D02*
X023368Y011956D01*
X023368Y012022D02*
X022764Y012022D01*
X022764Y012088D02*
X023368Y012088D01*
X022650Y013533D02*
X022046Y013533D01*
X022650Y013533D02*
X022650Y012615D01*
X022046Y012615D01*
X022046Y013533D01*
X022046Y012681D02*
X022650Y012681D01*
X022650Y012747D02*
X022046Y012747D01*
X022046Y012813D02*
X022650Y012813D01*
X022650Y012879D02*
X022046Y012879D01*
X022046Y012945D02*
X022650Y012945D01*
X022650Y013011D02*
X022046Y013011D01*
X022046Y013077D02*
X022650Y013077D01*
X022650Y013143D02*
X022046Y013143D01*
X022046Y013209D02*
X022650Y013209D01*
X022650Y013275D02*
X022046Y013275D01*
X022046Y013341D02*
X022650Y013341D01*
X022650Y013407D02*
X022046Y013407D01*
X022046Y013473D02*
X022650Y013473D01*
X022650Y014792D02*
X022046Y014792D01*
X022650Y014792D02*
X022650Y013874D01*
X022046Y013874D01*
X022046Y014792D01*
X022046Y013940D02*
X022650Y013940D01*
X022650Y014006D02*
X022046Y014006D01*
X022046Y014072D02*
X022650Y014072D01*
X022650Y014138D02*
X022046Y014138D01*
X022046Y014204D02*
X022650Y014204D01*
X022650Y014270D02*
X022046Y014270D01*
X022046Y014336D02*
X022650Y014336D01*
X022650Y014402D02*
X022046Y014402D01*
X022046Y014468D02*
X022650Y014468D01*
X022650Y014534D02*
X022046Y014534D01*
X022046Y014600D02*
X022650Y014600D01*
X022650Y014666D02*
X022046Y014666D01*
X022046Y014732D02*
X022650Y014732D01*
X021469Y013874D02*
X020865Y013874D01*
X020865Y014792D01*
X021469Y014792D01*
X021469Y013874D01*
X021469Y013940D02*
X020865Y013940D01*
X020865Y014006D02*
X021469Y014006D01*
X021469Y014072D02*
X020865Y014072D01*
X020865Y014138D02*
X021469Y014138D01*
X021469Y014204D02*
X020865Y014204D01*
X020865Y014270D02*
X021469Y014270D01*
X021469Y014336D02*
X020865Y014336D01*
X020865Y014402D02*
X021469Y014402D01*
X021469Y014468D02*
X020865Y014468D01*
X020865Y014534D02*
X021469Y014534D01*
X021469Y014600D02*
X020865Y014600D01*
X020865Y014666D02*
X021469Y014666D01*
X021469Y014732D02*
X020865Y014732D01*
X020865Y012615D02*
X021469Y012615D01*
X020865Y012615D02*
X020865Y013533D01*
X021469Y013533D01*
X021469Y012615D01*
X021469Y012681D02*
X020865Y012681D01*
X020865Y012747D02*
X021469Y012747D01*
X021469Y012813D02*
X020865Y012813D01*
X020865Y012879D02*
X021469Y012879D01*
X021469Y012945D02*
X020865Y012945D01*
X020865Y013011D02*
X021469Y013011D01*
X021469Y013077D02*
X020865Y013077D01*
X020865Y013143D02*
X021469Y013143D01*
X021469Y013209D02*
X020865Y013209D01*
X020865Y013275D02*
X021469Y013275D01*
X021469Y013341D02*
X020865Y013341D01*
X020865Y013407D02*
X021469Y013407D01*
X021469Y013473D02*
X020865Y013473D01*
X022846Y017043D02*
X022846Y017647D01*
X022846Y017043D02*
X021928Y017043D01*
X021928Y017647D01*
X022846Y017647D01*
X022846Y017109D02*
X021928Y017109D01*
X021928Y017175D02*
X022846Y017175D01*
X022846Y017241D02*
X021928Y017241D01*
X021928Y017307D02*
X022846Y017307D01*
X022846Y017373D02*
X021928Y017373D01*
X021928Y017439D02*
X022846Y017439D01*
X022846Y017505D02*
X021928Y017505D01*
X021928Y017571D02*
X022846Y017571D01*
X022846Y017637D02*
X021928Y017637D01*
X021928Y018224D02*
X021928Y018828D01*
X022846Y018828D01*
X022846Y018224D01*
X021928Y018224D01*
X021928Y018290D02*
X022846Y018290D01*
X022846Y018356D02*
X021928Y018356D01*
X021928Y018422D02*
X022846Y018422D01*
X022846Y018488D02*
X021928Y018488D01*
X021928Y018554D02*
X022846Y018554D01*
X022846Y018620D02*
X021928Y018620D01*
X021928Y018686D02*
X022846Y018686D01*
X022846Y018752D02*
X021928Y018752D01*
X021928Y018818D02*
X022846Y018818D01*
X021862Y022457D02*
X021862Y023061D01*
X021862Y022457D02*
X020944Y022457D01*
X020944Y023061D01*
X021862Y023061D01*
X021862Y022523D02*
X020944Y022523D01*
X020944Y022589D02*
X021862Y022589D01*
X021862Y022655D02*
X020944Y022655D01*
X020944Y022721D02*
X021862Y022721D01*
X021862Y022787D02*
X020944Y022787D01*
X020944Y022853D02*
X021862Y022853D01*
X021862Y022919D02*
X020944Y022919D01*
X020944Y022985D02*
X021862Y022985D01*
X021862Y023051D02*
X020944Y023051D01*
X020944Y023638D02*
X020944Y024242D01*
X021862Y024242D01*
X021862Y023638D01*
X020944Y023638D01*
X020944Y023704D02*
X021862Y023704D01*
X021862Y023770D02*
X020944Y023770D01*
X020944Y023836D02*
X021862Y023836D01*
X021862Y023902D02*
X020944Y023902D01*
X020944Y023968D02*
X021862Y023968D01*
X021862Y024034D02*
X020944Y024034D01*
X020944Y024100D02*
X021862Y024100D01*
X021862Y024166D02*
X020944Y024166D01*
X020944Y024232D02*
X021862Y024232D01*
X012204Y019006D02*
X012204Y018402D01*
X012204Y019006D02*
X013122Y019006D01*
X013122Y018402D01*
X012204Y018402D01*
X012204Y018468D02*
X013122Y018468D01*
X013122Y018534D02*
X012204Y018534D01*
X012204Y018600D02*
X013122Y018600D01*
X013122Y018666D02*
X012204Y018666D01*
X012204Y018732D02*
X013122Y018732D01*
X013122Y018798D02*
X012204Y018798D01*
X012204Y018864D02*
X013122Y018864D01*
X013122Y018930D02*
X012204Y018930D01*
X012204Y018996D02*
X013122Y018996D01*
X013122Y017824D02*
X013122Y017220D01*
X012204Y017220D01*
X012204Y017824D01*
X013122Y017824D01*
X013122Y017286D02*
X012204Y017286D01*
X012204Y017352D02*
X013122Y017352D01*
X013122Y017418D02*
X012204Y017418D01*
X012204Y017484D02*
X013122Y017484D01*
X013122Y017550D02*
X012204Y017550D01*
X012204Y017616D02*
X013122Y017616D01*
X013122Y017682D02*
X012204Y017682D01*
X012204Y017748D02*
X013122Y017748D01*
X013122Y017814D02*
X012204Y017814D01*
X008949Y020698D02*
X008345Y020698D01*
X008949Y020698D02*
X008949Y019780D01*
X008345Y019780D01*
X008345Y020698D01*
X008345Y019846D02*
X008949Y019846D01*
X008949Y019912D02*
X008345Y019912D01*
X008345Y019978D02*
X008949Y019978D01*
X008949Y020044D02*
X008345Y020044D01*
X008345Y020110D02*
X008949Y020110D01*
X008949Y020176D02*
X008345Y020176D01*
X008345Y020242D02*
X008949Y020242D01*
X008949Y020308D02*
X008345Y020308D01*
X008345Y020374D02*
X008949Y020374D01*
X008949Y020440D02*
X008345Y020440D01*
X008345Y020506D02*
X008949Y020506D01*
X008949Y020572D02*
X008345Y020572D01*
X008345Y020638D02*
X008949Y020638D01*
X008516Y021840D02*
X007912Y021840D01*
X008516Y021840D02*
X008516Y020922D01*
X007912Y020922D01*
X007912Y021840D01*
X007912Y020988D02*
X008516Y020988D01*
X008516Y021054D02*
X007912Y021054D01*
X007912Y021120D02*
X008516Y021120D01*
X008516Y021186D02*
X007912Y021186D01*
X007912Y021252D02*
X008516Y021252D01*
X008516Y021318D02*
X007912Y021318D01*
X007912Y021384D02*
X008516Y021384D01*
X008516Y021450D02*
X007912Y021450D01*
X007912Y021516D02*
X008516Y021516D01*
X008516Y021582D02*
X007912Y021582D01*
X007912Y021648D02*
X008516Y021648D01*
X008516Y021714D02*
X007912Y021714D01*
X007912Y021780D02*
X008516Y021780D01*
X007768Y019780D02*
X007164Y019780D01*
X007164Y020698D01*
X007768Y020698D01*
X007768Y019780D01*
X007768Y019846D02*
X007164Y019846D01*
X007164Y019912D02*
X007768Y019912D01*
X007768Y019978D02*
X007164Y019978D01*
X007164Y020044D02*
X007768Y020044D01*
X007768Y020110D02*
X007164Y020110D01*
X007164Y020176D02*
X007768Y020176D01*
X007768Y020242D02*
X007164Y020242D01*
X007164Y020308D02*
X007768Y020308D01*
X007768Y020374D02*
X007164Y020374D01*
X007164Y020440D02*
X007768Y020440D01*
X007768Y020506D02*
X007164Y020506D01*
X007164Y020572D02*
X007768Y020572D01*
X007768Y020638D02*
X007164Y020638D01*
X007335Y020922D02*
X006731Y020922D01*
X006731Y021840D01*
X007335Y021840D01*
X007335Y020922D01*
X007335Y020988D02*
X006731Y020988D01*
X006731Y021054D02*
X007335Y021054D01*
X007335Y021120D02*
X006731Y021120D01*
X006731Y021186D02*
X007335Y021186D01*
X007335Y021252D02*
X006731Y021252D01*
X006731Y021318D02*
X007335Y021318D01*
X007335Y021384D02*
X006731Y021384D01*
X006731Y021450D02*
X007335Y021450D01*
X007335Y021516D02*
X006731Y021516D01*
X006731Y021582D02*
X007335Y021582D01*
X007335Y021648D02*
X006731Y021648D01*
X006731Y021714D02*
X007335Y021714D01*
X007335Y021780D02*
X006731Y021780D01*
D32*
X005501Y005285D02*
X005501Y004977D01*
X005501Y005285D02*
X006281Y005285D01*
X006281Y004977D01*
X005501Y004977D01*
X005501Y005022D02*
X006281Y005022D01*
X006281Y005067D02*
X005501Y005067D01*
X005501Y005112D02*
X006281Y005112D01*
X006281Y005157D02*
X005501Y005157D01*
X005501Y005202D02*
X006281Y005202D01*
X006281Y005247D02*
X005501Y005247D01*
X005501Y004793D02*
X005501Y004485D01*
X005501Y004793D02*
X006281Y004793D01*
X006281Y004485D01*
X005501Y004485D01*
X005501Y004530D02*
X006281Y004530D01*
X006281Y004575D02*
X005501Y004575D01*
X005501Y004620D02*
X006281Y004620D01*
X006281Y004665D02*
X005501Y004665D01*
X005501Y004710D02*
X006281Y004710D01*
X006281Y004755D02*
X005501Y004755D01*
D33*
X004094Y004044D02*
X004094Y003264D01*
X004094Y004044D02*
X005228Y004044D01*
X005228Y003264D01*
X004094Y003264D01*
X004094Y003350D02*
X005228Y003350D01*
X005228Y003436D02*
X004094Y003436D01*
X004094Y003522D02*
X005228Y003522D01*
X005228Y003608D02*
X004094Y003608D01*
X004094Y003694D02*
X005228Y003694D01*
X005228Y003780D02*
X004094Y003780D01*
X004094Y003866D02*
X005228Y003866D01*
X005228Y003952D02*
X004094Y003952D01*
X004094Y004038D02*
X005228Y004038D01*
X004094Y005725D02*
X004094Y006505D01*
X005228Y006505D01*
X005228Y005725D01*
X004094Y005725D01*
X004094Y005811D02*
X005228Y005811D01*
X005228Y005897D02*
X004094Y005897D01*
X004094Y005983D02*
X005228Y005983D01*
X005228Y006069D02*
X004094Y006069D01*
X004094Y006155D02*
X005228Y006155D01*
X005228Y006241D02*
X004094Y006241D01*
X004094Y006327D02*
X005228Y006327D01*
X005228Y006413D02*
X004094Y006413D01*
X004094Y006499D02*
X005228Y006499D01*
D34*
X006038Y007696D02*
X006038Y007940D01*
X006532Y007940D01*
X006532Y007696D01*
X006038Y007696D01*
X006038Y007741D02*
X006532Y007741D01*
X006532Y007786D02*
X006038Y007786D01*
X006038Y007831D02*
X006532Y007831D01*
X006532Y007876D02*
X006038Y007876D01*
X006038Y007921D02*
X006532Y007921D01*
X006038Y008050D02*
X006038Y008294D01*
X006532Y008294D01*
X006532Y008050D01*
X006038Y008050D01*
X006038Y008095D02*
X006532Y008095D01*
X006532Y008140D02*
X006038Y008140D01*
X006038Y008185D02*
X006532Y008185D01*
X006532Y008230D02*
X006038Y008230D01*
X006038Y008275D02*
X006532Y008275D01*
X006825Y008294D02*
X006825Y008050D01*
X006825Y008294D02*
X007319Y008294D01*
X007319Y008050D01*
X006825Y008050D01*
X006825Y008095D02*
X007319Y008095D01*
X007319Y008140D02*
X006825Y008140D01*
X006825Y008185D02*
X007319Y008185D01*
X007319Y008230D02*
X006825Y008230D01*
X006825Y008275D02*
X007319Y008275D01*
X006825Y007940D02*
X006825Y007696D01*
X006825Y007940D02*
X007319Y007940D01*
X007319Y007696D01*
X006825Y007696D01*
X006825Y007741D02*
X007319Y007741D01*
X007319Y007786D02*
X006825Y007786D01*
X006825Y007831D02*
X007319Y007831D01*
X007319Y007876D02*
X006825Y007876D01*
X006825Y007921D02*
X007319Y007921D01*
X010311Y017956D02*
X010311Y018200D01*
X010311Y017956D02*
X009817Y017956D01*
X009817Y018200D01*
X010311Y018200D01*
X010311Y018001D02*
X009817Y018001D01*
X009817Y018046D02*
X010311Y018046D01*
X010311Y018091D02*
X009817Y018091D01*
X009817Y018136D02*
X010311Y018136D01*
X010311Y018181D02*
X009817Y018181D01*
X010311Y018306D02*
X010311Y018550D01*
X010311Y018306D02*
X009817Y018306D01*
X009817Y018550D01*
X010311Y018550D01*
X010311Y018351D02*
X009817Y018351D01*
X009817Y018396D02*
X010311Y018396D01*
X010311Y018441D02*
X009817Y018441D01*
X009817Y018486D02*
X010311Y018486D01*
X010311Y018531D02*
X009817Y018531D01*
X010311Y018656D02*
X010311Y018900D01*
X010311Y018656D02*
X009817Y018656D01*
X009817Y018900D01*
X010311Y018900D01*
X010311Y018701D02*
X009817Y018701D01*
X009817Y018746D02*
X010311Y018746D01*
X010311Y018791D02*
X009817Y018791D01*
X009817Y018836D02*
X010311Y018836D01*
X010311Y018881D02*
X009817Y018881D01*
X017387Y017258D02*
X017631Y017258D01*
X017631Y016764D01*
X017387Y016764D01*
X017387Y017258D01*
X017387Y016809D02*
X017631Y016809D01*
X017631Y016854D02*
X017387Y016854D01*
X017387Y016899D02*
X017631Y016899D01*
X017631Y016944D02*
X017387Y016944D01*
X017387Y016989D02*
X017631Y016989D01*
X017631Y017034D02*
X017387Y017034D01*
X017387Y017079D02*
X017631Y017079D01*
X017631Y017124D02*
X017387Y017124D01*
X017387Y017169D02*
X017631Y017169D01*
X017631Y017214D02*
X017387Y017214D01*
X017737Y017258D02*
X017981Y017258D01*
X017981Y016764D01*
X017737Y016764D01*
X017737Y017258D01*
X017737Y016809D02*
X017981Y016809D01*
X017981Y016854D02*
X017737Y016854D01*
X017737Y016899D02*
X017981Y016899D01*
X017981Y016944D02*
X017737Y016944D01*
X017737Y016989D02*
X017981Y016989D01*
X017981Y017034D02*
X017737Y017034D01*
X017737Y017079D02*
X017981Y017079D01*
X017981Y017124D02*
X017737Y017124D01*
X017737Y017169D02*
X017981Y017169D01*
X017981Y017214D02*
X017737Y017214D01*
X018087Y017258D02*
X018331Y017258D01*
X018331Y016764D01*
X018087Y016764D01*
X018087Y017258D01*
X018087Y016809D02*
X018331Y016809D01*
X018331Y016854D02*
X018087Y016854D01*
X018087Y016899D02*
X018331Y016899D01*
X018331Y016944D02*
X018087Y016944D01*
X018087Y016989D02*
X018331Y016989D01*
X018331Y017034D02*
X018087Y017034D01*
X018087Y017079D02*
X018331Y017079D01*
X018331Y017124D02*
X018087Y017124D01*
X018087Y017169D02*
X018331Y017169D01*
X018331Y017214D02*
X018087Y017214D01*
X025254Y002827D02*
X025498Y002827D01*
X025254Y002827D02*
X025254Y003321D01*
X025498Y003321D01*
X025498Y002827D01*
X025498Y002872D02*
X025254Y002872D01*
X025254Y002917D02*
X025498Y002917D01*
X025498Y002962D02*
X025254Y002962D01*
X025254Y003007D02*
X025498Y003007D01*
X025498Y003052D02*
X025254Y003052D01*
X025254Y003097D02*
X025498Y003097D01*
X025498Y003142D02*
X025254Y003142D01*
X025254Y003187D02*
X025498Y003187D01*
X025498Y003232D02*
X025254Y003232D01*
X025254Y003277D02*
X025498Y003277D01*
X025654Y002827D02*
X025898Y002827D01*
X025654Y002827D02*
X025654Y003321D01*
X025898Y003321D01*
X025898Y002827D01*
X025898Y002872D02*
X025654Y002872D01*
X025654Y002917D02*
X025898Y002917D01*
X025898Y002962D02*
X025654Y002962D01*
X025654Y003007D02*
X025898Y003007D01*
X025898Y003052D02*
X025654Y003052D01*
X025654Y003097D02*
X025898Y003097D01*
X025898Y003142D02*
X025654Y003142D01*
X025654Y003187D02*
X025898Y003187D01*
X025898Y003232D02*
X025654Y003232D01*
X025654Y003277D02*
X025898Y003277D01*
X017702Y033872D02*
X017458Y033872D01*
X017702Y033872D02*
X017702Y033378D01*
X017458Y033378D01*
X017458Y033872D01*
X017458Y033423D02*
X017702Y033423D01*
X017702Y033468D02*
X017458Y033468D01*
X017458Y033513D02*
X017702Y033513D01*
X017702Y033558D02*
X017458Y033558D01*
X017458Y033603D02*
X017702Y033603D01*
X017702Y033648D02*
X017458Y033648D01*
X017458Y033693D02*
X017702Y033693D01*
X017702Y033738D02*
X017458Y033738D01*
X017458Y033783D02*
X017702Y033783D01*
X017702Y033828D02*
X017458Y033828D01*
X017352Y033872D02*
X017108Y033872D01*
X017352Y033872D02*
X017352Y033378D01*
X017108Y033378D01*
X017108Y033872D01*
X017108Y033423D02*
X017352Y033423D01*
X017352Y033468D02*
X017108Y033468D01*
X017108Y033513D02*
X017352Y033513D01*
X017352Y033558D02*
X017108Y033558D01*
X017108Y033603D02*
X017352Y033603D01*
X017352Y033648D02*
X017108Y033648D01*
X017108Y033693D02*
X017352Y033693D01*
X017352Y033738D02*
X017108Y033738D01*
X017108Y033783D02*
X017352Y033783D01*
X017352Y033828D02*
X017108Y033828D01*
X017002Y033872D02*
X016758Y033872D01*
X017002Y033872D02*
X017002Y033378D01*
X016758Y033378D01*
X016758Y033872D01*
X016758Y033423D02*
X017002Y033423D01*
X017002Y033468D02*
X016758Y033468D01*
X016758Y033513D02*
X017002Y033513D01*
X017002Y033558D02*
X016758Y033558D01*
X016758Y033603D02*
X017002Y033603D01*
X017002Y033648D02*
X016758Y033648D01*
X016758Y033693D02*
X017002Y033693D01*
X017002Y033738D02*
X016758Y033738D01*
X016758Y033783D02*
X017002Y033783D01*
X017002Y033828D02*
X016758Y033828D01*
X018520Y037771D02*
X018520Y038015D01*
X018520Y037771D02*
X018026Y037771D01*
X018026Y038015D01*
X018520Y038015D01*
X018520Y037816D02*
X018026Y037816D01*
X018026Y037861D02*
X018520Y037861D01*
X018520Y037906D02*
X018026Y037906D01*
X018026Y037951D02*
X018520Y037951D01*
X018520Y037996D02*
X018026Y037996D01*
X018520Y038171D02*
X018520Y038415D01*
X018520Y038171D02*
X018026Y038171D01*
X018026Y038415D01*
X018520Y038415D01*
X018520Y038216D02*
X018026Y038216D01*
X018026Y038261D02*
X018520Y038261D01*
X018520Y038306D02*
X018026Y038306D01*
X018026Y038351D02*
X018520Y038351D01*
X018520Y038396D02*
X018026Y038396D01*
X024056Y034008D02*
X024300Y034008D01*
X024056Y034008D02*
X024056Y034502D01*
X024300Y034502D01*
X024300Y034008D01*
X024300Y034053D02*
X024056Y034053D01*
X024056Y034098D02*
X024300Y034098D01*
X024300Y034143D02*
X024056Y034143D01*
X024056Y034188D02*
X024300Y034188D01*
X024300Y034233D02*
X024056Y034233D01*
X024056Y034278D02*
X024300Y034278D01*
X024300Y034323D02*
X024056Y034323D01*
X024056Y034368D02*
X024300Y034368D01*
X024300Y034413D02*
X024056Y034413D01*
X024056Y034458D02*
X024300Y034458D01*
X024411Y034008D02*
X024655Y034008D01*
X024411Y034008D02*
X024411Y034502D01*
X024655Y034502D01*
X024655Y034008D01*
X024655Y034053D02*
X024411Y034053D01*
X024411Y034098D02*
X024655Y034098D01*
X024655Y034143D02*
X024411Y034143D01*
X024411Y034188D02*
X024655Y034188D01*
X024655Y034233D02*
X024411Y034233D01*
X024411Y034278D02*
X024655Y034278D01*
X024655Y034323D02*
X024411Y034323D01*
X024411Y034368D02*
X024655Y034368D01*
X024655Y034413D02*
X024411Y034413D01*
X024411Y034458D02*
X024655Y034458D01*
D35*
X016321Y018346D02*
X016321Y017644D01*
X015895Y017644D01*
X015895Y018346D01*
X016321Y018346D01*
X016321Y017690D02*
X015895Y017690D01*
X015895Y017736D02*
X016321Y017736D01*
X016321Y017782D02*
X015895Y017782D01*
X015895Y017828D02*
X016321Y017828D01*
X016321Y017874D02*
X015895Y017874D01*
X015895Y017920D02*
X016321Y017920D01*
X016321Y017966D02*
X015895Y017966D01*
X015895Y018012D02*
X016321Y018012D01*
X016321Y018058D02*
X015895Y018058D01*
X015895Y018104D02*
X016321Y018104D01*
X016321Y018150D02*
X015895Y018150D01*
X015895Y018196D02*
X016321Y018196D01*
X016321Y018242D02*
X015895Y018242D01*
X015895Y018288D02*
X016321Y018288D01*
X016321Y018334D02*
X015895Y018334D01*
X015100Y018346D02*
X015100Y017644D01*
X014674Y017644D01*
X014674Y018346D01*
X015100Y018346D01*
X015100Y017690D02*
X014674Y017690D01*
X014674Y017736D02*
X015100Y017736D01*
X015100Y017782D02*
X014674Y017782D01*
X014674Y017828D02*
X015100Y017828D01*
X015100Y017874D02*
X014674Y017874D01*
X014674Y017920D02*
X015100Y017920D01*
X015100Y017966D02*
X014674Y017966D01*
X014674Y018012D02*
X015100Y018012D01*
X015100Y018058D02*
X014674Y018058D01*
X014674Y018104D02*
X015100Y018104D01*
X015100Y018150D02*
X014674Y018150D01*
X014674Y018196D02*
X015100Y018196D01*
X015100Y018242D02*
X014674Y018242D01*
X014674Y018288D02*
X015100Y018288D01*
X015100Y018334D02*
X014674Y018334D01*
D36*
X026456Y024822D03*
D37*
X025956Y024822D03*
X025956Y024322D03*
X025956Y023822D03*
X025956Y023322D03*
X025956Y022822D03*
X026456Y022822D03*
X026456Y023322D03*
X026456Y023822D03*
X026456Y024322D03*
D38*
X012585Y008009D02*
X011953Y008009D01*
X012585Y008009D02*
X012585Y007777D01*
X011953Y007777D01*
X011953Y008009D01*
X011953Y007824D02*
X012585Y007824D01*
X012585Y007871D02*
X011953Y007871D01*
X011953Y007918D02*
X012585Y007918D01*
X012585Y007965D02*
X011953Y007965D01*
X011953Y007509D02*
X012585Y007509D01*
X012585Y007277D01*
X011953Y007277D01*
X011953Y007509D01*
X011953Y007324D02*
X012585Y007324D01*
X012585Y007371D02*
X011953Y007371D01*
X011953Y007418D02*
X012585Y007418D01*
X012585Y007465D02*
X011953Y007465D01*
X011953Y007009D02*
X012585Y007009D01*
X012585Y006777D01*
X011953Y006777D01*
X011953Y007009D01*
X011953Y006824D02*
X012585Y006824D01*
X012585Y006871D02*
X011953Y006871D01*
X011953Y006918D02*
X012585Y006918D01*
X012585Y006965D02*
X011953Y006965D01*
X011953Y006509D02*
X012585Y006509D01*
X012585Y006277D01*
X011953Y006277D01*
X011953Y006509D01*
X011953Y006324D02*
X012585Y006324D01*
X012585Y006371D02*
X011953Y006371D01*
X011953Y006418D02*
X012585Y006418D01*
X012585Y006465D02*
X011953Y006465D01*
X011953Y006009D02*
X012585Y006009D01*
X012585Y005777D01*
X011953Y005777D01*
X011953Y006009D01*
X011953Y005824D02*
X012585Y005824D01*
X012585Y005871D02*
X011953Y005871D01*
X011953Y005918D02*
X012585Y005918D01*
X012585Y005965D02*
X011953Y005965D01*
X008568Y029497D02*
X008336Y029497D01*
X008568Y029497D02*
X008568Y028635D01*
X008336Y028635D01*
X008336Y029497D01*
X008336Y028682D02*
X008568Y028682D01*
X008568Y028729D02*
X008336Y028729D01*
X008336Y028776D02*
X008568Y028776D01*
X008568Y028823D02*
X008336Y028823D01*
X008336Y028870D02*
X008568Y028870D01*
X008568Y028917D02*
X008336Y028917D01*
X008336Y028964D02*
X008568Y028964D01*
X008568Y029011D02*
X008336Y029011D01*
X008336Y029058D02*
X008568Y029058D01*
X008568Y029105D02*
X008336Y029105D01*
X008336Y029152D02*
X008568Y029152D01*
X008568Y029199D02*
X008336Y029199D01*
X008336Y029246D02*
X008568Y029246D01*
X008568Y029293D02*
X008336Y029293D01*
X008336Y029340D02*
X008568Y029340D01*
X008568Y029387D02*
X008336Y029387D01*
X008336Y029434D02*
X008568Y029434D01*
X008568Y029481D02*
X008336Y029481D01*
X008068Y029497D02*
X007836Y029497D01*
X008068Y029497D02*
X008068Y028635D01*
X007836Y028635D01*
X007836Y029497D01*
X007836Y028682D02*
X008068Y028682D01*
X008068Y028729D02*
X007836Y028729D01*
X007836Y028776D02*
X008068Y028776D01*
X008068Y028823D02*
X007836Y028823D01*
X007836Y028870D02*
X008068Y028870D01*
X008068Y028917D02*
X007836Y028917D01*
X007836Y028964D02*
X008068Y028964D01*
X008068Y029011D02*
X007836Y029011D01*
X007836Y029058D02*
X008068Y029058D01*
X008068Y029105D02*
X007836Y029105D01*
X007836Y029152D02*
X008068Y029152D01*
X008068Y029199D02*
X007836Y029199D01*
X007836Y029246D02*
X008068Y029246D01*
X008068Y029293D02*
X007836Y029293D01*
X007836Y029340D02*
X008068Y029340D01*
X008068Y029387D02*
X007836Y029387D01*
X007836Y029434D02*
X008068Y029434D01*
X008068Y029481D02*
X007836Y029481D01*
X007568Y029497D02*
X007336Y029497D01*
X007568Y029497D02*
X007568Y028635D01*
X007336Y028635D01*
X007336Y029497D01*
X007336Y028682D02*
X007568Y028682D01*
X007568Y028729D02*
X007336Y028729D01*
X007336Y028776D02*
X007568Y028776D01*
X007568Y028823D02*
X007336Y028823D01*
X007336Y028870D02*
X007568Y028870D01*
X007568Y028917D02*
X007336Y028917D01*
X007336Y028964D02*
X007568Y028964D01*
X007568Y029011D02*
X007336Y029011D01*
X007336Y029058D02*
X007568Y029058D01*
X007568Y029105D02*
X007336Y029105D01*
X007336Y029152D02*
X007568Y029152D01*
X007568Y029199D02*
X007336Y029199D01*
X007336Y029246D02*
X007568Y029246D01*
X007568Y029293D02*
X007336Y029293D01*
X007336Y029340D02*
X007568Y029340D01*
X007568Y029387D02*
X007336Y029387D01*
X007336Y029434D02*
X007568Y029434D01*
X007568Y029481D02*
X007336Y029481D01*
X007068Y029497D02*
X006836Y029497D01*
X007068Y029497D02*
X007068Y028635D01*
X006836Y028635D01*
X006836Y029497D01*
X006836Y028682D02*
X007068Y028682D01*
X007068Y028729D02*
X006836Y028729D01*
X006836Y028776D02*
X007068Y028776D01*
X007068Y028823D02*
X006836Y028823D01*
X006836Y028870D02*
X007068Y028870D01*
X007068Y028917D02*
X006836Y028917D01*
X006836Y028964D02*
X007068Y028964D01*
X007068Y029011D02*
X006836Y029011D01*
X006836Y029058D02*
X007068Y029058D01*
X007068Y029105D02*
X006836Y029105D01*
X006836Y029152D02*
X007068Y029152D01*
X007068Y029199D02*
X006836Y029199D01*
X006836Y029246D02*
X007068Y029246D01*
X007068Y029293D02*
X006836Y029293D01*
X006836Y029340D02*
X007068Y029340D01*
X007068Y029387D02*
X006836Y029387D01*
X006836Y029434D02*
X007068Y029434D01*
X007068Y029481D02*
X006836Y029481D01*
X006836Y029945D02*
X007068Y029945D01*
X006836Y029945D02*
X006836Y030807D01*
X007068Y030807D01*
X007068Y029945D01*
X007068Y029992D02*
X006836Y029992D01*
X006836Y030039D02*
X007068Y030039D01*
X007068Y030086D02*
X006836Y030086D01*
X006836Y030133D02*
X007068Y030133D01*
X007068Y030180D02*
X006836Y030180D01*
X006836Y030227D02*
X007068Y030227D01*
X007068Y030274D02*
X006836Y030274D01*
X006836Y030321D02*
X007068Y030321D01*
X007068Y030368D02*
X006836Y030368D01*
X006836Y030415D02*
X007068Y030415D01*
X007068Y030462D02*
X006836Y030462D01*
X006836Y030509D02*
X007068Y030509D01*
X007068Y030556D02*
X006836Y030556D01*
X006836Y030603D02*
X007068Y030603D01*
X007068Y030650D02*
X006836Y030650D01*
X006836Y030697D02*
X007068Y030697D01*
X007068Y030744D02*
X006836Y030744D01*
X006836Y030791D02*
X007068Y030791D01*
X007336Y029945D02*
X007568Y029945D01*
X007336Y029945D02*
X007336Y030807D01*
X007568Y030807D01*
X007568Y029945D01*
X007568Y029992D02*
X007336Y029992D01*
X007336Y030039D02*
X007568Y030039D01*
X007568Y030086D02*
X007336Y030086D01*
X007336Y030133D02*
X007568Y030133D01*
X007568Y030180D02*
X007336Y030180D01*
X007336Y030227D02*
X007568Y030227D01*
X007568Y030274D02*
X007336Y030274D01*
X007336Y030321D02*
X007568Y030321D01*
X007568Y030368D02*
X007336Y030368D01*
X007336Y030415D02*
X007568Y030415D01*
X007568Y030462D02*
X007336Y030462D01*
X007336Y030509D02*
X007568Y030509D01*
X007568Y030556D02*
X007336Y030556D01*
X007336Y030603D02*
X007568Y030603D01*
X007568Y030650D02*
X007336Y030650D01*
X007336Y030697D02*
X007568Y030697D01*
X007568Y030744D02*
X007336Y030744D01*
X007336Y030791D02*
X007568Y030791D01*
X007836Y029945D02*
X008068Y029945D01*
X007836Y029945D02*
X007836Y030807D01*
X008068Y030807D01*
X008068Y029945D01*
X008068Y029992D02*
X007836Y029992D01*
X007836Y030039D02*
X008068Y030039D01*
X008068Y030086D02*
X007836Y030086D01*
X007836Y030133D02*
X008068Y030133D01*
X008068Y030180D02*
X007836Y030180D01*
X007836Y030227D02*
X008068Y030227D01*
X008068Y030274D02*
X007836Y030274D01*
X007836Y030321D02*
X008068Y030321D01*
X008068Y030368D02*
X007836Y030368D01*
X007836Y030415D02*
X008068Y030415D01*
X008068Y030462D02*
X007836Y030462D01*
X007836Y030509D02*
X008068Y030509D01*
X008068Y030556D02*
X007836Y030556D01*
X007836Y030603D02*
X008068Y030603D01*
X008068Y030650D02*
X007836Y030650D01*
X007836Y030697D02*
X008068Y030697D01*
X008068Y030744D02*
X007836Y030744D01*
X007836Y030791D02*
X008068Y030791D01*
X008336Y029945D02*
X008568Y029945D01*
X008336Y029945D02*
X008336Y030807D01*
X008568Y030807D01*
X008568Y029945D01*
X008568Y029992D02*
X008336Y029992D01*
X008336Y030039D02*
X008568Y030039D01*
X008568Y030086D02*
X008336Y030086D01*
X008336Y030133D02*
X008568Y030133D01*
X008568Y030180D02*
X008336Y030180D01*
X008336Y030227D02*
X008568Y030227D01*
X008568Y030274D02*
X008336Y030274D01*
X008336Y030321D02*
X008568Y030321D01*
X008568Y030368D02*
X008336Y030368D01*
X008336Y030415D02*
X008568Y030415D01*
X008568Y030462D02*
X008336Y030462D01*
X008336Y030509D02*
X008568Y030509D01*
X008568Y030556D02*
X008336Y030556D01*
X008336Y030603D02*
X008568Y030603D01*
X008568Y030650D02*
X008336Y030650D01*
X008336Y030697D02*
X008568Y030697D01*
X008568Y030744D02*
X008336Y030744D01*
X008336Y030791D02*
X008568Y030791D01*
X008568Y032147D02*
X008336Y032147D01*
X008568Y032147D02*
X008568Y031285D01*
X008336Y031285D01*
X008336Y032147D01*
X008336Y031332D02*
X008568Y031332D01*
X008568Y031379D02*
X008336Y031379D01*
X008336Y031426D02*
X008568Y031426D01*
X008568Y031473D02*
X008336Y031473D01*
X008336Y031520D02*
X008568Y031520D01*
X008568Y031567D02*
X008336Y031567D01*
X008336Y031614D02*
X008568Y031614D01*
X008568Y031661D02*
X008336Y031661D01*
X008336Y031708D02*
X008568Y031708D01*
X008568Y031755D02*
X008336Y031755D01*
X008336Y031802D02*
X008568Y031802D01*
X008568Y031849D02*
X008336Y031849D01*
X008336Y031896D02*
X008568Y031896D01*
X008568Y031943D02*
X008336Y031943D01*
X008336Y031990D02*
X008568Y031990D01*
X008568Y032037D02*
X008336Y032037D01*
X008336Y032084D02*
X008568Y032084D01*
X008568Y032131D02*
X008336Y032131D01*
X008068Y032147D02*
X007836Y032147D01*
X008068Y032147D02*
X008068Y031285D01*
X007836Y031285D01*
X007836Y032147D01*
X007836Y031332D02*
X008068Y031332D01*
X008068Y031379D02*
X007836Y031379D01*
X007836Y031426D02*
X008068Y031426D01*
X008068Y031473D02*
X007836Y031473D01*
X007836Y031520D02*
X008068Y031520D01*
X008068Y031567D02*
X007836Y031567D01*
X007836Y031614D02*
X008068Y031614D01*
X008068Y031661D02*
X007836Y031661D01*
X007836Y031708D02*
X008068Y031708D01*
X008068Y031755D02*
X007836Y031755D01*
X007836Y031802D02*
X008068Y031802D01*
X008068Y031849D02*
X007836Y031849D01*
X007836Y031896D02*
X008068Y031896D01*
X008068Y031943D02*
X007836Y031943D01*
X007836Y031990D02*
X008068Y031990D01*
X008068Y032037D02*
X007836Y032037D01*
X007836Y032084D02*
X008068Y032084D01*
X008068Y032131D02*
X007836Y032131D01*
X007568Y032147D02*
X007336Y032147D01*
X007568Y032147D02*
X007568Y031285D01*
X007336Y031285D01*
X007336Y032147D01*
X007336Y031332D02*
X007568Y031332D01*
X007568Y031379D02*
X007336Y031379D01*
X007336Y031426D02*
X007568Y031426D01*
X007568Y031473D02*
X007336Y031473D01*
X007336Y031520D02*
X007568Y031520D01*
X007568Y031567D02*
X007336Y031567D01*
X007336Y031614D02*
X007568Y031614D01*
X007568Y031661D02*
X007336Y031661D01*
X007336Y031708D02*
X007568Y031708D01*
X007568Y031755D02*
X007336Y031755D01*
X007336Y031802D02*
X007568Y031802D01*
X007568Y031849D02*
X007336Y031849D01*
X007336Y031896D02*
X007568Y031896D01*
X007568Y031943D02*
X007336Y031943D01*
X007336Y031990D02*
X007568Y031990D01*
X007568Y032037D02*
X007336Y032037D01*
X007336Y032084D02*
X007568Y032084D01*
X007568Y032131D02*
X007336Y032131D01*
X007068Y032147D02*
X006836Y032147D01*
X007068Y032147D02*
X007068Y031285D01*
X006836Y031285D01*
X006836Y032147D01*
X006836Y031332D02*
X007068Y031332D01*
X007068Y031379D02*
X006836Y031379D01*
X006836Y031426D02*
X007068Y031426D01*
X007068Y031473D02*
X006836Y031473D01*
X006836Y031520D02*
X007068Y031520D01*
X007068Y031567D02*
X006836Y031567D01*
X006836Y031614D02*
X007068Y031614D01*
X007068Y031661D02*
X006836Y031661D01*
X006836Y031708D02*
X007068Y031708D01*
X007068Y031755D02*
X006836Y031755D01*
X006836Y031802D02*
X007068Y031802D01*
X007068Y031849D02*
X006836Y031849D01*
X006836Y031896D02*
X007068Y031896D01*
X007068Y031943D02*
X006836Y031943D01*
X006836Y031990D02*
X007068Y031990D01*
X007068Y032037D02*
X006836Y032037D01*
X006836Y032084D02*
X007068Y032084D01*
X007068Y032131D02*
X006836Y032131D01*
X006836Y032595D02*
X007068Y032595D01*
X006836Y032595D02*
X006836Y033457D01*
X007068Y033457D01*
X007068Y032595D01*
X007068Y032642D02*
X006836Y032642D01*
X006836Y032689D02*
X007068Y032689D01*
X007068Y032736D02*
X006836Y032736D01*
X006836Y032783D02*
X007068Y032783D01*
X007068Y032830D02*
X006836Y032830D01*
X006836Y032877D02*
X007068Y032877D01*
X007068Y032924D02*
X006836Y032924D01*
X006836Y032971D02*
X007068Y032971D01*
X007068Y033018D02*
X006836Y033018D01*
X006836Y033065D02*
X007068Y033065D01*
X007068Y033112D02*
X006836Y033112D01*
X006836Y033159D02*
X007068Y033159D01*
X007068Y033206D02*
X006836Y033206D01*
X006836Y033253D02*
X007068Y033253D01*
X007068Y033300D02*
X006836Y033300D01*
X006836Y033347D02*
X007068Y033347D01*
X007068Y033394D02*
X006836Y033394D01*
X006836Y033441D02*
X007068Y033441D01*
X007336Y032595D02*
X007568Y032595D01*
X007336Y032595D02*
X007336Y033457D01*
X007568Y033457D01*
X007568Y032595D01*
X007568Y032642D02*
X007336Y032642D01*
X007336Y032689D02*
X007568Y032689D01*
X007568Y032736D02*
X007336Y032736D01*
X007336Y032783D02*
X007568Y032783D01*
X007568Y032830D02*
X007336Y032830D01*
X007336Y032877D02*
X007568Y032877D01*
X007568Y032924D02*
X007336Y032924D01*
X007336Y032971D02*
X007568Y032971D01*
X007568Y033018D02*
X007336Y033018D01*
X007336Y033065D02*
X007568Y033065D01*
X007568Y033112D02*
X007336Y033112D01*
X007336Y033159D02*
X007568Y033159D01*
X007568Y033206D02*
X007336Y033206D01*
X007336Y033253D02*
X007568Y033253D01*
X007568Y033300D02*
X007336Y033300D01*
X007336Y033347D02*
X007568Y033347D01*
X007568Y033394D02*
X007336Y033394D01*
X007336Y033441D02*
X007568Y033441D01*
X007836Y032595D02*
X008068Y032595D01*
X007836Y032595D02*
X007836Y033457D01*
X008068Y033457D01*
X008068Y032595D01*
X008068Y032642D02*
X007836Y032642D01*
X007836Y032689D02*
X008068Y032689D01*
X008068Y032736D02*
X007836Y032736D01*
X007836Y032783D02*
X008068Y032783D01*
X008068Y032830D02*
X007836Y032830D01*
X007836Y032877D02*
X008068Y032877D01*
X008068Y032924D02*
X007836Y032924D01*
X007836Y032971D02*
X008068Y032971D01*
X008068Y033018D02*
X007836Y033018D01*
X007836Y033065D02*
X008068Y033065D01*
X008068Y033112D02*
X007836Y033112D01*
X007836Y033159D02*
X008068Y033159D01*
X008068Y033206D02*
X007836Y033206D01*
X007836Y033253D02*
X008068Y033253D01*
X008068Y033300D02*
X007836Y033300D01*
X007836Y033347D02*
X008068Y033347D01*
X008068Y033394D02*
X007836Y033394D01*
X007836Y033441D02*
X008068Y033441D01*
X008336Y032595D02*
X008568Y032595D01*
X008336Y032595D02*
X008336Y033457D01*
X008568Y033457D01*
X008568Y032595D01*
X008568Y032642D02*
X008336Y032642D01*
X008336Y032689D02*
X008568Y032689D01*
X008568Y032736D02*
X008336Y032736D01*
X008336Y032783D02*
X008568Y032783D01*
X008568Y032830D02*
X008336Y032830D01*
X008336Y032877D02*
X008568Y032877D01*
X008568Y032924D02*
X008336Y032924D01*
X008336Y032971D02*
X008568Y032971D01*
X008568Y033018D02*
X008336Y033018D01*
X008336Y033065D02*
X008568Y033065D01*
X008568Y033112D02*
X008336Y033112D01*
X008336Y033159D02*
X008568Y033159D01*
X008568Y033206D02*
X008336Y033206D01*
X008336Y033253D02*
X008568Y033253D01*
X008568Y033300D02*
X008336Y033300D01*
X008336Y033347D02*
X008568Y033347D01*
X008568Y033394D02*
X008336Y033394D01*
X008336Y033441D02*
X008568Y033441D01*
D39*
X005041Y030770D03*
X005041Y029770D03*
X005041Y028770D03*
X005041Y027770D03*
X005041Y026770D03*
X005041Y025770D03*
X005041Y023770D03*
X005041Y022770D03*
X005041Y021770D03*
X005041Y020770D03*
X005041Y019770D03*
X005041Y018770D03*
X005041Y017770D03*
X005041Y016770D03*
X024041Y017170D03*
X024041Y018170D03*
X024041Y019170D03*
X024041Y020170D03*
X024041Y021170D03*
X024041Y022170D03*
X024041Y023770D03*
X024041Y024770D03*
X024041Y025770D03*
X024041Y026770D03*
X024041Y027770D03*
X024041Y028770D03*
X024041Y029770D03*
X024041Y030770D03*
X024041Y016170D03*
X024041Y015170D03*
X024041Y014170D03*
X024041Y013170D03*
D40*
X016041Y030820D03*
X016041Y031820D03*
X015041Y031820D03*
X015041Y030820D03*
X014041Y030820D03*
X014041Y031820D03*
X012041Y031820D03*
X012041Y032820D03*
X012041Y033820D03*
X012041Y034820D03*
X012041Y035820D03*
X012041Y036820D03*
X012041Y037820D03*
X011041Y037820D03*
X011041Y036820D03*
X011041Y035820D03*
X011041Y034820D03*
X011041Y033820D03*
X011041Y032820D03*
X011041Y031820D03*
X011041Y030820D03*
X012041Y030820D03*
D41*
X020795Y036324D03*
D42*
X021853Y037382D03*
D43*
X020989Y019704D02*
X020989Y019624D01*
X020989Y019704D02*
X021147Y019704D01*
X021147Y019624D01*
X020989Y019624D01*
X020989Y019004D02*
X020989Y018924D01*
X020989Y019004D02*
X021147Y019004D01*
X021147Y018924D01*
X020989Y018924D01*
X017561Y015220D02*
X017561Y015062D01*
X017481Y015062D01*
X017481Y015220D01*
X017561Y015220D01*
X016861Y015220D02*
X016861Y015062D01*
X016781Y015062D01*
X016781Y015220D01*
X016861Y015220D01*
X013214Y006927D02*
X013056Y006927D01*
X013056Y007007D01*
X013214Y007007D01*
X013214Y006927D01*
X013214Y006227D02*
X013056Y006227D01*
X013056Y006307D01*
X013214Y006307D01*
X013214Y006227D01*
X008642Y005357D02*
X008642Y005199D01*
X008642Y005357D02*
X008722Y005357D01*
X008722Y005199D01*
X008642Y005199D01*
X007942Y005199D02*
X007942Y005357D01*
X008022Y005357D01*
X008022Y005199D01*
X007942Y005199D01*
X007805Y001499D02*
X007805Y001341D01*
X007725Y001341D01*
X007725Y001499D01*
X007805Y001499D01*
X008505Y001499D02*
X008505Y001341D01*
X008425Y001341D01*
X008425Y001499D01*
X008505Y001499D01*
D44*
X009434Y015869D03*
X010222Y015869D03*
X019297Y028585D03*
X019749Y028211D03*
X020340Y028546D03*
X020458Y027956D03*
X021206Y027759D03*
X021206Y028349D03*
X021167Y029924D03*
X020537Y030003D03*
X019946Y030121D03*
X019198Y030318D03*
X022781Y026223D03*
X022781Y025633D03*
X012328Y030003D03*
D45*
X007917Y004463D02*
X007917Y004203D01*
X007917Y004463D02*
X007999Y004463D01*
X007999Y004203D01*
X007917Y004203D01*
X007917Y004259D02*
X007999Y004259D01*
X007999Y004315D02*
X007917Y004315D01*
X007917Y004371D02*
X007999Y004371D01*
X007999Y004427D02*
X007917Y004427D01*
X007720Y004463D02*
X007720Y004203D01*
X007720Y004463D02*
X007802Y004463D01*
X007802Y004203D01*
X007720Y004203D01*
X007720Y004259D02*
X007802Y004259D01*
X007802Y004315D02*
X007720Y004315D01*
X007720Y004371D02*
X007802Y004371D01*
X007802Y004427D02*
X007720Y004427D01*
X007523Y004463D02*
X007523Y004203D01*
X007523Y004463D02*
X007605Y004463D01*
X007605Y004203D01*
X007523Y004203D01*
X007523Y004259D02*
X007605Y004259D01*
X007605Y004315D02*
X007523Y004315D01*
X007523Y004371D02*
X007605Y004371D01*
X007605Y004427D02*
X007523Y004427D01*
X007326Y004463D02*
X007326Y004203D01*
X007326Y004463D02*
X007408Y004463D01*
X007408Y004203D01*
X007326Y004203D01*
X007326Y004259D02*
X007408Y004259D01*
X007408Y004315D02*
X007326Y004315D01*
X007326Y004371D02*
X007408Y004371D01*
X007408Y004427D02*
X007326Y004427D01*
X007241Y004037D02*
X006981Y004037D01*
X006981Y004119D01*
X007241Y004119D01*
X007241Y004037D01*
X007241Y004093D02*
X006981Y004093D01*
X006981Y003840D02*
X007241Y003840D01*
X006981Y003840D02*
X006981Y003922D01*
X007241Y003922D01*
X007241Y003840D01*
X007241Y003896D02*
X006981Y003896D01*
X006981Y003643D02*
X007241Y003643D01*
X006981Y003643D02*
X006981Y003725D01*
X007241Y003725D01*
X007241Y003643D01*
X007241Y003699D02*
X006981Y003699D01*
X006981Y003446D02*
X007241Y003446D01*
X006981Y003446D02*
X006981Y003528D01*
X007241Y003528D01*
X007241Y003446D01*
X007241Y003502D02*
X006981Y003502D01*
X006981Y003249D02*
X007241Y003249D01*
X006981Y003249D02*
X006981Y003331D01*
X007241Y003331D01*
X007241Y003249D01*
X007241Y003305D02*
X006981Y003305D01*
X006981Y003052D02*
X007241Y003052D01*
X006981Y003052D02*
X006981Y003134D01*
X007241Y003134D01*
X007241Y003052D01*
X007241Y003108D02*
X006981Y003108D01*
X007408Y002967D02*
X007408Y002707D01*
X007326Y002707D01*
X007326Y002967D01*
X007408Y002967D01*
X007408Y002763D02*
X007326Y002763D01*
X007326Y002819D02*
X007408Y002819D01*
X007408Y002875D02*
X007326Y002875D01*
X007326Y002931D02*
X007408Y002931D01*
X007605Y002967D02*
X007605Y002707D01*
X007523Y002707D01*
X007523Y002967D01*
X007605Y002967D01*
X007605Y002763D02*
X007523Y002763D01*
X007523Y002819D02*
X007605Y002819D01*
X007605Y002875D02*
X007523Y002875D01*
X007523Y002931D02*
X007605Y002931D01*
X007802Y002967D02*
X007802Y002707D01*
X007720Y002707D01*
X007720Y002967D01*
X007802Y002967D01*
X007802Y002763D02*
X007720Y002763D01*
X007720Y002819D02*
X007802Y002819D01*
X007802Y002875D02*
X007720Y002875D01*
X007720Y002931D02*
X007802Y002931D01*
X007999Y002967D02*
X007999Y002707D01*
X007917Y002707D01*
X007917Y002967D01*
X007999Y002967D01*
X007999Y002763D02*
X007917Y002763D01*
X007917Y002819D02*
X007999Y002819D01*
X007999Y002875D02*
X007917Y002875D01*
X007917Y002931D02*
X007999Y002931D01*
X008084Y003134D02*
X008344Y003134D01*
X008344Y003052D01*
X008084Y003052D01*
X008084Y003134D01*
X008084Y003108D02*
X008344Y003108D01*
X008344Y003331D02*
X008084Y003331D01*
X008344Y003331D02*
X008344Y003249D01*
X008084Y003249D01*
X008084Y003331D01*
X008084Y003305D02*
X008344Y003305D01*
X008344Y003528D02*
X008084Y003528D01*
X008344Y003528D02*
X008344Y003446D01*
X008084Y003446D01*
X008084Y003528D01*
X008084Y003502D02*
X008344Y003502D01*
X008344Y003725D02*
X008084Y003725D01*
X008344Y003725D02*
X008344Y003643D01*
X008084Y003643D01*
X008084Y003725D01*
X008084Y003699D02*
X008344Y003699D01*
X008344Y003922D02*
X008084Y003922D01*
X008344Y003922D02*
X008344Y003840D01*
X008084Y003840D01*
X008084Y003922D01*
X008084Y003896D02*
X008344Y003896D01*
X008344Y004119D02*
X008084Y004119D01*
X008344Y004119D02*
X008344Y004037D01*
X008084Y004037D01*
X008084Y004119D01*
X008084Y004093D02*
X008344Y004093D01*
D46*
X007974Y004092D02*
X007974Y003078D01*
X007352Y003078D01*
X007352Y004092D01*
X007974Y004092D01*
X007974Y003146D02*
X007352Y003146D01*
X007352Y003214D02*
X007974Y003214D01*
X007974Y003282D02*
X007352Y003282D01*
X007352Y003350D02*
X007974Y003350D01*
X007974Y003418D02*
X007352Y003418D01*
X007352Y003486D02*
X007974Y003486D01*
X007974Y003554D02*
X007352Y003554D01*
X007352Y003622D02*
X007974Y003622D01*
X007974Y003690D02*
X007352Y003690D01*
X007352Y003758D02*
X007974Y003758D01*
X007974Y003826D02*
X007352Y003826D01*
X007352Y003894D02*
X007974Y003894D01*
X007974Y003962D02*
X007352Y003962D01*
X007352Y004030D02*
X007974Y004030D01*
D47*
X008765Y004028D02*
X009050Y004028D01*
X009050Y003971D02*
X008765Y003971D01*
X008765Y003969D02*
X009050Y003969D01*
X009050Y004127D01*
X009178Y004255D01*
X010094Y004255D01*
X010212Y004137D01*
X010212Y003969D01*
X010507Y003969D01*
X010507Y004304D01*
X010251Y004560D01*
X009011Y004560D01*
X008765Y004314D01*
X008765Y003969D01*
X008765Y004086D02*
X009050Y004086D01*
X009067Y004144D02*
X008765Y004144D01*
X008765Y004201D02*
X009125Y004201D01*
X008883Y004431D02*
X010380Y004431D01*
X010437Y004374D02*
X008825Y004374D01*
X008767Y004316D02*
X010495Y004316D01*
X010507Y004259D02*
X008765Y004259D01*
X008940Y004489D02*
X010322Y004489D01*
X010265Y004546D02*
X008998Y004546D01*
X009050Y003398D02*
X008755Y003398D01*
X008755Y003064D01*
X009011Y002808D01*
X010251Y002808D01*
X010497Y003054D01*
X010497Y003398D01*
X010212Y003398D01*
X010212Y003241D01*
X010084Y003113D01*
X009169Y003113D01*
X009050Y003231D01*
X009050Y003398D01*
X009050Y003395D02*
X008755Y003395D01*
X008755Y003338D02*
X009050Y003338D01*
X009050Y003280D02*
X008755Y003280D01*
X008755Y003223D02*
X009059Y003223D01*
X009116Y003165D02*
X008755Y003165D01*
X008755Y003108D02*
X010497Y003108D01*
X010497Y003165D02*
X010136Y003165D01*
X010194Y003223D02*
X010497Y003223D01*
X010497Y003280D02*
X010212Y003280D01*
X010212Y003338D02*
X010497Y003338D01*
X010497Y003395D02*
X010212Y003395D01*
X010493Y003050D02*
X008769Y003050D01*
X008826Y002992D02*
X010436Y002992D01*
X010378Y002935D02*
X008884Y002935D01*
X008942Y002877D02*
X010321Y002877D01*
X010263Y002820D02*
X008999Y002820D01*
X010212Y003971D02*
X010507Y003971D01*
X010507Y004028D02*
X010212Y004028D01*
X010212Y004086D02*
X010507Y004086D01*
X010507Y004144D02*
X010205Y004144D01*
X010147Y004201D02*
X010507Y004201D01*
D48*
X011058Y004472D02*
X011058Y004550D01*
X011087Y003694D02*
X011009Y003694D01*
X011009Y002925D02*
X011087Y002925D01*
X011827Y004472D02*
X011827Y004550D01*
D49*
X010146Y007500D02*
X009452Y007500D01*
X010146Y007500D02*
X010146Y006286D01*
X009452Y006286D01*
X009452Y007500D01*
X009452Y006362D02*
X010146Y006362D01*
X010146Y006438D02*
X009452Y006438D01*
X009452Y006514D02*
X010146Y006514D01*
X010146Y006590D02*
X009452Y006590D01*
X009452Y006666D02*
X010146Y006666D01*
X010146Y006742D02*
X009452Y006742D01*
X009452Y006818D02*
X010146Y006818D01*
X010146Y006894D02*
X009452Y006894D01*
X009452Y006970D02*
X010146Y006970D01*
X010146Y007046D02*
X009452Y007046D01*
X009452Y007122D02*
X010146Y007122D01*
X010146Y007198D02*
X009452Y007198D01*
X009452Y007274D02*
X010146Y007274D01*
X010146Y007350D02*
X009452Y007350D01*
X009452Y007426D02*
X010146Y007426D01*
D50*
X016205Y013545D02*
X016427Y013545D01*
X016427Y013507D01*
X016205Y013507D01*
X016205Y013545D01*
X016205Y013704D02*
X016427Y013704D01*
X016205Y013704D02*
X016205Y013742D01*
X016427Y013742D01*
X016427Y013704D01*
X016427Y013901D02*
X016205Y013901D01*
X016205Y013939D01*
X016427Y013939D01*
X016427Y013901D01*
X016427Y014098D02*
X016205Y014098D01*
X016205Y014136D01*
X016427Y014136D01*
X016427Y014098D01*
X016599Y014270D02*
X016599Y014492D01*
X016599Y014270D02*
X016561Y014270D01*
X016561Y014492D01*
X016599Y014492D01*
X016599Y014382D02*
X016561Y014382D01*
X016796Y014492D02*
X016796Y014270D01*
X016758Y014270D01*
X016758Y014492D01*
X016796Y014492D01*
X016796Y014382D02*
X016758Y014382D01*
X016993Y014492D02*
X016993Y014270D01*
X016955Y014270D01*
X016955Y014492D01*
X016993Y014492D01*
X016993Y014382D02*
X016955Y014382D01*
X017190Y014492D02*
X017190Y014270D01*
X017152Y014270D01*
X017152Y014492D01*
X017190Y014492D01*
X017190Y014382D02*
X017152Y014382D01*
X017323Y014098D02*
X017545Y014098D01*
X017323Y014098D02*
X017323Y014136D01*
X017545Y014136D01*
X017545Y014098D01*
X017545Y013901D02*
X017323Y013901D01*
X017323Y013939D01*
X017545Y013939D01*
X017545Y013901D01*
X017545Y013704D02*
X017323Y013704D01*
X017323Y013742D01*
X017545Y013742D01*
X017545Y013704D01*
X017545Y013507D02*
X017323Y013507D01*
X017323Y013545D01*
X017545Y013545D01*
X017545Y013507D01*
X017190Y013374D02*
X017190Y013152D01*
X017152Y013152D01*
X017152Y013374D01*
X017190Y013374D01*
X017190Y013264D02*
X017152Y013264D01*
X016993Y013374D02*
X016993Y013152D01*
X016955Y013152D01*
X016955Y013374D01*
X016993Y013374D01*
X016993Y013264D02*
X016955Y013264D01*
X016796Y013374D02*
X016796Y013152D01*
X016758Y013152D01*
X016758Y013374D01*
X016796Y013374D01*
X016796Y013264D02*
X016758Y013264D01*
X016599Y013374D02*
X016599Y013152D01*
X016561Y013152D01*
X016561Y013374D01*
X016599Y013374D01*
X016599Y013264D02*
X016561Y013264D01*
M02*
