G75*
G70*
%OFA0B0*%
%FSLAX24Y24*%
%IPPOS*%
%LPD*%
%AMOC8*
5,1,8,0,0,1.08239X$1,22.5*
%
%ADD10C,0.0060*%
%ADD11C,0.0050*%
%ADD12C,0.0040*%
%ADD13C,0.0090*%
%ADD14C,0.0150*%
%ADD15C,0.0059*%
%ADD16C,0.0080*%
%ADD17C,0.0120*%
%ADD18C,0.0100*%
%ADD19C,0.0028*%
%ADD20R,0.0118X0.0276*%
D10*
X003666Y003707D02*
X004182Y003707D01*
X004182Y004124D01*
X004182Y004548D02*
X004182Y004945D01*
X003666Y004945D01*
X003662Y004492D02*
X003662Y004154D01*
X003795Y003207D02*
X003852Y003151D01*
X004079Y003151D01*
X004022Y003207D02*
X004022Y003094D01*
X004022Y002962D02*
X004022Y002848D01*
X004079Y002905D02*
X003852Y002905D01*
X003795Y002962D01*
X003795Y002707D02*
X003795Y002537D01*
X003852Y002480D01*
X003908Y002537D01*
X003908Y002707D01*
X003965Y002707D02*
X003795Y002707D01*
X003965Y002707D02*
X004022Y002650D01*
X004022Y002537D01*
X004022Y002339D02*
X003965Y002282D01*
X003965Y002112D01*
X003965Y002282D02*
X003908Y002339D01*
X003852Y002339D01*
X003795Y002282D01*
X003795Y002112D01*
X004135Y002112D01*
X004135Y002282D01*
X004079Y002339D01*
X004022Y002339D01*
X006197Y006153D02*
X006923Y006153D01*
X006923Y006515D01*
X006197Y006515D01*
X006197Y006153D01*
X005693Y007525D02*
X005636Y007525D01*
X005579Y007582D01*
X005579Y007695D01*
X005523Y007752D01*
X005466Y007752D01*
X005409Y007695D01*
X005409Y007582D01*
X005466Y007525D01*
X005693Y007525D02*
X005749Y007582D01*
X005749Y007695D01*
X005693Y007752D01*
X005749Y008007D02*
X005749Y008120D01*
X005749Y008064D02*
X005466Y008064D01*
X005409Y008007D01*
X005409Y007950D01*
X005466Y007894D01*
X005409Y008262D02*
X005636Y008489D01*
X005693Y008489D01*
X005749Y008432D01*
X005749Y008319D01*
X005693Y008262D01*
X005409Y008262D02*
X005409Y008489D01*
X007614Y008528D02*
X007614Y008301D01*
X007614Y008415D02*
X007954Y008415D01*
X007841Y008301D01*
X007954Y008160D02*
X007954Y008046D01*
X007954Y008103D02*
X007671Y008103D01*
X007614Y008046D01*
X007614Y007990D01*
X007671Y007933D01*
X007671Y007791D02*
X007614Y007735D01*
X007614Y007621D01*
X007671Y007565D01*
X007784Y007621D02*
X007784Y007735D01*
X007727Y007791D01*
X007671Y007791D01*
X007784Y007621D02*
X007841Y007565D01*
X007897Y007565D01*
X007954Y007621D01*
X007954Y007735D01*
X007897Y007791D01*
X010279Y007654D02*
X010279Y008284D01*
X011739Y008284D01*
X011739Y005644D01*
X010279Y005644D01*
X010279Y006274D01*
X008423Y003154D02*
X008252Y003154D01*
X008196Y003098D01*
X008196Y002984D01*
X008252Y002928D01*
X008423Y002928D01*
X008309Y002928D02*
X008196Y002814D01*
X008054Y002814D02*
X007827Y002814D01*
X007686Y002814D02*
X007686Y003154D01*
X007516Y003154D01*
X007459Y003098D01*
X007459Y002871D01*
X007516Y002814D01*
X007686Y002814D01*
X007941Y002984D02*
X008054Y002984D01*
X008054Y003154D02*
X008054Y002814D01*
X008054Y003154D02*
X007827Y003154D01*
X008423Y003154D02*
X008423Y002814D01*
X008230Y002288D02*
X008117Y002175D01*
X008117Y001948D01*
X007976Y002005D02*
X007919Y001948D01*
X007805Y001948D01*
X007749Y002005D01*
X007607Y002061D02*
X007380Y002288D01*
X007607Y002288D02*
X007607Y001948D01*
X007551Y002118D02*
X007380Y001948D01*
X007749Y002232D02*
X007805Y002288D01*
X007919Y002288D01*
X007976Y002232D01*
X007976Y002005D01*
X008117Y002118D02*
X008344Y002118D01*
X008344Y002175D02*
X008230Y002288D01*
X008344Y002175D02*
X008344Y001948D01*
X008485Y001948D02*
X008712Y001948D01*
X008712Y002288D01*
X008854Y002232D02*
X008854Y002175D01*
X008910Y002118D01*
X009081Y002118D01*
X009081Y001948D02*
X008910Y001948D01*
X008854Y002005D01*
X008854Y002061D01*
X008910Y002118D01*
X008854Y002232D02*
X008910Y002288D01*
X009081Y002288D01*
X009081Y001948D01*
X013795Y009986D02*
X014135Y009986D01*
X014135Y010156D01*
X014079Y010213D01*
X013965Y010213D01*
X013908Y010156D01*
X013908Y009986D01*
X013908Y010099D02*
X013795Y010213D01*
X013852Y010354D02*
X013965Y010354D01*
X014022Y010411D01*
X014022Y010524D01*
X013965Y010581D01*
X013908Y010581D01*
X013908Y010354D01*
X013852Y010354D02*
X013795Y010411D01*
X013795Y010524D01*
X013795Y010722D02*
X013795Y010893D01*
X013852Y010949D01*
X013965Y010949D01*
X014022Y010893D01*
X014022Y010722D01*
X013682Y010722D01*
X013795Y011091D02*
X014022Y011091D01*
X014022Y011204D02*
X014022Y011261D01*
X014022Y011204D02*
X013908Y011091D01*
X013852Y011398D02*
X013795Y011454D01*
X013795Y011568D01*
X013852Y011625D01*
X013965Y011625D01*
X014022Y011568D01*
X014022Y011454D01*
X013965Y011398D01*
X013852Y011398D01*
X013852Y011766D02*
X013795Y011823D01*
X013795Y011993D01*
X013738Y011993D02*
X014022Y011993D01*
X014022Y011823D01*
X013965Y011766D01*
X013852Y011766D01*
X013682Y011879D02*
X013682Y011936D01*
X013738Y011993D01*
X013795Y012134D02*
X014022Y012134D01*
X013908Y012134D02*
X014022Y012248D01*
X014022Y012304D01*
X014022Y012498D02*
X014022Y012611D01*
X013965Y012668D01*
X013795Y012668D01*
X013795Y012498D01*
X013852Y012441D01*
X013908Y012498D01*
X013908Y012668D01*
X013795Y012810D02*
X014022Y012810D01*
X014022Y012866D01*
X013965Y012923D01*
X014022Y012980D01*
X013965Y013036D01*
X013795Y013036D01*
X013795Y012923D02*
X013965Y012923D01*
X014911Y013076D02*
X015161Y012826D01*
X014911Y012576D01*
X014911Y012076D01*
X015161Y011826D01*
X014911Y011576D01*
X014911Y011076D01*
X015161Y010826D01*
X014911Y010576D01*
X014911Y010076D01*
X015161Y009826D01*
X016661Y009826D01*
X016911Y010076D01*
X016911Y010576D01*
X016661Y010826D01*
X016911Y011076D01*
X016911Y011576D01*
X016661Y011826D01*
X016911Y012076D01*
X016911Y012576D01*
X016661Y012826D01*
X016911Y013076D01*
X016911Y013576D01*
X016661Y013826D01*
X015161Y013826D01*
X014911Y013576D01*
X014911Y013076D01*
X015564Y015065D02*
X015678Y015065D01*
X015735Y015121D01*
X015735Y015235D02*
X015621Y015291D01*
X015564Y015291D01*
X015508Y015235D01*
X015508Y015121D01*
X015564Y015065D01*
X015735Y015235D02*
X015735Y015405D01*
X015508Y015405D01*
X015470Y015579D02*
X016470Y015579D01*
X016487Y015581D01*
X016504Y015585D01*
X016520Y015592D01*
X016534Y015602D01*
X016547Y015615D01*
X016557Y015629D01*
X016564Y015645D01*
X016568Y015662D01*
X016570Y015679D01*
X016570Y016279D01*
X016568Y016296D01*
X016564Y016313D01*
X016557Y016329D01*
X016547Y016343D01*
X016534Y016356D01*
X016520Y016366D01*
X016504Y016373D01*
X016487Y016377D01*
X016470Y016379D01*
X015470Y016379D01*
X015453Y016377D01*
X015436Y016373D01*
X015420Y016366D01*
X015406Y016356D01*
X015393Y016343D01*
X015383Y016329D01*
X015376Y016313D01*
X015372Y016296D01*
X015370Y016279D01*
X015370Y015679D01*
X015372Y015662D01*
X015376Y015645D01*
X015383Y015629D01*
X015393Y015615D01*
X015406Y015602D01*
X015420Y015592D01*
X015436Y015585D01*
X015453Y015581D01*
X015470Y015579D01*
X015876Y015405D02*
X015989Y015405D01*
X015933Y015405D02*
X015933Y015121D01*
X015989Y015065D01*
X016046Y015065D01*
X016103Y015121D01*
X016244Y015121D02*
X016301Y015065D01*
X016415Y015065D01*
X016471Y015121D01*
X016415Y015235D02*
X016301Y015235D01*
X016244Y015178D01*
X016244Y015121D01*
X016415Y015235D02*
X016471Y015291D01*
X016471Y015348D01*
X016415Y015405D01*
X016301Y015405D01*
X016244Y015348D01*
X016669Y014307D02*
X016669Y014080D01*
X016669Y014194D02*
X017009Y014194D01*
X016896Y014080D01*
X014647Y010910D02*
X014647Y010683D01*
X014307Y010683D01*
X014307Y010542D02*
X014420Y010428D01*
X014420Y010485D02*
X014420Y010315D01*
X014307Y010315D02*
X014647Y010315D01*
X014647Y010485D01*
X014590Y010542D01*
X014477Y010542D01*
X014420Y010485D01*
X014477Y010683D02*
X014477Y010797D01*
X014420Y010173D02*
X014364Y010173D01*
X014307Y010117D01*
X014307Y010003D01*
X014364Y009946D01*
X014477Y010003D02*
X014477Y010117D01*
X014420Y010173D01*
X014590Y010173D02*
X014647Y010117D01*
X014647Y010003D01*
X014590Y009946D01*
X014534Y009946D01*
X014477Y010003D01*
X010364Y017899D02*
X009764Y017899D01*
X009747Y017901D01*
X009730Y017905D01*
X009714Y017912D01*
X009700Y017922D01*
X009687Y017935D01*
X009677Y017949D01*
X009670Y017965D01*
X009666Y017982D01*
X009664Y017999D01*
X009664Y018999D01*
X009666Y019016D01*
X009670Y019033D01*
X009677Y019049D01*
X009687Y019063D01*
X009700Y019076D01*
X009714Y019086D01*
X009730Y019093D01*
X009747Y019097D01*
X009764Y019099D01*
X010364Y019099D01*
X010381Y019097D01*
X010398Y019093D01*
X010414Y019086D01*
X010428Y019076D01*
X010441Y019063D01*
X010451Y019049D01*
X010458Y019033D01*
X010462Y019016D01*
X010464Y018999D01*
X010464Y017999D01*
X010462Y017982D01*
X010458Y017965D01*
X010451Y017949D01*
X010441Y017935D01*
X010428Y017922D01*
X010414Y017912D01*
X010398Y017905D01*
X010381Y017901D01*
X010364Y017899D01*
X007200Y021270D02*
X007200Y021870D01*
X007198Y021887D01*
X007194Y021904D01*
X007187Y021920D01*
X007177Y021934D01*
X007164Y021947D01*
X007150Y021957D01*
X007134Y021964D01*
X007117Y021968D01*
X007100Y021970D01*
X006100Y021970D01*
X006083Y021968D01*
X006066Y021964D01*
X006050Y021957D01*
X006036Y021947D01*
X006023Y021934D01*
X006013Y021920D01*
X006006Y021904D01*
X006002Y021887D01*
X006000Y021870D01*
X006000Y021270D01*
X006002Y021253D01*
X006006Y021236D01*
X006013Y021220D01*
X006023Y021206D01*
X006036Y021193D01*
X006050Y021183D01*
X006066Y021176D01*
X006083Y021172D01*
X006100Y021170D01*
X007100Y021170D01*
X007117Y021172D01*
X007134Y021176D01*
X007150Y021183D01*
X007164Y021193D01*
X007177Y021206D01*
X007187Y021220D01*
X007194Y021236D01*
X007198Y021253D01*
X007200Y021270D01*
X007160Y020649D02*
X006940Y020649D01*
X007160Y020649D02*
X007160Y020329D01*
X006260Y020649D02*
X006040Y020649D01*
X006040Y020329D01*
X004096Y018165D02*
X004096Y017939D01*
X003756Y017939D01*
X003756Y018165D01*
X003756Y018307D02*
X003982Y018307D01*
X003869Y018307D02*
X003982Y018420D01*
X003982Y018477D01*
X003982Y018671D02*
X003982Y018784D01*
X003926Y018841D01*
X003756Y018841D01*
X003756Y018671D01*
X003812Y018614D01*
X003869Y018671D01*
X003869Y018841D01*
X003926Y018982D02*
X003982Y019039D01*
X003982Y019209D01*
X003869Y019152D02*
X003812Y019209D01*
X003756Y019152D01*
X003756Y018982D01*
X003869Y019039D02*
X003926Y018982D01*
X003869Y019039D02*
X003869Y019152D01*
X003869Y019350D02*
X003869Y019577D01*
X003926Y019577D01*
X003982Y019521D01*
X003982Y019407D01*
X003926Y019350D01*
X003812Y019350D01*
X003756Y019407D01*
X003756Y019521D01*
X003926Y018052D02*
X003926Y017939D01*
X006990Y027012D02*
X006733Y027268D01*
X007247Y027782D01*
X007503Y027525D01*
X006990Y027012D01*
X006772Y029458D02*
X006772Y031467D01*
X006829Y034317D02*
X006829Y034543D01*
X006829Y034430D02*
X006715Y034543D01*
X006659Y034543D01*
X006522Y034430D02*
X006352Y034430D01*
X006295Y034487D01*
X006295Y034600D01*
X006352Y034657D01*
X006522Y034657D01*
X006522Y034317D01*
X006153Y034373D02*
X006153Y034600D01*
X006097Y034657D01*
X005983Y034657D01*
X005927Y034600D01*
X005927Y034373D01*
X005983Y034317D01*
X006097Y034317D01*
X006153Y034373D01*
X005785Y034317D02*
X005785Y034657D01*
X005615Y034657D01*
X005558Y034600D01*
X005558Y034373D01*
X005615Y034317D01*
X005785Y034317D01*
X006970Y034430D02*
X007197Y034430D01*
X007197Y034487D02*
X007140Y034543D01*
X007027Y034543D01*
X006970Y034487D01*
X006970Y034430D01*
X007027Y034317D02*
X007140Y034317D01*
X007197Y034373D01*
X007197Y034487D01*
X007338Y034543D02*
X007338Y034373D01*
X007395Y034317D01*
X007452Y034373D01*
X007509Y034317D01*
X007565Y034373D01*
X007565Y034543D01*
X007707Y034487D02*
X007763Y034543D01*
X007877Y034543D01*
X007934Y034487D01*
X007934Y034373D01*
X007877Y034317D01*
X007763Y034317D01*
X007707Y034373D01*
X007707Y034487D01*
X008075Y034487D02*
X008132Y034430D01*
X008302Y034430D01*
X008302Y034317D02*
X008302Y034657D01*
X008132Y034657D01*
X008075Y034600D01*
X008075Y034487D01*
X010015Y033294D02*
X010072Y033238D01*
X010299Y033238D01*
X010242Y033294D02*
X010242Y033181D01*
X010186Y033040D02*
X010129Y033040D01*
X010129Y032813D01*
X010186Y032813D02*
X010242Y032869D01*
X010242Y032983D01*
X010186Y033040D01*
X010015Y032983D02*
X010015Y032869D01*
X010072Y032813D01*
X010186Y032813D01*
X010186Y032671D02*
X010015Y032671D01*
X010186Y032671D02*
X010242Y032615D01*
X010242Y032444D01*
X010015Y032444D01*
X010242Y032308D02*
X010242Y032251D01*
X010129Y032137D01*
X010242Y032137D02*
X010015Y032137D01*
X010129Y031996D02*
X010129Y031769D01*
X010186Y031769D02*
X010242Y031826D01*
X010242Y031939D01*
X010186Y031996D01*
X010129Y031996D01*
X010015Y031939D02*
X010015Y031826D01*
X010072Y031769D01*
X010186Y031769D01*
X010186Y031628D02*
X010015Y031628D01*
X010186Y031628D02*
X010242Y031571D01*
X010242Y031458D01*
X010186Y031401D01*
X010242Y031269D02*
X010242Y031155D01*
X010299Y031212D02*
X010072Y031212D01*
X010015Y031269D01*
X010015Y031401D02*
X010356Y031401D01*
X010541Y031642D02*
X010541Y032142D01*
X010791Y032392D01*
X010541Y032642D01*
X010541Y033142D01*
X010791Y033392D01*
X010541Y033642D01*
X010541Y034142D01*
X010791Y034392D01*
X010541Y034642D01*
X010541Y035142D01*
X010791Y035392D01*
X010541Y035642D01*
X010541Y036142D01*
X010791Y036392D01*
X010541Y036642D01*
X010541Y037142D01*
X010791Y037392D01*
X010541Y037642D01*
X010541Y038142D01*
X010791Y038392D01*
X012291Y038392D01*
X012541Y038142D01*
X012541Y037642D01*
X012291Y037392D01*
X012541Y037142D01*
X012541Y036642D01*
X012291Y036392D01*
X012541Y036142D01*
X012541Y035642D01*
X012291Y035392D01*
X012541Y035142D01*
X012541Y034642D01*
X012291Y034392D01*
X012541Y034142D01*
X012541Y033642D01*
X012291Y033392D01*
X012541Y033142D01*
X012541Y032642D01*
X012291Y032392D01*
X012541Y032142D01*
X012541Y031642D01*
X012291Y031392D01*
X012541Y031142D01*
X012541Y030642D01*
X012291Y030392D01*
X010791Y030392D01*
X010541Y030642D01*
X010541Y031142D01*
X010791Y031392D01*
X010541Y031642D01*
X010356Y031014D02*
X010356Y030787D01*
X010015Y030787D01*
X010015Y031014D01*
X010186Y030900D02*
X010186Y030787D01*
X010244Y030528D02*
X010244Y030301D01*
X010244Y030414D02*
X010584Y030414D01*
X010471Y030301D01*
X008632Y029458D02*
X008632Y031467D01*
X013400Y037860D02*
X013456Y037917D01*
X013456Y038143D01*
X013513Y038087D02*
X013400Y038087D01*
X013655Y038030D02*
X013655Y037973D01*
X013881Y037973D01*
X013881Y037917D02*
X013881Y038030D01*
X013825Y038087D01*
X013711Y038087D01*
X013655Y038030D01*
X013711Y037860D02*
X013825Y037860D01*
X013881Y037917D01*
X014018Y037860D02*
X014188Y037973D01*
X014018Y038087D01*
X014188Y038200D02*
X014188Y037860D01*
X014330Y037860D02*
X014500Y037860D01*
X014557Y037917D01*
X014557Y038030D01*
X014500Y038087D01*
X014330Y038087D01*
X014698Y038030D02*
X014755Y038087D01*
X014868Y038087D01*
X014925Y038030D01*
X014925Y037917D01*
X014868Y037860D01*
X014755Y037860D01*
X014698Y037917D01*
X014698Y038030D01*
X015066Y037973D02*
X015066Y037917D01*
X015123Y037860D01*
X015237Y037860D01*
X015293Y037917D01*
X015237Y038030D02*
X015123Y038030D01*
X015066Y037973D01*
X015066Y038143D02*
X015123Y038200D01*
X015237Y038200D01*
X015293Y038143D01*
X015293Y038087D01*
X015237Y038030D01*
X015803Y038143D02*
X015860Y038200D01*
X016030Y038200D01*
X016030Y037860D01*
X015860Y037860D01*
X015803Y037917D01*
X015803Y038143D01*
X016171Y038143D02*
X016228Y038200D01*
X016341Y038200D01*
X016398Y038143D01*
X016398Y038087D01*
X016341Y038030D01*
X016228Y038030D01*
X016171Y037973D01*
X016171Y037917D01*
X016228Y037860D01*
X016341Y037860D01*
X016398Y037917D01*
X016540Y037917D02*
X016540Y038030D01*
X016540Y037917D02*
X016596Y037860D01*
X016653Y037860D01*
X016710Y037917D01*
X016710Y037803D01*
X016767Y037746D01*
X016710Y037917D02*
X016710Y038030D01*
X016659Y035799D02*
X016545Y035799D01*
X016602Y035799D02*
X016602Y035515D01*
X016659Y035458D01*
X016715Y035458D01*
X016772Y035515D01*
X016914Y035515D02*
X016970Y035458D01*
X017084Y035458D01*
X017141Y035515D01*
X017084Y035628D02*
X016970Y035628D01*
X016914Y035572D01*
X016914Y035515D01*
X017084Y035628D02*
X017141Y035685D01*
X017141Y035742D01*
X017084Y035799D01*
X016970Y035799D01*
X016914Y035742D01*
X016404Y035799D02*
X016177Y035799D01*
X016177Y035742D01*
X016404Y035515D01*
X016404Y035458D01*
X015428Y034775D02*
X015428Y034435D01*
X015428Y034548D02*
X015258Y034548D01*
X015201Y034605D01*
X015201Y034718D01*
X015258Y034775D01*
X015428Y034775D01*
X015314Y034548D02*
X015201Y034435D01*
X015060Y034491D02*
X015060Y034605D01*
X015003Y034662D01*
X014889Y034662D01*
X014833Y034605D01*
X014833Y034548D01*
X015060Y034548D01*
X015060Y034491D02*
X015003Y034435D01*
X014889Y034435D01*
X014691Y034435D02*
X014521Y034435D01*
X014464Y034491D01*
X014521Y034548D01*
X014635Y034548D01*
X014691Y034605D01*
X014635Y034662D01*
X014464Y034662D01*
X014323Y034605D02*
X014323Y034491D01*
X014266Y034435D01*
X014153Y034435D01*
X014096Y034548D02*
X014323Y034548D01*
X014323Y034605D02*
X014266Y034662D01*
X014153Y034662D01*
X014096Y034605D01*
X014096Y034548D01*
X013955Y034662D02*
X013841Y034662D01*
X013898Y034718D02*
X013898Y034491D01*
X013841Y034435D01*
X013791Y032392D02*
X014291Y032392D01*
X014541Y032142D01*
X014791Y032392D01*
X015291Y032392D01*
X015541Y032142D01*
X015791Y032392D01*
X016291Y032392D01*
X016541Y032142D01*
X016541Y030642D01*
X016291Y030392D01*
X015791Y030392D01*
X015541Y030642D01*
X015291Y030392D01*
X014791Y030392D01*
X014541Y030642D01*
X014291Y030392D01*
X013791Y030392D01*
X013541Y030642D01*
X013541Y032142D01*
X013791Y032392D01*
X016669Y031820D02*
X016669Y031707D01*
X016669Y031763D02*
X017009Y031763D01*
X017009Y031707D02*
X017009Y031820D01*
X016953Y031565D02*
X016839Y031565D01*
X016782Y031509D01*
X016782Y031338D01*
X016669Y031338D02*
X017009Y031338D01*
X017009Y031509D01*
X016953Y031565D01*
X016953Y031197D02*
X017009Y031140D01*
X017009Y031027D01*
X016953Y030970D01*
X016896Y030970D01*
X016839Y031027D01*
X016839Y031140D01*
X016782Y031197D01*
X016726Y031197D01*
X016669Y031140D01*
X016669Y031027D01*
X016726Y030970D01*
X016669Y030606D02*
X016669Y030380D01*
X016669Y030493D02*
X017009Y030493D01*
X016896Y030380D01*
X017730Y031797D02*
X017673Y031854D01*
X017673Y031967D01*
X017730Y032024D01*
X017786Y032024D01*
X017843Y031967D01*
X017843Y031854D01*
X017900Y031797D01*
X017957Y031797D01*
X018013Y031854D01*
X018013Y031967D01*
X017957Y032024D01*
X018013Y032279D02*
X018013Y032392D01*
X018013Y032335D02*
X017730Y032335D01*
X017673Y032279D01*
X017673Y032222D01*
X017730Y032165D01*
X017730Y032533D02*
X017673Y032590D01*
X017673Y032704D01*
X017730Y032760D01*
X017786Y032760D01*
X017843Y032704D01*
X017843Y032647D01*
X017843Y032704D02*
X017900Y032760D01*
X017957Y032760D01*
X018013Y032704D01*
X018013Y032590D01*
X017957Y032533D01*
X018168Y032818D02*
X018168Y031818D01*
X018170Y031801D01*
X018174Y031784D01*
X018181Y031768D01*
X018191Y031754D01*
X018204Y031741D01*
X018218Y031731D01*
X018234Y031724D01*
X018251Y031720D01*
X018268Y031718D01*
X018868Y031718D01*
X018885Y031720D01*
X018902Y031724D01*
X018918Y031731D01*
X018932Y031741D01*
X018945Y031754D01*
X018955Y031768D01*
X018962Y031784D01*
X018966Y031801D01*
X018968Y031818D01*
X018968Y032818D01*
X018966Y032835D01*
X018962Y032852D01*
X018955Y032868D01*
X018945Y032882D01*
X018932Y032895D01*
X018918Y032905D01*
X018902Y032912D01*
X018885Y032916D01*
X018868Y032918D01*
X018268Y032918D01*
X018251Y032916D01*
X018234Y032912D01*
X018218Y032905D01*
X018204Y032895D01*
X018191Y032882D01*
X018181Y032868D01*
X018174Y032852D01*
X018170Y032835D01*
X018168Y032818D01*
X017711Y033015D02*
X017655Y032958D01*
X017541Y032958D01*
X017485Y033015D01*
X017485Y033072D01*
X017541Y033128D01*
X017655Y033128D01*
X017711Y033185D01*
X017711Y033242D01*
X017655Y033299D01*
X017541Y033299D01*
X017485Y033242D01*
X017230Y033299D02*
X017116Y033299D01*
X017173Y033299D02*
X017173Y033015D01*
X017230Y032958D01*
X017286Y032958D01*
X017343Y033015D01*
X016975Y033015D02*
X016975Y033128D01*
X016805Y033128D01*
X016748Y033072D01*
X016748Y033015D01*
X016805Y032958D01*
X016918Y032958D01*
X016975Y033015D01*
X016975Y033128D02*
X016861Y033242D01*
X016748Y033299D01*
X019071Y031810D02*
X019071Y031448D01*
X019797Y031448D01*
X019797Y031810D01*
X019071Y031810D01*
X020683Y039395D02*
X020626Y039452D01*
X020626Y039679D01*
X020683Y039736D01*
X020796Y039736D01*
X020853Y039679D01*
X020853Y039622D01*
X020796Y039565D01*
X020626Y039565D01*
X020683Y039395D02*
X020796Y039395D01*
X020853Y039452D01*
X020994Y039395D02*
X021221Y039395D01*
X021108Y039395D02*
X021108Y039736D01*
X021221Y039622D01*
X021362Y039679D02*
X021419Y039736D01*
X021589Y039736D01*
X021589Y039395D01*
X021419Y039395D01*
X021362Y039452D01*
X021362Y039679D01*
X024324Y036783D02*
X024268Y036726D01*
X024268Y036499D01*
X024324Y036443D01*
X024494Y036443D01*
X024494Y036783D01*
X024324Y036783D01*
X024636Y036783D02*
X024636Y036443D01*
X024863Y036783D01*
X024863Y036443D01*
X025004Y036499D02*
X025004Y036613D01*
X025118Y036613D01*
X025231Y036726D02*
X025231Y036499D01*
X025174Y036443D01*
X025061Y036443D01*
X025004Y036499D01*
X025004Y036726D02*
X025061Y036783D01*
X025174Y036783D01*
X025231Y036726D01*
X025545Y031507D02*
X025488Y031451D01*
X025488Y031224D01*
X025545Y031167D01*
X025715Y031167D01*
X025715Y031507D01*
X025545Y031507D01*
X025856Y031507D02*
X025856Y031167D01*
X026083Y031507D01*
X026083Y031167D01*
X026225Y031224D02*
X026225Y031337D01*
X026338Y031337D01*
X026225Y031224D02*
X026281Y031167D01*
X026395Y031167D01*
X026452Y031224D01*
X026452Y031451D01*
X026395Y031507D01*
X026281Y031507D01*
X026225Y031451D01*
X026281Y030507D02*
X026395Y030507D01*
X026452Y030451D01*
X026452Y030224D01*
X026395Y030167D01*
X026281Y030167D01*
X026225Y030224D01*
X026225Y030451D02*
X026281Y030507D01*
X026083Y030507D02*
X025856Y030507D01*
X025970Y030507D02*
X025970Y030167D01*
X025715Y030224D02*
X025658Y030167D01*
X025545Y030167D01*
X025488Y030224D01*
X025488Y030280D01*
X025545Y030337D01*
X025658Y030337D01*
X025715Y030394D01*
X025715Y030451D01*
X025658Y030507D01*
X025545Y030507D01*
X025488Y030451D01*
X025545Y029507D02*
X025488Y029451D01*
X025488Y029394D01*
X025545Y029337D01*
X025488Y029280D01*
X025488Y029224D01*
X025545Y029167D01*
X025658Y029167D01*
X025715Y029224D01*
X025856Y029280D02*
X025856Y029507D01*
X025715Y029451D02*
X025658Y029507D01*
X025545Y029507D01*
X025545Y029337D02*
X025601Y029337D01*
X025856Y029280D02*
X025970Y029167D01*
X026083Y029280D01*
X026083Y029507D01*
X026225Y029451D02*
X026225Y029394D01*
X026281Y029337D01*
X026225Y029280D01*
X026225Y029224D01*
X026281Y029167D01*
X026395Y029167D01*
X026452Y029224D01*
X026338Y029337D02*
X026281Y029337D01*
X026225Y029451D02*
X026281Y029507D01*
X026395Y029507D01*
X026452Y029451D01*
X026452Y028507D02*
X026281Y028507D01*
X026225Y028451D01*
X026225Y028337D01*
X026281Y028280D01*
X026452Y028280D01*
X026452Y028167D02*
X026452Y028507D01*
X026338Y028280D02*
X026225Y028167D01*
X026083Y028167D02*
X025856Y028507D01*
X026083Y028507D02*
X025856Y028167D01*
X025856Y027507D02*
X026083Y027167D01*
X025856Y027167D02*
X026083Y027507D01*
X026225Y027507D02*
X026452Y027507D01*
X026338Y027507D02*
X026338Y027167D01*
X026281Y026507D02*
X026452Y026507D01*
X026452Y026167D01*
X026281Y026167D01*
X026225Y026224D01*
X026225Y026451D01*
X026281Y026507D01*
X026083Y026507D02*
X025856Y026507D01*
X025970Y026507D02*
X025970Y026167D01*
X025715Y026167D02*
X025715Y026507D01*
X025545Y026507D01*
X025488Y026451D01*
X025488Y026337D01*
X025545Y026280D01*
X025715Y026280D01*
X025601Y026280D02*
X025488Y026167D01*
X025636Y022378D02*
X025806Y022378D01*
X025863Y022321D01*
X025863Y022208D01*
X025806Y022151D01*
X025636Y022151D01*
X025636Y022094D02*
X025636Y022378D01*
X025636Y022094D02*
X025693Y022038D01*
X025750Y022038D01*
X026005Y022151D02*
X026175Y022151D01*
X026231Y022208D01*
X026175Y022265D01*
X026005Y022265D01*
X026005Y022321D02*
X026005Y022151D01*
X026005Y022321D02*
X026061Y022378D01*
X026175Y022378D01*
X026364Y022378D02*
X026477Y022378D01*
X026420Y022435D02*
X026420Y022208D01*
X026364Y022151D01*
X026675Y022208D02*
X026675Y022491D01*
X026732Y022491D02*
X026618Y022491D01*
X026675Y022208D02*
X026732Y022151D01*
X026789Y022151D01*
X026845Y022208D01*
X020664Y017027D02*
X020664Y016664D01*
X019937Y016664D01*
X019937Y017027D01*
X020664Y017027D01*
X022481Y006854D02*
X022481Y006128D01*
X022844Y006128D01*
X022844Y006854D01*
X022481Y006854D01*
X023402Y003680D02*
X024128Y003680D01*
X024128Y003318D01*
X023402Y003318D01*
X023402Y003680D01*
X025190Y002531D02*
X025190Y002191D01*
X025134Y002361D02*
X025361Y002361D01*
X025190Y002531D01*
X025502Y002531D02*
X025615Y002531D01*
X025559Y002531D02*
X025559Y002247D01*
X025615Y002191D01*
X025672Y002191D01*
X025729Y002247D01*
X025870Y002247D02*
X025927Y002191D01*
X026040Y002191D01*
X026097Y002247D01*
X026040Y002361D02*
X025927Y002361D01*
X025870Y002304D01*
X025870Y002247D01*
X026040Y002361D02*
X026097Y002417D01*
X026097Y002474D01*
X026040Y002531D01*
X025927Y002531D01*
X025870Y002474D01*
X008578Y039356D02*
X008407Y039356D01*
X008351Y039413D01*
X008351Y039639D01*
X008407Y039696D01*
X008578Y039696D01*
X008578Y039356D01*
X008209Y039356D02*
X007982Y039356D01*
X008096Y039356D02*
X008096Y039696D01*
X008209Y039583D01*
X007841Y039583D02*
X007841Y039639D01*
X007784Y039696D01*
X007671Y039696D01*
X007614Y039639D01*
X007614Y039583D01*
X007671Y039526D01*
X007784Y039526D01*
X007841Y039583D01*
X007784Y039526D02*
X007841Y039469D01*
X007841Y039413D01*
X007784Y039356D01*
X007671Y039356D01*
X007614Y039413D01*
X007614Y039469D01*
X007671Y039526D01*
X002790Y039452D02*
X002733Y039395D01*
X002620Y039395D01*
X002563Y039452D01*
X002563Y039509D01*
X002620Y039565D01*
X002677Y039565D01*
X002620Y039565D02*
X002563Y039622D01*
X002563Y039679D01*
X002620Y039736D01*
X002733Y039736D01*
X002790Y039679D01*
X002422Y039736D02*
X002422Y039509D01*
X002308Y039395D01*
X002195Y039509D01*
X002195Y039736D01*
X002053Y039679D02*
X001997Y039736D01*
X001883Y039736D01*
X001827Y039679D01*
X001827Y039622D01*
X001883Y039565D01*
X001827Y039509D01*
X001827Y039452D01*
X001883Y039395D01*
X001997Y039395D01*
X002053Y039452D01*
X001940Y039565D02*
X001883Y039565D01*
D11*
X005689Y032981D02*
X005689Y032711D01*
X005779Y032711D02*
X005599Y032711D01*
X005779Y032891D02*
X005689Y032981D01*
X005893Y032936D02*
X005938Y032981D01*
X006028Y032981D01*
X006073Y032936D01*
X006073Y032756D01*
X006028Y032711D01*
X005938Y032711D01*
X005893Y032756D01*
X006188Y032711D02*
X006188Y032891D01*
X006278Y032981D01*
X006368Y032891D01*
X006368Y032711D01*
X006483Y032756D02*
X006483Y032936D01*
X006528Y032981D01*
X006663Y032981D01*
X006663Y032711D01*
X006528Y032711D01*
X006483Y032756D01*
X006368Y032846D02*
X006188Y032846D01*
X006278Y031981D02*
X006188Y031891D01*
X006188Y031711D01*
X006073Y031756D02*
X006028Y031711D01*
X005938Y031711D01*
X005893Y031756D01*
X005779Y031756D02*
X005599Y031936D01*
X005599Y031756D01*
X005644Y031711D01*
X005734Y031711D01*
X005779Y031756D01*
X005779Y031936D01*
X005734Y031981D01*
X005644Y031981D01*
X005599Y031936D01*
X005893Y031936D02*
X005938Y031981D01*
X006028Y031981D01*
X006073Y031936D01*
X006073Y031756D01*
X006188Y031846D02*
X006368Y031846D01*
X006368Y031891D02*
X006278Y031981D01*
X006368Y031891D02*
X006368Y031711D01*
X006483Y031756D02*
X006483Y031936D01*
X006528Y031981D01*
X006663Y031981D01*
X006663Y031711D01*
X006528Y031711D01*
X006483Y031756D01*
X005836Y031191D02*
X005836Y031011D01*
X005701Y031011D01*
X005746Y031101D01*
X005746Y031146D01*
X005701Y031191D01*
X005611Y031191D01*
X005566Y031146D01*
X005566Y031056D01*
X005611Y031011D01*
X005566Y030897D02*
X005746Y030897D01*
X005836Y030807D01*
X005746Y030717D01*
X005566Y030717D01*
X005701Y030717D02*
X005701Y030897D01*
X005701Y030191D02*
X005701Y030011D01*
X005836Y030146D01*
X005566Y030146D01*
X005566Y029897D02*
X005746Y029897D01*
X005836Y029807D01*
X005746Y029717D01*
X005566Y029717D01*
X005701Y029717D02*
X005701Y029897D01*
X005746Y029191D02*
X005701Y029146D01*
X005656Y029191D01*
X005611Y029191D01*
X005566Y029146D01*
X005566Y029056D01*
X005611Y029011D01*
X005566Y028897D02*
X005746Y028897D01*
X005836Y028807D01*
X005746Y028717D01*
X005566Y028717D01*
X005701Y028717D02*
X005701Y028897D01*
X005791Y029011D02*
X005836Y029056D01*
X005836Y029146D01*
X005791Y029191D01*
X005746Y029191D01*
X005701Y029146D02*
X005701Y029101D01*
X005746Y028191D02*
X005566Y028011D01*
X005566Y028191D01*
X005746Y028191D02*
X005791Y028191D01*
X005836Y028146D01*
X005836Y028056D01*
X005791Y028011D01*
X005746Y027897D02*
X005566Y027897D01*
X005701Y027897D02*
X005701Y027717D01*
X005746Y027717D02*
X005566Y027717D01*
X005746Y027717D02*
X005836Y027807D01*
X005746Y027897D01*
X005566Y027191D02*
X005566Y027011D01*
X005566Y027101D02*
X005836Y027101D01*
X005746Y027011D01*
X005746Y026897D02*
X005566Y026897D01*
X005701Y026897D02*
X005701Y026717D01*
X005746Y026717D02*
X005566Y026717D01*
X005746Y026717D02*
X005836Y026807D01*
X005746Y026897D01*
X005791Y026191D02*
X005611Y026011D01*
X005566Y026056D01*
X005566Y026146D01*
X005611Y026191D01*
X005791Y026191D01*
X005836Y026146D01*
X005836Y026056D01*
X005791Y026011D01*
X005611Y026011D01*
X005566Y025897D02*
X005746Y025897D01*
X005836Y025807D01*
X005746Y025717D01*
X005566Y025717D01*
X005701Y025717D02*
X005701Y025897D01*
X005566Y024170D02*
X005836Y024170D01*
X005836Y023990D02*
X005566Y023990D01*
X005566Y023883D02*
X005566Y023793D01*
X005566Y023838D02*
X005836Y023838D01*
X005836Y023793D02*
X005836Y023883D01*
X005836Y023990D02*
X005566Y024170D01*
X005656Y023679D02*
X005836Y023679D01*
X005656Y023679D02*
X005566Y023589D01*
X005656Y023499D01*
X005836Y023499D01*
X005791Y022690D02*
X005611Y022690D01*
X005566Y022645D01*
X005566Y022510D01*
X005836Y022510D01*
X005836Y022645D01*
X005791Y022690D01*
X005836Y022395D02*
X005566Y022395D01*
X005836Y022215D01*
X005566Y022215D01*
X005611Y022101D02*
X005701Y022101D01*
X005701Y022011D01*
X005791Y022101D02*
X005836Y022056D01*
X005836Y021966D01*
X005791Y021921D01*
X005611Y021921D01*
X005566Y021966D01*
X005566Y022056D01*
X005611Y022101D01*
X006081Y022152D02*
X006126Y022107D01*
X006217Y022107D01*
X006262Y022152D01*
X006081Y022332D01*
X006081Y022152D01*
X006081Y022332D02*
X006126Y022377D01*
X006217Y022377D01*
X006262Y022332D01*
X006262Y022152D01*
X006376Y022107D02*
X006556Y022107D01*
X006466Y022107D02*
X006466Y022377D01*
X006556Y022287D01*
X006671Y022377D02*
X006761Y022377D01*
X006716Y022377D02*
X006716Y022152D01*
X006761Y022107D01*
X006806Y022107D01*
X006851Y022152D01*
X006965Y022152D02*
X007010Y022107D01*
X007100Y022107D01*
X007146Y022152D01*
X007100Y022242D02*
X007010Y022242D01*
X006965Y022197D01*
X006965Y022152D01*
X007100Y022242D02*
X007146Y022287D01*
X007146Y022332D01*
X007100Y022377D01*
X007010Y022377D01*
X006965Y022332D01*
X007641Y023367D02*
X007731Y023367D01*
X007776Y023412D01*
X007891Y023367D02*
X008071Y023367D01*
X007891Y023547D01*
X007891Y023592D01*
X007936Y023637D01*
X008026Y023637D01*
X008071Y023592D01*
X007776Y023592D02*
X007731Y023637D01*
X007641Y023637D01*
X007596Y023592D01*
X007596Y023547D01*
X007641Y023502D01*
X007596Y023457D01*
X007596Y023412D01*
X007641Y023367D01*
X007641Y023502D02*
X007686Y023502D01*
X007401Y024390D02*
X007221Y024570D01*
X007221Y024615D01*
X007266Y024661D01*
X007356Y024661D01*
X007401Y024615D01*
X007401Y024390D02*
X007221Y024390D01*
X007107Y024390D02*
X006927Y024570D01*
X006927Y024615D01*
X006972Y024661D01*
X007062Y024661D01*
X007107Y024615D01*
X007107Y024390D02*
X006927Y024390D01*
X008226Y024525D02*
X008406Y024525D01*
X008271Y024661D01*
X008271Y024390D01*
X008520Y024390D02*
X008701Y024390D01*
X008520Y024570D01*
X008520Y024615D01*
X008566Y024661D01*
X008656Y024661D01*
X008701Y024615D01*
X010379Y021531D02*
X010379Y021137D01*
X010773Y021137D01*
X008780Y018320D02*
X008690Y018229D01*
X008735Y018115D02*
X008554Y017935D01*
X008509Y017980D01*
X008509Y018070D01*
X008554Y018115D01*
X008735Y018115D01*
X008780Y018070D01*
X008780Y017980D01*
X008735Y017935D01*
X008554Y017935D01*
X008509Y017820D02*
X008509Y017640D01*
X008509Y017730D02*
X008780Y017730D01*
X008690Y017640D01*
X008509Y017526D02*
X008509Y017346D01*
X008780Y017346D01*
X008347Y017346D02*
X008076Y017346D01*
X008076Y017526D01*
X008076Y017640D02*
X008076Y017820D01*
X008076Y017730D02*
X008347Y017730D01*
X008256Y017640D01*
X008301Y017935D02*
X008347Y017980D01*
X008347Y018070D01*
X008301Y018115D01*
X008121Y017935D01*
X008076Y017980D01*
X008076Y018070D01*
X008121Y018115D01*
X008301Y018115D01*
X008301Y018229D02*
X008347Y018275D01*
X008347Y018365D01*
X008301Y018410D01*
X008256Y018410D01*
X008211Y018365D01*
X008166Y018410D01*
X008121Y018410D01*
X008076Y018365D01*
X008076Y018275D01*
X008121Y018229D01*
X008211Y018320D02*
X008211Y018365D01*
X008509Y018410D02*
X008509Y018229D01*
X008509Y018320D02*
X008780Y018320D01*
X008301Y017935D02*
X008121Y017935D01*
X006887Y018017D02*
X006797Y018017D01*
X006842Y018017D02*
X006842Y017747D01*
X006887Y017747D02*
X006797Y017747D01*
X006690Y017792D02*
X006645Y017747D01*
X006555Y017747D01*
X006510Y017792D01*
X006510Y017972D01*
X006555Y018017D01*
X006645Y018017D01*
X006690Y017972D01*
X006690Y017792D01*
X006396Y017837D02*
X006260Y017837D01*
X006215Y017882D01*
X006215Y017972D01*
X006260Y018017D01*
X006396Y018017D01*
X006396Y017747D01*
X006306Y017837D02*
X006215Y017747D01*
X006101Y017747D02*
X005921Y017747D01*
X005806Y017747D02*
X005806Y018017D01*
X005626Y018017D01*
X005716Y017882D02*
X005806Y017882D01*
X005921Y018017D02*
X006101Y018017D01*
X006101Y017747D01*
X006101Y017882D02*
X006011Y017882D01*
X005966Y018747D02*
X006056Y018747D01*
X006101Y018792D01*
X006056Y018882D02*
X005966Y018882D01*
X005921Y018837D01*
X005921Y018792D01*
X005966Y018747D01*
X006056Y018882D02*
X006101Y018927D01*
X006101Y018972D01*
X006056Y019017D01*
X005966Y019017D01*
X005921Y018972D01*
X005806Y019017D02*
X005626Y019017D01*
X005716Y019017D02*
X005716Y018747D01*
X005791Y019549D02*
X005836Y019594D01*
X005836Y019684D01*
X005791Y019729D01*
X005746Y019729D01*
X005701Y019684D01*
X005656Y019729D01*
X005611Y019729D01*
X005566Y019684D01*
X005566Y019594D01*
X005611Y019549D01*
X005701Y019639D02*
X005701Y019684D01*
X005656Y019843D02*
X005566Y019933D01*
X005656Y020023D01*
X005836Y020023D01*
X005791Y020138D02*
X005836Y020183D01*
X005836Y020273D01*
X005791Y020318D01*
X005746Y020318D01*
X005701Y020273D01*
X005656Y020318D01*
X005611Y020318D01*
X005566Y020273D01*
X005566Y020183D01*
X005611Y020138D01*
X005701Y020228D02*
X005701Y020273D01*
X005701Y020649D02*
X005746Y020739D01*
X005746Y020784D01*
X005701Y020829D01*
X005611Y020829D01*
X005566Y020784D01*
X005566Y020694D01*
X005611Y020649D01*
X005701Y020649D02*
X005836Y020649D01*
X005836Y020829D01*
X005836Y020943D02*
X005656Y020943D01*
X005566Y021033D01*
X005656Y021123D01*
X005836Y021123D01*
X005791Y021238D02*
X005836Y021283D01*
X005836Y021373D01*
X005791Y021418D01*
X005611Y021238D01*
X005566Y021283D01*
X005566Y021373D01*
X005611Y021418D01*
X005791Y021418D01*
X005791Y021238D02*
X005611Y021238D01*
X005656Y019843D02*
X005836Y019843D01*
X006260Y019017D02*
X006215Y018972D01*
X006215Y018882D01*
X006260Y018837D01*
X006396Y018837D01*
X006396Y018747D02*
X006396Y019017D01*
X006260Y019017D01*
X006306Y018837D02*
X006215Y018747D01*
X006235Y016275D02*
X006145Y016275D01*
X006100Y016230D01*
X006100Y016185D01*
X006145Y016140D01*
X006100Y016095D01*
X006100Y016049D01*
X006145Y016004D01*
X006235Y016004D01*
X006280Y016049D01*
X006395Y016049D02*
X006440Y016004D01*
X006530Y016004D01*
X006575Y016049D01*
X006575Y016230D01*
X006530Y016275D01*
X006440Y016275D01*
X006395Y016230D01*
X006280Y016230D02*
X006235Y016275D01*
X006190Y016140D02*
X006145Y016140D01*
X006681Y016275D02*
X006772Y016275D01*
X006726Y016275D02*
X006726Y016004D01*
X006681Y016004D02*
X006772Y016004D01*
X005911Y015231D02*
X005497Y015231D01*
X005497Y014444D01*
X005497Y014129D02*
X005497Y010074D01*
X005497Y009759D02*
X005497Y008972D01*
X005911Y008972D01*
X005498Y009759D02*
X005496Y009798D01*
X005490Y009836D01*
X005481Y009873D01*
X005468Y009910D01*
X005451Y009945D01*
X005432Y009978D01*
X005409Y010009D01*
X005383Y010038D01*
X005354Y010064D01*
X005323Y010087D01*
X005290Y010106D01*
X005255Y010123D01*
X005218Y010136D01*
X005181Y010145D01*
X005143Y010151D01*
X005104Y010153D01*
X001419Y010153D01*
X001419Y014050D01*
X005104Y014050D01*
X005143Y014052D01*
X005181Y014058D01*
X005218Y014067D01*
X005255Y014080D01*
X005290Y014097D01*
X005323Y014116D01*
X005354Y014139D01*
X005383Y014165D01*
X005409Y014194D01*
X005432Y014225D01*
X005451Y014258D01*
X005468Y014293D01*
X005481Y014330D01*
X005490Y014367D01*
X005496Y014405D01*
X005498Y014444D01*
X005157Y015768D02*
X005157Y015948D01*
X005067Y016038D01*
X004977Y015948D01*
X004977Y015768D01*
X004863Y015768D02*
X004863Y016038D01*
X004683Y015768D01*
X004683Y016038D01*
X004568Y016038D02*
X004388Y016038D01*
X004478Y016038D02*
X004478Y015768D01*
X004977Y015903D02*
X005157Y015903D01*
X003616Y009930D02*
X003391Y009930D01*
X003346Y009884D01*
X003346Y009839D01*
X003436Y009794D02*
X003436Y009930D01*
X003436Y009794D02*
X003481Y009749D01*
X003616Y009749D01*
X003616Y009639D02*
X003616Y009594D01*
X003526Y009504D01*
X003436Y009504D02*
X003616Y009504D01*
X003571Y009389D02*
X003526Y009389D01*
X003526Y009209D01*
X003571Y009209D02*
X003616Y009254D01*
X003616Y009344D01*
X003571Y009389D01*
X003436Y009344D02*
X003436Y009254D01*
X003481Y009209D01*
X003571Y009209D01*
X003616Y009103D02*
X003616Y009013D01*
X003661Y009058D02*
X003481Y009058D01*
X003436Y009103D01*
X003436Y008906D02*
X003481Y008861D01*
X003661Y008861D01*
X003616Y008816D02*
X003616Y008906D01*
X003571Y008702D02*
X003436Y008702D01*
X003436Y008567D01*
X003481Y008522D01*
X003526Y008567D01*
X003526Y008702D01*
X003571Y008702D02*
X003616Y008657D01*
X003616Y008567D01*
X003616Y008407D02*
X003571Y008362D01*
X003571Y008227D01*
X003706Y008227D02*
X003706Y008362D01*
X003661Y008407D01*
X003616Y008407D01*
X003571Y008362D02*
X003526Y008407D01*
X003481Y008407D01*
X003436Y008362D01*
X003436Y008227D01*
X003706Y008227D01*
X003706Y008112D02*
X003436Y007932D01*
X003436Y007818D02*
X003571Y007818D01*
X003616Y007773D01*
X003616Y007638D01*
X003436Y007638D01*
X003481Y007523D02*
X003436Y007478D01*
X003436Y007388D01*
X003481Y007343D01*
X003661Y007343D01*
X003706Y007388D01*
X003706Y007478D01*
X003661Y007523D01*
X003481Y007523D01*
X004577Y007439D02*
X004622Y007484D01*
X004803Y007484D01*
X004848Y007439D01*
X004848Y007349D01*
X004803Y007304D01*
X004622Y007304D01*
X004577Y007349D01*
X004577Y007439D01*
X004577Y007643D02*
X004803Y007643D01*
X004848Y007688D01*
X004713Y007688D02*
X004713Y007598D01*
X004713Y007795D02*
X004713Y007885D01*
X004803Y007840D02*
X004848Y007885D01*
X004803Y007840D02*
X004577Y007840D01*
X004577Y007991D02*
X004848Y008171D01*
X004848Y008286D02*
X004622Y008286D01*
X004577Y008331D01*
X004577Y008421D01*
X004622Y008466D01*
X004848Y008466D01*
X004803Y008580D02*
X004758Y008580D01*
X004713Y008626D01*
X004713Y008716D01*
X004667Y008761D01*
X004622Y008761D01*
X004577Y008716D01*
X004577Y008626D01*
X004622Y008580D01*
X004803Y008580D02*
X004848Y008626D01*
X004848Y008716D01*
X004803Y008761D01*
X004848Y008875D02*
X004848Y009010D01*
X004803Y009055D01*
X004758Y009055D01*
X004713Y009010D01*
X004713Y008875D01*
X004848Y008875D02*
X004577Y008875D01*
X004577Y009010D01*
X004622Y009055D01*
X004667Y009055D01*
X004713Y009010D01*
X004010Y005527D02*
X004055Y005482D01*
X004055Y005437D01*
X004010Y005392D01*
X003920Y005392D01*
X003875Y005346D01*
X003875Y005301D01*
X003920Y005256D01*
X004010Y005256D01*
X004055Y005301D01*
X004010Y005527D02*
X003920Y005527D01*
X003875Y005482D01*
X003760Y005482D02*
X003760Y005437D01*
X003715Y005392D01*
X003625Y005392D01*
X003580Y005346D01*
X003580Y005301D01*
X003625Y005256D01*
X003715Y005256D01*
X003760Y005301D01*
X003760Y005346D01*
X003715Y005392D01*
X003625Y005392D02*
X003580Y005437D01*
X003580Y005482D01*
X003625Y005527D01*
X003715Y005527D01*
X003760Y005482D01*
X004649Y001393D02*
X004604Y001348D01*
X004604Y001303D01*
X004649Y001258D01*
X004739Y001258D01*
X004784Y001303D01*
X004784Y001348D01*
X004739Y001393D01*
X004649Y001393D01*
X004649Y001258D02*
X004604Y001213D01*
X004604Y001168D01*
X004649Y001123D01*
X004739Y001123D01*
X004784Y001168D01*
X004784Y001213D01*
X004739Y001258D01*
X004898Y001393D02*
X004989Y001393D01*
X004943Y001393D02*
X004943Y001168D01*
X004989Y001123D01*
X005034Y001123D01*
X005079Y001168D01*
X007090Y006910D02*
X007180Y006910D01*
X007225Y006955D01*
X007225Y007000D01*
X007180Y007045D01*
X007090Y007045D01*
X007045Y007000D01*
X007045Y006955D01*
X007090Y006910D01*
X007090Y007045D02*
X007045Y007090D01*
X007045Y007135D01*
X007090Y007180D01*
X007180Y007180D01*
X007225Y007135D01*
X007225Y007090D01*
X007180Y007045D01*
X007339Y006955D02*
X007384Y006910D01*
X007474Y006910D01*
X007520Y006955D01*
X007520Y007135D01*
X007474Y007180D01*
X007384Y007180D01*
X007339Y007135D01*
X007339Y006955D01*
X007339Y006910D02*
X007429Y007000D01*
X009484Y006028D02*
X009484Y005983D01*
X009529Y005938D01*
X009620Y005938D01*
X009665Y005983D01*
X009665Y006028D01*
X009620Y006073D01*
X009529Y006073D01*
X009484Y006028D01*
X009529Y005938D02*
X009484Y005893D01*
X009484Y005848D01*
X009529Y005803D01*
X009620Y005803D01*
X009665Y005848D01*
X009665Y005893D01*
X009620Y005938D01*
X009779Y006028D02*
X009824Y006073D01*
X009914Y006073D01*
X009959Y006028D01*
X009959Y005848D01*
X009914Y005803D01*
X009824Y005803D01*
X009779Y005848D01*
X010066Y005803D02*
X010156Y005803D01*
X010111Y005803D02*
X010111Y006073D01*
X010156Y006073D02*
X010066Y006073D01*
X011375Y008972D02*
X011836Y008972D01*
X011836Y009365D01*
X014052Y006786D02*
X014052Y006516D01*
X014097Y006516D02*
X014007Y006516D01*
X014211Y006606D02*
X014391Y006606D01*
X014391Y006561D02*
X014391Y006651D01*
X014346Y006696D01*
X014256Y006696D01*
X014211Y006651D01*
X014211Y006606D01*
X014256Y006516D02*
X014346Y006516D01*
X014391Y006561D01*
X014506Y006516D02*
X014641Y006516D01*
X014686Y006561D01*
X014686Y006651D01*
X014641Y006696D01*
X014506Y006696D01*
X014801Y006696D02*
X014936Y006696D01*
X014981Y006651D01*
X014981Y006561D01*
X014936Y006516D01*
X014801Y006516D01*
X015095Y006516D02*
X015095Y006696D01*
X015185Y006786D01*
X015275Y006696D01*
X015275Y006516D01*
X015275Y006651D02*
X015095Y006651D01*
X014891Y006899D02*
X014846Y006899D01*
X014801Y006944D01*
X014801Y007169D01*
X014686Y007169D02*
X014686Y006989D01*
X014686Y007079D02*
X014596Y007169D01*
X014551Y007169D01*
X014441Y007124D02*
X014441Y007034D01*
X014396Y006989D01*
X014305Y006989D01*
X014260Y007034D01*
X014260Y007124D01*
X014305Y007169D01*
X014396Y007169D01*
X014441Y007124D01*
X014801Y006989D02*
X014936Y006989D01*
X014981Y007034D01*
X014981Y007169D01*
X015095Y007214D02*
X015140Y007259D01*
X015230Y007259D01*
X015275Y007214D01*
X015275Y007034D01*
X015230Y006989D01*
X015140Y006989D01*
X015095Y007034D01*
X015095Y007124D01*
X015185Y007124D01*
X015576Y007121D02*
X015576Y007239D01*
X015694Y007239D01*
X015576Y005704D02*
X015576Y005586D01*
X015694Y005586D01*
X017111Y005586D02*
X017230Y005586D01*
X017230Y005704D01*
X017530Y006123D02*
X017530Y006213D01*
X017530Y006168D02*
X017800Y006168D01*
X017800Y006123D02*
X017800Y006213D01*
X017755Y006319D02*
X017575Y006319D01*
X017530Y006364D01*
X017530Y006454D01*
X017575Y006499D01*
X017530Y006614D02*
X017710Y006794D01*
X017755Y006794D01*
X017800Y006749D01*
X017800Y006659D01*
X017755Y006614D01*
X017755Y006499D02*
X017800Y006454D01*
X017800Y006364D01*
X017755Y006319D01*
X017530Y006614D02*
X017530Y006794D01*
X017230Y007121D02*
X017111Y007239D01*
X017079Y007113D02*
X017081Y007123D01*
X017086Y007131D01*
X017094Y007136D01*
X017104Y007138D01*
X017114Y007136D01*
X017122Y007131D01*
X017127Y007123D01*
X017129Y007113D01*
X017127Y007103D01*
X017122Y007095D01*
X017114Y007090D01*
X017104Y007088D01*
X017094Y007090D01*
X017086Y007095D01*
X017081Y007103D01*
X017079Y007113D01*
X017737Y005555D02*
X017872Y005555D01*
X017917Y005510D01*
X017872Y005465D01*
X017782Y005465D01*
X017737Y005420D01*
X017782Y005375D01*
X017917Y005375D01*
X018031Y005420D02*
X018077Y005465D01*
X018167Y005465D01*
X018212Y005510D01*
X018167Y005555D01*
X018031Y005555D01*
X018031Y005420D02*
X018077Y005375D01*
X018212Y005375D01*
X018326Y005375D02*
X018461Y005375D01*
X018506Y005420D01*
X018461Y005465D01*
X018326Y005465D01*
X018326Y005510D02*
X018326Y005375D01*
X018326Y005510D02*
X018371Y005555D01*
X018461Y005555D01*
X018621Y005510D02*
X018621Y005420D01*
X018666Y005375D01*
X018801Y005375D01*
X018801Y005284D02*
X018801Y005555D01*
X018666Y005555D01*
X018621Y005510D01*
X018915Y005510D02*
X018915Y005375D01*
X019006Y005375D02*
X019006Y005510D01*
X018960Y005555D01*
X018915Y005510D01*
X019006Y005510D02*
X019051Y005555D01*
X019096Y005555D01*
X019096Y005375D01*
X019210Y005420D02*
X019210Y005510D01*
X019255Y005555D01*
X019345Y005555D01*
X019390Y005510D01*
X019390Y005420D01*
X019345Y005375D01*
X019255Y005375D01*
X019210Y005420D01*
X019505Y005420D02*
X019550Y005375D01*
X019640Y005375D01*
X019685Y005420D01*
X019685Y005600D01*
X019640Y005645D01*
X019550Y005645D01*
X019505Y005600D01*
X019459Y006083D02*
X019459Y006173D01*
X019459Y006128D02*
X019730Y006128D01*
X019730Y006083D02*
X019730Y006173D01*
X019684Y006280D02*
X019504Y006280D01*
X019459Y006325D01*
X019459Y006415D01*
X019504Y006460D01*
X019504Y006574D02*
X019459Y006574D01*
X019504Y006574D02*
X019684Y006754D01*
X019730Y006754D01*
X019730Y006574D01*
X019684Y006460D02*
X019730Y006415D01*
X019730Y006325D01*
X019684Y006280D01*
X022207Y009267D02*
X022297Y009267D01*
X022342Y009312D01*
X022456Y009267D02*
X022636Y009267D01*
X022636Y009312D01*
X022456Y009492D01*
X022456Y009537D01*
X022636Y009537D01*
X022342Y009492D02*
X022297Y009537D01*
X022207Y009537D01*
X022162Y009492D01*
X022162Y009447D01*
X022207Y009402D01*
X022162Y009357D01*
X022162Y009312D01*
X022207Y009267D01*
X022207Y009402D02*
X022252Y009402D01*
X022176Y010021D02*
X022131Y010021D01*
X022131Y010202D01*
X022131Y010316D02*
X022131Y010496D01*
X022131Y010406D02*
X022402Y010406D01*
X022312Y010316D01*
X022357Y010202D02*
X022176Y010021D01*
X022402Y010021D02*
X022402Y010202D01*
X022357Y010202D01*
X022441Y011006D02*
X022441Y011186D01*
X022396Y011186D01*
X022216Y011006D01*
X022171Y011006D01*
X022171Y011186D01*
X022171Y011300D02*
X022351Y011480D01*
X022396Y011480D01*
X022441Y011435D01*
X022441Y011345D01*
X022396Y011300D01*
X022171Y011300D02*
X022171Y011480D01*
X022813Y013067D02*
X022993Y013067D01*
X022993Y013337D01*
X023108Y013292D02*
X023153Y013337D01*
X023243Y013337D01*
X023288Y013292D01*
X023288Y013112D01*
X023243Y013067D01*
X023153Y013067D01*
X023108Y013112D01*
X023402Y013112D02*
X023447Y013067D01*
X023537Y013067D01*
X023583Y013112D01*
X023537Y013202D02*
X023447Y013202D01*
X023402Y013157D01*
X023402Y013112D01*
X023537Y013202D02*
X023583Y013247D01*
X023583Y013292D01*
X023537Y013337D01*
X023447Y013337D01*
X023402Y013292D01*
X023447Y014067D02*
X023537Y014067D01*
X023583Y014112D01*
X023537Y014202D02*
X023447Y014202D01*
X023402Y014157D01*
X023402Y014112D01*
X023447Y014067D01*
X023288Y014067D02*
X023153Y014067D01*
X023108Y014112D01*
X023108Y014292D01*
X023153Y014337D01*
X023288Y014337D01*
X023288Y014067D01*
X023402Y014292D02*
X023447Y014337D01*
X023537Y014337D01*
X023583Y014292D01*
X023583Y014247D01*
X023537Y014202D01*
X022993Y014202D02*
X022813Y014202D01*
X022813Y014247D02*
X022813Y014067D01*
X022813Y014247D02*
X022903Y014337D01*
X022993Y014247D01*
X022993Y014067D01*
X022948Y015067D02*
X022993Y015112D01*
X022993Y015202D01*
X022948Y015247D01*
X022858Y015247D01*
X022813Y015202D01*
X022813Y015157D01*
X022993Y015157D01*
X022948Y015067D02*
X022858Y015067D01*
X022654Y015067D02*
X022654Y015292D01*
X022608Y015337D01*
X022608Y015202D02*
X022699Y015202D01*
X023108Y015202D02*
X023153Y015157D01*
X023288Y015157D01*
X023198Y015157D02*
X023108Y015067D01*
X023108Y015202D02*
X023108Y015292D01*
X023153Y015337D01*
X023288Y015337D01*
X023288Y015067D01*
X023402Y015067D02*
X023402Y015247D01*
X023492Y015337D01*
X023583Y015247D01*
X023583Y015067D01*
X023583Y015202D02*
X023402Y015202D01*
X023447Y016064D02*
X023402Y016109D01*
X023402Y016199D01*
X023492Y016199D01*
X023402Y016289D02*
X023447Y016334D01*
X023537Y016334D01*
X023583Y016289D01*
X023583Y016109D01*
X023537Y016064D01*
X023447Y016064D01*
X023288Y016064D02*
X023288Y016334D01*
X023108Y016064D01*
X023108Y016334D01*
X022993Y016334D02*
X022858Y016334D01*
X022813Y016289D01*
X022813Y016109D01*
X022858Y016064D01*
X022993Y016064D01*
X022993Y016334D01*
X023246Y017127D02*
X023246Y017308D01*
X023246Y017217D02*
X023516Y017217D01*
X023426Y017127D01*
X023471Y017422D02*
X023516Y017467D01*
X023516Y017557D01*
X023471Y017602D01*
X023426Y017602D01*
X023381Y017557D01*
X023336Y017602D01*
X023291Y017602D01*
X023246Y017557D01*
X023246Y017467D01*
X023291Y017422D01*
X023381Y017512D02*
X023381Y017557D01*
X023426Y018127D02*
X023516Y018217D01*
X023246Y018217D01*
X023246Y018127D02*
X023246Y018308D01*
X023246Y018422D02*
X023426Y018602D01*
X023471Y018602D01*
X023516Y018557D01*
X023516Y018467D01*
X023471Y018422D01*
X023246Y018422D02*
X023246Y018602D01*
X023246Y019127D02*
X023246Y019308D01*
X023246Y019217D02*
X023516Y019217D01*
X023426Y019127D01*
X023426Y019422D02*
X023516Y019512D01*
X023246Y019512D01*
X023246Y019422D02*
X023246Y019602D01*
X022840Y019677D02*
X022750Y019767D01*
X022570Y019767D01*
X022705Y019767D02*
X022705Y019587D01*
X022750Y019587D02*
X022840Y019677D01*
X022750Y019587D02*
X022570Y019587D01*
X022604Y020020D02*
X022333Y020020D01*
X022333Y020200D01*
X022333Y020315D02*
X022333Y020495D01*
X022333Y020405D02*
X022604Y020405D01*
X022513Y020315D01*
X022559Y020609D02*
X022604Y020655D01*
X022604Y020745D01*
X022559Y020790D01*
X022378Y020609D01*
X022333Y020655D01*
X022333Y020745D01*
X022378Y020790D01*
X022559Y020790D01*
X022559Y020904D02*
X022604Y020949D01*
X022604Y021039D01*
X022559Y021084D01*
X022513Y021084D01*
X022333Y020904D01*
X022333Y021084D01*
X022052Y021084D02*
X022052Y020904D01*
X021917Y020904D01*
X021962Y020994D01*
X021962Y021039D01*
X021917Y021084D01*
X021827Y021084D01*
X021782Y021039D01*
X021782Y020949D01*
X021827Y020904D01*
X021827Y020790D02*
X021782Y020745D01*
X021782Y020655D01*
X021827Y020609D01*
X022007Y020790D01*
X021827Y020790D01*
X022007Y020790D02*
X022052Y020745D01*
X022052Y020655D01*
X022007Y020609D01*
X021827Y020609D01*
X021782Y020495D02*
X021782Y020315D01*
X021782Y020405D02*
X022052Y020405D01*
X021962Y020315D01*
X021782Y020200D02*
X021782Y020020D01*
X022052Y020020D01*
X022378Y020609D02*
X022559Y020609D01*
X023246Y021267D02*
X023246Y021357D01*
X023291Y021402D01*
X023471Y021402D01*
X023516Y021357D01*
X023516Y021267D01*
X023471Y021222D01*
X023426Y021222D01*
X023381Y021267D01*
X023381Y021402D01*
X023246Y021267D02*
X023291Y021222D01*
X023291Y022222D02*
X023246Y022267D01*
X023246Y022357D01*
X023291Y022402D01*
X023336Y022402D01*
X023381Y022357D01*
X023381Y022267D01*
X023426Y022222D01*
X023471Y022222D01*
X023516Y022267D01*
X023516Y022357D01*
X023471Y022402D01*
X023426Y022402D01*
X023381Y022357D01*
X023381Y022267D02*
X023336Y022222D01*
X023291Y022222D01*
X023291Y023822D02*
X023246Y023822D01*
X023291Y023822D02*
X023471Y024002D01*
X023516Y024002D01*
X023516Y023822D01*
X023381Y024822D02*
X023381Y024957D01*
X023336Y025002D01*
X023291Y025002D01*
X023246Y024957D01*
X023246Y024867D01*
X023291Y024822D01*
X023381Y024822D01*
X023471Y024912D01*
X023516Y025002D01*
X023516Y025822D02*
X023381Y025822D01*
X023426Y025912D01*
X023426Y025957D01*
X023381Y026002D01*
X023291Y026002D01*
X023246Y025957D01*
X023246Y025867D01*
X023291Y025822D01*
X023516Y025822D02*
X023516Y026002D01*
X023381Y026822D02*
X023381Y027002D01*
X023516Y026957D02*
X023381Y026822D01*
X023246Y026957D02*
X023516Y026957D01*
X023471Y027822D02*
X023516Y027867D01*
X023516Y027957D01*
X023471Y028002D01*
X023426Y028002D01*
X023381Y027957D01*
X023336Y028002D01*
X023291Y028002D01*
X023246Y027957D01*
X023246Y027867D01*
X023291Y027822D01*
X023381Y027912D02*
X023381Y027957D01*
X023471Y028822D02*
X023516Y028867D01*
X023516Y028957D01*
X023471Y029002D01*
X023426Y029002D01*
X023246Y028822D01*
X023246Y029002D01*
X023246Y029822D02*
X023246Y030002D01*
X023246Y029912D02*
X023516Y029912D01*
X023426Y029822D01*
X023471Y030822D02*
X023516Y030867D01*
X023516Y030957D01*
X023471Y031002D01*
X023291Y030822D01*
X023246Y030867D01*
X023246Y030957D01*
X023291Y031002D01*
X023471Y031002D01*
X023471Y030822D02*
X023291Y030822D01*
X023249Y031713D02*
X023249Y031893D01*
X023158Y031983D01*
X023068Y031893D01*
X023068Y031713D01*
X022954Y031713D02*
X022954Y031983D01*
X022774Y031713D01*
X022774Y031983D01*
X022659Y031983D02*
X022524Y031983D01*
X022479Y031938D01*
X022479Y031848D01*
X022524Y031803D01*
X022659Y031803D01*
X022569Y031803D02*
X022479Y031713D01*
X022365Y031713D02*
X022184Y031983D01*
X022365Y031983D02*
X022184Y031713D01*
X022659Y031713D02*
X022659Y031983D01*
X023068Y031848D02*
X023249Y031848D01*
X023363Y031758D02*
X023408Y031713D01*
X023498Y031713D01*
X023543Y031758D01*
X023543Y031938D01*
X023498Y031983D01*
X023408Y031983D01*
X023363Y031938D01*
X023408Y032697D02*
X023363Y032742D01*
X023408Y032697D02*
X023498Y032697D01*
X023543Y032742D01*
X023543Y032923D01*
X023498Y032968D01*
X023408Y032968D01*
X023363Y032923D01*
X023249Y032878D02*
X023158Y032968D01*
X023068Y032878D01*
X023068Y032697D01*
X022954Y032697D02*
X022954Y032968D01*
X022774Y032697D01*
X022774Y032968D01*
X022659Y032968D02*
X022479Y032968D01*
X022569Y032968D02*
X022569Y032697D01*
X022365Y032697D02*
X022184Y032968D01*
X022365Y032968D02*
X022184Y032697D01*
X022505Y033381D02*
X022505Y034838D01*
X022924Y035262D02*
X022969Y035217D01*
X022924Y035262D02*
X022924Y035352D01*
X022969Y035397D01*
X023014Y035397D01*
X023059Y035352D01*
X023059Y035262D01*
X023104Y035217D01*
X023149Y035217D01*
X023194Y035262D01*
X023194Y035352D01*
X023149Y035397D01*
X023149Y035512D02*
X022969Y035512D01*
X022924Y035557D01*
X022924Y035647D01*
X022969Y035692D01*
X023059Y035692D01*
X023059Y035602D01*
X023149Y035692D02*
X023194Y035647D01*
X023194Y035557D01*
X023149Y035512D01*
X023104Y035806D02*
X023194Y035896D01*
X022924Y035896D01*
X022924Y035806D02*
X022924Y035987D01*
X022505Y036649D02*
X022505Y038105D01*
X017781Y038105D01*
X017781Y036649D01*
X017237Y037633D02*
X017237Y038657D01*
X016964Y039365D02*
X016964Y039414D01*
X016757Y039414D01*
X016718Y037033D02*
X013293Y037033D01*
X012812Y037633D02*
X012812Y038657D01*
X012544Y038850D02*
X012544Y038941D01*
X012544Y038895D02*
X012319Y038895D01*
X012274Y038850D01*
X012274Y038805D01*
X012319Y038760D01*
X012319Y039055D02*
X012274Y039100D01*
X012274Y039190D01*
X012319Y039235D01*
X012409Y039235D01*
X012454Y039190D01*
X012454Y039145D01*
X012409Y039055D01*
X012544Y039055D01*
X012544Y039235D01*
X013086Y039365D02*
X013086Y039414D01*
X013293Y039414D01*
X015719Y035804D02*
X015989Y035804D01*
X015854Y035669D01*
X015854Y035849D01*
X015809Y035555D02*
X015764Y035555D01*
X015719Y035510D01*
X015719Y035420D01*
X015764Y035375D01*
X015854Y035420D02*
X015854Y035510D01*
X015809Y035555D01*
X015944Y035555D02*
X015989Y035510D01*
X015989Y035420D01*
X015944Y035375D01*
X015899Y035375D01*
X015854Y035420D01*
X017781Y034838D02*
X017781Y033381D01*
X022505Y033381D01*
X023068Y032832D02*
X023249Y032832D01*
X023249Y032878D02*
X023249Y032697D01*
X021142Y030290D02*
X021142Y030155D01*
X021052Y030200D01*
X021006Y030200D01*
X020961Y030155D01*
X020961Y030065D01*
X021006Y030020D01*
X021097Y030020D01*
X021142Y030065D01*
X021142Y030290D02*
X020961Y030290D01*
X020669Y030538D02*
X020624Y030493D01*
X020534Y030493D01*
X020489Y030538D01*
X020489Y030583D01*
X020534Y030628D01*
X020669Y030628D01*
X020669Y030538D01*
X020669Y030628D02*
X020579Y030718D01*
X020489Y030763D01*
X020453Y031477D02*
X020273Y031477D01*
X020363Y031477D02*
X020363Y031747D01*
X020453Y031657D01*
X020568Y031702D02*
X020568Y031522D01*
X020613Y031477D01*
X020703Y031477D01*
X020748Y031522D01*
X020748Y031702D01*
X020703Y031747D01*
X020613Y031747D01*
X020568Y031702D01*
X020658Y031567D02*
X020568Y031477D01*
X020159Y031522D02*
X020159Y031702D01*
X020114Y031747D01*
X020023Y031747D01*
X019978Y031702D01*
X020159Y031522D01*
X020114Y031477D01*
X020023Y031477D01*
X019978Y031522D01*
X019978Y031702D01*
X020039Y030842D02*
X019859Y030842D01*
X019859Y030797D01*
X020039Y030616D01*
X020039Y030571D01*
X019291Y029970D02*
X019291Y029925D01*
X019246Y029880D01*
X019111Y029880D01*
X019111Y029970D02*
X019156Y030015D01*
X019246Y030015D01*
X019291Y029970D01*
X019111Y029970D02*
X019111Y029790D01*
X019156Y029745D01*
X019246Y029745D01*
X019291Y029790D01*
X019235Y029346D02*
X019370Y029210D01*
X019190Y029210D01*
X019235Y029075D02*
X019235Y029346D01*
X018740Y029464D02*
X018650Y029464D01*
X018695Y029464D02*
X018695Y029193D01*
X018740Y029193D02*
X018650Y029193D01*
X018544Y029238D02*
X018499Y029193D01*
X018408Y029193D01*
X018363Y029238D01*
X018249Y029193D02*
X018069Y029193D01*
X018159Y029193D02*
X018159Y029464D01*
X018249Y029374D01*
X018363Y029419D02*
X018408Y029464D01*
X018499Y029464D01*
X018544Y029419D01*
X018544Y029238D01*
X018253Y028775D02*
X018253Y028617D01*
X018253Y028775D02*
X018017Y029011D01*
X017859Y029011D01*
X020194Y027647D02*
X020239Y027692D01*
X020329Y027692D01*
X020374Y027647D01*
X020194Y027647D02*
X020194Y027602D01*
X020374Y027422D01*
X020194Y027422D01*
X020489Y027422D02*
X020669Y027422D01*
X020579Y027422D02*
X020579Y027692D01*
X020669Y027602D01*
X020982Y027450D02*
X021162Y027270D01*
X021117Y027225D01*
X021027Y027225D01*
X020982Y027270D01*
X020982Y027450D01*
X021027Y027495D01*
X021117Y027495D01*
X021162Y027450D01*
X021162Y027270D01*
X021276Y027225D02*
X021457Y027225D01*
X021366Y027225D02*
X021366Y027495D01*
X021457Y027405D01*
X021612Y027585D02*
X021612Y027630D01*
X021657Y027675D01*
X021792Y027675D01*
X021792Y027585D01*
X021747Y027540D01*
X021657Y027540D01*
X021612Y027585D01*
X021702Y027765D02*
X021792Y027675D01*
X021702Y027765D02*
X021612Y027810D01*
X021657Y028170D02*
X021747Y028170D01*
X021792Y028215D01*
X021612Y028395D01*
X021612Y028215D01*
X021657Y028170D01*
X021792Y028215D02*
X021792Y028395D01*
X021747Y028440D01*
X021657Y028440D01*
X021612Y028395D01*
X021906Y028395D02*
X021951Y028440D01*
X022041Y028440D01*
X022086Y028395D01*
X021906Y028395D02*
X021906Y028350D01*
X022086Y028170D01*
X021906Y028170D01*
X021996Y027810D02*
X021996Y027540D01*
X022086Y027540D02*
X021906Y027540D01*
X022086Y027720D02*
X021996Y027810D01*
X022036Y027023D02*
X022036Y026752D01*
X022126Y026752D02*
X021946Y026752D01*
X021831Y026798D02*
X021786Y026752D01*
X021696Y026752D01*
X021651Y026798D01*
X021651Y026888D01*
X021696Y026933D01*
X021741Y026933D01*
X021831Y026888D01*
X021831Y027023D01*
X021651Y027023D01*
X022036Y027023D02*
X022126Y026933D01*
X021457Y028800D02*
X021276Y028800D01*
X021366Y028800D02*
X021366Y029070D01*
X021457Y028980D01*
X021162Y028980D02*
X021072Y029070D01*
X021072Y028800D01*
X021162Y028800D02*
X020982Y028800D01*
X021454Y024621D02*
X021544Y024576D01*
X021634Y024486D01*
X021499Y024486D01*
X021454Y024441D01*
X021454Y024396D01*
X021499Y024351D01*
X021589Y024351D01*
X021634Y024396D01*
X021634Y024486D01*
X021749Y024531D02*
X021749Y024576D01*
X021794Y024621D01*
X021884Y024621D01*
X021929Y024576D01*
X021749Y024531D02*
X021929Y024351D01*
X021749Y024351D01*
X019882Y022889D02*
X019702Y022619D01*
X019587Y022619D02*
X019407Y022619D01*
X019497Y022619D02*
X019497Y022889D01*
X019587Y022799D01*
X019702Y022889D02*
X019882Y022619D01*
X018253Y021531D02*
X018253Y021137D01*
X017938Y021137D01*
X017743Y021568D02*
X017775Y021600D01*
X017743Y021568D02*
X017616Y021568D01*
X017520Y021472D01*
X017616Y021568D02*
X017616Y021695D01*
X017648Y021727D01*
X017471Y021712D02*
X017407Y021649D01*
X017344Y021649D01*
X017280Y021712D01*
X017280Y021776D01*
X017344Y021840D01*
X017407Y021840D01*
X017471Y021776D01*
X017471Y021712D01*
X017295Y021953D02*
X017199Y021857D01*
X017135Y021857D01*
X017040Y021953D01*
X017167Y022080D01*
X016846Y022337D02*
X016846Y022401D01*
X016751Y022497D01*
X016814Y022560D02*
X016623Y022369D01*
X016719Y022274D01*
X016782Y022274D01*
X016846Y022337D01*
X016670Y022578D02*
X016638Y022609D01*
X016510Y022482D01*
X016542Y022450D02*
X016478Y022514D01*
X016435Y022621D02*
X016499Y022685D01*
X016499Y022748D01*
X016403Y022844D01*
X016467Y022908D02*
X016276Y022717D01*
X016371Y022621D01*
X016435Y022621D01*
X016701Y022673D02*
X016733Y022705D01*
X016114Y023133D02*
X016018Y023229D01*
X015955Y023229D01*
X015859Y023133D01*
X015810Y023246D02*
X015746Y023246D01*
X015683Y023310D01*
X015683Y023373D01*
X015746Y023437D01*
X015810Y023437D01*
X015874Y023373D01*
X015874Y023310D01*
X015810Y023246D01*
X015987Y023006D02*
X016114Y023133D01*
X015697Y023550D02*
X015634Y023614D01*
X015697Y023614D02*
X015570Y023486D01*
X015506Y023486D01*
X015223Y023770D02*
X015127Y023865D01*
X015127Y023929D01*
X015191Y023929D01*
X015254Y023865D01*
X015318Y023865D01*
X015318Y023929D01*
X015223Y024025D01*
X015110Y024074D02*
X015110Y024137D01*
X015046Y024201D01*
X014982Y024201D01*
X014951Y024169D01*
X015078Y024042D01*
X015046Y024010D02*
X015110Y024074D01*
X015046Y024010D02*
X014982Y024010D01*
X014919Y024074D01*
X014838Y024218D02*
X014901Y024282D01*
X014901Y024346D01*
X014838Y024409D01*
X014774Y024409D01*
X014742Y024378D01*
X014870Y024250D01*
X014838Y024218D02*
X014774Y024218D01*
X014710Y024282D01*
X014517Y024731D02*
X014453Y024794D01*
X014517Y024794D02*
X014389Y024667D01*
X014326Y024667D01*
X014250Y024742D02*
X014441Y024933D01*
X014346Y024901D02*
X014282Y024965D01*
X014218Y024965D01*
X014123Y024869D01*
X014042Y024950D02*
X013978Y025014D01*
X014010Y024982D02*
X014137Y025110D01*
X014169Y025078D01*
X014201Y025173D02*
X014233Y025205D01*
X013999Y025185D02*
X013999Y025249D01*
X013903Y025344D01*
X013871Y025249D02*
X013935Y025185D01*
X013999Y025185D01*
X013903Y025089D02*
X013808Y025185D01*
X013808Y025249D01*
X013871Y025249D01*
X013727Y025330D02*
X013695Y025361D01*
X013663Y025330D01*
X013695Y025298D01*
X013727Y025330D01*
X013573Y025801D02*
X013446Y025929D01*
X013510Y025865D02*
X013318Y025674D01*
X013206Y025850D02*
X013269Y025914D01*
X013269Y025978D01*
X013206Y026042D01*
X013142Y026042D01*
X013110Y026010D01*
X013238Y025882D01*
X013206Y025850D02*
X013142Y025850D01*
X013078Y025914D01*
X012965Y026027D02*
X012902Y026091D01*
X012934Y026059D02*
X013125Y026250D01*
X013157Y026218D01*
X013018Y026357D02*
X012986Y026389D01*
X012795Y026198D01*
X012827Y026166D02*
X012763Y026230D01*
X012479Y026513D02*
X012607Y026640D01*
X012511Y026736D01*
X012447Y026736D01*
X012352Y026640D01*
X012303Y026753D02*
X012367Y026817D01*
X012367Y026881D01*
X012303Y026944D01*
X012239Y026944D01*
X012175Y026881D01*
X012175Y026817D01*
X012239Y026753D01*
X012303Y026753D01*
X011886Y027170D02*
X011822Y027170D01*
X011759Y027234D01*
X011759Y027297D01*
X011822Y027361D01*
X011886Y027361D01*
X011950Y027297D01*
X011950Y027234D01*
X011886Y027170D01*
X011646Y027346D02*
X011773Y027474D01*
X011678Y027569D01*
X011614Y027569D01*
X011519Y027474D01*
X011469Y027587D02*
X011533Y027650D01*
X011533Y027714D01*
X011469Y027778D01*
X011406Y027778D01*
X011374Y027746D01*
X011501Y027619D01*
X011469Y027587D02*
X011406Y027587D01*
X011342Y027650D01*
X011229Y027763D02*
X011197Y027795D01*
X011229Y027827D01*
X011261Y027795D01*
X011229Y027763D01*
X010379Y028617D02*
X010379Y029011D01*
X010773Y029011D01*
X009842Y029941D02*
X009662Y030122D01*
X009662Y030167D01*
X009707Y030212D01*
X009797Y030212D01*
X009842Y030167D01*
X009842Y029941D02*
X009662Y029941D01*
X009548Y029941D02*
X009368Y029941D01*
X009458Y029941D02*
X009458Y030212D01*
X009548Y030122D01*
X009493Y029668D02*
X009493Y029488D01*
X009358Y029488D01*
X009403Y029578D01*
X009403Y029623D01*
X009358Y029668D01*
X009268Y029668D01*
X009223Y029623D01*
X009223Y029533D01*
X009268Y029488D01*
X009268Y029373D02*
X009223Y029328D01*
X009223Y029238D01*
X009268Y029193D01*
X009448Y029193D01*
X009493Y029238D01*
X009493Y029328D01*
X009448Y029373D01*
X009493Y029087D02*
X009493Y028997D01*
X009493Y029042D02*
X009223Y029042D01*
X009223Y028997D02*
X009223Y029087D01*
X009060Y029055D02*
X009015Y029010D01*
X008970Y029010D01*
X008925Y029055D01*
X008925Y029145D01*
X008880Y029191D01*
X008835Y029191D01*
X008790Y029145D01*
X008790Y029055D01*
X008835Y029010D01*
X009060Y029055D02*
X009060Y029145D01*
X009015Y029191D01*
X009015Y029305D02*
X009060Y029350D01*
X009060Y029440D01*
X009015Y029485D01*
X008970Y029485D01*
X008790Y029305D01*
X008790Y029485D01*
X008835Y029600D02*
X008790Y029645D01*
X008790Y029735D01*
X008835Y029780D01*
X008925Y029780D01*
X008970Y029735D01*
X008970Y029690D01*
X008925Y029600D01*
X009060Y029600D01*
X009060Y029780D01*
X009060Y029894D02*
X009060Y030074D01*
X009060Y030189D02*
X008790Y030189D01*
X008790Y030369D01*
X008925Y029984D02*
X008925Y029894D01*
X008790Y029894D02*
X009060Y029894D01*
X012694Y029986D02*
X012739Y029941D01*
X012829Y029941D01*
X012874Y029986D01*
X012874Y030032D01*
X012829Y030077D01*
X012739Y030077D01*
X012694Y030032D01*
X012694Y029986D01*
X012739Y030077D02*
X012694Y030122D01*
X012694Y030167D01*
X012739Y030212D01*
X012829Y030212D01*
X012874Y030167D01*
X012874Y030122D01*
X012829Y030077D01*
X014346Y024901D02*
X014346Y024838D01*
X015279Y018952D02*
X015369Y018952D01*
X015414Y018907D01*
X015528Y018952D02*
X015709Y018682D01*
X015528Y018682D02*
X015709Y018952D01*
X015414Y018682D02*
X015234Y018862D01*
X015234Y018907D01*
X015279Y018952D01*
X015234Y018682D02*
X015414Y018682D01*
X014597Y018524D02*
X014597Y017924D01*
X013819Y018012D02*
X013639Y018192D01*
X013639Y018238D01*
X013684Y018283D01*
X013774Y018283D01*
X013819Y018238D01*
X013819Y018012D02*
X013639Y018012D01*
X013524Y018057D02*
X013479Y018012D01*
X013389Y018012D01*
X013344Y018057D01*
X013344Y018147D01*
X013389Y018192D01*
X013434Y018192D01*
X013524Y018147D01*
X013524Y018283D01*
X013344Y018283D01*
X014932Y016349D02*
X015202Y016349D01*
X015202Y016439D02*
X015202Y016258D01*
X015157Y016144D02*
X015202Y016099D01*
X015202Y016009D01*
X015157Y015964D01*
X015112Y015964D01*
X015067Y016009D01*
X015067Y016099D01*
X015022Y016144D01*
X014977Y016144D01*
X014932Y016099D01*
X014932Y016009D01*
X014977Y015964D01*
X014932Y015849D02*
X015022Y015759D01*
X015022Y015804D02*
X015022Y015669D01*
X014932Y015669D02*
X015202Y015669D01*
X015202Y015804D01*
X015157Y015849D01*
X015067Y015849D01*
X015022Y015804D01*
X014932Y015555D02*
X015202Y015555D01*
X015202Y015375D02*
X014932Y015555D01*
X014932Y015375D02*
X015202Y015375D01*
X016397Y017924D02*
X016397Y018524D01*
X016748Y016694D02*
X016703Y016649D01*
X016703Y016514D01*
X016974Y016514D01*
X016974Y016649D01*
X016929Y016694D01*
X016884Y016694D01*
X016839Y016649D01*
X016839Y016514D01*
X016839Y016649D02*
X016793Y016694D01*
X016748Y016694D01*
X016974Y016399D02*
X016974Y016219D01*
X016974Y016309D02*
X016703Y016309D01*
X016748Y016105D02*
X016703Y016060D01*
X016703Y015969D01*
X016748Y015924D01*
X016839Y015969D02*
X016839Y016060D01*
X016793Y016105D01*
X016748Y016105D01*
X016839Y015969D02*
X016884Y015924D01*
X016929Y015924D01*
X016974Y015969D01*
X016974Y016060D01*
X016929Y016105D01*
X016929Y015810D02*
X016839Y015810D01*
X016793Y015765D01*
X016793Y015630D01*
X016703Y015630D02*
X016974Y015630D01*
X016974Y015765D01*
X016929Y015810D01*
X016793Y015720D02*
X016703Y015810D01*
X016703Y015515D02*
X016974Y015515D01*
X016974Y015335D02*
X016703Y015335D01*
X016703Y015515D02*
X016974Y015335D01*
X019063Y017397D02*
X019065Y017411D01*
X019071Y017425D01*
X019079Y017437D01*
X019091Y017445D01*
X019105Y017451D01*
X019119Y017453D01*
X019133Y017451D01*
X019147Y017445D01*
X019159Y017437D01*
X019167Y017425D01*
X019173Y017411D01*
X019175Y017397D01*
X019173Y017383D01*
X019167Y017369D01*
X019159Y017357D01*
X019147Y017349D01*
X019133Y017343D01*
X019119Y017341D01*
X019105Y017343D01*
X019091Y017349D01*
X019079Y017357D01*
X019071Y017369D01*
X019065Y017383D01*
X019063Y017397D01*
X024577Y020020D02*
X024577Y020200D01*
X024577Y020110D02*
X024848Y020110D01*
X024758Y020020D01*
X024803Y020315D02*
X024622Y020315D01*
X024803Y020495D01*
X024622Y020495D01*
X024577Y020450D01*
X024577Y020360D01*
X024622Y020315D01*
X024803Y020315D02*
X024848Y020360D01*
X024848Y020450D01*
X024803Y020495D01*
X025686Y022623D02*
X026726Y022623D01*
X026726Y024893D01*
X026776Y024893D01*
X026826Y024893D01*
X026826Y025263D01*
X026456Y025263D01*
X026456Y025213D01*
X026456Y025163D01*
X025686Y025163D01*
X025686Y022623D01*
X026726Y024893D02*
X026726Y025163D01*
X026456Y025163D01*
X026456Y025213D02*
X026776Y025213D01*
X026776Y024893D01*
X018568Y035546D02*
X018568Y035940D01*
X018371Y035743D01*
X018568Y035546D01*
X018568Y035576D02*
X018539Y035576D01*
X018568Y035624D02*
X018491Y035624D01*
X018442Y035673D02*
X018568Y035673D01*
X018568Y035721D02*
X018394Y035721D01*
X018398Y035770D02*
X018568Y035770D01*
X018568Y035818D02*
X018446Y035818D01*
X018495Y035867D02*
X018568Y035867D01*
X018568Y035915D02*
X018543Y035915D01*
X008537Y036506D02*
X008492Y036461D01*
X008537Y036506D02*
X008537Y036596D01*
X008492Y036641D01*
X008447Y036641D01*
X008402Y036596D01*
X008356Y036641D01*
X008311Y036641D01*
X008266Y036596D01*
X008266Y036506D01*
X008311Y036461D01*
X008402Y036551D02*
X008402Y036596D01*
X008356Y036756D02*
X008266Y036846D01*
X008356Y036936D01*
X008537Y036936D01*
X008492Y037050D02*
X008537Y037095D01*
X008537Y037186D01*
X008492Y037231D01*
X008447Y037231D01*
X008402Y037186D01*
X008356Y037231D01*
X008311Y037231D01*
X008266Y037186D01*
X008266Y037095D01*
X008311Y037050D01*
X008402Y037141D02*
X008402Y037186D01*
X008356Y036756D02*
X008537Y036756D01*
X007537Y036756D02*
X007266Y036936D01*
X007537Y036936D01*
X007537Y037050D02*
X007266Y037050D01*
X007266Y037186D01*
X007311Y037231D01*
X007492Y037231D01*
X007537Y037186D01*
X007537Y037050D01*
X007537Y036756D02*
X007266Y036756D01*
X007311Y036641D02*
X007402Y036641D01*
X007402Y036551D01*
X007492Y036461D02*
X007311Y036461D01*
X007266Y036506D01*
X007266Y036596D01*
X007311Y036641D01*
X007492Y036641D02*
X007537Y036596D01*
X007537Y036506D01*
X007492Y036461D01*
X006537Y036461D02*
X006402Y036461D01*
X006447Y036551D01*
X006447Y036596D01*
X006402Y036641D01*
X006311Y036641D01*
X006266Y036596D01*
X006266Y036506D01*
X006311Y036461D01*
X006537Y036461D02*
X006537Y036641D01*
X006537Y036756D02*
X006356Y036756D01*
X006266Y036846D01*
X006356Y036936D01*
X006537Y036936D01*
X006492Y037050D02*
X006311Y037050D01*
X006492Y037231D01*
X006311Y037231D01*
X006266Y037186D01*
X006266Y037095D01*
X006311Y037050D01*
X006492Y037050D02*
X006537Y037095D01*
X006537Y037186D01*
X006492Y037231D01*
X011375Y015231D02*
X011836Y015231D01*
X011836Y014838D01*
X014052Y006786D02*
X014097Y006786D01*
X010079Y002844D02*
X010034Y002889D01*
X009943Y002889D01*
X009898Y002844D01*
X009898Y002799D01*
X010079Y002619D01*
X009898Y002619D01*
X009784Y002619D02*
X009784Y002664D01*
X009604Y002844D01*
X009604Y002889D01*
X009784Y002889D01*
X022412Y008012D02*
X022682Y008012D01*
X022547Y008057D02*
X022412Y008192D01*
X022502Y008012D02*
X022682Y008192D01*
X024092Y008130D02*
X024272Y008130D01*
X024182Y008130D02*
X024182Y008401D01*
X024272Y008311D01*
X024387Y008401D02*
X024477Y008401D01*
X024432Y008401D02*
X024432Y008175D01*
X024477Y008130D01*
X024522Y008130D01*
X024567Y008175D01*
X024589Y003598D02*
X024544Y003552D01*
X024544Y003372D01*
X024589Y003327D01*
X024679Y003327D01*
X024724Y003372D01*
X024724Y003552D01*
X024679Y003598D01*
X024589Y003598D01*
X024430Y003552D02*
X024430Y003507D01*
X024385Y003462D01*
X024249Y003462D01*
X024249Y003372D02*
X024249Y003552D01*
X024294Y003598D01*
X024385Y003598D01*
X024430Y003552D01*
X024430Y003372D02*
X024385Y003327D01*
X024294Y003327D01*
X024249Y003372D01*
X024544Y003327D02*
X024634Y003417D01*
D12*
X003070Y003913D02*
X003037Y003946D01*
X003037Y004013D01*
X003070Y004046D01*
X003204Y004046D01*
X003237Y004013D01*
X003237Y003946D01*
X003204Y003913D01*
X003070Y003913D01*
X003104Y003980D02*
X003037Y004046D01*
X003037Y004134D02*
X003037Y004267D01*
X003037Y004201D02*
X003237Y004201D01*
X003170Y004134D01*
X003137Y004355D02*
X003137Y004488D01*
X003037Y004455D02*
X003237Y004455D01*
X003137Y004355D01*
X004612Y004376D02*
X004612Y004309D01*
X004645Y004276D01*
X004679Y004276D01*
X004712Y004309D01*
X004712Y004376D01*
X004679Y004410D01*
X004645Y004410D01*
X004612Y004376D01*
X004712Y004376D02*
X004745Y004410D01*
X004779Y004410D01*
X004812Y004376D01*
X004812Y004309D01*
X004779Y004276D01*
X004745Y004276D01*
X004712Y004309D01*
X004712Y004189D02*
X004712Y004055D01*
X004812Y004155D01*
X004612Y004155D01*
X004645Y003968D02*
X004612Y003934D01*
X004612Y003867D01*
X004645Y003834D01*
X004779Y003834D01*
X004812Y003867D01*
X004812Y003934D01*
X004779Y003968D01*
X004927Y004015D02*
X004927Y004082D01*
X004960Y004115D01*
X004927Y004202D02*
X004927Y004336D01*
X004927Y004269D02*
X005127Y004269D01*
X005060Y004202D01*
X005094Y004115D02*
X005127Y004082D01*
X005127Y004015D01*
X005094Y003981D01*
X004960Y003981D01*
X004927Y004015D01*
X004927Y003901D02*
X004927Y003834D01*
X004927Y003867D02*
X005127Y003867D01*
X005127Y003834D02*
X005127Y003901D01*
X005094Y004423D02*
X005127Y004457D01*
X005127Y004523D01*
X005094Y004557D01*
X004960Y004423D01*
X004927Y004457D01*
X004927Y004523D01*
X004960Y004557D01*
X005094Y004557D01*
X005094Y004423D02*
X004960Y004423D01*
X006831Y005364D02*
X006831Y005397D01*
X006864Y005430D01*
X006964Y005430D01*
X006964Y005364D01*
X006931Y005330D01*
X006864Y005330D01*
X006831Y005364D01*
X006898Y005497D02*
X006831Y005530D01*
X006898Y005497D02*
X006964Y005430D01*
X007052Y005430D02*
X007185Y005430D01*
X007085Y005530D01*
X007085Y005330D01*
X007273Y005330D02*
X007340Y005397D01*
X007306Y005397D02*
X007406Y005397D01*
X007406Y005330D02*
X007406Y005530D01*
X007306Y005530D01*
X007273Y005497D01*
X007273Y005430D01*
X007306Y005397D01*
X007643Y005351D02*
X007677Y005385D01*
X007643Y005351D02*
X007643Y005285D01*
X007677Y005251D01*
X007810Y005251D01*
X007843Y005285D01*
X007843Y005351D01*
X007810Y005385D01*
X007810Y005472D02*
X007843Y005506D01*
X007843Y005572D01*
X007810Y005606D01*
X007777Y005606D01*
X007743Y005572D01*
X007710Y005606D01*
X007677Y005606D01*
X007643Y005572D01*
X007643Y005506D01*
X007677Y005472D01*
X007743Y005539D02*
X007743Y005572D01*
X007743Y005693D02*
X007743Y005793D01*
X007710Y005827D01*
X007677Y005827D01*
X007643Y005793D01*
X007643Y005727D01*
X007677Y005693D01*
X007743Y005693D01*
X007810Y005760D01*
X007843Y005827D01*
X008037Y006866D02*
X008237Y006866D01*
X008237Y006966D01*
X008204Y006999D01*
X008137Y006999D01*
X008104Y006966D01*
X008104Y006866D01*
X008104Y006932D02*
X008037Y006999D01*
X008070Y007087D02*
X008037Y007120D01*
X008037Y007187D01*
X008070Y007220D01*
X008104Y007220D01*
X008137Y007187D01*
X008137Y007153D01*
X008137Y007187D02*
X008170Y007220D01*
X008204Y007220D01*
X008237Y007187D01*
X008237Y007120D01*
X008204Y007087D01*
X008352Y007120D02*
X008385Y007087D01*
X008352Y007120D02*
X008352Y007187D01*
X008385Y007220D01*
X008419Y007220D01*
X008452Y007187D01*
X008452Y007153D01*
X008452Y007187D02*
X008485Y007220D01*
X008519Y007220D01*
X008552Y007187D01*
X008552Y007120D01*
X008519Y007087D01*
X008519Y006999D02*
X008452Y006999D01*
X008419Y006966D01*
X008419Y006866D01*
X008419Y006932D02*
X008352Y006999D01*
X008352Y006866D02*
X008552Y006866D01*
X008552Y006966D01*
X008519Y006999D01*
X008519Y007308D02*
X008485Y007308D01*
X008452Y007341D01*
X008452Y007408D01*
X008419Y007441D01*
X008385Y007441D01*
X008352Y007408D01*
X008352Y007341D01*
X008385Y007308D01*
X008419Y007308D01*
X008452Y007341D01*
X008452Y007408D02*
X008485Y007441D01*
X008519Y007441D01*
X008552Y007408D01*
X008552Y007341D01*
X008519Y007308D01*
X008237Y007341D02*
X008204Y007308D01*
X008170Y007308D01*
X008137Y007341D01*
X008137Y007441D01*
X008070Y007441D02*
X008204Y007441D01*
X008237Y007408D01*
X008237Y007341D01*
X008070Y007308D02*
X008037Y007341D01*
X008037Y007408D01*
X008070Y007441D01*
X007525Y007499D02*
X007424Y007499D01*
X007391Y007465D01*
X007391Y007399D01*
X007424Y007365D01*
X007525Y007365D01*
X007525Y007299D02*
X007525Y007499D01*
X007458Y007365D02*
X007391Y007299D01*
X007304Y007399D02*
X007170Y007399D01*
X007083Y007432D02*
X007016Y007499D01*
X007016Y007299D01*
X007083Y007299D02*
X006949Y007299D01*
X007203Y007299D02*
X007203Y007499D01*
X007304Y007399D01*
X008746Y007535D02*
X008946Y007535D01*
X008946Y007635D01*
X008912Y007668D01*
X008846Y007668D01*
X008812Y007635D01*
X008812Y007535D01*
X008812Y007602D02*
X008746Y007668D01*
X008779Y007756D02*
X008746Y007789D01*
X008746Y007856D01*
X008779Y007889D01*
X008846Y007889D01*
X008879Y007856D01*
X008879Y007823D01*
X008846Y007756D01*
X008946Y007756D01*
X008946Y007889D01*
X009061Y007856D02*
X009094Y007889D01*
X009127Y007889D01*
X009161Y007856D01*
X009161Y007756D01*
X009094Y007756D01*
X009061Y007789D01*
X009061Y007856D01*
X009161Y007756D02*
X009227Y007823D01*
X009261Y007889D01*
X009227Y007668D02*
X009161Y007668D01*
X009127Y007635D01*
X009127Y007535D01*
X009061Y007535D02*
X009261Y007535D01*
X009261Y007635D01*
X009227Y007668D01*
X009127Y007602D02*
X009061Y007668D01*
X008204Y004331D02*
X008237Y004297D01*
X008237Y004231D01*
X008204Y004197D01*
X008170Y004197D01*
X008137Y004231D01*
X008137Y004331D01*
X008070Y004331D02*
X008204Y004331D01*
X008070Y004331D02*
X008037Y004297D01*
X008037Y004231D01*
X008070Y004197D01*
X008137Y004110D02*
X008137Y003976D01*
X008237Y004076D01*
X008037Y004076D01*
X008070Y003889D02*
X008037Y003855D01*
X008037Y003789D01*
X008070Y003755D01*
X008204Y003755D01*
X008237Y003789D01*
X008237Y003855D01*
X008204Y003889D01*
X008214Y001711D02*
X008113Y001711D01*
X008080Y001678D01*
X008080Y001611D01*
X008113Y001578D01*
X008214Y001578D01*
X008214Y001511D02*
X008214Y001711D01*
X008147Y001578D02*
X008080Y001511D01*
X007993Y001511D02*
X007859Y001511D01*
X007926Y001511D02*
X007926Y001711D01*
X007993Y001645D01*
X007772Y001611D02*
X007638Y001611D01*
X007671Y001511D02*
X007671Y001711D01*
X007772Y001611D01*
X007131Y001578D02*
X007031Y001578D01*
X006997Y001611D01*
X006997Y001678D01*
X007031Y001711D01*
X007131Y001711D01*
X007131Y001511D01*
X007064Y001578D02*
X006997Y001511D01*
X006910Y001545D02*
X006910Y001578D01*
X006876Y001611D01*
X006810Y001611D01*
X006776Y001578D01*
X006776Y001545D01*
X006810Y001511D01*
X006876Y001511D01*
X006910Y001545D01*
X006876Y001611D02*
X006910Y001645D01*
X006910Y001678D01*
X006876Y001711D01*
X006810Y001711D01*
X006776Y001678D01*
X006776Y001645D01*
X006810Y001611D01*
X010177Y004064D02*
X010211Y004031D01*
X010278Y004031D01*
X010311Y004064D01*
X010398Y004064D02*
X010432Y004031D01*
X010499Y004031D01*
X010532Y004064D01*
X010619Y004064D02*
X010653Y004031D01*
X010720Y004031D01*
X010753Y004064D01*
X010753Y004198D01*
X010720Y004231D01*
X010653Y004231D01*
X010619Y004198D01*
X010532Y004198D02*
X010499Y004231D01*
X010432Y004231D01*
X010398Y004198D01*
X010398Y004164D01*
X010432Y004131D01*
X010398Y004098D01*
X010398Y004064D01*
X010432Y004131D02*
X010465Y004131D01*
X010311Y004198D02*
X010278Y004231D01*
X010211Y004231D01*
X010177Y004198D01*
X010177Y004164D01*
X010211Y004131D01*
X010177Y004098D01*
X010177Y004064D01*
X010211Y004131D02*
X010244Y004131D01*
X011974Y004385D02*
X011974Y004452D01*
X011974Y004419D02*
X012174Y004419D01*
X012174Y004452D02*
X012174Y004385D01*
X012289Y004419D02*
X012289Y004485D01*
X012322Y004519D01*
X012322Y004606D02*
X012289Y004640D01*
X012289Y004706D01*
X012322Y004740D01*
X012356Y004740D01*
X012389Y004706D01*
X012389Y004673D01*
X012389Y004706D02*
X012422Y004740D01*
X012456Y004740D01*
X012489Y004706D01*
X012489Y004640D01*
X012456Y004606D01*
X012456Y004519D02*
X012489Y004485D01*
X012489Y004419D01*
X012456Y004385D01*
X012322Y004385D01*
X012289Y004419D01*
X012174Y004566D02*
X012141Y004533D01*
X012007Y004533D01*
X011974Y004566D01*
X011974Y004633D01*
X012007Y004666D01*
X012007Y004754D02*
X011974Y004787D01*
X011974Y004854D01*
X012007Y004887D01*
X012141Y004887D01*
X012174Y004854D01*
X012174Y004787D01*
X012141Y004754D01*
X012107Y004754D01*
X012074Y004787D01*
X012074Y004887D01*
X012289Y004927D02*
X012489Y004927D01*
X012389Y004827D01*
X012389Y004961D01*
X012604Y004927D02*
X012604Y004861D01*
X012637Y004827D01*
X012771Y004961D01*
X012637Y004961D01*
X012604Y004927D01*
X012637Y004827D02*
X012771Y004827D01*
X012804Y004861D01*
X012804Y004927D01*
X012771Y004961D01*
X012804Y004740D02*
X012804Y004606D01*
X012704Y004606D01*
X012737Y004673D01*
X012737Y004706D01*
X012704Y004740D01*
X012637Y004740D01*
X012604Y004706D01*
X012604Y004640D01*
X012637Y004606D01*
X012637Y004519D02*
X012604Y004485D01*
X012604Y004419D01*
X012637Y004385D01*
X012771Y004385D01*
X012804Y004419D01*
X012804Y004485D01*
X012771Y004519D01*
X012174Y004566D02*
X012174Y004633D01*
X012141Y004666D01*
X012179Y005488D02*
X012146Y005521D01*
X012146Y005554D01*
X012179Y005588D01*
X012279Y005588D01*
X012279Y005521D01*
X012246Y005488D01*
X012179Y005488D01*
X012279Y005588D02*
X012213Y005654D01*
X012146Y005688D01*
X012367Y005654D02*
X012400Y005688D01*
X012467Y005688D01*
X012500Y005654D01*
X012588Y005654D02*
X012588Y005588D01*
X012621Y005554D01*
X012721Y005554D01*
X012655Y005554D02*
X012588Y005488D01*
X012500Y005488D02*
X012367Y005621D01*
X012367Y005654D01*
X012367Y005488D02*
X012500Y005488D01*
X012588Y005654D02*
X012621Y005688D01*
X012721Y005688D01*
X012721Y005488D01*
X013543Y006393D02*
X013509Y006427D01*
X013509Y006493D01*
X013543Y006527D01*
X013543Y006614D02*
X013509Y006647D01*
X013509Y006714D01*
X013543Y006748D01*
X013576Y006748D01*
X013610Y006714D01*
X013610Y006681D01*
X013610Y006714D02*
X013643Y006748D01*
X013676Y006748D01*
X013710Y006714D01*
X013710Y006647D01*
X013676Y006614D01*
X013676Y006527D02*
X013710Y006493D01*
X013710Y006427D01*
X013676Y006393D01*
X013543Y006393D01*
X013543Y006835D02*
X013676Y006969D01*
X013543Y006969D01*
X013509Y006935D01*
X013509Y006868D01*
X013543Y006835D01*
X013676Y006835D01*
X013710Y006868D01*
X013710Y006935D01*
X013676Y006969D01*
X014572Y006242D02*
X014773Y006242D01*
X014672Y006142D01*
X014672Y006275D01*
X014606Y006054D02*
X014572Y006021D01*
X014572Y005954D01*
X014606Y005921D01*
X014739Y005921D01*
X014773Y005954D01*
X014773Y006021D01*
X014739Y006054D01*
X015196Y007850D02*
X015262Y007850D01*
X015296Y007883D01*
X015296Y007950D02*
X015229Y007983D01*
X015196Y007983D01*
X015162Y007950D01*
X015162Y007883D01*
X015196Y007850D01*
X015296Y007950D02*
X015296Y008050D01*
X015162Y008050D01*
X015383Y008017D02*
X015417Y008050D01*
X015483Y008050D01*
X015517Y008017D01*
X015517Y007883D01*
X015483Y007850D01*
X015417Y007850D01*
X015383Y007883D01*
X016313Y008322D02*
X016313Y008522D01*
X016413Y008422D01*
X016280Y008422D01*
X016501Y008389D02*
X016501Y008356D01*
X016534Y008322D01*
X016601Y008322D01*
X016634Y008356D01*
X016568Y008422D02*
X016534Y008422D01*
X016501Y008389D01*
X016534Y008422D02*
X016501Y008456D01*
X016501Y008489D01*
X016534Y008522D01*
X016601Y008522D01*
X016634Y008489D01*
X016722Y008489D02*
X016722Y008422D01*
X016755Y008389D01*
X016855Y008389D01*
X016789Y008389D02*
X016722Y008322D01*
X016855Y008322D02*
X016855Y008522D01*
X016755Y008522D01*
X016722Y008489D01*
X017067Y008253D02*
X017067Y008220D01*
X017101Y008186D01*
X017067Y008153D01*
X017067Y008119D01*
X017101Y008086D01*
X017167Y008086D01*
X017201Y008119D01*
X017288Y008119D02*
X017322Y008086D01*
X017388Y008086D01*
X017422Y008119D01*
X017509Y008086D02*
X017576Y008153D01*
X017543Y008153D02*
X017643Y008153D01*
X017643Y008086D02*
X017643Y008286D01*
X017543Y008286D01*
X017509Y008253D01*
X017509Y008186D01*
X017543Y008153D01*
X017422Y008253D02*
X017388Y008286D01*
X017322Y008286D01*
X017288Y008253D01*
X017288Y008220D01*
X017322Y008186D01*
X017288Y008153D01*
X017288Y008119D01*
X017322Y008186D02*
X017355Y008186D01*
X017201Y008253D02*
X017167Y008286D01*
X017101Y008286D01*
X017067Y008253D01*
X017101Y008186D02*
X017134Y008186D01*
X017958Y008238D02*
X017958Y008304D01*
X017992Y008338D01*
X017992Y008425D02*
X017958Y008459D01*
X017958Y008525D01*
X017992Y008559D01*
X018025Y008559D01*
X018058Y008525D01*
X018058Y008492D01*
X018058Y008525D02*
X018092Y008559D01*
X018125Y008559D01*
X018158Y008525D01*
X018158Y008459D01*
X018125Y008425D01*
X018125Y008338D02*
X018158Y008304D01*
X018158Y008238D01*
X018125Y008204D01*
X017992Y008204D01*
X017958Y008238D01*
X017958Y008646D02*
X017958Y008780D01*
X017958Y008713D02*
X018158Y008713D01*
X018092Y008646D01*
X018721Y008253D02*
X018721Y008220D01*
X018754Y008186D01*
X018821Y008186D01*
X018854Y008220D01*
X018854Y008253D01*
X018821Y008286D01*
X018754Y008286D01*
X018721Y008253D01*
X018754Y008186D02*
X018721Y008153D01*
X018721Y008119D01*
X018754Y008086D01*
X018821Y008086D01*
X018854Y008119D01*
X018854Y008153D01*
X018821Y008186D01*
X018942Y008220D02*
X018942Y008253D01*
X018975Y008286D01*
X019042Y008286D01*
X019075Y008253D01*
X019163Y008253D02*
X019196Y008286D01*
X019263Y008286D01*
X019296Y008253D01*
X019296Y008119D01*
X019263Y008086D01*
X019196Y008086D01*
X019163Y008119D01*
X019075Y008086D02*
X018942Y008220D01*
X018942Y008086D02*
X019075Y008086D01*
X020075Y009464D02*
X020075Y009497D01*
X019941Y009631D01*
X019941Y009664D01*
X020075Y009664D01*
X020041Y009779D02*
X019975Y009779D01*
X019941Y009812D01*
X019941Y009846D01*
X019975Y009879D01*
X020075Y009879D01*
X020075Y009812D01*
X020041Y009779D01*
X020075Y009879D02*
X020008Y009946D01*
X019941Y009979D01*
X019975Y010094D02*
X020041Y010094D01*
X020075Y010127D01*
X020075Y010194D02*
X020008Y010227D01*
X019975Y010227D01*
X019941Y010194D01*
X019941Y010127D01*
X019975Y010094D01*
X020075Y010194D02*
X020075Y010294D01*
X019941Y010294D01*
X020162Y010194D02*
X020296Y010194D01*
X020196Y010294D01*
X020196Y010094D01*
X020196Y009979D02*
X020296Y009879D01*
X020162Y009879D01*
X020196Y009779D02*
X020196Y009979D01*
X020383Y009946D02*
X020417Y009979D01*
X020483Y009979D01*
X020517Y009946D01*
X020517Y009812D01*
X020483Y009779D01*
X020417Y009779D01*
X020383Y009812D01*
X020417Y009664D02*
X020483Y009664D01*
X020517Y009631D01*
X020517Y009497D01*
X020483Y009464D01*
X020417Y009464D01*
X020383Y009497D01*
X020296Y009564D02*
X020196Y009664D01*
X020196Y009464D01*
X020162Y009564D02*
X020296Y009564D01*
X020383Y009631D02*
X020417Y009664D01*
X020417Y010094D02*
X020383Y010127D01*
X020417Y010094D02*
X020483Y010094D01*
X020517Y010127D01*
X020517Y010261D01*
X020483Y010294D01*
X020417Y010294D01*
X020383Y010261D01*
X020290Y010409D02*
X020290Y010609D01*
X020390Y010509D01*
X020256Y010509D01*
X020290Y010724D02*
X020356Y010724D01*
X020390Y010757D01*
X020323Y010824D02*
X020290Y010824D01*
X020256Y010791D01*
X020256Y010757D01*
X020290Y010724D01*
X020290Y010824D02*
X020256Y010857D01*
X020256Y010891D01*
X020290Y010924D01*
X020356Y010924D01*
X020390Y010891D01*
X020477Y010824D02*
X020611Y010824D01*
X020511Y010924D01*
X020511Y010724D01*
X020511Y010609D02*
X020611Y010509D01*
X020477Y010509D01*
X020511Y010409D02*
X020511Y010609D01*
X020698Y010576D02*
X020732Y010609D01*
X020798Y010609D01*
X020832Y010576D01*
X020832Y010442D01*
X020798Y010409D01*
X020732Y010409D01*
X020698Y010442D01*
X020732Y010724D02*
X020698Y010757D01*
X020732Y010724D02*
X020798Y010724D01*
X020832Y010757D01*
X020832Y010891D01*
X020798Y010924D01*
X020732Y010924D01*
X020698Y010891D01*
X019257Y010912D02*
X019224Y010912D01*
X019090Y010778D01*
X019057Y010778D01*
X019090Y010658D02*
X019257Y010658D01*
X019257Y010691D02*
X019257Y010624D01*
X019257Y010778D02*
X019257Y010912D01*
X019090Y010658D02*
X019057Y010624D01*
X019057Y010591D01*
X019090Y010557D01*
X017919Y010566D02*
X017584Y010566D01*
X017584Y011196D01*
X017741Y011353D01*
X017741Y017220D01*
X017584Y017377D01*
X017584Y018007D01*
X017919Y018007D01*
X017584Y018007D02*
X017584Y018283D01*
X017583Y018293D01*
X017579Y018302D01*
X017573Y018311D01*
X017565Y018317D01*
X017555Y018321D01*
X017545Y018322D01*
X017230Y018322D01*
X017220Y018321D01*
X017211Y018317D01*
X017202Y018311D01*
X017196Y018302D01*
X017192Y018293D01*
X017191Y018283D01*
X017190Y018283D02*
X017190Y010290D01*
X017191Y010290D02*
X017192Y010280D01*
X017196Y010270D01*
X017202Y010262D01*
X017211Y010256D01*
X017220Y010252D01*
X017230Y010251D01*
X017545Y010251D01*
X017555Y010252D01*
X017564Y010256D01*
X017573Y010262D01*
X017579Y010270D01*
X017583Y010280D01*
X017584Y010290D01*
X017584Y010566D01*
X016310Y014385D02*
X016243Y014385D01*
X016210Y014419D01*
X016122Y014385D02*
X015989Y014385D01*
X016056Y014385D02*
X016056Y014585D01*
X016122Y014519D01*
X016210Y014552D02*
X016243Y014585D01*
X016310Y014585D01*
X016343Y014552D01*
X016343Y014419D01*
X016310Y014385D01*
X015901Y014385D02*
X015768Y014519D01*
X015768Y014552D01*
X015801Y014585D01*
X015868Y014585D01*
X015901Y014552D01*
X015901Y014385D02*
X015768Y014385D01*
X015680Y014419D02*
X015647Y014385D01*
X015580Y014385D01*
X015547Y014419D01*
X015547Y014552D01*
X015680Y014419D01*
X015680Y014552D01*
X015647Y014585D01*
X015580Y014585D01*
X015547Y014552D01*
X015574Y016944D02*
X015541Y016978D01*
X015574Y016944D02*
X015641Y016944D01*
X015674Y016978D01*
X015674Y017111D01*
X015641Y017144D01*
X015574Y017144D01*
X015541Y017111D01*
X015453Y017078D02*
X015386Y017144D01*
X015386Y016944D01*
X015320Y016944D02*
X015453Y016944D01*
X015232Y016944D02*
X015099Y017078D01*
X015099Y017111D01*
X015132Y017144D01*
X015199Y017144D01*
X015232Y017111D01*
X015232Y016944D02*
X015099Y016944D01*
X015011Y016978D02*
X014978Y016944D01*
X014911Y016944D01*
X014878Y016978D01*
X014878Y017011D01*
X014911Y017044D01*
X014944Y017044D01*
X014911Y017044D02*
X014878Y017078D01*
X014878Y017111D01*
X014911Y017144D01*
X014978Y017144D01*
X015011Y017111D01*
X015823Y017044D02*
X015956Y017044D01*
X015856Y017144D01*
X015856Y016944D01*
X016044Y016944D02*
X016177Y016944D01*
X016044Y017078D01*
X016044Y017111D01*
X016077Y017144D01*
X016144Y017144D01*
X016177Y017111D01*
X016331Y017144D02*
X016331Y016944D01*
X016265Y016944D02*
X016398Y016944D01*
X016486Y016978D02*
X016519Y016944D01*
X016586Y016944D01*
X016619Y016978D01*
X016619Y017111D01*
X016586Y017144D01*
X016519Y017144D01*
X016486Y017111D01*
X016398Y017078D02*
X016331Y017144D01*
X017195Y018795D02*
X017161Y018828D01*
X017161Y018861D01*
X017195Y018895D01*
X017295Y018895D01*
X017295Y018828D01*
X017261Y018795D01*
X017195Y018795D01*
X017295Y018895D02*
X017228Y018962D01*
X017161Y018995D01*
X017382Y018962D02*
X017516Y018828D01*
X017482Y018795D01*
X017416Y018795D01*
X017382Y018828D01*
X017382Y018962D01*
X017416Y018995D01*
X017482Y018995D01*
X017516Y018962D01*
X017516Y018828D01*
X017603Y018795D02*
X017737Y018795D01*
X017670Y018795D02*
X017670Y018995D01*
X017737Y018928D01*
X017824Y018895D02*
X017858Y018861D01*
X017958Y018861D01*
X017958Y018795D02*
X017958Y018995D01*
X017858Y018995D01*
X017824Y018962D01*
X017824Y018895D01*
X017891Y018861D02*
X017824Y018795D01*
X017903Y019976D02*
X017970Y019976D01*
X018003Y020009D01*
X018003Y020076D02*
X017937Y020109D01*
X017903Y020109D01*
X017870Y020076D01*
X017870Y020009D01*
X017903Y019976D01*
X018003Y020076D02*
X018003Y020176D01*
X017870Y020176D01*
X018091Y020143D02*
X018224Y020009D01*
X018191Y019976D01*
X018124Y019976D01*
X018091Y020009D01*
X018091Y020143D01*
X018124Y020176D01*
X018191Y020176D01*
X018224Y020143D01*
X018224Y020009D01*
X018312Y019976D02*
X018445Y019976D01*
X018379Y019976D02*
X018379Y020176D01*
X018445Y020109D01*
X018533Y020076D02*
X018566Y020043D01*
X018666Y020043D01*
X018600Y020043D02*
X018533Y019976D01*
X018533Y020076D02*
X018533Y020143D01*
X018566Y020176D01*
X018666Y020176D01*
X018666Y019976D01*
X019372Y019982D02*
X019372Y020116D01*
X019372Y020049D02*
X019572Y020049D01*
X019505Y019982D01*
X019539Y019895D02*
X019572Y019861D01*
X019572Y019795D01*
X019539Y019761D01*
X019405Y019761D01*
X019372Y019795D01*
X019372Y019861D01*
X019405Y019895D01*
X019372Y020203D02*
X019505Y020337D01*
X019539Y020337D01*
X019572Y020303D01*
X019572Y020236D01*
X019539Y020203D01*
X019372Y020203D02*
X019372Y020337D01*
X019372Y020424D02*
X019505Y020558D01*
X019539Y020558D01*
X019572Y020524D01*
X019572Y020457D01*
X019539Y020424D01*
X019372Y020424D02*
X019372Y020558D01*
X020039Y019867D02*
X020005Y019833D01*
X020005Y019767D01*
X020039Y019733D01*
X020106Y019733D02*
X020139Y019800D01*
X020139Y019833D01*
X020106Y019867D01*
X020039Y019867D01*
X020106Y019733D02*
X020206Y019733D01*
X020206Y019867D01*
X020172Y019646D02*
X020206Y019612D01*
X020206Y019546D01*
X020172Y019512D01*
X020172Y019646D02*
X020139Y019646D01*
X020005Y019512D01*
X020005Y019646D01*
X020005Y019425D02*
X020005Y019291D01*
X020005Y019358D02*
X020206Y019358D01*
X020139Y019291D01*
X020172Y019204D02*
X020206Y019170D01*
X020206Y019104D01*
X020172Y019070D01*
X020039Y019070D01*
X020005Y019104D01*
X020005Y019170D01*
X020039Y019204D01*
X020053Y018365D02*
X020153Y018265D01*
X020020Y018265D01*
X020053Y018165D02*
X020053Y018365D01*
X020241Y018265D02*
X020374Y018265D01*
X020274Y018365D01*
X020274Y018165D01*
X020308Y018050D02*
X020308Y017850D01*
X020374Y017850D02*
X020241Y017850D01*
X020153Y017850D02*
X020020Y017850D01*
X020087Y017850D02*
X020087Y018050D01*
X020153Y017983D01*
X020308Y018050D02*
X020374Y017983D01*
X020462Y018017D02*
X020462Y017883D01*
X020495Y017850D01*
X020562Y017850D01*
X020595Y017883D01*
X020595Y018017D01*
X020562Y018050D01*
X020495Y018050D01*
X020462Y018017D01*
X020529Y017917D02*
X020462Y017850D01*
X020462Y018165D02*
X020529Y018232D01*
X020495Y018232D02*
X020595Y018232D01*
X020595Y018165D02*
X020595Y018365D01*
X020495Y018365D01*
X020462Y018332D01*
X020462Y018265D01*
X020495Y018232D01*
X021383Y019070D02*
X021584Y019070D01*
X021584Y019170D01*
X021550Y019204D01*
X021484Y019204D01*
X021450Y019170D01*
X021450Y019070D01*
X021450Y019137D02*
X021383Y019204D01*
X021383Y019291D02*
X021383Y019425D01*
X021383Y019358D02*
X021584Y019358D01*
X021517Y019291D01*
X021550Y019512D02*
X021417Y019512D01*
X021550Y019646D01*
X021417Y019646D01*
X021383Y019612D01*
X021383Y019546D01*
X021417Y019512D01*
X021550Y019512D02*
X021584Y019546D01*
X021584Y019612D01*
X021550Y019646D01*
X021584Y019733D02*
X021584Y019867D01*
X021550Y019867D01*
X021417Y019733D01*
X021383Y019733D01*
X022076Y018168D02*
X022143Y018168D01*
X022177Y018135D01*
X022264Y018135D02*
X022398Y018001D01*
X022364Y017968D01*
X022297Y017968D01*
X022264Y018001D01*
X022264Y018135D01*
X022297Y018168D01*
X022364Y018168D01*
X022398Y018135D01*
X022398Y018001D01*
X022485Y017968D02*
X022619Y017968D01*
X022552Y017968D02*
X022552Y018168D01*
X022619Y018101D01*
X022706Y018135D02*
X022739Y018168D01*
X022806Y018168D01*
X022839Y018135D01*
X022839Y018001D01*
X022806Y017968D01*
X022739Y017968D01*
X022706Y018001D01*
X022177Y017968D02*
X022043Y018101D01*
X022043Y018135D01*
X022076Y018168D01*
X022043Y017968D02*
X022177Y017968D01*
X021822Y016436D02*
X021755Y016436D01*
X021722Y016402D01*
X021634Y016402D02*
X021601Y016436D01*
X021534Y016436D01*
X021501Y016402D01*
X021501Y016369D01*
X021534Y016336D01*
X021501Y016302D01*
X021501Y016269D01*
X021534Y016236D01*
X021601Y016236D01*
X021634Y016269D01*
X021722Y016269D02*
X021755Y016236D01*
X021822Y016236D01*
X021855Y016269D01*
X021855Y016402D01*
X021822Y016436D01*
X021568Y016336D02*
X021534Y016336D01*
X021413Y016369D02*
X021380Y016336D01*
X021280Y016336D01*
X021280Y016402D02*
X021313Y016436D01*
X021380Y016436D01*
X021413Y016402D01*
X021413Y016369D01*
X021413Y016269D02*
X021380Y016236D01*
X021313Y016236D01*
X021280Y016269D01*
X021280Y016402D01*
X021219Y016121D02*
X021319Y016021D01*
X021186Y016021D01*
X021219Y015921D02*
X021219Y016121D01*
X021098Y016088D02*
X021065Y016121D01*
X020998Y016121D01*
X020965Y016088D01*
X021098Y015954D01*
X021065Y015921D01*
X020998Y015921D01*
X020965Y015954D01*
X020965Y016088D01*
X021098Y016088D02*
X021098Y015954D01*
X021032Y015806D02*
X021032Y015606D01*
X021098Y015606D02*
X020965Y015606D01*
X020998Y015491D02*
X021065Y015491D01*
X021098Y015458D01*
X020998Y015491D02*
X020965Y015458D01*
X020965Y015424D01*
X021098Y015291D01*
X020965Y015291D01*
X021186Y015391D02*
X021319Y015391D01*
X021219Y015491D01*
X021219Y015291D01*
X021407Y015324D02*
X021440Y015291D01*
X021507Y015291D01*
X021540Y015324D01*
X021540Y015458D01*
X021507Y015491D01*
X021440Y015491D01*
X021407Y015458D01*
X021440Y015606D02*
X021407Y015639D01*
X021440Y015606D02*
X021507Y015606D01*
X021540Y015639D01*
X021540Y015773D01*
X021507Y015806D01*
X021440Y015806D01*
X021407Y015773D01*
X021319Y015706D02*
X021186Y015706D01*
X021098Y015739D02*
X021032Y015806D01*
X021219Y015806D02*
X021319Y015706D01*
X021219Y015606D02*
X021219Y015806D01*
X021407Y015954D02*
X021440Y015921D01*
X021507Y015921D01*
X021540Y015954D01*
X021540Y016088D01*
X021507Y016121D01*
X021440Y016121D01*
X021407Y016088D01*
X021761Y015648D02*
X021828Y015648D01*
X021862Y015615D01*
X021949Y015615D02*
X022083Y015482D01*
X022049Y015448D01*
X021982Y015448D01*
X021949Y015482D01*
X021949Y015615D01*
X021982Y015648D01*
X022049Y015648D01*
X022083Y015615D01*
X022083Y015482D01*
X022170Y015448D02*
X022304Y015448D01*
X022237Y015448D02*
X022237Y015648D01*
X022304Y015582D01*
X022391Y015615D02*
X022391Y015548D01*
X022424Y015515D01*
X022525Y015515D01*
X022525Y015448D02*
X022525Y015648D01*
X022424Y015648D01*
X022391Y015615D01*
X022458Y015515D02*
X022391Y015448D01*
X022535Y014881D02*
X022669Y014881D01*
X022669Y014781D01*
X022602Y014814D01*
X022569Y014814D01*
X022535Y014781D01*
X022535Y014714D01*
X022569Y014681D01*
X022635Y014681D01*
X022669Y014714D01*
X022756Y014714D02*
X022790Y014681D01*
X022856Y014681D01*
X022890Y014714D01*
X022977Y014681D02*
X023111Y014681D01*
X023044Y014681D02*
X023044Y014881D01*
X023111Y014814D01*
X023198Y014847D02*
X023232Y014881D01*
X023298Y014881D01*
X023332Y014847D01*
X023332Y014714D01*
X023298Y014681D01*
X023232Y014681D01*
X023198Y014714D01*
X022890Y014847D02*
X022856Y014881D01*
X022790Y014881D01*
X022756Y014847D01*
X022756Y014814D01*
X022790Y014781D01*
X022756Y014747D01*
X022756Y014714D01*
X022790Y014781D02*
X022823Y014781D01*
X022856Y013956D02*
X022890Y013922D01*
X022856Y013956D02*
X022790Y013956D01*
X022756Y013922D01*
X022756Y013889D01*
X022890Y013755D01*
X022756Y013755D01*
X022669Y013755D02*
X022669Y013789D01*
X022535Y013922D01*
X022535Y013956D01*
X022669Y013956D01*
X022977Y013755D02*
X023111Y013755D01*
X023044Y013755D02*
X023044Y013956D01*
X023111Y013889D01*
X023198Y013922D02*
X023232Y013956D01*
X023298Y013956D01*
X023332Y013922D01*
X023332Y013789D01*
X023298Y013755D01*
X023232Y013755D01*
X023198Y013789D01*
X022924Y012991D02*
X022958Y012958D01*
X022958Y012824D01*
X022924Y012791D01*
X022858Y012791D01*
X022824Y012824D01*
X022737Y012791D02*
X022603Y012791D01*
X022670Y012791D02*
X022670Y012991D01*
X022737Y012924D01*
X022824Y012958D02*
X022858Y012991D01*
X022924Y012991D01*
X022516Y012958D02*
X022482Y012991D01*
X022416Y012991D01*
X022382Y012958D01*
X022382Y012924D01*
X022516Y012791D01*
X022382Y012791D01*
X022295Y012824D02*
X022261Y012791D01*
X022195Y012791D01*
X022161Y012824D01*
X022161Y012858D01*
X022195Y012891D01*
X022295Y012891D01*
X022295Y012824D01*
X022295Y012891D02*
X022228Y012958D01*
X022161Y012991D01*
X021862Y015448D02*
X021728Y015582D01*
X021728Y015615D01*
X021761Y015648D01*
X021728Y015448D02*
X021862Y015448D01*
X019733Y015797D02*
X019700Y015763D01*
X019666Y015763D01*
X019633Y015797D01*
X019633Y015863D01*
X019600Y015897D01*
X019566Y015897D01*
X019533Y015863D01*
X019533Y015797D01*
X019566Y015763D01*
X019733Y015797D02*
X019733Y015863D01*
X019700Y015897D01*
X019733Y016051D02*
X019733Y016118D01*
X019733Y016084D02*
X019566Y016084D01*
X019533Y016051D01*
X019533Y016018D01*
X019566Y015984D01*
X019533Y016205D02*
X019533Y016339D01*
X019533Y016272D02*
X019733Y016272D01*
X019666Y016205D01*
X019666Y016426D02*
X019733Y016493D01*
X019533Y016493D01*
X019533Y016426D02*
X019533Y016560D01*
X016786Y019346D02*
X016653Y019346D01*
X016620Y019379D01*
X016620Y019446D01*
X016653Y019479D01*
X016620Y019567D02*
X016620Y019700D01*
X016620Y019634D02*
X016820Y019634D01*
X016753Y019567D01*
X016786Y019479D02*
X016820Y019446D01*
X016820Y019379D01*
X016786Y019346D01*
X016786Y019788D02*
X016820Y019821D01*
X016820Y019888D01*
X016786Y019921D01*
X016653Y019788D01*
X016620Y019821D01*
X016620Y019888D01*
X016653Y019921D01*
X016786Y019921D01*
X016786Y020009D02*
X016753Y020009D01*
X016720Y020042D01*
X016720Y020142D01*
X016786Y020142D02*
X016820Y020109D01*
X016820Y020042D01*
X016786Y020009D01*
X016653Y020009D02*
X016620Y020042D01*
X016620Y020109D01*
X016653Y020142D01*
X016786Y020142D01*
X016786Y019788D02*
X016653Y019788D01*
X015875Y019776D02*
X015675Y019776D01*
X015675Y019709D02*
X015675Y019843D01*
X015775Y019930D02*
X015775Y020064D01*
X015875Y020030D02*
X015775Y019930D01*
X015675Y020030D02*
X015875Y020030D01*
X015875Y019776D02*
X015808Y019709D01*
X015675Y019622D02*
X015675Y019488D01*
X015675Y019555D02*
X015875Y019555D01*
X015808Y019488D01*
X015842Y019401D02*
X015875Y019367D01*
X015875Y019301D01*
X015842Y019267D01*
X015708Y019267D01*
X015675Y019301D01*
X015675Y019367D01*
X015708Y019401D01*
X015556Y019379D02*
X015523Y019346D01*
X015456Y019346D01*
X015423Y019379D01*
X015335Y019379D02*
X015302Y019346D01*
X015235Y019346D01*
X015202Y019379D01*
X015202Y019513D01*
X015235Y019546D01*
X015302Y019546D01*
X015335Y019513D01*
X015335Y019479D01*
X015302Y019446D01*
X015202Y019446D01*
X015423Y019513D02*
X015456Y019546D01*
X015523Y019546D01*
X015556Y019513D01*
X015556Y019379D01*
X015403Y019700D02*
X015403Y019800D01*
X015369Y019834D01*
X015302Y019834D01*
X015269Y019800D01*
X015269Y019700D01*
X015202Y019700D02*
X015403Y019700D01*
X015269Y019767D02*
X015202Y019834D01*
X015202Y019921D02*
X015202Y020055D01*
X015202Y019988D02*
X015403Y019988D01*
X015336Y019921D01*
X015369Y020142D02*
X015403Y020176D01*
X015403Y020242D01*
X015369Y020276D01*
X015236Y020142D01*
X015202Y020176D01*
X015202Y020242D01*
X015236Y020276D01*
X015369Y020276D01*
X015369Y020363D02*
X015336Y020363D01*
X015302Y020397D01*
X015302Y020463D01*
X015269Y020497D01*
X015236Y020497D01*
X015202Y020463D01*
X015202Y020397D01*
X015236Y020363D01*
X015269Y020363D01*
X015302Y020397D01*
X015302Y020463D02*
X015336Y020497D01*
X015369Y020497D01*
X015403Y020463D01*
X015403Y020397D01*
X015369Y020363D01*
X015369Y020142D02*
X015236Y020142D01*
X014458Y019945D02*
X014458Y019812D01*
X014358Y019812D01*
X014391Y019879D01*
X014391Y019912D01*
X014358Y019945D01*
X014291Y019945D01*
X014257Y019912D01*
X014257Y019845D01*
X014291Y019812D01*
X014257Y019724D02*
X014257Y019591D01*
X014257Y019658D02*
X014458Y019658D01*
X014391Y019591D01*
X014257Y019503D02*
X014257Y019370D01*
X014257Y019437D02*
X014458Y019437D01*
X014391Y019370D01*
X014424Y019282D02*
X014458Y019249D01*
X014458Y019182D01*
X014424Y019149D01*
X014291Y019149D01*
X014257Y019182D01*
X014257Y019249D01*
X014291Y019282D01*
X013237Y019329D02*
X013237Y019396D01*
X013204Y019429D01*
X013070Y019296D01*
X013037Y019329D01*
X013037Y019396D01*
X013070Y019429D01*
X013204Y019429D01*
X013237Y019329D02*
X013204Y019296D01*
X013070Y019296D01*
X013037Y019208D02*
X013037Y019075D01*
X013037Y019141D02*
X013237Y019141D01*
X013170Y019075D01*
X013204Y018987D02*
X013237Y018954D01*
X013237Y018887D01*
X013204Y018854D01*
X013070Y018854D01*
X013037Y018887D01*
X013037Y018954D01*
X013070Y018987D01*
X013070Y019517D02*
X013037Y019550D01*
X013037Y019617D01*
X013070Y019650D01*
X013104Y019650D01*
X013137Y019617D01*
X013137Y019517D01*
X013070Y019517D01*
X013137Y019517D02*
X013204Y019583D01*
X013237Y019650D01*
X013942Y018022D02*
X014143Y018022D01*
X014043Y017922D01*
X014043Y018056D01*
X014109Y017835D02*
X013976Y017835D01*
X013942Y017801D01*
X013942Y017735D01*
X013976Y017701D01*
X014109Y017835D01*
X014143Y017801D01*
X014143Y017735D01*
X014109Y017701D01*
X013976Y017701D01*
X013942Y017614D02*
X013942Y017480D01*
X013942Y017547D02*
X014143Y017547D01*
X014076Y017480D01*
X014109Y017393D02*
X014043Y017393D01*
X014009Y017359D01*
X014009Y017259D01*
X013942Y017259D02*
X014143Y017259D01*
X014143Y017359D01*
X014109Y017393D01*
X014009Y017326D02*
X013942Y017393D01*
X012101Y019621D02*
X011968Y019621D01*
X011935Y019655D01*
X011935Y019722D01*
X011968Y019755D01*
X011935Y019842D02*
X011935Y019976D01*
X011935Y019909D02*
X012135Y019909D01*
X012068Y019842D01*
X012101Y019755D02*
X012135Y019722D01*
X012135Y019655D01*
X012101Y019621D01*
X011979Y019467D02*
X012013Y019434D01*
X012013Y019301D01*
X011979Y019267D01*
X011913Y019267D01*
X011879Y019301D01*
X011792Y019267D02*
X011658Y019267D01*
X011725Y019267D02*
X011725Y019467D01*
X011792Y019401D01*
X011879Y019434D02*
X011913Y019467D01*
X011979Y019467D01*
X011571Y019401D02*
X011504Y019467D01*
X011504Y019267D01*
X011571Y019267D02*
X011437Y019267D01*
X011350Y019267D02*
X011216Y019401D01*
X011216Y019434D01*
X011250Y019467D01*
X011316Y019467D01*
X011350Y019434D01*
X011350Y019267D02*
X011216Y019267D01*
X010816Y019273D02*
X010816Y019339D01*
X010783Y019373D01*
X010749Y019373D01*
X010716Y019339D01*
X010682Y019373D01*
X010649Y019373D01*
X010616Y019339D01*
X010616Y019273D01*
X010649Y019239D01*
X010682Y019152D02*
X010616Y019085D01*
X010682Y019018D01*
X010816Y019018D01*
X010783Y018931D02*
X010749Y018931D01*
X010716Y018897D01*
X010682Y018931D01*
X010649Y018931D01*
X010616Y018897D01*
X010616Y018831D01*
X010649Y018797D01*
X010716Y018864D02*
X010716Y018897D01*
X010783Y018931D02*
X010816Y018897D01*
X010816Y018831D01*
X010783Y018797D01*
X010816Y018503D02*
X010616Y018503D01*
X010616Y018201D02*
X010649Y018168D01*
X010783Y018168D01*
X010749Y018201D02*
X010749Y018134D01*
X010749Y018047D02*
X010616Y017913D01*
X010616Y017826D02*
X010616Y017692D01*
X010816Y017692D01*
X010816Y017826D01*
X010749Y017913D02*
X010616Y018047D01*
X010716Y017759D02*
X010716Y017692D01*
X010168Y016869D02*
X010202Y016836D01*
X010202Y016802D01*
X010168Y016769D01*
X010102Y016769D01*
X010068Y016735D01*
X010068Y016702D01*
X010102Y016669D01*
X010168Y016669D01*
X010202Y016702D01*
X010202Y016554D02*
X010102Y016554D01*
X010068Y016521D01*
X010068Y016454D01*
X010102Y016420D01*
X010202Y016420D01*
X010202Y016354D02*
X010202Y016554D01*
X010135Y016420D02*
X010068Y016354D01*
X009981Y016387D02*
X009981Y016454D01*
X009947Y016487D01*
X009881Y016487D01*
X009847Y016454D01*
X009847Y016420D01*
X009981Y016420D01*
X009981Y016387D02*
X009947Y016354D01*
X009881Y016354D01*
X009760Y016354D02*
X009660Y016354D01*
X009626Y016387D01*
X009660Y016420D01*
X009726Y016420D01*
X009760Y016454D01*
X009726Y016487D01*
X009626Y016487D01*
X009539Y016454D02*
X009505Y016487D01*
X009439Y016487D01*
X009405Y016454D01*
X009405Y016420D01*
X009539Y016420D01*
X009539Y016387D02*
X009539Y016454D01*
X009539Y016387D02*
X009505Y016354D01*
X009439Y016354D01*
X009284Y016387D02*
X009251Y016354D01*
X009284Y016387D02*
X009284Y016521D01*
X009251Y016487D02*
X009318Y016487D01*
X009693Y016769D02*
X009760Y016769D01*
X009847Y016769D02*
X009881Y016735D01*
X009981Y016735D01*
X009981Y016669D02*
X009981Y016869D01*
X009881Y016869D01*
X009847Y016836D01*
X009847Y016769D01*
X009914Y016735D02*
X009847Y016669D01*
X009760Y016669D02*
X009760Y016869D01*
X009626Y016869D01*
X010068Y016836D02*
X010102Y016869D01*
X010168Y016869D01*
X009450Y018125D02*
X009517Y018192D01*
X009450Y018259D01*
X009317Y018259D01*
X009317Y018346D02*
X009517Y018346D01*
X009517Y018447D01*
X009483Y018480D01*
X009417Y018480D01*
X009383Y018447D01*
X009383Y018346D01*
X009383Y018413D02*
X009317Y018480D01*
X009350Y018567D02*
X009417Y018567D01*
X009450Y018601D01*
X009450Y018667D01*
X009417Y018701D01*
X009383Y018701D01*
X009383Y018567D01*
X009350Y018567D02*
X009317Y018601D01*
X009317Y018667D01*
X009317Y018822D02*
X009483Y018822D01*
X009517Y018855D01*
X009417Y018855D02*
X009417Y018788D01*
X009417Y018259D02*
X009417Y018125D01*
X009450Y018125D02*
X009317Y018125D01*
X008784Y018671D02*
X008784Y018804D01*
X008751Y018837D01*
X008684Y018837D01*
X008651Y018804D01*
X008563Y018771D02*
X008497Y018837D01*
X008497Y018637D01*
X008563Y018637D02*
X008430Y018637D01*
X008342Y018637D02*
X008209Y018637D01*
X008276Y018637D02*
X008276Y018837D01*
X008342Y018771D01*
X008121Y018804D02*
X008121Y018671D01*
X007988Y018804D01*
X007988Y018671D01*
X008021Y018637D01*
X008088Y018637D01*
X008121Y018671D01*
X008121Y018804D02*
X008088Y018837D01*
X008021Y018837D01*
X007988Y018804D01*
X007956Y019051D02*
X007923Y019084D01*
X007956Y019051D02*
X008023Y019051D01*
X008056Y019084D01*
X008056Y019217D01*
X008023Y019251D01*
X007956Y019251D01*
X007923Y019217D01*
X007835Y019184D02*
X007768Y019251D01*
X007768Y019051D01*
X007702Y019051D02*
X007835Y019051D01*
X007614Y019051D02*
X007481Y019051D01*
X007547Y019051D02*
X007547Y019251D01*
X007614Y019184D01*
X007393Y019184D02*
X007393Y019217D01*
X007360Y019251D01*
X007293Y019251D01*
X007260Y019217D01*
X007260Y019184D01*
X007293Y019151D01*
X007360Y019151D01*
X007393Y019184D01*
X007360Y019151D02*
X007393Y019117D01*
X007393Y019084D01*
X007360Y019051D01*
X007293Y019051D01*
X007260Y019084D01*
X007260Y019117D01*
X007293Y019151D01*
X006780Y019134D02*
X006747Y019134D01*
X006614Y019000D01*
X006580Y019000D01*
X006580Y018880D02*
X006780Y018880D01*
X006680Y018779D01*
X006680Y018913D01*
X006780Y019000D02*
X006780Y019134D01*
X006737Y019346D02*
X006637Y019346D01*
X006604Y019379D01*
X006604Y019513D01*
X006637Y019546D01*
X006737Y019546D01*
X006737Y019346D01*
X006516Y019346D02*
X006383Y019479D01*
X006383Y019513D01*
X006416Y019546D01*
X006483Y019546D01*
X006516Y019513D01*
X006516Y019346D02*
X006383Y019346D01*
X006580Y018692D02*
X006647Y018625D01*
X006647Y018659D02*
X006647Y018559D01*
X006580Y018559D02*
X006780Y018559D01*
X006780Y018659D01*
X006747Y018692D01*
X006680Y018692D01*
X006647Y018659D01*
X007195Y017578D02*
X007295Y017477D01*
X007161Y017477D01*
X007195Y017377D02*
X007195Y017578D01*
X007382Y017544D02*
X007382Y017511D01*
X007416Y017477D01*
X007382Y017444D01*
X007382Y017411D01*
X007416Y017377D01*
X007482Y017377D01*
X007516Y017411D01*
X007603Y017377D02*
X007737Y017377D01*
X007670Y017377D02*
X007670Y017578D01*
X007737Y017511D01*
X007824Y017544D02*
X007858Y017578D01*
X007924Y017578D01*
X007958Y017544D01*
X007958Y017411D01*
X007924Y017377D01*
X007858Y017377D01*
X007824Y017411D01*
X007516Y017544D02*
X007482Y017578D01*
X007416Y017578D01*
X007382Y017544D01*
X007416Y017477D02*
X007449Y017477D01*
X007373Y016396D02*
X007406Y016363D01*
X007406Y016230D01*
X007373Y016196D01*
X007306Y016196D01*
X007273Y016230D01*
X007185Y016196D02*
X007052Y016330D01*
X007052Y016363D01*
X007085Y016396D01*
X007152Y016396D01*
X007185Y016363D01*
X007273Y016363D02*
X007306Y016396D01*
X007373Y016396D01*
X007185Y016196D02*
X007052Y016196D01*
X008684Y018637D02*
X008651Y018671D01*
X008684Y018637D02*
X008751Y018637D01*
X008784Y018671D01*
X008357Y020763D02*
X008291Y020763D01*
X008257Y020797D01*
X008170Y020763D02*
X008036Y020763D01*
X008103Y020763D02*
X008103Y020963D01*
X008170Y020897D01*
X008257Y020930D02*
X008291Y020963D01*
X008357Y020963D01*
X008391Y020930D01*
X008391Y020797D01*
X008357Y020763D01*
X007949Y020797D02*
X007815Y020930D01*
X007815Y020797D01*
X007849Y020763D01*
X007915Y020763D01*
X007949Y020797D01*
X007949Y020930D01*
X007915Y020963D01*
X007849Y020963D01*
X007815Y020930D01*
X007728Y020897D02*
X007661Y020963D01*
X007661Y020763D01*
X007728Y020763D02*
X007594Y020763D01*
X007864Y022181D02*
X007931Y022181D01*
X007964Y022214D01*
X008051Y022214D02*
X008085Y022181D01*
X008152Y022181D01*
X008185Y022214D01*
X008051Y022347D01*
X008051Y022214D01*
X008051Y022347D02*
X008085Y022381D01*
X008152Y022381D01*
X008185Y022347D01*
X008185Y022214D01*
X008272Y022181D02*
X008406Y022181D01*
X008339Y022181D02*
X008339Y022381D01*
X008406Y022314D01*
X008493Y022347D02*
X008527Y022381D01*
X008594Y022381D01*
X008627Y022347D01*
X008627Y022214D01*
X008594Y022181D01*
X008527Y022181D01*
X008493Y022214D01*
X008942Y022156D02*
X008976Y022190D01*
X009109Y022190D01*
X009143Y022156D01*
X009143Y022089D01*
X009109Y022056D01*
X009076Y022056D01*
X009043Y022089D01*
X009043Y022190D01*
X008942Y022156D02*
X008942Y022089D01*
X008976Y022056D01*
X008942Y021969D02*
X008942Y021835D01*
X008942Y021902D02*
X009143Y021902D01*
X009076Y021835D01*
X008942Y021748D02*
X008942Y021614D01*
X008942Y021681D02*
X009143Y021681D01*
X009076Y021614D01*
X009109Y021527D02*
X009143Y021493D01*
X009143Y021427D01*
X009109Y021393D01*
X008976Y021393D01*
X008942Y021427D01*
X008942Y021493D01*
X008976Y021527D01*
X007864Y022181D02*
X007830Y022214D01*
X007830Y022247D01*
X007864Y022281D01*
X007897Y022281D01*
X007864Y022281D02*
X007830Y022314D01*
X007830Y022347D01*
X007864Y022381D01*
X007931Y022381D01*
X007964Y022347D01*
X006754Y026208D02*
X006707Y026208D01*
X006613Y026302D01*
X006613Y026350D01*
X006660Y026397D01*
X006707Y026397D01*
X006731Y026373D01*
X006731Y026326D01*
X006660Y026255D01*
X006754Y026208D02*
X006802Y026255D01*
X006802Y026302D01*
X006816Y026412D02*
X006911Y026506D01*
X006769Y026506D01*
X006911Y026364D01*
X007043Y026497D02*
X007043Y026591D01*
X007020Y026568D02*
X007091Y026639D01*
X007138Y026591D02*
X006996Y026733D01*
X006925Y026662D01*
X006925Y026615D01*
X006973Y026568D01*
X007020Y026568D01*
X006844Y026743D02*
X006891Y026791D01*
X006891Y026838D01*
X006797Y026932D01*
X006750Y026932D01*
X006703Y026885D01*
X006703Y026838D01*
X006797Y026743D01*
X006844Y026743D01*
X006821Y026720D02*
X006821Y026814D01*
X006759Y026658D02*
X006664Y026564D01*
X006712Y026611D02*
X006570Y026752D01*
X006664Y026752D01*
X006485Y026620D02*
X006437Y026620D01*
X006390Y026572D01*
X006390Y026525D01*
X006414Y026502D01*
X006461Y026502D01*
X006461Y026454D01*
X006485Y026431D01*
X006532Y026431D01*
X006579Y026478D01*
X006579Y026525D01*
X006485Y026525D02*
X006461Y026502D01*
X006455Y028204D02*
X006522Y028204D01*
X006556Y028238D01*
X006643Y028238D02*
X006676Y028204D01*
X006743Y028204D01*
X006777Y028238D01*
X006777Y028371D01*
X006743Y028404D01*
X006676Y028404D01*
X006643Y028371D01*
X006556Y028371D02*
X006522Y028404D01*
X006455Y028404D01*
X006422Y028371D01*
X006422Y028338D01*
X006455Y028304D01*
X006422Y028271D01*
X006422Y028238D01*
X006455Y028204D01*
X006455Y028304D02*
X006489Y028304D01*
X006335Y028371D02*
X006301Y028404D01*
X006234Y028404D01*
X006201Y028371D01*
X006201Y028338D01*
X006335Y028204D01*
X006201Y028204D01*
X008470Y028165D02*
X008470Y028031D01*
X008470Y028098D02*
X008670Y028098D01*
X008603Y028031D01*
X008637Y027944D02*
X008670Y027911D01*
X008670Y027844D01*
X008637Y027810D01*
X008503Y027810D01*
X008470Y027844D01*
X008470Y027911D01*
X008503Y027944D01*
X008503Y028252D02*
X008637Y028386D01*
X008503Y028386D01*
X008470Y028353D01*
X008470Y028286D01*
X008503Y028252D01*
X008637Y028252D01*
X008670Y028286D01*
X008670Y028353D01*
X008637Y028386D01*
X008670Y028473D02*
X008670Y028607D01*
X008637Y028607D01*
X008503Y028473D01*
X008470Y028473D01*
X008500Y027263D02*
X008567Y027229D01*
X008633Y027163D01*
X008533Y027163D01*
X008500Y027129D01*
X008500Y027096D01*
X008533Y027062D01*
X008600Y027062D01*
X008633Y027096D01*
X008633Y027163D01*
X008721Y027062D02*
X008854Y027062D01*
X008787Y027062D02*
X008787Y027263D01*
X008854Y027196D01*
X008942Y027062D02*
X009075Y027062D01*
X009008Y027062D02*
X009008Y027263D01*
X009075Y027196D01*
X009163Y027229D02*
X009196Y027263D01*
X009263Y027263D01*
X009296Y027229D01*
X009296Y027096D01*
X009263Y027062D01*
X009196Y027062D01*
X009163Y027096D01*
X012958Y032614D02*
X013158Y032614D01*
X013158Y032714D01*
X013125Y032747D01*
X013058Y032747D01*
X013025Y032714D01*
X013025Y032614D01*
X013025Y032680D02*
X012958Y032747D01*
X012958Y032835D02*
X012958Y032968D01*
X012958Y032901D02*
X013158Y032901D01*
X013092Y032835D01*
X013058Y033056D02*
X013092Y033122D01*
X013092Y033156D01*
X013058Y033189D01*
X012992Y033189D01*
X012958Y033156D01*
X012958Y033089D01*
X012992Y033056D01*
X013058Y033056D02*
X013158Y033056D01*
X013158Y033189D01*
X013352Y033056D02*
X013385Y033056D01*
X013519Y033189D01*
X013552Y033189D01*
X013552Y033056D01*
X013552Y032901D02*
X013352Y032901D01*
X013352Y032835D02*
X013352Y032968D01*
X013485Y032835D02*
X013552Y032901D01*
X013519Y032747D02*
X013452Y032747D01*
X013419Y032714D01*
X013419Y032614D01*
X013419Y032680D02*
X013352Y032747D01*
X013352Y032614D02*
X013552Y032614D01*
X013552Y032714D01*
X013519Y032747D01*
X013746Y032747D02*
X013812Y032680D01*
X013812Y032714D02*
X013812Y032614D01*
X013746Y032614D02*
X013946Y032614D01*
X013946Y032714D01*
X013912Y032747D01*
X013846Y032747D01*
X013812Y032714D01*
X013746Y032835D02*
X013746Y032968D01*
X013746Y032901D02*
X013946Y032901D01*
X013879Y032835D01*
X013846Y033056D02*
X013846Y033156D01*
X013812Y033189D01*
X013779Y033189D01*
X013746Y033156D01*
X013746Y033089D01*
X013779Y033056D01*
X013846Y033056D01*
X013912Y033122D01*
X013946Y033189D01*
X015320Y033156D02*
X015320Y033089D01*
X015354Y033056D01*
X015387Y033056D01*
X015421Y033089D01*
X015421Y033156D01*
X015387Y033189D01*
X015354Y033189D01*
X015320Y033156D01*
X015421Y033156D02*
X015454Y033189D01*
X015487Y033189D01*
X015521Y033156D01*
X015521Y033089D01*
X015487Y033056D01*
X015454Y033056D01*
X015421Y033089D01*
X015320Y032968D02*
X015320Y032835D01*
X015320Y032901D02*
X015521Y032901D01*
X015454Y032835D01*
X015487Y032747D02*
X015421Y032747D01*
X015387Y032714D01*
X015387Y032614D01*
X015387Y032680D02*
X015320Y032747D01*
X015320Y032614D02*
X015521Y032614D01*
X015521Y032714D01*
X015487Y032747D01*
X015714Y032747D02*
X015781Y032680D01*
X015781Y032714D02*
X015781Y032614D01*
X015714Y032614D02*
X015914Y032614D01*
X015914Y032714D01*
X015881Y032747D01*
X015814Y032747D01*
X015781Y032714D01*
X015714Y032835D02*
X015848Y032968D01*
X015881Y032968D01*
X015914Y032935D01*
X015914Y032868D01*
X015881Y032835D01*
X015714Y032835D02*
X015714Y032968D01*
X015748Y033056D02*
X015881Y033189D01*
X015748Y033189D01*
X015714Y033156D01*
X015714Y033089D01*
X015748Y033056D01*
X015881Y033056D01*
X015914Y033089D01*
X015914Y033156D01*
X015881Y033189D01*
X016108Y033156D02*
X016108Y033089D01*
X016141Y033056D01*
X016208Y033089D02*
X016208Y033189D01*
X016275Y033189D02*
X016308Y033156D01*
X016308Y033089D01*
X016275Y033056D01*
X016241Y033056D01*
X016208Y033089D01*
X016141Y033189D02*
X016275Y033189D01*
X016141Y033189D02*
X016108Y033156D01*
X016108Y032968D02*
X016108Y032835D01*
X016108Y032901D02*
X016308Y032901D01*
X016241Y032835D01*
X016208Y032747D02*
X016175Y032714D01*
X016175Y032614D01*
X016175Y032680D02*
X016108Y032747D01*
X016208Y032747D02*
X016275Y032747D01*
X016308Y032714D01*
X016308Y032614D01*
X016108Y032614D01*
X016065Y030294D02*
X015998Y030294D01*
X015965Y030261D01*
X016098Y030127D01*
X016065Y030094D01*
X015998Y030094D01*
X015965Y030127D01*
X015965Y030261D01*
X015877Y030261D02*
X015877Y030227D01*
X015844Y030194D01*
X015777Y030194D01*
X015744Y030161D01*
X015744Y030127D01*
X015777Y030094D01*
X015844Y030094D01*
X015877Y030127D01*
X015877Y030161D01*
X015844Y030194D01*
X015777Y030194D02*
X015744Y030227D01*
X015744Y030261D01*
X015777Y030294D01*
X015844Y030294D01*
X015877Y030261D01*
X016065Y030294D02*
X016098Y030261D01*
X016098Y030127D01*
X016186Y030094D02*
X016319Y030094D01*
X016253Y030094D02*
X016253Y030294D01*
X016319Y030227D01*
X016407Y030261D02*
X016440Y030294D01*
X016507Y030294D01*
X016540Y030261D01*
X016540Y030127D01*
X016507Y030094D01*
X016440Y030094D01*
X016407Y030127D01*
X015714Y029867D02*
X015714Y029734D01*
X015680Y029700D01*
X015613Y029700D01*
X015580Y029734D01*
X015493Y029700D02*
X015359Y029700D01*
X015426Y029700D02*
X015426Y029900D01*
X015493Y029834D01*
X015580Y029867D02*
X015613Y029900D01*
X015680Y029900D01*
X015714Y029867D01*
X015272Y029834D02*
X015205Y029900D01*
X015205Y029700D01*
X015272Y029700D02*
X015138Y029700D01*
X015051Y029700D02*
X015051Y029734D01*
X014917Y029867D01*
X014917Y029900D01*
X015051Y029900D01*
X017250Y035133D02*
X017450Y035133D01*
X017450Y035233D01*
X017416Y035267D01*
X017350Y035267D01*
X017316Y035233D01*
X017316Y035133D01*
X017316Y035200D02*
X017250Y035267D01*
X017250Y035354D02*
X017383Y035488D01*
X017416Y035488D01*
X017450Y035454D01*
X017450Y035388D01*
X017416Y035354D01*
X017250Y035354D02*
X017250Y035488D01*
X017283Y035575D02*
X017250Y035609D01*
X017250Y035675D01*
X017283Y035709D01*
X017350Y035709D01*
X017383Y035675D01*
X017383Y035642D01*
X017350Y035575D01*
X017450Y035575D01*
X017450Y035709D01*
X020211Y031318D02*
X020278Y031318D01*
X020311Y031284D01*
X020211Y031318D02*
X020177Y031284D01*
X020177Y031251D01*
X020311Y031118D01*
X020177Y031118D01*
X020398Y031218D02*
X020532Y031218D01*
X020432Y031318D01*
X020432Y031118D01*
X020619Y031118D02*
X020686Y031184D01*
X020653Y031184D02*
X020753Y031184D01*
X020753Y031118D02*
X020753Y031318D01*
X020653Y031318D01*
X020619Y031284D01*
X020619Y031218D01*
X020653Y031184D01*
X019346Y028174D02*
X019312Y028174D01*
X019279Y028140D01*
X019245Y028174D01*
X019212Y028174D01*
X019179Y028140D01*
X019179Y028074D01*
X019212Y028040D01*
X019179Y027953D02*
X019179Y027819D01*
X019179Y027886D02*
X019379Y027886D01*
X019312Y027819D01*
X019179Y027732D02*
X019179Y027598D01*
X019179Y027665D02*
X019379Y027665D01*
X019312Y027598D01*
X019346Y027511D02*
X019379Y027477D01*
X019379Y027411D01*
X019346Y027377D01*
X019212Y027377D01*
X019179Y027411D01*
X019179Y027477D01*
X019212Y027511D01*
X019346Y028040D02*
X019379Y028074D01*
X019379Y028140D01*
X019346Y028174D01*
X019279Y028140D02*
X019279Y028107D01*
X019645Y026008D02*
X019612Y025975D01*
X019612Y025908D01*
X019645Y025875D01*
X019712Y025875D02*
X019745Y025942D01*
X019745Y025975D01*
X019712Y026008D01*
X019645Y026008D01*
X019712Y025875D02*
X019812Y025875D01*
X019812Y026008D01*
X019779Y025787D02*
X019645Y025654D01*
X019612Y025687D01*
X019612Y025754D01*
X019645Y025787D01*
X019779Y025787D01*
X019812Y025754D01*
X019812Y025687D01*
X019779Y025654D01*
X019645Y025654D01*
X019612Y025566D02*
X019612Y025433D01*
X019612Y025500D02*
X019812Y025500D01*
X019745Y025433D01*
X019779Y025345D02*
X019812Y025312D01*
X019812Y025245D01*
X019779Y025212D01*
X019645Y025212D01*
X019612Y025245D01*
X019612Y025312D01*
X019645Y025345D01*
X020906Y026190D02*
X020939Y026157D01*
X021006Y026157D01*
X021039Y026190D01*
X021039Y026224D01*
X021006Y026257D01*
X020939Y026257D01*
X020906Y026224D01*
X020906Y026190D01*
X020939Y026257D02*
X020906Y026290D01*
X020906Y026324D01*
X020939Y026357D01*
X021006Y026357D01*
X021039Y026324D01*
X021039Y026290D01*
X021006Y026257D01*
X021127Y026257D02*
X021260Y026257D01*
X021160Y026357D01*
X021160Y026157D01*
X021348Y026157D02*
X021415Y026224D01*
X021381Y026224D02*
X021481Y026224D01*
X021481Y026157D02*
X021481Y026357D01*
X021381Y026357D01*
X021348Y026324D01*
X021348Y026257D01*
X021381Y026224D01*
X021732Y023528D02*
X021698Y023495D01*
X021698Y023428D01*
X021732Y023395D01*
X021732Y023307D02*
X021698Y023274D01*
X021698Y023207D01*
X021732Y023174D01*
X021798Y023240D02*
X021798Y023274D01*
X021765Y023307D01*
X021732Y023307D01*
X021798Y023274D02*
X021832Y023307D01*
X021865Y023307D01*
X021899Y023274D01*
X021899Y023207D01*
X021865Y023174D01*
X021899Y023019D02*
X021698Y023019D01*
X021698Y022953D02*
X021698Y023086D01*
X021832Y022953D02*
X021899Y023019D01*
X021865Y022865D02*
X021899Y022832D01*
X021899Y022765D01*
X021865Y022732D01*
X021732Y022732D01*
X021698Y022765D01*
X021698Y022832D01*
X021732Y022865D01*
X021865Y023395D02*
X021899Y023428D01*
X021899Y023495D01*
X021865Y023528D01*
X021832Y023528D01*
X021798Y023495D01*
X021765Y023528D01*
X021732Y023528D01*
X021798Y023495D02*
X021798Y023461D01*
X020363Y023219D02*
X020363Y023152D01*
X020330Y023119D01*
X020330Y023032D02*
X020296Y023032D01*
X020263Y022998D01*
X020230Y023032D01*
X020196Y023032D01*
X020163Y022998D01*
X020163Y022931D01*
X020196Y022898D01*
X020163Y022811D02*
X020163Y022677D01*
X020163Y022744D02*
X020363Y022744D01*
X020296Y022677D01*
X020330Y022590D02*
X020363Y022556D01*
X020363Y022489D01*
X020330Y022456D01*
X020196Y022456D01*
X020163Y022489D01*
X020163Y022556D01*
X020196Y022590D01*
X020330Y022898D02*
X020363Y022931D01*
X020363Y022998D01*
X020330Y023032D01*
X020263Y022998D02*
X020263Y022965D01*
X020163Y023119D02*
X020296Y023253D01*
X020330Y023253D01*
X020363Y023219D01*
X020163Y023253D02*
X020163Y023119D01*
X019887Y023174D02*
X019887Y023041D01*
X019853Y023007D01*
X019787Y023007D01*
X019753Y023041D01*
X019666Y023007D02*
X019532Y023007D01*
X019599Y023007D02*
X019599Y023207D01*
X019666Y023141D01*
X019753Y023174D02*
X019787Y023207D01*
X019853Y023207D01*
X019887Y023174D01*
X019445Y023174D02*
X019411Y023207D01*
X019345Y023207D01*
X019311Y023174D01*
X019311Y023141D01*
X019445Y023007D01*
X019311Y023007D01*
X019224Y023007D02*
X019090Y023007D01*
X019157Y023007D02*
X019157Y023207D01*
X019224Y023141D01*
X024699Y029779D02*
X024666Y029812D01*
X024666Y029846D01*
X024699Y029879D01*
X024766Y029879D01*
X024799Y029912D01*
X024799Y029946D01*
X024766Y029979D01*
X024699Y029979D01*
X024666Y029946D01*
X024666Y029912D01*
X024699Y029879D01*
X024766Y029879D02*
X024799Y029846D01*
X024799Y029812D01*
X024766Y029779D01*
X024699Y029779D01*
X024887Y029812D02*
X024920Y029779D01*
X024987Y029779D01*
X025020Y029812D01*
X025108Y029812D02*
X025141Y029779D01*
X025208Y029779D01*
X025241Y029812D01*
X025241Y029946D01*
X025208Y029979D01*
X025141Y029979D01*
X025108Y029946D01*
X025020Y029946D02*
X024987Y029979D01*
X024920Y029979D01*
X024887Y029946D01*
X024887Y029912D01*
X024920Y029879D01*
X024887Y029846D01*
X024887Y029812D01*
X024920Y029879D02*
X024953Y029879D01*
X025211Y028956D02*
X025278Y028956D01*
X025311Y028922D01*
X025398Y028922D02*
X025398Y028889D01*
X025432Y028855D01*
X025398Y028822D01*
X025398Y028789D01*
X025432Y028755D01*
X025499Y028755D01*
X025532Y028789D01*
X025619Y028755D02*
X025686Y028822D01*
X025653Y028822D02*
X025753Y028822D01*
X025753Y028755D02*
X025753Y028956D01*
X025653Y028956D01*
X025619Y028922D01*
X025619Y028855D01*
X025653Y028822D01*
X025532Y028922D02*
X025499Y028956D01*
X025432Y028956D01*
X025398Y028922D01*
X025432Y028855D02*
X025465Y028855D01*
X025311Y028755D02*
X025177Y028755D01*
X025177Y028889D02*
X025177Y028922D01*
X025211Y028956D01*
X025177Y028889D02*
X025311Y028755D01*
X025392Y027932D02*
X025359Y027899D01*
X025359Y027865D01*
X025392Y027832D01*
X025359Y027798D01*
X025359Y027765D01*
X025392Y027732D01*
X025459Y027732D01*
X025493Y027765D01*
X025580Y027732D02*
X025647Y027798D01*
X025613Y027798D02*
X025714Y027798D01*
X025714Y027732D02*
X025714Y027932D01*
X025613Y027932D01*
X025580Y027899D01*
X025580Y027832D01*
X025613Y027798D01*
X025493Y027899D02*
X025459Y027932D01*
X025392Y027932D01*
X025392Y027832D02*
X025426Y027832D01*
X025272Y027865D02*
X025205Y027932D01*
X025205Y027732D01*
X025272Y027732D02*
X025138Y027732D01*
X025132Y026948D02*
X025199Y026948D01*
X025232Y026914D01*
X025232Y026881D01*
X025199Y026848D01*
X025099Y026848D01*
X025099Y026914D02*
X025099Y026781D01*
X025132Y026747D01*
X025199Y026747D01*
X025232Y026781D01*
X025320Y026747D02*
X025453Y026747D01*
X025320Y026881D01*
X025320Y026914D01*
X025353Y026948D01*
X025420Y026948D01*
X025453Y026914D01*
X025541Y026914D02*
X025574Y026948D01*
X025641Y026948D01*
X025674Y026914D01*
X025674Y026781D01*
X025641Y026747D01*
X025574Y026747D01*
X025541Y026781D01*
X025132Y026948D02*
X025099Y026914D01*
X025756Y021869D02*
X025756Y021669D01*
X025823Y021669D02*
X025689Y021669D01*
X025723Y021554D02*
X025789Y021554D01*
X025823Y021521D01*
X025910Y021521D02*
X025944Y021554D01*
X026010Y021554D01*
X026044Y021521D01*
X026131Y021521D02*
X026131Y021454D01*
X026165Y021420D01*
X026265Y021420D01*
X026265Y021354D02*
X026265Y021554D01*
X026165Y021554D01*
X026131Y021521D01*
X026198Y021420D02*
X026131Y021354D01*
X026044Y021354D02*
X025910Y021487D01*
X025910Y021521D01*
X025910Y021669D02*
X026044Y021669D01*
X025910Y021802D01*
X025910Y021836D01*
X025944Y021869D01*
X026010Y021869D01*
X026044Y021836D01*
X026131Y021836D02*
X026131Y021769D01*
X026165Y021735D01*
X026265Y021735D01*
X026265Y021669D02*
X026265Y021869D01*
X026165Y021869D01*
X026131Y021836D01*
X026198Y021735D02*
X026131Y021669D01*
X026044Y021354D02*
X025910Y021354D01*
X025823Y021354D02*
X025689Y021487D01*
X025689Y021521D01*
X025723Y021554D01*
X025689Y021354D02*
X025823Y021354D01*
X025789Y021082D02*
X025723Y021082D01*
X025689Y021048D01*
X025689Y021015D01*
X025723Y020981D01*
X025689Y020948D01*
X025689Y020915D01*
X025723Y020881D01*
X025789Y020881D01*
X025823Y020915D01*
X025910Y020881D02*
X026044Y020881D01*
X025910Y021015D01*
X025910Y021048D01*
X025944Y021082D01*
X026010Y021082D01*
X026044Y021048D01*
X026131Y021048D02*
X026131Y020981D01*
X026165Y020948D01*
X026265Y020948D01*
X026265Y020881D02*
X026265Y021082D01*
X026165Y021082D01*
X026131Y021048D01*
X026198Y020948D02*
X026131Y020881D01*
X026165Y020767D02*
X026131Y020733D01*
X026131Y020666D01*
X026165Y020633D01*
X026265Y020633D01*
X026265Y020566D02*
X026265Y020767D01*
X026165Y020767D01*
X026044Y020733D02*
X026010Y020767D01*
X025944Y020767D01*
X025910Y020733D01*
X025910Y020700D01*
X026044Y020566D01*
X025910Y020566D01*
X025910Y020452D02*
X025910Y020418D01*
X026044Y020285D01*
X026044Y020251D01*
X026131Y020251D02*
X026198Y020318D01*
X026165Y020318D02*
X026265Y020318D01*
X026265Y020251D02*
X026265Y020452D01*
X026165Y020452D01*
X026131Y020418D01*
X026131Y020351D01*
X026165Y020318D01*
X026044Y020452D02*
X025910Y020452D01*
X025723Y020566D02*
X025723Y020767D01*
X025823Y020666D01*
X025689Y020666D01*
X025723Y020981D02*
X025756Y020981D01*
X025823Y021048D02*
X025789Y021082D01*
X026198Y020633D02*
X026131Y020566D01*
X025823Y021802D02*
X025756Y021869D01*
X023513Y007520D02*
X023513Y007386D01*
X023413Y007386D01*
X023446Y007453D01*
X023446Y007486D01*
X023413Y007520D01*
X023346Y007520D01*
X023313Y007486D01*
X023313Y007420D01*
X023346Y007386D01*
X023413Y007299D02*
X023413Y007165D01*
X023513Y007265D01*
X023313Y007265D01*
X023313Y007078D02*
X023379Y007011D01*
X023379Y007044D02*
X023379Y006944D01*
X023313Y006944D02*
X023513Y006944D01*
X023513Y007044D01*
X023479Y007078D01*
X023413Y007078D01*
X023379Y007044D01*
X022765Y007056D02*
X022765Y007123D01*
X022731Y007157D01*
X022598Y007157D01*
X022565Y007123D01*
X022565Y007056D01*
X022598Y007023D01*
X022731Y007023D01*
X022765Y007056D01*
X022631Y007090D02*
X022565Y007157D01*
X022565Y007244D02*
X022565Y007378D01*
X022565Y007311D02*
X022765Y007311D01*
X022698Y007244D01*
X022731Y007465D02*
X022765Y007498D01*
X022765Y007565D01*
X022731Y007598D01*
X022698Y007598D01*
X022565Y007465D01*
X022565Y007598D01*
X021977Y007447D02*
X021944Y007480D01*
X021911Y007480D01*
X021877Y007447D01*
X021844Y007480D01*
X021810Y007480D01*
X021777Y007447D01*
X021777Y007380D01*
X021810Y007347D01*
X021877Y007414D02*
X021877Y007447D01*
X021977Y007447D02*
X021977Y007380D01*
X021944Y007347D01*
X021877Y007259D02*
X021877Y007126D01*
X021977Y007226D01*
X021777Y007226D01*
X021777Y007038D02*
X021844Y006972D01*
X021844Y007005D02*
X021844Y006905D01*
X021777Y006905D02*
X021977Y006905D01*
X021977Y007005D01*
X021944Y007038D01*
X021877Y007038D01*
X021844Y007005D01*
X024803Y003268D02*
X024769Y003234D01*
X024769Y003168D01*
X024803Y003134D01*
X024936Y003268D01*
X024803Y003268D01*
X024936Y003268D02*
X024969Y003234D01*
X024969Y003168D01*
X024936Y003134D01*
X024803Y003134D01*
X024869Y003047D02*
X024869Y002913D01*
X024969Y003013D01*
X024769Y003013D01*
X024769Y002826D02*
X024836Y002759D01*
X024836Y002792D02*
X024836Y002692D01*
X024769Y002692D02*
X024969Y002692D01*
X024969Y002792D01*
X024936Y002826D01*
X024869Y002826D01*
X024836Y002792D01*
X024651Y002144D02*
X024550Y002144D01*
X024517Y002111D01*
X024517Y002044D01*
X024550Y002011D01*
X024651Y002011D01*
X024651Y001944D02*
X024651Y002144D01*
X024584Y002011D02*
X024517Y001944D01*
X024430Y002044D02*
X024296Y002044D01*
X024329Y001944D02*
X024329Y002144D01*
X024430Y002044D01*
X024379Y001850D02*
X024346Y001850D01*
X024212Y001717D01*
X024179Y001717D01*
X024212Y001629D02*
X024179Y001596D01*
X024179Y001529D01*
X024212Y001496D01*
X024212Y001408D02*
X024179Y001375D01*
X024179Y001308D01*
X024212Y001275D01*
X024346Y001275D01*
X024379Y001308D01*
X024379Y001375D01*
X024346Y001408D01*
X024346Y001496D02*
X024379Y001529D01*
X024379Y001596D01*
X024346Y001629D01*
X024312Y001629D01*
X024279Y001596D01*
X024245Y001629D01*
X024212Y001629D01*
X024279Y001596D02*
X024279Y001563D01*
X024379Y001717D02*
X024379Y001850D01*
X018824Y004419D02*
X018790Y004385D01*
X018724Y004385D01*
X018690Y004419D01*
X018603Y004385D02*
X018469Y004519D01*
X018469Y004552D01*
X018503Y004585D01*
X018569Y004585D01*
X018603Y004552D01*
X018690Y004552D02*
X018724Y004585D01*
X018790Y004585D01*
X018824Y004552D01*
X018824Y004419D01*
X018603Y004385D02*
X018469Y004385D01*
X018382Y004385D02*
X018382Y004419D01*
X018248Y004552D01*
X018248Y004585D01*
X018382Y004585D01*
X017131Y004631D02*
X017131Y004497D01*
X017097Y004464D01*
X017031Y004464D01*
X016997Y004497D01*
X016910Y004497D02*
X016910Y004531D01*
X016876Y004564D01*
X016810Y004564D01*
X016776Y004531D01*
X016776Y004497D01*
X016810Y004464D01*
X016876Y004464D01*
X016910Y004497D01*
X016876Y004564D02*
X016910Y004597D01*
X016910Y004631D01*
X016876Y004664D01*
X016810Y004664D01*
X016776Y004631D01*
X016776Y004597D01*
X016810Y004564D01*
X016997Y004631D02*
X017031Y004664D01*
X017097Y004664D01*
X017131Y004631D01*
X016422Y004631D02*
X016422Y004497D01*
X016389Y004464D01*
X016322Y004464D01*
X016289Y004497D01*
X016201Y004497D02*
X016168Y004464D01*
X016101Y004464D01*
X016068Y004497D01*
X016068Y004531D01*
X016101Y004564D01*
X016201Y004564D01*
X016201Y004497D01*
X016201Y004564D02*
X016134Y004631D01*
X016068Y004664D01*
X016289Y004631D02*
X016322Y004664D01*
X016389Y004664D01*
X016422Y004631D01*
X011944Y018086D02*
X011810Y018086D01*
X011777Y018119D01*
X011777Y018186D01*
X011810Y018220D01*
X011777Y018307D02*
X011777Y018440D01*
X011777Y018374D02*
X011977Y018374D01*
X011911Y018307D01*
X011944Y018220D02*
X011977Y018186D01*
X011977Y018119D01*
X011944Y018086D01*
X011911Y018528D02*
X011977Y018595D01*
X011777Y018595D01*
X011777Y018661D02*
X011777Y018528D01*
X011777Y018749D02*
X011777Y018882D01*
X011777Y018816D02*
X011977Y018816D01*
X011911Y018749D01*
X011968Y020063D02*
X012101Y020197D01*
X011968Y020197D01*
X011935Y020164D01*
X011935Y020097D01*
X011968Y020063D01*
X012101Y020063D01*
X012135Y020097D01*
X012135Y020164D01*
X012101Y020197D01*
X012035Y020284D02*
X012135Y020385D01*
X011935Y020385D01*
X012035Y020418D02*
X012035Y020284D01*
X010816Y019273D02*
X010783Y019239D01*
X010816Y019152D02*
X010682Y019152D01*
X010716Y019306D02*
X010716Y019339D01*
D13*
X024597Y027678D02*
X025008Y027678D01*
X025008Y027952D01*
X025008Y028138D02*
X025008Y028412D01*
X025008Y028275D02*
X024597Y028275D01*
X024597Y028599D02*
X024597Y028804D01*
X024666Y028872D01*
X024939Y028872D01*
X025008Y028804D01*
X025008Y028599D01*
X024597Y028599D01*
X024597Y029059D02*
X024597Y029196D01*
X024597Y029128D02*
X025008Y029128D01*
X025008Y029196D02*
X025008Y029059D01*
X024803Y027815D02*
X024803Y027678D01*
D14*
X023139Y001783D02*
X023139Y001173D01*
X022834Y001173D01*
X022732Y001274D01*
X022732Y001478D01*
X022834Y001580D01*
X023139Y001580D01*
X022439Y001274D02*
X022337Y001376D01*
X022032Y001376D01*
X022032Y001478D02*
X022032Y001173D01*
X022337Y001173D01*
X022439Y001274D01*
X022337Y001580D02*
X022134Y001580D01*
X022032Y001478D01*
X021739Y001478D02*
X021739Y001274D01*
X021637Y001173D01*
X021332Y001173D01*
X021332Y001783D01*
X021332Y001580D02*
X021637Y001580D01*
X021739Y001478D01*
X021039Y001478D02*
X021039Y001274D01*
X020938Y001173D01*
X020632Y001173D01*
X020632Y001071D02*
X020632Y001580D01*
X020938Y001580D01*
X021039Y001478D01*
X020836Y000969D02*
X020734Y000969D01*
X020632Y001071D01*
X020340Y001274D02*
X020340Y001478D01*
X020238Y001580D01*
X020034Y001580D01*
X019933Y001478D01*
X019933Y001376D01*
X020340Y001376D01*
X020340Y001274D02*
X020238Y001173D01*
X020034Y001173D01*
X019640Y001173D02*
X019538Y001173D01*
X019538Y001274D01*
X019640Y001274D01*
X019640Y001173D01*
X019290Y001274D02*
X019290Y001478D01*
X019188Y001580D01*
X018985Y001580D01*
X018883Y001478D01*
X018883Y001376D01*
X019290Y001376D01*
X019290Y001274D02*
X019188Y001173D01*
X018985Y001173D01*
X018590Y001173D02*
X018590Y001580D01*
X018488Y001580D01*
X018387Y001478D01*
X018285Y001580D01*
X018183Y001478D01*
X018183Y001173D01*
X018387Y001173D02*
X018387Y001478D01*
X017890Y001478D02*
X017687Y001478D01*
X017789Y001681D02*
X017687Y001783D01*
X017789Y001681D02*
X017789Y001173D01*
X017424Y001274D02*
X017424Y001478D01*
X017322Y001580D01*
X017017Y001580D01*
X017017Y001173D02*
X017322Y001173D01*
X017424Y001274D01*
X016724Y001274D02*
X016622Y001376D01*
X016317Y001376D01*
X016317Y001478D02*
X016317Y001173D01*
X016622Y001173D01*
X016724Y001274D01*
X016622Y001580D02*
X016419Y001580D01*
X016317Y001478D01*
X016024Y001580D02*
X016024Y001173D01*
X015821Y001173D02*
X015821Y001478D01*
X015719Y001580D01*
X015617Y001478D01*
X015617Y001173D01*
X015324Y001173D02*
X015019Y001173D01*
X014917Y001274D01*
X014917Y001478D01*
X015019Y001580D01*
X015324Y001580D01*
X015324Y000969D01*
X015821Y001478D02*
X015922Y001580D01*
X016024Y001580D01*
X014625Y001274D02*
X014523Y001274D01*
X014523Y001173D01*
X014625Y001173D01*
X014625Y001274D01*
X014275Y001274D02*
X014275Y001478D01*
X014173Y001580D01*
X013969Y001580D01*
X013868Y001478D01*
X013868Y001274D01*
X013969Y001173D01*
X014173Y001173D01*
X014275Y001274D01*
X013575Y001173D02*
X013575Y001580D01*
X013575Y001376D02*
X013371Y001580D01*
X013270Y001580D01*
X012992Y001478D02*
X012992Y001274D01*
X012890Y001173D01*
X012585Y001173D01*
X012585Y001071D02*
X012585Y001580D01*
X012890Y001580D01*
X012992Y001478D01*
X012788Y000969D02*
X012687Y000969D01*
X012585Y001071D01*
X012292Y001173D02*
X011885Y001783D01*
X011592Y001681D02*
X011490Y001783D01*
X011287Y001783D01*
X011185Y001681D01*
X011185Y001580D01*
X011592Y001173D01*
X011185Y001173D01*
X010892Y001274D02*
X010892Y001681D01*
X010791Y001783D01*
X010587Y001783D01*
X010485Y001681D01*
X010892Y001274D01*
X010791Y001173D01*
X010587Y001173D01*
X010485Y001274D01*
X010485Y001681D01*
X010193Y001580D02*
X009989Y001783D01*
X009989Y001173D01*
X009786Y001173D02*
X010193Y001173D01*
X009493Y001478D02*
X009086Y001478D01*
X009188Y001173D02*
X009188Y001783D01*
X009493Y001478D01*
D15*
X023418Y005072D02*
X023418Y005312D01*
X023736Y005344D01*
X023770Y005451D01*
X023821Y005551D01*
X023619Y005798D01*
X023789Y005968D01*
X024036Y005766D01*
X024136Y005817D01*
X024243Y005851D01*
X024275Y006169D01*
X024515Y006169D01*
X024547Y005851D01*
X024654Y005817D01*
X024754Y005766D01*
X025001Y005968D01*
X025171Y005798D01*
X024969Y005551D01*
X025020Y005451D01*
X025054Y005344D01*
X025372Y005312D01*
X025372Y005072D01*
X025054Y005040D01*
X025020Y004933D01*
X024969Y004833D01*
X025171Y004586D01*
X025001Y004416D01*
X024754Y004618D01*
X025145Y004618D01*
X025145Y004560D02*
X024825Y004560D01*
X024895Y004503D02*
X025087Y004503D01*
X025029Y004445D02*
X024966Y004445D01*
X025098Y004675D02*
X024609Y004675D01*
X024633Y004618D02*
X024752Y004618D01*
X024754Y004618D02*
X024654Y004567D01*
X024513Y004908D01*
X024566Y004936D01*
X024612Y004975D01*
X024651Y005021D01*
X024679Y005074D01*
X024697Y005132D01*
X024703Y005192D01*
X024696Y005255D01*
X024677Y005315D01*
X024646Y005370D01*
X024604Y005418D01*
X024554Y005456D01*
X024497Y005482D01*
X024435Y005497D01*
X024372Y005499D01*
X024310Y005488D01*
X024251Y005464D01*
X024199Y005429D01*
X024154Y005384D01*
X024120Y005331D01*
X024098Y005272D01*
X024088Y005209D01*
X024091Y005146D01*
X024107Y005085D01*
X024134Y005028D01*
X024173Y004979D01*
X024222Y004938D01*
X024277Y004908D01*
X024136Y004567D01*
X024036Y004618D01*
X023789Y004416D01*
X023619Y004586D01*
X023821Y004833D01*
X023770Y004933D01*
X023736Y005040D01*
X023418Y005072D01*
X023418Y005078D02*
X024110Y005078D01*
X024094Y005136D02*
X023418Y005136D01*
X023418Y005193D02*
X024089Y005193D01*
X024094Y005251D02*
X023418Y005251D01*
X023418Y005308D02*
X024112Y005308D01*
X024143Y005366D02*
X023743Y005366D01*
X023761Y005423D02*
X024193Y005423D01*
X024293Y005481D02*
X023785Y005481D01*
X023815Y005539D02*
X024975Y005539D01*
X025006Y005596D02*
X023784Y005596D01*
X023737Y005654D02*
X025053Y005654D01*
X025100Y005711D02*
X023690Y005711D01*
X023643Y005769D02*
X024033Y005769D01*
X024042Y005769D02*
X024748Y005769D01*
X024757Y005769D02*
X025147Y005769D01*
X025142Y005826D02*
X024828Y005826D01*
X024898Y005884D02*
X025085Y005884D01*
X025027Y005941D02*
X024969Y005941D01*
X024626Y005826D02*
X024164Y005826D01*
X024246Y005884D02*
X024544Y005884D01*
X024538Y005941D02*
X024252Y005941D01*
X024258Y005999D02*
X024532Y005999D01*
X024526Y006057D02*
X024264Y006057D01*
X024269Y006114D02*
X024520Y006114D01*
X024500Y005481D02*
X025005Y005481D01*
X025029Y005423D02*
X024596Y005423D01*
X024648Y005366D02*
X025047Y005366D01*
X025372Y005308D02*
X024679Y005308D01*
X024696Y005251D02*
X025372Y005251D01*
X025372Y005193D02*
X024702Y005193D01*
X024697Y005136D02*
X025372Y005136D01*
X025372Y005078D02*
X024680Y005078D01*
X024650Y005021D02*
X025048Y005021D01*
X025030Y004963D02*
X024598Y004963D01*
X024514Y004905D02*
X025006Y004905D01*
X024976Y004848D02*
X024538Y004848D01*
X024561Y004790D02*
X025004Y004790D01*
X025051Y004733D02*
X024585Y004733D01*
X024252Y004848D02*
X023814Y004848D01*
X023786Y004790D02*
X024229Y004790D01*
X024205Y004733D02*
X023739Y004733D01*
X023692Y004675D02*
X024181Y004675D01*
X024157Y004618D02*
X024037Y004618D01*
X024036Y004618D02*
X023645Y004618D01*
X023645Y004560D02*
X023965Y004560D01*
X023894Y004503D02*
X023703Y004503D01*
X023760Y004445D02*
X023824Y004445D01*
X023784Y004905D02*
X024276Y004905D01*
X024192Y004963D02*
X023760Y004963D01*
X023742Y005021D02*
X024141Y005021D01*
X023962Y005826D02*
X023648Y005826D01*
X023705Y005884D02*
X023892Y005884D01*
X023821Y005941D02*
X023763Y005941D01*
X009513Y034877D02*
X004395Y034877D01*
X004356Y034879D01*
X004318Y034885D01*
X004281Y034894D01*
X004244Y034907D01*
X004209Y034924D01*
X004176Y034943D01*
X004145Y034966D01*
X004116Y034992D01*
X004090Y035021D01*
X004067Y035052D01*
X004048Y035085D01*
X004031Y035120D01*
X004018Y035157D01*
X004009Y035194D01*
X004003Y035232D01*
X004001Y035271D01*
X004001Y035664D01*
X009513Y034877D02*
X009552Y034879D01*
X009590Y034885D01*
X009627Y034894D01*
X009664Y034907D01*
X009699Y034924D01*
X009732Y034943D01*
X009763Y034966D01*
X009792Y034992D01*
X009818Y035021D01*
X009841Y035052D01*
X009860Y035085D01*
X009877Y035120D01*
X009890Y035157D01*
X009899Y035194D01*
X009905Y035232D01*
X009907Y035271D01*
X009907Y035664D01*
D16*
X008954Y035414D02*
X008704Y035164D01*
X008204Y035164D01*
X007954Y035414D01*
X007704Y035164D01*
X007204Y035164D01*
X006954Y035414D01*
X006704Y035164D01*
X006204Y035164D01*
X005954Y035414D01*
X005704Y035164D01*
X005204Y035164D01*
X004954Y035414D01*
X004954Y035914D01*
X005204Y036164D01*
X005704Y036164D01*
X005954Y035914D01*
X006204Y036164D01*
X006704Y036164D01*
X006954Y035914D01*
X007204Y036164D01*
X007704Y036164D01*
X007954Y035914D01*
X008204Y036164D01*
X008704Y036164D01*
X008954Y035914D01*
X008954Y035414D01*
X008355Y029778D02*
X008357Y029793D01*
X008363Y029806D01*
X008372Y029818D01*
X008383Y029827D01*
X008397Y029833D01*
X008412Y029835D01*
X008427Y029833D01*
X008440Y029827D01*
X008452Y029818D01*
X008461Y029807D01*
X008467Y029793D01*
X008469Y029778D01*
X008467Y029763D01*
X008461Y029750D01*
X008452Y029738D01*
X008441Y029729D01*
X008427Y029723D01*
X008412Y029721D01*
X008397Y029723D01*
X008384Y029729D01*
X008372Y029738D01*
X008363Y029749D01*
X008357Y029763D01*
X008355Y029778D01*
X013592Y035361D02*
X013592Y036350D01*
X013985Y036861D02*
X015198Y036861D01*
X015592Y036350D02*
X015592Y035373D01*
X015198Y034861D02*
X013985Y034861D01*
X014092Y035861D02*
X014094Y035905D01*
X014100Y035949D01*
X014110Y035992D01*
X014123Y036034D01*
X014140Y036075D01*
X014161Y036114D01*
X014185Y036151D01*
X014212Y036186D01*
X014242Y036218D01*
X014275Y036248D01*
X014311Y036274D01*
X014348Y036298D01*
X014388Y036317D01*
X014429Y036334D01*
X014472Y036346D01*
X014515Y036355D01*
X014559Y036360D01*
X014603Y036361D01*
X014647Y036358D01*
X014691Y036351D01*
X014734Y036340D01*
X014776Y036326D01*
X014816Y036308D01*
X014855Y036286D01*
X014891Y036262D01*
X014925Y036234D01*
X014957Y036203D01*
X014986Y036169D01*
X015012Y036133D01*
X015034Y036095D01*
X015053Y036055D01*
X015068Y036013D01*
X015080Y035971D01*
X015088Y035927D01*
X015092Y035883D01*
X015092Y035839D01*
X015088Y035795D01*
X015080Y035751D01*
X015068Y035709D01*
X015053Y035667D01*
X015034Y035627D01*
X015012Y035589D01*
X014986Y035553D01*
X014957Y035519D01*
X014925Y035488D01*
X014891Y035460D01*
X014855Y035436D01*
X014816Y035414D01*
X014776Y035396D01*
X014734Y035382D01*
X014691Y035371D01*
X014647Y035364D01*
X014603Y035361D01*
X014559Y035362D01*
X014515Y035367D01*
X014472Y035376D01*
X014429Y035388D01*
X014388Y035405D01*
X014348Y035424D01*
X014311Y035448D01*
X014275Y035474D01*
X014242Y035504D01*
X014212Y035536D01*
X014185Y035571D01*
X014161Y035608D01*
X014140Y035647D01*
X014123Y035688D01*
X014110Y035730D01*
X014100Y035773D01*
X014094Y035817D01*
X014092Y035861D01*
X016275Y035934D02*
X016925Y035934D01*
X016942Y035936D01*
X016959Y035940D01*
X016975Y035947D01*
X016989Y035957D01*
X017002Y035970D01*
X017012Y035984D01*
X017019Y036000D01*
X017023Y036017D01*
X017025Y036034D01*
X017025Y036634D02*
X017023Y036651D01*
X017019Y036668D01*
X017012Y036684D01*
X017002Y036698D01*
X016989Y036711D01*
X016975Y036721D01*
X016959Y036728D01*
X016942Y036732D01*
X016925Y036734D01*
X016275Y036734D01*
X016258Y036732D01*
X016241Y036728D01*
X016225Y036721D01*
X016211Y036711D01*
X016198Y036698D01*
X016188Y036684D01*
X016181Y036668D01*
X016177Y036651D01*
X016175Y036634D01*
X016175Y036034D02*
X016177Y036017D01*
X016181Y036000D01*
X016188Y035984D01*
X016198Y035970D01*
X016211Y035957D01*
X016225Y035947D01*
X016241Y035940D01*
X016258Y035936D01*
X016275Y035934D01*
X016915Y034208D02*
X017545Y034208D01*
X017545Y034207D02*
X017561Y034202D01*
X017577Y034194D01*
X017591Y034184D01*
X017603Y034172D01*
X017613Y034157D01*
X017620Y034141D01*
X017624Y034124D01*
X017625Y034107D01*
X017623Y034089D01*
X017623Y033539D02*
X017625Y033521D01*
X017624Y033504D01*
X017620Y033487D01*
X017613Y033471D01*
X017603Y033456D01*
X017591Y033444D01*
X017577Y033434D01*
X017561Y033426D01*
X017545Y033421D01*
X017545Y033420D02*
X016915Y033420D01*
X016914Y033421D02*
X016898Y033426D01*
X016882Y033434D01*
X016868Y033444D01*
X016856Y033456D01*
X016846Y033471D01*
X016839Y033487D01*
X016835Y033504D01*
X016834Y033521D01*
X016836Y033539D01*
X016836Y034089D02*
X016834Y034107D01*
X016835Y034124D01*
X016839Y034141D01*
X016846Y034157D01*
X016856Y034172D01*
X016868Y034184D01*
X016882Y034194D01*
X016898Y034202D01*
X016914Y034207D01*
X020025Y022023D02*
X020497Y022023D01*
X020497Y020763D02*
X020025Y020763D01*
X019277Y021314D02*
X019277Y021472D01*
X021245Y021472D02*
X021245Y021314D01*
X020694Y016255D02*
X020694Y015625D01*
X020689Y015609D01*
X020681Y015593D01*
X020671Y015579D01*
X020659Y015567D01*
X020644Y015557D01*
X020628Y015550D01*
X020611Y015546D01*
X020594Y015545D01*
X020576Y015547D01*
X020694Y016255D02*
X020689Y016271D01*
X020681Y016287D01*
X020671Y016301D01*
X020659Y016313D01*
X020644Y016323D01*
X020628Y016330D01*
X020611Y016334D01*
X020594Y016335D01*
X020576Y016333D01*
X020025Y016333D02*
X020005Y016335D01*
X019986Y016333D01*
X019967Y016327D01*
X019950Y016318D01*
X019934Y016306D01*
X019922Y016291D01*
X019913Y016273D01*
X019907Y016255D01*
X019907Y015625D01*
X019913Y015607D01*
X019922Y015589D01*
X019934Y015574D01*
X019950Y015562D01*
X019967Y015553D01*
X019986Y015547D01*
X020005Y015545D01*
X020025Y015547D01*
X019277Y007042D02*
X019119Y007042D01*
X019277Y007042D02*
X019277Y006885D01*
X019277Y005940D02*
X019119Y005783D01*
X018174Y005783D02*
X018017Y005783D01*
X018017Y005940D01*
X018017Y006885D02*
X018017Y007042D01*
X018174Y007042D01*
X025251Y003545D02*
X025901Y003545D01*
X025918Y003543D01*
X025935Y003539D01*
X025951Y003532D01*
X025965Y003522D01*
X025978Y003509D01*
X025988Y003495D01*
X025995Y003479D01*
X025999Y003462D01*
X026001Y003445D01*
X026001Y002845D02*
X025999Y002828D01*
X025995Y002811D01*
X025988Y002795D01*
X025978Y002781D01*
X025965Y002768D01*
X025951Y002758D01*
X025935Y002751D01*
X025918Y002747D01*
X025901Y002745D01*
X025251Y002745D01*
X025234Y002747D01*
X025217Y002751D01*
X025201Y002758D01*
X025187Y002768D01*
X025174Y002781D01*
X025164Y002795D01*
X025157Y002811D01*
X025153Y002828D01*
X025151Y002845D01*
X025151Y003445D02*
X025153Y003462D01*
X025157Y003479D01*
X025164Y003495D01*
X025174Y003509D01*
X025187Y003522D01*
X025201Y003532D01*
X025217Y003539D01*
X025234Y003543D01*
X025251Y003545D01*
X026901Y025794D02*
X027401Y025794D01*
X027651Y026044D01*
X027651Y026544D01*
X027401Y026794D01*
X027651Y027044D01*
X027651Y027544D01*
X027401Y027794D01*
X027651Y028044D01*
X027651Y028544D01*
X027401Y028794D01*
X027651Y029044D01*
X027651Y029544D01*
X027401Y029794D01*
X027651Y030044D01*
X027651Y030544D01*
X027401Y030794D01*
X027651Y031044D01*
X027651Y031544D01*
X027401Y031794D01*
X026901Y031794D01*
X026651Y031544D01*
X026651Y031044D01*
X026901Y030794D01*
X026651Y030544D01*
X026651Y030044D01*
X026901Y029794D01*
X026651Y029544D01*
X026651Y029044D01*
X026901Y028794D01*
X026651Y028544D01*
X026651Y028044D01*
X026901Y027794D01*
X026651Y027544D01*
X026651Y027044D01*
X026901Y026794D01*
X026651Y026544D01*
X026651Y026044D01*
X026901Y025794D01*
X009832Y005061D02*
X009832Y004850D01*
X009682Y004396D02*
X009344Y004396D01*
X009344Y005516D02*
X009682Y005516D01*
X007466Y007751D02*
X007466Y008381D01*
X007465Y008381D02*
X007460Y008397D01*
X007452Y008413D01*
X007442Y008427D01*
X007430Y008439D01*
X007415Y008449D01*
X007399Y008456D01*
X007382Y008460D01*
X007365Y008461D01*
X007347Y008459D01*
X007465Y007751D02*
X007460Y007735D01*
X007452Y007719D01*
X007442Y007705D01*
X007430Y007693D01*
X007415Y007683D01*
X007399Y007676D01*
X007382Y007672D01*
X007365Y007671D01*
X007347Y007673D01*
X006797Y007673D02*
X006777Y007671D01*
X006758Y007673D01*
X006739Y007679D01*
X006722Y007688D01*
X006706Y007700D01*
X006694Y007715D01*
X006685Y007733D01*
X006679Y007751D01*
X006678Y007751D02*
X006678Y008381D01*
X006678Y007751D01*
X006673Y007735D01*
X006665Y007719D01*
X006655Y007705D01*
X006643Y007693D01*
X006628Y007683D01*
X006612Y007676D01*
X006595Y007672D01*
X006578Y007671D01*
X006560Y007673D01*
X006009Y007673D02*
X005989Y007671D01*
X005970Y007673D01*
X005951Y007679D01*
X005934Y007688D01*
X005918Y007700D01*
X005906Y007715D01*
X005897Y007733D01*
X005891Y007751D01*
X005891Y008381D01*
X005897Y008399D01*
X005906Y008417D01*
X005918Y008432D01*
X005934Y008444D01*
X005951Y008453D01*
X005970Y008459D01*
X005989Y008461D01*
X006009Y008459D01*
X006560Y008459D02*
X006578Y008461D01*
X006595Y008460D01*
X006612Y008456D01*
X006628Y008449D01*
X006643Y008439D01*
X006655Y008427D01*
X006665Y008413D01*
X006673Y008397D01*
X006678Y008381D01*
X006679Y008381D02*
X006685Y008399D01*
X006694Y008417D01*
X006706Y008432D01*
X006722Y008444D01*
X006739Y008453D01*
X006758Y008459D01*
X006777Y008461D01*
X006797Y008459D01*
X005458Y006275D02*
X005458Y006039D01*
X005202Y006668D02*
X003076Y006668D01*
X002820Y006275D02*
X002820Y006039D01*
X003548Y005645D02*
X004139Y005645D01*
X004539Y003582D02*
X005039Y003582D01*
X005289Y003332D01*
X005289Y002832D01*
X005039Y002582D01*
X005289Y002332D01*
X005289Y001832D01*
X005039Y001582D01*
X004539Y001582D01*
X004289Y001832D01*
X004289Y002332D01*
X004539Y002582D01*
X004289Y002832D01*
X004289Y003332D01*
X004539Y003582D01*
X006391Y003608D02*
X006729Y003608D01*
X006879Y004063D02*
X006879Y004274D01*
X006729Y004728D02*
X006391Y004728D01*
X003385Y017708D02*
X002885Y017708D01*
X002635Y017958D01*
X002635Y018458D01*
X002885Y018708D01*
X002635Y018958D01*
X002635Y019458D01*
X002885Y019708D01*
X003385Y019708D01*
X003635Y019458D01*
X003635Y018958D01*
X003385Y018708D01*
X003635Y018458D01*
X003635Y017958D01*
X003385Y017708D01*
D17*
X017427Y028420D02*
X017429Y028450D01*
X017435Y028480D01*
X017444Y028509D01*
X017457Y028536D01*
X017474Y028561D01*
X017493Y028584D01*
X017516Y028605D01*
X017541Y028622D01*
X017567Y028636D01*
X017596Y028646D01*
X017625Y028653D01*
X017655Y028656D01*
X017686Y028655D01*
X017716Y028650D01*
X017745Y028641D01*
X017772Y028629D01*
X017798Y028614D01*
X017822Y028595D01*
X017843Y028573D01*
X017861Y028549D01*
X017876Y028522D01*
X017887Y028494D01*
X017895Y028465D01*
X017899Y028435D01*
X017899Y028405D01*
X017895Y028375D01*
X017887Y028346D01*
X017876Y028318D01*
X017861Y028291D01*
X017843Y028267D01*
X017822Y028245D01*
X017798Y028226D01*
X017772Y028211D01*
X017745Y028199D01*
X017716Y028190D01*
X017686Y028185D01*
X017655Y028184D01*
X017625Y028187D01*
X017596Y028194D01*
X017567Y028204D01*
X017541Y028218D01*
X017516Y028235D01*
X017493Y028256D01*
X017474Y028279D01*
X017457Y028304D01*
X017444Y028331D01*
X017435Y028360D01*
X017429Y028390D01*
X017427Y028420D01*
D18*
X024631Y012161D02*
X024789Y012161D01*
X024789Y008932D02*
X024631Y008932D01*
D19*
X022791Y021806D02*
X022791Y022042D01*
X022298Y022042D02*
X022298Y021806D01*
X022161Y021806D02*
X022161Y022042D01*
X021669Y022042D02*
X021669Y021806D01*
X010310Y020035D02*
X010310Y019798D01*
X009818Y019798D02*
X009818Y020035D01*
X009680Y020035D02*
X009680Y019798D01*
X009188Y019798D02*
X009188Y020035D01*
D20*
X009434Y019916D03*
X010064Y019916D03*
X021915Y021924D03*
X022545Y021924D03*
M02*
