G75*
G70*
%OFA0B0*%
%FSLAX24Y24*%
%IPPOS*%
%LPD*%
%AMOC8*
5,1,8,0,0,1.08239X$1,22.5*
%
%ADD10C,0.0050*%
%ADD11C,0.0060*%
%ADD12C,0.0040*%
%ADD13C,0.0080*%
%ADD14R,0.0202X0.0006*%
%ADD15R,0.0277X0.0006*%
%ADD16R,0.0328X0.0006*%
%ADD17R,0.0378X0.0006*%
%ADD18R,0.0416X0.0006*%
%ADD19R,0.0454X0.0006*%
%ADD20R,0.0479X0.0006*%
%ADD21R,0.0517X0.0006*%
%ADD22R,0.0542X0.0006*%
%ADD23R,0.0567X0.0006*%
%ADD24R,0.0592X0.0006*%
%ADD25R,0.0617X0.0006*%
%ADD26R,0.0643X0.0006*%
%ADD27R,0.0661X0.0006*%
%ADD28R,0.0680X0.0006*%
%ADD29R,0.0706X0.0006*%
%ADD30R,0.0718X0.0006*%
%ADD31R,0.0353X0.0006*%
%ADD32R,0.0296X0.0006*%
%ADD33R,0.0271X0.0006*%
%ADD34R,0.0258X0.0006*%
%ADD35R,0.0265X0.0006*%
%ADD36R,0.0246X0.0006*%
%ADD37R,0.0239X0.0006*%
%ADD38R,0.0233X0.0006*%
%ADD39R,0.0227X0.0006*%
%ADD40R,0.0220X0.0006*%
%ADD41R,0.0214X0.0006*%
%ADD42R,0.0208X0.0006*%
%ADD43R,0.0195X0.0006*%
%ADD44R,0.0189X0.0006*%
%ADD45R,0.0183X0.0006*%
%ADD46R,0.0176X0.0006*%
%ADD47R,0.0170X0.0006*%
%ADD48R,0.0164X0.0006*%
%ADD49R,0.0157X0.0006*%
%ADD50R,0.0151X0.0006*%
%ADD51R,0.0145X0.0006*%
%ADD52R,0.0139X0.0006*%
%ADD53R,0.0132X0.0006*%
%ADD54R,0.0126X0.0006*%
%ADD55R,0.0019X0.0006*%
%ADD56R,0.0088X0.0006*%
%ADD57R,0.0038X0.0006*%
%ADD58R,0.0050X0.0006*%
%ADD59R,0.0069X0.0006*%
%ADD60R,0.0076X0.0006*%
%ADD61R,0.0120X0.0006*%
%ADD62R,0.0094X0.0006*%
%ADD63R,0.0107X0.0006*%
%ADD64R,0.0252X0.0006*%
%ADD65R,0.0309X0.0006*%
%ADD66R,0.0340X0.0006*%
%ADD67R,0.0359X0.0006*%
%ADD68R,0.0649X0.0006*%
%ADD69R,0.0655X0.0006*%
%ADD70R,0.0397X0.0006*%
%ADD71R,0.0372X0.0006*%
%ADD72R,0.0290X0.0006*%
%ADD73R,0.0113X0.0006*%
%ADD74R,0.0101X0.0006*%
%ADD75R,0.0082X0.0006*%
%ADD76R,0.0057X0.0006*%
%ADD77R,0.0044X0.0006*%
%ADD78R,0.0025X0.0006*%
%ADD79R,0.0334X0.0006*%
%ADD80R,0.0731X0.0006*%
%ADD81R,0.0693X0.0006*%
%ADD82R,0.0668X0.0006*%
%ADD83R,0.0624X0.0006*%
%ADD84R,0.0605X0.0006*%
%ADD85R,0.0580X0.0006*%
%ADD86R,0.0548X0.0006*%
%ADD87R,0.0491X0.0006*%
%ADD88R,0.0422X0.0006*%
%ADD89R,0.0120X0.1216*%
%ADD90R,0.0120X0.1203*%
%ADD91C,0.0120*%
%ADD92C,0.0100*%
%ADD93R,0.0220X0.0005*%
%ADD94R,0.0118X0.0005*%
%ADD95R,0.0343X0.0005*%
%ADD96R,0.0435X0.0005*%
%ADD97R,0.0077X0.0005*%
%ADD98R,0.0246X0.0005*%
%ADD99R,0.0363X0.0005*%
%ADD100R,0.0128X0.0005*%
%ADD101R,0.0261X0.0005*%
%ADD102R,0.0379X0.0005*%
%ADD103R,0.0159X0.0005*%
%ADD104R,0.0276X0.0005*%
%ADD105R,0.0389X0.0005*%
%ADD106R,0.0189X0.0005*%
%ADD107R,0.0287X0.0005*%
%ADD108R,0.0399X0.0005*%
%ADD109R,0.0210X0.0005*%
%ADD110R,0.0297X0.0005*%
%ADD111R,0.0404X0.0005*%
%ADD112R,0.0230X0.0005*%
%ADD113R,0.0307X0.0005*%
%ADD114R,0.0409X0.0005*%
%ADD115R,0.0251X0.0005*%
%ADD116R,0.0317X0.0005*%
%ADD117R,0.0420X0.0005*%
%ADD118R,0.0271X0.0005*%
%ADD119R,0.0322X0.0005*%
%ADD120R,0.0425X0.0005*%
%ADD121R,0.0281X0.0005*%
%ADD122R,0.0333X0.0005*%
%ADD123R,0.0430X0.0005*%
%ADD124R,0.0302X0.0005*%
%ADD125R,0.0338X0.0005*%
%ADD126R,0.0312X0.0005*%
%ADD127R,0.0348X0.0005*%
%ADD128R,0.0440X0.0005*%
%ADD129R,0.0353X0.0005*%
%ADD130R,0.0445X0.0005*%
%ADD131R,0.0358X0.0005*%
%ADD132R,0.0450X0.0005*%
%ADD133R,0.0369X0.0005*%
%ADD134R,0.0456X0.0005*%
%ADD135R,0.0374X0.0005*%
%ADD136R,0.0384X0.0005*%
%ADD137R,0.0461X0.0005*%
%ADD138R,0.0394X0.0005*%
%ADD139R,0.0415X0.0005*%
%ADD140R,0.0466X0.0005*%
%ADD141R,0.0138X0.0005*%
%ADD142R,0.0174X0.0005*%
%ADD143R,0.0169X0.0005*%
%ADD144R,0.0164X0.0005*%
%ADD145R,0.0154X0.0005*%
%ADD146R,0.0123X0.0005*%
%ADD147R,0.0143X0.0005*%
%ADD148R,0.0133X0.0005*%
%ADD149C,0.0028*%
%ADD150R,0.0118X0.0276*%
%ADD151C,0.0079*%
%ADD152C,0.0059*%
D10*
X003625Y005205D02*
X003715Y005205D01*
X003760Y005250D01*
X003760Y005295D01*
X003715Y005340D01*
X003625Y005340D01*
X003580Y005295D01*
X003580Y005250D01*
X003625Y005205D01*
X003625Y005340D02*
X003580Y005385D01*
X003580Y005430D01*
X003625Y005475D01*
X003715Y005475D01*
X003760Y005430D01*
X003760Y005385D01*
X003715Y005340D01*
X003875Y005295D02*
X003875Y005250D01*
X003920Y005205D01*
X004010Y005205D01*
X004055Y005250D01*
X004010Y005340D02*
X003920Y005340D01*
X003875Y005295D01*
X003875Y005430D02*
X003920Y005475D01*
X004010Y005475D01*
X004055Y005430D01*
X004055Y005385D01*
X004010Y005340D01*
X003678Y007292D02*
X003588Y007292D01*
X003543Y007337D01*
X003543Y007517D01*
X003588Y007562D01*
X003678Y007562D01*
X003723Y007517D01*
X003723Y007337D01*
X003678Y007292D01*
X003428Y007292D02*
X003428Y007472D01*
X003293Y007472D01*
X003248Y007427D01*
X003248Y007292D01*
X004419Y007427D02*
X004509Y007427D01*
X004464Y007517D02*
X004419Y007562D01*
X004464Y007517D02*
X004464Y007292D01*
X004660Y007292D02*
X004660Y007517D01*
X004615Y007562D01*
X004615Y007427D02*
X004705Y007427D01*
X004820Y007517D02*
X004865Y007562D01*
X004955Y007562D01*
X005000Y007517D01*
X005000Y007337D01*
X004955Y007292D01*
X004865Y007292D01*
X004820Y007337D01*
X004820Y007517D01*
X005020Y008894D02*
X005020Y009165D01*
X004885Y009165D01*
X004840Y009120D01*
X004840Y009030D01*
X004885Y008985D01*
X005020Y008985D01*
X005135Y009030D02*
X005180Y008985D01*
X005270Y008985D01*
X005315Y009030D01*
X005270Y009120D02*
X005180Y009120D01*
X005135Y009075D01*
X005135Y009030D01*
X005270Y009120D02*
X005315Y009165D01*
X005315Y009210D01*
X005270Y009255D01*
X005180Y009255D01*
X005135Y009210D01*
X005135Y009457D02*
X005225Y009547D01*
X005180Y009547D02*
X005315Y009547D01*
X005315Y009457D02*
X005315Y009727D01*
X005180Y009727D01*
X005135Y009682D01*
X005135Y009592D01*
X005180Y009547D01*
X005020Y009502D02*
X004975Y009547D01*
X004840Y009547D01*
X004840Y009592D02*
X004840Y009457D01*
X004975Y009457D01*
X005020Y009502D01*
X004975Y009637D02*
X004885Y009637D01*
X004840Y009592D01*
X004726Y009592D02*
X004680Y009637D01*
X004545Y009637D01*
X004545Y009727D02*
X004545Y009457D01*
X004680Y009457D01*
X004726Y009502D01*
X004726Y009592D01*
X004431Y009637D02*
X004386Y009637D01*
X004386Y009457D01*
X004431Y009457D02*
X004341Y009457D01*
X004234Y009502D02*
X004189Y009457D01*
X004099Y009457D01*
X004054Y009502D01*
X004054Y009592D01*
X004099Y009637D01*
X004189Y009637D01*
X004234Y009592D01*
X004234Y009502D01*
X004386Y009727D02*
X004386Y009772D01*
X004431Y009165D02*
X004296Y009165D01*
X004251Y009120D01*
X004251Y008985D01*
X004136Y008985D02*
X004001Y008985D01*
X003956Y009030D01*
X004001Y009075D01*
X004091Y009075D01*
X004136Y009120D01*
X004091Y009165D01*
X003956Y009165D01*
X003842Y009120D02*
X003842Y009030D01*
X003797Y008985D01*
X003706Y008985D01*
X003661Y009030D01*
X003661Y009120D01*
X003706Y009165D01*
X003797Y009165D01*
X003842Y009120D01*
X003547Y009165D02*
X003547Y008985D01*
X003547Y009075D02*
X003457Y009165D01*
X003412Y009165D01*
X003301Y009120D02*
X003256Y009165D01*
X003166Y009165D01*
X003121Y009120D01*
X003121Y009075D01*
X003301Y009075D01*
X003301Y009030D02*
X003301Y009120D01*
X003301Y009030D02*
X003256Y008985D01*
X003166Y008985D01*
X003007Y009030D02*
X003007Y009120D01*
X002962Y009165D01*
X002827Y009165D01*
X002827Y009255D02*
X002827Y008985D01*
X002962Y008985D01*
X003007Y009030D01*
X002417Y008985D02*
X002282Y008985D01*
X002237Y009030D01*
X002237Y009075D01*
X002282Y009120D01*
X002417Y009120D01*
X002282Y009120D02*
X002237Y009165D01*
X002237Y009210D01*
X002282Y009255D01*
X002417Y009255D01*
X002417Y008985D01*
X002123Y009030D02*
X002078Y008985D01*
X001943Y008985D01*
X001943Y008939D02*
X001988Y008894D01*
X002033Y008894D01*
X001943Y008939D02*
X001943Y009165D01*
X002123Y009165D02*
X002123Y009030D01*
X001419Y010101D02*
X005104Y010101D01*
X005104Y010102D02*
X005143Y010100D01*
X005181Y010094D01*
X005218Y010085D01*
X005255Y010072D01*
X005290Y010055D01*
X005323Y010036D01*
X005354Y010013D01*
X005383Y009987D01*
X005409Y009958D01*
X005432Y009927D01*
X005451Y009894D01*
X005468Y009859D01*
X005481Y009822D01*
X005490Y009785D01*
X005496Y009747D01*
X005498Y009708D01*
X005497Y009708D02*
X005497Y008920D01*
X005911Y008920D01*
X005497Y010023D02*
X005497Y014078D01*
X005497Y014393D02*
X005497Y015180D01*
X005911Y015180D01*
X006145Y015953D02*
X006235Y015953D01*
X006280Y015998D01*
X006395Y015998D02*
X006440Y015953D01*
X006530Y015953D01*
X006575Y015998D01*
X006575Y016178D01*
X006530Y016223D01*
X006440Y016223D01*
X006395Y016178D01*
X006280Y016178D02*
X006235Y016223D01*
X006145Y016223D01*
X006100Y016178D01*
X006100Y016133D01*
X006145Y016088D01*
X006100Y016043D01*
X006100Y015998D01*
X006145Y015953D01*
X006145Y016088D02*
X006190Y016088D01*
X006681Y015953D02*
X006772Y015953D01*
X006726Y015953D02*
X006726Y016223D01*
X006681Y016223D02*
X006772Y016223D01*
X006797Y017695D02*
X006887Y017695D01*
X006842Y017695D02*
X006842Y017965D01*
X006887Y017965D02*
X006797Y017965D01*
X006690Y017920D02*
X006690Y017740D01*
X006645Y017695D01*
X006555Y017695D01*
X006510Y017740D01*
X006510Y017920D01*
X006555Y017965D01*
X006645Y017965D01*
X006690Y017920D01*
X006396Y017965D02*
X006260Y017965D01*
X006215Y017920D01*
X006215Y017830D01*
X006260Y017785D01*
X006396Y017785D01*
X006396Y017695D02*
X006396Y017965D01*
X006306Y017785D02*
X006215Y017695D01*
X006101Y017695D02*
X005921Y017695D01*
X005806Y017695D02*
X005806Y017965D01*
X005626Y017965D01*
X005716Y017830D02*
X005806Y017830D01*
X005921Y017965D02*
X006101Y017965D01*
X006101Y017695D01*
X006101Y017830D02*
X006011Y017830D01*
X005966Y018695D02*
X006056Y018695D01*
X006101Y018740D01*
X006056Y018830D02*
X005966Y018830D01*
X005921Y018785D01*
X005921Y018740D01*
X005966Y018695D01*
X006056Y018830D02*
X006101Y018875D01*
X006101Y018920D01*
X006056Y018965D01*
X005966Y018965D01*
X005921Y018920D01*
X005806Y018965D02*
X005626Y018965D01*
X005716Y018965D02*
X005716Y018695D01*
X006215Y018695D02*
X006306Y018785D01*
X006260Y018785D02*
X006396Y018785D01*
X006396Y018695D02*
X006396Y018965D01*
X006260Y018965D01*
X006215Y018920D01*
X006215Y018830D01*
X006260Y018785D01*
X005791Y019497D02*
X005836Y019542D01*
X005836Y019632D01*
X005791Y019677D01*
X005746Y019677D01*
X005701Y019632D01*
X005656Y019677D01*
X005611Y019677D01*
X005566Y019632D01*
X005566Y019542D01*
X005611Y019497D01*
X005701Y019587D02*
X005701Y019632D01*
X005656Y019792D02*
X005566Y019882D01*
X005656Y019972D01*
X005836Y019972D01*
X005791Y020087D02*
X005836Y020132D01*
X005836Y020222D01*
X005791Y020267D01*
X005746Y020267D01*
X005701Y020222D01*
X005656Y020267D01*
X005611Y020267D01*
X005566Y020222D01*
X005566Y020132D01*
X005611Y020087D01*
X005701Y020177D02*
X005701Y020222D01*
X005701Y020597D02*
X005746Y020687D01*
X005746Y020732D01*
X005701Y020777D01*
X005611Y020777D01*
X005566Y020732D01*
X005566Y020642D01*
X005611Y020597D01*
X005701Y020597D02*
X005836Y020597D01*
X005836Y020777D01*
X005836Y020892D02*
X005656Y020892D01*
X005566Y020982D01*
X005656Y021072D01*
X005836Y021072D01*
X005791Y021187D02*
X005836Y021232D01*
X005836Y021322D01*
X005791Y021367D01*
X005611Y021187D01*
X005566Y021232D01*
X005566Y021322D01*
X005611Y021367D01*
X005791Y021367D01*
X005791Y021187D02*
X005611Y021187D01*
X005611Y021869D02*
X005566Y021914D01*
X005566Y022004D01*
X005611Y022049D01*
X005701Y022049D01*
X005701Y021959D01*
X005791Y021869D02*
X005611Y021869D01*
X005791Y021869D02*
X005836Y021914D01*
X005836Y022004D01*
X005791Y022049D01*
X005836Y022164D02*
X005566Y022344D01*
X005836Y022344D01*
X005836Y022459D02*
X005836Y022594D01*
X005791Y022639D01*
X005611Y022639D01*
X005566Y022594D01*
X005566Y022459D01*
X005836Y022459D01*
X005836Y022164D02*
X005566Y022164D01*
X005656Y023447D02*
X005566Y023537D01*
X005656Y023627D01*
X005836Y023627D01*
X005836Y023742D02*
X005836Y023832D01*
X005836Y023787D02*
X005566Y023787D01*
X005566Y023742D02*
X005566Y023832D01*
X005566Y023938D02*
X005836Y023938D01*
X005566Y024118D01*
X005836Y024118D01*
X006113Y024536D02*
X006383Y024536D01*
X006383Y024671D01*
X006338Y024716D01*
X006248Y024716D01*
X006203Y024671D01*
X006203Y024536D01*
X006248Y024830D02*
X006158Y024830D01*
X006113Y024875D01*
X006113Y024965D01*
X006158Y025011D01*
X006248Y025011D01*
X006293Y024965D01*
X006293Y024875D01*
X006248Y024830D01*
X006293Y025125D02*
X006158Y025125D01*
X006113Y025170D01*
X006158Y025215D01*
X006113Y025260D01*
X006158Y025305D01*
X006293Y025305D01*
X006248Y025420D02*
X006293Y025465D01*
X006293Y025555D01*
X006248Y025600D01*
X006203Y025600D01*
X006203Y025420D01*
X006158Y025420D02*
X006248Y025420D01*
X006158Y025420D02*
X006113Y025465D01*
X006113Y025555D01*
X006113Y025714D02*
X006293Y025714D01*
X006203Y025714D02*
X006293Y025804D01*
X006293Y025849D01*
X006248Y025960D02*
X006248Y026140D01*
X006203Y026254D02*
X006203Y026390D01*
X006248Y026435D01*
X006338Y026435D01*
X006383Y026390D01*
X006383Y026254D01*
X006113Y026254D01*
X006158Y026549D02*
X006113Y026594D01*
X006113Y026684D01*
X006158Y026729D01*
X006338Y026729D01*
X006383Y026684D01*
X006383Y026594D01*
X006338Y026549D01*
X006158Y026549D01*
X006113Y026844D02*
X006113Y026979D01*
X006158Y027024D01*
X006338Y027024D01*
X006383Y026979D01*
X006383Y026844D01*
X006113Y026844D01*
X005836Y026755D02*
X005746Y026845D01*
X005566Y026845D01*
X005566Y026960D02*
X005566Y027140D01*
X005566Y027050D02*
X005836Y027050D01*
X005746Y026960D01*
X005701Y026845D02*
X005701Y026665D01*
X005746Y026665D02*
X005566Y026665D01*
X005746Y026665D02*
X005836Y026755D01*
X005791Y026140D02*
X005611Y025960D01*
X005566Y026005D01*
X005566Y026095D01*
X005611Y026140D01*
X005791Y026140D01*
X005836Y026095D01*
X005836Y026005D01*
X005791Y025960D01*
X005611Y025960D01*
X005566Y025845D02*
X005746Y025845D01*
X005836Y025755D01*
X005746Y025665D01*
X005566Y025665D01*
X005701Y025665D02*
X005701Y025845D01*
X005701Y027665D02*
X005701Y027845D01*
X005746Y027845D02*
X005566Y027845D01*
X005566Y027960D02*
X005746Y028140D01*
X005791Y028140D01*
X005836Y028095D01*
X005836Y028005D01*
X005791Y027960D01*
X005746Y027845D02*
X005836Y027755D01*
X005746Y027665D01*
X005566Y027665D01*
X005566Y027960D02*
X005566Y028140D01*
X005566Y028665D02*
X005746Y028665D01*
X005836Y028755D01*
X005746Y028845D01*
X005566Y028845D01*
X005611Y028960D02*
X005566Y029005D01*
X005566Y029095D01*
X005611Y029140D01*
X005656Y029140D01*
X005701Y029095D01*
X005701Y029050D01*
X005701Y029095D02*
X005746Y029140D01*
X005791Y029140D01*
X005836Y029095D01*
X005836Y029005D01*
X005791Y028960D01*
X005701Y028845D02*
X005701Y028665D01*
X005701Y029665D02*
X005701Y029845D01*
X005746Y029845D02*
X005566Y029845D01*
X005701Y029960D02*
X005701Y030140D01*
X005836Y030095D02*
X005701Y029960D01*
X005746Y029845D02*
X005836Y029755D01*
X005746Y029665D01*
X005566Y029665D01*
X005566Y030095D02*
X005836Y030095D01*
X005746Y030665D02*
X005566Y030665D01*
X005701Y030665D02*
X005701Y030845D01*
X005746Y030845D02*
X005566Y030845D01*
X005611Y030960D02*
X005566Y031005D01*
X005566Y031095D01*
X005611Y031140D01*
X005701Y031140D01*
X005746Y031095D01*
X005746Y031050D01*
X005701Y030960D01*
X005836Y030960D01*
X005836Y031140D01*
X005746Y030845D02*
X005836Y030755D01*
X005746Y030665D01*
X005734Y031660D02*
X005779Y031705D01*
X005599Y031885D01*
X005599Y031705D01*
X005644Y031660D01*
X005734Y031660D01*
X005779Y031705D02*
X005779Y031885D01*
X005734Y031930D01*
X005644Y031930D01*
X005599Y031885D01*
X005893Y031885D02*
X005938Y031930D01*
X006028Y031930D01*
X006073Y031885D01*
X006073Y031705D01*
X006028Y031660D01*
X005938Y031660D01*
X005893Y031705D01*
X006188Y031660D02*
X006188Y031840D01*
X006278Y031930D01*
X006368Y031840D01*
X006368Y031660D01*
X006483Y031705D02*
X006483Y031885D01*
X006528Y031930D01*
X006663Y031930D01*
X006663Y031660D01*
X006528Y031660D01*
X006483Y031705D01*
X006368Y031795D02*
X006188Y031795D01*
X006188Y032660D02*
X006188Y032840D01*
X006278Y032930D01*
X006368Y032840D01*
X006368Y032660D01*
X006483Y032705D02*
X006483Y032885D01*
X006528Y032930D01*
X006663Y032930D01*
X006663Y032660D01*
X006528Y032660D01*
X006483Y032705D01*
X006368Y032795D02*
X006188Y032795D01*
X006073Y032885D02*
X006073Y032705D01*
X006028Y032660D01*
X005938Y032660D01*
X005893Y032705D01*
X005779Y032660D02*
X005599Y032660D01*
X005689Y032660D02*
X005689Y032930D01*
X005779Y032840D01*
X005893Y032885D02*
X005938Y032930D01*
X006028Y032930D01*
X006073Y032885D01*
X008790Y032875D02*
X008790Y032740D01*
X009060Y032740D01*
X009060Y032875D01*
X009015Y032920D01*
X008835Y032920D01*
X008790Y032875D01*
X008790Y033035D02*
X008790Y033170D01*
X008835Y033215D01*
X008880Y033215D01*
X008925Y033170D01*
X008925Y033035D01*
X008790Y033035D02*
X009060Y033035D01*
X009060Y033170D01*
X009015Y033215D01*
X008970Y033215D01*
X008925Y033170D01*
X008925Y032626D02*
X008835Y032626D01*
X008790Y032581D01*
X008790Y032491D01*
X008835Y032446D01*
X008925Y032446D02*
X008970Y032536D01*
X008970Y032581D01*
X008925Y032626D01*
X009060Y032626D02*
X009060Y032446D01*
X008925Y032446D01*
X008925Y032331D02*
X008925Y032151D01*
X009060Y032286D01*
X008790Y032286D01*
X008790Y031946D02*
X009060Y031946D01*
X009060Y031856D02*
X009060Y032036D01*
X009223Y032080D02*
X009223Y032170D01*
X009268Y032215D01*
X009313Y032215D01*
X009358Y032170D01*
X009358Y032035D01*
X009268Y032035D01*
X009223Y032080D01*
X009358Y032035D02*
X009448Y032125D01*
X009493Y032215D01*
X009448Y031920D02*
X009493Y031875D01*
X009493Y031785D01*
X009448Y031740D01*
X009268Y031740D01*
X009223Y031785D01*
X009223Y031875D01*
X009268Y031920D01*
X009223Y031634D02*
X009223Y031544D01*
X009223Y031589D02*
X009493Y031589D01*
X009493Y031544D02*
X009493Y031634D01*
X009060Y031652D02*
X008970Y031742D01*
X008790Y031742D01*
X008925Y031742D02*
X008925Y031562D01*
X008970Y031562D02*
X009060Y031652D01*
X008970Y031562D02*
X008790Y031562D01*
X008970Y031157D02*
X008970Y031112D01*
X008880Y031021D01*
X008790Y031021D02*
X008970Y031021D01*
X008925Y030907D02*
X008970Y030862D01*
X008970Y030772D01*
X008925Y030727D01*
X008835Y030727D01*
X008790Y030772D01*
X008790Y030862D01*
X008835Y030907D01*
X008925Y030907D01*
X008790Y030318D02*
X008790Y030138D01*
X009060Y030138D01*
X009060Y030023D02*
X009060Y029843D01*
X008790Y029843D01*
X008835Y029728D02*
X008790Y029683D01*
X008790Y029593D01*
X008835Y029548D01*
X008925Y029548D02*
X008970Y029638D01*
X008970Y029683D01*
X008925Y029728D01*
X008835Y029728D01*
X008925Y029843D02*
X008925Y029933D01*
X009060Y029728D02*
X009060Y029548D01*
X008925Y029548D01*
X008970Y029434D02*
X008790Y029254D01*
X008790Y029434D01*
X008970Y029434D02*
X009015Y029434D01*
X009060Y029389D01*
X009060Y029299D01*
X009015Y029254D01*
X009015Y029139D02*
X009060Y029094D01*
X009060Y029004D01*
X009015Y028959D01*
X008970Y028959D01*
X008925Y029004D01*
X008925Y029094D01*
X008880Y029139D01*
X008835Y029139D01*
X008790Y029094D01*
X008790Y029004D01*
X008835Y028959D01*
X009223Y028945D02*
X009223Y029035D01*
X009223Y028990D02*
X009493Y028990D01*
X009493Y028945D02*
X009493Y029035D01*
X009448Y029142D02*
X009268Y029142D01*
X009223Y029187D01*
X009223Y029277D01*
X009268Y029322D01*
X009268Y029436D02*
X009223Y029481D01*
X009223Y029571D01*
X009268Y029616D01*
X009358Y029616D01*
X009403Y029571D01*
X009403Y029526D01*
X009358Y029436D01*
X009493Y029436D01*
X009493Y029616D01*
X009448Y029322D02*
X009493Y029277D01*
X009493Y029187D01*
X009448Y029142D01*
X010379Y028960D02*
X010379Y028566D01*
X010379Y028960D02*
X010773Y028960D01*
X008939Y026242D02*
X008939Y026107D01*
X008849Y026152D01*
X008804Y026152D01*
X008759Y026107D01*
X008759Y026017D01*
X008804Y025972D01*
X008894Y025972D01*
X008939Y026017D01*
X008939Y026242D02*
X008759Y026242D01*
X008644Y026242D02*
X008644Y026062D01*
X008554Y025972D01*
X008464Y026062D01*
X008464Y026242D01*
X008350Y026197D02*
X008305Y026242D01*
X008215Y026242D01*
X008169Y026197D01*
X008350Y026017D01*
X008305Y025972D01*
X008215Y025972D01*
X008169Y026017D01*
X008169Y026197D01*
X008350Y026197D02*
X008350Y026017D01*
X008350Y025242D02*
X008215Y025242D01*
X008169Y025197D01*
X008169Y025017D01*
X008215Y024972D01*
X008350Y024972D01*
X008350Y025242D01*
X008464Y025242D02*
X008464Y024972D01*
X008644Y025242D01*
X008644Y024972D01*
X008759Y025017D02*
X008804Y024972D01*
X008894Y024972D01*
X008939Y025017D01*
X008939Y025197D01*
X008894Y025242D01*
X008804Y025242D01*
X008759Y025197D01*
X008759Y025107D02*
X008849Y025107D01*
X008759Y025107D02*
X008759Y025017D01*
X008804Y024242D02*
X008759Y024197D01*
X008759Y024152D01*
X008804Y024107D01*
X008759Y024062D01*
X008759Y024017D01*
X008804Y023972D01*
X008894Y023972D01*
X008939Y024017D01*
X008849Y024107D02*
X008804Y024107D01*
X008804Y024242D02*
X008894Y024242D01*
X008939Y024197D01*
X008644Y024242D02*
X008644Y024062D01*
X008554Y023972D01*
X008464Y024062D01*
X008464Y024242D01*
X008350Y024197D02*
X008305Y024242D01*
X008215Y024242D01*
X008169Y024197D01*
X008169Y024152D01*
X008215Y024107D01*
X008169Y024062D01*
X008169Y024017D01*
X008215Y023972D01*
X008305Y023972D01*
X008350Y024017D01*
X008260Y024107D02*
X008215Y024107D01*
X005836Y023447D02*
X005656Y023447D01*
X005656Y019792D02*
X005836Y019792D01*
X008076Y018313D02*
X008076Y018223D01*
X008121Y018178D01*
X008121Y018064D02*
X008076Y018019D01*
X008076Y017928D01*
X008121Y017883D01*
X008301Y018064D01*
X008121Y018064D01*
X008301Y018064D02*
X008347Y018019D01*
X008347Y017928D01*
X008301Y017883D01*
X008121Y017883D01*
X008076Y017769D02*
X008076Y017589D01*
X008076Y017679D02*
X008347Y017679D01*
X008256Y017589D01*
X008076Y017474D02*
X008076Y017294D01*
X008347Y017294D01*
X008509Y017294D02*
X008509Y017474D01*
X008509Y017589D02*
X008509Y017769D01*
X008509Y017679D02*
X008780Y017679D01*
X008690Y017589D01*
X008735Y017883D02*
X008554Y017883D01*
X008735Y018064D01*
X008554Y018064D01*
X008509Y018019D01*
X008509Y017928D01*
X008554Y017883D01*
X008735Y017883D02*
X008780Y017928D01*
X008780Y018019D01*
X008735Y018064D01*
X008690Y018178D02*
X008780Y018268D01*
X008509Y018268D01*
X008509Y018178D02*
X008509Y018358D01*
X008347Y018313D02*
X008301Y018358D01*
X008256Y018358D01*
X008211Y018313D01*
X008166Y018358D01*
X008121Y018358D01*
X008076Y018313D01*
X008211Y018313D02*
X008211Y018268D01*
X008301Y018178D02*
X008347Y018223D01*
X008347Y018313D01*
X008509Y017294D02*
X008780Y017294D01*
X011375Y015180D02*
X011836Y015180D01*
X011836Y014786D01*
X013804Y014668D02*
X013804Y014550D01*
X013804Y014668D02*
X013922Y014668D01*
X013804Y013133D02*
X013804Y013015D01*
X013922Y013015D01*
X015340Y013015D02*
X015458Y013015D01*
X015458Y013133D01*
X015759Y013551D02*
X015759Y013642D01*
X015759Y013596D02*
X016029Y013596D01*
X016029Y013551D02*
X016029Y013642D01*
X015984Y013748D02*
X015804Y013748D01*
X015759Y013793D01*
X015759Y013883D01*
X015804Y013928D01*
X015759Y014043D02*
X015939Y014223D01*
X015984Y014223D01*
X016029Y014178D01*
X016029Y014088D01*
X015984Y014043D01*
X015984Y013928D02*
X016029Y013883D01*
X016029Y013793D01*
X015984Y013748D01*
X015759Y014043D02*
X015759Y014223D01*
X015458Y014550D02*
X015340Y014668D01*
X015307Y014542D02*
X015309Y014552D01*
X015314Y014560D01*
X015322Y014565D01*
X015332Y014567D01*
X015342Y014565D01*
X015350Y014560D01*
X015355Y014552D01*
X015357Y014542D01*
X015355Y014532D01*
X015350Y014524D01*
X015342Y014519D01*
X015332Y014517D01*
X015322Y014519D01*
X015314Y014524D01*
X015309Y014532D01*
X015307Y014542D01*
X016822Y016425D02*
X017092Y016425D01*
X016822Y016606D01*
X017092Y016606D01*
X017092Y016720D02*
X017092Y016855D01*
X017047Y016900D01*
X016957Y016900D01*
X016912Y016855D01*
X016912Y016720D01*
X016912Y016810D02*
X016822Y016900D01*
X016867Y017015D02*
X016822Y017060D01*
X016822Y017150D01*
X016867Y017195D01*
X016912Y017195D01*
X016957Y017150D01*
X016957Y017060D01*
X017002Y017015D01*
X017047Y017015D01*
X017092Y017060D01*
X017092Y017150D01*
X017047Y017195D01*
X017092Y017309D02*
X017092Y017490D01*
X017092Y017399D02*
X016822Y017399D01*
X016397Y017715D02*
X016397Y018315D01*
X015709Y018473D02*
X015528Y018743D01*
X015414Y018698D02*
X015369Y018743D01*
X015279Y018743D01*
X015234Y018698D01*
X015234Y018653D01*
X015414Y018473D01*
X015234Y018473D01*
X015528Y018473D02*
X015709Y018743D01*
X014597Y018315D02*
X014597Y017715D01*
X016822Y016720D02*
X017092Y016720D01*
X018593Y016681D02*
X018863Y016681D01*
X018863Y016816D01*
X018818Y016861D01*
X018728Y016861D01*
X018683Y016816D01*
X018683Y016681D01*
X018683Y016771D02*
X018593Y016861D01*
X018638Y016975D02*
X018593Y017020D01*
X018593Y017111D01*
X018638Y017156D01*
X018683Y017156D01*
X018728Y017111D01*
X018728Y017020D01*
X018773Y016975D01*
X018818Y016975D01*
X018863Y017020D01*
X018863Y017111D01*
X018818Y017156D01*
X018863Y017270D02*
X018863Y017450D01*
X018863Y017360D02*
X018593Y017360D01*
X018593Y017565D02*
X018593Y017700D01*
X018638Y017745D01*
X018683Y017745D01*
X018728Y017700D01*
X018728Y017565D01*
X018728Y017700D02*
X018773Y017745D01*
X018818Y017745D01*
X018863Y017700D01*
X018863Y017565D01*
X018593Y017565D01*
X018593Y016566D02*
X018863Y016566D01*
X018863Y016386D02*
X018593Y016566D01*
X018593Y016386D02*
X018863Y016386D01*
X018509Y014144D02*
X018464Y014144D01*
X018284Y013964D01*
X018239Y013964D01*
X018284Y013849D02*
X018239Y013804D01*
X018239Y013714D01*
X018284Y013669D01*
X018464Y013669D01*
X018509Y013714D01*
X018509Y013804D01*
X018464Y013849D01*
X018509Y013964D02*
X018509Y014144D01*
X018509Y013563D02*
X018509Y013473D01*
X018509Y013518D02*
X018239Y013518D01*
X018239Y013473D02*
X018239Y013563D01*
X017873Y012412D02*
X017828Y012412D01*
X017783Y012367D01*
X017738Y012412D01*
X017693Y012412D01*
X017648Y012367D01*
X017648Y012277D01*
X017693Y012232D01*
X017693Y012117D02*
X017648Y012072D01*
X017648Y011982D01*
X017693Y011937D01*
X017873Y011937D01*
X017919Y011982D01*
X017919Y012072D01*
X017873Y012117D01*
X017693Y012117D01*
X017648Y012117D02*
X017738Y012027D01*
X017873Y012232D02*
X017919Y012277D01*
X017919Y012367D01*
X017873Y012412D01*
X017783Y012367D02*
X017783Y012322D01*
X016260Y011139D02*
X016260Y010959D01*
X016215Y010914D01*
X016125Y010914D01*
X016080Y010959D01*
X016080Y011139D01*
X016125Y011184D01*
X016215Y011184D01*
X016260Y011139D01*
X016170Y011004D02*
X016080Y010914D01*
X015965Y010914D02*
X015785Y011094D01*
X015785Y011139D01*
X015830Y011184D01*
X015920Y011184D01*
X015965Y011139D01*
X015965Y010914D02*
X015785Y010914D01*
X014252Y010200D02*
X014072Y010200D01*
X014162Y010200D02*
X014162Y009929D01*
X013957Y009929D02*
X013957Y010200D01*
X013822Y010200D01*
X013777Y010155D01*
X013777Y010065D01*
X013822Y010019D01*
X013957Y010019D01*
X013867Y010019D02*
X013777Y009929D01*
X013663Y009929D02*
X013482Y009929D01*
X013572Y009929D02*
X013572Y010200D01*
X013663Y010110D01*
X011836Y009314D02*
X011836Y008920D01*
X011375Y008920D01*
X009173Y006408D02*
X009218Y006362D01*
X009218Y006272D01*
X009173Y006227D01*
X009173Y006408D02*
X009128Y006408D01*
X008947Y006227D01*
X008947Y006408D01*
X008947Y006113D02*
X008947Y005933D01*
X008947Y006023D02*
X009218Y006023D01*
X009128Y005933D01*
X009173Y005818D02*
X008993Y005818D01*
X008947Y005773D01*
X008947Y005683D01*
X008993Y005638D01*
X009173Y005638D01*
X009218Y005683D01*
X009218Y005773D01*
X009173Y005818D01*
X009038Y005728D02*
X008947Y005818D01*
X007520Y006943D02*
X007474Y006898D01*
X007384Y006898D01*
X007339Y006943D01*
X007339Y007123D01*
X007384Y007168D01*
X007474Y007168D01*
X007520Y007123D01*
X007520Y006943D01*
X007429Y006988D02*
X007339Y006898D01*
X007225Y006943D02*
X007225Y006988D01*
X007180Y007033D01*
X007090Y007033D01*
X007045Y006988D01*
X007045Y006943D01*
X007090Y006898D01*
X007180Y006898D01*
X007225Y006943D01*
X007180Y007033D02*
X007225Y007078D01*
X007225Y007123D01*
X007180Y007168D01*
X007090Y007168D01*
X007045Y007123D01*
X007045Y007078D01*
X007090Y007033D01*
X005512Y004297D02*
X005377Y004162D01*
X005377Y004342D01*
X005242Y004297D02*
X005512Y004297D01*
X005512Y004048D02*
X005512Y003958D01*
X005512Y004003D02*
X005287Y004003D01*
X005242Y003958D01*
X005242Y003913D01*
X005287Y003868D01*
X006113Y003233D02*
X006383Y003233D01*
X006248Y003098D01*
X006248Y003278D01*
X006338Y002983D02*
X006383Y002938D01*
X006383Y002848D01*
X006338Y002803D01*
X006158Y002803D01*
X006113Y002848D01*
X006113Y002938D01*
X006158Y002983D01*
X006113Y002697D02*
X006113Y002607D01*
X006113Y002652D02*
X006383Y002652D01*
X006383Y002607D02*
X006383Y002697D01*
X009368Y002449D02*
X009548Y002449D01*
X009458Y002449D02*
X009458Y002719D01*
X009548Y002629D01*
X009662Y002449D02*
X009842Y002449D01*
X009842Y002719D01*
X010750Y005200D02*
X010840Y005200D01*
X010885Y005245D01*
X010885Y005290D01*
X010840Y005335D01*
X010750Y005335D01*
X010705Y005290D01*
X010705Y005245D01*
X010750Y005200D01*
X010750Y005335D02*
X010705Y005380D01*
X010705Y005425D01*
X010750Y005470D01*
X010840Y005470D01*
X010885Y005425D01*
X010885Y005380D01*
X010840Y005335D01*
X011000Y005245D02*
X011045Y005200D01*
X011135Y005200D01*
X011180Y005245D01*
X011180Y005425D01*
X011135Y005470D01*
X011045Y005470D01*
X011000Y005425D01*
X011286Y005470D02*
X011376Y005470D01*
X011331Y005470D02*
X011331Y005200D01*
X011376Y005200D02*
X011286Y005200D01*
X013108Y005267D02*
X013108Y005312D01*
X013153Y005357D01*
X013243Y005357D01*
X013288Y005312D01*
X013402Y005357D02*
X013492Y005357D01*
X013447Y005357D02*
X013447Y005132D01*
X013492Y005087D01*
X013537Y005087D01*
X013583Y005132D01*
X013288Y005087D02*
X013108Y005267D01*
X013108Y005087D02*
X013288Y005087D01*
X013827Y004904D02*
X013829Y004918D01*
X013835Y004932D01*
X013843Y004944D01*
X013855Y004952D01*
X013869Y004958D01*
X013883Y004960D01*
X013897Y004958D01*
X013911Y004952D01*
X013923Y004944D01*
X013931Y004932D01*
X013937Y004918D01*
X013939Y004904D01*
X013937Y004890D01*
X013931Y004876D01*
X013923Y004864D01*
X013911Y004856D01*
X013897Y004850D01*
X013883Y004848D01*
X013869Y004850D01*
X013855Y004856D01*
X013843Y004864D01*
X013835Y004876D01*
X013829Y004890D01*
X013827Y004904D01*
X012958Y002617D02*
X012688Y002617D01*
X012688Y002527D02*
X012688Y002707D01*
X012868Y002527D02*
X012958Y002617D01*
X012958Y002322D02*
X012688Y002322D01*
X012688Y002232D02*
X012688Y002412D01*
X012868Y002232D02*
X012958Y002322D01*
X012913Y002117D02*
X012958Y002072D01*
X012958Y001982D01*
X012913Y001937D01*
X012733Y001937D01*
X012688Y001982D01*
X012688Y002072D01*
X012733Y002117D01*
X012913Y002117D01*
X012778Y002027D02*
X012688Y002117D01*
X019504Y010756D02*
X019459Y010801D01*
X019459Y010891D01*
X019504Y010936D01*
X019684Y010936D01*
X019730Y010891D01*
X019730Y010801D01*
X019684Y010756D01*
X019504Y010756D01*
X019549Y010846D02*
X019459Y010936D01*
X019459Y011051D02*
X019459Y011231D01*
X019459Y011141D02*
X019730Y011141D01*
X019639Y011051D01*
X021147Y010994D02*
X021147Y011174D01*
X021147Y011288D02*
X021327Y011468D01*
X021372Y011468D01*
X021417Y011423D01*
X021417Y011333D01*
X021372Y011288D01*
X021372Y011174D02*
X021192Y010994D01*
X021147Y010994D01*
X021417Y010994D02*
X021417Y011174D01*
X021372Y011174D01*
X021147Y011288D02*
X021147Y011468D01*
X021147Y010130D02*
X021147Y009950D01*
X021147Y010040D02*
X021417Y010040D01*
X021327Y009950D01*
X021372Y009835D02*
X021192Y009655D01*
X021147Y009655D01*
X021147Y009835D01*
X021372Y009835D02*
X021417Y009835D01*
X021417Y009655D01*
X022162Y009441D02*
X022162Y009396D01*
X022207Y009351D01*
X022162Y009306D01*
X022162Y009261D01*
X022207Y009216D01*
X022297Y009216D01*
X022342Y009261D01*
X022456Y009216D02*
X022636Y009216D01*
X022636Y009261D01*
X022456Y009441D01*
X022456Y009486D01*
X022636Y009486D01*
X022342Y009441D02*
X022297Y009486D01*
X022207Y009486D01*
X022162Y009441D01*
X022207Y009351D02*
X022252Y009351D01*
X022530Y008554D02*
X022530Y008374D01*
X022530Y008464D02*
X022800Y008464D01*
X022710Y008374D01*
X022755Y008259D02*
X022800Y008214D01*
X022800Y008079D01*
X022530Y008079D01*
X022530Y008214D01*
X022575Y008259D01*
X022755Y008259D01*
X024092Y008079D02*
X024272Y008079D01*
X024182Y008079D02*
X024182Y008349D01*
X024272Y008259D01*
X024387Y008349D02*
X024477Y008349D01*
X024432Y008349D02*
X024432Y008124D01*
X024477Y008079D01*
X024522Y008079D01*
X024567Y008124D01*
X024508Y006853D02*
X024328Y006853D01*
X024328Y006808D01*
X024508Y006628D01*
X024508Y006583D01*
X024623Y006583D02*
X024713Y006673D01*
X024758Y006583D02*
X024803Y006628D01*
X024803Y006808D01*
X024758Y006853D01*
X024668Y006853D01*
X024623Y006808D01*
X024623Y006628D01*
X024668Y006583D01*
X024758Y006583D01*
X023897Y006549D02*
X023852Y006504D01*
X023762Y006504D01*
X023717Y006549D01*
X023717Y006729D01*
X023762Y006774D01*
X023852Y006774D01*
X023897Y006729D01*
X023897Y006549D01*
X023807Y006594D02*
X023717Y006504D01*
X023603Y006549D02*
X023558Y006504D01*
X023468Y006504D01*
X023423Y006549D01*
X023423Y006639D01*
X023468Y006684D01*
X023513Y006684D01*
X023603Y006639D01*
X023603Y006774D01*
X023423Y006774D01*
X025134Y004420D02*
X025179Y004420D01*
X025224Y004375D01*
X025224Y004240D01*
X025134Y004240D01*
X025089Y004285D01*
X025089Y004375D01*
X025134Y004420D01*
X025314Y004330D02*
X025224Y004240D01*
X025314Y004330D02*
X025359Y004420D01*
X025314Y004125D02*
X025134Y004125D01*
X025089Y004080D01*
X025089Y003990D01*
X025134Y003945D01*
X025314Y003945D01*
X025359Y003990D01*
X025359Y004080D01*
X025314Y004125D01*
X025179Y004035D02*
X025089Y004125D01*
X024679Y003546D02*
X024589Y003546D01*
X024544Y003501D01*
X024544Y003321D01*
X024589Y003276D01*
X024679Y003276D01*
X024724Y003321D01*
X024724Y003501D01*
X024679Y003546D01*
X024634Y003366D02*
X024544Y003276D01*
X024430Y003321D02*
X024385Y003276D01*
X024294Y003276D01*
X024249Y003321D01*
X024249Y003501D01*
X024294Y003546D01*
X024385Y003546D01*
X024430Y003501D01*
X024430Y003456D01*
X024385Y003411D01*
X024249Y003411D01*
X020984Y007685D02*
X021029Y007730D01*
X021029Y007820D01*
X020984Y007865D01*
X020804Y007865D01*
X020759Y007820D01*
X020759Y007730D01*
X020804Y007685D01*
X020984Y007685D01*
X020849Y007775D02*
X020759Y007865D01*
X020894Y007980D02*
X020894Y008160D01*
X021029Y008115D02*
X020894Y007980D01*
X020759Y008115D02*
X021029Y008115D01*
X022813Y013015D02*
X022993Y013015D01*
X022993Y013285D01*
X023108Y013240D02*
X023153Y013285D01*
X023243Y013285D01*
X023288Y013240D01*
X023288Y013060D01*
X023243Y013015D01*
X023153Y013015D01*
X023108Y013060D01*
X023402Y013060D02*
X023402Y013105D01*
X023447Y013150D01*
X023537Y013150D01*
X023583Y013195D01*
X023583Y013240D01*
X023537Y013285D01*
X023447Y013285D01*
X023402Y013240D01*
X023402Y013060D02*
X023447Y013015D01*
X023537Y013015D01*
X023583Y013060D01*
X023537Y014015D02*
X023447Y014015D01*
X023402Y014060D01*
X023402Y014105D01*
X023447Y014150D01*
X023537Y014150D01*
X023583Y014195D01*
X023583Y014240D01*
X023537Y014285D01*
X023447Y014285D01*
X023402Y014240D01*
X023288Y014285D02*
X023153Y014285D01*
X023108Y014240D01*
X023108Y014060D01*
X023153Y014015D01*
X023288Y014015D01*
X023288Y014285D01*
X022993Y014195D02*
X022903Y014285D01*
X022813Y014195D01*
X022813Y014015D01*
X022813Y014150D02*
X022993Y014150D01*
X022993Y014195D02*
X022993Y014015D01*
X023537Y014015D02*
X023583Y014060D01*
X023583Y015015D02*
X023583Y015195D01*
X023492Y015285D01*
X023402Y015195D01*
X023402Y015015D01*
X023288Y015015D02*
X023288Y015285D01*
X023153Y015285D01*
X023108Y015240D01*
X023108Y015150D01*
X023153Y015105D01*
X023288Y015105D01*
X023198Y015105D02*
X023108Y015015D01*
X022993Y015060D02*
X022993Y015150D01*
X022948Y015195D01*
X022858Y015195D01*
X022813Y015150D01*
X022813Y015105D01*
X022993Y015105D01*
X022993Y015060D02*
X022948Y015015D01*
X022858Y015015D01*
X022654Y015015D02*
X022654Y015240D01*
X022608Y015285D01*
X022608Y015150D02*
X022699Y015150D01*
X023402Y015150D02*
X023583Y015150D01*
X023537Y016012D02*
X023447Y016012D01*
X023402Y016057D01*
X023402Y016147D01*
X023492Y016147D01*
X023402Y016237D02*
X023447Y016282D01*
X023537Y016282D01*
X023583Y016237D01*
X023583Y016057D01*
X023537Y016012D01*
X023288Y016012D02*
X023288Y016282D01*
X023108Y016012D01*
X023108Y016282D01*
X022993Y016282D02*
X022858Y016282D01*
X022813Y016237D01*
X022813Y016057D01*
X022858Y016012D01*
X022993Y016012D01*
X022993Y016282D01*
X023246Y017076D02*
X023246Y017256D01*
X023246Y017166D02*
X023516Y017166D01*
X023426Y017076D01*
X023471Y017371D02*
X023516Y017416D01*
X023516Y017506D01*
X023471Y017551D01*
X023426Y017551D01*
X023381Y017506D01*
X023336Y017551D01*
X023291Y017551D01*
X023246Y017506D01*
X023246Y017416D01*
X023291Y017371D01*
X023381Y017461D02*
X023381Y017506D01*
X023426Y018076D02*
X023516Y018166D01*
X023246Y018166D01*
X023246Y018076D02*
X023246Y018256D01*
X023246Y018371D02*
X023426Y018551D01*
X023471Y018551D01*
X023516Y018506D01*
X023516Y018416D01*
X023471Y018371D01*
X023246Y018371D02*
X023246Y018551D01*
X023246Y019076D02*
X023246Y019256D01*
X023246Y019166D02*
X023516Y019166D01*
X023426Y019076D01*
X023426Y019371D02*
X023516Y019461D01*
X023246Y019461D01*
X023246Y019371D02*
X023246Y019551D01*
X023246Y020076D02*
X023246Y020256D01*
X023246Y020166D02*
X023516Y020166D01*
X023426Y020076D01*
X023471Y020371D02*
X023516Y020416D01*
X023516Y020506D01*
X023471Y020551D01*
X023291Y020371D01*
X023246Y020416D01*
X023246Y020506D01*
X023291Y020551D01*
X023471Y020551D01*
X023471Y020371D02*
X023291Y020371D01*
X022919Y020638D02*
X022648Y020638D01*
X022648Y020818D01*
X022648Y020933D02*
X022648Y021113D01*
X022648Y021023D02*
X022919Y021023D01*
X022828Y020933D01*
X022873Y021227D02*
X022919Y021272D01*
X022919Y021362D01*
X022873Y021408D01*
X022693Y021227D01*
X022648Y021272D01*
X022648Y021362D01*
X022693Y021408D01*
X022873Y021408D01*
X022873Y021522D02*
X022919Y021567D01*
X022919Y021657D01*
X022873Y021702D01*
X022828Y021702D01*
X022648Y021522D01*
X022648Y021702D01*
X022693Y021227D02*
X022873Y021227D01*
X023246Y021216D02*
X023246Y021306D01*
X023291Y021351D01*
X023471Y021351D01*
X023516Y021306D01*
X023516Y021216D01*
X023471Y021171D01*
X023426Y021171D01*
X023381Y021216D01*
X023381Y021351D01*
X023246Y021216D02*
X023291Y021171D01*
X023291Y022171D02*
X023246Y022216D01*
X023246Y022306D01*
X023291Y022351D01*
X023336Y022351D01*
X023381Y022306D01*
X023381Y022216D01*
X023426Y022171D01*
X023471Y022171D01*
X023516Y022216D01*
X023516Y022306D01*
X023471Y022351D01*
X023426Y022351D01*
X023381Y022306D01*
X023381Y022216D02*
X023336Y022171D01*
X023291Y022171D01*
X023291Y023771D02*
X023246Y023771D01*
X023291Y023771D02*
X023471Y023951D01*
X023516Y023951D01*
X023516Y023771D01*
X023381Y024771D02*
X023381Y024906D01*
X023336Y024951D01*
X023291Y024951D01*
X023246Y024906D01*
X023246Y024816D01*
X023291Y024771D01*
X023381Y024771D01*
X023471Y024861D01*
X023516Y024951D01*
X023516Y025771D02*
X023381Y025771D01*
X023426Y025861D01*
X023426Y025906D01*
X023381Y025951D01*
X023291Y025951D01*
X023246Y025906D01*
X023246Y025816D01*
X023291Y025771D01*
X023516Y025771D02*
X023516Y025951D01*
X023381Y026771D02*
X023381Y026951D01*
X023516Y026906D02*
X023381Y026771D01*
X023246Y026906D02*
X023516Y026906D01*
X023471Y027771D02*
X023516Y027816D01*
X023516Y027906D01*
X023471Y027951D01*
X023426Y027951D01*
X023381Y027906D01*
X023336Y027951D01*
X023291Y027951D01*
X023246Y027906D01*
X023246Y027816D01*
X023291Y027771D01*
X023381Y027861D02*
X023381Y027906D01*
X023471Y028771D02*
X023516Y028816D01*
X023516Y028906D01*
X023471Y028951D01*
X023426Y028951D01*
X023246Y028771D01*
X023246Y028951D01*
X023246Y029771D02*
X023246Y029951D01*
X023246Y029861D02*
X023516Y029861D01*
X023426Y029771D01*
X023471Y030771D02*
X023516Y030816D01*
X023516Y030906D01*
X023471Y030951D01*
X023291Y030771D01*
X023246Y030816D01*
X023246Y030906D01*
X023291Y030951D01*
X023471Y030951D01*
X023471Y030771D02*
X023291Y030771D01*
X023249Y031662D02*
X023249Y031842D01*
X023158Y031932D01*
X023068Y031842D01*
X023068Y031662D01*
X022954Y031662D02*
X022954Y031932D01*
X022774Y031662D01*
X022774Y031932D01*
X022659Y031932D02*
X022524Y031932D01*
X022479Y031887D01*
X022479Y031797D01*
X022524Y031752D01*
X022659Y031752D01*
X022569Y031752D02*
X022479Y031662D01*
X022365Y031662D02*
X022184Y031932D01*
X022365Y031932D02*
X022184Y031662D01*
X022659Y031662D02*
X022659Y031932D01*
X023068Y031797D02*
X023249Y031797D01*
X023363Y031887D02*
X023408Y031932D01*
X023498Y031932D01*
X023543Y031887D01*
X023543Y031707D01*
X023498Y031662D01*
X023408Y031662D01*
X023363Y031707D01*
X023408Y032646D02*
X023363Y032691D01*
X023408Y032646D02*
X023498Y032646D01*
X023543Y032691D01*
X023543Y032871D01*
X023498Y032916D01*
X023408Y032916D01*
X023363Y032871D01*
X023249Y032826D02*
X023158Y032916D01*
X023068Y032826D01*
X023068Y032646D01*
X022954Y032646D02*
X022954Y032916D01*
X022774Y032646D01*
X022774Y032916D01*
X022659Y032916D02*
X022479Y032916D01*
X022569Y032916D02*
X022569Y032646D01*
X022365Y032646D02*
X022184Y032916D01*
X022365Y032916D02*
X022184Y032646D01*
X023068Y032781D02*
X023249Y032781D01*
X023249Y032826D02*
X023249Y032646D01*
X023686Y034511D02*
X023686Y035967D01*
X024032Y036504D02*
X023987Y036549D01*
X023987Y036639D01*
X024032Y036684D01*
X024077Y036684D01*
X024122Y036639D01*
X024122Y036549D01*
X024167Y036504D01*
X024212Y036504D01*
X024257Y036549D01*
X024257Y036639D01*
X024212Y036684D01*
X024212Y036799D02*
X024032Y036799D01*
X023987Y036844D01*
X023987Y036934D01*
X024032Y036979D01*
X024122Y036979D01*
X024122Y036889D01*
X024212Y036979D02*
X024257Y036934D01*
X024257Y036844D01*
X024212Y036799D01*
X024167Y037094D02*
X024257Y037184D01*
X023987Y037184D01*
X023987Y037094D02*
X023987Y037274D01*
X023686Y037778D02*
X023686Y039235D01*
X018962Y039235D01*
X018962Y037778D01*
X018931Y038433D02*
X018976Y038478D01*
X018931Y038433D02*
X018841Y038433D01*
X018796Y038478D01*
X018796Y038523D01*
X018841Y038568D01*
X018886Y038568D01*
X018841Y038568D02*
X018796Y038613D01*
X018796Y038659D01*
X018841Y038704D01*
X018931Y038704D01*
X018976Y038659D01*
X018682Y038704D02*
X018682Y038523D01*
X018592Y038433D01*
X018501Y038523D01*
X018501Y038704D01*
X018387Y038659D02*
X018342Y038704D01*
X018252Y038704D01*
X018207Y038659D01*
X018207Y038613D01*
X018252Y038568D01*
X018207Y038523D01*
X018207Y038478D01*
X018252Y038433D01*
X018342Y038433D01*
X018387Y038478D01*
X018297Y038568D02*
X018252Y038568D01*
X017795Y038433D02*
X017660Y038433D01*
X017615Y038478D01*
X017615Y038659D01*
X017660Y038704D01*
X017795Y038704D01*
X017795Y038433D01*
X017500Y038433D02*
X017320Y038433D01*
X017410Y038433D02*
X017410Y038704D01*
X017500Y038613D01*
X017206Y038613D02*
X017206Y038659D01*
X017161Y038704D01*
X017071Y038704D01*
X017026Y038659D01*
X017026Y038613D01*
X017071Y038568D01*
X017161Y038568D01*
X017206Y038613D01*
X017161Y038568D02*
X017206Y038523D01*
X017206Y038478D01*
X017161Y038433D01*
X017071Y038433D01*
X017026Y038478D01*
X017026Y038523D01*
X017071Y038568D01*
X018962Y035967D02*
X018962Y034511D01*
X023686Y034511D01*
X020579Y030666D02*
X020669Y030576D01*
X020534Y030576D01*
X020489Y030531D01*
X020489Y030486D01*
X020534Y030441D01*
X020624Y030441D01*
X020669Y030486D01*
X020669Y030576D01*
X020579Y030666D02*
X020489Y030711D01*
X020039Y030790D02*
X019859Y030790D01*
X019859Y030745D01*
X020039Y030565D01*
X020039Y030520D01*
X019252Y030762D02*
X019207Y030717D01*
X019117Y030717D01*
X019072Y030762D01*
X019072Y030942D01*
X019117Y030987D01*
X019207Y030987D01*
X019252Y030942D01*
X019252Y030897D01*
X019207Y030852D01*
X019072Y030852D01*
X018740Y029412D02*
X018650Y029412D01*
X018695Y029412D02*
X018695Y029142D01*
X018740Y029142D02*
X018650Y029142D01*
X018544Y029187D02*
X018499Y029142D01*
X018408Y029142D01*
X018363Y029187D01*
X018249Y029142D02*
X018069Y029142D01*
X018159Y029142D02*
X018159Y029412D01*
X018249Y029322D01*
X018363Y029367D02*
X018408Y029412D01*
X018499Y029412D01*
X018544Y029367D01*
X018544Y029187D01*
X018253Y028723D02*
X018253Y028566D01*
X018253Y028723D02*
X018017Y028960D01*
X017859Y028960D01*
X019190Y029159D02*
X019370Y029159D01*
X019235Y029294D01*
X019235Y029024D01*
X020239Y027641D02*
X020329Y027641D01*
X020374Y027596D01*
X020239Y027641D02*
X020194Y027596D01*
X020194Y027550D01*
X020374Y027370D01*
X020194Y027370D01*
X020489Y027370D02*
X020669Y027370D01*
X020579Y027370D02*
X020579Y027641D01*
X020669Y027550D01*
X020982Y027399D02*
X021162Y027219D01*
X021117Y027173D01*
X021027Y027173D01*
X020982Y027219D01*
X020982Y027399D01*
X021027Y027444D01*
X021117Y027444D01*
X021162Y027399D01*
X021162Y027219D01*
X021276Y027173D02*
X021457Y027173D01*
X021366Y027173D02*
X021366Y027444D01*
X021457Y027354D01*
X021887Y026420D02*
X022067Y026420D01*
X022067Y026285D01*
X021977Y026330D01*
X021932Y026330D01*
X021887Y026285D01*
X021887Y026195D01*
X021932Y026150D01*
X022022Y026150D01*
X022067Y026195D01*
X022182Y026150D02*
X022362Y026150D01*
X022272Y026150D02*
X022272Y026420D01*
X022362Y026330D01*
X022272Y025869D02*
X022272Y025599D01*
X022362Y025599D02*
X022182Y025599D01*
X022067Y025644D02*
X022022Y025599D01*
X021932Y025599D01*
X021887Y025644D01*
X021887Y025689D01*
X021932Y025734D01*
X022067Y025734D01*
X022067Y025644D01*
X022067Y025734D02*
X021977Y025824D01*
X021887Y025869D01*
X022272Y025869D02*
X022362Y025779D01*
X021457Y028748D02*
X021276Y028748D01*
X021366Y028748D02*
X021366Y029019D01*
X021457Y028928D01*
X021162Y028928D02*
X021072Y029019D01*
X021072Y028748D01*
X021162Y028748D02*
X020982Y028748D01*
X021006Y029969D02*
X021097Y029969D01*
X021142Y030014D01*
X021142Y030104D02*
X021052Y030149D01*
X021006Y030149D01*
X020961Y030104D01*
X020961Y030014D01*
X021006Y029969D01*
X021142Y030104D02*
X021142Y030239D01*
X020961Y030239D01*
X019606Y032449D02*
X019426Y032449D01*
X019381Y032494D01*
X019381Y032584D01*
X019426Y032629D01*
X019606Y032629D01*
X019651Y032584D01*
X019651Y032494D01*
X019606Y032449D01*
X019471Y032539D02*
X019381Y032629D01*
X019381Y032744D02*
X019381Y032924D01*
X019381Y032834D02*
X019651Y032834D01*
X019561Y032744D01*
X019606Y033038D02*
X019426Y033038D01*
X019606Y033219D01*
X019426Y033219D01*
X019381Y033174D01*
X019381Y033083D01*
X019426Y033038D01*
X019606Y033038D02*
X019651Y033083D01*
X019651Y033174D01*
X019606Y033219D01*
X018936Y033906D02*
X018981Y033951D01*
X018981Y034041D01*
X018936Y034086D01*
X018846Y034041D02*
X018801Y034086D01*
X018756Y034086D01*
X018711Y034041D01*
X018711Y033951D01*
X018756Y033906D01*
X018846Y033951D02*
X018846Y034041D01*
X018846Y033951D02*
X018891Y033906D01*
X018936Y033906D01*
X018846Y034200D02*
X018846Y034381D01*
X018711Y034336D02*
X018981Y034336D01*
X018846Y034200D01*
X019749Y036676D02*
X019749Y037070D01*
X019552Y036873D01*
X019749Y036676D01*
X019749Y036688D02*
X019737Y036688D01*
X019749Y036737D02*
X019689Y036737D01*
X019640Y036785D02*
X019749Y036785D01*
X019749Y036834D02*
X019592Y036834D01*
X019562Y036882D02*
X019749Y036882D01*
X019749Y036931D02*
X019610Y036931D01*
X019659Y036979D02*
X019749Y036979D01*
X019749Y037028D02*
X019707Y037028D01*
X012829Y030160D02*
X012739Y030160D01*
X012694Y030115D01*
X012694Y030070D01*
X012739Y030025D01*
X012829Y030025D01*
X012874Y030070D01*
X012874Y030115D01*
X012829Y030160D01*
X012829Y030025D02*
X012874Y029980D01*
X012874Y029935D01*
X012829Y029890D01*
X012739Y029890D01*
X012694Y029935D01*
X012694Y029980D01*
X012739Y030025D01*
X012283Y038433D02*
X012148Y038433D01*
X012103Y038478D01*
X012103Y038659D01*
X012148Y038704D01*
X012283Y038704D01*
X012283Y038433D01*
X011989Y038433D02*
X011809Y038433D01*
X011899Y038433D02*
X011899Y038704D01*
X011989Y038613D01*
X011694Y038613D02*
X011649Y038568D01*
X011514Y038568D01*
X011514Y038478D02*
X011514Y038659D01*
X011559Y038704D01*
X011649Y038704D01*
X011694Y038659D01*
X011694Y038613D01*
X011694Y038478D02*
X011649Y038433D01*
X011559Y038433D01*
X011514Y038478D01*
X011102Y038478D02*
X011057Y038433D01*
X010967Y038433D01*
X010922Y038478D01*
X010922Y038568D01*
X011012Y038568D01*
X011102Y038659D02*
X011102Y038478D01*
X011102Y038659D02*
X011057Y038704D01*
X010967Y038704D01*
X010922Y038659D01*
X010808Y038704D02*
X010627Y038433D01*
X010627Y038704D01*
X010513Y038704D02*
X010513Y038433D01*
X010378Y038433D01*
X010333Y038478D01*
X010333Y038659D01*
X010378Y038704D01*
X010513Y038704D01*
X010808Y038704D02*
X010808Y038433D01*
X003273Y039311D02*
X003273Y039401D01*
X003273Y039356D02*
X003048Y039356D01*
X003003Y039311D01*
X003003Y039266D01*
X003048Y039221D01*
X003048Y039515D02*
X003003Y039560D01*
X003003Y039651D01*
X003048Y039696D01*
X003138Y039696D01*
X003183Y039651D01*
X003183Y039605D01*
X003138Y039515D01*
X003273Y039515D01*
X003273Y039696D01*
X010379Y021479D02*
X010379Y021086D01*
X010773Y021086D01*
X005157Y015897D02*
X005067Y015987D01*
X004977Y015897D01*
X004977Y015717D01*
X004863Y015717D02*
X004863Y015987D01*
X004683Y015717D01*
X004683Y015987D01*
X004568Y015987D02*
X004388Y015987D01*
X004478Y015987D02*
X004478Y015717D01*
X004977Y015852D02*
X005157Y015852D01*
X005157Y015897D02*
X005157Y015717D01*
X005498Y014393D02*
X005496Y014354D01*
X005490Y014316D01*
X005481Y014279D01*
X005468Y014242D01*
X005451Y014207D01*
X005432Y014174D01*
X005409Y014143D01*
X005383Y014114D01*
X005354Y014088D01*
X005323Y014065D01*
X005290Y014046D01*
X005255Y014029D01*
X005218Y014016D01*
X005181Y014007D01*
X005143Y014001D01*
X005104Y013999D01*
X001419Y013999D01*
X001419Y010101D01*
X004431Y009165D02*
X004431Y008985D01*
X004545Y009030D02*
X004590Y008985D01*
X004680Y008985D01*
X004726Y009030D01*
X004726Y009120D01*
X004680Y009165D01*
X004590Y009165D01*
X004545Y009120D01*
X004545Y009030D01*
X017938Y021086D02*
X018253Y021086D01*
X018253Y021479D01*
X020431Y021937D02*
X020611Y021937D01*
X020521Y021937D02*
X020521Y022208D01*
X020611Y022117D01*
X020725Y022208D02*
X020905Y021937D01*
X020725Y021937D02*
X020905Y022208D01*
X021079Y021781D02*
X021034Y021736D01*
X021034Y021646D01*
X021079Y021601D01*
X021169Y021601D02*
X021214Y021691D01*
X021214Y021736D01*
X021169Y021781D01*
X021079Y021781D01*
X021169Y021601D02*
X021304Y021601D01*
X021304Y021781D01*
X021259Y021486D02*
X021079Y021306D01*
X021034Y021351D01*
X021034Y021441D01*
X021079Y021486D01*
X021259Y021486D01*
X021304Y021441D01*
X021304Y021351D01*
X021259Y021306D01*
X021079Y021306D01*
X021034Y021192D02*
X021034Y021011D01*
X021034Y021102D02*
X021304Y021102D01*
X021214Y021011D01*
X021034Y020897D02*
X021034Y020717D01*
X021304Y020717D01*
X025686Y022572D02*
X026726Y022572D01*
X026726Y024841D01*
X026776Y024841D01*
X026826Y024841D01*
X026826Y025211D01*
X026456Y025211D01*
X026456Y025161D01*
X026456Y025111D01*
X025686Y025111D01*
X025686Y022572D01*
X026726Y024841D02*
X026726Y025111D01*
X026456Y025111D01*
X026456Y025161D02*
X026776Y025161D01*
X026776Y024841D01*
D11*
X026452Y026116D02*
X026281Y026116D01*
X026225Y026172D01*
X026225Y026399D01*
X026281Y026456D01*
X026452Y026456D01*
X026452Y026116D01*
X025970Y026116D02*
X025970Y026456D01*
X026083Y026456D02*
X025856Y026456D01*
X025715Y026456D02*
X025715Y026116D01*
X025715Y026229D02*
X025545Y026229D01*
X025488Y026286D01*
X025488Y026399D01*
X025545Y026456D01*
X025715Y026456D01*
X025601Y026229D02*
X025488Y026116D01*
X025856Y027116D02*
X026083Y027456D01*
X026225Y027456D02*
X026452Y027456D01*
X026338Y027456D02*
X026338Y027116D01*
X026083Y027116D02*
X025856Y027456D01*
X025856Y028116D02*
X026083Y028456D01*
X026225Y028399D02*
X026225Y028286D01*
X026281Y028229D01*
X026452Y028229D01*
X026452Y028116D02*
X026452Y028456D01*
X026281Y028456D01*
X026225Y028399D01*
X026338Y028229D02*
X026225Y028116D01*
X026083Y028116D02*
X025856Y028456D01*
X025970Y029116D02*
X025856Y029229D01*
X025856Y029456D01*
X025715Y029399D02*
X025658Y029456D01*
X025545Y029456D01*
X025488Y029399D01*
X025488Y029342D01*
X025545Y029286D01*
X025488Y029229D01*
X025488Y029172D01*
X025545Y029116D01*
X025658Y029116D01*
X025715Y029172D01*
X025601Y029286D02*
X025545Y029286D01*
X025970Y029116D02*
X026083Y029229D01*
X026083Y029456D01*
X026225Y029399D02*
X026225Y029342D01*
X026281Y029286D01*
X026225Y029229D01*
X026225Y029172D01*
X026281Y029116D01*
X026395Y029116D01*
X026452Y029172D01*
X026338Y029286D02*
X026281Y029286D01*
X026225Y029399D02*
X026281Y029456D01*
X026395Y029456D01*
X026452Y029399D01*
X026395Y030116D02*
X026281Y030116D01*
X026225Y030172D01*
X026395Y030116D02*
X026452Y030172D01*
X026452Y030399D01*
X026395Y030456D01*
X026281Y030456D01*
X026225Y030399D01*
X026083Y030456D02*
X025856Y030456D01*
X025970Y030456D02*
X025970Y030116D01*
X025715Y030172D02*
X025658Y030116D01*
X025545Y030116D01*
X025488Y030172D01*
X025488Y030229D01*
X025545Y030286D01*
X025658Y030286D01*
X025715Y030342D01*
X025715Y030399D01*
X025658Y030456D01*
X025545Y030456D01*
X025488Y030399D01*
X025545Y031116D02*
X025488Y031172D01*
X025488Y031399D01*
X025545Y031456D01*
X025715Y031456D01*
X025715Y031116D01*
X025545Y031116D01*
X025856Y031116D02*
X025856Y031456D01*
X026083Y031456D02*
X025856Y031116D01*
X026083Y031116D02*
X026083Y031456D01*
X026225Y031399D02*
X026281Y031456D01*
X026395Y031456D01*
X026452Y031399D01*
X026452Y031172D01*
X026395Y031116D01*
X026281Y031116D01*
X026225Y031172D01*
X026225Y031286D01*
X026338Y031286D01*
X026618Y022440D02*
X026732Y022440D01*
X026675Y022440D02*
X026675Y022156D01*
X026732Y022100D01*
X026789Y022100D01*
X026845Y022156D01*
X026477Y022327D02*
X026364Y022327D01*
X026420Y022383D02*
X026420Y022156D01*
X026364Y022100D01*
X026231Y022156D02*
X026175Y022100D01*
X026005Y022100D01*
X026005Y022270D01*
X026061Y022327D01*
X026175Y022327D01*
X026175Y022213D02*
X026005Y022213D01*
X025863Y022156D02*
X025806Y022100D01*
X025636Y022100D01*
X025636Y022043D02*
X025636Y022327D01*
X025806Y022327D01*
X025863Y022270D01*
X025863Y022156D01*
X025750Y021986D02*
X025693Y021986D01*
X025636Y022043D01*
X026175Y022213D02*
X026231Y022156D01*
X019714Y031588D02*
X019714Y032315D01*
X019351Y032315D01*
X019351Y031588D01*
X019714Y031588D01*
X018968Y031767D02*
X018968Y032767D01*
X018966Y032784D01*
X018962Y032801D01*
X018955Y032817D01*
X018945Y032831D01*
X018932Y032844D01*
X018918Y032854D01*
X018902Y032861D01*
X018885Y032865D01*
X018868Y032867D01*
X018268Y032867D01*
X018251Y032865D01*
X018234Y032861D01*
X018218Y032854D01*
X018204Y032844D01*
X018191Y032831D01*
X018181Y032817D01*
X018174Y032801D01*
X018170Y032784D01*
X018168Y032767D01*
X018168Y031767D01*
X018170Y031750D01*
X018174Y031733D01*
X018181Y031717D01*
X018191Y031703D01*
X018204Y031690D01*
X018218Y031680D01*
X018234Y031673D01*
X018251Y031669D01*
X018268Y031667D01*
X018868Y031667D01*
X018885Y031669D01*
X018902Y031673D01*
X018918Y031680D01*
X018932Y031690D01*
X018945Y031703D01*
X018955Y031717D01*
X018962Y031733D01*
X018966Y031750D01*
X018968Y031767D01*
X018048Y032986D02*
X018105Y033042D01*
X018048Y032986D02*
X017935Y032986D01*
X017878Y033042D01*
X017878Y033099D01*
X017935Y033156D01*
X018048Y033156D01*
X018105Y033212D01*
X018105Y033269D01*
X018048Y033326D01*
X017935Y033326D01*
X017878Y033269D01*
X017623Y033326D02*
X017510Y033326D01*
X017567Y033326D02*
X017567Y033042D01*
X017623Y032986D01*
X017680Y032986D01*
X017737Y033042D01*
X017730Y032709D02*
X017673Y032652D01*
X017673Y032539D01*
X017730Y032482D01*
X017843Y032595D02*
X017843Y032652D01*
X017786Y032709D01*
X017730Y032709D01*
X017843Y032652D02*
X017900Y032709D01*
X017957Y032709D01*
X018013Y032652D01*
X018013Y032539D01*
X017957Y032482D01*
X018013Y032341D02*
X018013Y032227D01*
X018013Y032284D02*
X017730Y032284D01*
X017673Y032227D01*
X017673Y032170D01*
X017730Y032114D01*
X017730Y031972D02*
X017673Y031916D01*
X017673Y031802D01*
X017730Y031745D01*
X017843Y031802D02*
X017843Y031916D01*
X017786Y031972D01*
X017730Y031972D01*
X017843Y031802D02*
X017900Y031745D01*
X017957Y031745D01*
X018013Y031802D01*
X018013Y031916D01*
X017957Y031972D01*
X017312Y032986D02*
X017198Y032986D01*
X017142Y033042D01*
X017142Y033099D01*
X017198Y033156D01*
X017368Y033156D01*
X017368Y033042D01*
X017312Y032986D01*
X017368Y033156D02*
X017255Y033269D01*
X017142Y033326D01*
X016291Y032340D02*
X015791Y032340D01*
X015541Y032090D01*
X015291Y032340D01*
X014791Y032340D01*
X014541Y032090D01*
X014291Y032340D01*
X013791Y032340D01*
X013541Y032090D01*
X013541Y030590D01*
X013791Y030340D01*
X014291Y030340D01*
X014541Y030590D01*
X014791Y030340D01*
X015291Y030340D01*
X015541Y030590D01*
X015791Y030340D01*
X016291Y030340D01*
X016541Y030590D01*
X016541Y032090D01*
X016291Y032340D01*
X016669Y031769D02*
X016669Y031655D01*
X016669Y031712D02*
X017009Y031712D01*
X017009Y031655D02*
X017009Y031769D01*
X016953Y031514D02*
X016839Y031514D01*
X016782Y031457D01*
X016782Y031287D01*
X016669Y031287D02*
X017009Y031287D01*
X017009Y031457D01*
X016953Y031514D01*
X016953Y031146D02*
X017009Y031089D01*
X017009Y030975D01*
X016953Y030919D01*
X016896Y030919D01*
X016839Y030975D01*
X016839Y031089D01*
X016782Y031146D01*
X016726Y031146D01*
X016669Y031089D01*
X016669Y030975D01*
X016726Y030919D01*
X016498Y034619D02*
X016157Y034619D01*
X016271Y034619D02*
X016271Y034790D01*
X016327Y034846D01*
X016441Y034846D01*
X016498Y034790D01*
X016498Y034619D01*
X016271Y034733D02*
X016157Y034846D01*
X016214Y034988D02*
X016327Y034988D01*
X016384Y035044D01*
X016384Y035158D01*
X016327Y035215D01*
X016271Y035215D01*
X016271Y034988D01*
X016214Y034988D02*
X016157Y035044D01*
X016157Y035158D01*
X016157Y035356D02*
X016157Y035526D01*
X016214Y035583D01*
X016271Y035526D01*
X016271Y035413D01*
X016327Y035356D01*
X016384Y035413D01*
X016384Y035583D01*
X016327Y035724D02*
X016384Y035781D01*
X016384Y035895D01*
X016327Y035951D01*
X016271Y035951D01*
X016271Y035724D01*
X016327Y035724D02*
X016214Y035724D01*
X016157Y035781D01*
X016157Y035895D01*
X016214Y036149D02*
X016157Y036206D01*
X016214Y036149D02*
X016441Y036149D01*
X016384Y036093D02*
X016384Y036206D01*
X017349Y037887D02*
X017349Y037944D01*
X017122Y038171D01*
X017122Y038227D01*
X017349Y038227D01*
X017490Y038227D02*
X017604Y038227D01*
X017547Y038227D02*
X017547Y037944D01*
X017604Y037887D01*
X017660Y037887D01*
X017717Y037944D01*
X017859Y037944D02*
X017915Y037887D01*
X018029Y037887D01*
X018085Y037944D01*
X018029Y038057D02*
X018085Y038114D01*
X018085Y038171D01*
X018029Y038227D01*
X017915Y038227D01*
X017859Y038171D01*
X017915Y038057D02*
X017859Y038001D01*
X017859Y037944D01*
X017915Y038057D02*
X018029Y038057D01*
X013505Y030442D02*
X013165Y030442D01*
X013165Y030555D02*
X013165Y030328D01*
X013392Y030328D02*
X013505Y030442D01*
X012541Y030590D02*
X012541Y031090D01*
X012291Y031340D01*
X010791Y031340D01*
X010541Y031590D01*
X010541Y032090D01*
X010791Y032340D01*
X012291Y032340D01*
X012541Y032590D01*
X012541Y033090D01*
X012291Y033340D01*
X010791Y033340D01*
X010541Y033590D01*
X010541Y034090D01*
X010791Y034340D01*
X012291Y034340D01*
X012541Y034590D01*
X012541Y035090D01*
X012291Y035340D01*
X010791Y035340D01*
X010541Y035590D01*
X010541Y036090D01*
X010791Y036340D01*
X012291Y036340D01*
X012541Y036590D01*
X012541Y037090D01*
X012291Y037340D01*
X010791Y037340D01*
X010541Y037090D01*
X010541Y036590D01*
X010791Y036340D01*
X010791Y035340D02*
X010541Y035090D01*
X010541Y034590D01*
X010791Y034340D01*
X010791Y033340D02*
X010541Y033090D01*
X010541Y032590D01*
X010791Y032340D01*
X010242Y032393D02*
X010242Y032563D01*
X010186Y032620D01*
X010015Y032620D01*
X010072Y032761D02*
X010015Y032818D01*
X010015Y032931D01*
X010129Y032988D02*
X010129Y032761D01*
X010186Y032761D02*
X010242Y032818D01*
X010242Y032931D01*
X010186Y032988D01*
X010129Y032988D01*
X010242Y033130D02*
X010242Y033243D01*
X010299Y033186D02*
X010072Y033186D01*
X010015Y033243D01*
X010072Y032761D02*
X010186Y032761D01*
X010242Y032393D02*
X010015Y032393D01*
X010242Y032256D02*
X010242Y032199D01*
X010129Y032086D01*
X010242Y032086D02*
X010015Y032086D01*
X010129Y031945D02*
X010129Y031718D01*
X010186Y031718D02*
X010242Y031774D01*
X010242Y031888D01*
X010186Y031945D01*
X010129Y031945D01*
X010015Y031888D02*
X010015Y031774D01*
X010072Y031718D01*
X010186Y031718D01*
X010186Y031576D02*
X010015Y031576D01*
X010186Y031576D02*
X010242Y031520D01*
X010242Y031406D01*
X010186Y031349D01*
X010242Y031217D02*
X010242Y031104D01*
X010299Y031161D02*
X010072Y031161D01*
X010015Y031217D01*
X010015Y031349D02*
X010356Y031349D01*
X010541Y031090D02*
X010541Y030590D01*
X010791Y030340D01*
X012291Y030340D01*
X012541Y030590D01*
X012291Y031340D02*
X012541Y031590D01*
X012541Y032090D01*
X012291Y032340D01*
X012291Y033340D02*
X012541Y033590D01*
X012541Y034090D01*
X012291Y034340D01*
X012291Y035340D02*
X012541Y035590D01*
X012541Y036090D01*
X012291Y036340D01*
X012291Y037340D02*
X012541Y037590D01*
X012541Y038090D01*
X012291Y038340D01*
X010791Y038340D01*
X010541Y038090D01*
X010541Y037590D01*
X010791Y037340D01*
X008632Y032725D02*
X008632Y030716D01*
X008632Y031416D02*
X008632Y029406D01*
X010015Y030736D02*
X010015Y030962D01*
X010186Y030849D02*
X010186Y030736D01*
X010356Y030736D02*
X010015Y030736D01*
X010244Y030476D02*
X010244Y030249D01*
X010244Y030363D02*
X010584Y030363D01*
X010471Y030249D01*
X010356Y030736D02*
X010356Y030962D01*
X010541Y031090D02*
X010791Y031340D01*
X006772Y031416D02*
X006772Y029406D01*
X006772Y030716D02*
X006772Y032725D01*
X003926Y019526D02*
X003869Y019526D01*
X003869Y019299D01*
X003812Y019299D02*
X003926Y019299D01*
X003982Y019356D01*
X003982Y019469D01*
X003926Y019526D01*
X003756Y019469D02*
X003756Y019356D01*
X003812Y019299D01*
X003812Y019158D02*
X003869Y019101D01*
X003869Y018987D01*
X003926Y018931D01*
X003982Y018987D01*
X003982Y019158D01*
X003812Y019158D02*
X003756Y019101D01*
X003756Y018931D01*
X003756Y018789D02*
X003756Y018619D01*
X003812Y018562D01*
X003869Y018619D01*
X003869Y018789D01*
X003926Y018789D02*
X003756Y018789D01*
X003926Y018789D02*
X003982Y018733D01*
X003982Y018619D01*
X003982Y018426D02*
X003982Y018369D01*
X003869Y018255D01*
X003756Y018255D02*
X003982Y018255D01*
X004096Y018114D02*
X004096Y017887D01*
X003756Y017887D01*
X003756Y018114D01*
X003926Y018001D02*
X003926Y017887D01*
X009664Y017948D02*
X009664Y018948D01*
X009666Y018965D01*
X009670Y018982D01*
X009677Y018998D01*
X009687Y019012D01*
X009700Y019025D01*
X009714Y019035D01*
X009730Y019042D01*
X009747Y019046D01*
X009764Y019048D01*
X010364Y019048D01*
X010381Y019046D01*
X010398Y019042D01*
X010414Y019035D01*
X010428Y019025D01*
X010441Y019012D01*
X010451Y018998D01*
X010458Y018982D01*
X010462Y018965D01*
X010464Y018948D01*
X010464Y017948D01*
X010462Y017931D01*
X010458Y017914D01*
X010451Y017898D01*
X010441Y017884D01*
X010428Y017871D01*
X010414Y017861D01*
X010398Y017854D01*
X010381Y017850D01*
X010364Y017848D01*
X009764Y017848D01*
X009747Y017850D01*
X009730Y017854D01*
X009714Y017861D01*
X009700Y017871D01*
X009687Y017884D01*
X009677Y017898D01*
X009670Y017914D01*
X009666Y017931D01*
X009664Y017948D01*
X007614Y008477D02*
X007614Y008250D01*
X007614Y008363D02*
X007954Y008363D01*
X007841Y008250D01*
X007954Y008108D02*
X007954Y007995D01*
X007954Y008052D02*
X007671Y008052D01*
X007614Y007995D01*
X007614Y007938D01*
X007671Y007881D01*
X007671Y007740D02*
X007614Y007683D01*
X007614Y007570D01*
X007671Y007513D01*
X007784Y007570D02*
X007784Y007683D01*
X007727Y007740D01*
X007671Y007740D01*
X007784Y007570D02*
X007841Y007513D01*
X007897Y007513D01*
X007954Y007570D01*
X007954Y007683D01*
X007897Y007740D01*
X006923Y006857D02*
X006923Y006495D01*
X006197Y006495D01*
X006197Y006857D01*
X006923Y006857D01*
X005749Y007530D02*
X005693Y007474D01*
X005636Y007474D01*
X005579Y007530D01*
X005579Y007644D01*
X005523Y007701D01*
X005466Y007701D01*
X005409Y007644D01*
X005409Y007530D01*
X005466Y007474D01*
X005749Y007530D02*
X005749Y007644D01*
X005693Y007701D01*
X005749Y007956D02*
X005749Y008069D01*
X005749Y008012D02*
X005466Y008012D01*
X005409Y007956D01*
X005409Y007899D01*
X005466Y007842D01*
X005409Y008210D02*
X005636Y008437D01*
X005693Y008437D01*
X005749Y008381D01*
X005749Y008267D01*
X005693Y008210D01*
X005409Y008210D02*
X005409Y008437D01*
X009332Y005996D02*
X009332Y005579D01*
X009332Y005996D02*
X009849Y005996D01*
X009852Y005549D02*
X009852Y005211D01*
X009849Y004758D02*
X009332Y004758D01*
X009332Y005155D01*
X010279Y005592D02*
X010279Y006222D01*
X010279Y005592D02*
X011739Y005592D01*
X011739Y008232D01*
X010279Y008232D01*
X010279Y007602D01*
X011812Y003693D02*
X011812Y002966D01*
X012175Y002966D01*
X012175Y003693D01*
X011812Y003693D01*
X016394Y010826D02*
X017120Y010826D01*
X017120Y011188D01*
X016394Y011188D01*
X016394Y010826D01*
X017599Y011077D02*
X017962Y011077D01*
X017962Y011803D01*
X017599Y011803D01*
X017599Y011077D01*
X018784Y011075D02*
X019301Y011075D01*
X019301Y010677D01*
X019301Y010253D02*
X019301Y009837D01*
X018784Y009837D01*
X018781Y010284D02*
X018781Y010622D01*
X021418Y008496D02*
X021418Y007770D01*
X021781Y007770D01*
X021781Y008496D01*
X021418Y008496D01*
X022536Y006739D02*
X022536Y006377D01*
X023262Y006377D01*
X023262Y006739D01*
X022536Y006739D01*
X022678Y007258D02*
X023041Y007258D01*
X023041Y007984D01*
X022678Y007984D01*
X022678Y007258D01*
X024307Y006188D02*
X024307Y005826D01*
X025034Y005826D01*
X025034Y006188D01*
X024307Y006188D01*
X025040Y005307D02*
X025040Y004581D01*
X025403Y004581D01*
X025403Y005307D01*
X025040Y005307D01*
X024128Y003629D02*
X023402Y003629D01*
X023402Y003266D01*
X024128Y003266D01*
X024128Y003629D01*
X025190Y002479D02*
X025190Y002139D01*
X025134Y002309D02*
X025361Y002309D01*
X025190Y002479D01*
X025502Y002479D02*
X025615Y002479D01*
X025559Y002479D02*
X025559Y002196D01*
X025615Y002139D01*
X025672Y002139D01*
X025729Y002196D01*
X025870Y002196D02*
X025927Y002139D01*
X026040Y002139D01*
X026097Y002196D01*
X026040Y002309D02*
X025927Y002309D01*
X025870Y002253D01*
X025870Y002196D01*
X026040Y002309D02*
X026097Y002366D01*
X026097Y002423D01*
X026040Y002479D01*
X025927Y002479D01*
X025870Y002423D01*
X018304Y016116D02*
X018361Y016172D01*
X018304Y016116D02*
X018191Y016116D01*
X018134Y016172D01*
X018134Y016229D01*
X018191Y016286D01*
X018304Y016286D01*
X018361Y016342D01*
X018361Y016399D01*
X018304Y016456D01*
X018191Y016456D01*
X018134Y016399D01*
X017879Y016456D02*
X017766Y016456D01*
X017823Y016456D02*
X017823Y016172D01*
X017879Y016116D01*
X017936Y016116D01*
X017993Y016172D01*
X017624Y016172D02*
X017568Y016116D01*
X017454Y016116D01*
X017398Y016172D01*
X017398Y016286D01*
X017454Y016342D01*
X017511Y016342D01*
X017624Y016286D01*
X017624Y016456D01*
X017398Y016456D01*
X017359Y016630D02*
X018359Y016630D01*
X018376Y016632D01*
X018393Y016636D01*
X018409Y016643D01*
X018423Y016653D01*
X018436Y016666D01*
X018446Y016680D01*
X018453Y016696D01*
X018457Y016713D01*
X018459Y016730D01*
X018459Y017330D01*
X018457Y017347D01*
X018453Y017364D01*
X018446Y017380D01*
X018436Y017394D01*
X018423Y017407D01*
X018409Y017417D01*
X018393Y017424D01*
X018376Y017428D01*
X018359Y017430D01*
X017359Y017430D01*
X017342Y017428D01*
X017325Y017424D01*
X017309Y017417D01*
X017295Y017407D01*
X017282Y017394D01*
X017272Y017380D01*
X017265Y017364D01*
X017261Y017347D01*
X017259Y017330D01*
X017259Y016730D01*
X017261Y016713D01*
X017265Y016696D01*
X017272Y016680D01*
X017282Y016666D01*
X017295Y016653D01*
X017309Y016643D01*
X017325Y016636D01*
X017342Y016632D01*
X017359Y016630D01*
D12*
X017424Y015715D02*
X017491Y015715D01*
X017525Y015682D01*
X017525Y015548D01*
X017491Y015515D01*
X017424Y015515D01*
X017391Y015548D01*
X017304Y015515D02*
X017170Y015648D01*
X017170Y015682D01*
X017203Y015715D01*
X017270Y015715D01*
X017304Y015682D01*
X017391Y015682D02*
X017424Y015715D01*
X017304Y015515D02*
X017170Y015515D01*
X017083Y015548D02*
X017083Y015582D01*
X017049Y015615D01*
X016982Y015615D01*
X016949Y015582D01*
X016949Y015548D01*
X016982Y015515D01*
X017049Y015515D01*
X017083Y015548D01*
X017049Y015615D02*
X017083Y015648D01*
X017083Y015682D01*
X017049Y015715D01*
X016982Y015715D01*
X016949Y015682D01*
X016949Y015648D01*
X016982Y015615D01*
X016387Y015666D02*
X016353Y015633D01*
X016220Y015633D01*
X016187Y015666D01*
X016187Y015733D01*
X016220Y015767D01*
X016220Y015854D02*
X016187Y015887D01*
X016187Y015954D01*
X016220Y015987D01*
X016253Y015987D01*
X016287Y015954D01*
X016287Y015921D01*
X016287Y015954D02*
X016320Y015987D01*
X016353Y015987D01*
X016387Y015954D01*
X016387Y015887D01*
X016353Y015854D01*
X016353Y015767D02*
X016387Y015733D01*
X016387Y015666D01*
X016320Y016075D02*
X016387Y016142D01*
X016187Y016142D01*
X016187Y016208D02*
X016187Y016075D01*
X015871Y016069D02*
X015871Y015869D01*
X015871Y015936D02*
X015771Y015936D01*
X015738Y015969D01*
X015738Y016036D01*
X015771Y016069D01*
X015871Y016069D01*
X015804Y015936D02*
X015738Y015869D01*
X015650Y015903D02*
X015617Y015869D01*
X015550Y015869D01*
X015517Y015903D01*
X015517Y015936D01*
X015550Y015969D01*
X015583Y015969D01*
X015550Y015969D02*
X015517Y016003D01*
X015517Y016036D01*
X015550Y016069D01*
X015617Y016069D01*
X015650Y016036D01*
X015429Y016036D02*
X015396Y016069D01*
X015329Y016069D01*
X015296Y016036D01*
X015296Y016003D01*
X015329Y015969D01*
X015296Y015936D01*
X015296Y015903D01*
X015329Y015869D01*
X015396Y015869D01*
X015429Y015903D01*
X015362Y015969D02*
X015329Y015969D01*
X015123Y015936D02*
X015023Y015936D01*
X014990Y015969D01*
X014990Y016036D01*
X015023Y016069D01*
X015123Y016069D01*
X015123Y015869D01*
X015056Y015936D02*
X014990Y015869D01*
X014902Y015903D02*
X014869Y015869D01*
X014802Y015869D01*
X014769Y015903D01*
X014769Y015936D01*
X014802Y015969D01*
X014835Y015969D01*
X014802Y015969D02*
X014769Y016003D01*
X014769Y016036D01*
X014802Y016069D01*
X014869Y016069D01*
X014902Y016036D01*
X014681Y015969D02*
X014548Y015969D01*
X014581Y015869D02*
X014581Y016069D01*
X014681Y015969D01*
X014336Y015903D02*
X014302Y015869D01*
X014235Y015869D01*
X014202Y015903D01*
X014115Y015903D02*
X014081Y015869D01*
X014014Y015869D01*
X013981Y015903D01*
X013981Y015969D01*
X014014Y016003D01*
X014048Y016003D01*
X014115Y015969D01*
X014115Y016069D01*
X013981Y016069D01*
X014202Y016036D02*
X014235Y016069D01*
X014302Y016069D01*
X014336Y016036D01*
X014336Y015903D01*
X014675Y016814D02*
X014742Y016814D01*
X014775Y016848D01*
X014862Y016814D02*
X014996Y016814D01*
X014862Y016948D01*
X014862Y016981D01*
X014896Y017014D01*
X014963Y017014D01*
X014996Y016981D01*
X015150Y017014D02*
X015150Y016814D01*
X015217Y016814D02*
X015083Y016814D01*
X015217Y016948D02*
X015150Y017014D01*
X015304Y016981D02*
X015338Y017014D01*
X015405Y017014D01*
X015438Y016981D01*
X015438Y016848D01*
X015405Y016814D01*
X015338Y016814D01*
X015304Y016848D01*
X015547Y016914D02*
X015680Y016914D01*
X015580Y017014D01*
X015580Y016814D01*
X015768Y016814D02*
X015901Y016814D01*
X015768Y016948D01*
X015768Y016981D01*
X015801Y017014D01*
X015868Y017014D01*
X015901Y016981D01*
X016056Y017014D02*
X016056Y016814D01*
X016122Y016814D02*
X015989Y016814D01*
X016122Y016948D02*
X016056Y017014D01*
X016210Y016981D02*
X016243Y017014D01*
X016310Y017014D01*
X016343Y016981D01*
X016343Y016848D01*
X016310Y016814D01*
X016243Y016814D01*
X016210Y016848D01*
X017195Y018743D02*
X017161Y018777D01*
X017161Y018810D01*
X017195Y018843D01*
X017295Y018843D01*
X017295Y018777D01*
X017261Y018743D01*
X017195Y018743D01*
X017295Y018843D02*
X017228Y018910D01*
X017161Y018943D01*
X017382Y018910D02*
X017382Y018777D01*
X017416Y018743D01*
X017482Y018743D01*
X017516Y018777D01*
X017382Y018910D01*
X017416Y018943D01*
X017482Y018943D01*
X017516Y018910D01*
X017516Y018777D01*
X017603Y018743D02*
X017737Y018743D01*
X017670Y018743D02*
X017670Y018943D01*
X017737Y018877D01*
X017824Y018910D02*
X017824Y018843D01*
X017858Y018810D01*
X017958Y018810D01*
X017958Y018743D02*
X017958Y018943D01*
X017858Y018943D01*
X017824Y018910D01*
X017891Y018810D02*
X017824Y018743D01*
X017903Y019924D02*
X017970Y019924D01*
X018003Y019958D01*
X018003Y020024D02*
X017937Y020058D01*
X017903Y020058D01*
X017870Y020024D01*
X017870Y019958D01*
X017903Y019924D01*
X018003Y020024D02*
X018003Y020125D01*
X017870Y020125D01*
X018091Y020091D02*
X018224Y019958D01*
X018191Y019924D01*
X018124Y019924D01*
X018091Y019958D01*
X018091Y020091D01*
X018124Y020125D01*
X018191Y020125D01*
X018224Y020091D01*
X018224Y019958D01*
X018312Y019924D02*
X018445Y019924D01*
X018379Y019924D02*
X018379Y020125D01*
X018445Y020058D01*
X018533Y020091D02*
X018533Y020024D01*
X018566Y019991D01*
X018666Y019991D01*
X018600Y019991D02*
X018533Y019924D01*
X018666Y019924D02*
X018666Y020125D01*
X018566Y020125D01*
X018533Y020091D01*
X020005Y019782D02*
X020005Y019715D01*
X020039Y019682D01*
X020106Y019682D02*
X020139Y019749D01*
X020139Y019782D01*
X020106Y019815D01*
X020039Y019815D01*
X020005Y019782D01*
X020106Y019682D02*
X020206Y019682D01*
X020206Y019815D01*
X020172Y019594D02*
X020206Y019561D01*
X020206Y019494D01*
X020172Y019461D01*
X020172Y019594D02*
X020139Y019594D01*
X020005Y019461D01*
X020005Y019594D01*
X020005Y019373D02*
X020005Y019240D01*
X020005Y019307D02*
X020206Y019307D01*
X020139Y019240D01*
X020172Y019152D02*
X020206Y019119D01*
X020206Y019052D01*
X020172Y019019D01*
X020039Y019019D01*
X020005Y019052D01*
X020005Y019119D01*
X020039Y019152D01*
X020626Y020082D02*
X020759Y020082D01*
X020626Y020215D01*
X020626Y020249D01*
X020659Y020282D01*
X020726Y020282D01*
X020759Y020249D01*
X020847Y020249D02*
X020880Y020282D01*
X020947Y020282D01*
X020980Y020249D01*
X020847Y020249D02*
X020847Y020215D01*
X020980Y020082D01*
X020847Y020082D01*
X021068Y020082D02*
X021201Y020082D01*
X021134Y020082D02*
X021134Y020282D01*
X021201Y020215D01*
X021289Y020249D02*
X021322Y020282D01*
X021389Y020282D01*
X021422Y020249D01*
X021422Y020115D01*
X021389Y020082D01*
X021322Y020082D01*
X021289Y020115D01*
X021590Y019815D02*
X021456Y019682D01*
X021423Y019682D01*
X021456Y019594D02*
X021423Y019561D01*
X021423Y019494D01*
X021456Y019461D01*
X021590Y019594D01*
X021456Y019594D01*
X021456Y019461D02*
X021590Y019461D01*
X021623Y019494D01*
X021623Y019561D01*
X021590Y019594D01*
X021623Y019682D02*
X021623Y019815D01*
X021590Y019815D01*
X021423Y019373D02*
X021423Y019240D01*
X021423Y019307D02*
X021623Y019307D01*
X021556Y019240D01*
X021523Y019152D02*
X021590Y019152D01*
X021623Y019119D01*
X021623Y019019D01*
X021423Y019019D01*
X021490Y019019D02*
X021490Y019119D01*
X021523Y019152D01*
X021490Y019086D02*
X021423Y019152D01*
X021580Y018359D02*
X021580Y018225D01*
X021714Y018359D01*
X021747Y018359D01*
X021780Y018325D01*
X021780Y018259D01*
X021747Y018225D01*
X021747Y018138D02*
X021614Y018004D01*
X021580Y018038D01*
X021580Y018104D01*
X021614Y018138D01*
X021747Y018138D01*
X021780Y018104D01*
X021780Y018038D01*
X021747Y018004D01*
X021614Y018004D01*
X021580Y017917D02*
X021580Y017783D01*
X021580Y017850D02*
X021780Y017850D01*
X021714Y017783D01*
X021747Y017696D02*
X021780Y017662D01*
X021780Y017596D01*
X021747Y017562D01*
X021614Y017562D01*
X021580Y017596D01*
X021580Y017662D01*
X021614Y017696D01*
X021683Y015597D02*
X021749Y015597D01*
X021783Y015564D01*
X021870Y015564D02*
X022004Y015430D01*
X021970Y015397D01*
X021904Y015397D01*
X021870Y015430D01*
X021870Y015564D01*
X021904Y015597D01*
X021970Y015597D01*
X022004Y015564D01*
X022004Y015430D01*
X022091Y015397D02*
X022225Y015397D01*
X022158Y015397D02*
X022158Y015597D01*
X022225Y015530D01*
X022312Y015497D02*
X022346Y015464D01*
X022446Y015464D01*
X022379Y015464D02*
X022312Y015397D01*
X022312Y015497D02*
X022312Y015564D01*
X022346Y015597D01*
X022446Y015597D01*
X022446Y015397D01*
X021783Y015397D02*
X021649Y015530D01*
X021649Y015564D01*
X021683Y015597D01*
X021649Y015397D02*
X021783Y015397D01*
X021113Y012447D02*
X021147Y012414D01*
X021147Y012281D01*
X021113Y012247D01*
X021046Y012247D01*
X021013Y012281D01*
X020926Y012247D02*
X020792Y012247D01*
X020859Y012247D02*
X020859Y012447D01*
X020926Y012381D01*
X021013Y012414D02*
X021046Y012447D01*
X021113Y012447D01*
X021113Y012132D02*
X021147Y012099D01*
X021147Y011966D01*
X021113Y011932D01*
X021046Y011932D01*
X021013Y011966D01*
X020926Y011932D02*
X020792Y011932D01*
X020859Y011932D02*
X020859Y012132D01*
X020926Y012066D01*
X021013Y012099D02*
X021046Y012132D01*
X021113Y012132D01*
X021113Y011817D02*
X021147Y011784D01*
X021147Y011651D01*
X021113Y011617D01*
X021046Y011617D01*
X021013Y011651D01*
X020926Y011617D02*
X020792Y011617D01*
X020859Y011617D02*
X020859Y011817D01*
X020926Y011751D01*
X021013Y011784D02*
X021046Y011817D01*
X021113Y011817D01*
X020705Y011784D02*
X020671Y011817D01*
X020605Y011817D01*
X020571Y011784D01*
X020571Y011751D01*
X020705Y011617D01*
X020571Y011617D01*
X020484Y011651D02*
X020450Y011617D01*
X020384Y011617D01*
X020350Y011651D01*
X020350Y011684D01*
X020384Y011717D01*
X020484Y011717D01*
X020484Y011651D01*
X020484Y011717D02*
X020417Y011784D01*
X020350Y011817D01*
X020484Y011932D02*
X020484Y011966D01*
X020350Y012099D01*
X020350Y012132D01*
X020484Y012132D01*
X020571Y012099D02*
X020605Y012132D01*
X020671Y012132D01*
X020705Y012099D01*
X020571Y012099D02*
X020571Y012066D01*
X020705Y011932D01*
X020571Y011932D01*
X020605Y012247D02*
X020671Y012247D01*
X020705Y012281D01*
X020638Y012347D02*
X020605Y012347D01*
X020571Y012314D01*
X020571Y012281D01*
X020605Y012247D01*
X020605Y012347D02*
X020571Y012381D01*
X020571Y012414D01*
X020605Y012447D01*
X020671Y012447D01*
X020705Y012414D01*
X020484Y012447D02*
X020484Y012347D01*
X020417Y012381D01*
X020384Y012381D01*
X020350Y012347D01*
X020350Y012281D01*
X020384Y012247D01*
X020450Y012247D01*
X020484Y012281D01*
X020484Y012447D02*
X020350Y012447D01*
X020386Y010164D02*
X020386Y009964D01*
X020320Y009964D02*
X020453Y009964D01*
X020541Y009964D02*
X020607Y010030D01*
X020574Y010030D02*
X020674Y010030D01*
X020674Y009964D02*
X020674Y010164D01*
X020574Y010164D01*
X020541Y010131D01*
X020541Y010064D01*
X020574Y010030D01*
X020453Y010097D02*
X020386Y010164D01*
X020232Y010131D02*
X020199Y010164D01*
X020132Y010164D01*
X020099Y010131D01*
X020099Y010097D01*
X020132Y010064D01*
X020099Y010030D01*
X020099Y009997D01*
X020132Y009964D01*
X020199Y009964D01*
X020232Y009997D01*
X020165Y010064D02*
X020132Y010064D01*
X019926Y010030D02*
X019826Y010030D01*
X019793Y010064D01*
X019793Y010131D01*
X019826Y010164D01*
X019926Y010164D01*
X019926Y009964D01*
X019859Y010030D02*
X019793Y009964D01*
X019705Y009964D02*
X019572Y010097D01*
X019572Y010131D01*
X019605Y010164D01*
X019672Y010164D01*
X019705Y010131D01*
X019705Y009964D02*
X019572Y009964D01*
X019875Y009810D02*
X019875Y009609D01*
X019941Y009609D02*
X019808Y009609D01*
X019941Y009743D02*
X019875Y009810D01*
X020029Y009776D02*
X020062Y009810D01*
X020129Y009810D01*
X020162Y009776D01*
X020162Y009643D01*
X020129Y009609D01*
X020062Y009609D01*
X020029Y009643D01*
X019420Y008904D02*
X019454Y008871D01*
X019454Y008737D01*
X019420Y008704D01*
X019354Y008704D01*
X019320Y008737D01*
X019233Y008704D02*
X019099Y008837D01*
X019099Y008871D01*
X019133Y008904D01*
X019199Y008904D01*
X019233Y008871D01*
X019320Y008871D02*
X019354Y008904D01*
X019420Y008904D01*
X019233Y008704D02*
X019099Y008704D01*
X019012Y008737D02*
X018878Y008871D01*
X018878Y008737D01*
X018912Y008704D01*
X018978Y008704D01*
X019012Y008737D01*
X019012Y008871D01*
X018978Y008904D01*
X018912Y008904D01*
X018878Y008871D01*
X018936Y008059D02*
X019070Y008059D01*
X019103Y008026D01*
X019103Y007959D01*
X019070Y007925D01*
X019037Y007925D01*
X019003Y007959D01*
X019003Y008059D01*
X018936Y008059D02*
X018903Y008026D01*
X018903Y007959D01*
X018936Y007925D01*
X018903Y007838D02*
X018903Y007704D01*
X018903Y007771D02*
X019103Y007771D01*
X019037Y007704D01*
X019070Y007617D02*
X019103Y007584D01*
X019103Y007517D01*
X019070Y007483D01*
X018936Y007483D01*
X018903Y007517D01*
X018903Y007584D01*
X018936Y007617D01*
X018936Y006523D02*
X018903Y006490D01*
X018903Y006423D01*
X018936Y006390D01*
X018970Y006390D01*
X019003Y006423D01*
X019003Y006490D01*
X018970Y006523D01*
X018936Y006523D01*
X019003Y006490D02*
X019037Y006523D01*
X019070Y006523D01*
X019103Y006490D01*
X019103Y006423D01*
X019070Y006390D01*
X019037Y006390D01*
X019003Y006423D01*
X018903Y006302D02*
X018903Y006169D01*
X018903Y006236D02*
X019103Y006236D01*
X019037Y006169D01*
X019070Y006081D02*
X019103Y006048D01*
X019103Y005981D01*
X019070Y005948D01*
X018936Y005948D01*
X018903Y005981D01*
X018903Y006048D01*
X018936Y006081D01*
X019966Y005757D02*
X019966Y005691D01*
X019999Y005657D01*
X020066Y005691D02*
X020066Y005791D01*
X019999Y005791D02*
X020133Y005791D01*
X020166Y005757D01*
X020166Y005691D01*
X020133Y005657D01*
X020100Y005657D01*
X020066Y005691D01*
X019966Y005757D02*
X019999Y005791D01*
X019966Y005570D02*
X020033Y005503D01*
X020033Y005536D02*
X020033Y005436D01*
X019966Y005436D02*
X020166Y005436D01*
X020166Y005536D01*
X020133Y005570D01*
X020066Y005570D01*
X020033Y005536D01*
X020911Y005509D02*
X020911Y005576D01*
X020944Y005609D01*
X020911Y005697D02*
X021044Y005830D01*
X021078Y005830D01*
X021111Y005797D01*
X021111Y005730D01*
X021078Y005697D01*
X021078Y005609D02*
X021111Y005576D01*
X021111Y005509D01*
X021078Y005476D01*
X020944Y005476D01*
X020911Y005509D01*
X020911Y005697D02*
X020911Y005830D01*
X020911Y005918D02*
X021044Y006051D01*
X021078Y006051D01*
X021111Y006018D01*
X021111Y005951D01*
X021078Y005918D01*
X020911Y005918D02*
X020911Y006051D01*
X020566Y006578D02*
X020433Y006578D01*
X020399Y006611D01*
X020399Y006678D01*
X020433Y006711D01*
X020399Y006799D02*
X020533Y006932D01*
X020566Y006932D01*
X020599Y006899D01*
X020599Y006832D01*
X020566Y006799D01*
X020566Y006711D02*
X020599Y006678D01*
X020599Y006611D01*
X020566Y006578D01*
X020399Y006799D02*
X020399Y006932D01*
X020399Y007020D02*
X020399Y007153D01*
X020399Y007087D02*
X020599Y007087D01*
X020533Y007020D01*
X021659Y006018D02*
X021659Y005951D01*
X021692Y005918D01*
X021659Y005830D02*
X021659Y005697D01*
X021792Y005830D01*
X021826Y005830D01*
X021859Y005797D01*
X021859Y005730D01*
X021826Y005697D01*
X021826Y005609D02*
X021859Y005576D01*
X021859Y005509D01*
X021826Y005476D01*
X021692Y005476D01*
X021659Y005509D01*
X021659Y005576D01*
X021692Y005609D01*
X021826Y005918D02*
X021859Y005951D01*
X021859Y006018D01*
X021826Y006051D01*
X021792Y006051D01*
X021759Y006018D01*
X021726Y006051D01*
X021692Y006051D01*
X021659Y006018D01*
X021759Y006018D02*
X021759Y005984D01*
X022455Y005243D02*
X022555Y005143D01*
X022422Y005143D01*
X022455Y005043D02*
X022455Y005243D01*
X022643Y005209D02*
X022676Y005243D01*
X022743Y005243D01*
X022776Y005209D01*
X022864Y005209D02*
X022897Y005243D01*
X022964Y005243D01*
X022997Y005209D01*
X022997Y005076D01*
X022964Y005043D01*
X022897Y005043D01*
X022864Y005076D01*
X022776Y005043D02*
X022643Y005176D01*
X022643Y005209D01*
X022643Y005043D02*
X022776Y005043D01*
X022485Y004747D02*
X021974Y004747D01*
X022485Y004747D02*
X022511Y004745D01*
X022536Y004740D01*
X022560Y004732D01*
X022584Y004721D01*
X022605Y004706D01*
X022624Y004689D01*
X022641Y004670D01*
X022656Y004648D01*
X022667Y004625D01*
X022675Y004601D01*
X022680Y004576D01*
X022682Y004550D01*
X022682Y004408D01*
X023209Y004019D02*
X023342Y004019D01*
X023276Y004019D02*
X023276Y004219D01*
X023342Y004152D01*
X023430Y004019D02*
X023563Y004019D01*
X023497Y004019D02*
X023497Y004219D01*
X023563Y004152D01*
X023651Y004119D02*
X023684Y004086D01*
X023784Y004086D01*
X023718Y004086D02*
X023651Y004019D01*
X023651Y004119D02*
X023651Y004186D01*
X023684Y004219D01*
X023784Y004219D01*
X023784Y004019D01*
X023976Y004334D02*
X023942Y004367D01*
X023942Y004434D01*
X023976Y004467D01*
X023942Y004555D02*
X024076Y004688D01*
X024109Y004688D01*
X024143Y004655D01*
X024143Y004588D01*
X024109Y004555D01*
X024109Y004467D02*
X024143Y004434D01*
X024143Y004367D01*
X024109Y004334D01*
X023976Y004334D01*
X023942Y004555D02*
X023942Y004688D01*
X023976Y004776D02*
X023942Y004809D01*
X023942Y004876D01*
X023976Y004909D01*
X024043Y004909D01*
X024076Y004876D01*
X024076Y004843D01*
X024043Y004776D01*
X024143Y004776D01*
X024143Y004909D01*
X024409Y004594D02*
X024376Y004561D01*
X024376Y004494D01*
X024409Y004461D01*
X024542Y004594D01*
X024409Y004594D01*
X024409Y004461D02*
X024542Y004461D01*
X024576Y004494D01*
X024576Y004561D01*
X024542Y004594D01*
X024376Y004373D02*
X024376Y004240D01*
X024376Y004307D02*
X024576Y004307D01*
X024509Y004240D01*
X024476Y004152D02*
X024442Y004119D01*
X024442Y004019D01*
X024376Y004019D02*
X024576Y004019D01*
X024576Y004119D01*
X024542Y004152D01*
X024476Y004152D01*
X024442Y004086D02*
X024376Y004152D01*
X022919Y003133D02*
X022919Y002818D01*
X022918Y002818D02*
X022917Y002808D01*
X022913Y002798D01*
X022907Y002790D01*
X022898Y002784D01*
X022889Y002780D01*
X022879Y002779D01*
X022879Y002778D02*
X012919Y002778D01*
X012919Y002779D02*
X012909Y002780D01*
X012900Y002784D01*
X012891Y002790D01*
X012885Y002798D01*
X012881Y002808D01*
X012880Y002818D01*
X012879Y002818D02*
X012879Y003133D01*
X012880Y003133D02*
X012881Y003143D01*
X012885Y003152D01*
X012891Y003161D01*
X012900Y003167D01*
X012909Y003171D01*
X012919Y003172D01*
X013115Y003172D01*
X013824Y003172D01*
X013982Y003330D01*
X021816Y003330D01*
X021974Y003172D01*
X022682Y003172D01*
X022682Y003231D01*
X022682Y003172D02*
X022879Y003172D01*
X022889Y003171D01*
X022899Y003167D01*
X022907Y003161D01*
X022913Y003152D01*
X022917Y003143D01*
X022918Y003133D01*
X023621Y002329D02*
X023721Y002229D01*
X023587Y002229D01*
X023621Y002129D02*
X023621Y002329D01*
X023808Y002296D02*
X023808Y002229D01*
X023842Y002196D01*
X023942Y002196D01*
X023875Y002196D02*
X023808Y002129D01*
X023942Y002129D02*
X023942Y002329D01*
X023842Y002329D01*
X023808Y002296D01*
X025163Y006184D02*
X025363Y006184D01*
X025363Y006284D01*
X025330Y006318D01*
X025263Y006318D01*
X025230Y006284D01*
X025230Y006184D01*
X025230Y006251D02*
X025163Y006318D01*
X025163Y006405D02*
X025163Y006539D01*
X025163Y006472D02*
X025363Y006472D01*
X025296Y006405D01*
X025330Y006626D02*
X025363Y006660D01*
X025363Y006726D01*
X025330Y006760D01*
X025296Y006760D01*
X025163Y006626D01*
X025163Y006760D01*
X024064Y007596D02*
X024031Y007562D01*
X023897Y007562D01*
X023864Y007596D01*
X023864Y007662D01*
X023897Y007696D01*
X023864Y007783D02*
X023997Y007917D01*
X024031Y007917D01*
X024064Y007883D01*
X024064Y007817D01*
X024031Y007783D01*
X024031Y007696D02*
X024064Y007662D01*
X024064Y007596D01*
X023864Y007783D02*
X023864Y007917D01*
X023897Y008004D02*
X023864Y008038D01*
X023864Y008104D01*
X023897Y008138D01*
X023930Y008138D01*
X023964Y008104D01*
X023964Y008004D01*
X023897Y008004D01*
X023964Y008004D02*
X024031Y008071D01*
X024064Y008138D01*
X019031Y014806D02*
X018897Y014806D01*
X018864Y014840D01*
X018864Y014906D01*
X018897Y014940D01*
X018864Y015027D02*
X018864Y015161D01*
X018864Y015094D02*
X019064Y015094D01*
X018997Y015027D01*
X019031Y014940D02*
X019064Y014906D01*
X019064Y014840D01*
X019031Y014806D01*
X019031Y015248D02*
X019064Y015282D01*
X019064Y015348D01*
X019031Y015382D01*
X018997Y015382D01*
X018864Y015248D01*
X018864Y015382D01*
X018897Y015469D02*
X019031Y015603D01*
X018897Y015603D01*
X018864Y015569D01*
X018864Y015503D01*
X018897Y015469D01*
X019031Y015469D01*
X019064Y015503D01*
X019064Y015569D01*
X019031Y015603D01*
X017019Y012014D02*
X017052Y011981D01*
X017052Y011848D01*
X017019Y011814D01*
X016952Y011814D01*
X016919Y011848D01*
X016831Y011814D02*
X016698Y011948D01*
X016698Y011981D01*
X016731Y012014D01*
X016798Y012014D01*
X016831Y011981D01*
X016919Y011981D02*
X016952Y012014D01*
X017019Y012014D01*
X016831Y011814D02*
X016698Y011814D01*
X016610Y011814D02*
X016610Y011848D01*
X016477Y011981D01*
X016477Y012014D01*
X016610Y012014D01*
X017119Y010676D02*
X017119Y010476D01*
X017185Y010476D02*
X017052Y010476D01*
X017185Y010609D02*
X017119Y010676D01*
X017273Y010642D02*
X017273Y010576D01*
X017306Y010542D01*
X017406Y010542D01*
X017340Y010542D02*
X017273Y010476D01*
X017406Y010476D02*
X017406Y010676D01*
X017306Y010676D01*
X017273Y010642D01*
X018194Y010615D02*
X018228Y010648D01*
X018194Y010615D02*
X018194Y010548D01*
X018228Y010515D01*
X018361Y010515D01*
X018395Y010548D01*
X018395Y010615D01*
X018361Y010648D01*
X018361Y010736D02*
X018395Y010769D01*
X018395Y010836D01*
X018361Y010869D01*
X018328Y010869D01*
X018295Y010836D01*
X018261Y010869D01*
X018228Y010869D01*
X018194Y010836D01*
X018194Y010769D01*
X018228Y010736D01*
X018295Y010803D02*
X018295Y010836D01*
X017883Y008886D02*
X017849Y008886D01*
X017716Y008752D01*
X017683Y008752D01*
X017683Y008665D02*
X017683Y008531D01*
X017683Y008598D02*
X017883Y008598D01*
X017816Y008531D01*
X017849Y008444D02*
X017883Y008410D01*
X017883Y008344D01*
X017849Y008310D01*
X017716Y008310D01*
X017683Y008344D01*
X017683Y008410D01*
X017716Y008444D01*
X017765Y008098D02*
X017731Y008032D01*
X017665Y007965D01*
X017665Y008065D01*
X017631Y008098D01*
X017598Y008098D01*
X017565Y008065D01*
X017565Y007998D01*
X017598Y007965D01*
X017665Y007965D01*
X017565Y007877D02*
X017565Y007744D01*
X017565Y007811D02*
X017765Y007811D01*
X017698Y007744D01*
X017731Y007656D02*
X017765Y007623D01*
X017765Y007556D01*
X017731Y007523D01*
X017598Y007523D01*
X017565Y007556D01*
X017565Y007623D01*
X017598Y007656D01*
X017598Y006523D02*
X017565Y006490D01*
X017565Y006423D01*
X017598Y006390D01*
X017665Y006390D02*
X017698Y006457D01*
X017698Y006490D01*
X017665Y006523D01*
X017598Y006523D01*
X017665Y006390D02*
X017765Y006390D01*
X017765Y006523D01*
X017765Y006236D02*
X017565Y006236D01*
X017565Y006302D02*
X017565Y006169D01*
X017598Y006081D02*
X017565Y006048D01*
X017565Y005981D01*
X017598Y005948D01*
X017731Y005948D01*
X017765Y005981D01*
X017765Y006048D01*
X017731Y006081D01*
X017698Y006169D02*
X017765Y006236D01*
X016190Y006236D02*
X015990Y006236D01*
X015990Y006302D02*
X015990Y006169D01*
X016023Y006081D02*
X015990Y006048D01*
X015990Y005981D01*
X016023Y005948D01*
X016157Y005948D01*
X016190Y005981D01*
X016190Y006048D01*
X016157Y006081D01*
X016123Y006169D02*
X016190Y006236D01*
X016123Y006390D02*
X016190Y006457D01*
X015990Y006457D01*
X015990Y006523D02*
X015990Y006390D01*
X016023Y007523D02*
X015990Y007556D01*
X015990Y007623D01*
X016023Y007656D01*
X015990Y007744D02*
X015990Y007877D01*
X015990Y007811D02*
X016190Y007811D01*
X016123Y007744D01*
X016157Y007656D02*
X016190Y007623D01*
X016190Y007556D01*
X016157Y007523D01*
X016023Y007523D01*
X015990Y007965D02*
X016123Y008098D01*
X016157Y008098D01*
X016190Y008065D01*
X016190Y007998D01*
X016157Y007965D01*
X015990Y007965D02*
X015990Y008098D01*
X016462Y008344D02*
X016462Y008410D01*
X016496Y008444D01*
X016462Y008531D02*
X016462Y008665D01*
X016462Y008598D02*
X016662Y008598D01*
X016596Y008531D01*
X016629Y008444D02*
X016662Y008410D01*
X016662Y008344D01*
X016629Y008310D01*
X016496Y008310D01*
X016462Y008344D01*
X016562Y008752D02*
X016562Y008886D01*
X016462Y008852D02*
X016662Y008852D01*
X016562Y008752D01*
X016190Y009092D02*
X016157Y009058D01*
X016023Y009058D01*
X015990Y009092D01*
X015990Y009158D01*
X016023Y009192D01*
X015990Y009279D02*
X015990Y009413D01*
X015990Y009346D02*
X016190Y009346D01*
X016123Y009279D01*
X016157Y009192D02*
X016190Y009158D01*
X016190Y009092D01*
X016157Y009500D02*
X016190Y009534D01*
X016190Y009600D01*
X016157Y009634D01*
X016123Y009634D01*
X016090Y009600D01*
X016056Y009634D01*
X016023Y009634D01*
X015990Y009600D01*
X015990Y009534D01*
X016023Y009500D01*
X016090Y009567D02*
X016090Y009600D01*
X014454Y009298D02*
X014354Y009298D01*
X014320Y009264D01*
X014320Y009198D01*
X014354Y009164D01*
X014454Y009164D01*
X014454Y009098D02*
X014454Y009298D01*
X014387Y009164D02*
X014320Y009098D01*
X014233Y009131D02*
X014199Y009098D01*
X014133Y009098D01*
X014099Y009131D01*
X014099Y009164D01*
X014133Y009198D01*
X014166Y009198D01*
X014133Y009198D02*
X014099Y009231D01*
X014099Y009264D01*
X014133Y009298D01*
X014199Y009298D01*
X014233Y009264D01*
X014012Y009198D02*
X013912Y009198D01*
X013878Y009164D01*
X013878Y009131D01*
X013912Y009098D01*
X013978Y009098D01*
X014012Y009131D01*
X014012Y009198D01*
X013945Y009264D01*
X013878Y009298D01*
X013872Y009531D02*
X013939Y009531D01*
X013972Y009564D01*
X013972Y009631D02*
X013906Y009664D01*
X013872Y009664D01*
X013839Y009631D01*
X013839Y009564D01*
X013872Y009531D01*
X013972Y009631D02*
X013972Y009731D01*
X013839Y009731D01*
X014060Y009698D02*
X014060Y009664D01*
X014093Y009631D01*
X014060Y009597D01*
X014060Y009564D01*
X014093Y009531D01*
X014160Y009531D01*
X014193Y009564D01*
X014281Y009531D02*
X014348Y009597D01*
X014314Y009597D02*
X014414Y009597D01*
X014414Y009531D02*
X014414Y009731D01*
X014314Y009731D01*
X014281Y009698D01*
X014281Y009631D01*
X014314Y009597D01*
X014193Y009698D02*
X014160Y009731D01*
X014093Y009731D01*
X014060Y009698D01*
X014093Y009631D02*
X014127Y009631D01*
X014133Y008865D02*
X014099Y008831D01*
X014099Y008798D01*
X014133Y008765D01*
X014099Y008731D01*
X014099Y008698D01*
X014133Y008665D01*
X014199Y008665D01*
X014233Y008698D01*
X014320Y008665D02*
X014387Y008731D01*
X014354Y008731D02*
X014454Y008731D01*
X014454Y008665D02*
X014454Y008865D01*
X014354Y008865D01*
X014320Y008831D01*
X014320Y008765D01*
X014354Y008731D01*
X014233Y008831D02*
X014199Y008865D01*
X014133Y008865D01*
X014133Y008765D02*
X014166Y008765D01*
X014012Y008698D02*
X014012Y008665D01*
X014012Y008698D02*
X013878Y008831D01*
X013878Y008865D01*
X014012Y008865D01*
X014133Y007586D02*
X014100Y007553D01*
X014100Y007486D01*
X014133Y007453D01*
X014267Y007586D01*
X014133Y007586D01*
X014133Y007453D02*
X014267Y007453D01*
X014300Y007486D01*
X014300Y007553D01*
X014267Y007586D01*
X014100Y007365D02*
X014100Y007232D01*
X014100Y007299D02*
X014300Y007299D01*
X014233Y007232D01*
X014267Y007144D02*
X014300Y007111D01*
X014300Y007044D01*
X014267Y007011D01*
X014133Y007011D01*
X014100Y007044D01*
X014100Y007111D01*
X014133Y007144D01*
X013710Y006884D02*
X013676Y006917D01*
X013543Y006784D01*
X013509Y006817D01*
X013509Y006884D01*
X013543Y006917D01*
X013676Y006917D01*
X013710Y006884D02*
X013710Y006817D01*
X013676Y006784D01*
X013543Y006784D01*
X013543Y006696D02*
X013509Y006663D01*
X013509Y006596D01*
X013543Y006563D01*
X013543Y006475D02*
X013509Y006442D01*
X013509Y006375D01*
X013543Y006342D01*
X013676Y006342D01*
X013710Y006375D01*
X013710Y006442D01*
X013676Y006475D01*
X013676Y006563D02*
X013710Y006596D01*
X013710Y006663D01*
X013676Y006696D01*
X013643Y006696D01*
X013610Y006663D01*
X013576Y006696D01*
X013543Y006696D01*
X013610Y006663D02*
X013610Y006629D01*
X014572Y005757D02*
X014572Y005691D01*
X014606Y005657D01*
X014572Y005570D02*
X014639Y005503D01*
X014639Y005536D02*
X014639Y005436D01*
X014572Y005436D02*
X014773Y005436D01*
X014773Y005536D01*
X014739Y005570D01*
X014672Y005570D01*
X014639Y005536D01*
X014739Y005657D02*
X014773Y005691D01*
X014773Y005757D01*
X014739Y005791D01*
X014706Y005791D01*
X014672Y005757D01*
X014639Y005791D01*
X014606Y005791D01*
X014572Y005757D01*
X014672Y005757D02*
X014672Y005724D01*
X013824Y004747D02*
X013312Y004747D01*
X013286Y004745D01*
X013261Y004740D01*
X013237Y004732D01*
X013213Y004721D01*
X013192Y004706D01*
X013173Y004689D01*
X013156Y004670D01*
X013141Y004649D01*
X013130Y004625D01*
X013122Y004601D01*
X013117Y004576D01*
X013115Y004550D01*
X013115Y004408D01*
X012721Y005436D02*
X012721Y005636D01*
X012621Y005636D01*
X012588Y005603D01*
X012588Y005536D01*
X012621Y005503D01*
X012721Y005503D01*
X012655Y005503D02*
X012588Y005436D01*
X012500Y005436D02*
X012367Y005570D01*
X012367Y005603D01*
X012400Y005636D01*
X012467Y005636D01*
X012500Y005603D01*
X012500Y005436D02*
X012367Y005436D01*
X012279Y005470D02*
X012246Y005436D01*
X012179Y005436D01*
X012146Y005470D01*
X012146Y005503D01*
X012179Y005536D01*
X012279Y005536D01*
X012279Y005470D01*
X012279Y005536D02*
X012213Y005603D01*
X012146Y005636D01*
X011625Y005085D02*
X011658Y005052D01*
X011658Y004918D01*
X011625Y004885D01*
X011558Y004885D01*
X011525Y004918D01*
X011437Y004918D02*
X011404Y004885D01*
X011337Y004885D01*
X011304Y004918D01*
X011304Y004952D01*
X011337Y004985D01*
X011371Y004985D01*
X011337Y004985D02*
X011304Y005018D01*
X011304Y005052D01*
X011337Y005085D01*
X011404Y005085D01*
X011437Y005052D01*
X011525Y005052D02*
X011558Y005085D01*
X011625Y005085D01*
X011216Y004985D02*
X011116Y004985D01*
X011083Y004952D01*
X011083Y004918D01*
X011116Y004885D01*
X011183Y004885D01*
X011216Y004918D01*
X011216Y004985D01*
X011150Y005052D01*
X011083Y005085D01*
X011038Y002508D02*
X011005Y002508D01*
X010972Y002474D01*
X010938Y002508D01*
X010905Y002508D01*
X010872Y002474D01*
X010872Y002408D01*
X010905Y002374D01*
X010905Y002287D02*
X010872Y002253D01*
X010872Y002187D01*
X010905Y002153D01*
X010905Y002066D02*
X010872Y002032D01*
X010872Y001966D01*
X010905Y001932D01*
X011038Y001932D01*
X011072Y001966D01*
X011072Y002032D01*
X011038Y002066D01*
X011038Y002153D02*
X011072Y002187D01*
X011072Y002253D01*
X011038Y002287D01*
X011005Y002287D01*
X010972Y002253D01*
X010938Y002287D01*
X010905Y002287D01*
X010972Y002253D02*
X010972Y002220D01*
X011038Y002374D02*
X011072Y002408D01*
X011072Y002474D01*
X011038Y002508D01*
X010972Y002474D02*
X010972Y002441D01*
X009454Y001902D02*
X009454Y001769D01*
X009420Y001735D01*
X009354Y001735D01*
X009320Y001769D01*
X009233Y001769D02*
X009233Y001735D01*
X009233Y001769D02*
X009099Y001902D01*
X009099Y001936D01*
X009233Y001936D01*
X009320Y001902D02*
X009354Y001936D01*
X009420Y001936D01*
X009454Y001902D01*
X009454Y001621D02*
X009354Y001621D01*
X009320Y001587D01*
X009320Y001521D01*
X009354Y001487D01*
X009454Y001487D01*
X009454Y001420D02*
X009454Y001621D01*
X009387Y001487D02*
X009320Y001420D01*
X009233Y001454D02*
X009199Y001420D01*
X009133Y001420D01*
X009099Y001454D01*
X009099Y001487D01*
X009133Y001521D01*
X009166Y001521D01*
X009133Y001521D02*
X009099Y001554D01*
X009099Y001587D01*
X009133Y001621D01*
X009199Y001621D01*
X009233Y001587D01*
X009012Y001587D02*
X008978Y001621D01*
X008912Y001621D01*
X008878Y001587D01*
X009012Y001454D01*
X008978Y001420D01*
X008912Y001420D01*
X008878Y001454D01*
X008878Y001587D01*
X009012Y001587D02*
X009012Y001454D01*
X008912Y001306D02*
X009012Y001206D01*
X008878Y001206D01*
X008912Y001106D02*
X008912Y001306D01*
X009099Y001272D02*
X009099Y001239D01*
X009133Y001206D01*
X009099Y001172D01*
X009099Y001139D01*
X009133Y001106D01*
X009199Y001106D01*
X009233Y001139D01*
X009320Y001139D02*
X009354Y001106D01*
X009420Y001106D01*
X009454Y001139D01*
X009454Y001272D01*
X009420Y001306D01*
X009354Y001306D01*
X009320Y001272D01*
X009233Y001272D02*
X009199Y001306D01*
X009133Y001306D01*
X009099Y001272D01*
X009133Y001206D02*
X009166Y001206D01*
X007564Y002011D02*
X007564Y002211D01*
X007464Y002211D01*
X007430Y002178D01*
X007430Y002111D01*
X007464Y002078D01*
X007564Y002078D01*
X007497Y002078D02*
X007430Y002011D01*
X007343Y002011D02*
X007209Y002144D01*
X007209Y002178D01*
X007243Y002211D01*
X007310Y002211D01*
X007343Y002178D01*
X007343Y002011D02*
X007209Y002011D01*
X007122Y002011D02*
X007122Y002044D01*
X006988Y002178D01*
X006988Y002211D01*
X007122Y002211D01*
X007149Y001699D02*
X007115Y001666D01*
X007115Y001599D01*
X007149Y001566D01*
X007249Y001566D01*
X007182Y001566D02*
X007115Y001499D01*
X007028Y001499D02*
X006895Y001499D01*
X006961Y001499D02*
X006961Y001699D01*
X007028Y001633D01*
X007149Y001699D02*
X007249Y001699D01*
X007249Y001499D01*
X006807Y001599D02*
X006674Y001599D01*
X006707Y001499D02*
X006707Y001699D01*
X006807Y001599D01*
X006422Y001566D02*
X006322Y001566D01*
X006289Y001599D01*
X006289Y001666D01*
X006322Y001699D01*
X006422Y001699D01*
X006422Y001499D01*
X006355Y001566D02*
X006289Y001499D01*
X006201Y001533D02*
X006201Y001566D01*
X006168Y001599D01*
X006101Y001599D01*
X006068Y001566D01*
X006068Y001533D01*
X006101Y001499D01*
X006168Y001499D01*
X006201Y001533D01*
X006168Y001599D02*
X006201Y001633D01*
X006201Y001666D01*
X006168Y001699D01*
X006101Y001699D01*
X006068Y001666D01*
X006068Y001633D01*
X006101Y001599D01*
X006746Y005357D02*
X006713Y005391D01*
X006713Y005524D01*
X006746Y005558D01*
X006813Y005558D01*
X006846Y005524D01*
X006846Y005491D01*
X006813Y005458D01*
X006713Y005458D01*
X006746Y005357D02*
X006813Y005357D01*
X006846Y005391D01*
X006934Y005357D02*
X007067Y005357D01*
X006934Y005491D01*
X006934Y005524D01*
X006967Y005558D01*
X007034Y005558D01*
X007067Y005524D01*
X007155Y005524D02*
X007155Y005458D01*
X007188Y005424D01*
X007288Y005424D01*
X007222Y005424D02*
X007155Y005357D01*
X007288Y005357D02*
X007288Y005558D01*
X007188Y005558D01*
X007155Y005524D01*
X007998Y006145D02*
X008198Y006145D01*
X008198Y006245D01*
X008164Y006278D01*
X008098Y006278D01*
X008064Y006245D01*
X008064Y006145D01*
X008064Y006212D02*
X007998Y006278D01*
X008031Y006366D02*
X007998Y006399D01*
X007998Y006466D01*
X008031Y006499D01*
X008064Y006499D01*
X008098Y006466D01*
X008098Y006433D01*
X008098Y006466D02*
X008131Y006499D01*
X008164Y006499D01*
X008198Y006466D01*
X008198Y006399D01*
X008164Y006366D01*
X008313Y006399D02*
X008346Y006366D01*
X008313Y006399D02*
X008313Y006466D01*
X008346Y006499D01*
X008379Y006499D01*
X008413Y006466D01*
X008413Y006433D01*
X008413Y006466D02*
X008446Y006499D01*
X008479Y006499D01*
X008513Y006466D01*
X008513Y006399D01*
X008479Y006366D01*
X008479Y006278D02*
X008413Y006278D01*
X008379Y006245D01*
X008379Y006145D01*
X008313Y006145D02*
X008513Y006145D01*
X008513Y006245D01*
X008479Y006278D01*
X008379Y006212D02*
X008313Y006278D01*
X008346Y006587D02*
X008313Y006620D01*
X008313Y006687D01*
X008346Y006720D01*
X008379Y006720D01*
X008413Y006687D01*
X008413Y006620D01*
X008446Y006587D01*
X008479Y006587D01*
X008513Y006620D01*
X008513Y006687D01*
X008479Y006720D01*
X008446Y006720D01*
X008413Y006687D01*
X008413Y006620D02*
X008379Y006587D01*
X008346Y006587D01*
X008198Y006620D02*
X008164Y006587D01*
X008131Y006587D01*
X008098Y006620D01*
X008098Y006720D01*
X008164Y006720D02*
X008198Y006687D01*
X008198Y006620D01*
X008164Y006720D02*
X008031Y006720D01*
X007998Y006687D01*
X007998Y006620D01*
X008031Y006587D01*
X008091Y005833D02*
X008224Y005833D01*
X008224Y005733D01*
X008158Y005767D01*
X008124Y005767D01*
X008091Y005733D01*
X008091Y005666D01*
X008124Y005633D01*
X008191Y005633D01*
X008224Y005666D01*
X008312Y005666D02*
X008345Y005633D01*
X008412Y005633D01*
X008445Y005666D01*
X008533Y005666D02*
X008566Y005633D01*
X008633Y005633D01*
X008666Y005666D01*
X008666Y005800D01*
X008633Y005833D01*
X008566Y005833D01*
X008533Y005800D01*
X008445Y005800D02*
X008412Y005833D01*
X008345Y005833D01*
X008312Y005800D01*
X008312Y005767D01*
X008345Y005733D01*
X008312Y005700D01*
X008312Y005666D01*
X008345Y005733D02*
X008379Y005733D01*
X008746Y007483D02*
X008946Y007483D01*
X008946Y007584D01*
X008912Y007617D01*
X008846Y007617D01*
X008812Y007584D01*
X008812Y007483D01*
X008812Y007550D02*
X008746Y007617D01*
X008779Y007704D02*
X008746Y007738D01*
X008746Y007805D01*
X008779Y007838D01*
X008846Y007838D01*
X008879Y007805D01*
X008879Y007771D01*
X008846Y007704D01*
X008946Y007704D01*
X008946Y007838D01*
X009061Y007805D02*
X009094Y007838D01*
X009127Y007838D01*
X009161Y007805D01*
X009161Y007704D01*
X009094Y007704D01*
X009061Y007738D01*
X009061Y007805D01*
X009161Y007704D02*
X009227Y007771D01*
X009261Y007838D01*
X009227Y007617D02*
X009161Y007617D01*
X009127Y007584D01*
X009127Y007483D01*
X009061Y007483D02*
X009261Y007483D01*
X009261Y007584D01*
X009227Y007617D01*
X009127Y007550D02*
X009061Y007617D01*
X013115Y003231D02*
X013115Y003172D01*
X013110Y002311D02*
X013076Y002277D01*
X013076Y002211D01*
X013110Y002177D01*
X013143Y002177D01*
X013176Y002211D01*
X013176Y002277D01*
X013143Y002311D01*
X013110Y002311D01*
X013176Y002277D02*
X013210Y002311D01*
X013243Y002311D01*
X013277Y002277D01*
X013277Y002211D01*
X013243Y002177D01*
X013210Y002177D01*
X013176Y002211D01*
X013210Y002090D02*
X013076Y001956D01*
X013076Y002090D01*
X013210Y002090D02*
X013243Y002090D01*
X013277Y002056D01*
X013277Y001990D01*
X013243Y001956D01*
X013243Y001869D02*
X013176Y001869D01*
X013143Y001836D01*
X013143Y001735D01*
X013076Y001735D02*
X013277Y001735D01*
X013277Y001836D01*
X013243Y001869D01*
X013143Y001802D02*
X013076Y001869D01*
X017883Y008752D02*
X017883Y008886D01*
X015326Y012011D02*
X015259Y012011D01*
X015226Y012044D01*
X015138Y012044D02*
X015138Y012078D01*
X015105Y012111D01*
X015038Y012111D01*
X015005Y012078D01*
X015005Y012044D01*
X015038Y012011D01*
X015105Y012011D01*
X015138Y012044D01*
X015105Y012111D02*
X015138Y012144D01*
X015138Y012178D01*
X015105Y012211D01*
X015038Y012211D01*
X015005Y012178D01*
X015005Y012144D01*
X015038Y012111D01*
X015226Y012178D02*
X015259Y012211D01*
X015326Y012211D01*
X015359Y012178D01*
X015359Y012044D01*
X015326Y012011D01*
X014651Y012044D02*
X014617Y012011D01*
X014550Y012011D01*
X014517Y012044D01*
X014430Y012044D02*
X014396Y012011D01*
X014329Y012011D01*
X014296Y012044D01*
X014296Y012078D01*
X014329Y012111D01*
X014430Y012111D01*
X014430Y012044D01*
X014430Y012111D02*
X014363Y012178D01*
X014296Y012211D01*
X014517Y012178D02*
X014550Y012211D01*
X014617Y012211D01*
X014651Y012178D01*
X014651Y012044D01*
X013001Y013383D02*
X012968Y013350D01*
X012834Y013350D01*
X012801Y013383D01*
X012801Y013450D01*
X012834Y013483D01*
X012901Y013571D02*
X012901Y013704D01*
X013001Y013671D02*
X012901Y013571D01*
X012968Y013483D02*
X013001Y013450D01*
X013001Y013383D01*
X013001Y013671D02*
X012801Y013671D01*
X014675Y016814D02*
X014642Y016848D01*
X014642Y016881D01*
X014675Y016914D01*
X014708Y016914D01*
X014675Y016914D02*
X014642Y016948D01*
X014642Y016981D01*
X014675Y017014D01*
X014742Y017014D01*
X014775Y016981D01*
X013828Y017917D02*
X013828Y018017D01*
X013794Y018050D01*
X013728Y018050D01*
X013694Y018017D01*
X013694Y017917D01*
X013694Y017983D02*
X013628Y018050D01*
X013628Y018138D02*
X013628Y018271D01*
X013628Y018204D02*
X013828Y018204D01*
X013761Y018138D01*
X013794Y018359D02*
X013661Y018359D01*
X013794Y018492D01*
X013661Y018492D01*
X013628Y018459D01*
X013628Y018392D01*
X013661Y018359D01*
X013794Y018359D02*
X013828Y018392D01*
X013828Y018459D01*
X013794Y018492D01*
X013728Y018579D02*
X013828Y018680D01*
X013628Y018680D01*
X013728Y018713D02*
X013728Y018579D01*
X013361Y019137D02*
X013228Y019137D01*
X013194Y019170D01*
X013194Y019237D01*
X013228Y019270D01*
X013194Y019358D02*
X013194Y019491D01*
X013194Y019425D02*
X013395Y019425D01*
X013328Y019358D01*
X013361Y019270D02*
X013395Y019237D01*
X013395Y019170D01*
X013361Y019137D01*
X013361Y019579D02*
X013395Y019612D01*
X013395Y019679D01*
X013361Y019712D01*
X013228Y019579D01*
X013194Y019612D01*
X013194Y019679D01*
X013228Y019712D01*
X013361Y019712D01*
X013295Y019800D02*
X013295Y019900D01*
X013261Y019933D01*
X013228Y019933D01*
X013194Y019900D01*
X013194Y019833D01*
X013228Y019800D01*
X013295Y019800D01*
X013361Y019867D01*
X013395Y019933D01*
X013361Y019579D02*
X013228Y019579D01*
X014297Y019618D02*
X014297Y019752D01*
X014297Y019685D02*
X014497Y019685D01*
X014430Y019618D01*
X014297Y019531D02*
X014297Y019397D01*
X014297Y019464D02*
X014497Y019464D01*
X014430Y019397D01*
X014464Y019310D02*
X014497Y019276D01*
X014497Y019210D01*
X014464Y019176D01*
X014330Y019176D01*
X014297Y019210D01*
X014297Y019276D01*
X014330Y019310D01*
X014330Y019839D02*
X014297Y019873D01*
X014297Y019939D01*
X014330Y019973D01*
X014397Y019973D01*
X014430Y019939D01*
X014430Y019906D01*
X014397Y019839D01*
X014497Y019839D01*
X014497Y019973D01*
X015202Y019964D02*
X015202Y019830D01*
X015202Y019897D02*
X015403Y019897D01*
X015336Y019830D01*
X015369Y019743D02*
X015302Y019743D01*
X015269Y019710D01*
X015269Y019609D01*
X015202Y019609D02*
X015403Y019609D01*
X015403Y019710D01*
X015369Y019743D01*
X015269Y019676D02*
X015202Y019743D01*
X015235Y019495D02*
X015202Y019461D01*
X015202Y019328D01*
X015235Y019294D01*
X015302Y019294D01*
X015335Y019328D01*
X015302Y019395D02*
X015202Y019395D01*
X015302Y019395D02*
X015335Y019428D01*
X015335Y019461D01*
X015302Y019495D01*
X015235Y019495D01*
X015423Y019461D02*
X015456Y019495D01*
X015523Y019495D01*
X015556Y019461D01*
X015556Y019328D01*
X015523Y019294D01*
X015456Y019294D01*
X015423Y019328D01*
X015675Y019358D02*
X015675Y019491D01*
X015675Y019425D02*
X015875Y019425D01*
X015808Y019358D01*
X015842Y019270D02*
X015875Y019237D01*
X015875Y019170D01*
X015842Y019137D01*
X015708Y019137D01*
X015675Y019170D01*
X015675Y019237D01*
X015708Y019270D01*
X015675Y019579D02*
X015675Y019712D01*
X015675Y019646D02*
X015875Y019646D01*
X015808Y019579D01*
X015775Y019800D02*
X015775Y019933D01*
X015875Y019900D02*
X015775Y019800D01*
X015675Y019900D02*
X015875Y019900D01*
X015403Y020085D02*
X015369Y020051D01*
X015236Y020051D01*
X015369Y020185D01*
X015236Y020185D01*
X015202Y020151D01*
X015202Y020085D01*
X015236Y020051D01*
X015403Y020085D02*
X015403Y020151D01*
X015369Y020185D01*
X015369Y020272D02*
X015336Y020272D01*
X015302Y020306D01*
X015302Y020372D01*
X015269Y020406D01*
X015236Y020406D01*
X015202Y020372D01*
X015202Y020306D01*
X015236Y020272D01*
X015269Y020272D01*
X015302Y020306D01*
X015302Y020372D02*
X015336Y020406D01*
X015369Y020406D01*
X015403Y020372D01*
X015403Y020306D01*
X015369Y020272D01*
X016620Y020058D02*
X016653Y020091D01*
X016786Y020091D01*
X016820Y020058D01*
X016820Y019991D01*
X016786Y019957D01*
X016753Y019957D01*
X016720Y019991D01*
X016720Y020091D01*
X016620Y020058D02*
X016620Y019991D01*
X016653Y019957D01*
X016653Y019870D02*
X016620Y019837D01*
X016620Y019770D01*
X016653Y019736D01*
X016786Y019870D01*
X016653Y019870D01*
X016786Y019870D02*
X016820Y019837D01*
X016820Y019770D01*
X016786Y019736D01*
X016653Y019736D01*
X016620Y019649D02*
X016620Y019515D01*
X016620Y019582D02*
X016820Y019582D01*
X016753Y019515D01*
X016720Y019428D02*
X016686Y019395D01*
X016686Y019294D01*
X016620Y019294D02*
X016820Y019294D01*
X016820Y019395D01*
X016786Y019428D01*
X016720Y019428D01*
X016686Y019361D02*
X016620Y019428D01*
X013828Y017917D02*
X013628Y017917D01*
X012135Y018007D02*
X011935Y018007D01*
X011935Y017941D02*
X011935Y018074D01*
X011935Y018162D02*
X011935Y018295D01*
X011935Y018228D02*
X012135Y018228D01*
X012068Y018162D01*
X012135Y018007D02*
X012068Y017941D01*
X012101Y017853D02*
X012135Y017820D01*
X012135Y017753D01*
X012101Y017720D01*
X011968Y017720D01*
X011935Y017753D01*
X011935Y017820D01*
X011968Y017853D01*
X011935Y018383D02*
X011935Y018516D01*
X011935Y018449D02*
X012135Y018449D01*
X012068Y018383D01*
X012097Y019216D02*
X012031Y019216D01*
X011997Y019249D01*
X011910Y019216D02*
X011776Y019216D01*
X011843Y019216D02*
X011843Y019416D01*
X011910Y019349D01*
X011997Y019383D02*
X012031Y019416D01*
X012097Y019416D01*
X012131Y019383D01*
X012131Y019249D01*
X012097Y019216D01*
X012101Y019570D02*
X011968Y019570D01*
X011935Y019603D01*
X011935Y019670D01*
X011968Y019704D01*
X011935Y019791D02*
X011935Y019925D01*
X011935Y019858D02*
X012135Y019858D01*
X012068Y019791D01*
X012101Y019704D02*
X012135Y019670D01*
X012135Y019603D01*
X012101Y019570D01*
X012101Y020012D02*
X011968Y020012D01*
X012101Y020145D01*
X011968Y020145D01*
X011935Y020112D01*
X011935Y020045D01*
X011968Y020012D01*
X012101Y020012D02*
X012135Y020045D01*
X012135Y020112D01*
X012101Y020145D01*
X012035Y020233D02*
X012135Y020333D01*
X011935Y020333D01*
X012035Y020366D02*
X012035Y020233D01*
X011622Y019416D02*
X011622Y019216D01*
X011689Y019216D02*
X011555Y019216D01*
X011468Y019216D02*
X011334Y019349D01*
X011334Y019383D01*
X011368Y019416D01*
X011435Y019416D01*
X011468Y019383D01*
X011622Y019416D02*
X011689Y019349D01*
X011468Y019216D02*
X011334Y019216D01*
X010816Y019221D02*
X010816Y019288D01*
X010783Y019321D01*
X010749Y019321D01*
X010716Y019288D01*
X010682Y019321D01*
X010649Y019321D01*
X010616Y019288D01*
X010616Y019221D01*
X010649Y019188D01*
X010682Y019100D02*
X010816Y019100D01*
X010783Y019188D02*
X010816Y019221D01*
X010716Y019255D02*
X010716Y019288D01*
X010682Y019100D02*
X010616Y019034D01*
X010682Y018967D01*
X010816Y018967D01*
X010783Y018879D02*
X010749Y018879D01*
X010716Y018846D01*
X010682Y018879D01*
X010649Y018879D01*
X010616Y018846D01*
X010616Y018779D01*
X010649Y018746D01*
X010716Y018813D02*
X010716Y018846D01*
X010783Y018879D02*
X010816Y018846D01*
X010816Y018779D01*
X010783Y018746D01*
X010816Y018451D02*
X010616Y018451D01*
X010616Y018150D02*
X010649Y018116D01*
X010783Y018116D01*
X010749Y018083D02*
X010749Y018150D01*
X010749Y017995D02*
X010616Y017862D01*
X010616Y017774D02*
X010616Y017641D01*
X010816Y017641D01*
X010816Y017774D01*
X010749Y017862D02*
X010616Y017995D01*
X010716Y017708D02*
X010716Y017641D01*
X010168Y016817D02*
X010202Y016784D01*
X010202Y016751D01*
X010168Y016717D01*
X010102Y016717D01*
X010068Y016684D01*
X010068Y016651D01*
X010102Y016617D01*
X010168Y016617D01*
X010202Y016651D01*
X010202Y016503D02*
X010102Y016503D01*
X010068Y016469D01*
X010068Y016402D01*
X010102Y016369D01*
X010202Y016369D01*
X010202Y016302D02*
X010202Y016503D01*
X010135Y016369D02*
X010068Y016302D01*
X009981Y016336D02*
X009981Y016402D01*
X009947Y016436D01*
X009881Y016436D01*
X009847Y016402D01*
X009847Y016369D01*
X009981Y016369D01*
X009981Y016336D02*
X009947Y016302D01*
X009881Y016302D01*
X009760Y016302D02*
X009660Y016302D01*
X009626Y016336D01*
X009660Y016369D01*
X009726Y016369D01*
X009760Y016402D01*
X009726Y016436D01*
X009626Y016436D01*
X009539Y016402D02*
X009505Y016436D01*
X009439Y016436D01*
X009405Y016402D01*
X009405Y016369D01*
X009539Y016369D01*
X009539Y016336D02*
X009539Y016402D01*
X009539Y016336D02*
X009505Y016302D01*
X009439Y016302D01*
X009284Y016336D02*
X009251Y016302D01*
X009284Y016336D02*
X009284Y016469D01*
X009251Y016436D02*
X009318Y016436D01*
X009693Y016717D02*
X009760Y016717D01*
X009847Y016717D02*
X009881Y016684D01*
X009981Y016684D01*
X009981Y016617D02*
X009981Y016817D01*
X009881Y016817D01*
X009847Y016784D01*
X009847Y016717D01*
X009914Y016684D02*
X009847Y016617D01*
X009760Y016617D02*
X009760Y016817D01*
X009626Y016817D01*
X010068Y016784D02*
X010102Y016817D01*
X010168Y016817D01*
X009450Y018074D02*
X009517Y018141D01*
X009450Y018207D01*
X009317Y018207D01*
X009317Y018295D02*
X009517Y018295D01*
X009517Y018395D01*
X009483Y018428D01*
X009417Y018428D01*
X009383Y018395D01*
X009383Y018295D01*
X009383Y018362D02*
X009317Y018428D01*
X009350Y018516D02*
X009417Y018516D01*
X009450Y018549D01*
X009450Y018616D01*
X009417Y018649D01*
X009383Y018649D01*
X009383Y018516D01*
X009350Y018516D02*
X009317Y018549D01*
X009317Y018616D01*
X009317Y018770D02*
X009483Y018770D01*
X009517Y018804D01*
X009417Y018804D02*
X009417Y018737D01*
X009417Y018207D02*
X009417Y018074D01*
X009450Y018074D02*
X009317Y018074D01*
X008784Y018619D02*
X008751Y018586D01*
X008684Y018586D01*
X008651Y018619D01*
X008563Y018586D02*
X008430Y018586D01*
X008497Y018586D02*
X008497Y018786D01*
X008563Y018719D01*
X008651Y018753D02*
X008684Y018786D01*
X008751Y018786D01*
X008784Y018753D01*
X008784Y018619D01*
X008342Y018586D02*
X008209Y018586D01*
X008276Y018586D02*
X008276Y018786D01*
X008342Y018719D01*
X008121Y018753D02*
X008088Y018786D01*
X008021Y018786D01*
X007988Y018753D01*
X008121Y018619D01*
X008088Y018586D01*
X008021Y018586D01*
X007988Y018619D01*
X007988Y018753D01*
X008121Y018753D02*
X008121Y018619D01*
X007688Y019019D02*
X007621Y019019D01*
X007588Y019052D01*
X007500Y019019D02*
X007367Y019019D01*
X007434Y019019D02*
X007434Y019219D01*
X007500Y019152D01*
X007588Y019186D02*
X007621Y019219D01*
X007688Y019219D01*
X007721Y019186D01*
X007721Y019052D01*
X007688Y019019D01*
X007279Y019019D02*
X007146Y019019D01*
X007213Y019019D02*
X007213Y019219D01*
X007279Y019152D01*
X007058Y019152D02*
X007058Y019186D01*
X007025Y019219D01*
X006958Y019219D01*
X006925Y019186D01*
X006925Y019152D01*
X006958Y019119D01*
X007025Y019119D01*
X007058Y019152D01*
X007025Y019119D02*
X007058Y019086D01*
X007058Y019052D01*
X007025Y019019D01*
X006958Y019019D01*
X006925Y019052D01*
X006925Y019086D01*
X006958Y019119D01*
X006940Y020476D02*
X006873Y020476D01*
X006840Y020509D01*
X006752Y020476D02*
X006619Y020476D01*
X006686Y020476D02*
X006686Y020676D01*
X006752Y020609D01*
X006840Y020642D02*
X006873Y020676D01*
X006940Y020676D01*
X006973Y020642D01*
X006973Y020509D01*
X006940Y020476D01*
X006531Y020509D02*
X006398Y020642D01*
X006398Y020509D01*
X006431Y020476D01*
X006498Y020476D01*
X006531Y020509D01*
X006531Y020642D01*
X006498Y020676D01*
X006431Y020676D01*
X006398Y020642D01*
X006310Y020609D02*
X006244Y020676D01*
X006244Y020476D01*
X006310Y020476D02*
X006177Y020476D01*
X007116Y022011D02*
X007183Y022011D01*
X007216Y022044D01*
X007303Y022044D02*
X007337Y022011D01*
X007404Y022011D01*
X007437Y022044D01*
X007303Y022178D01*
X007303Y022044D01*
X007303Y022178D02*
X007337Y022211D01*
X007404Y022211D01*
X007437Y022178D01*
X007437Y022044D01*
X007524Y022011D02*
X007658Y022011D01*
X007591Y022011D02*
X007591Y022211D01*
X007658Y022144D01*
X007745Y022178D02*
X007779Y022211D01*
X007846Y022211D01*
X007879Y022178D01*
X007879Y022044D01*
X007846Y022011D01*
X007779Y022011D01*
X007745Y022044D01*
X007216Y022178D02*
X007183Y022211D01*
X007116Y022211D01*
X007082Y022178D01*
X007082Y022144D01*
X007116Y022111D01*
X007082Y022078D01*
X007082Y022044D01*
X007116Y022011D01*
X007116Y022111D02*
X007149Y022111D01*
X008942Y022105D02*
X008976Y022138D01*
X009109Y022138D01*
X009143Y022105D01*
X009143Y022038D01*
X009109Y022005D01*
X009076Y022005D01*
X009043Y022038D01*
X009043Y022138D01*
X008942Y022105D02*
X008942Y022038D01*
X008976Y022005D01*
X008942Y021917D02*
X008942Y021784D01*
X008942Y021850D02*
X009143Y021850D01*
X009076Y021784D01*
X008942Y021696D02*
X008942Y021563D01*
X008942Y021629D02*
X009143Y021629D01*
X009076Y021563D01*
X009109Y021475D02*
X009143Y021442D01*
X009143Y021375D01*
X009109Y021342D01*
X008976Y021342D01*
X008942Y021375D01*
X008942Y021442D01*
X008976Y021475D01*
X007924Y017526D02*
X007958Y017493D01*
X007958Y017359D01*
X007924Y017326D01*
X007858Y017326D01*
X007824Y017359D01*
X007737Y017326D02*
X007603Y017326D01*
X007670Y017326D02*
X007670Y017526D01*
X007737Y017459D01*
X007824Y017493D02*
X007858Y017526D01*
X007924Y017526D01*
X007516Y017493D02*
X007482Y017526D01*
X007416Y017526D01*
X007382Y017493D01*
X007382Y017459D01*
X007416Y017426D01*
X007382Y017393D01*
X007382Y017359D01*
X007416Y017326D01*
X007482Y017326D01*
X007516Y017359D01*
X007449Y017426D02*
X007416Y017426D01*
X007295Y017426D02*
X007161Y017426D01*
X007195Y017326D02*
X007195Y017526D01*
X007295Y017426D01*
X007306Y016345D02*
X007373Y016345D01*
X007406Y016312D01*
X007406Y016178D01*
X007373Y016145D01*
X007306Y016145D01*
X007273Y016178D01*
X007185Y016145D02*
X007052Y016278D01*
X007052Y016312D01*
X007085Y016345D01*
X007152Y016345D01*
X007185Y016312D01*
X007273Y016312D02*
X007306Y016345D01*
X007185Y016145D02*
X007052Y016145D01*
X008533Y027011D02*
X008500Y027044D01*
X008500Y027078D01*
X008533Y027111D01*
X008633Y027111D01*
X008633Y027044D01*
X008600Y027011D01*
X008533Y027011D01*
X008633Y027111D02*
X008567Y027178D01*
X008500Y027211D01*
X008787Y027211D02*
X008787Y027011D01*
X008721Y027011D02*
X008854Y027011D01*
X008942Y027011D02*
X009075Y027011D01*
X009008Y027011D02*
X009008Y027211D01*
X009075Y027144D01*
X009163Y027178D02*
X009196Y027211D01*
X009263Y027211D01*
X009296Y027178D01*
X009296Y027044D01*
X009263Y027011D01*
X009196Y027011D01*
X009163Y027044D01*
X008854Y027144D02*
X008787Y027211D01*
X008637Y027759D02*
X008503Y027759D01*
X008470Y027792D01*
X008470Y027859D01*
X008503Y027892D01*
X008470Y027980D02*
X008470Y028113D01*
X008470Y028047D02*
X008670Y028047D01*
X008603Y027980D01*
X008637Y027892D02*
X008670Y027859D01*
X008670Y027792D01*
X008637Y027759D01*
X008637Y028201D02*
X008503Y028201D01*
X008637Y028334D01*
X008503Y028334D01*
X008470Y028301D01*
X008470Y028234D01*
X008503Y028201D01*
X008637Y028201D02*
X008670Y028234D01*
X008670Y028301D01*
X008637Y028334D01*
X008670Y028422D02*
X008670Y028555D01*
X008637Y028555D01*
X008503Y028422D01*
X008470Y028422D01*
X007485Y027926D02*
X007485Y027792D01*
X007452Y027759D01*
X007385Y027759D01*
X007352Y027792D01*
X007264Y027792D02*
X007231Y027759D01*
X007164Y027759D01*
X007131Y027792D01*
X007131Y027826D01*
X007164Y027859D01*
X007197Y027859D01*
X007164Y027859D02*
X007131Y027892D01*
X007131Y027926D01*
X007164Y027959D01*
X007231Y027959D01*
X007264Y027926D01*
X007352Y027926D02*
X007385Y027959D01*
X007452Y027959D01*
X007485Y027926D01*
X007043Y027926D02*
X007010Y027959D01*
X006943Y027959D01*
X006910Y027926D01*
X006910Y027892D01*
X007043Y027759D01*
X006910Y027759D01*
X012958Y032562D02*
X013158Y032562D01*
X013158Y032662D01*
X013125Y032696D01*
X013058Y032696D01*
X013025Y032662D01*
X013025Y032562D01*
X013025Y032629D02*
X012958Y032696D01*
X012958Y032783D02*
X012958Y032917D01*
X012958Y032850D02*
X013158Y032850D01*
X013092Y032783D01*
X013058Y033004D02*
X013092Y033071D01*
X013092Y033104D01*
X013058Y033138D01*
X012992Y033138D01*
X012958Y033104D01*
X012958Y033038D01*
X012992Y033004D01*
X013058Y033004D02*
X013158Y033004D01*
X013158Y033138D01*
X013352Y033004D02*
X013385Y033004D01*
X013519Y033138D01*
X013552Y033138D01*
X013552Y033004D01*
X013552Y032850D02*
X013352Y032850D01*
X013352Y032783D02*
X013352Y032917D01*
X013485Y032783D02*
X013552Y032850D01*
X013519Y032696D02*
X013452Y032696D01*
X013419Y032662D01*
X013419Y032562D01*
X013419Y032629D02*
X013352Y032696D01*
X013352Y032562D02*
X013552Y032562D01*
X013552Y032662D01*
X013519Y032696D01*
X013746Y032696D02*
X013812Y032629D01*
X013812Y032662D02*
X013812Y032562D01*
X013746Y032562D02*
X013946Y032562D01*
X013946Y032662D01*
X013912Y032696D01*
X013846Y032696D01*
X013812Y032662D01*
X013746Y032783D02*
X013746Y032917D01*
X013746Y032850D02*
X013946Y032850D01*
X013879Y032783D01*
X013846Y033004D02*
X013846Y033104D01*
X013812Y033138D01*
X013779Y033138D01*
X013746Y033104D01*
X013746Y033038D01*
X013779Y033004D01*
X013846Y033004D01*
X013912Y033071D01*
X013946Y033138D01*
X015320Y033104D02*
X015320Y033038D01*
X015354Y033004D01*
X015387Y033004D01*
X015421Y033038D01*
X015421Y033104D01*
X015387Y033138D01*
X015354Y033138D01*
X015320Y033104D01*
X015421Y033104D02*
X015454Y033138D01*
X015487Y033138D01*
X015521Y033104D01*
X015521Y033038D01*
X015487Y033004D01*
X015454Y033004D01*
X015421Y033038D01*
X015320Y032917D02*
X015320Y032783D01*
X015320Y032850D02*
X015521Y032850D01*
X015454Y032783D01*
X015487Y032696D02*
X015421Y032696D01*
X015387Y032662D01*
X015387Y032562D01*
X015320Y032562D02*
X015521Y032562D01*
X015521Y032662D01*
X015487Y032696D01*
X015387Y032629D02*
X015320Y032696D01*
X015714Y032696D02*
X015781Y032629D01*
X015781Y032662D02*
X015781Y032562D01*
X015714Y032562D02*
X015914Y032562D01*
X015914Y032662D01*
X015881Y032696D01*
X015814Y032696D01*
X015781Y032662D01*
X015714Y032783D02*
X015848Y032917D01*
X015881Y032917D01*
X015914Y032883D01*
X015914Y032817D01*
X015881Y032783D01*
X015714Y032783D02*
X015714Y032917D01*
X015748Y033004D02*
X015881Y033138D01*
X015748Y033138D01*
X015714Y033104D01*
X015714Y033038D01*
X015748Y033004D01*
X015881Y033004D01*
X015914Y033038D01*
X015914Y033104D01*
X015881Y033138D01*
X016108Y033104D02*
X016141Y033138D01*
X016275Y033138D01*
X016308Y033104D01*
X016308Y033038D01*
X016275Y033004D01*
X016241Y033004D01*
X016208Y033038D01*
X016208Y033138D01*
X016108Y033104D02*
X016108Y033038D01*
X016141Y033004D01*
X016108Y032917D02*
X016108Y032783D01*
X016108Y032850D02*
X016308Y032850D01*
X016241Y032783D01*
X016208Y032696D02*
X016175Y032662D01*
X016175Y032562D01*
X016175Y032629D02*
X016108Y032696D01*
X016208Y032696D02*
X016275Y032696D01*
X016308Y032662D01*
X016308Y032562D01*
X016108Y032562D01*
X016065Y030243D02*
X015998Y030243D01*
X015965Y030209D01*
X016098Y030076D01*
X016065Y030043D01*
X015998Y030043D01*
X015965Y030076D01*
X015965Y030209D01*
X015877Y030209D02*
X015877Y030176D01*
X015844Y030143D01*
X015777Y030143D01*
X015744Y030109D01*
X015744Y030076D01*
X015777Y030043D01*
X015844Y030043D01*
X015877Y030076D01*
X015877Y030109D01*
X015844Y030143D01*
X015777Y030143D02*
X015744Y030176D01*
X015744Y030209D01*
X015777Y030243D01*
X015844Y030243D01*
X015877Y030209D01*
X016065Y030243D02*
X016098Y030209D01*
X016098Y030076D01*
X016186Y030043D02*
X016319Y030043D01*
X016253Y030043D02*
X016253Y030243D01*
X016319Y030176D01*
X016407Y030209D02*
X016440Y030243D01*
X016507Y030243D01*
X016540Y030209D01*
X016540Y030076D01*
X016507Y030043D01*
X016440Y030043D01*
X016407Y030076D01*
X015714Y029816D02*
X015714Y029682D01*
X015680Y029649D01*
X015613Y029649D01*
X015580Y029682D01*
X015493Y029649D02*
X015359Y029649D01*
X015426Y029649D02*
X015426Y029849D01*
X015493Y029782D01*
X015580Y029816D02*
X015613Y029849D01*
X015680Y029849D01*
X015714Y029816D01*
X015272Y029782D02*
X015205Y029849D01*
X015205Y029649D01*
X015272Y029649D02*
X015138Y029649D01*
X015051Y029649D02*
X015051Y029682D01*
X014917Y029816D01*
X014917Y029849D01*
X015051Y029849D01*
X019218Y026514D02*
X019218Y026447D01*
X019251Y026414D01*
X019218Y026327D02*
X019218Y026193D01*
X019218Y026260D02*
X019418Y026260D01*
X019352Y026193D01*
X019218Y026106D02*
X019218Y025972D01*
X019218Y026039D02*
X019418Y026039D01*
X019352Y025972D01*
X019385Y025885D02*
X019418Y025851D01*
X019418Y025785D01*
X019385Y025751D01*
X019251Y025751D01*
X019218Y025785D01*
X019218Y025851D01*
X019251Y025885D01*
X019612Y025857D02*
X019645Y025824D01*
X019612Y025857D02*
X019612Y025924D01*
X019645Y025957D01*
X019712Y025957D01*
X019745Y025924D01*
X019745Y025890D01*
X019712Y025824D01*
X019812Y025824D01*
X019812Y025957D01*
X019779Y025736D02*
X019645Y025603D01*
X019612Y025636D01*
X019612Y025703D01*
X019645Y025736D01*
X019779Y025736D01*
X019812Y025703D01*
X019812Y025636D01*
X019779Y025603D01*
X019645Y025603D01*
X019612Y025515D02*
X019612Y025382D01*
X019612Y025448D02*
X019812Y025448D01*
X019745Y025382D01*
X019779Y025294D02*
X019812Y025261D01*
X019812Y025194D01*
X019779Y025161D01*
X019645Y025161D01*
X019612Y025194D01*
X019612Y025261D01*
X019645Y025294D01*
X019385Y026414D02*
X019418Y026447D01*
X019418Y026514D01*
X019385Y026548D01*
X019352Y026548D01*
X019318Y026514D01*
X019285Y026548D01*
X019251Y026548D01*
X019218Y026514D01*
X019318Y026514D02*
X019318Y026481D01*
X020163Y023201D02*
X020163Y023068D01*
X020296Y023201D01*
X020330Y023201D01*
X020363Y023168D01*
X020363Y023101D01*
X020330Y023068D01*
X020330Y022980D02*
X020296Y022980D01*
X020263Y022947D01*
X020230Y022980D01*
X020196Y022980D01*
X020163Y022947D01*
X020163Y022880D01*
X020196Y022847D01*
X020163Y022759D02*
X020163Y022626D01*
X020163Y022692D02*
X020363Y022692D01*
X020296Y022626D01*
X020330Y022538D02*
X020363Y022505D01*
X020363Y022438D01*
X020330Y022405D01*
X020196Y022405D01*
X020163Y022438D01*
X020163Y022505D01*
X020196Y022538D01*
X020005Y022572D02*
X020005Y022438D01*
X019971Y022405D01*
X019905Y022405D01*
X019871Y022438D01*
X019784Y022405D02*
X019650Y022405D01*
X019717Y022405D02*
X019717Y022605D01*
X019784Y022538D01*
X019871Y022572D02*
X019905Y022605D01*
X019971Y022605D01*
X020005Y022572D01*
X020330Y022847D02*
X020363Y022880D01*
X020363Y022947D01*
X020330Y022980D01*
X020263Y022947D02*
X020263Y022913D01*
X019563Y022572D02*
X019530Y022605D01*
X019463Y022605D01*
X019429Y022572D01*
X019429Y022538D01*
X019563Y022405D01*
X019429Y022405D01*
X019342Y022405D02*
X019208Y022405D01*
X019275Y022405D02*
X019275Y022605D01*
X019342Y022538D01*
X021974Y022989D02*
X021974Y023056D01*
X022007Y023089D01*
X021974Y023177D02*
X021974Y023310D01*
X021974Y023244D02*
X022174Y023244D01*
X022107Y023177D01*
X022141Y023089D02*
X022174Y023056D01*
X022174Y022989D01*
X022141Y022956D01*
X022007Y022956D01*
X021974Y022989D01*
X022007Y023398D02*
X021974Y023431D01*
X021974Y023498D01*
X022007Y023531D01*
X022041Y023531D01*
X022074Y023498D01*
X022074Y023465D01*
X022074Y023498D02*
X022107Y023531D01*
X022141Y023531D01*
X022174Y023498D01*
X022174Y023431D01*
X022141Y023398D01*
X022141Y023619D02*
X022174Y023652D01*
X022174Y023719D01*
X022141Y023752D01*
X022107Y023752D01*
X022074Y023719D01*
X022041Y023752D01*
X022007Y023752D01*
X021974Y023719D01*
X021974Y023652D01*
X022007Y023619D01*
X022074Y023686D02*
X022074Y023719D01*
X025099Y026729D02*
X025099Y026863D01*
X025132Y026896D01*
X025199Y026896D01*
X025232Y026863D01*
X025232Y026829D01*
X025199Y026796D01*
X025099Y026796D01*
X025099Y026729D02*
X025132Y026696D01*
X025199Y026696D01*
X025232Y026729D01*
X025320Y026696D02*
X025453Y026696D01*
X025320Y026829D01*
X025320Y026863D01*
X025353Y026896D01*
X025420Y026896D01*
X025453Y026863D01*
X025541Y026863D02*
X025574Y026896D01*
X025641Y026896D01*
X025674Y026863D01*
X025674Y026729D01*
X025641Y026696D01*
X025574Y026696D01*
X025541Y026729D01*
X025580Y027680D02*
X025647Y027747D01*
X025613Y027747D02*
X025714Y027747D01*
X025714Y027680D02*
X025714Y027880D01*
X025613Y027880D01*
X025580Y027847D01*
X025580Y027780D01*
X025613Y027747D01*
X025493Y027714D02*
X025459Y027680D01*
X025392Y027680D01*
X025359Y027714D01*
X025359Y027747D01*
X025392Y027780D01*
X025426Y027780D01*
X025392Y027780D02*
X025359Y027814D01*
X025359Y027847D01*
X025392Y027880D01*
X025459Y027880D01*
X025493Y027847D01*
X025272Y027814D02*
X025205Y027880D01*
X025205Y027680D01*
X025272Y027680D02*
X025138Y027680D01*
X025177Y028704D02*
X025311Y028704D01*
X025177Y028837D01*
X025177Y028871D01*
X025211Y028904D01*
X025278Y028904D01*
X025311Y028871D01*
X025398Y028871D02*
X025398Y028837D01*
X025432Y028804D01*
X025398Y028771D01*
X025398Y028737D01*
X025432Y028704D01*
X025499Y028704D01*
X025532Y028737D01*
X025619Y028704D02*
X025686Y028771D01*
X025653Y028771D02*
X025753Y028771D01*
X025753Y028704D02*
X025753Y028904D01*
X025653Y028904D01*
X025619Y028871D01*
X025619Y028804D01*
X025653Y028771D01*
X025532Y028871D02*
X025499Y028904D01*
X025432Y028904D01*
X025398Y028871D01*
X025432Y028804D02*
X025465Y028804D01*
X025756Y021817D02*
X025756Y021617D01*
X025823Y021617D02*
X025689Y021617D01*
X025723Y021503D02*
X025789Y021503D01*
X025823Y021469D01*
X025910Y021469D02*
X025944Y021503D01*
X026010Y021503D01*
X026044Y021469D01*
X026131Y021469D02*
X026131Y021402D01*
X026165Y021369D01*
X026265Y021369D01*
X026265Y021302D02*
X026265Y021503D01*
X026165Y021503D01*
X026131Y021469D01*
X026198Y021369D02*
X026131Y021302D01*
X026044Y021302D02*
X025910Y021436D01*
X025910Y021469D01*
X025910Y021617D02*
X026044Y021617D01*
X025910Y021751D01*
X025910Y021784D01*
X025944Y021817D01*
X026010Y021817D01*
X026044Y021784D01*
X026131Y021784D02*
X026131Y021717D01*
X026165Y021684D01*
X026265Y021684D01*
X026265Y021617D02*
X026265Y021817D01*
X026165Y021817D01*
X026131Y021784D01*
X026198Y021684D02*
X026131Y021617D01*
X026044Y021302D02*
X025910Y021302D01*
X025823Y021302D02*
X025689Y021436D01*
X025689Y021469D01*
X025723Y021503D01*
X025689Y021302D02*
X025823Y021302D01*
X025789Y021030D02*
X025723Y021030D01*
X025689Y020997D01*
X025689Y020963D01*
X025723Y020930D01*
X025689Y020897D01*
X025689Y020863D01*
X025723Y020830D01*
X025789Y020830D01*
X025823Y020863D01*
X025910Y020830D02*
X026044Y020830D01*
X025910Y020963D01*
X025910Y020997D01*
X025944Y021030D01*
X026010Y021030D01*
X026044Y020997D01*
X026131Y020997D02*
X026131Y020930D01*
X026165Y020897D01*
X026265Y020897D01*
X026198Y020897D02*
X026131Y020830D01*
X026165Y020715D02*
X026131Y020682D01*
X026131Y020615D01*
X026165Y020582D01*
X026265Y020582D01*
X026198Y020582D02*
X026131Y020515D01*
X026044Y020515D02*
X025910Y020648D01*
X025910Y020682D01*
X025944Y020715D01*
X026010Y020715D01*
X026044Y020682D01*
X026165Y020715D02*
X026265Y020715D01*
X026265Y020515D01*
X026265Y020400D02*
X026165Y020400D01*
X026131Y020367D01*
X026131Y020300D01*
X026165Y020267D01*
X026265Y020267D01*
X026265Y020200D02*
X026265Y020400D01*
X026198Y020267D02*
X026131Y020200D01*
X026044Y020200D02*
X026044Y020233D01*
X025910Y020367D01*
X025910Y020400D01*
X026044Y020400D01*
X026044Y020515D02*
X025910Y020515D01*
X025823Y020615D02*
X025689Y020615D01*
X025723Y020515D02*
X025723Y020715D01*
X025823Y020615D01*
X025756Y020930D02*
X025723Y020930D01*
X025789Y021030D02*
X025823Y020997D01*
X026131Y020997D02*
X026165Y021030D01*
X026265Y021030D01*
X026265Y020830D01*
X025823Y021751D02*
X025756Y021817D01*
X018824Y037877D02*
X018824Y038077D01*
X018724Y038077D01*
X018690Y038044D01*
X018690Y037977D01*
X018724Y037944D01*
X018824Y037944D01*
X018757Y037944D02*
X018690Y037877D01*
X018603Y037877D02*
X018469Y038011D01*
X018469Y038044D01*
X018503Y038077D01*
X018569Y038077D01*
X018603Y038044D01*
X018603Y037877D02*
X018469Y037877D01*
X018382Y037911D02*
X018348Y037877D01*
X018282Y037877D01*
X018248Y037911D01*
X018248Y037977D01*
X018282Y038011D01*
X018315Y038011D01*
X018382Y037977D01*
X018382Y038077D01*
X018248Y038077D01*
D13*
X003673Y003340D02*
X004346Y001895D01*
X005738Y002544D02*
X005064Y003989D01*
X004139Y005593D02*
X003548Y005593D01*
X002820Y005987D02*
X002820Y006223D01*
X003076Y006617D02*
X005202Y006617D01*
X005458Y006223D02*
X005458Y005987D01*
X005891Y007700D02*
X005891Y008330D01*
X005897Y008348D01*
X005906Y008366D01*
X005918Y008381D01*
X005934Y008393D01*
X005951Y008402D01*
X005970Y008408D01*
X005989Y008410D01*
X006009Y008408D01*
X006560Y008408D02*
X006578Y008410D01*
X006595Y008409D01*
X006612Y008405D01*
X006628Y008398D01*
X006643Y008388D01*
X006655Y008376D01*
X006665Y008362D01*
X006673Y008346D01*
X006678Y008330D01*
X006678Y007700D01*
X006678Y008330D01*
X006679Y008330D02*
X006685Y008348D01*
X006694Y008366D01*
X006706Y008381D01*
X006722Y008393D01*
X006739Y008402D01*
X006758Y008408D01*
X006777Y008410D01*
X006797Y008408D01*
X007347Y008408D02*
X007365Y008410D01*
X007382Y008409D01*
X007399Y008405D01*
X007415Y008398D01*
X007430Y008388D01*
X007442Y008376D01*
X007452Y008362D01*
X007460Y008346D01*
X007465Y008330D01*
X007466Y008330D02*
X007466Y007700D01*
X007465Y007699D02*
X007460Y007683D01*
X007452Y007667D01*
X007442Y007653D01*
X007430Y007641D01*
X007415Y007631D01*
X007399Y007624D01*
X007382Y007620D01*
X007365Y007619D01*
X007347Y007621D01*
X006797Y007621D02*
X006777Y007619D01*
X006758Y007621D01*
X006739Y007627D01*
X006722Y007636D01*
X006706Y007648D01*
X006694Y007663D01*
X006685Y007681D01*
X006679Y007699D01*
X006678Y007699D02*
X006673Y007683D01*
X006665Y007667D01*
X006655Y007653D01*
X006643Y007641D01*
X006628Y007631D01*
X006612Y007624D01*
X006595Y007620D01*
X006578Y007619D01*
X006560Y007621D01*
X006009Y007621D02*
X005989Y007619D01*
X005970Y007621D01*
X005951Y007627D01*
X005934Y007636D01*
X005918Y007648D01*
X005906Y007663D01*
X005897Y007681D01*
X005891Y007699D01*
X003385Y017656D02*
X002885Y017656D01*
X002635Y017906D01*
X002635Y018406D01*
X002885Y018656D01*
X002635Y018906D01*
X002635Y019406D01*
X002885Y019656D01*
X003385Y019656D01*
X003635Y019406D01*
X003635Y018906D01*
X003385Y018656D01*
X003635Y018406D01*
X003635Y017906D01*
X003385Y017656D01*
X007058Y023554D02*
X006808Y023804D01*
X006808Y024304D01*
X007058Y024554D01*
X006808Y024804D01*
X006808Y025304D01*
X007058Y025554D01*
X006808Y025804D01*
X006808Y026304D01*
X007058Y026554D01*
X006808Y026804D01*
X006808Y027304D01*
X007058Y027554D01*
X007558Y027554D01*
X007808Y027304D01*
X007808Y026804D01*
X007558Y026554D01*
X007808Y026304D01*
X007808Y025804D01*
X007558Y025554D01*
X007808Y025304D01*
X007808Y024804D01*
X007558Y024554D01*
X007808Y024304D01*
X007808Y023804D01*
X007558Y023554D01*
X007058Y023554D01*
X008355Y029726D02*
X008357Y029741D01*
X008363Y029754D01*
X008372Y029766D01*
X008383Y029775D01*
X008397Y029781D01*
X008412Y029783D01*
X008427Y029781D01*
X008440Y029775D01*
X008452Y029766D01*
X008461Y029755D01*
X008467Y029741D01*
X008469Y029726D01*
X008467Y029711D01*
X008461Y029698D01*
X008452Y029686D01*
X008441Y029677D01*
X008427Y029671D01*
X008412Y029669D01*
X008397Y029671D01*
X008384Y029677D01*
X008372Y029686D01*
X008363Y029697D01*
X008357Y029711D01*
X008355Y029726D01*
X006935Y032405D02*
X006937Y032420D01*
X006943Y032433D01*
X006952Y032445D01*
X006963Y032454D01*
X006977Y032460D01*
X006992Y032462D01*
X007007Y032460D01*
X007020Y032454D01*
X007032Y032445D01*
X007041Y032434D01*
X007047Y032420D01*
X007049Y032405D01*
X007047Y032390D01*
X007041Y032377D01*
X007032Y032365D01*
X007021Y032356D01*
X007007Y032350D01*
X006992Y032348D01*
X006977Y032350D01*
X006964Y032356D01*
X006952Y032365D01*
X006943Y032376D01*
X006937Y032390D01*
X006935Y032405D01*
X005694Y034068D02*
X010222Y034068D01*
X010222Y038290D02*
X010222Y039796D01*
X004198Y039796D01*
X003529Y039078D02*
X003529Y038290D01*
X004178Y038290D01*
X004179Y038290D02*
X004252Y038178D01*
X004321Y038063D01*
X004383Y037944D01*
X004440Y037822D01*
X004490Y037698D01*
X004535Y037572D01*
X004573Y037444D01*
X004605Y037313D01*
X004631Y037182D01*
X004651Y037049D01*
X004664Y036916D01*
X004670Y036782D01*
X004670Y036648D01*
X004664Y036514D01*
X004651Y036381D01*
X004631Y036248D01*
X004605Y036117D01*
X004573Y035986D01*
X004535Y035858D01*
X004490Y035732D01*
X004440Y035608D01*
X004383Y035486D01*
X004321Y035367D01*
X004252Y035252D01*
X004179Y035140D01*
X004178Y035141D02*
X003922Y035141D01*
X003922Y034747D01*
X004552Y034068D02*
X004946Y034068D01*
X016663Y034967D02*
X016663Y036180D01*
X017163Y036574D02*
X018151Y036574D01*
X017988Y036945D02*
X017338Y036945D01*
X017321Y036947D01*
X017304Y036951D01*
X017288Y036958D01*
X017274Y036968D01*
X017261Y036981D01*
X017251Y036995D01*
X017244Y037011D01*
X017240Y037028D01*
X017238Y037045D01*
X017238Y037645D02*
X017240Y037662D01*
X017244Y037679D01*
X017251Y037695D01*
X017261Y037709D01*
X017274Y037722D01*
X017288Y037732D01*
X017304Y037739D01*
X017321Y037743D01*
X017338Y037745D01*
X017988Y037745D01*
X018005Y037743D01*
X018022Y037739D01*
X018038Y037732D01*
X018052Y037722D01*
X018065Y037709D01*
X018075Y037695D01*
X018082Y037679D01*
X018086Y037662D01*
X018088Y037645D01*
X018088Y037045D02*
X018086Y037028D01*
X018082Y037011D01*
X018075Y036995D01*
X018065Y036981D01*
X018052Y036968D01*
X018038Y036958D01*
X018022Y036951D01*
X018005Y036947D01*
X017988Y036945D01*
X018663Y036180D02*
X018663Y034967D01*
X018151Y034574D02*
X017174Y034574D01*
X017308Y034235D02*
X017938Y034235D01*
X017939Y034235D02*
X017955Y034230D01*
X017971Y034222D01*
X017985Y034212D01*
X017997Y034200D01*
X018007Y034185D01*
X018014Y034169D01*
X018018Y034152D01*
X018019Y034135D01*
X018017Y034117D01*
X018017Y033566D02*
X018019Y033548D01*
X018018Y033531D01*
X018014Y033514D01*
X018007Y033498D01*
X017997Y033483D01*
X017985Y033471D01*
X017971Y033461D01*
X017955Y033453D01*
X017939Y033448D01*
X017938Y033448D02*
X017308Y033448D01*
X017292Y033453D01*
X017276Y033461D01*
X017262Y033471D01*
X017250Y033483D01*
X017240Y033498D01*
X017233Y033514D01*
X017229Y033531D01*
X017228Y033548D01*
X017230Y033566D01*
X017230Y034117D02*
X017228Y034135D01*
X017229Y034152D01*
X017233Y034169D01*
X017240Y034185D01*
X017250Y034200D01*
X017262Y034212D01*
X017276Y034222D01*
X017292Y034230D01*
X017308Y034235D01*
X017163Y035574D02*
X017165Y035618D01*
X017171Y035662D01*
X017181Y035705D01*
X017194Y035747D01*
X017211Y035788D01*
X017232Y035827D01*
X017256Y035864D01*
X017283Y035899D01*
X017313Y035931D01*
X017346Y035961D01*
X017382Y035987D01*
X017419Y036011D01*
X017459Y036030D01*
X017500Y036047D01*
X017543Y036059D01*
X017586Y036068D01*
X017630Y036073D01*
X017674Y036074D01*
X017718Y036071D01*
X017762Y036064D01*
X017805Y036053D01*
X017847Y036039D01*
X017887Y036021D01*
X017926Y035999D01*
X017962Y035975D01*
X017996Y035947D01*
X018028Y035916D01*
X018057Y035882D01*
X018083Y035846D01*
X018105Y035808D01*
X018124Y035768D01*
X018139Y035726D01*
X018151Y035684D01*
X018159Y035640D01*
X018163Y035596D01*
X018163Y035552D01*
X018159Y035508D01*
X018151Y035464D01*
X018139Y035422D01*
X018124Y035380D01*
X018105Y035340D01*
X018083Y035302D01*
X018057Y035266D01*
X018028Y035232D01*
X017996Y035201D01*
X017962Y035173D01*
X017926Y035149D01*
X017887Y035127D01*
X017847Y035109D01*
X017805Y035095D01*
X017762Y035084D01*
X017718Y035077D01*
X017674Y035074D01*
X017630Y035075D01*
X017586Y035080D01*
X017543Y035089D01*
X017500Y035101D01*
X017459Y035118D01*
X017419Y035137D01*
X017382Y035161D01*
X017346Y035187D01*
X017313Y035217D01*
X017283Y035249D01*
X017256Y035284D01*
X017232Y035321D01*
X017211Y035360D01*
X017194Y035401D01*
X017181Y035443D01*
X017171Y035486D01*
X017165Y035530D01*
X017163Y035574D01*
X024592Y029143D02*
X024592Y029003D01*
X024592Y029073D02*
X025013Y029073D01*
X025013Y029003D02*
X025013Y029143D01*
X024943Y028823D02*
X025013Y028753D01*
X025013Y028542D01*
X024592Y028542D01*
X024592Y028753D01*
X024662Y028823D01*
X024943Y028823D01*
X025013Y028362D02*
X025013Y028082D01*
X025013Y028222D02*
X024592Y028222D01*
X024803Y027762D02*
X024803Y027622D01*
X025013Y027622D02*
X025013Y027902D01*
X025013Y027622D02*
X024592Y027622D01*
X026651Y027493D02*
X026651Y026993D01*
X026901Y026743D01*
X026651Y026493D01*
X026651Y025993D01*
X026901Y025743D01*
X027401Y025743D01*
X027651Y025993D01*
X027651Y026493D01*
X027401Y026743D01*
X027651Y026993D01*
X027651Y027493D01*
X027401Y027743D01*
X027651Y027993D01*
X027651Y028493D01*
X027401Y028743D01*
X027651Y028993D01*
X027651Y029493D01*
X027401Y029743D01*
X027651Y029993D01*
X027651Y030493D01*
X027401Y030743D01*
X027651Y030993D01*
X027651Y031493D01*
X027401Y031743D01*
X026901Y031743D01*
X026651Y031493D01*
X026651Y030993D01*
X026901Y030743D01*
X026651Y030493D01*
X026651Y029993D01*
X026901Y029743D01*
X026651Y029493D01*
X026651Y028993D01*
X026901Y028743D01*
X026651Y028493D01*
X026651Y027993D01*
X026901Y027743D01*
X026651Y027493D01*
X017505Y014471D02*
X017505Y014314D01*
X017505Y014471D02*
X017348Y014471D01*
X016403Y014471D02*
X016245Y014471D01*
X016245Y014314D01*
X016245Y013369D02*
X016245Y013211D01*
X016403Y013211D01*
X017348Y013211D02*
X017505Y013369D01*
X025251Y003493D02*
X025901Y003493D01*
X025918Y003491D01*
X025935Y003487D01*
X025951Y003480D01*
X025965Y003470D01*
X025978Y003457D01*
X025988Y003443D01*
X025995Y003427D01*
X025999Y003410D01*
X026001Y003393D01*
X026001Y002793D02*
X025999Y002776D01*
X025995Y002759D01*
X025988Y002743D01*
X025978Y002729D01*
X025965Y002716D01*
X025951Y002706D01*
X025935Y002699D01*
X025918Y002695D01*
X025901Y002693D01*
X025251Y002693D01*
X025234Y002695D01*
X025217Y002699D01*
X025201Y002706D01*
X025187Y002716D01*
X025174Y002729D01*
X025164Y002743D01*
X025157Y002759D01*
X025153Y002776D01*
X025151Y002793D01*
X025151Y003393D02*
X025153Y003410D01*
X025157Y003427D01*
X025164Y003443D01*
X025174Y003457D01*
X025187Y003470D01*
X025201Y003480D01*
X025217Y003487D01*
X025234Y003491D01*
X025251Y003493D01*
D14*
X025207Y019003D03*
X024854Y019179D03*
X025553Y019173D03*
X025566Y020111D03*
X024860Y020118D03*
D15*
X024955Y020168D03*
X025459Y019123D03*
X025207Y019009D03*
D16*
X025207Y019015D03*
X025093Y019576D03*
X025326Y019715D03*
D17*
X025106Y019595D03*
X025207Y019022D03*
X025207Y020269D03*
D18*
X025207Y019028D03*
D19*
X025207Y019034D03*
X025207Y020256D03*
D20*
X025207Y019041D03*
D21*
X025207Y019047D03*
X025207Y020244D03*
D22*
X025207Y019053D03*
D23*
X025207Y019060D03*
D24*
X025207Y019066D03*
D25*
X025207Y019072D03*
D26*
X025207Y019078D03*
X025207Y020212D03*
D27*
X025191Y019677D03*
X025197Y019664D03*
X025210Y019645D03*
X025216Y019633D03*
X025210Y019085D03*
D28*
X025207Y019091D03*
D29*
X025207Y019097D03*
X025207Y020193D03*
D30*
X025207Y019104D03*
D31*
X025402Y019110D03*
X025011Y019110D03*
X025320Y019708D03*
D32*
X025090Y019563D03*
X024977Y019116D03*
X025437Y019116D03*
X025443Y020174D03*
X024971Y020174D03*
D33*
X025462Y020168D03*
X025336Y019734D03*
X025090Y019557D03*
X024958Y019123D03*
D34*
X025474Y019129D03*
X024939Y020162D03*
D35*
X025478Y020162D03*
X024942Y019129D03*
D36*
X024926Y019135D03*
X025487Y019135D03*
X025493Y020156D03*
D37*
X025503Y020149D03*
X024911Y020149D03*
X025503Y019141D03*
D38*
X025512Y019148D03*
X025084Y019545D03*
X025336Y019746D03*
X024914Y019141D03*
D39*
X024904Y019148D03*
X024892Y019154D03*
X024967Y019696D03*
X024898Y020143D03*
X025515Y020143D03*
D40*
X025525Y020137D03*
X025537Y020130D03*
X025456Y019595D03*
X025525Y019154D03*
X024889Y020137D03*
D41*
X024879Y020130D03*
X025207Y020288D03*
X025339Y019752D03*
X025547Y020124D03*
X025534Y019160D03*
X024879Y019160D03*
D42*
X024870Y019167D03*
X024863Y019173D03*
X025084Y019538D03*
X024952Y019702D03*
X024870Y020124D03*
X025462Y019589D03*
X025544Y019167D03*
X025556Y020118D03*
D43*
X025575Y020105D03*
X025582Y020099D03*
X025468Y019582D03*
X025569Y019186D03*
X025563Y019179D03*
X024845Y019186D03*
X024838Y019192D03*
X024945Y019708D03*
X024845Y020105D03*
X024851Y020111D03*
D44*
X024835Y020099D03*
X024829Y020093D03*
X025081Y019532D03*
X025345Y019759D03*
X025597Y020086D03*
X025591Y020093D03*
X025585Y019198D03*
X025578Y019192D03*
X024829Y019198D03*
X024822Y019204D03*
D45*
X024813Y019211D03*
X024807Y019217D03*
X024945Y019715D03*
X024813Y020080D03*
X024819Y020086D03*
X025600Y019211D03*
X025594Y019204D03*
D46*
X025610Y019217D03*
X025616Y019223D03*
X025622Y019230D03*
X025465Y019576D03*
X025616Y020067D03*
X025610Y020074D03*
X025604Y020080D03*
X024804Y020074D03*
X024797Y020067D03*
X024791Y020061D03*
X024785Y020055D03*
X024804Y019223D03*
D47*
X024794Y019230D03*
X024788Y019236D03*
X024782Y019242D03*
X024775Y019248D03*
X024782Y020048D03*
X025626Y020061D03*
X025632Y020055D03*
X025638Y020048D03*
X025626Y019236D03*
D48*
X025635Y019242D03*
X025641Y019248D03*
X025648Y019255D03*
X025654Y019261D03*
X025345Y019765D03*
X025081Y019526D03*
X024942Y019721D03*
X024759Y020030D03*
X024766Y020036D03*
X024772Y020042D03*
X024753Y019274D03*
X024759Y019267D03*
X024766Y019261D03*
X024772Y019255D03*
X025641Y020042D03*
X025648Y020036D03*
X025654Y020030D03*
X025660Y020023D03*
D49*
X025663Y020017D03*
X025670Y020011D03*
X025676Y020004D03*
X025468Y019570D03*
X025670Y019280D03*
X025663Y019274D03*
X025657Y019267D03*
X024750Y019280D03*
X024744Y019286D03*
X024737Y019293D03*
X024731Y019992D03*
X024737Y019998D03*
X024744Y020004D03*
X024744Y020011D03*
X024750Y020017D03*
X024756Y020023D03*
D50*
X024728Y019986D03*
X024722Y019979D03*
X024715Y019967D03*
X024709Y019960D03*
X024709Y019337D03*
X024715Y019324D03*
X024722Y019318D03*
X024728Y019311D03*
X024728Y019305D03*
X024734Y019299D03*
X025673Y019286D03*
X025679Y019293D03*
X025685Y019299D03*
X025685Y019305D03*
X025692Y019311D03*
X025704Y019330D03*
X025698Y019973D03*
X025692Y019986D03*
X025685Y019992D03*
X025679Y019998D03*
D51*
X025695Y019979D03*
X025701Y019967D03*
X025708Y019960D03*
X025714Y019948D03*
X025720Y019356D03*
X025714Y019343D03*
X025708Y019337D03*
X025701Y019324D03*
X025695Y019318D03*
X024945Y019727D03*
X024681Y019910D03*
X024687Y019923D03*
X024693Y019929D03*
X024693Y019935D03*
X024700Y019941D03*
X024700Y019948D03*
X024706Y019954D03*
X024719Y019973D03*
X024687Y019374D03*
X024693Y019362D03*
X024700Y019349D03*
X024706Y019343D03*
X024712Y019330D03*
D52*
X024697Y019356D03*
X024690Y019368D03*
X024684Y019381D03*
X024678Y019387D03*
X024678Y019393D03*
X024671Y019406D03*
X024665Y019419D03*
X024659Y019860D03*
X024665Y019872D03*
X024665Y019878D03*
X024671Y019885D03*
X024671Y019891D03*
X024678Y019897D03*
X024678Y019904D03*
X024684Y019916D03*
X025465Y019563D03*
X025748Y019412D03*
X025742Y019400D03*
X025736Y019387D03*
X025736Y019381D03*
X025730Y019374D03*
X025730Y019368D03*
X025723Y019362D03*
X025717Y019349D03*
X025748Y019885D03*
X025742Y019897D03*
X025736Y019910D03*
X025730Y019916D03*
X025730Y019923D03*
X025723Y019929D03*
X025723Y019935D03*
X025717Y019941D03*
X025711Y019954D03*
D53*
X025739Y019904D03*
X025745Y019891D03*
X025752Y019878D03*
X025752Y019872D03*
X025758Y019866D03*
X025758Y019860D03*
X025764Y019847D03*
X025764Y019841D03*
X025771Y019828D03*
X025771Y019822D03*
X025777Y019803D03*
X025771Y019469D03*
X025764Y019450D03*
X025758Y019437D03*
X025758Y019431D03*
X025752Y019425D03*
X025752Y019419D03*
X025745Y019406D03*
X025739Y019393D03*
X025348Y019771D03*
X024945Y019734D03*
X024649Y019828D03*
X024649Y019834D03*
X024649Y019841D03*
X024656Y019847D03*
X024656Y019853D03*
X024662Y019866D03*
X024643Y019822D03*
X024643Y019815D03*
X024643Y019809D03*
X024637Y019797D03*
X024637Y019790D03*
X024630Y019765D03*
X024630Y019532D03*
X024637Y019507D03*
X024637Y019500D03*
X024643Y019482D03*
X024643Y019475D03*
X024649Y019469D03*
X024649Y019463D03*
X024649Y019456D03*
X024656Y019450D03*
X024656Y019444D03*
X024656Y019437D03*
X024662Y019431D03*
X024662Y019425D03*
X024668Y019412D03*
X024674Y019400D03*
D54*
X024640Y019488D03*
X024640Y019494D03*
X024634Y019513D03*
X024634Y019519D03*
X024634Y019526D03*
X024627Y019538D03*
X024627Y019545D03*
X024627Y019551D03*
X024627Y019557D03*
X024627Y019563D03*
X024621Y019576D03*
X024621Y019582D03*
X024621Y019589D03*
X024621Y019595D03*
X024621Y019601D03*
X024621Y019608D03*
X024621Y019614D03*
X024621Y019620D03*
X024621Y019626D03*
X024621Y019633D03*
X024621Y019664D03*
X024621Y019671D03*
X024621Y019677D03*
X024621Y019683D03*
X024621Y019689D03*
X024621Y019696D03*
X024621Y019702D03*
X024621Y019708D03*
X024621Y019715D03*
X024621Y019721D03*
X024627Y019734D03*
X024627Y019740D03*
X024627Y019746D03*
X024627Y019752D03*
X024627Y019759D03*
X024634Y019771D03*
X024634Y019778D03*
X024634Y019784D03*
X024640Y019803D03*
X025081Y019519D03*
X025465Y019557D03*
X025774Y019488D03*
X025774Y019482D03*
X025774Y019475D03*
X025767Y019463D03*
X025767Y019456D03*
X025761Y019444D03*
X025780Y019494D03*
X025780Y019500D03*
X025780Y019507D03*
X025780Y019513D03*
X025786Y019519D03*
X025786Y019526D03*
X025786Y019532D03*
X025786Y019538D03*
X025793Y019557D03*
X025793Y019563D03*
X025793Y019570D03*
X025793Y019721D03*
X025793Y019727D03*
X025793Y019734D03*
X025786Y019759D03*
X025786Y019765D03*
X025786Y019771D03*
X025780Y019784D03*
X025780Y019790D03*
X025780Y019797D03*
X025774Y019809D03*
X025774Y019815D03*
X025767Y019834D03*
X025761Y019853D03*
D55*
X025449Y019513D03*
X024964Y019784D03*
D56*
X025081Y019513D03*
X025345Y019778D03*
D57*
X025452Y019519D03*
D58*
X025452Y019526D03*
D59*
X025456Y019532D03*
D60*
X025459Y019538D03*
X024955Y019759D03*
D61*
X024624Y019727D03*
X024618Y019658D03*
X024618Y019652D03*
X024618Y019645D03*
X024618Y019639D03*
X024624Y019570D03*
X025789Y019551D03*
X025789Y019545D03*
X025796Y019576D03*
X025796Y019582D03*
X025796Y019589D03*
X025796Y019595D03*
X025796Y019601D03*
X025796Y019608D03*
X025796Y019614D03*
X025796Y019620D03*
X025796Y019626D03*
X025796Y019633D03*
X025796Y019639D03*
X025796Y019645D03*
X025796Y019652D03*
X025796Y019658D03*
X025796Y019664D03*
X025796Y019671D03*
X025796Y019677D03*
X025796Y019683D03*
X025796Y019689D03*
X025796Y019696D03*
X025796Y019702D03*
X025796Y019708D03*
X025796Y019715D03*
X025789Y019740D03*
X025789Y019746D03*
X025789Y019752D03*
X025783Y019778D03*
D62*
X025462Y019545D03*
D63*
X025462Y019551D03*
D64*
X025339Y019740D03*
X025087Y019551D03*
X024923Y020156D03*
D65*
X025330Y019721D03*
X025090Y019570D03*
D66*
X025100Y019582D03*
X025207Y020275D03*
D67*
X025103Y019589D03*
D68*
X025229Y019614D03*
X025235Y019601D03*
D69*
X025232Y019608D03*
X025226Y019620D03*
X025219Y019626D03*
X025213Y019639D03*
X025207Y019652D03*
X025200Y019658D03*
X025194Y019671D03*
X025188Y019683D03*
X025182Y019689D03*
D70*
X025304Y019696D03*
D71*
X025317Y019702D03*
D72*
X025333Y019727D03*
X025207Y020282D03*
D73*
X024948Y019740D03*
D74*
X024948Y019746D03*
D75*
X024952Y019752D03*
D76*
X024958Y019765D03*
D77*
X024958Y019771D03*
D78*
X024961Y019778D03*
D79*
X025002Y020181D03*
X025411Y020181D03*
D80*
X025207Y020187D03*
D81*
X025207Y020200D03*
D82*
X025207Y020206D03*
D83*
X025210Y020219D03*
D84*
X025207Y020225D03*
D85*
X025207Y020231D03*
D86*
X025210Y020237D03*
D87*
X025207Y020250D03*
D88*
X025210Y020263D03*
D89*
X025210Y020899D03*
D90*
X025210Y018398D03*
D91*
X017427Y028369D02*
X017429Y028399D01*
X017435Y028429D01*
X017444Y028458D01*
X017457Y028485D01*
X017474Y028510D01*
X017493Y028533D01*
X017516Y028554D01*
X017541Y028571D01*
X017567Y028585D01*
X017596Y028595D01*
X017625Y028602D01*
X017655Y028605D01*
X017686Y028604D01*
X017716Y028599D01*
X017745Y028590D01*
X017772Y028578D01*
X017798Y028563D01*
X017822Y028544D01*
X017843Y028522D01*
X017861Y028498D01*
X017876Y028471D01*
X017887Y028443D01*
X017895Y028414D01*
X017899Y028384D01*
X017899Y028354D01*
X017895Y028324D01*
X017887Y028295D01*
X017876Y028267D01*
X017861Y028240D01*
X017843Y028216D01*
X017822Y028194D01*
X017798Y028175D01*
X017772Y028160D01*
X017745Y028148D01*
X017716Y028139D01*
X017686Y028134D01*
X017655Y028133D01*
X017625Y028136D01*
X017596Y028143D01*
X017567Y028153D01*
X017541Y028167D01*
X017516Y028184D01*
X017493Y028205D01*
X017474Y028228D01*
X017457Y028253D01*
X017444Y028280D01*
X017435Y028309D01*
X017429Y028339D01*
X017427Y028369D01*
D92*
X024631Y012109D02*
X024789Y012109D01*
X024789Y008881D02*
X024631Y008881D01*
X008312Y004452D02*
X008312Y004274D01*
X008312Y004452D02*
X008135Y004452D01*
X007190Y004452D02*
X007013Y004452D01*
X007013Y004274D01*
X007013Y002936D02*
X007013Y002857D01*
X007111Y002857D01*
X007111Y002759D01*
X007013Y002759D01*
X007013Y002857D01*
X007111Y002759D02*
X007190Y002759D01*
X008155Y002759D02*
X008312Y002759D01*
X008312Y002936D01*
D93*
X005002Y008295D03*
X005002Y008797D03*
X003426Y008797D03*
X003426Y008295D03*
D94*
X003226Y008500D03*
X003226Y008505D03*
X003231Y008521D03*
X003231Y008526D03*
X003231Y008531D03*
X003231Y008536D03*
X003231Y008541D03*
X003231Y008546D03*
X003231Y008551D03*
X003231Y008556D03*
X003231Y008561D03*
X003231Y008567D03*
X003231Y008572D03*
X003226Y008587D03*
X003226Y008592D03*
X003687Y008592D03*
X003687Y008587D03*
X003692Y008572D03*
X003692Y008567D03*
X003692Y008561D03*
X003692Y008556D03*
X003692Y008551D03*
X003692Y008546D03*
X003692Y008541D03*
X003692Y008536D03*
X003692Y008531D03*
X003692Y008526D03*
X003692Y008521D03*
X003687Y008505D03*
X003687Y008500D03*
X004158Y008485D03*
X004158Y008480D03*
X004158Y008474D03*
X004158Y008469D03*
X004158Y008464D03*
X004158Y008459D03*
X004158Y008454D03*
X004158Y008449D03*
X004158Y008444D03*
X004158Y008439D03*
X004158Y008434D03*
X004158Y008428D03*
X004158Y008423D03*
X004158Y008418D03*
X004158Y008413D03*
X004306Y008439D03*
X004306Y008444D03*
X004306Y008449D03*
X004306Y008454D03*
X004306Y008459D03*
X004158Y008608D03*
X004158Y008613D03*
X004158Y008618D03*
X004158Y008623D03*
X004158Y008628D03*
X004158Y008633D03*
X004158Y008638D03*
X004158Y008643D03*
X004158Y008648D03*
X004158Y008654D03*
X004158Y008659D03*
X004158Y008664D03*
X004158Y008669D03*
X004158Y008674D03*
X004158Y008679D03*
X004659Y008654D03*
X004659Y008648D03*
X004659Y008643D03*
X004659Y008638D03*
X004659Y008633D03*
X004802Y008633D03*
X004802Y008628D03*
X004802Y008623D03*
X004802Y008618D03*
X004802Y008613D03*
X004802Y008608D03*
X004802Y008602D03*
X004802Y008597D03*
X004802Y008592D03*
X004802Y008587D03*
X004802Y008582D03*
X004802Y008577D03*
X004802Y008572D03*
X004802Y008567D03*
X004802Y008561D03*
X004802Y008556D03*
X004802Y008551D03*
X004802Y008546D03*
X004802Y008541D03*
X004802Y008536D03*
X004802Y008531D03*
X004802Y008526D03*
X004802Y008521D03*
X004802Y008515D03*
X004802Y008510D03*
X004802Y008505D03*
X004802Y008500D03*
X004802Y008495D03*
X004802Y008490D03*
X004802Y008485D03*
X004802Y008480D03*
X004802Y008474D03*
X004802Y008469D03*
X004802Y008464D03*
X004802Y008459D03*
X004802Y008454D03*
X004802Y008449D03*
X004802Y008444D03*
X004802Y008439D03*
X004802Y008434D03*
X004802Y008428D03*
X004802Y008423D03*
X004802Y008418D03*
X004802Y008413D03*
X004802Y008408D03*
X004802Y008403D03*
X004802Y008398D03*
X004802Y008393D03*
X004802Y008387D03*
X004802Y008382D03*
X004802Y008377D03*
X004802Y008372D03*
X004802Y008367D03*
X004802Y008362D03*
X004802Y008357D03*
X004802Y008352D03*
X004802Y008347D03*
X004802Y008341D03*
X004802Y008336D03*
X004802Y008331D03*
X004802Y008326D03*
X004802Y008321D03*
X004802Y008316D03*
X004802Y008311D03*
X004802Y008306D03*
X004802Y008300D03*
X004802Y008295D03*
X004802Y008638D03*
X004802Y008643D03*
X004802Y008648D03*
X004802Y008654D03*
X004802Y008659D03*
X004802Y008664D03*
X004802Y008669D03*
X004802Y008674D03*
X004802Y008679D03*
X004802Y008684D03*
X004802Y008689D03*
X004802Y008695D03*
X004802Y008700D03*
X004802Y008705D03*
X004802Y008710D03*
X004802Y008715D03*
X004802Y008720D03*
X004802Y008725D03*
X004802Y008730D03*
X004802Y008736D03*
X004802Y008741D03*
X004802Y008746D03*
X004802Y008751D03*
X004802Y008756D03*
X004802Y008761D03*
X004802Y008766D03*
X004802Y008771D03*
X004802Y008776D03*
X004802Y008782D03*
X004802Y008787D03*
X004802Y008792D03*
X004802Y008797D03*
X005263Y008592D03*
X005263Y008587D03*
X005268Y008572D03*
X005268Y008567D03*
X005268Y008561D03*
X005268Y008556D03*
X005268Y008551D03*
X005268Y008546D03*
X005268Y008541D03*
X005268Y008536D03*
X005268Y008531D03*
X005268Y008526D03*
X005268Y008521D03*
X005263Y008505D03*
X005263Y008500D03*
X002847Y008500D03*
X002847Y008505D03*
X002842Y008521D03*
X002842Y008526D03*
X002842Y008531D03*
X002842Y008536D03*
X002842Y008541D03*
X002842Y008546D03*
X002842Y008551D03*
X002842Y008556D03*
X002842Y008561D03*
X002842Y008567D03*
X002842Y008572D03*
X002847Y008587D03*
X002847Y008592D03*
D95*
X003037Y008730D03*
X003037Y008362D03*
X003487Y008352D03*
X003487Y008741D03*
X004419Y008797D03*
X004547Y008295D03*
X005063Y008352D03*
X005063Y008741D03*
D96*
X004465Y008741D03*
X004465Y008746D03*
X004500Y008352D03*
X004500Y008347D03*
X003999Y008347D03*
X003999Y008352D03*
X003999Y008357D03*
X003999Y008362D03*
X003999Y008367D03*
X003999Y008372D03*
X003999Y008377D03*
X003999Y008382D03*
X003999Y008387D03*
X003999Y008393D03*
X003999Y008398D03*
X003999Y008403D03*
X003999Y008408D03*
X003999Y008341D03*
X003999Y008336D03*
X003999Y008331D03*
X003999Y008326D03*
X003999Y008321D03*
X003999Y008316D03*
X003999Y008311D03*
X003999Y008306D03*
X003999Y008300D03*
X003999Y008295D03*
X003999Y008684D03*
X003999Y008689D03*
X003999Y008695D03*
X003999Y008700D03*
X003999Y008705D03*
X003999Y008710D03*
X003999Y008715D03*
X003999Y008720D03*
X003999Y008725D03*
X003999Y008730D03*
X003999Y008736D03*
X003999Y008741D03*
X003999Y008746D03*
X003999Y008751D03*
X003999Y008756D03*
X003999Y008761D03*
X003999Y008766D03*
X003999Y008771D03*
X003999Y008776D03*
X003999Y008782D03*
X003999Y008787D03*
X003999Y008792D03*
X003999Y008797D03*
D97*
X003037Y008797D03*
X003037Y008295D03*
D98*
X003438Y008300D03*
X003438Y008792D03*
X005015Y008792D03*
X005015Y008300D03*
D99*
X005074Y008372D03*
X005074Y008720D03*
X004429Y008792D03*
X004035Y008602D03*
X004035Y008597D03*
X004035Y008592D03*
X004035Y008587D03*
X004035Y008582D03*
X004035Y008577D03*
X004035Y008572D03*
X004035Y008567D03*
X004035Y008561D03*
X004035Y008556D03*
X004035Y008551D03*
X004035Y008546D03*
X004035Y008541D03*
X004035Y008536D03*
X004035Y008531D03*
X004035Y008526D03*
X004035Y008521D03*
X004035Y008515D03*
X004035Y008510D03*
X004035Y008505D03*
X004035Y008500D03*
X004035Y008495D03*
X004035Y008490D03*
X004536Y008300D03*
X003497Y008372D03*
X003497Y008720D03*
X003037Y008720D03*
X003037Y008725D03*
X003037Y008372D03*
X003037Y008367D03*
D100*
X003037Y008300D03*
X003211Y008464D03*
X003216Y008474D03*
X003221Y008485D03*
X003221Y008608D03*
X003216Y008618D03*
X003211Y008628D03*
X003037Y008792D03*
X002863Y008628D03*
X002858Y008618D03*
X002852Y008608D03*
X002852Y008485D03*
X002858Y008474D03*
X002863Y008464D03*
X003671Y008464D03*
X003676Y008474D03*
X003682Y008485D03*
X003682Y008608D03*
X003676Y008618D03*
X003671Y008628D03*
X004311Y008474D03*
X004316Y008480D03*
X004311Y008423D03*
X004316Y008418D03*
X004649Y008613D03*
X004654Y008618D03*
X004654Y008669D03*
X004649Y008674D03*
X005248Y008628D03*
X005253Y008618D03*
X005258Y008608D03*
X005258Y008485D03*
X005253Y008474D03*
X005248Y008464D03*
D101*
X005022Y008306D03*
X005022Y008787D03*
X003446Y008787D03*
X003446Y008306D03*
D102*
X003505Y008387D03*
X003505Y008705D03*
X004436Y008787D03*
X004518Y008587D03*
X004447Y008505D03*
X004529Y008306D03*
X005081Y008387D03*
X005081Y008705D03*
D103*
X003037Y008787D03*
X003037Y008306D03*
D104*
X003454Y008311D03*
X003454Y008782D03*
X005030Y008782D03*
X005030Y008311D03*
D105*
X005086Y008398D03*
X005086Y008403D03*
X005086Y008689D03*
X005086Y008695D03*
X004513Y008582D03*
X004508Y008577D03*
X004457Y008515D03*
X004452Y008510D03*
X004523Y008311D03*
X004442Y008782D03*
X003510Y008695D03*
X003510Y008689D03*
X003510Y008403D03*
X003510Y008398D03*
D106*
X003620Y008413D03*
X003620Y008679D03*
X003159Y008679D03*
X003037Y008782D03*
X002914Y008679D03*
X002914Y008413D03*
X003037Y008311D03*
X003159Y008413D03*
X005197Y008413D03*
X005197Y008679D03*
D107*
X005035Y008776D03*
X005035Y008316D03*
X003459Y008316D03*
X003459Y008776D03*
D108*
X004447Y008776D03*
X004498Y008567D03*
X004483Y008546D03*
X004467Y008526D03*
X004518Y008316D03*
D109*
X003037Y008316D03*
X003037Y008776D03*
D110*
X003464Y008771D03*
X003464Y008321D03*
X005040Y008321D03*
X005040Y008771D03*
D111*
X004495Y008561D03*
X004490Y008556D03*
X004485Y008551D03*
X004480Y008541D03*
X004475Y008536D03*
X004470Y008531D03*
X004516Y008321D03*
X004449Y008771D03*
X003037Y008700D03*
X003037Y008393D03*
D112*
X003037Y008321D03*
X003037Y008771D03*
D113*
X003469Y008766D03*
X003469Y008326D03*
X005046Y008326D03*
X005046Y008766D03*
D114*
X004452Y008766D03*
X004513Y008326D03*
D115*
X003037Y008326D03*
X003037Y008766D03*
D116*
X003474Y008761D03*
X003474Y008331D03*
X005051Y008331D03*
X005051Y008761D03*
D117*
X004457Y008761D03*
X004508Y008331D03*
D118*
X003037Y008331D03*
X003037Y008761D03*
D119*
X003037Y008741D03*
X003037Y008352D03*
X003477Y008336D03*
X003477Y008756D03*
X005053Y008756D03*
X005053Y008336D03*
D120*
X004506Y008336D03*
X004459Y008756D03*
X003037Y008684D03*
X003037Y008408D03*
D121*
X003037Y008336D03*
X003037Y008756D03*
D122*
X003037Y008736D03*
X003037Y008357D03*
X003482Y008341D03*
X003482Y008751D03*
X005058Y008751D03*
X005058Y008341D03*
D123*
X004503Y008341D03*
X004462Y008751D03*
D124*
X003037Y008751D03*
X003037Y008341D03*
D125*
X003484Y008347D03*
X003484Y008746D03*
X004421Y008490D03*
X004544Y008602D03*
X005061Y008746D03*
X005061Y008347D03*
D126*
X003037Y008347D03*
X003037Y008746D03*
D127*
X003490Y008736D03*
X003490Y008357D03*
X005066Y008357D03*
X005066Y008736D03*
D128*
X004467Y008736D03*
X004498Y008357D03*
D129*
X005069Y008362D03*
X005069Y008730D03*
X003492Y008730D03*
X003492Y008362D03*
D130*
X004495Y008362D03*
X004470Y008730D03*
D131*
X004534Y008597D03*
X004431Y008495D03*
X005071Y008367D03*
X005071Y008725D03*
X003495Y008725D03*
X003495Y008367D03*
D132*
X004493Y008367D03*
X004493Y008372D03*
X004472Y008720D03*
X004472Y008725D03*
D133*
X004523Y008592D03*
X004442Y008500D03*
X005076Y008377D03*
X005076Y008715D03*
X003500Y008715D03*
X003500Y008377D03*
D134*
X004490Y008377D03*
X004490Y008382D03*
X004475Y008710D03*
X004475Y008715D03*
D135*
X005079Y008710D03*
X005079Y008382D03*
X003502Y008382D03*
X003502Y008710D03*
X003037Y008715D03*
X003037Y008377D03*
D136*
X003037Y008382D03*
X003037Y008710D03*
X003508Y008700D03*
X003508Y008393D03*
X005084Y008393D03*
X005084Y008700D03*
D137*
X004477Y008700D03*
X004477Y008705D03*
X004477Y008695D03*
X004488Y008398D03*
X004488Y008393D03*
X004488Y008387D03*
D138*
X004459Y008521D03*
X004506Y008572D03*
X005089Y008684D03*
X005089Y008408D03*
X003513Y008408D03*
X003513Y008684D03*
X003037Y008705D03*
X003037Y008387D03*
D139*
X003037Y008398D03*
X003037Y008403D03*
X003037Y008689D03*
X003037Y008695D03*
D140*
X004480Y008689D03*
X004480Y008684D03*
X004485Y008408D03*
X004485Y008403D03*
D141*
X004321Y008413D03*
X004321Y008485D03*
X004644Y008608D03*
X004644Y008679D03*
X005237Y008643D03*
X005243Y008638D03*
X005243Y008454D03*
X005237Y008449D03*
X003666Y008454D03*
X003661Y008449D03*
X003666Y008638D03*
X003661Y008643D03*
X003206Y008638D03*
X003200Y008643D03*
X003206Y008454D03*
X003200Y008449D03*
X002873Y008449D03*
X002868Y008454D03*
X002868Y008638D03*
X002873Y008643D03*
D142*
X003167Y008674D03*
X003167Y008418D03*
X003628Y008418D03*
X003628Y008674D03*
X005204Y008674D03*
X005204Y008418D03*
D143*
X002904Y008418D03*
X002904Y008674D03*
D144*
X002896Y008669D03*
X002896Y008423D03*
X003177Y008423D03*
X003177Y008669D03*
X003638Y008669D03*
X003638Y008423D03*
X005214Y008423D03*
X005214Y008669D03*
D145*
X005220Y008664D03*
X005225Y008659D03*
X005225Y008434D03*
X005220Y008428D03*
X003648Y008434D03*
X003643Y008428D03*
X003648Y008659D03*
X003643Y008664D03*
X003188Y008659D03*
X003183Y008664D03*
X003188Y008434D03*
X003183Y008428D03*
X002891Y008428D03*
X002886Y008434D03*
X002886Y008659D03*
X002891Y008664D03*
D146*
X002855Y008613D03*
X002850Y008602D03*
X002850Y008597D03*
X002845Y008582D03*
X002845Y008577D03*
X002845Y008515D03*
X002845Y008510D03*
X002850Y008495D03*
X002850Y008490D03*
X002855Y008480D03*
X003218Y008480D03*
X003223Y008490D03*
X003223Y008495D03*
X003229Y008510D03*
X003229Y008515D03*
X003229Y008577D03*
X003229Y008582D03*
X003223Y008597D03*
X003223Y008602D03*
X003218Y008613D03*
X003679Y008613D03*
X003684Y008602D03*
X003684Y008597D03*
X003689Y008582D03*
X003689Y008577D03*
X003689Y008515D03*
X003689Y008510D03*
X003684Y008495D03*
X003684Y008490D03*
X003679Y008480D03*
X004309Y008469D03*
X004309Y008464D03*
X004309Y008434D03*
X004309Y008428D03*
X004657Y008623D03*
X004657Y008628D03*
X004657Y008659D03*
X004657Y008664D03*
X005255Y008613D03*
X005260Y008602D03*
X005260Y008597D03*
X005266Y008582D03*
X005266Y008577D03*
X005266Y008515D03*
X005266Y008510D03*
X005260Y008495D03*
X005260Y008490D03*
X005255Y008480D03*
D147*
X005235Y008444D03*
X005230Y008439D03*
X005235Y008648D03*
X005230Y008654D03*
X003659Y008648D03*
X003653Y008654D03*
X003659Y008444D03*
X003653Y008439D03*
X003198Y008444D03*
X003193Y008439D03*
X003198Y008648D03*
X003193Y008654D03*
X002881Y008654D03*
X002875Y008648D03*
X002875Y008444D03*
X002881Y008439D03*
D148*
X002865Y008459D03*
X002860Y008469D03*
X002860Y008623D03*
X002865Y008633D03*
X003208Y008633D03*
X003213Y008623D03*
X003213Y008469D03*
X003208Y008459D03*
X003669Y008459D03*
X003674Y008469D03*
X003674Y008623D03*
X003669Y008633D03*
X005245Y008633D03*
X005250Y008623D03*
X005250Y008469D03*
X005245Y008459D03*
D149*
X009188Y019747D02*
X009188Y019983D01*
X009680Y019983D02*
X009680Y019747D01*
X009818Y019747D02*
X009818Y019983D01*
X010310Y019983D02*
X010310Y019747D01*
X021393Y021243D02*
X021393Y021479D01*
X021885Y021479D02*
X021885Y021243D01*
X022062Y021204D02*
X022062Y021440D01*
X022554Y021440D02*
X022554Y021204D01*
D150*
X022308Y021322D03*
X021639Y021361D03*
X010064Y019865D03*
X009434Y019865D03*
D151*
X009631Y004176D03*
D152*
X008814Y003900D02*
X008814Y003507D01*
X010448Y003507D02*
X010448Y003900D01*
X007308Y022601D02*
X006915Y022601D01*
X006876Y022603D01*
X006838Y022609D01*
X006801Y022618D01*
X006764Y022631D01*
X006729Y022648D01*
X006696Y022667D01*
X006665Y022690D01*
X006636Y022716D01*
X006610Y022745D01*
X006587Y022776D01*
X006568Y022809D01*
X006551Y022844D01*
X006538Y022881D01*
X006529Y022918D01*
X006523Y022956D01*
X006521Y022995D01*
X006521Y028113D01*
X006523Y028152D01*
X006529Y028190D01*
X006538Y028227D01*
X006551Y028264D01*
X006568Y028299D01*
X006587Y028332D01*
X006610Y028363D01*
X006636Y028392D01*
X006665Y028418D01*
X006696Y028441D01*
X006729Y028460D01*
X006764Y028477D01*
X006801Y028490D01*
X006838Y028499D01*
X006876Y028505D01*
X006915Y028507D01*
X007308Y028507D01*
M02*
