G75*
G70*
%OFA0B0*%
%FSLAX24Y24*%
%IPPOS*%
%LPD*%
%AMOC8*
5,1,8,0,0,1.08239X$1,22.5*
%
%ADD10C,0.0050*%
%ADD11C,0.0000*%
D10*
X004395Y004672D02*
X013450Y004672D01*
X013476Y004674D01*
X013501Y004679D01*
X013525Y004687D01*
X013548Y004698D01*
X013570Y004713D01*
X013589Y004730D01*
X013606Y004749D01*
X013621Y004770D01*
X013632Y004794D01*
X013640Y004818D01*
X013645Y004843D01*
X013647Y004869D01*
X013647Y006050D01*
X013649Y006076D01*
X013654Y006101D01*
X013662Y006125D01*
X013673Y006149D01*
X013688Y006170D01*
X013705Y006189D01*
X013724Y006206D01*
X013745Y006221D01*
X013769Y006232D01*
X013793Y006240D01*
X013818Y006245D01*
X013844Y006247D01*
X023096Y006247D01*
X023122Y006245D01*
X023147Y006240D01*
X023171Y006232D01*
X023195Y006221D01*
X023216Y006206D01*
X023235Y006189D01*
X023252Y006170D01*
X023267Y006148D01*
X023278Y006125D01*
X023286Y006101D01*
X023291Y006076D01*
X023293Y006050D01*
X023293Y004869D01*
X023292Y004869D02*
X023294Y004843D01*
X023299Y004818D01*
X023307Y004794D01*
X023318Y004771D01*
X023333Y004749D01*
X023350Y004730D01*
X023369Y004713D01*
X023390Y004698D01*
X023414Y004687D01*
X023438Y004679D01*
X023463Y004674D01*
X023489Y004672D01*
X028017Y004672D01*
X004395Y004672D02*
X003871Y005611D01*
X003391Y006574D01*
X002958Y007559D01*
X002573Y008563D01*
X002236Y009585D01*
X001948Y010622D01*
X001710Y011671D01*
X001522Y012730D01*
X001385Y013797D01*
X001299Y014870D01*
X001265Y015945D01*
X001282Y017020D01*
X001350Y018094D01*
X001469Y019163D01*
X001640Y020225D01*
X001861Y021278D01*
X002131Y022319D01*
X002452Y023346D01*
X002821Y024357D01*
X026442Y024357D02*
X026811Y025368D01*
X027132Y026395D01*
X027402Y027436D01*
X027623Y028489D01*
X027794Y029551D01*
X027913Y030620D01*
X027981Y031694D01*
X027998Y032769D01*
X027964Y033844D01*
X027878Y034917D01*
X027741Y035984D01*
X027553Y037043D01*
X027315Y038092D01*
X027027Y039129D01*
X026690Y040151D01*
X026305Y041155D01*
X025872Y042140D01*
X025392Y043103D01*
X024868Y044042D01*
X024867Y044042D02*
X001245Y044042D01*
X001246Y044042D02*
X001770Y043103D01*
X002250Y042140D01*
X002683Y041155D01*
X003068Y040151D01*
X003405Y039129D01*
X003693Y038092D01*
X003931Y037043D01*
X004119Y035984D01*
X004256Y034917D01*
X004342Y033844D01*
X004376Y032769D01*
X004359Y031694D01*
X004291Y030620D01*
X004172Y029551D01*
X004001Y028489D01*
X003780Y027436D01*
X003510Y026395D01*
X003189Y025368D01*
X002820Y024357D01*
X026443Y024357D02*
X026074Y023346D01*
X025753Y022319D01*
X025483Y021278D01*
X025262Y020225D01*
X025091Y019163D01*
X024972Y018094D01*
X024904Y017020D01*
X024887Y015945D01*
X024921Y014870D01*
X025007Y013797D01*
X025144Y012730D01*
X025332Y011671D01*
X025570Y010622D01*
X025858Y009585D01*
X026195Y008563D01*
X026580Y007559D01*
X027013Y006574D01*
X027493Y005611D01*
X028017Y004672D01*
D11*
X019466Y040363D02*
X019468Y040387D01*
X019474Y040410D01*
X019483Y040432D01*
X019496Y040452D01*
X019511Y040470D01*
X019530Y040485D01*
X019551Y040497D01*
X019573Y040505D01*
X019596Y040510D01*
X019620Y040511D01*
X019644Y040508D01*
X019666Y040501D01*
X019688Y040491D01*
X019708Y040478D01*
X019725Y040461D01*
X019739Y040442D01*
X019750Y040421D01*
X019758Y040398D01*
X019762Y040375D01*
X019762Y040351D01*
X019758Y040328D01*
X019750Y040305D01*
X019739Y040284D01*
X019725Y040265D01*
X019708Y040248D01*
X019688Y040235D01*
X019666Y040225D01*
X019644Y040218D01*
X019620Y040215D01*
X019596Y040216D01*
X019573Y040221D01*
X019551Y040229D01*
X019530Y040241D01*
X019511Y040256D01*
X019496Y040274D01*
X019483Y040294D01*
X019474Y040316D01*
X019468Y040339D01*
X019466Y040363D01*
X020465Y041421D02*
X020467Y041449D01*
X020473Y041477D01*
X020482Y041503D01*
X020495Y041529D01*
X020511Y041552D01*
X020531Y041572D01*
X020553Y041590D01*
X020577Y041605D01*
X020603Y041616D01*
X020630Y041624D01*
X020658Y041628D01*
X020686Y041628D01*
X020714Y041624D01*
X020741Y041616D01*
X020767Y041605D01*
X020791Y041590D01*
X020813Y041572D01*
X020833Y041552D01*
X020849Y041529D01*
X020862Y041503D01*
X020871Y041477D01*
X020877Y041449D01*
X020879Y041421D01*
X020877Y041393D01*
X020871Y041365D01*
X020862Y041339D01*
X020849Y041313D01*
X020833Y041290D01*
X020813Y041270D01*
X020791Y041252D01*
X020767Y041237D01*
X020741Y041226D01*
X020714Y041218D01*
X020686Y041214D01*
X020658Y041214D01*
X020630Y041218D01*
X020603Y041226D01*
X020577Y041237D01*
X020553Y041252D01*
X020531Y041270D01*
X020511Y041290D01*
X020495Y041313D01*
X020482Y041339D01*
X020473Y041365D01*
X020467Y041393D01*
X020465Y041421D01*
X023194Y042546D02*
X023196Y042605D01*
X023202Y042664D01*
X023212Y042722D01*
X023225Y042780D01*
X023243Y042837D01*
X023264Y042892D01*
X023289Y042946D01*
X023318Y042998D01*
X023350Y043047D01*
X023385Y043095D01*
X023423Y043140D01*
X023464Y043183D01*
X023508Y043223D01*
X023554Y043259D01*
X023603Y043293D01*
X023654Y043323D01*
X023707Y043350D01*
X023762Y043373D01*
X023817Y043392D01*
X023875Y043408D01*
X023933Y043420D01*
X023991Y043428D01*
X024050Y043432D01*
X024110Y043432D01*
X024169Y043428D01*
X024227Y043420D01*
X024285Y043408D01*
X024343Y043392D01*
X024398Y043373D01*
X024453Y043350D01*
X024506Y043323D01*
X024557Y043293D01*
X024606Y043259D01*
X024652Y043223D01*
X024696Y043183D01*
X024737Y043140D01*
X024775Y043095D01*
X024810Y043047D01*
X024842Y042998D01*
X024871Y042946D01*
X024896Y042892D01*
X024917Y042837D01*
X024935Y042780D01*
X024948Y042722D01*
X024958Y042664D01*
X024964Y042605D01*
X024966Y042546D01*
X024964Y042487D01*
X024958Y042428D01*
X024948Y042370D01*
X024935Y042312D01*
X024917Y042255D01*
X024896Y042200D01*
X024871Y042146D01*
X024842Y042094D01*
X024810Y042045D01*
X024775Y041997D01*
X024737Y041952D01*
X024696Y041909D01*
X024652Y041869D01*
X024606Y041833D01*
X024557Y041799D01*
X024506Y041769D01*
X024453Y041742D01*
X024398Y041719D01*
X024343Y041700D01*
X024285Y041684D01*
X024227Y041672D01*
X024169Y041664D01*
X024110Y041660D01*
X024050Y041660D01*
X023991Y041664D01*
X023933Y041672D01*
X023875Y041684D01*
X023817Y041700D01*
X023762Y041719D01*
X023707Y041742D01*
X023654Y041769D01*
X023603Y041799D01*
X023554Y041833D01*
X023508Y041869D01*
X023464Y041909D01*
X023423Y041952D01*
X023385Y041997D01*
X023350Y042045D01*
X023318Y042094D01*
X023289Y042146D01*
X023264Y042200D01*
X023243Y042255D01*
X023225Y042312D01*
X023212Y042370D01*
X023202Y042428D01*
X023196Y042487D01*
X023194Y042546D01*
X004296Y042546D02*
X004298Y042605D01*
X004304Y042664D01*
X004314Y042722D01*
X004327Y042780D01*
X004345Y042837D01*
X004366Y042892D01*
X004391Y042946D01*
X004420Y042998D01*
X004452Y043047D01*
X004487Y043095D01*
X004525Y043140D01*
X004566Y043183D01*
X004610Y043223D01*
X004656Y043259D01*
X004705Y043293D01*
X004756Y043323D01*
X004809Y043350D01*
X004864Y043373D01*
X004919Y043392D01*
X004977Y043408D01*
X005035Y043420D01*
X005093Y043428D01*
X005152Y043432D01*
X005212Y043432D01*
X005271Y043428D01*
X005329Y043420D01*
X005387Y043408D01*
X005445Y043392D01*
X005500Y043373D01*
X005555Y043350D01*
X005608Y043323D01*
X005659Y043293D01*
X005708Y043259D01*
X005754Y043223D01*
X005798Y043183D01*
X005839Y043140D01*
X005877Y043095D01*
X005912Y043047D01*
X005944Y042998D01*
X005973Y042946D01*
X005998Y042892D01*
X006019Y042837D01*
X006037Y042780D01*
X006050Y042722D01*
X006060Y042664D01*
X006066Y042605D01*
X006068Y042546D01*
X006066Y042487D01*
X006060Y042428D01*
X006050Y042370D01*
X006037Y042312D01*
X006019Y042255D01*
X005998Y042200D01*
X005973Y042146D01*
X005944Y042094D01*
X005912Y042045D01*
X005877Y041997D01*
X005839Y041952D01*
X005798Y041909D01*
X005754Y041869D01*
X005708Y041833D01*
X005659Y041799D01*
X005608Y041769D01*
X005555Y041742D01*
X005500Y041719D01*
X005445Y041700D01*
X005387Y041684D01*
X005329Y041672D01*
X005271Y041664D01*
X005212Y041660D01*
X005152Y041660D01*
X005093Y041664D01*
X005035Y041672D01*
X004977Y041684D01*
X004919Y041700D01*
X004864Y041719D01*
X004809Y041742D01*
X004756Y041769D01*
X004705Y041799D01*
X004656Y041833D01*
X004610Y041869D01*
X004566Y041909D01*
X004525Y041952D01*
X004487Y041997D01*
X004452Y042045D01*
X004420Y042094D01*
X004391Y042146D01*
X004366Y042200D01*
X004345Y042255D01*
X004327Y042312D01*
X004314Y042370D01*
X004304Y042428D01*
X004298Y042487D01*
X004296Y042546D01*
X004553Y010124D02*
X004555Y010150D01*
X004561Y010176D01*
X004571Y010201D01*
X004584Y010224D01*
X004600Y010244D01*
X004620Y010262D01*
X004642Y010277D01*
X004665Y010289D01*
X004691Y010297D01*
X004717Y010301D01*
X004743Y010301D01*
X004769Y010297D01*
X004795Y010289D01*
X004819Y010277D01*
X004840Y010262D01*
X004860Y010244D01*
X004876Y010224D01*
X004889Y010201D01*
X004899Y010176D01*
X004905Y010150D01*
X004907Y010124D01*
X004905Y010098D01*
X004899Y010072D01*
X004889Y010047D01*
X004876Y010024D01*
X004860Y010004D01*
X004840Y009986D01*
X004818Y009971D01*
X004795Y009959D01*
X004769Y009951D01*
X004743Y009947D01*
X004717Y009947D01*
X004691Y009951D01*
X004665Y009959D01*
X004641Y009971D01*
X004620Y009986D01*
X004600Y010004D01*
X004584Y010024D01*
X004571Y010047D01*
X004561Y010072D01*
X004555Y010098D01*
X004553Y010124D01*
X003371Y010124D02*
X003373Y010150D01*
X003379Y010176D01*
X003389Y010201D01*
X003402Y010224D01*
X003418Y010244D01*
X003438Y010262D01*
X003460Y010277D01*
X003483Y010289D01*
X003509Y010297D01*
X003535Y010301D01*
X003561Y010301D01*
X003587Y010297D01*
X003613Y010289D01*
X003637Y010277D01*
X003658Y010262D01*
X003678Y010244D01*
X003694Y010224D01*
X003707Y010201D01*
X003717Y010176D01*
X003723Y010150D01*
X003725Y010124D01*
X003723Y010098D01*
X003717Y010072D01*
X003707Y010047D01*
X003694Y010024D01*
X003678Y010004D01*
X003658Y009986D01*
X003636Y009971D01*
X003613Y009959D01*
X003587Y009951D01*
X003561Y009947D01*
X003535Y009947D01*
X003509Y009951D01*
X003483Y009959D01*
X003459Y009971D01*
X003438Y009986D01*
X003418Y010004D01*
X003402Y010024D01*
X003389Y010047D01*
X003379Y010072D01*
X003373Y010098D01*
X003371Y010124D01*
M02*
