G75*
G70*
%OFA0B0*%
%FSLAX24Y24*%
%IPPOS*%
%LPD*%
%AMOC8*
5,1,8,0,0,1.08239X$1,22.5*
%
%ADD10C,0.0050*%
%ADD11C,0.0000*%
D10*
X004395Y000633D02*
X013450Y000633D01*
X013476Y000635D01*
X013501Y000640D01*
X013525Y000648D01*
X013548Y000659D01*
X013570Y000674D01*
X013589Y000691D01*
X013606Y000710D01*
X013621Y000731D01*
X013632Y000755D01*
X013640Y000779D01*
X013645Y000804D01*
X013647Y000830D01*
X013647Y002011D01*
X013649Y002037D01*
X013654Y002062D01*
X013662Y002086D01*
X013673Y002110D01*
X013688Y002131D01*
X013705Y002150D01*
X013724Y002167D01*
X013745Y002182D01*
X013769Y002193D01*
X013793Y002201D01*
X013818Y002206D01*
X013844Y002208D01*
X013844Y002207D02*
X023096Y002207D01*
X023096Y002208D02*
X023122Y002206D01*
X023147Y002201D01*
X023171Y002193D01*
X023195Y002182D01*
X023216Y002167D01*
X023235Y002150D01*
X023252Y002131D01*
X023267Y002109D01*
X023278Y002086D01*
X023286Y002062D01*
X023291Y002037D01*
X023293Y002011D01*
X023293Y000830D01*
X023292Y000830D02*
X023294Y000804D01*
X023299Y000779D01*
X023307Y000755D01*
X023318Y000732D01*
X023333Y000710D01*
X023350Y000691D01*
X023369Y000674D01*
X023390Y000659D01*
X023414Y000648D01*
X023438Y000640D01*
X023463Y000635D01*
X023489Y000633D01*
X028017Y000633D01*
X004395Y000633D02*
X003871Y001572D01*
X003391Y002535D01*
X002958Y003520D01*
X002573Y004524D01*
X002236Y005546D01*
X001948Y006583D01*
X001710Y007632D01*
X001522Y008691D01*
X001385Y009758D01*
X001299Y010831D01*
X001265Y011906D01*
X001282Y012981D01*
X001350Y014055D01*
X001469Y015124D01*
X001640Y016186D01*
X001861Y017239D01*
X002131Y018280D01*
X002452Y019307D01*
X002821Y020318D01*
X026442Y020318D02*
X026811Y021329D01*
X027132Y022356D01*
X027402Y023397D01*
X027623Y024450D01*
X027794Y025512D01*
X027913Y026581D01*
X027981Y027655D01*
X027998Y028730D01*
X027964Y029805D01*
X027878Y030878D01*
X027741Y031945D01*
X027553Y033004D01*
X027315Y034053D01*
X027027Y035090D01*
X026690Y036112D01*
X026305Y037116D01*
X025872Y038101D01*
X025392Y039064D01*
X024868Y040003D01*
X024867Y040003D02*
X001245Y040003D01*
X001246Y040003D02*
X001770Y039064D01*
X002250Y038101D01*
X002683Y037116D01*
X003068Y036112D01*
X003405Y035090D01*
X003693Y034053D01*
X003931Y033004D01*
X004119Y031945D01*
X004256Y030878D01*
X004342Y029805D01*
X004376Y028730D01*
X004359Y027655D01*
X004291Y026581D01*
X004172Y025512D01*
X004001Y024450D01*
X003780Y023397D01*
X003510Y022356D01*
X003189Y021329D01*
X002820Y020318D01*
X026443Y020318D02*
X026074Y019307D01*
X025753Y018280D01*
X025483Y017239D01*
X025262Y016186D01*
X025091Y015124D01*
X024972Y014055D01*
X024904Y012981D01*
X024887Y011906D01*
X024921Y010831D01*
X025007Y009758D01*
X025144Y008691D01*
X025332Y007632D01*
X025570Y006583D01*
X025858Y005546D01*
X026195Y004524D01*
X026580Y003520D01*
X027013Y002535D01*
X027493Y001572D01*
X028017Y000633D01*
D11*
X020647Y036324D02*
X020649Y036348D01*
X020655Y036371D01*
X020664Y036393D01*
X020677Y036413D01*
X020692Y036431D01*
X020711Y036446D01*
X020732Y036458D01*
X020754Y036466D01*
X020777Y036471D01*
X020801Y036472D01*
X020825Y036469D01*
X020847Y036462D01*
X020869Y036452D01*
X020889Y036439D01*
X020906Y036422D01*
X020920Y036403D01*
X020931Y036382D01*
X020939Y036359D01*
X020943Y036336D01*
X020943Y036312D01*
X020939Y036289D01*
X020931Y036266D01*
X020920Y036245D01*
X020906Y036226D01*
X020889Y036209D01*
X020869Y036196D01*
X020847Y036186D01*
X020825Y036179D01*
X020801Y036176D01*
X020777Y036177D01*
X020754Y036182D01*
X020732Y036190D01*
X020711Y036202D01*
X020692Y036217D01*
X020677Y036235D01*
X020664Y036255D01*
X020655Y036277D01*
X020649Y036300D01*
X020647Y036324D01*
X021646Y037382D02*
X021648Y037410D01*
X021654Y037438D01*
X021663Y037464D01*
X021676Y037490D01*
X021692Y037513D01*
X021712Y037533D01*
X021734Y037551D01*
X021758Y037566D01*
X021784Y037577D01*
X021811Y037585D01*
X021839Y037589D01*
X021867Y037589D01*
X021895Y037585D01*
X021922Y037577D01*
X021948Y037566D01*
X021972Y037551D01*
X021994Y037533D01*
X022014Y037513D01*
X022030Y037490D01*
X022043Y037464D01*
X022052Y037438D01*
X022058Y037410D01*
X022060Y037382D01*
X022058Y037354D01*
X022052Y037326D01*
X022043Y037300D01*
X022030Y037274D01*
X022014Y037251D01*
X021994Y037231D01*
X021972Y037213D01*
X021948Y037198D01*
X021922Y037187D01*
X021895Y037179D01*
X021867Y037175D01*
X021839Y037175D01*
X021811Y037179D01*
X021784Y037187D01*
X021758Y037198D01*
X021734Y037213D01*
X021712Y037231D01*
X021692Y037251D01*
X021676Y037274D01*
X021663Y037300D01*
X021654Y037326D01*
X021648Y037354D01*
X021646Y037382D01*
X013647Y037719D02*
X013649Y037781D01*
X013655Y037844D01*
X013665Y037905D01*
X013679Y037966D01*
X013696Y038026D01*
X013717Y038085D01*
X013743Y038142D01*
X013771Y038197D01*
X013803Y038251D01*
X013839Y038302D01*
X013877Y038352D01*
X013919Y038398D01*
X013963Y038442D01*
X014011Y038483D01*
X014060Y038521D01*
X014112Y038555D01*
X014166Y038586D01*
X014222Y038614D01*
X014280Y038638D01*
X014339Y038659D01*
X014399Y038675D01*
X014460Y038688D01*
X014522Y038697D01*
X014584Y038702D01*
X014647Y038703D01*
X014709Y038700D01*
X014771Y038693D01*
X014833Y038682D01*
X014893Y038667D01*
X014953Y038649D01*
X015011Y038627D01*
X015068Y038601D01*
X015123Y038571D01*
X015176Y038538D01*
X015227Y038502D01*
X015275Y038463D01*
X015321Y038420D01*
X015364Y038375D01*
X015404Y038327D01*
X015441Y038277D01*
X015475Y038224D01*
X015506Y038170D01*
X015532Y038114D01*
X015556Y038056D01*
X015575Y037996D01*
X015591Y037936D01*
X015603Y037874D01*
X015611Y037813D01*
X015615Y037750D01*
X015615Y037688D01*
X015611Y037625D01*
X015603Y037564D01*
X015591Y037502D01*
X015575Y037442D01*
X015556Y037382D01*
X015532Y037324D01*
X015506Y037268D01*
X015475Y037214D01*
X015441Y037161D01*
X015404Y037111D01*
X015364Y037063D01*
X015321Y037018D01*
X015275Y036975D01*
X015227Y036936D01*
X015176Y036900D01*
X015123Y036867D01*
X015068Y036837D01*
X015011Y036811D01*
X014953Y036789D01*
X014893Y036771D01*
X014833Y036756D01*
X014771Y036745D01*
X014709Y036738D01*
X014647Y036735D01*
X014584Y036736D01*
X014522Y036741D01*
X014460Y036750D01*
X014399Y036763D01*
X014339Y036779D01*
X014280Y036800D01*
X014222Y036824D01*
X014166Y036852D01*
X014112Y036883D01*
X014060Y036917D01*
X014011Y036955D01*
X013963Y036996D01*
X013919Y037040D01*
X013877Y037086D01*
X013839Y037136D01*
X013803Y037187D01*
X013771Y037241D01*
X013743Y037296D01*
X013717Y037353D01*
X013696Y037412D01*
X013679Y037472D01*
X013665Y037533D01*
X013655Y037594D01*
X013649Y037657D01*
X013647Y037719D01*
M02*
