G75*
G70*
%OFA0B0*%
%FSLAX24Y24*%
%IPPOS*%
%LPD*%
%AMOC8*
5,1,8,0,0,1.08239X$1,22.5*
%
%ADD10C,0.0050*%
%ADD11C,0.0000*%
D10*
X004395Y000645D02*
X013450Y000645D01*
X013476Y000647D01*
X013501Y000652D01*
X013525Y000660D01*
X013548Y000671D01*
X013570Y000686D01*
X013589Y000703D01*
X013606Y000722D01*
X013621Y000743D01*
X013632Y000767D01*
X013640Y000791D01*
X013645Y000816D01*
X013647Y000842D01*
X013647Y002023D01*
X013649Y002049D01*
X013654Y002074D01*
X013662Y002098D01*
X013673Y002122D01*
X013688Y002143D01*
X013705Y002162D01*
X013724Y002179D01*
X013745Y002194D01*
X013769Y002205D01*
X013793Y002213D01*
X013818Y002218D01*
X013844Y002220D01*
X023096Y002220D01*
X023122Y002218D01*
X023147Y002213D01*
X023171Y002205D01*
X023195Y002194D01*
X023216Y002179D01*
X023235Y002162D01*
X023252Y002143D01*
X023267Y002121D01*
X023278Y002098D01*
X023286Y002074D01*
X023291Y002049D01*
X023293Y002023D01*
X023293Y000842D01*
X023292Y000842D02*
X023294Y000816D01*
X023299Y000791D01*
X023307Y000767D01*
X023318Y000744D01*
X023333Y000722D01*
X023350Y000703D01*
X023369Y000686D01*
X023390Y000671D01*
X023414Y000660D01*
X023438Y000652D01*
X023463Y000647D01*
X023489Y000645D01*
X028017Y000645D01*
X004395Y000645D02*
X003871Y001584D01*
X003391Y002547D01*
X002958Y003532D01*
X002573Y004536D01*
X002236Y005558D01*
X001948Y006595D01*
X001710Y007644D01*
X001522Y008703D01*
X001385Y009770D01*
X001299Y010843D01*
X001265Y011918D01*
X001282Y012993D01*
X001350Y014067D01*
X001469Y015136D01*
X001640Y016198D01*
X001861Y017251D01*
X002131Y018292D01*
X002452Y019319D01*
X002821Y020330D01*
X026442Y020330D02*
X026811Y021341D01*
X027132Y022368D01*
X027402Y023409D01*
X027623Y024462D01*
X027794Y025524D01*
X027913Y026593D01*
X027981Y027667D01*
X027998Y028742D01*
X027964Y029817D01*
X027878Y030890D01*
X027741Y031957D01*
X027553Y033016D01*
X027315Y034065D01*
X027027Y035102D01*
X026690Y036124D01*
X026305Y037128D01*
X025872Y038113D01*
X025392Y039076D01*
X024868Y040015D01*
X024867Y040015D02*
X001245Y040015D01*
X001246Y040015D02*
X001770Y039076D01*
X002250Y038113D01*
X002683Y037128D01*
X003068Y036124D01*
X003405Y035102D01*
X003693Y034065D01*
X003931Y033016D01*
X004119Y031957D01*
X004256Y030890D01*
X004342Y029817D01*
X004376Y028742D01*
X004359Y027667D01*
X004291Y026593D01*
X004172Y025524D01*
X004001Y024462D01*
X003780Y023409D01*
X003510Y022368D01*
X003189Y021341D01*
X002820Y020330D01*
X026443Y020330D02*
X026074Y019319D01*
X025753Y018292D01*
X025483Y017251D01*
X025262Y016198D01*
X025091Y015136D01*
X024972Y014067D01*
X024904Y012993D01*
X024887Y011918D01*
X024921Y010843D01*
X025007Y009770D01*
X025144Y008703D01*
X025332Y007644D01*
X025570Y006595D01*
X025858Y005558D01*
X026195Y004536D01*
X026580Y003532D01*
X027013Y002547D01*
X027493Y001584D01*
X028017Y000645D01*
D11*
X020647Y036336D02*
X020649Y036360D01*
X020655Y036383D01*
X020664Y036405D01*
X020677Y036425D01*
X020692Y036443D01*
X020711Y036458D01*
X020732Y036470D01*
X020754Y036478D01*
X020777Y036483D01*
X020801Y036484D01*
X020825Y036481D01*
X020847Y036474D01*
X020869Y036464D01*
X020889Y036451D01*
X020906Y036434D01*
X020920Y036415D01*
X020931Y036394D01*
X020939Y036371D01*
X020943Y036348D01*
X020943Y036324D01*
X020939Y036301D01*
X020931Y036278D01*
X020920Y036257D01*
X020906Y036238D01*
X020889Y036221D01*
X020869Y036208D01*
X020847Y036198D01*
X020825Y036191D01*
X020801Y036188D01*
X020777Y036189D01*
X020754Y036194D01*
X020732Y036202D01*
X020711Y036214D01*
X020692Y036229D01*
X020677Y036247D01*
X020664Y036267D01*
X020655Y036289D01*
X020649Y036312D01*
X020647Y036336D01*
X021646Y037394D02*
X021648Y037422D01*
X021654Y037450D01*
X021663Y037476D01*
X021676Y037502D01*
X021692Y037525D01*
X021712Y037545D01*
X021734Y037563D01*
X021758Y037578D01*
X021784Y037589D01*
X021811Y037597D01*
X021839Y037601D01*
X021867Y037601D01*
X021895Y037597D01*
X021922Y037589D01*
X021948Y037578D01*
X021972Y037563D01*
X021994Y037545D01*
X022014Y037525D01*
X022030Y037502D01*
X022043Y037476D01*
X022052Y037450D01*
X022058Y037422D01*
X022060Y037394D01*
X022058Y037366D01*
X022052Y037338D01*
X022043Y037312D01*
X022030Y037286D01*
X022014Y037263D01*
X021994Y037243D01*
X021972Y037225D01*
X021948Y037210D01*
X021922Y037199D01*
X021895Y037191D01*
X021867Y037187D01*
X021839Y037187D01*
X021811Y037191D01*
X021784Y037199D01*
X021758Y037210D01*
X021734Y037225D01*
X021712Y037243D01*
X021692Y037263D01*
X021676Y037286D01*
X021663Y037312D01*
X021654Y037338D01*
X021648Y037366D01*
X021646Y037394D01*
X013647Y037732D02*
X013649Y037794D01*
X013655Y037857D01*
X013665Y037918D01*
X013679Y037979D01*
X013696Y038039D01*
X013717Y038098D01*
X013743Y038155D01*
X013771Y038210D01*
X013803Y038264D01*
X013839Y038315D01*
X013877Y038365D01*
X013919Y038411D01*
X013963Y038455D01*
X014011Y038496D01*
X014060Y038534D01*
X014112Y038568D01*
X014166Y038599D01*
X014222Y038627D01*
X014280Y038651D01*
X014339Y038672D01*
X014399Y038688D01*
X014460Y038701D01*
X014522Y038710D01*
X014584Y038715D01*
X014647Y038716D01*
X014709Y038713D01*
X014771Y038706D01*
X014833Y038695D01*
X014893Y038680D01*
X014953Y038662D01*
X015011Y038640D01*
X015068Y038614D01*
X015123Y038584D01*
X015176Y038551D01*
X015227Y038515D01*
X015275Y038476D01*
X015321Y038433D01*
X015364Y038388D01*
X015404Y038340D01*
X015441Y038290D01*
X015475Y038237D01*
X015506Y038183D01*
X015532Y038127D01*
X015556Y038069D01*
X015575Y038009D01*
X015591Y037949D01*
X015603Y037887D01*
X015611Y037826D01*
X015615Y037763D01*
X015615Y037701D01*
X015611Y037638D01*
X015603Y037577D01*
X015591Y037515D01*
X015575Y037455D01*
X015556Y037395D01*
X015532Y037337D01*
X015506Y037281D01*
X015475Y037227D01*
X015441Y037174D01*
X015404Y037124D01*
X015364Y037076D01*
X015321Y037031D01*
X015275Y036988D01*
X015227Y036949D01*
X015176Y036913D01*
X015123Y036880D01*
X015068Y036850D01*
X015011Y036824D01*
X014953Y036802D01*
X014893Y036784D01*
X014833Y036769D01*
X014771Y036758D01*
X014709Y036751D01*
X014647Y036748D01*
X014584Y036749D01*
X014522Y036754D01*
X014460Y036763D01*
X014399Y036776D01*
X014339Y036792D01*
X014280Y036813D01*
X014222Y036837D01*
X014166Y036865D01*
X014112Y036896D01*
X014060Y036930D01*
X014011Y036968D01*
X013963Y037009D01*
X013919Y037053D01*
X013877Y037099D01*
X013839Y037149D01*
X013803Y037200D01*
X013771Y037254D01*
X013743Y037309D01*
X013717Y037366D01*
X013696Y037425D01*
X013679Y037485D01*
X013665Y037546D01*
X013655Y037607D01*
X013649Y037670D01*
X013647Y037732D01*
M02*
