%
M48
M72
T01C0.0197
T02C0.0236
T03C0.0295
T04C0.0354
T05C0.0394
T06C0.0400
T07C0.0413
T08C0.0520
T09C0.0630
T10C0.1772
%
T01
X2879Y4661
X3332Y3499
X3922Y3440
X4808Y4582
X4060Y6039
X3922Y6767
X2269Y6767
X5734Y8735
X5773Y9444
X5773Y10113
X5970Y10507
X5773Y10901
X5773Y11688
X5773Y12476
X5773Y13263
X5773Y14050
X5773Y14601
X6206Y14601
X6678Y14601
X6639Y15861
X6206Y15861
X5773Y15861
X5773Y16413
X5714Y17279
X6127Y18342
X6009Y19247
X5576Y19326
X4513Y20369
X3529Y21255
X3883Y22397
X4552Y25153
X6009Y21688
X6954Y19601
X7545Y17672
X7387Y17121
X6580Y17101
X4592Y17436
X3804Y17436
X3017Y17436
X2584Y18696
X2230Y17436
X7230Y10625
X7545Y11019
X7466Y9483
X8214Y9562
X8627Y8420
X9041Y8263
X8312Y7830
X7604Y8066
X6678Y7436
X6797Y6334
X5852Y7003
X5852Y7436
X5871Y5330
X6915Y4168
X7348Y4168
X8323Y4584
X8726Y5704
X9178Y6570
X9178Y6964
X8824Y6767
X10261Y8263
X10950Y7909
X10478Y6964
X10989Y5861
X11737Y4877
X11915Y4247
X12663Y4247
X13273Y4877
X14336Y6255
X14552Y7594
X14867Y7909
X14985Y7456
X15576Y7495
X15222Y8420
X15655Y8499
X16048Y8696
X16442Y8224
X16797Y8657
X17151Y8932
X17859Y8972
X18568Y8204
X19021Y9129
X19769Y9326
X19710Y10861
X20970Y9680
X21088Y8224
X21048Y7594
X20517Y7161
X20615Y6334
X21048Y6334
X21088Y5428
X20478Y5192
X20005Y5664
X20005Y6117
X19985Y6609
X19415Y7259
X19848Y7731
X17859Y5290
X17623Y5920
X17623Y6924
X17466Y7436
X17466Y4739
X17289Y1944
X15537Y4720
X15340Y5113
X15241Y4050
X14513Y1668
X12899Y2338
X11895Y1964
X11304Y2476
X10694Y1491
X9493Y1098
X8450Y1649
X8785Y3027
X9474Y3224
X10202Y4956
X11659Y6964
X12741Y8479
X13135Y8283
X13017Y8834
X12722Y9149
X13056Y9405
X12761Y9916
X12584Y10428
X11856Y9208
X10438Y9759
X10596Y10901
X9730Y10743
X8982Y10743
X8942Y9759
X11186Y12082
X10950Y13617
X9887Y13598
X9395Y13499
X9041Y13224
X8509Y13145
X8509Y14601
X9887Y17613
X9001Y18932
X8785Y21098
X9454Y21196
X10064Y21294
X10556Y22101
X10556Y22968
X10773Y23381
X11088Y23657
X11639Y23952
X11993Y24247
X12604Y24641
X12623Y25074
X12367Y25881
X13017Y25468
X13686Y25783
X14237Y26570
X13686Y27200
X13686Y27869
X13234Y28204
X13509Y28519
X14336Y28834
X14513Y28263
X14592Y27830
X15419Y27692
X15537Y28125
X16147Y27751
X16462Y28066
X16777Y27751
X17328Y28066
X17013Y28381
X17643Y28381
X18135Y30507
X17820Y30822
X18411Y30940
X18686Y30468
X19946Y28873
X20359Y28932
X20399Y29405
X20281Y30625
X20950Y31629
X19808Y32397
X20143Y33263
X19710Y33775
X19651Y34247
X20143Y34208
X21541Y34129
X22111Y33263
X23096Y32338
X23903Y33794
X24454Y32338
X25143Y33224
X25143Y31098
X24631Y30664
X24651Y29621
X24454Y27338
X25143Y26452
X24808Y25802
X24611Y24503
X24789Y23893
X24513Y23381
X24454Y22653
X24671Y21885
X24651Y21432
X24552Y20743
X24454Y19720
X24730Y18401
X25419Y20743
X25261Y21885
X26422Y21865
X27190Y24641
X27249Y25094
X27190Y25546
X26186Y25901
X25615Y27121
X23352Y24050
X23489Y23499
X22407Y23913
X22289Y23440
X23056Y22003
X23135Y25015
X21088Y27121
X20320Y26314
X19966Y26550
X20143Y23991
X20694Y23932
X20222Y22279
X20281Y21393
X19730Y20290
X19513Y19483
X19434Y18932
X19867Y18932
X19848Y18322
X19257Y17790
X19749Y17515
X19493Y16944
X20300Y16846
X20930Y17200
X21757Y17042
X22210Y17633
X22919Y17751
X23076Y17082
X22899Y16216
X22978Y15664
X22151Y15763
X22230Y16176
X21934Y14798
X22682Y13243
X23352Y13499
X23411Y12515
X24434Y13735
X22505Y9798
X22348Y8460
X22190Y7279
X23745Y8263
X24769Y7476
X23883Y6649
X25163Y6058
X25694Y3893
X26285Y3145
X26501Y2476
X24671Y1688
X23667Y1058
X24671Y3853
X22328Y5035
X17840Y11491
X17879Y12672
X18391Y14109
X17958Y14759
X18234Y16058
X18234Y16550
X17859Y17101
X16856Y17042
X15970Y16609
X15537Y16472
X15163Y16727
X15163Y15113
X15202Y14523
X15871Y14050
X15930Y12751
X16836Y11806
X14828Y10684
X14592Y8696
X13686Y12554
X13785Y13972
X13942Y15192
X13234Y15586
X13056Y15172
X12938Y14759
X12111Y15310
X12111Y15861
X11678Y15704
X11403Y16039
X11698Y16570
X11541Y17259
X11875Y17515
X12131Y17023
X12722Y16688
X12938Y17357
X12879Y18263
X13489Y19779
X13037Y20133
X12190Y19759
X11757Y20330
X11088Y19798
X11068Y18637
X11088Y18066
X10674Y16137
X10891Y15763
X13765Y15999
X13883Y19050
X14021Y20133
X13627Y21314
X14474Y21787
X15064Y21491
X15497Y21452
X15655Y22082
X15182Y22082
X14907Y22633
X14552Y22928
X14671Y23499
X14592Y24405
X14592Y24956
X14513Y25546
X14887Y25842
X15419Y27200
X16147Y27259
X16304Y25999
X16127Y25586
X16127Y25153
X16462Y24818
X17092Y25448
X17092Y25881
X17545Y26353
X18017Y26353
X18056Y25231
X18037Y24188
X18017Y23735
X17564Y24070
X17289Y23716
X16974Y22495
X17171Y21314
X17328Y20330
X17446Y19739
X16993Y18991
X16797Y18283
X16186Y19129
X16186Y20251
X16186Y21373
X14926Y19168
X13686Y22574
X13686Y23361
X13135Y23460
X12761Y23125
X12859Y22672
X12171Y22731
X11737Y23361
X11482Y21865
X11856Y21629
X12190Y21334
X12525Y21629
X11304Y21432
X10911Y24720
X11304Y25369
X10773Y25664
X10753Y26157
X10576Y26649
X11383Y26550
X12230Y27003
X12663Y26905
X12820Y28105
X12328Y28578
X11915Y28696
X11501Y28775
X11698Y28007
X10576Y28263
X10438Y28991
X10241Y29956
X9966Y30487
X9789Y31098
X9395Y31649
X8726Y31157
X8647Y30428
X8234Y30842
X7466Y29818
X7072Y30664
X6422Y30724
X6422Y31353
X6265Y33499
X4887Y33578
X4198Y33578
X4887Y35153
X5025Y36570
X5950Y36294
X7013Y36806
X7111Y38735
X7958Y38893
X8942Y39405
X9139Y37948
X8883Y37003
X10497Y36570
X10497Y35389
X10104Y34011
X9297Y33735
X8037Y32594
X7761Y33853
X6580Y29168
X6521Y28696
X6127Y28972
X7151Y27436
X7545Y25979
X7289Y25153
X8214Y25212
X8371Y25783
X8489Y26314
X8686Y26708
X9119Y26747
X9552Y27121
X9493Y28243
X9730Y28814
X9552Y29208
X8391Y27476
X8253Y27062
X8135Y28204
X9119Y25389
X9395Y24306
X9080Y24031
X10576Y25035
X11836Y30113
X13155Y31787
X13312Y32357
X12584Y32515
X12978Y34168
X13450Y34168
X13922Y34168
X14257Y34838
X15005Y34838
X15340Y34168
X15812Y34168
X16285Y34168
X16895Y35094
X15458Y35507
X13942Y37613
X13608Y37279
X12997Y35960
X12899Y35192
X14218Y33046
X14415Y30389
X14671Y29916
X15517Y29995
X17072Y32161
X17230Y30625
X18371Y33814
X17525Y37850
X18273Y38440
X18273Y39641
X18726Y39720
X19297Y39601
X21285Y39129
X24060Y36137
X26915Y33263
X22722Y30448
X22466Y29129
X22859Y28972
X19080Y23499
X18056Y22220
X18785Y21196
X18844Y20153
X18686Y19483
X20734Y20192
X19493Y15625
X19631Y15231
X20635Y15330
X16856Y14995
X16304Y23913
X13312Y30231
X14277Y38775
X14375Y39188
X14946Y38775
X15379Y39188
X16560Y39050
X12131Y39405
X2958Y37594
X2623Y39050
X5852Y3224
X5359Y1196
T02
X25956Y22893
X25956Y23393
X25956Y23893
X25956Y24393
X25956Y24893
X26456Y24893
X26456Y24393
X26456Y23893
X26456Y23393
X26456Y22893
T03
X19614Y33246
T04
X23037Y20625
X23037Y20487
X23037Y20350
X23037Y20212
X23037Y20074
X23037Y8499
X23037Y8361
X23037Y8224
X23037Y8086
X23037Y7948
X4730Y6157
X3548Y6157
T05
X5041Y16842
X5041Y17842
X5041Y18842
X5041Y19842
X5041Y20842
X5041Y21842
X5041Y22842
X5041Y23842
X5041Y25842
X5041Y26842
X5041Y27842
X5041Y28842
X5041Y29842
X5041Y30842
X24041Y30842
X24041Y29842
X24041Y28842
X24041Y27842
X24041Y26842
X24041Y25842
X24041Y24842
X24041Y23842
X24041Y22242
X24041Y21242
X24041Y20242
X24041Y19242
X24041Y18242
X24041Y17242
X24041Y16242
X24041Y15242
X24041Y14242
X24041Y13242
T06
X27151Y26294
X27151Y27294
X27151Y28294
X27151Y29294
X27151Y30294
X27151Y31294
X24041Y31842
X24041Y32842
X16041Y31892
X16041Y30892
X15041Y30892
X15041Y31892
X14041Y31892
X14041Y30892
X12041Y30892
X12041Y31892
X12041Y32892
X12041Y33892
X12041Y34892
X12041Y35892
X12041Y36892
X12041Y37892
X11041Y37892
X11041Y36892
X11041Y35892
X11041Y34892
X11041Y33892
X11041Y32892
X11041Y31892
X11041Y30892
X8454Y35664
X7454Y35664
X6454Y35664
X5454Y35664
X5041Y32842
X5041Y31842
X3135Y19208
X3135Y18208
X4789Y3082
X4789Y2082
T07
X20672Y34304
T08
X22171Y39523
X25615Y37239
X7033Y39523
X3332Y39523
X4828Y15231
T09
X6167Y26098
X6167Y2279
X22584Y2279
X22584Y26294
T10
X23982Y38578
X5182Y38578
M30
