%
M48
M72
T01C0.0197
T02C0.0236
T03C0.0295
T04C0.0394
T05C0.0400
T06C0.0413
T07C0.0520
T08C0.1969
%
T01
X3706Y3369
X5084Y2621
X4631Y1066
X5399Y967
X6127Y1105
X6875Y1184
X7407Y1833
X6816Y2267
X6501Y2542
X6777Y2857
X6403Y3389
X6718Y3684
X6521Y4078
X6875Y4412
X7151Y5200
X7545Y5357
X7958Y4727
X8312Y4963
X9100Y4845
X9592Y5731
X9178Y6499
X9178Y6893
X8824Y6696
X8135Y7759
X8470Y8231
X9041Y8192
X9808Y9491
X9789Y10503
X8982Y10593
X8667Y9688
X8214Y9491
X7702Y10278
X7584Y10790
X7741Y12011
X8509Y11991
X8509Y13074
X9041Y13152
X9395Y13428
X9887Y13526
X10517Y12818
X10537Y12385
X10241Y11991
X10596Y10830
X11186Y12011
X11304Y13507
X12111Y14924
X11678Y15633
X11403Y15967
X10891Y15692
X10674Y16066
X11422Y17050
X11974Y17109
X11836Y17522
X10970Y17995
X10970Y18487
X10930Y19235
X11088Y19727
X11757Y20259
X12210Y19668
X13037Y20062
X13489Y21263
X14434Y21715
X15064Y21420
X15497Y21381
X15655Y22011
X15182Y22011
X14907Y22562
X14552Y22857
X14119Y22621
X13686Y22542
X13686Y23290
X13135Y23389
X12761Y23054
X12859Y22601
X12525Y21558
X12190Y21263
X11856Y21558
X11482Y21794
X11304Y21361
X10556Y21952
X10064Y21223
X9454Y21125
X8785Y21026
X9001Y18743
X9887Y17542
X7426Y17050
X6737Y17070
X6600Y17463
X6245Y18270
X5852Y18566
X6048Y19452
X7269Y18349
X5753Y17129
X5773Y16341
X5773Y15790
X6206Y15790
X6639Y15790
X6678Y14530
X6206Y14530
X5773Y14530
X5773Y13979
X5773Y13192
X5773Y12404
X5773Y11617
X5773Y10830
X5773Y10042
X5773Y9373
X5773Y8428
X5773Y7680
X5773Y6893
X6009Y6459
X6678Y7365
X4769Y5416
X5005Y4471
X3922Y6696
X2269Y6696
X6442Y2050
X7663Y3270
X7663Y3900
X8706Y1833
X9159Y2011
X9592Y2129
X10163Y1971
X10104Y1381
X10576Y1381
X11186Y2129
X11560Y2404
X11954Y2562
X12072Y2995
X12308Y3900
X12919Y4530
X13332Y4845
X13726Y4609
X13686Y5396
X14277Y5790
X14277Y6400
X12859Y7326
X12899Y8192
X13686Y9176
X14926Y8310
X16108Y10239
X15438Y10948
X16048Y11263
X15655Y12306
X16088Y12700
X15852Y13330
X15852Y14333
X15694Y14845
X14671Y15633
X14119Y15731
X14513Y16302
X14966Y16302
X15300Y16637
X16619Y17011
X17426Y17621
X17859Y17641
X16993Y18211
X16993Y18920
X17446Y19668
X17328Y20259
X17171Y21243
X16895Y22424
X17289Y23644
X17564Y23999
X18037Y24117
X18017Y23664
X19080Y23428
X18056Y22148
X18785Y21125
X18844Y20081
X18686Y19412
X19375Y18310
X20300Y18310
X20300Y18743
X20300Y17877
X20320Y17424
X20655Y16833
X21088Y16814
X21206Y16341
X21324Y15908
X21993Y16420
X22230Y15790
X21737Y14806
X22978Y15593
X22741Y16774
X21934Y19137
X22564Y19806
X21895Y20416
X20812Y20396
X19730Y20259
X20222Y22011
X20615Y23389
X20635Y24078
X20497Y26263
X20123Y26479
X20773Y28802
X21186Y28861
X21226Y29333
X20320Y30515
X18982Y31223
X18411Y30869
X18135Y30436
X17820Y30751
X17230Y30554
X17131Y32089
X17076Y34255
X16285Y34097
X15812Y34097
X15340Y34097
X15005Y34648
X15458Y35160
X14257Y34648
X13922Y34097
X13450Y34097
X12978Y34097
X13096Y35160
X14218Y32975
X13273Y32562
X12584Y32444
X13155Y31715
X13312Y30160
X14415Y30318
X14671Y29845
X15517Y29924
X14336Y28644
X14513Y28192
X14592Y27759
X15419Y27621
X15537Y28054
X16147Y27680
X16462Y27995
X16777Y27680
X17013Y28310
X17328Y27995
X17643Y28310
X16147Y27188
X15419Y27129
X14887Y25770
X14513Y25475
X14592Y24885
X14592Y24333
X14671Y23428
X16127Y25081
X16127Y25515
X16304Y25928
X17092Y25810
X17092Y25377
X16462Y24747
X16304Y23959
X17545Y26282
X18017Y26282
X18056Y25160
X16186Y21302
X16186Y20062
X16167Y18920
X14887Y18900
X14021Y20062
X13824Y18959
X13962Y17365
X13411Y17326
X13174Y16952
X12820Y16263
X12111Y15790
X13076Y14845
X12938Y14353
X13529Y15298
X13883Y14904
X13765Y13034
X13686Y12601
X14159Y12011
X14159Y11341
X14592Y11223
X15084Y11715
X17761Y14707
X18056Y15141
X17859Y15830
X16797Y15613
X17978Y14019
X17997Y13526
X17997Y13074
X18194Y12089
X18903Y11735
X19336Y10948
X19041Y10042
X20340Y9648
X20852Y10042
X21167Y9215
X20340Y8074
X19631Y8074
X19946Y6223
X20359Y5751
X20359Y4373
X21639Y4137
X22564Y6499
X23253Y6341
X23804Y6932
X23450Y7247
X23982Y7798
X24730Y8231
X24769Y7404
X23194Y7975
X23017Y8507
X22505Y9727
X21560Y7837
X20773Y11420
X20556Y12483
X20104Y12719
X20379Y13074
X20379Y13507
X19690Y13861
X18863Y14550
X19100Y15889
X19966Y16735
X20438Y15770
X21757Y12759
X22682Y12345
X23411Y12444
X23352Y13428
X24493Y13704
X24730Y18330
X24572Y21676
X24513Y23310
X24789Y23822
X24611Y24432
X25123Y25830
X26068Y25830
X27190Y25475
X27171Y24550
X26462Y21794
X23411Y23428
X23273Y24097
X22407Y22877
X22682Y22503
X24769Y27188
X25615Y27286
X24887Y29471
X25615Y30751
X25241Y31597
X24651Y31164
X22859Y28900
X22466Y29058
X22722Y30377
X22348Y31105
X23804Y34255
X23056Y35869
X23037Y36893
X22328Y35141
X21324Y36341
X21009Y36853
X21324Y37168
X20871Y37286
X18627Y39609
X18273Y39097
X16777Y39491
X17249Y35456
X18686Y30396
X14237Y26499
X13686Y27129
X13686Y27798
X13234Y28133
X13509Y28448
X12820Y28034
X12328Y28507
X11915Y28625
X11501Y28704
X11698Y27936
X12230Y26932
X12663Y26833
X12367Y25810
X13017Y25396
X12623Y25003
X12604Y24570
X11993Y24176
X11560Y24314
X11088Y23585
X10773Y23310
X10655Y22896
X10773Y23900
X10734Y24333
X11304Y25298
X10773Y25593
X10753Y26085
X10576Y26578
X11383Y26479
X10576Y28192
X10438Y28920
X9611Y28999
X9493Y28172
X9552Y27050
X9119Y26676
X8686Y26637
X8253Y26991
X8391Y27404
X7978Y27857
X8214Y28330
X7702Y28349
X6816Y27798
X6580Y26066
X8371Y25711
X8804Y25711
X9237Y25318
X9572Y25593
X9139Y24767
X8726Y24826
X9395Y24235
X9080Y23959
X11737Y23290
X12171Y22660
X13686Y25711
X11836Y30042
X9690Y30456
X9454Y32148
X9454Y33507
X9533Y34038
X10123Y33920
X9572Y35790
X9474Y36656
X9611Y38270
X11344Y39137
X8194Y35200
X8214Y34491
X8214Y33684
X7623Y33743
X6915Y33743
X7387Y34491
X5714Y34648
X4887Y33585
X4198Y33507
X5497Y32286
X6482Y32286
X6541Y31420
X6560Y30790
X6521Y29688
X8214Y32385
X6777Y36873
X5517Y38270
X4966Y38782
X4257Y39530
X2820Y38822
X4552Y25081
X3883Y22326
X3293Y20633
X4237Y20298
X3804Y19176
X3804Y17365
X3017Y17365
X2230Y17365
X4592Y17365
X10635Y9452
X10989Y8231
X10261Y8192
X10478Y6893
X10359Y6026
X10635Y5003
X11501Y4963
X11501Y4019
X10537Y2739
X9631Y1400
X11836Y1814
X12361Y1800
X13293Y1164
X13450Y2522
X14080Y3900
X14493Y3782
X14848Y4294
X15379Y4294
X16088Y4255
X17919Y3369
X23667Y1184
X24671Y1617
X26501Y2404
X26285Y3074
X25793Y3822
X24671Y3782
X19926Y12168
X12269Y8428
X11816Y8408
X11836Y8900
X11659Y6893
X26718Y33192
X24651Y39648
T02
X25956Y24822
X26456Y24822
X26456Y24322
X26456Y23822
X26456Y23322
X26456Y22822
X25956Y22822
X25956Y23322
X25956Y23822
X25956Y24322
T03
X20795Y36324
T04
X24041Y30770
X24041Y29770
X24041Y28770
X24041Y27770
X24041Y26770
X24041Y25770
X24041Y24770
X24041Y23770
X24041Y22170
X24041Y21170
X24041Y20170
X24041Y19170
X24041Y18170
X24041Y17170
X24041Y16170
X24041Y15170
X24041Y14170
X24041Y13170
X5041Y16770
X5041Y17770
X5041Y18770
X5041Y19770
X5041Y20770
X5041Y21770
X5041Y22770
X5041Y23770
X5041Y25770
X5041Y26770
X5041Y27770
X5041Y28770
X5041Y29770
X5041Y30770
T05
X5041Y31770
X5041Y32770
X7308Y27034
X7308Y26034
X7308Y25034
X7308Y24034
X3135Y19137
X3135Y18137
X11041Y30820
X11041Y31820
X11041Y32820
X11041Y33820
X11041Y34820
X11041Y35820
X11041Y36820
X11041Y37820
X12041Y37820
X12041Y36820
X12041Y35820
X12041Y34820
X12041Y33820
X12041Y32820
X12041Y31820
X12041Y30820
X14041Y30820
X15041Y30820
X15041Y31820
X14041Y31820
X16041Y31820
X16041Y30820
X24041Y31770
X24041Y32770
X27151Y31223
X27151Y30223
X27151Y29223
X27151Y28223
X27151Y27223
X27151Y26223
T06
X21853Y37382
T07
X4828Y15160
T08
X14631Y37719
M30
