%
M48
M72
T01C0.0197
T02C0.0236
T03C0.0295
T04C0.0354
T05C0.0394
T06C0.0400
T07C0.0413
T08C0.0520
T09C0.1772
%
T01
X4060Y5991
X4572Y4987
X4867Y7546
X5005Y8510
X4060Y10006
X3922Y10735
X3647Y8609
X2879Y8628
X2269Y10735
X5734Y12703
X5773Y13412
X5773Y14081
X5773Y14869
X5773Y15656
X5773Y16443
X5773Y17231
X5773Y18018
X5773Y18569
X6206Y18569
X6678Y18569
X6639Y19829
X6206Y19829
X5773Y19829
X5773Y20380
X5753Y21168
X6600Y21502
X6737Y21109
X7426Y21089
X7269Y22388
X6245Y22309
X5852Y22605
X6048Y23491
X4513Y24337
X3529Y25223
X3883Y26365
X4552Y29121
X6580Y30105
X6737Y31837
X7702Y32388
X7978Y31896
X8214Y32388
X8391Y31443
X8253Y31030
X8686Y30676
X9119Y30715
X9552Y31089
X9493Y32211
X10576Y32231
X10438Y32959
X11501Y32743
X11915Y32664
X12328Y32546
X12820Y32073
X13234Y32172
X13509Y32487
X13686Y31837
X13686Y31168
X14237Y30538
X13686Y29750
X13017Y29435
X12623Y29042
X12604Y28609
X11993Y28215
X11560Y28353
X11088Y27624
X10773Y27349
X10655Y26935
X10556Y25991
X10064Y25262
X9454Y25164
X8785Y25065
X9001Y22782
X9887Y21581
X10674Y20105
X10891Y19731
X11403Y20006
X11678Y19672
X12111Y19829
X12820Y20302
X13174Y20991
X13411Y21365
X13962Y21404
X14513Y20341
X14966Y20341
X15300Y20676
X14671Y19672
X14119Y19770
X13883Y18943
X13529Y19337
X13076Y18884
X12938Y18392
X12111Y18963
X11304Y17546
X10517Y16857
X10537Y16424
X10241Y16030
X11186Y16050
X10596Y14869
X9789Y14542
X9808Y13530
X10635Y13491
X10989Y12270
X10261Y12231
X10478Y10932
X10359Y10065
X10635Y9042
X11501Y9002
X11501Y8058
X12308Y7939
X12072Y7034
X11954Y6601
X11560Y6443
X11836Y5853
X12361Y5839
X13293Y5203
X13450Y6561
X14080Y7939
X14493Y7821
X14848Y8333
X15379Y8333
X16088Y8294
X17919Y7408
X19946Y10262
X20359Y9790
X20359Y8412
X21639Y8176
X22564Y10538
X23253Y10380
X23804Y10971
X23903Y11404
X23450Y11286
X23194Y12014
X23017Y12546
X22505Y13766
X21560Y11876
X21167Y13254
X20852Y14081
X20340Y13687
X19336Y14987
X18903Y15774
X18194Y16128
X17997Y17113
X17997Y17565
X17978Y18058
X17643Y18707
X18214Y19180
X17859Y19869
X18903Y18707
X19690Y17900
X20104Y16758
X20379Y17113
X20379Y17546
X20556Y16680
X19926Y16207
X20773Y15459
X21757Y16798
X22682Y16384
X23411Y16483
X23352Y17467
X24493Y17743
X22978Y19632
X22230Y19829
X21993Y20459
X21324Y19947
X21206Y20380
X21088Y20853
X20655Y20872
X20320Y21463
X20300Y21916
X20300Y22349
X20300Y22782
X19375Y22349
X18686Y23451
X18844Y24121
X18785Y25164
X18056Y26187
X17171Y25282
X17328Y24298
X17446Y23707
X16993Y22959
X16993Y22250
X17426Y21660
X17859Y21680
X19100Y19928
X19966Y20774
X20438Y19809
X21737Y18845
X22741Y20813
X21934Y23176
X22564Y23845
X21875Y24317
X20970Y24160
X20281Y25361
X20222Y26247
X20615Y27428
X20635Y28117
X19080Y27467
X18017Y27703
X18037Y28156
X17564Y28038
X17289Y27684
X16895Y26463
X16186Y25341
X15655Y26050
X15182Y26050
X15064Y25459
X15497Y25420
X14434Y25754
X14119Y26660
X14552Y26896
X14907Y26601
X14671Y27467
X14592Y28372
X14592Y28924
X14513Y29514
X14887Y29809
X15419Y31168
X15419Y31660
X15537Y32093
X16147Y31719
X16462Y32034
X16777Y31719
X17013Y32349
X17328Y32034
X17643Y32349
X17545Y30321
X18017Y30321
X17092Y29849
X17092Y29416
X16462Y28786
X16127Y29121
X16127Y29554
X16304Y29967
X16147Y31227
X14671Y33884
X14415Y34357
X14336Y32684
X14513Y32231
X14592Y31798
X15517Y33963
X17131Y36128
X17820Y34790
X18135Y34475
X18411Y34908
X18686Y34435
X18982Y35262
X20320Y34554
X20399Y33372
X20359Y32900
X19946Y32841
X20123Y30518
X20497Y30302
X22466Y33097
X22859Y32939
X22722Y34416
X22348Y35144
X24690Y34731
X24749Y36010
X25241Y36109
X24749Y37506
X24060Y40105
X21836Y39869
X21856Y40932
X21147Y39180
X20143Y40380
X19828Y40892
X20143Y41207
X19690Y41325
X18273Y42408
X17525Y41817
X16560Y43018
X15379Y43156
X14946Y42743
X14375Y43156
X14277Y42743
X13942Y41581
X13608Y41247
X12997Y39928
X12899Y39160
X12978Y38136
X13450Y38136
X13922Y38136
X14257Y38806
X15005Y38806
X15458Y39475
X15340Y38136
X15812Y38136
X16285Y38136
X16856Y39337
X18568Y37152
X17230Y34593
X14218Y37014
X13273Y36601
X13155Y35754
X12584Y36483
X13312Y34199
X11836Y34081
X11698Y31975
X12230Y30971
X12663Y30872
X12367Y29849
X11304Y29337
X10773Y29632
X10753Y30124
X10576Y30617
X11383Y30518
X10734Y28372
X10773Y27939
X11737Y27329
X12171Y26699
X12859Y26640
X12761Y27093
X13135Y27428
X13686Y27329
X13686Y26581
X13489Y25302
X13037Y24101
X12210Y23707
X11757Y24298
X11088Y23766
X10930Y23274
X10970Y22526
X10970Y22034
X11422Y21089
X11974Y21148
X11836Y21561
X13824Y22998
X14887Y22939
X14021Y24101
X12525Y25597
X12190Y25302
X11856Y25597
X11482Y25833
X11304Y25400
X9395Y28274
X9080Y27998
X9139Y28806
X8726Y28865
X9237Y29357
X9572Y29632
X8804Y29750
X8371Y29750
X6521Y33727
X6560Y34987
X6541Y35459
X5478Y36306
X6206Y37191
X6324Y37743
X6737Y38097
X6029Y38589
X5478Y37979
X4887Y37546
X4198Y37546
X5182Y40656
X2958Y41561
X1836Y43727
X7604Y37782
X7958Y38648
X8194Y37743
X8214Y36424
X8686Y36424
X9454Y37546
X9592Y36640
X10104Y37979
X9415Y38648
X10497Y39357
X10497Y40538
X9139Y41916
X7958Y42861
X8706Y43569
X12919Y43609
X18273Y43609
X18726Y43687
X19297Y43569
X25241Y33156
X25615Y31089
X26068Y29869
X25123Y29869
X24730Y31030
X24611Y28471
X24789Y27861
X24513Y27349
X23411Y27467
X23273Y28136
X22407Y26916
X22682Y26542
X24572Y25715
X26462Y25833
X27171Y28589
X27190Y29514
X24730Y22369
X19730Y24258
X18056Y29199
X16304Y27998
X16186Y24101
X16167Y22959
X16619Y21050
X16797Y19652
X15852Y18372
X15694Y18884
X15852Y17369
X16088Y16739
X15655Y16345
X15084Y15754
X14592Y15262
X14159Y15380
X14159Y16050
X13686Y16640
X13765Y17073
X15438Y14987
X16048Y15302
X16108Y14278
X14926Y12349
X14277Y10439
X14277Y9829
X13686Y9435
X13332Y8884
X13726Y8648
X12919Y8569
X11659Y10932
X11816Y12447
X12269Y12467
X11836Y12939
X12899Y12231
X13686Y13215
X9887Y17565
X9395Y17467
X9041Y17191
X8509Y17113
X8509Y16030
X7741Y16050
X7584Y14829
X7702Y14317
X8214Y13530
X8667Y13727
X8982Y14632
X8470Y12270
X8135Y11798
X9041Y12231
X9178Y10932
X9178Y10538
X8824Y10735
X9592Y9770
X9100Y8884
X8332Y8983
X7958Y8766
X7545Y9396
X7151Y9239
X6875Y8451
X6521Y8117
X6718Y7723
X6777Y6896
X6501Y6581
X6816Y6306
X6442Y6089
X6718Y5105
X7308Y5262
X7407Y5872
X7663Y7309
X7663Y7939
X8706Y5872
X9159Y6050
X9592Y6168
X10163Y6010
X10104Y5420
X10576Y5420
X11186Y6168
X10537Y6778
X9631Y5439
X6678Y11404
X5852Y11404
X5852Y10971
X4592Y21404
X3804Y21404
X3017Y21404
X2230Y21404
X2584Y22664
X9690Y34495
X7722Y36424
X19041Y14081
X19631Y12113
X20340Y12113
X24671Y7821
X25793Y7861
X26285Y7113
X26501Y6443
X24671Y5656
X23667Y5026
X24769Y11443
X24730Y12270
X26718Y37231
T02
X26456Y28861
X26456Y28361
X26456Y27861
X26456Y27361
X25956Y27361
X25956Y27861
X25956Y28361
X25956Y28861
X25956Y26861
X26456Y26861
T03
X19614Y40363
T04
X4730Y10124
X3548Y10124
T05
X5041Y20809
X5041Y21809
X5041Y22809
X5041Y23809
X5041Y24809
X5041Y25809
X5041Y26809
X5041Y27809
X5041Y29809
X5041Y30809
X5041Y31809
X5041Y32809
X5041Y33809
X5041Y34809
X24041Y34809
X24041Y33809
X24041Y32809
X24041Y31809
X24041Y30809
X24041Y29809
X24041Y28809
X24041Y27809
X24041Y26209
X24041Y25209
X24041Y24209
X24041Y23209
X24041Y22209
X24041Y21209
X24041Y20209
X24041Y19209
X24041Y18209
X24041Y17209
T06
X27151Y30262
X27151Y31262
X27151Y32262
X27151Y33262
X27151Y34262
X27151Y35262
X24041Y35809
X24041Y36809
X16041Y35859
X16041Y34859
X15041Y34859
X15041Y35859
X14041Y35859
X14041Y34859
X12041Y34859
X11041Y34859
X11041Y35859
X11041Y36859
X11041Y37859
X11041Y38859
X11041Y39859
X11041Y40859
X11041Y41859
X12041Y41859
X12041Y40859
X12041Y39859
X12041Y38859
X12041Y37859
X12041Y36859
X12041Y35859
X7308Y31073
X7308Y30073
X7308Y29073
X7308Y28073
X3135Y23176
X3135Y22176
X5041Y35809
X5041Y36809
T07
X20672Y41421
T08
X22230Y43491
X25615Y41207
X7033Y43491
X3332Y43491
X4828Y19199
T09
X5182Y42546
X24080Y42546
M30
