%
M48
M72
T01C0.0197
T02C0.0236
T03C0.0295
T04C0.0354
T05C0.0394
T06C0.0400
T07C0.0413
T08C0.0520
T09C0.0630
T10C0.1772
%
T01
X2879Y4661
X3647Y4641
X3883Y3676
X4454Y4542
X4060Y6039
X3922Y6767
X2269Y6767
X4060Y2023
X5379Y1196
X5852Y3342
X7348Y4168
X8323Y4584
X8942Y5586
X9178Y6570
X9178Y6964
X8824Y6767
X9041Y8263
X8627Y8420
X8214Y9562
X7466Y9483
X7781Y10428
X7545Y11019
X7230Y10625
X7741Y12082
X8509Y12062
X8509Y13145
X9041Y13224
X9395Y13499
X9887Y13598
X10517Y12889
X10537Y12456
X10241Y12062
X10596Y10901
X9789Y10574
X9808Y9562
X10635Y9523
X10989Y8302
X10261Y8263
X10478Y6964
X11659Y6964
X10359Y5586
X10202Y4680
X9474Y3224
X8785Y3027
X9513Y1196
X11029Y2436
X11895Y1964
X11954Y1334
X13765Y3164
X14493Y3853
X15537Y4838
X15340Y5231
X14336Y6255
X13273Y4877
X12663Y4326
X11915Y4326
X11895Y4798
X13922Y1668
X17426Y4897
X17859Y5290
X17623Y5920
X17623Y6924
X17466Y7436
X16442Y8224
X16718Y8814
X17151Y8932
X17840Y9050
X18568Y8204
X19021Y9129
X20045Y9601
X19533Y10822
X19513Y11629
X19493Y12613
X19631Y13027
X20300Y12397
X20930Y12909
X20930Y11491
X20970Y9680
X21088Y8224
X21206Y7751
X20320Y7161
X19848Y7731
X19415Y7259
X19749Y6609
X19769Y6117
X19769Y5664
X20438Y5546
X21048Y6334
X22328Y5035
X22663Y5783
X23411Y6570
X23883Y6649
X24769Y7476
X25163Y6058
X25793Y3893
X26285Y3145
X26501Y2476
X24671Y1688
X23667Y1058
X24671Y3853
X23745Y8263
X22505Y9798
X22348Y8460
X22682Y12416
X23411Y12515
X23352Y13499
X24434Y13735
X22978Y15664
X22230Y15861
X21875Y16727
X22210Y17633
X22741Y16846
X21934Y14798
X20123Y18322
X19867Y18932
X19434Y18932
X19513Y19483
X18686Y19483
X18844Y20153
X19730Y20290
X20281Y21393
X20222Y22279
X19080Y23499
X18017Y23735
X17564Y24070
X17289Y23716
X18037Y24188
X18056Y25231
X17092Y25448
X17092Y25881
X17545Y26353
X18017Y26353
X17328Y28066
X17013Y28381
X16777Y27751
X16462Y28066
X16147Y27751
X16147Y27259
X15537Y28125
X15419Y27692
X15419Y27200
X14592Y27830
X14513Y28263
X14336Y28716
X13509Y28519
X13234Y28204
X13686Y27869
X13686Y27200
X14237Y26570
X13686Y25783
X13017Y25468
X12623Y25074
X12604Y24641
X11993Y24247
X11639Y23952
X11737Y23361
X11088Y23657
X10773Y23381
X10655Y22968
X10556Y22101
X10064Y21294
X9454Y21196
X8785Y21098
X9001Y18814
X9887Y17613
X10674Y16137
X10891Y15763
X11403Y16039
X11678Y15704
X12111Y15861
X12111Y15310
X13056Y14779
X12938Y14365
X13234Y15192
X13765Y15960
X13942Y15192
X15163Y15113
X15202Y14523
X15537Y16472
X15970Y16609
X15163Y16727
X14060Y18991
X13608Y19739
X14021Y20133
X13037Y20133
X12190Y19759
X11757Y20330
X11088Y19798
X11029Y19227
X11068Y18637
X11108Y18066
X11501Y17259
X11836Y17515
X12131Y17023
X11698Y16570
X12722Y16688
X12938Y17357
X12978Y18263
X14926Y19168
X16186Y19129
X16797Y18283
X16993Y18991
X17446Y19739
X17328Y20330
X17171Y21314
X16186Y21373
X15655Y22082
X15182Y22082
X14907Y22633
X14552Y22928
X14119Y22692
X13686Y22613
X13686Y23361
X13135Y23460
X12761Y23125
X12859Y22672
X12171Y22731
X11482Y21865
X11856Y21629
X12190Y21334
X12525Y21629
X13489Y21334
X14434Y21787
X15064Y21491
X15497Y21452
X16186Y20251
X16895Y22495
X16304Y24031
X16462Y24818
X16127Y25153
X16127Y25586
X16304Y25999
X14887Y25842
X14513Y25546
X14592Y24956
X14592Y24405
X14671Y23499
X12367Y25881
X12663Y26905
X12230Y27003
X11698Y28007
X11915Y28696
X11501Y28775
X12328Y28578
X12820Y28105
X11836Y30113
X13155Y31787
X13312Y32357
X12584Y32515
X12978Y34168
X13450Y34168
X13922Y34168
X14257Y34838
X15005Y34838
X15340Y34168
X15812Y34168
X16285Y34168
X17210Y34857
X18371Y33814
X19690Y34208
X19828Y33775
X20143Y34090
X20655Y33775
X20143Y33263
X21147Y32062
X21836Y32751
X21541Y34129
X23548Y33401
X25241Y32141
X25143Y31098
X24710Y31098
X24631Y30664
X24651Y29621
X24454Y27338
X25143Y26452
X24907Y25901
X25793Y25724
X26186Y25901
X25615Y27121
X27190Y25546
X27171Y24936
X26422Y21865
X24789Y23893
X24513Y23381
X24592Y22594
X24572Y21747
X23411Y23499
X23273Y24168
X22682Y22574
X22289Y23440
X22919Y21334
X24454Y19720
X24730Y18401
X20734Y20192
X19257Y17790
X17997Y17003
X16856Y17042
X18391Y14464
X17997Y13814
X17879Y12672
X18234Y12318
X18234Y11826
X16816Y12279
X16856Y13814
X14375Y10586
X13903Y12476
X12722Y8932
X11186Y12082
X11304Y13578
X8982Y10664
X8982Y9838
X6678Y7436
X5852Y7436
X5852Y7003
X5812Y6176
X6797Y6334
X5734Y8735
X5773Y9444
X5773Y10113
X5970Y10507
X5773Y10901
X5773Y11688
X5773Y12476
X5773Y13263
X5773Y14050
X5773Y14601
X6206Y14601
X6678Y14601
X6639Y15861
X6206Y15861
X5773Y15861
X5773Y16413
X5714Y17279
X6245Y18342
X5852Y18637
X6048Y19326
X6954Y19857
X7151Y18420
X6600Y17535
X6737Y17141
X7426Y17121
X4592Y17436
X3804Y17436
X3017Y17436
X2230Y17436
X2584Y18696
X4513Y20369
X3529Y21255
X3883Y22397
X6009Y21688
X7289Y25153
X7545Y25979
X7702Y26393
X8253Y27062
X8391Y27476
X7978Y27928
X7702Y28420
X8214Y28460
X8686Y26708
X9119Y26747
X9552Y27121
X9493Y28243
X9730Y28893
X10438Y28991
X10576Y28263
X10576Y26649
X10753Y26157
X10773Y25664
X11304Y25369
X10911Y24720
X10576Y25035
X9395Y24306
X9080Y24031
X9119Y25389
X8371Y25783
X8489Y26314
X8214Y25212
X6442Y27948
X6442Y28578
X6127Y28972
X6580Y29168
X6422Y30724
X6422Y31353
X7072Y30664
X8234Y30842
X8726Y31157
X8647Y30428
X9395Y31649
X9789Y31098
X9966Y30487
X8037Y32594
X7761Y33853
X9297Y33735
X10104Y34011
X10497Y35389
X10497Y36570
X9139Y37948
X8883Y37003
X7958Y38893
X7111Y38735
X7013Y36806
X5950Y36294
X5025Y36570
X4887Y35153
X4887Y33578
X4198Y33578
X6265Y33499
X2958Y37594
X1836Y39759
X8706Y39405
X12131Y39405
X13608Y37279
X13942Y37613
X14277Y38775
X14375Y39188
X14946Y38775
X15379Y39188
X16560Y39050
X17525Y37850
X18273Y38440
X18273Y39641
X18726Y39720
X19297Y39601
X21285Y39129
X24060Y36137
X26718Y33263
X22722Y30448
X22466Y29129
X22859Y28972
X20399Y29405
X20359Y28932
X19946Y28873
X20281Y30625
X18686Y30468
X18411Y30940
X18135Y30507
X17820Y30822
X17230Y30625
X17131Y32161
X15517Y29995
X14671Y29916
X14415Y30389
X13312Y30231
X14218Y33046
X12899Y35192
X12997Y35960
X15458Y35507
X18706Y31491
X17643Y28381
X20123Y26550
X20497Y26334
X20635Y24149
X18785Y21196
X18056Y22220
X11304Y21432
X11383Y26550
X4552Y25153
X15891Y8322
X15655Y7495
X16856Y10231
X17800Y2023
X24611Y24503
T02
X25956Y24393
X25956Y24893
X26456Y24893
X26456Y24393
X26456Y23893
X26456Y23393
X26456Y22893
X25956Y22893
X25956Y23393
X25956Y23893
T03
X19614Y33246
T04
X23037Y20625
X23037Y20487
X23037Y20350
X23037Y20212
X23037Y20074
X23056Y8499
X23056Y8361
X23056Y8224
X23056Y8086
X23056Y7948
X4730Y6157
X3548Y6157
T05
X5041Y16842
X5041Y17842
X5041Y18842
X5041Y19842
X5041Y20842
X5041Y21842
X5041Y22842
X5041Y23842
X5041Y25842
X5041Y26842
X5041Y27842
X5041Y28842
X5041Y29842
X5041Y30842
X24041Y30842
X24041Y29842
X24041Y28842
X24041Y27842
X24041Y26842
X24041Y25842
X24041Y24842
X24041Y23842
X24041Y22242
X24041Y21242
X24041Y20242
X24041Y19242
X24041Y18242
X24041Y17242
X24041Y16242
X24041Y15242
X24041Y14242
X24041Y13242
T06
X27151Y26294
X27151Y27294
X27151Y28294
X27151Y29294
X27151Y30294
X27151Y31294
X24041Y31842
X24041Y32842
X16041Y31892
X16041Y30892
X15041Y30892
X15041Y31892
X14041Y31892
X14041Y30892
X12041Y30892
X12041Y31892
X12041Y32892
X12041Y33892
X12041Y34892
X12041Y35892
X12041Y36892
X12041Y37892
X11041Y37892
X11041Y36892
X11041Y35892
X11041Y34892
X11041Y33892
X11041Y32892
X11041Y31892
X11041Y30892
X8454Y35664
X7454Y35664
X6454Y35664
X5454Y35664
X5041Y32842
X5041Y31842
X3135Y19208
X3135Y18208
X4789Y3082
X4789Y2082
T07
X20672Y34304
T08
X22230Y39523
X25615Y37239
X7033Y39523
X3332Y39523
X4828Y15231
T09
X6048Y26098
X6048Y2279
X22466Y2279
X22466Y26294
T10
X24080Y38578
X5182Y38578
M30
