%
M48
M72
T01C0.0197
T02C0.0236
T03C0.0295
T04C0.0394
T05C0.0400
T06C0.0413
T07C0.0520
T08C0.1969
%
T01
X3706Y3381
X5084Y2633
X4631Y1078
X5399Y980
X6127Y1117
X6875Y1196
X7407Y1846
X6816Y2279
X6501Y2554
X6777Y2869
X6403Y3401
X6718Y3696
X6521Y4090
X6875Y4424
X7151Y5212
X7545Y5369
X7958Y4739
X8312Y4976
X9100Y4858
X9592Y5743
X9178Y6511
X9178Y6905
X8824Y6708
X8135Y7771
X8470Y8243
X9041Y8204
X9808Y9503
X9789Y10515
X10596Y10842
X10241Y12003
X10537Y12397
X10517Y12830
X9887Y13539
X9395Y13440
X9041Y13165
X8509Y13086
X8509Y12003
X7741Y12023
X7584Y10802
X7702Y10291
X8214Y9503
X8667Y9700
X8982Y10606
X10635Y9464
X10989Y8243
X10261Y8204
X10478Y6905
X10359Y6039
X10635Y5015
X11501Y4976
X11501Y4031
X12308Y3913
X12072Y3007
X11954Y2574
X11560Y2417
X11836Y1826
X12361Y1812
X13293Y1176
X13450Y2535
X14080Y3913
X14493Y3795
X14848Y4306
X15379Y4306
X16088Y4267
X17919Y3381
X19946Y6235
X20359Y5763
X20359Y4385
X21639Y4149
X22564Y6511
X23253Y6354
X23804Y6944
X23903Y7377
X23450Y7259
X23194Y7987
X23017Y8519
X22505Y9739
X21560Y7850
X21167Y9228
X20852Y10054
X20340Y9661
X19041Y10054
X19336Y10960
X18903Y11747
X18194Y12102
X17997Y13086
X17997Y13539
X17978Y14031
X17761Y14720
X18056Y15153
X17859Y15842
X16797Y15625
X16619Y17023
X17426Y17633
X16993Y18224
X16993Y18932
X17446Y19680
X17328Y20271
X17171Y21255
X16186Y21314
X15655Y22023
X15182Y22023
X14907Y22574
X14552Y22869
X14119Y22633
X13686Y22554
X13686Y23302
X13135Y23401
X12761Y23066
X12859Y22613
X12171Y22673
X11737Y23302
X11088Y23598
X10773Y23322
X10655Y22909
X10556Y21964
X10064Y21235
X9454Y21137
X8785Y21039
X9001Y18755
X9887Y17554
X10970Y18007
X10970Y18499
X10930Y19247
X11088Y19739
X11757Y20271
X12210Y19680
X13037Y20074
X14021Y20074
X13824Y18972
X14887Y18913
X13962Y17377
X13411Y17338
X13174Y16964
X12820Y16275
X12111Y15802
X11678Y15645
X11403Y15980
X10891Y15704
X10674Y16078
X11422Y17062
X11974Y17121
X11836Y17535
X13529Y15310
X13883Y14917
X14119Y15743
X14671Y15645
X14513Y16314
X14966Y16314
X15300Y16649
X15694Y14858
X15852Y14346
X15852Y13342
X16088Y12712
X15655Y12318
X15084Y11728
X15438Y10960
X16048Y11275
X16108Y10251
X14926Y8322
X13686Y9188
X12899Y8204
X12269Y8440
X11816Y8421
X11836Y8913
X12859Y7338
X11659Y6905
X13332Y4858
X13726Y4621
X13686Y5409
X14277Y5802
X14277Y6413
X12919Y4543
X11186Y2141
X10537Y2751
X10163Y1984
X10104Y1393
X10576Y1393
X9631Y1413
X9592Y2141
X9159Y2023
X8706Y1846
X7663Y3283
X7663Y3913
X6442Y2062
X5005Y4484
X4769Y5428
X3922Y6708
X2269Y6708
X5734Y8676
X5773Y9385
X5773Y10054
X5773Y10842
X5773Y11629
X5773Y12417
X5773Y13204
X5773Y13991
X5773Y14543
X6206Y14543
X6678Y14543
X6639Y15802
X6206Y15802
X5773Y15802
X5773Y16354
X5753Y17141
X6600Y17476
X6737Y17082
X7426Y17062
X7269Y18361
X6245Y18283
X5852Y18578
X6048Y19464
X4592Y17377
X3804Y17377
X3017Y17377
X2230Y17377
X3686Y19739
X4237Y20310
X3293Y20645
X3883Y22338
X4552Y25094
X6580Y26078
X6816Y27810
X7702Y28361
X7978Y27869
X8214Y28342
X8391Y27417
X8253Y27003
X8686Y26649
X9119Y26688
X9552Y27062
X9493Y28184
X10576Y28204
X10438Y28932
X11501Y28716
X11915Y28637
X12328Y28519
X12820Y28047
X13234Y28145
X13509Y28460
X13686Y27810
X13686Y27141
X14237Y26511
X13686Y25724
X13017Y25409
X12623Y25015
X12604Y24582
X11993Y24188
X11560Y24326
X10734Y24346
X10773Y23913
X11304Y25310
X10773Y25606
X10753Y26098
X10576Y26590
X11383Y26491
X12230Y26944
X12663Y26846
X12367Y25822
X11698Y27948
X11836Y30054
X13155Y31728
X13273Y32574
X12584Y32456
X12978Y34110
X13450Y34110
X13922Y34110
X14257Y34779
X15005Y34779
X15458Y35173
X15340Y34110
X15812Y34110
X16285Y34110
X17076Y34267
X17249Y35468
X17131Y32102
X17820Y30763
X18135Y30448
X18411Y30881
X18686Y30409
X18982Y31235
X20320Y30527
X21226Y29346
X21186Y28873
X20773Y28814
X20123Y26491
X20497Y26275
X20635Y24090
X20615Y23401
X20222Y22023
X20812Y20409
X21895Y20428
X22564Y19818
X21934Y19149
X20300Y18755
X20300Y18322
X20300Y17889
X20320Y17436
X20655Y16846
X21088Y16826
X21206Y16354
X21324Y15921
X21993Y16432
X22230Y15802
X21737Y14818
X20438Y15783
X19966Y16747
X19100Y15901
X18863Y14562
X19690Y13873
X20379Y13519
X20379Y13086
X20104Y12732
X20556Y12653
X19926Y12180
X20773Y11432
X21757Y12771
X22682Y12358
X23411Y12456
X23352Y13440
X24493Y13716
X22978Y15606
X22741Y16787
X24730Y18342
X24572Y21688
X24513Y23322
X24789Y23834
X24611Y24444
X25123Y25842
X26068Y25842
X27190Y25487
X27171Y24562
X26462Y21806
X23411Y23440
X23273Y24110
X22407Y22889
X22682Y22515
X19730Y20271
X18844Y20094
X18686Y19424
X19375Y18322
X17859Y17653
X16167Y18932
X16186Y20074
X15497Y21393
X15064Y21432
X14434Y21728
X13489Y21275
X12525Y21570
X12190Y21275
X11856Y21570
X11482Y21806
X11304Y21373
X9395Y24247
X9080Y23972
X9139Y24779
X8726Y24838
X9237Y25330
X9572Y25606
X8804Y25724
X8371Y25724
X6521Y29700
X6560Y30802
X6541Y31432
X6482Y32298
X5497Y32298
X4887Y33598
X4198Y33519
X5714Y34661
X6915Y33755
X7623Y33755
X8214Y33696
X8214Y34503
X8194Y35212
X7387Y34503
X6777Y36885
X5517Y38283
X4966Y38795
X4257Y39543
X2820Y38834
X8214Y32397
X9454Y33519
X9533Y34050
X10123Y33932
X9769Y32554
X9690Y30468
X13096Y35173
X14218Y32987
X14415Y30330
X14671Y29858
X15517Y29936
X15537Y28066
X15419Y27633
X15419Y27141
X16147Y27200
X16147Y27692
X16462Y28007
X16777Y27692
X17013Y28322
X17328Y28007
X17643Y28322
X17545Y26295
X18017Y26295
X18056Y25173
X17092Y25389
X17092Y25822
X16462Y24759
X16127Y25094
X16127Y25527
X16304Y25940
X16304Y23972
X17289Y23657
X17564Y24011
X18037Y24129
X18017Y23676
X19080Y23440
X18056Y22161
X18785Y21137
X16895Y22436
X14671Y23440
X14592Y24346
X14592Y24897
X14513Y25487
X14887Y25783
X14592Y27771
X14513Y28204
X14336Y28657
X13312Y30173
X17230Y30566
X21324Y36354
X21009Y36865
X21324Y37180
X20871Y37298
X22328Y35153
X23056Y35881
X23037Y36905
X23804Y34267
X25241Y31610
X24651Y31176
X25615Y30763
X24887Y29484
X24769Y27200
X25615Y27298
X22859Y28913
X22466Y29070
X22722Y30389
X22348Y31117
X26718Y33204
X24651Y39661
X18627Y39621
X18273Y39110
X16777Y39503
X11344Y39149
X9611Y38283
X9474Y36669
X9572Y35802
X12111Y14936
X13076Y14858
X12938Y14365
X13765Y13047
X13686Y12613
X14159Y12023
X14159Y11354
X14592Y11235
X11304Y13519
X11186Y12023
X6678Y7377
X5852Y7377
X5773Y6905
X6009Y6472
X19631Y8086
X20340Y8086
X24671Y3795
X25793Y3834
X26285Y3086
X26501Y2417
X24671Y1629
X23667Y1196
X24769Y7417
X24730Y8243
T02
X25956Y22834
X25956Y23334
X25956Y23834
X25956Y24334
X25956Y24834
X26456Y24834
X26456Y24334
X26456Y23834
X26456Y23334
X26456Y22834
T03
X20795Y36336
T04
X24041Y30783
X24041Y29783
X24041Y28783
X24041Y27783
X24041Y26783
X24041Y25783
X24041Y24783
X24041Y23783
X24041Y22183
X24041Y21183
X24041Y20183
X24041Y19183
X24041Y18183
X24041Y17183
X24041Y16183
X24041Y15183
X24041Y14183
X24041Y13183
X5041Y16783
X5041Y17783
X5041Y18783
X5041Y19783
X5041Y20783
X5041Y21783
X5041Y22783
X5041Y23783
X5041Y25783
X5041Y26783
X5041Y27783
X5041Y28783
X5041Y29783
X5041Y30783
T05
X5041Y31783
X5041Y32783
X7308Y27047
X7308Y26047
X7308Y25047
X7308Y24047
X3135Y19149
X3135Y18149
X11041Y30833
X12041Y30833
X12041Y31833
X12041Y32833
X12041Y33833
X12041Y34833
X12041Y35833
X12041Y36833
X12041Y37833
X11041Y37833
X11041Y36833
X11041Y35833
X11041Y34833
X11041Y33833
X11041Y32833
X11041Y31833
X14041Y31833
X14041Y30833
X15041Y30833
X16041Y30833
X16041Y31833
X15041Y31833
X24041Y31783
X24041Y32783
X27151Y31235
X27151Y30235
X27151Y29235
X27151Y28235
X27151Y27235
X27151Y26235
T06
X21853Y37394
T07
X4828Y15173
T08
X14631Y37732
M30
