%
M48
M72
T01C0.0118
T02C0.0197
T03C0.0236
T04C0.0295
T05C0.0354
T06C0.0394
T07C0.0400
T08C0.0413
T09C0.0520
T10C0.1969
%
T01
X24749Y33487
T02
X2879Y4609
X3647Y4589
X4060Y5987
X3922Y6715
X2269Y6715
X4867Y3526
X5005Y4491
X6521Y4097
X6718Y3704
X6875Y4432
X7151Y5219
X7545Y5377
X7958Y4747
X8312Y4983
X9100Y4865
X9592Y5751
X9178Y6519
X9178Y6912
X8824Y6715
X8135Y7778
X8470Y8251
X9041Y8211
X9808Y9511
X9789Y10523
X10596Y10849
X10241Y12011
X10537Y12404
X10517Y12837
X9887Y13546
X9395Y13448
X9041Y13172
X8509Y13093
X8509Y12011
X7741Y12030
X7584Y10810
X7702Y10298
X8214Y9511
X8667Y9708
X8982Y10613
X10261Y8211
X10989Y8251
X11816Y8428
X12269Y8448
X11836Y8920
X12899Y8211
X12859Y7345
X11659Y6912
X10478Y6912
X10359Y6046
X10635Y5023
X11501Y4983
X11501Y4038
X12308Y3920
X12072Y3015
X11954Y2582
X11560Y2424
X11836Y1834
X12361Y1820
X13293Y1184
X13450Y2542
X14080Y3920
X14493Y3802
X14848Y4314
X15379Y4314
X16088Y4274
X17919Y3389
X19946Y6243
X20359Y5771
X20359Y4393
X21639Y4156
X22564Y6519
X23253Y6361
X23804Y6952
X23450Y7267
X23903Y7385
X24769Y7424
X24730Y8251
X23194Y7995
X23017Y8526
X22505Y9747
X21560Y7857
X21167Y9235
X20852Y10062
X20340Y9668
X19336Y10967
X18903Y11755
X18194Y12109
X17997Y13093
X17997Y13546
X17978Y14038
X17761Y14727
X18056Y15160
X17859Y15849
X18863Y14570
X19690Y13881
X20104Y12739
X20379Y13093
X20556Y12660
X19926Y12188
X20773Y11440
X21757Y12778
X22682Y12365
X23411Y12463
X23352Y13448
X24493Y13723
X22978Y15613
X22230Y15810
X21993Y16440
X21324Y15928
X21206Y16361
X21088Y16834
X20655Y16853
X20320Y17444
X20300Y17897
X20300Y18330
X20300Y18763
X19375Y18330
X18686Y19432
X18844Y20101
X18785Y21145
X18056Y22168
X17171Y21263
X17328Y20278
X17446Y19688
X16993Y18940
X16993Y18231
X17426Y17641
X17859Y17660
X16619Y17030
X16797Y15633
X15852Y14353
X15694Y14865
X14671Y15652
X14513Y16322
X14119Y15751
X13529Y15318
X13883Y14924
X13076Y14865
X12938Y14373
X12111Y14944
X11678Y15652
X11403Y15987
X10891Y15711
X10674Y16086
X11422Y17070
X11974Y17129
X11836Y17542
X10970Y18015
X10970Y18507
X10930Y19255
X11088Y19747
X11757Y20278
X12210Y19688
X13037Y20082
X13489Y21282
X14021Y20082
X13824Y18979
X14887Y18920
X13962Y17385
X13411Y17345
X13174Y16971
X12820Y16282
X12111Y15810
X11304Y13526
X11186Y12030
X10635Y9471
X13686Y9196
X14926Y8330
X14277Y6420
X14277Y5810
X13686Y5416
X13332Y4865
X13726Y4629
X12919Y4550
X11186Y2148
X10537Y2759
X10163Y1991
X10104Y1400
X10576Y1400
X9631Y1420
X9592Y2148
X9159Y2030
X8706Y1853
X7663Y3290
X7663Y3920
X6777Y2877
X6501Y2562
X6816Y2286
X6442Y2070
X7407Y1853
X7308Y1243
X6718Y1086
X4572Y967
X4060Y1971
X5852Y6952
X5852Y7385
X6678Y7385
X5734Y8684
X5773Y9393
X5773Y10062
X5773Y10849
X5773Y11637
X5773Y12424
X5773Y13211
X5773Y13999
X5773Y14550
X6206Y14550
X6678Y14550
X6639Y15810
X6206Y15810
X5773Y15810
X5773Y16361
X5753Y17148
X6600Y17483
X6737Y17089
X7426Y17070
X7269Y18369
X6245Y18290
X5852Y18586
X6048Y19471
X4513Y20318
X3529Y21204
X3883Y22345
X4552Y25101
X6580Y26086
X6816Y27818
X7702Y28369
X7978Y27877
X8214Y28349
X8391Y27424
X8253Y27011
X8686Y26656
X9119Y26696
X9552Y27070
X9493Y28192
X10576Y28211
X10438Y28940
X11501Y28723
X11915Y28645
X12328Y28526
X12820Y28054
X13234Y28152
X13509Y28467
X13686Y27818
X13686Y27148
X14237Y26519
X13686Y25731
X13017Y25416
X12623Y25023
X12604Y24589
X11993Y24196
X11560Y24334
X11088Y23605
X10773Y23330
X10655Y22916
X10556Y21971
X10064Y21243
X9454Y21145
X8785Y21046
X9001Y18763
X9887Y17562
X12190Y21282
X11856Y21578
X11482Y21814
X11304Y21381
X12171Y22680
X12859Y22621
X12761Y23074
X13135Y23408
X13686Y23310
X13686Y22562
X14119Y22641
X14552Y22877
X14907Y22582
X15182Y22030
X15064Y21440
X15497Y21400
X15655Y22030
X16186Y21322
X16895Y22444
X17289Y23664
X17564Y24019
X18037Y24137
X18017Y23684
X19080Y23448
X20222Y22030
X20615Y23408
X20635Y24097
X20497Y26282
X20123Y26499
X19946Y28822
X20359Y28881
X20399Y29353
X20320Y30534
X18982Y31243
X18411Y30889
X18135Y30456
X17820Y30771
X17230Y30574
X17131Y32109
X18568Y33133
X17249Y35475
X16285Y34117
X15812Y34117
X15340Y34117
X15005Y34786
X15458Y35180
X15871Y35633
X14257Y34786
X13922Y34117
X13450Y34117
X12978Y34117
X13096Y35180
X14218Y32995
X13273Y32582
X13155Y31735
X12584Y32463
X13312Y30180
X14336Y28664
X14513Y28211
X14592Y27778
X15419Y27641
X15537Y28074
X16147Y27700
X16462Y28015
X16777Y27700
X17328Y28015
X17013Y28330
X17643Y28330
X16147Y27208
X15419Y27148
X16304Y25948
X16127Y25534
X16127Y25101
X16462Y24767
X16304Y23979
X17092Y25397
X17092Y25830
X17545Y26302
X18017Y26302
X18056Y25180
X14887Y25790
X14513Y25495
X14592Y24904
X14592Y24353
X14671Y23448
X14434Y21735
X16186Y20082
X16167Y18940
X15300Y16656
X14966Y16322
X15852Y13349
X16088Y12719
X15655Y12326
X15084Y11735
X14592Y11243
X14159Y11361
X14159Y12030
X13686Y12621
X13765Y13054
X15438Y10967
X16048Y11282
X16108Y10259
X19041Y10062
X19631Y8093
X20340Y8093
X20379Y13526
X21737Y14826
X20438Y15790
X19966Y16755
X19100Y15908
X21934Y19156
X22564Y19826
X21895Y20436
X20812Y20416
X19730Y20278
X22407Y22897
X22682Y22523
X23411Y23448
X23273Y24117
X24611Y24452
X24789Y23841
X24513Y23330
X24572Y21696
X26462Y21814
X27171Y24570
X27190Y25495
X26068Y25849
X25123Y25849
X24769Y27208
X25615Y27306
X24887Y29491
X25615Y30771
X25241Y31617
X24651Y31184
X22722Y30397
X22348Y31125
X22466Y29078
X22859Y28920
X18686Y30416
X15517Y29944
X14671Y29865
X14415Y30337
X11836Y30062
X11698Y27956
X12230Y26952
X12663Y26853
X12367Y25830
X11304Y25318
X10773Y25613
X10753Y26105
X10576Y26597
X11383Y26499
X10734Y24353
X10773Y23920
X11737Y23310
X12525Y21578
X9572Y25613
X9237Y25337
X9139Y24786
X8726Y24845
X8804Y25731
X8371Y25731
X9395Y24255
X9080Y23979
X6521Y29708
X6560Y30810
X6541Y31440
X6482Y32306
X5497Y32306
X4887Y33605
X5714Y34668
X6915Y33763
X7623Y33763
X8214Y33704
X8214Y34511
X8194Y35219
X7387Y34511
X8214Y32404
X9454Y33526
X9533Y34058
X10123Y33940
X9769Y32562
X9690Y30475
X9572Y35810
X9474Y36676
X9611Y38290
X6777Y36893
X5517Y38290
X4966Y38802
X4257Y39550
X2820Y38841
X4198Y33526
X12761Y39471
X16383Y39511
X17997Y38408
X19454Y38152
X19533Y39511
X20871Y37306
X21009Y36873
X21324Y37188
X21324Y36361
X22328Y35160
X23056Y35889
X23037Y36912
X23785Y39668
X26718Y33211
X24730Y18349
X22741Y16794
X24671Y3802
X25793Y3841
X26285Y3093
X26501Y2424
X24671Y1637
X23667Y1204
X4592Y17385
X3804Y17385
X3017Y17385
X2230Y17385
X2584Y18645
T03
X25956Y22841
X26456Y22841
X26456Y23341
X26456Y23841
X26456Y24341
X26456Y24841
X25956Y24841
X25956Y24341
X25956Y23841
X25956Y23341
T04
X20795Y36344
T05
X4730Y6105
X3548Y6105
T06
X5041Y16790
X5041Y17790
X5041Y18790
X5041Y19790
X5041Y20790
X5041Y21790
X5041Y22790
X5041Y23790
X5041Y25790
X5041Y26790
X5041Y27790
X5041Y28790
X5041Y29790
X5041Y30790
X24041Y30790
X24041Y29790
X24041Y28790
X24041Y27790
X24041Y26790
X24041Y25790
X24041Y24790
X24041Y23790
X24041Y22190
X24041Y21190
X24041Y20190
X24041Y19190
X24041Y18190
X24041Y17190
X24041Y16190
X24041Y15190
X24041Y14190
X24041Y13190
T07
X27151Y26243
X27151Y27243
X27151Y28243
X27151Y29243
X27151Y30243
X27151Y31243
X24041Y31790
X24041Y32790
X16041Y31840
X16041Y30840
X15041Y30840
X15041Y31840
X14041Y31840
X14041Y30840
X12041Y30840
X12041Y31840
X12041Y32840
X12041Y33840
X12041Y34840
X12041Y35840
X12041Y36840
X12041Y37840
X11041Y37840
X11041Y36840
X11041Y35840
X11041Y34840
X11041Y33840
X11041Y32840
X11041Y31840
X11041Y30840
X7308Y27054
X7308Y26054
X7308Y25054
X7308Y24054
X3135Y19156
X3135Y18156
X5041Y31790
X5041Y32790
T08
X21853Y37402
T09
X18568Y39235
X17387Y39235
X11875Y39235
X10694Y39235
X4828Y15180
T10
X14631Y37739
M30
