G75*
G70*
%OFA0B0*%
%FSLAX24Y24*%
%IPPOS*%
%LPD*%
%AMOC8*
5,1,8,0,0,1.08239X$1,22.5*
%
%ADD10C,0.0034*%
%ADD11C,0.0035*%
%ADD12R,0.1024X0.0591*%
%ADD13C,0.0036*%
%ADD14C,0.0043*%
%ADD15C,0.0035*%
%ADD16C,0.0067*%
%ADD17C,0.0051*%
D10*
X002738Y004959D02*
X002738Y005185D01*
X003264Y005185D01*
X003264Y004959D01*
X002738Y004959D01*
X002738Y004992D02*
X003264Y004992D01*
X003264Y005025D02*
X002738Y005025D01*
X002738Y005058D02*
X003264Y005058D01*
X003264Y005091D02*
X002738Y005091D01*
X002738Y005124D02*
X003264Y005124D01*
X003264Y005157D02*
X002738Y005157D01*
X002738Y006459D02*
X002738Y006685D01*
X003264Y006685D01*
X003264Y006459D01*
X002738Y006459D01*
X002738Y006492D02*
X003264Y006492D01*
X003264Y006525D02*
X002738Y006525D01*
X002738Y006558D02*
X003264Y006558D01*
X003264Y006591D02*
X002738Y006591D01*
X002738Y006624D02*
X003264Y006624D01*
X003264Y006657D02*
X002738Y006657D01*
X004738Y006685D02*
X004738Y006459D01*
X004738Y006685D02*
X005264Y006685D01*
X005264Y006459D01*
X004738Y006459D01*
X004738Y006492D02*
X005264Y006492D01*
X005264Y006525D02*
X004738Y006525D01*
X004738Y006558D02*
X005264Y006558D01*
X005264Y006591D02*
X004738Y006591D01*
X004738Y006624D02*
X005264Y006624D01*
X005264Y006657D02*
X004738Y006657D01*
X004738Y005185D02*
X004738Y004959D01*
X004738Y005185D02*
X005264Y005185D01*
X005264Y004959D01*
X004738Y004959D01*
X004738Y004992D02*
X005264Y004992D01*
X005264Y005025D02*
X004738Y005025D01*
X004738Y005058D02*
X005264Y005058D01*
X005264Y005091D02*
X004738Y005091D01*
X004738Y005124D02*
X005264Y005124D01*
X005264Y005157D02*
X004738Y005157D01*
D11*
X012956Y033458D02*
X012956Y033856D01*
X013236Y033856D01*
X013236Y033458D01*
X012956Y033458D01*
X012956Y033492D02*
X013236Y033492D01*
X013236Y033526D02*
X012956Y033526D01*
X012956Y033560D02*
X013236Y033560D01*
X013236Y033594D02*
X012956Y033594D01*
X012956Y033628D02*
X013236Y033628D01*
X013236Y033662D02*
X012956Y033662D01*
X012956Y033696D02*
X013236Y033696D01*
X013236Y033730D02*
X012956Y033730D01*
X012956Y033764D02*
X013236Y033764D01*
X013236Y033798D02*
X012956Y033798D01*
X012956Y033832D02*
X013236Y033832D01*
X013664Y033856D02*
X013664Y033458D01*
X013664Y033856D02*
X013944Y033856D01*
X013944Y033458D01*
X013664Y033458D01*
X013664Y033492D02*
X013944Y033492D01*
X013944Y033526D02*
X013664Y033526D01*
X013664Y033560D02*
X013944Y033560D01*
X013944Y033594D02*
X013664Y033594D01*
X013664Y033628D02*
X013944Y033628D01*
X013944Y033662D02*
X013664Y033662D01*
X013664Y033696D02*
X013944Y033696D01*
X013944Y033730D02*
X013664Y033730D01*
X013664Y033764D02*
X013944Y033764D01*
X013944Y033798D02*
X013664Y033798D01*
X013664Y033832D02*
X013944Y033832D01*
X013664Y034481D02*
X013664Y034879D01*
X013944Y034879D01*
X013944Y034481D01*
X013664Y034481D01*
X013664Y034515D02*
X013944Y034515D01*
X013944Y034549D02*
X013664Y034549D01*
X013664Y034583D02*
X013944Y034583D01*
X013944Y034617D02*
X013664Y034617D01*
X013664Y034651D02*
X013944Y034651D01*
X013944Y034685D02*
X013664Y034685D01*
X013664Y034719D02*
X013944Y034719D01*
X013944Y034753D02*
X013664Y034753D01*
X013664Y034787D02*
X013944Y034787D01*
X013944Y034821D02*
X013664Y034821D01*
X013664Y034855D02*
X013944Y034855D01*
X012956Y034879D02*
X012956Y034481D01*
X012956Y034879D02*
X013236Y034879D01*
X013236Y034481D01*
X012956Y034481D01*
X012956Y034515D02*
X013236Y034515D01*
X013236Y034549D02*
X012956Y034549D01*
X012956Y034583D02*
X013236Y034583D01*
X013236Y034617D02*
X012956Y034617D01*
X012956Y034651D02*
X013236Y034651D01*
X013236Y034685D02*
X012956Y034685D01*
X012956Y034719D02*
X013236Y034719D01*
X013236Y034753D02*
X012956Y034753D01*
X012956Y034787D02*
X013236Y034787D01*
X013236Y034821D02*
X012956Y034821D01*
X012956Y034855D02*
X013236Y034855D01*
X015318Y034879D02*
X015318Y034481D01*
X015318Y034879D02*
X015598Y034879D01*
X015598Y034481D01*
X015318Y034481D01*
X015318Y034515D02*
X015598Y034515D01*
X015598Y034549D02*
X015318Y034549D01*
X015318Y034583D02*
X015598Y034583D01*
X015598Y034617D02*
X015318Y034617D01*
X015318Y034651D02*
X015598Y034651D01*
X015598Y034685D02*
X015318Y034685D01*
X015318Y034719D02*
X015598Y034719D01*
X015598Y034753D02*
X015318Y034753D01*
X015318Y034787D02*
X015598Y034787D01*
X015598Y034821D02*
X015318Y034821D01*
X015318Y034855D02*
X015598Y034855D01*
X016027Y034879D02*
X016027Y034481D01*
X016027Y034879D02*
X016307Y034879D01*
X016307Y034481D01*
X016027Y034481D01*
X016027Y034515D02*
X016307Y034515D01*
X016307Y034549D02*
X016027Y034549D01*
X016027Y034583D02*
X016307Y034583D01*
X016307Y034617D02*
X016027Y034617D01*
X016027Y034651D02*
X016307Y034651D01*
X016307Y034685D02*
X016027Y034685D01*
X016027Y034719D02*
X016307Y034719D01*
X016307Y034753D02*
X016027Y034753D01*
X016027Y034787D02*
X016307Y034787D01*
X016307Y034821D02*
X016027Y034821D01*
X016027Y034855D02*
X016307Y034855D01*
X016027Y033856D02*
X016027Y033458D01*
X016027Y033856D02*
X016307Y033856D01*
X016307Y033458D01*
X016027Y033458D01*
X016027Y033492D02*
X016307Y033492D01*
X016307Y033526D02*
X016027Y033526D01*
X016027Y033560D02*
X016307Y033560D01*
X016307Y033594D02*
X016027Y033594D01*
X016027Y033628D02*
X016307Y033628D01*
X016307Y033662D02*
X016027Y033662D01*
X016027Y033696D02*
X016307Y033696D01*
X016307Y033730D02*
X016027Y033730D01*
X016027Y033764D02*
X016307Y033764D01*
X016307Y033798D02*
X016027Y033798D01*
X016027Y033832D02*
X016307Y033832D01*
X015318Y033856D02*
X015318Y033458D01*
X015318Y033856D02*
X015598Y033856D01*
X015598Y033458D01*
X015318Y033458D01*
X015318Y033492D02*
X015598Y033492D01*
X015598Y033526D02*
X015318Y033526D01*
X015318Y033560D02*
X015598Y033560D01*
X015598Y033594D02*
X015318Y033594D01*
X015318Y033628D02*
X015598Y033628D01*
X015598Y033662D02*
X015318Y033662D01*
X015318Y033696D02*
X015598Y033696D01*
X015598Y033730D02*
X015318Y033730D01*
X015318Y033764D02*
X015598Y033764D01*
X015598Y033798D02*
X015318Y033798D01*
X015318Y033832D02*
X015598Y033832D01*
D12*
X024671Y004444D03*
X024671Y003263D03*
D13*
X007585Y027750D02*
X007585Y028382D01*
X007823Y028382D01*
X007823Y027750D01*
X007585Y027750D01*
X007585Y027785D02*
X007823Y027785D01*
X007823Y027820D02*
X007585Y027820D01*
X007585Y027855D02*
X007823Y027855D01*
X007823Y027890D02*
X007585Y027890D01*
X007585Y027925D02*
X007823Y027925D01*
X007823Y027960D02*
X007585Y027960D01*
X007585Y027995D02*
X007823Y027995D01*
X007823Y028030D02*
X007585Y028030D01*
X007585Y028065D02*
X007823Y028065D01*
X007823Y028100D02*
X007585Y028100D01*
X007585Y028135D02*
X007823Y028135D01*
X007823Y028170D02*
X007585Y028170D01*
X007585Y028205D02*
X007823Y028205D01*
X007823Y028240D02*
X007585Y028240D01*
X007585Y028275D02*
X007823Y028275D01*
X007823Y028310D02*
X007585Y028310D01*
X007585Y028345D02*
X007823Y028345D01*
X007823Y028380D02*
X007585Y028380D01*
X007085Y028382D02*
X007085Y027750D01*
X007085Y028382D02*
X007323Y028382D01*
X007323Y027750D01*
X007085Y027750D01*
X007085Y027785D02*
X007323Y027785D01*
X007323Y027820D02*
X007085Y027820D01*
X007085Y027855D02*
X007323Y027855D01*
X007323Y027890D02*
X007085Y027890D01*
X007085Y027925D02*
X007323Y027925D01*
X007323Y027960D02*
X007085Y027960D01*
X007085Y027995D02*
X007323Y027995D01*
X007323Y028030D02*
X007085Y028030D01*
X007085Y028065D02*
X007323Y028065D01*
X007323Y028100D02*
X007085Y028100D01*
X007085Y028135D02*
X007323Y028135D01*
X007323Y028170D02*
X007085Y028170D01*
X007085Y028205D02*
X007323Y028205D01*
X007323Y028240D02*
X007085Y028240D01*
X007085Y028275D02*
X007323Y028275D01*
X007323Y028310D02*
X007085Y028310D01*
X007085Y028345D02*
X007323Y028345D01*
X007323Y028380D02*
X007085Y028380D01*
X006585Y028382D02*
X006585Y027750D01*
X006585Y028382D02*
X006823Y028382D01*
X006823Y027750D01*
X006585Y027750D01*
X006585Y027785D02*
X006823Y027785D01*
X006823Y027820D02*
X006585Y027820D01*
X006585Y027855D02*
X006823Y027855D01*
X006823Y027890D02*
X006585Y027890D01*
X006585Y027925D02*
X006823Y027925D01*
X006823Y027960D02*
X006585Y027960D01*
X006585Y027995D02*
X006823Y027995D01*
X006823Y028030D02*
X006585Y028030D01*
X006585Y028065D02*
X006823Y028065D01*
X006823Y028100D02*
X006585Y028100D01*
X006585Y028135D02*
X006823Y028135D01*
X006823Y028170D02*
X006585Y028170D01*
X006585Y028205D02*
X006823Y028205D01*
X006823Y028240D02*
X006585Y028240D01*
X006585Y028275D02*
X006823Y028275D01*
X006823Y028310D02*
X006585Y028310D01*
X006585Y028345D02*
X006823Y028345D01*
X006823Y028380D02*
X006585Y028380D01*
X006085Y028382D02*
X006085Y027750D01*
X006085Y028382D02*
X006323Y028382D01*
X006323Y027750D01*
X006085Y027750D01*
X006085Y027785D02*
X006323Y027785D01*
X006323Y027820D02*
X006085Y027820D01*
X006085Y027855D02*
X006323Y027855D01*
X006323Y027890D02*
X006085Y027890D01*
X006085Y027925D02*
X006323Y027925D01*
X006323Y027960D02*
X006085Y027960D01*
X006085Y027995D02*
X006323Y027995D01*
X006323Y028030D02*
X006085Y028030D01*
X006085Y028065D02*
X006323Y028065D01*
X006323Y028100D02*
X006085Y028100D01*
X006085Y028135D02*
X006323Y028135D01*
X006323Y028170D02*
X006085Y028170D01*
X006085Y028205D02*
X006323Y028205D01*
X006323Y028240D02*
X006085Y028240D01*
X006085Y028275D02*
X006323Y028275D01*
X006323Y028310D02*
X006085Y028310D01*
X006085Y028345D02*
X006323Y028345D01*
X006323Y028380D02*
X006085Y028380D01*
D14*
X006736Y001391D02*
X006736Y001001D01*
X006346Y001001D01*
X006346Y001391D01*
X006736Y001391D01*
X006736Y001043D02*
X006346Y001043D01*
X006346Y001085D02*
X006736Y001085D01*
X006736Y001127D02*
X006346Y001127D01*
X006346Y001169D02*
X006736Y001169D01*
X006736Y001211D02*
X006346Y001211D01*
X006346Y001253D02*
X006736Y001253D01*
X006736Y001295D02*
X006346Y001295D01*
X006346Y001337D02*
X006736Y001337D01*
X006736Y001379D02*
X006346Y001379D01*
X007562Y001391D02*
X007562Y001001D01*
X007172Y001001D01*
X007172Y001391D01*
X007562Y001391D01*
X007562Y001043D02*
X007172Y001043D01*
X007172Y001085D02*
X007562Y001085D01*
X007562Y001127D02*
X007172Y001127D01*
X007172Y001169D02*
X007562Y001169D01*
X007562Y001211D02*
X007172Y001211D01*
X007172Y001253D02*
X007562Y001253D01*
X007562Y001295D02*
X007172Y001295D01*
X007172Y001337D02*
X007562Y001337D01*
X007562Y001379D02*
X007172Y001379D01*
X007822Y001391D02*
X007822Y001001D01*
X007822Y001391D02*
X008212Y001391D01*
X008212Y001001D01*
X007822Y001001D01*
X007822Y001043D02*
X008212Y001043D01*
X008212Y001085D02*
X007822Y001085D01*
X007822Y001127D02*
X008212Y001127D01*
X008212Y001169D02*
X007822Y001169D01*
X007822Y001211D02*
X008212Y001211D01*
X008212Y001253D02*
X007822Y001253D01*
X007822Y001295D02*
X008212Y001295D01*
X008212Y001337D02*
X007822Y001337D01*
X007822Y001379D02*
X008212Y001379D01*
X008649Y001391D02*
X008649Y001001D01*
X008649Y001391D02*
X009039Y001391D01*
X009039Y001001D01*
X008649Y001001D01*
X008649Y001043D02*
X009039Y001043D01*
X009039Y001085D02*
X008649Y001085D01*
X008649Y001127D02*
X009039Y001127D01*
X009039Y001169D02*
X008649Y001169D01*
X008649Y001211D02*
X009039Y001211D01*
X009039Y001253D02*
X008649Y001253D01*
X008649Y001295D02*
X009039Y001295D01*
X009039Y001337D02*
X008649Y001337D01*
X008649Y001379D02*
X009039Y001379D01*
D15*
X021266Y032168D02*
X020764Y032670D01*
X021266Y032168D02*
X021040Y031942D01*
X020538Y032444D01*
X020764Y032670D01*
X021006Y031976D02*
X021074Y031976D01*
X021108Y032010D02*
X020972Y032010D01*
X020938Y032044D02*
X021142Y032044D01*
X021176Y032078D02*
X020904Y032078D01*
X020870Y032112D02*
X021210Y032112D01*
X021244Y032146D02*
X020836Y032146D01*
X020802Y032180D02*
X021254Y032180D01*
X021220Y032214D02*
X020768Y032214D01*
X020734Y032248D02*
X021186Y032248D01*
X021152Y032282D02*
X020700Y032282D01*
X020666Y032316D02*
X021118Y032316D01*
X021084Y032350D02*
X020632Y032350D01*
X020598Y032384D02*
X021050Y032384D01*
X021016Y032418D02*
X020564Y032418D01*
X020546Y032452D02*
X020982Y032452D01*
X020948Y032486D02*
X020580Y032486D01*
X020614Y032520D02*
X020914Y032520D01*
X020880Y032554D02*
X020648Y032554D01*
X020682Y032588D02*
X020846Y032588D01*
X020812Y032622D02*
X020716Y032622D01*
X020750Y032656D02*
X020778Y032656D01*
X021119Y033025D02*
X021621Y032523D01*
X021395Y032297D01*
X020893Y032799D01*
X021119Y033025D01*
X021361Y032331D02*
X021429Y032331D01*
X021463Y032365D02*
X021327Y032365D01*
X021293Y032399D02*
X021497Y032399D01*
X021531Y032433D02*
X021259Y032433D01*
X021225Y032467D02*
X021565Y032467D01*
X021599Y032501D02*
X021191Y032501D01*
X021157Y032535D02*
X021609Y032535D01*
X021575Y032569D02*
X021123Y032569D01*
X021089Y032603D02*
X021541Y032603D01*
X021507Y032637D02*
X021055Y032637D01*
X021021Y032671D02*
X021473Y032671D01*
X021439Y032705D02*
X020987Y032705D01*
X020953Y032739D02*
X021405Y032739D01*
X021371Y032773D02*
X020919Y032773D01*
X020901Y032807D02*
X021337Y032807D01*
X021303Y032841D02*
X020935Y032841D01*
X020969Y032875D02*
X021269Y032875D01*
X021235Y032909D02*
X021003Y032909D01*
X021037Y032943D02*
X021201Y032943D01*
X021167Y032977D02*
X021071Y032977D01*
X021105Y033011D02*
X021133Y033011D01*
X021473Y033380D02*
X021975Y032878D01*
X021749Y032652D01*
X021247Y033154D01*
X021473Y033380D01*
X021715Y032686D02*
X021783Y032686D01*
X021817Y032720D02*
X021681Y032720D01*
X021647Y032754D02*
X021851Y032754D01*
X021885Y032788D02*
X021613Y032788D01*
X021579Y032822D02*
X021919Y032822D01*
X021953Y032856D02*
X021545Y032856D01*
X021511Y032890D02*
X021963Y032890D01*
X021929Y032924D02*
X021477Y032924D01*
X021443Y032958D02*
X021895Y032958D01*
X021861Y032992D02*
X021409Y032992D01*
X021375Y033026D02*
X021827Y033026D01*
X021793Y033060D02*
X021341Y033060D01*
X021307Y033094D02*
X021759Y033094D01*
X021725Y033128D02*
X021273Y033128D01*
X021255Y033162D02*
X021691Y033162D01*
X021657Y033196D02*
X021289Y033196D01*
X021323Y033230D02*
X021623Y033230D01*
X021589Y033264D02*
X021357Y033264D01*
X021391Y033298D02*
X021555Y033298D01*
X021521Y033332D02*
X021425Y033332D01*
X021459Y033366D02*
X021487Y033366D01*
X019748Y035105D02*
X019246Y035607D01*
X019748Y035105D02*
X019522Y034879D01*
X019020Y035381D01*
X019246Y035607D01*
X019488Y034913D02*
X019556Y034913D01*
X019590Y034947D02*
X019454Y034947D01*
X019420Y034981D02*
X019624Y034981D01*
X019658Y035015D02*
X019386Y035015D01*
X019352Y035049D02*
X019692Y035049D01*
X019726Y035083D02*
X019318Y035083D01*
X019284Y035117D02*
X019736Y035117D01*
X019702Y035151D02*
X019250Y035151D01*
X019216Y035185D02*
X019668Y035185D01*
X019634Y035219D02*
X019182Y035219D01*
X019148Y035253D02*
X019600Y035253D01*
X019566Y035287D02*
X019114Y035287D01*
X019080Y035321D02*
X019532Y035321D01*
X019498Y035355D02*
X019046Y035355D01*
X019028Y035389D02*
X019464Y035389D01*
X019430Y035423D02*
X019062Y035423D01*
X019096Y035457D02*
X019396Y035457D01*
X019362Y035491D02*
X019130Y035491D01*
X019164Y035525D02*
X019328Y035525D01*
X019294Y035559D02*
X019198Y035559D01*
X019232Y035593D02*
X019260Y035593D01*
X018891Y035252D02*
X019393Y034750D01*
X019167Y034524D01*
X018665Y035026D01*
X018891Y035252D01*
X019133Y034558D02*
X019201Y034558D01*
X019235Y034592D02*
X019099Y034592D01*
X019065Y034626D02*
X019269Y034626D01*
X019303Y034660D02*
X019031Y034660D01*
X018997Y034694D02*
X019337Y034694D01*
X019371Y034728D02*
X018963Y034728D01*
X018929Y034762D02*
X019381Y034762D01*
X019347Y034796D02*
X018895Y034796D01*
X018861Y034830D02*
X019313Y034830D01*
X019279Y034864D02*
X018827Y034864D01*
X018793Y034898D02*
X019245Y034898D01*
X019211Y034932D02*
X018759Y034932D01*
X018725Y034966D02*
X019177Y034966D01*
X019143Y035000D02*
X018691Y035000D01*
X018673Y035034D02*
X019109Y035034D01*
X019075Y035068D02*
X018707Y035068D01*
X018741Y035102D02*
X019041Y035102D01*
X019007Y035136D02*
X018775Y035136D01*
X018809Y035170D02*
X018973Y035170D01*
X018939Y035204D02*
X018843Y035204D01*
X018877Y035238D02*
X018905Y035238D01*
X018536Y034897D02*
X019038Y034395D01*
X018812Y034169D01*
X018310Y034671D01*
X018536Y034897D01*
X018778Y034203D02*
X018846Y034203D01*
X018880Y034237D02*
X018744Y034237D01*
X018710Y034271D02*
X018914Y034271D01*
X018948Y034305D02*
X018676Y034305D01*
X018642Y034339D02*
X018982Y034339D01*
X019016Y034373D02*
X018608Y034373D01*
X018574Y034407D02*
X019026Y034407D01*
X018992Y034441D02*
X018540Y034441D01*
X018506Y034475D02*
X018958Y034475D01*
X018924Y034509D02*
X018472Y034509D01*
X018438Y034543D02*
X018890Y034543D01*
X018856Y034577D02*
X018404Y034577D01*
X018370Y034611D02*
X018822Y034611D01*
X018788Y034645D02*
X018336Y034645D01*
X018318Y034679D02*
X018754Y034679D01*
X018720Y034713D02*
X018352Y034713D01*
X018386Y034747D02*
X018686Y034747D01*
X018652Y034781D02*
X018420Y034781D01*
X018454Y034815D02*
X018618Y034815D01*
X018584Y034849D02*
X018488Y034849D01*
X018522Y034883D02*
X018550Y034883D01*
D16*
X018988Y033100D02*
X019468Y032620D01*
X019042Y032194D01*
X018562Y032674D01*
X018988Y033100D01*
X018976Y032260D02*
X019108Y032260D01*
X019174Y032326D02*
X018910Y032326D01*
X018844Y032392D02*
X019240Y032392D01*
X019306Y032458D02*
X018778Y032458D01*
X018712Y032524D02*
X019372Y032524D01*
X019438Y032590D02*
X018646Y032590D01*
X018580Y032656D02*
X019432Y032656D01*
X019366Y032722D02*
X018610Y032722D01*
X018676Y032788D02*
X019300Y032788D01*
X019234Y032854D02*
X018742Y032854D01*
X018808Y032920D02*
X019168Y032920D01*
X019102Y032986D02*
X018874Y032986D01*
X018940Y033052D02*
X019036Y033052D01*
X021243Y035355D02*
X021723Y034875D01*
X021297Y034449D01*
X020817Y034929D01*
X021243Y035355D01*
X021231Y034515D02*
X021363Y034515D01*
X021429Y034581D02*
X021165Y034581D01*
X021099Y034647D02*
X021495Y034647D01*
X021561Y034713D02*
X021033Y034713D01*
X020967Y034779D02*
X021627Y034779D01*
X021693Y034845D02*
X020901Y034845D01*
X020835Y034911D02*
X021687Y034911D01*
X021621Y034977D02*
X020865Y034977D01*
X020931Y035043D02*
X021555Y035043D01*
X021489Y035109D02*
X020997Y035109D01*
X021063Y035175D02*
X021423Y035175D01*
X021357Y035241D02*
X021129Y035241D01*
X021195Y035307D02*
X021291Y035307D01*
D17*
X009086Y035521D02*
X009086Y035021D01*
X009086Y035521D02*
X009546Y035521D01*
X009546Y035021D01*
X009086Y035021D01*
X009086Y035071D02*
X009546Y035071D01*
X009546Y035121D02*
X009086Y035121D01*
X009086Y035171D02*
X009546Y035171D01*
X009546Y035221D02*
X009086Y035221D01*
X009086Y035271D02*
X009546Y035271D01*
X009546Y035321D02*
X009086Y035321D01*
X009086Y035371D02*
X009546Y035371D01*
X009546Y035421D02*
X009086Y035421D01*
X009086Y035471D02*
X009546Y035471D01*
X009546Y035521D02*
X009086Y035521D01*
X009086Y032450D02*
X009086Y031950D01*
X009086Y032450D02*
X009546Y032450D01*
X009546Y031950D01*
X009086Y031950D01*
X009086Y032000D02*
X009546Y032000D01*
X009546Y032050D02*
X009086Y032050D01*
X009086Y032100D02*
X009546Y032100D01*
X009546Y032150D02*
X009086Y032150D01*
X009086Y032200D02*
X009546Y032200D01*
X009546Y032250D02*
X009086Y032250D01*
X009086Y032300D02*
X009546Y032300D01*
X009546Y032350D02*
X009086Y032350D01*
X009086Y032400D02*
X009546Y032400D01*
X009546Y032450D02*
X009086Y032450D01*
X006987Y032659D02*
X006987Y033159D01*
X006987Y032659D02*
X006527Y032659D01*
X006527Y033159D01*
X006987Y033159D01*
X006987Y032709D02*
X006527Y032709D01*
X006527Y032759D02*
X006987Y032759D01*
X006987Y032809D02*
X006527Y032809D01*
X006527Y032859D02*
X006987Y032859D01*
X006987Y032909D02*
X006527Y032909D01*
X006527Y032959D02*
X006987Y032959D01*
X006987Y033009D02*
X006527Y033009D01*
X006527Y033059D02*
X006987Y033059D01*
X006987Y033109D02*
X006527Y033109D01*
X006527Y033159D02*
X006987Y033159D01*
X006987Y030088D02*
X006987Y029588D01*
X006527Y029588D01*
X006527Y030088D01*
X006987Y030088D01*
X006987Y029638D02*
X006527Y029638D01*
X006527Y029688D02*
X006987Y029688D01*
X006987Y029738D02*
X006527Y029738D01*
X006527Y029788D02*
X006987Y029788D01*
X006987Y029838D02*
X006527Y029838D01*
X006527Y029888D02*
X006987Y029888D01*
X006987Y029938D02*
X006527Y029938D01*
X006527Y029988D02*
X006987Y029988D01*
X006987Y030038D02*
X006527Y030038D01*
X006527Y030088D02*
X006987Y030088D01*
M02*
