G75*
G70*
%OFA0B0*%
%FSLAX24Y24*%
%IPPOS*%
%LPD*%
%AMOC8*
5,1,8,0,0,1.08239X$1,22.5*
%
%ADD10C,0.0080*%
%ADD11C,0.0160*%
%ADD12C,0.0200*%
%ADD13C,0.0050*%
%ADD14C,0.0060*%
%ADD15C,0.0059*%
%ADD16C,0.0100*%
%ADD17R,0.0315X0.0020*%
%ADD18R,0.0394X0.0020*%
%ADD19R,0.0650X0.0020*%
%ADD20R,0.0827X0.0020*%
%ADD21R,0.0984X0.0020*%
%ADD22R,0.1102X0.0020*%
%ADD23R,0.1220X0.0020*%
%ADD24R,0.1319X0.0020*%
%ADD25R,0.1417X0.0020*%
%ADD26R,0.1496X0.0020*%
%ADD27R,0.1575X0.0020*%
%ADD28R,0.1654X0.0020*%
%ADD29R,0.1713X0.0020*%
%ADD30R,0.1772X0.0020*%
%ADD31R,0.1850X0.0020*%
%ADD32R,0.1909X0.0020*%
%ADD33R,0.1969X0.0020*%
%ADD34R,0.0787X0.0020*%
%ADD35R,0.0728X0.0020*%
%ADD36R,0.0689X0.0020*%
%ADD37R,0.0669X0.0020*%
%ADD38R,0.0630X0.0020*%
%ADD39R,0.0610X0.0020*%
%ADD40R,0.0591X0.0020*%
%ADD41R,0.0571X0.0020*%
%ADD42R,0.0551X0.0020*%
%ADD43R,0.0531X0.0020*%
%ADD44R,0.0512X0.0020*%
%ADD45R,0.0492X0.0020*%
%ADD46R,0.0472X0.0020*%
%ADD47R,0.0453X0.0020*%
%ADD48R,0.0433X0.0020*%
%ADD49R,0.0413X0.0020*%
%ADD50R,0.0374X0.0020*%
%ADD51R,0.0354X0.0020*%
%ADD52R,0.0335X0.0020*%
%ADD53R,0.0039X0.0020*%
%ADD54R,0.0197X0.0020*%
%ADD55R,0.0098X0.0020*%
%ADD56R,0.0138X0.0020*%
%ADD57R,0.0177X0.0020*%
%ADD58R,0.0236X0.0020*%
%ADD59R,0.0276X0.0020*%
%ADD60R,0.0709X0.0020*%
%ADD61R,0.0886X0.0020*%
%ADD62R,0.0925X0.0020*%
%ADD63R,0.1732X0.0020*%
%ADD64R,0.1752X0.0020*%
%ADD65R,0.1043X0.0020*%
%ADD66R,0.0965X0.0020*%
%ADD67R,0.0906X0.0020*%
%ADD68R,0.0256X0.0020*%
%ADD69R,0.0217X0.0020*%
%ADD70R,0.0157X0.0020*%
%ADD71R,0.0118X0.0020*%
%ADD72R,0.0079X0.0020*%
%ADD73R,0.0768X0.0020*%
%ADD74R,0.1929X0.0020*%
%ADD75R,0.1870X0.0020*%
%ADD76R,0.1811X0.0020*%
%ADD77R,0.1673X0.0020*%
%ADD78R,0.1614X0.0020*%
%ADD79R,0.1535X0.0020*%
%ADD80R,0.1437X0.0020*%
%ADD81R,0.1358X0.0020*%
%ADD82R,0.1260X0.0020*%
%ADD83R,0.1142X0.0020*%
%ADD84R,0.1024X0.0020*%
D10*
X003254Y003835D02*
X003534Y003835D01*
X003714Y003835D02*
X003854Y003835D01*
X003784Y003835D02*
X003784Y004115D01*
X003714Y004115D01*
X003784Y004255D02*
X003784Y004325D01*
X004021Y004045D02*
X004021Y003905D01*
X004091Y003835D01*
X004301Y003835D01*
X004301Y003764D02*
X004301Y004115D01*
X004091Y004115D01*
X004021Y004045D01*
X004161Y003694D02*
X004231Y003694D01*
X004301Y003764D01*
X004482Y003835D02*
X004482Y004255D01*
X004552Y004115D02*
X004692Y004115D01*
X004762Y004045D01*
X004762Y003835D01*
X005012Y003905D02*
X005012Y004185D01*
X004942Y004115D02*
X005082Y004115D01*
X005012Y003905D02*
X005082Y003835D01*
X004552Y004115D02*
X004482Y004045D01*
X004608Y004763D02*
X003395Y004763D01*
X003254Y004255D02*
X003254Y003835D01*
X003001Y005275D02*
X003001Y006251D01*
X003395Y006763D02*
X004608Y006763D01*
X005001Y006251D02*
X005001Y005263D01*
X003501Y005763D02*
X003503Y005807D01*
X003509Y005851D01*
X003519Y005894D01*
X003532Y005936D01*
X003549Y005977D01*
X003570Y006016D01*
X003594Y006053D01*
X003621Y006088D01*
X003651Y006120D01*
X003684Y006150D01*
X003720Y006176D01*
X003757Y006200D01*
X003797Y006219D01*
X003838Y006236D01*
X003881Y006248D01*
X003924Y006257D01*
X003968Y006262D01*
X004012Y006263D01*
X004056Y006260D01*
X004100Y006253D01*
X004143Y006242D01*
X004185Y006228D01*
X004225Y006210D01*
X004264Y006188D01*
X004300Y006164D01*
X004334Y006136D01*
X004366Y006105D01*
X004395Y006071D01*
X004421Y006035D01*
X004443Y005997D01*
X004462Y005957D01*
X004477Y005915D01*
X004489Y005873D01*
X004497Y005829D01*
X004501Y005785D01*
X004501Y005741D01*
X004497Y005697D01*
X004489Y005653D01*
X004477Y005611D01*
X004462Y005569D01*
X004443Y005529D01*
X004421Y005491D01*
X004395Y005455D01*
X004366Y005421D01*
X004334Y005390D01*
X004300Y005362D01*
X004264Y005338D01*
X004225Y005316D01*
X004185Y005298D01*
X004143Y005284D01*
X004100Y005273D01*
X004056Y005266D01*
X004012Y005263D01*
X003968Y005264D01*
X003924Y005269D01*
X003881Y005278D01*
X003838Y005290D01*
X003797Y005307D01*
X003757Y005326D01*
X003720Y005350D01*
X003684Y005376D01*
X003651Y005406D01*
X003621Y005438D01*
X003594Y005473D01*
X003570Y005510D01*
X003549Y005549D01*
X003532Y005590D01*
X003519Y005632D01*
X003509Y005675D01*
X003503Y005719D01*
X003501Y005763D01*
X004407Y001937D02*
X004827Y001657D01*
X004962Y001735D02*
X005143Y001735D01*
X005235Y001613D01*
X005324Y001735D02*
X005143Y001735D01*
X005133Y001729D02*
X005057Y001613D01*
X004827Y001337D02*
X004407Y001337D01*
X004407Y001197D02*
X004407Y001477D01*
X004407Y001657D02*
X004827Y001937D01*
X005474Y001735D02*
X005655Y001735D01*
X005747Y001613D01*
X005836Y001735D02*
X005655Y001735D01*
X005645Y001729D02*
X005569Y001613D01*
X005982Y001697D02*
X006402Y001977D01*
X006402Y001697D02*
X005982Y001977D01*
X006052Y001516D02*
X005982Y001446D01*
X005982Y001236D01*
X006402Y001236D01*
X006262Y001236D02*
X006262Y001446D01*
X006192Y001516D01*
X006052Y001516D01*
X006262Y001376D02*
X006402Y001516D01*
X008619Y031141D02*
X009608Y031141D01*
X010119Y031535D02*
X010119Y032747D01*
X009608Y033141D02*
X008631Y033141D01*
X008119Y032747D02*
X008119Y031535D01*
X008619Y032141D02*
X008621Y032185D01*
X008627Y032229D01*
X008637Y032272D01*
X008650Y032314D01*
X008667Y032355D01*
X008688Y032394D01*
X008712Y032431D01*
X008739Y032466D01*
X008769Y032498D01*
X008802Y032528D01*
X008838Y032554D01*
X008875Y032578D01*
X008915Y032597D01*
X008956Y032614D01*
X008999Y032626D01*
X009042Y032635D01*
X009086Y032640D01*
X009130Y032641D01*
X009174Y032638D01*
X009218Y032631D01*
X009261Y032620D01*
X009303Y032606D01*
X009343Y032588D01*
X009382Y032566D01*
X009418Y032542D01*
X009452Y032514D01*
X009484Y032483D01*
X009513Y032449D01*
X009539Y032413D01*
X009561Y032375D01*
X009580Y032335D01*
X009595Y032293D01*
X009607Y032251D01*
X009615Y032207D01*
X009619Y032163D01*
X009619Y032119D01*
X009615Y032075D01*
X009607Y032031D01*
X009595Y031989D01*
X009580Y031947D01*
X009561Y031907D01*
X009539Y031869D01*
X009513Y031833D01*
X009484Y031799D01*
X009452Y031768D01*
X009418Y031740D01*
X009382Y031716D01*
X009343Y031694D01*
X009303Y031676D01*
X009261Y031662D01*
X009218Y031651D01*
X009174Y031644D01*
X009130Y031641D01*
X009086Y031642D01*
X009042Y031647D01*
X008999Y031656D01*
X008956Y031668D01*
X008915Y031685D01*
X008875Y031704D01*
X008838Y031728D01*
X008802Y031754D01*
X008769Y031784D01*
X008739Y031816D01*
X008712Y031851D01*
X008688Y031888D01*
X008667Y031927D01*
X008650Y031968D01*
X008637Y032010D01*
X008627Y032053D01*
X008621Y032097D01*
X008619Y032141D01*
X009013Y035865D02*
X010001Y035865D01*
X010513Y036259D02*
X010513Y037472D01*
X010001Y037865D02*
X009025Y037865D01*
X008513Y037472D02*
X008513Y036259D01*
X007757Y036259D02*
X007757Y037472D01*
X007245Y037865D02*
X006269Y037865D01*
X005757Y037472D02*
X005757Y036259D01*
X006257Y035865D02*
X007245Y035865D01*
X006257Y036865D02*
X006259Y036909D01*
X006265Y036953D01*
X006275Y036996D01*
X006288Y037038D01*
X006305Y037079D01*
X006326Y037118D01*
X006350Y037155D01*
X006377Y037190D01*
X006407Y037222D01*
X006440Y037252D01*
X006476Y037278D01*
X006513Y037302D01*
X006553Y037321D01*
X006594Y037338D01*
X006637Y037350D01*
X006680Y037359D01*
X006724Y037364D01*
X006768Y037365D01*
X006812Y037362D01*
X006856Y037355D01*
X006899Y037344D01*
X006941Y037330D01*
X006981Y037312D01*
X007020Y037290D01*
X007056Y037266D01*
X007090Y037238D01*
X007122Y037207D01*
X007151Y037173D01*
X007177Y037137D01*
X007199Y037099D01*
X007218Y037059D01*
X007233Y037017D01*
X007245Y036975D01*
X007253Y036931D01*
X007257Y036887D01*
X007257Y036843D01*
X007253Y036799D01*
X007245Y036755D01*
X007233Y036713D01*
X007218Y036671D01*
X007199Y036631D01*
X007177Y036593D01*
X007151Y036557D01*
X007122Y036523D01*
X007090Y036492D01*
X007056Y036464D01*
X007020Y036440D01*
X006981Y036418D01*
X006941Y036400D01*
X006899Y036386D01*
X006856Y036375D01*
X006812Y036368D01*
X006768Y036365D01*
X006724Y036366D01*
X006680Y036371D01*
X006637Y036380D01*
X006594Y036392D01*
X006553Y036409D01*
X006513Y036428D01*
X006476Y036452D01*
X006440Y036478D01*
X006407Y036508D01*
X006377Y036540D01*
X006350Y036575D01*
X006326Y036612D01*
X006305Y036651D01*
X006288Y036692D01*
X006275Y036734D01*
X006265Y036777D01*
X006259Y036821D01*
X006257Y036865D01*
X009013Y036865D02*
X009015Y036909D01*
X009021Y036953D01*
X009031Y036996D01*
X009044Y037038D01*
X009061Y037079D01*
X009082Y037118D01*
X009106Y037155D01*
X009133Y037190D01*
X009163Y037222D01*
X009196Y037252D01*
X009232Y037278D01*
X009269Y037302D01*
X009309Y037321D01*
X009350Y037338D01*
X009393Y037350D01*
X009436Y037359D01*
X009480Y037364D01*
X009524Y037365D01*
X009568Y037362D01*
X009612Y037355D01*
X009655Y037344D01*
X009697Y037330D01*
X009737Y037312D01*
X009776Y037290D01*
X009812Y037266D01*
X009846Y037238D01*
X009878Y037207D01*
X009907Y037173D01*
X009933Y037137D01*
X009955Y037099D01*
X009974Y037059D01*
X009989Y037017D01*
X010001Y036975D01*
X010009Y036931D01*
X010013Y036887D01*
X010013Y036843D01*
X010009Y036799D01*
X010001Y036755D01*
X009989Y036713D01*
X009974Y036671D01*
X009955Y036631D01*
X009933Y036593D01*
X009907Y036557D01*
X009878Y036523D01*
X009846Y036492D01*
X009812Y036464D01*
X009776Y036440D01*
X009737Y036418D01*
X009697Y036400D01*
X009655Y036386D01*
X009612Y036375D01*
X009568Y036368D01*
X009524Y036365D01*
X009480Y036366D01*
X009436Y036371D01*
X009393Y036380D01*
X009350Y036392D01*
X009309Y036409D01*
X009269Y036428D01*
X009232Y036452D01*
X009196Y036478D01*
X009163Y036508D01*
X009133Y036540D01*
X009106Y036575D01*
X009082Y036612D01*
X009061Y036651D01*
X009044Y036692D01*
X009031Y036734D01*
X009021Y036777D01*
X009015Y036821D01*
X009013Y036865D01*
X019143Y032747D02*
X019143Y031535D01*
X019643Y031141D02*
X020631Y031141D01*
X021143Y031535D02*
X021143Y032747D01*
X020631Y033141D02*
X019655Y033141D01*
X019643Y032141D02*
X019645Y032185D01*
X019651Y032229D01*
X019661Y032272D01*
X019674Y032314D01*
X019691Y032355D01*
X019712Y032394D01*
X019736Y032431D01*
X019763Y032466D01*
X019793Y032498D01*
X019826Y032528D01*
X019862Y032554D01*
X019899Y032578D01*
X019939Y032597D01*
X019980Y032614D01*
X020023Y032626D01*
X020066Y032635D01*
X020110Y032640D01*
X020154Y032641D01*
X020198Y032638D01*
X020242Y032631D01*
X020285Y032620D01*
X020327Y032606D01*
X020367Y032588D01*
X020406Y032566D01*
X020442Y032542D01*
X020476Y032514D01*
X020508Y032483D01*
X020537Y032449D01*
X020563Y032413D01*
X020585Y032375D01*
X020604Y032335D01*
X020619Y032293D01*
X020631Y032251D01*
X020639Y032207D01*
X020643Y032163D01*
X020643Y032119D01*
X020639Y032075D01*
X020631Y032031D01*
X020619Y031989D01*
X020604Y031947D01*
X020585Y031907D01*
X020563Y031869D01*
X020537Y031833D01*
X020508Y031799D01*
X020476Y031768D01*
X020442Y031740D01*
X020406Y031716D01*
X020367Y031694D01*
X020327Y031676D01*
X020285Y031662D01*
X020242Y031651D01*
X020198Y031644D01*
X020154Y031641D01*
X020110Y031642D01*
X020066Y031647D01*
X020023Y031656D01*
X019980Y031668D01*
X019939Y031685D01*
X019899Y031704D01*
X019862Y031728D01*
X019826Y031754D01*
X019793Y031784D01*
X019763Y031816D01*
X019736Y031851D01*
X019712Y031888D01*
X019691Y031927D01*
X019674Y031968D01*
X019661Y032010D01*
X019651Y032053D01*
X019645Y032097D01*
X019643Y032141D01*
X026083Y033835D02*
X026363Y033975D01*
X026083Y034115D01*
X026013Y034295D02*
X025942Y034365D01*
X025942Y034505D01*
X026013Y034575D01*
X026293Y034295D01*
X026363Y034365D01*
X026363Y034505D01*
X026293Y034575D01*
X026013Y034575D01*
X026013Y034295D02*
X026293Y034295D01*
X026293Y034755D02*
X026293Y034825D01*
X026363Y034825D01*
X026363Y034755D01*
X026293Y034755D01*
X026363Y034986D02*
X026363Y035266D01*
X026363Y035126D02*
X025942Y035126D01*
X026083Y034986D01*
D11*
X024080Y036865D02*
X023686Y037259D01*
X023686Y036472D01*
X024080Y036865D01*
X024004Y036942D02*
X023686Y036942D01*
X023686Y037100D02*
X023845Y037100D01*
X023686Y037259D02*
X023687Y037259D01*
X023686Y036783D02*
X023998Y036783D01*
X023839Y036625D02*
X023686Y036625D01*
X021718Y034503D02*
X020930Y034503D01*
X021324Y034110D01*
X021718Y034503D01*
X021620Y034405D02*
X021028Y034405D01*
X021187Y034247D02*
X021462Y034247D01*
X018962Y036472D02*
X018962Y037259D01*
X018568Y036865D01*
X018962Y036472D01*
X018962Y036625D02*
X018809Y036625D01*
X018962Y036783D02*
X018651Y036783D01*
X018644Y036942D02*
X018962Y036942D01*
X018962Y037100D02*
X018803Y037100D01*
X018961Y037259D02*
X018962Y037259D01*
X020930Y039228D02*
X021718Y039228D01*
X021324Y039621D01*
X020930Y039228D01*
X021022Y039319D02*
X021626Y039319D01*
X021468Y039478D02*
X021180Y039478D01*
D12*
X025636Y033421D02*
X025502Y033287D01*
X025502Y033021D01*
X025636Y032887D01*
X025769Y032520D02*
X026036Y032120D01*
X026303Y032520D01*
X026303Y032887D02*
X025769Y033421D01*
X025636Y033421D01*
X026303Y033421D02*
X026303Y032887D01*
X026303Y032120D02*
X025502Y032120D01*
X025502Y031733D02*
X026303Y031733D01*
X026303Y031199D02*
X025502Y031199D01*
X025769Y031466D01*
X025502Y031733D01*
X025769Y029891D02*
X026303Y029891D01*
X025902Y029891D02*
X025902Y029357D01*
X025769Y029357D02*
X025502Y029624D01*
X025769Y029891D01*
X025769Y029357D02*
X026303Y029357D01*
X026169Y028970D02*
X025636Y028970D01*
X025502Y028837D01*
X025502Y028437D01*
X026303Y028437D01*
X026303Y028837D01*
X026169Y028970D01*
X026303Y028050D02*
X026303Y027516D01*
X025502Y027516D01*
X025502Y027035D02*
X025369Y027035D01*
X025769Y027035D02*
X026303Y027035D01*
X026303Y026902D02*
X026303Y027169D01*
X025769Y027035D02*
X025769Y026902D01*
X025502Y026515D02*
X025502Y025981D01*
X025502Y026248D02*
X026303Y026248D01*
X009807Y034736D02*
X009540Y034469D01*
X009273Y034736D01*
X009273Y035269D01*
X009273Y034869D02*
X009807Y034869D01*
X009807Y034736D02*
X009807Y035269D01*
X007051Y035269D02*
X007051Y034469D01*
X006650Y034469D01*
X006517Y034602D01*
X006517Y034736D01*
X006650Y034869D01*
X007051Y034869D01*
X007051Y035269D02*
X006650Y035269D01*
X006517Y035136D01*
X006517Y035002D01*
X006650Y034869D01*
D13*
X005545Y036260D02*
X005590Y036306D01*
X005590Y036396D01*
X005545Y036441D01*
X005500Y036441D01*
X005455Y036396D01*
X005455Y036306D01*
X005410Y036260D01*
X005365Y036260D01*
X005320Y036306D01*
X005320Y036396D01*
X005365Y036441D01*
X005455Y036555D02*
X005365Y036645D01*
X005320Y036735D01*
X005455Y036690D02*
X005455Y036555D01*
X005545Y036555D01*
X005590Y036600D01*
X005590Y036690D01*
X005545Y036735D01*
X005500Y036735D01*
X005455Y036690D01*
X008076Y036735D02*
X008076Y036555D01*
X008211Y036555D01*
X008166Y036645D01*
X008166Y036690D01*
X008211Y036735D01*
X008301Y036735D01*
X008346Y036690D01*
X008346Y036600D01*
X008301Y036555D01*
X008301Y036441D02*
X008346Y036396D01*
X008346Y036306D01*
X008301Y036260D01*
X008211Y036306D02*
X008211Y036396D01*
X008256Y036441D01*
X008301Y036441D01*
X008211Y036306D02*
X008166Y036260D01*
X008121Y036260D01*
X008076Y036306D01*
X008076Y036396D01*
X008121Y036441D01*
X007908Y032011D02*
X007953Y031966D01*
X007953Y031876D01*
X007908Y031831D01*
X007908Y031716D02*
X007953Y031671D01*
X007953Y031581D01*
X007908Y031536D01*
X007817Y031581D02*
X007817Y031671D01*
X007863Y031716D01*
X007908Y031716D01*
X007817Y031581D02*
X007772Y031536D01*
X007727Y031536D01*
X007682Y031581D01*
X007682Y031671D01*
X007727Y031716D01*
X007727Y031831D02*
X007682Y031876D01*
X007682Y031966D01*
X007727Y032011D01*
X007772Y032011D01*
X007817Y031966D01*
X007863Y032011D01*
X007908Y032011D01*
X007817Y031966D02*
X007817Y031921D01*
X005537Y030141D02*
X005537Y002417D01*
X023568Y002417D01*
X023568Y030141D01*
X005537Y030141D01*
X013490Y034267D02*
X013492Y034279D01*
X013497Y034290D01*
X013506Y034299D01*
X013517Y034304D01*
X013529Y034306D01*
X013541Y034304D01*
X013552Y034299D01*
X013561Y034290D01*
X013566Y034279D01*
X013568Y034267D01*
X013566Y034255D01*
X013561Y034244D01*
X013552Y034235D01*
X013541Y034230D01*
X013529Y034228D01*
X013517Y034230D01*
X013506Y034235D01*
X013497Y034244D01*
X013492Y034255D01*
X013490Y034267D01*
X014178Y034268D02*
X014178Y034133D01*
X014449Y034133D01*
X014449Y034268D01*
X014404Y034313D01*
X014223Y034313D01*
X014178Y034268D01*
X014223Y034428D02*
X014178Y034473D01*
X014178Y034563D01*
X014223Y034608D01*
X014269Y034608D01*
X014449Y034428D01*
X014449Y034608D01*
X014449Y034019D02*
X014449Y033839D01*
X014178Y033839D01*
X014178Y034019D01*
X014314Y033929D02*
X014314Y033839D01*
X014449Y033724D02*
X014449Y033544D01*
X014178Y033544D01*
X015852Y034267D02*
X015854Y034279D01*
X015859Y034290D01*
X015868Y034299D01*
X015879Y034304D01*
X015891Y034306D01*
X015903Y034304D01*
X015914Y034299D01*
X015923Y034290D01*
X015928Y034279D01*
X015930Y034267D01*
X015928Y034255D01*
X015923Y034244D01*
X015914Y034235D01*
X015903Y034230D01*
X015891Y034228D01*
X015879Y034230D01*
X015868Y034235D01*
X015859Y034244D01*
X015854Y034255D01*
X015852Y034267D01*
X016541Y034268D02*
X016541Y034133D01*
X016811Y034133D01*
X016811Y034268D01*
X016766Y034313D01*
X016586Y034313D01*
X016541Y034268D01*
X016631Y034428D02*
X016541Y034518D01*
X016811Y034518D01*
X016811Y034428D02*
X016811Y034608D01*
X016811Y034019D02*
X016811Y033839D01*
X016541Y033839D01*
X016541Y034019D01*
X016676Y033929D02*
X016676Y033839D01*
X016811Y033724D02*
X016811Y033544D01*
X016541Y033544D01*
X018706Y031966D02*
X018706Y031876D01*
X018751Y031831D01*
X018751Y031716D02*
X018706Y031671D01*
X018706Y031581D01*
X018751Y031536D01*
X018796Y031536D01*
X018841Y031581D01*
X018841Y031671D01*
X018886Y031716D01*
X018931Y031716D01*
X018976Y031671D01*
X018976Y031581D01*
X018931Y031536D01*
X018976Y031831D02*
X018796Y032011D01*
X018751Y032011D01*
X018706Y031966D01*
X018976Y032011D02*
X018976Y031831D01*
X019814Y034883D02*
X019859Y034883D01*
X019904Y034928D01*
X019904Y035018D01*
X019949Y035063D01*
X019994Y035063D01*
X020039Y035018D01*
X020039Y034928D01*
X019994Y034883D01*
X019814Y034883D02*
X019769Y034928D01*
X019769Y035018D01*
X019814Y035063D01*
X019769Y035177D02*
X019769Y035357D01*
X019814Y035357D01*
X019994Y035177D01*
X020039Y035177D01*
X022513Y038762D02*
X022704Y038954D01*
X022641Y038890D02*
X022609Y039049D01*
X022499Y039095D02*
X022435Y039032D01*
X022372Y039032D01*
X022308Y039095D01*
X022308Y039159D01*
X022340Y039191D01*
X022467Y039063D01*
X022499Y039095D02*
X022499Y039159D01*
X022435Y039223D01*
X022482Y038922D02*
X022641Y038890D01*
X022722Y038809D02*
X022817Y038713D01*
X022881Y038713D01*
X022881Y038777D01*
X022785Y038873D01*
X022690Y038777D01*
X022690Y038713D01*
X022754Y038650D01*
X022803Y038473D02*
X022994Y038664D01*
X022994Y038537D01*
X023121Y038537D01*
X022930Y038346D01*
X023315Y038152D02*
X023315Y038088D01*
X023379Y038025D01*
X023442Y038025D01*
X023506Y038088D01*
X023506Y038152D01*
X023442Y038216D01*
X023379Y038216D01*
X023315Y038152D01*
X023486Y037918D02*
X023549Y037854D01*
X023486Y037854D02*
X023613Y037981D01*
X023613Y038045D01*
X023963Y037695D02*
X023995Y037536D01*
X023836Y037567D01*
X023868Y037408D02*
X024059Y037599D01*
X024140Y037518D02*
X024235Y037423D01*
X024235Y037359D01*
X024172Y037295D01*
X024108Y037295D01*
X024012Y037391D01*
X024247Y037156D02*
X024374Y037284D01*
X024406Y037252D02*
X024342Y037316D01*
X024247Y037156D02*
X024279Y037125D01*
X024183Y037093D02*
X024151Y037061D01*
X024322Y036954D02*
X024513Y037145D01*
X024545Y037113D02*
X024481Y037177D01*
X024594Y037000D02*
X024658Y037000D01*
X024721Y036937D01*
X024721Y036873D01*
X024594Y036746D01*
X024530Y036746D01*
X024467Y036809D01*
X024467Y036873D01*
X024354Y036922D02*
X024322Y036954D01*
X021923Y039353D02*
X022082Y039512D01*
X022082Y039576D01*
X022019Y039639D01*
X021955Y039639D01*
X021796Y039480D01*
X021778Y039625D02*
X021683Y039720D01*
X021683Y039784D01*
X021747Y039848D01*
X021810Y039848D01*
X021906Y039752D01*
X021969Y039816D02*
X021778Y039625D01*
X002834Y005751D02*
X002834Y005571D01*
X002834Y005661D02*
X002564Y005661D01*
X002654Y005571D01*
X002609Y005456D02*
X002564Y005411D01*
X002564Y005321D01*
X002609Y005276D01*
X002654Y005276D01*
X002699Y005321D01*
X002699Y005411D01*
X002744Y005456D01*
X002789Y005456D01*
X002834Y005411D01*
X002834Y005321D01*
X002789Y005276D01*
X010241Y002245D02*
X010512Y002065D01*
X010512Y001951D02*
X010422Y001861D01*
X010422Y001906D02*
X010422Y001771D01*
X010512Y001771D02*
X010241Y001771D01*
X010241Y001906D01*
X010286Y001951D01*
X010377Y001951D01*
X010422Y001906D01*
X010241Y002065D02*
X010512Y002245D01*
X010773Y002141D02*
X010773Y001984D01*
X010773Y001787D01*
X010773Y001314D01*
X010773Y001117D01*
X010773Y000960D01*
X010940Y000960D01*
X010512Y000985D02*
X010512Y001075D01*
X010512Y001030D02*
X010241Y001030D01*
X010241Y000985D02*
X010241Y001075D01*
X010241Y001181D02*
X010241Y001316D01*
X010286Y001361D01*
X010377Y001361D01*
X010422Y001316D01*
X010422Y001181D01*
X010512Y001181D02*
X010241Y001181D01*
X010422Y001271D02*
X010512Y001361D01*
X010557Y001476D02*
X010557Y001656D01*
X010773Y002141D02*
X010940Y002141D01*
X013283Y002141D02*
X013450Y002141D01*
X013450Y000960D01*
X013283Y000960D01*
X025714Y003229D02*
X025714Y003319D01*
X025714Y003274D02*
X025984Y003274D01*
X025984Y003229D02*
X025984Y003319D01*
X025984Y003425D02*
X025714Y003425D01*
X025714Y003561D01*
X025759Y003606D01*
X025849Y003606D01*
X025894Y003561D01*
X025894Y003425D01*
X025894Y003516D02*
X025984Y003606D01*
X026029Y003720D02*
X026029Y003900D01*
X025984Y004105D02*
X025714Y004105D01*
X025714Y004015D02*
X025714Y004195D01*
X025714Y004309D02*
X025984Y004490D01*
X025984Y004309D02*
X025714Y004490D01*
D14*
X011513Y011253D02*
X011513Y012753D01*
X011263Y013003D01*
X010763Y013003D01*
X010513Y012753D01*
X010263Y013003D01*
X009763Y013003D01*
X009513Y012753D01*
X009263Y013003D01*
X008763Y013003D01*
X008513Y012753D01*
X008263Y013003D01*
X007763Y013003D01*
X007513Y012753D01*
X007513Y011253D01*
X007763Y011003D01*
X008263Y011003D01*
X008513Y011253D01*
X008763Y011003D01*
X009263Y011003D01*
X009513Y011253D01*
X009763Y011003D01*
X010263Y011003D01*
X010513Y011253D01*
X010763Y011003D01*
X011263Y011003D01*
X011513Y011253D01*
X011330Y010272D02*
X011387Y010215D01*
X011387Y010045D01*
X011274Y010045D02*
X011274Y010215D01*
X011330Y010272D01*
X011274Y010215D02*
X011217Y010272D01*
X011160Y010272D01*
X011160Y010045D01*
X011019Y010045D02*
X010849Y010045D01*
X010792Y010102D01*
X010849Y010158D01*
X011019Y010158D01*
X011019Y010215D02*
X011019Y010045D01*
X011019Y010215D02*
X010962Y010272D01*
X010849Y010272D01*
X010655Y010272D02*
X010598Y010272D01*
X010485Y010158D01*
X010485Y010045D02*
X010485Y010272D01*
X010344Y010272D02*
X010173Y010272D01*
X010117Y010215D01*
X010117Y010102D01*
X010173Y010045D01*
X010344Y010045D01*
X010344Y009988D02*
X010344Y010272D01*
X010344Y009988D02*
X010287Y009932D01*
X010230Y009932D01*
X009975Y010102D02*
X009975Y010215D01*
X009919Y010272D01*
X009805Y010272D01*
X009748Y010215D01*
X009748Y010102D01*
X009805Y010045D01*
X009919Y010045D01*
X009975Y010102D01*
X009612Y010272D02*
X009555Y010272D01*
X009441Y010158D01*
X009441Y010045D02*
X009441Y010272D01*
X009300Y010329D02*
X009300Y010215D01*
X009243Y010158D01*
X009073Y010158D01*
X009073Y010045D02*
X009073Y010385D01*
X009243Y010385D01*
X009300Y010329D01*
X008932Y010215D02*
X008705Y010215D01*
X008563Y010215D02*
X008563Y010158D01*
X008337Y010158D01*
X008337Y010102D02*
X008337Y010215D01*
X008393Y010272D01*
X008507Y010272D01*
X008563Y010215D01*
X008507Y010045D02*
X008393Y010045D01*
X008337Y010102D01*
X008195Y010045D02*
X008082Y010158D01*
X008138Y010158D02*
X007968Y010158D01*
X007968Y010045D02*
X007968Y010385D01*
X008138Y010385D01*
X008195Y010329D01*
X008195Y010215D01*
X008138Y010158D01*
X008138Y010557D02*
X008025Y010557D01*
X007968Y010614D01*
X008025Y010727D02*
X008138Y010727D01*
X008195Y010670D01*
X008195Y010614D01*
X008138Y010557D01*
X008337Y010557D02*
X008337Y010897D01*
X008507Y010897D01*
X008563Y010840D01*
X008563Y010727D01*
X008507Y010670D01*
X008337Y010670D01*
X008450Y010670D02*
X008563Y010557D01*
X008705Y010557D02*
X008705Y010897D01*
X008932Y010897D01*
X008818Y010727D02*
X008705Y010727D01*
X008195Y010840D02*
X008138Y010897D01*
X008025Y010897D01*
X007968Y010840D01*
X007968Y010784D01*
X008025Y010727D01*
X007394Y011259D02*
X007167Y011259D01*
X007280Y011259D02*
X007280Y011599D01*
X007167Y011486D01*
X012861Y037732D02*
X012863Y037819D01*
X012870Y037905D01*
X012880Y037992D01*
X012895Y038077D01*
X012914Y038162D01*
X012937Y038246D01*
X012964Y038328D01*
X012996Y038409D01*
X013031Y038489D01*
X013070Y038566D01*
X013113Y038642D01*
X013159Y038715D01*
X013209Y038786D01*
X013263Y038855D01*
X013320Y038921D01*
X013379Y038984D01*
X013442Y039043D01*
X013508Y039100D01*
X013577Y039154D01*
X013648Y039204D01*
X013721Y039250D01*
X013797Y039293D01*
X013874Y039332D01*
X013954Y039367D01*
X014035Y039399D01*
X014117Y039426D01*
X014201Y039449D01*
X014286Y039468D01*
X014371Y039483D01*
X014458Y039493D01*
X014544Y039500D01*
X014631Y039502D01*
X014718Y039500D01*
X014804Y039493D01*
X014891Y039483D01*
X014976Y039468D01*
X015061Y039449D01*
X015145Y039426D01*
X015227Y039399D01*
X015308Y039367D01*
X015388Y039332D01*
X015465Y039293D01*
X015541Y039250D01*
X015614Y039204D01*
X015685Y039154D01*
X015754Y039100D01*
X015820Y039043D01*
X015883Y038984D01*
X015942Y038921D01*
X015999Y038855D01*
X016053Y038786D01*
X016103Y038715D01*
X016149Y038642D01*
X016192Y038566D01*
X016231Y038489D01*
X016266Y038409D01*
X016298Y038328D01*
X016325Y038246D01*
X016348Y038162D01*
X016367Y038077D01*
X016382Y037992D01*
X016392Y037905D01*
X016399Y037819D01*
X016401Y037732D01*
X016399Y037645D01*
X016392Y037559D01*
X016382Y037472D01*
X016367Y037387D01*
X016348Y037302D01*
X016325Y037218D01*
X016298Y037136D01*
X016266Y037055D01*
X016231Y036975D01*
X016192Y036898D01*
X016149Y036822D01*
X016103Y036749D01*
X016053Y036678D01*
X015999Y036609D01*
X015942Y036543D01*
X015883Y036480D01*
X015820Y036421D01*
X015754Y036364D01*
X015685Y036310D01*
X015614Y036260D01*
X015541Y036214D01*
X015465Y036171D01*
X015388Y036132D01*
X015308Y036097D01*
X015227Y036065D01*
X015145Y036038D01*
X015061Y036015D01*
X014976Y035996D01*
X014891Y035981D01*
X014804Y035971D01*
X014718Y035964D01*
X014631Y035962D01*
X014544Y035964D01*
X014458Y035971D01*
X014371Y035981D01*
X014286Y035996D01*
X014201Y036015D01*
X014117Y036038D01*
X014035Y036065D01*
X013954Y036097D01*
X013874Y036132D01*
X013797Y036171D01*
X013721Y036214D01*
X013648Y036260D01*
X013577Y036310D01*
X013508Y036364D01*
X013442Y036421D01*
X013379Y036480D01*
X013320Y036543D01*
X013263Y036609D01*
X013209Y036678D01*
X013159Y036749D01*
X013113Y036822D01*
X013070Y036898D01*
X013031Y036975D01*
X012996Y037055D01*
X012964Y037136D01*
X012937Y037218D01*
X012914Y037302D01*
X012895Y037387D01*
X012880Y037472D01*
X012870Y037559D01*
X012863Y037645D01*
X012861Y037732D01*
D15*
X024551Y002606D02*
X024518Y002289D01*
X024412Y002254D01*
X024312Y002203D01*
X024065Y002405D01*
X023895Y002235D01*
X024097Y001988D01*
X024045Y001888D01*
X024011Y001781D01*
X023694Y001749D01*
X023694Y001509D01*
X024011Y001477D01*
X024045Y001370D01*
X024097Y001271D01*
X023895Y001023D01*
X024065Y000854D01*
X024312Y001055D01*
X024412Y001004D01*
X024553Y001345D01*
X024500Y001373D01*
X024453Y001412D01*
X024415Y001458D01*
X024386Y001511D01*
X024369Y001569D01*
X024363Y001629D01*
X024369Y001692D01*
X024389Y001752D01*
X024420Y001807D01*
X024461Y001855D01*
X024512Y001893D01*
X024569Y001920D01*
X024630Y001934D01*
X024693Y001936D01*
X024756Y001925D01*
X024814Y001901D01*
X024867Y001866D01*
X024911Y001821D01*
X024945Y001768D01*
X024968Y001709D01*
X024978Y001646D01*
X024975Y001583D01*
X024959Y001522D01*
X024931Y001466D01*
X024892Y001416D01*
X024844Y001375D01*
X024788Y001345D01*
X024929Y001004D01*
X025029Y001055D01*
X025277Y000854D01*
X025446Y001023D01*
X025244Y001271D01*
X025296Y001370D01*
X025330Y001477D01*
X025647Y001509D01*
X025647Y001749D01*
X025330Y001781D01*
X025296Y001888D01*
X025244Y001988D01*
X025446Y002235D01*
X025277Y002405D01*
X025029Y002203D01*
X024929Y002254D01*
X024823Y002289D01*
X024790Y002606D01*
X024551Y002606D01*
X024550Y002602D02*
X024791Y002602D01*
X024797Y002544D02*
X024544Y002544D01*
X024538Y002487D02*
X024803Y002487D01*
X024808Y002429D02*
X024533Y002429D01*
X024527Y002372D02*
X024814Y002372D01*
X024820Y002314D02*
X024521Y002314D01*
X024418Y002256D02*
X024923Y002256D01*
X025095Y002256D02*
X025425Y002256D01*
X025417Y002199D02*
X023924Y002199D01*
X023916Y002256D02*
X024246Y002256D01*
X024176Y002314D02*
X023974Y002314D01*
X024031Y002372D02*
X024105Y002372D01*
X023971Y002141D02*
X025370Y002141D01*
X025323Y002084D02*
X024018Y002084D01*
X024065Y002026D02*
X025276Y002026D01*
X025254Y001969D02*
X024087Y001969D01*
X024057Y001911D02*
X024551Y001911D01*
X024460Y001854D02*
X024034Y001854D01*
X024016Y001796D02*
X024413Y001796D01*
X024384Y001738D02*
X023694Y001738D01*
X023694Y001681D02*
X024368Y001681D01*
X024363Y001623D02*
X023694Y001623D01*
X023694Y001566D02*
X024370Y001566D01*
X024388Y001508D02*
X023703Y001508D01*
X024020Y001451D02*
X024421Y001451D01*
X024476Y001393D02*
X024038Y001393D01*
X024063Y001336D02*
X024549Y001336D01*
X024525Y001278D02*
X024093Y001278D01*
X024056Y001221D02*
X024501Y001221D01*
X024477Y001163D02*
X024009Y001163D01*
X023962Y001105D02*
X024454Y001105D01*
X024430Y001048D02*
X024327Y001048D01*
X024303Y001048D02*
X023915Y001048D01*
X023928Y000990D02*
X024232Y000990D01*
X024162Y000933D02*
X023985Y000933D01*
X024043Y000875D02*
X024091Y000875D01*
X024864Y001163D02*
X025332Y001163D01*
X025285Y001221D02*
X024840Y001221D01*
X024816Y001278D02*
X025248Y001278D01*
X025278Y001336D02*
X024792Y001336D01*
X024865Y001393D02*
X025303Y001393D01*
X025321Y001451D02*
X024919Y001451D01*
X024952Y001508D02*
X025638Y001508D01*
X025647Y001566D02*
X024970Y001566D01*
X024977Y001623D02*
X025647Y001623D01*
X025647Y001681D02*
X024972Y001681D01*
X024956Y001738D02*
X025647Y001738D01*
X025325Y001796D02*
X024927Y001796D01*
X024879Y001854D02*
X025307Y001854D01*
X025284Y001911D02*
X024789Y001911D01*
X025165Y002314D02*
X025367Y002314D01*
X025310Y002372D02*
X025236Y002372D01*
X025379Y001105D02*
X024887Y001105D01*
X024911Y001048D02*
X025015Y001048D01*
X025038Y001048D02*
X025426Y001048D01*
X025413Y000990D02*
X025109Y000990D01*
X025179Y000933D02*
X025356Y000933D01*
X025298Y000875D02*
X025250Y000875D01*
D16*
X024946Y003676D02*
X024671Y003952D01*
X024316Y003952D01*
X024395Y003676D02*
X024671Y003952D01*
X024985Y003952D01*
X021324Y034778D02*
X020642Y035460D01*
X020614Y035988D02*
X020614Y036156D01*
X020447Y036156D01*
X019918Y036183D02*
X019236Y036865D01*
X019695Y037325D01*
X020865Y038494D02*
X021324Y038953D01*
X022006Y038271D01*
X022730Y037547D02*
X023412Y036865D01*
X022953Y036406D01*
X021783Y035237D02*
X021324Y034778D01*
D17*
X004956Y012200D03*
X004090Y012298D03*
X003401Y013775D03*
X003401Y013795D03*
X003401Y013814D03*
X003401Y013834D03*
X003401Y013854D03*
X003401Y013873D03*
X003401Y013893D03*
X003401Y013913D03*
X003401Y013932D03*
X003401Y013952D03*
X003401Y013972D03*
X003401Y013991D03*
X003401Y014011D03*
X003401Y014031D03*
X003401Y014050D03*
X003401Y014070D03*
X003401Y014090D03*
X003401Y014110D03*
X003401Y014129D03*
X003401Y014149D03*
X003401Y014169D03*
X003401Y014188D03*
X003401Y014208D03*
X003401Y014228D03*
X003401Y014247D03*
X003401Y014267D03*
X003401Y014287D03*
X003401Y014306D03*
X003401Y014326D03*
X003401Y014346D03*
X003401Y014365D03*
X003401Y014385D03*
X003401Y014405D03*
X003401Y014424D03*
X003401Y014444D03*
X003401Y014464D03*
X003401Y014484D03*
X003401Y014503D03*
X003401Y014523D03*
X003401Y014543D03*
X003401Y014562D03*
X003401Y014582D03*
X003401Y014602D03*
X003401Y014621D03*
X003401Y014641D03*
X003401Y014661D03*
X003401Y014680D03*
X003401Y014700D03*
X003401Y014720D03*
X003401Y014739D03*
X003401Y014759D03*
X003401Y014779D03*
X003401Y014798D03*
X003401Y014818D03*
X003401Y014838D03*
X003401Y014858D03*
X003401Y014877D03*
X003401Y014897D03*
X003401Y014917D03*
X003401Y014936D03*
X003401Y014956D03*
X003401Y014976D03*
X003401Y014995D03*
X003401Y015015D03*
X003401Y015035D03*
X003401Y015054D03*
X003401Y015074D03*
X003401Y015094D03*
X003401Y015113D03*
X003401Y015133D03*
X003401Y015153D03*
X003401Y015173D03*
X003401Y015192D03*
X003401Y015212D03*
X003401Y015232D03*
X003401Y015251D03*
X003401Y015271D03*
X003401Y015291D03*
X003401Y015310D03*
X003401Y015330D03*
X003401Y015350D03*
X003401Y015369D03*
X003401Y015389D03*
X003401Y015409D03*
X003401Y015428D03*
X003401Y015448D03*
X003401Y015468D03*
X003401Y015487D03*
X003401Y015507D03*
X003401Y015527D03*
X003401Y015547D03*
X003401Y015566D03*
X003401Y015586D03*
X003401Y015606D03*
X003401Y015625D03*
X003401Y015645D03*
X003401Y015665D03*
X003401Y015684D03*
X003401Y015704D03*
X003401Y015724D03*
X003401Y015743D03*
X003401Y015763D03*
X003401Y015783D03*
X003401Y015802D03*
X003401Y015822D03*
X003401Y015842D03*
X003401Y015861D03*
X003401Y015881D03*
X003401Y015901D03*
X003401Y015921D03*
X003401Y015940D03*
X003401Y015960D03*
X003401Y015980D03*
X003401Y015999D03*
X003401Y016019D03*
X003401Y016039D03*
X003401Y016058D03*
X003401Y016078D03*
X003401Y016098D03*
X003401Y016117D03*
X003401Y016137D03*
X003401Y016157D03*
X003401Y016176D03*
X003401Y016196D03*
X003401Y016216D03*
X003401Y016235D03*
X003401Y016255D03*
X003401Y016275D03*
X003401Y016295D03*
X003401Y016314D03*
X003401Y016334D03*
X003401Y016354D03*
X003401Y016373D03*
X003401Y016393D03*
X003401Y016413D03*
X003401Y016432D03*
X003401Y016452D03*
X003401Y016472D03*
X003401Y016491D03*
X003401Y016511D03*
X003401Y016531D03*
X003401Y016550D03*
X003401Y016570D03*
X003401Y016590D03*
X003401Y016610D03*
X003401Y016629D03*
X003401Y016649D03*
X003401Y016669D03*
X003401Y016688D03*
X003401Y016708D03*
X003401Y016728D03*
X003401Y016747D03*
X003401Y016767D03*
X003401Y016787D03*
X003401Y016806D03*
X003401Y016826D03*
X003401Y016846D03*
X003401Y016865D03*
X003401Y016885D03*
X003401Y016905D03*
X003401Y016924D03*
X003401Y016944D03*
X003401Y016964D03*
X003401Y016984D03*
X001865Y012338D03*
X001846Y012220D03*
X001846Y012200D03*
X001846Y012180D03*
X001846Y012161D03*
X001846Y012141D03*
X001846Y012121D03*
X001846Y012102D03*
X001846Y012082D03*
X001846Y012062D03*
X001846Y012043D03*
X001846Y012023D03*
X001846Y012003D03*
X001846Y011984D03*
X001846Y011964D03*
X001846Y011944D03*
X001846Y011924D03*
X001846Y011905D03*
X001846Y011885D03*
X001865Y011767D03*
X003401Y010310D03*
X003401Y010291D03*
X003401Y010271D03*
X003401Y010251D03*
X003401Y010232D03*
X003401Y010212D03*
X003401Y010192D03*
X003401Y010173D03*
X003401Y010153D03*
X003401Y010133D03*
X003401Y010113D03*
X003401Y010094D03*
X003401Y010074D03*
X003401Y010054D03*
X003401Y010035D03*
X003401Y010015D03*
X003401Y009995D03*
X003401Y009976D03*
X003401Y009956D03*
X003401Y009936D03*
X003401Y009917D03*
X003401Y009897D03*
X003401Y009877D03*
X003401Y009858D03*
X003401Y009838D03*
X003401Y009818D03*
X003401Y009798D03*
X003401Y009779D03*
X003401Y009759D03*
X003401Y009739D03*
X003401Y009720D03*
X003401Y009700D03*
X003401Y009680D03*
X003401Y009661D03*
X003401Y009641D03*
X003401Y009621D03*
X003401Y009602D03*
X003401Y009582D03*
X003401Y009562D03*
X003401Y009543D03*
X003401Y009523D03*
X003401Y009503D03*
X003401Y009484D03*
X003401Y009464D03*
X003401Y009444D03*
X003401Y009424D03*
X003401Y009405D03*
X003401Y009385D03*
X003401Y009365D03*
X003401Y009346D03*
X003401Y009326D03*
X003401Y009306D03*
X003401Y009287D03*
X003401Y009267D03*
X003401Y009247D03*
X003401Y009228D03*
X003401Y009208D03*
X003401Y009188D03*
X003401Y009169D03*
X003401Y009149D03*
X003401Y009129D03*
X003401Y009110D03*
X003401Y009090D03*
X003401Y009070D03*
X003401Y009050D03*
X003401Y009031D03*
X003401Y009011D03*
X003401Y008991D03*
X003401Y008972D03*
X003401Y008952D03*
X003401Y008932D03*
X003401Y008913D03*
X003401Y008893D03*
X003401Y008873D03*
X003401Y008854D03*
X003401Y008834D03*
X003401Y008814D03*
X003401Y008795D03*
X003401Y008775D03*
X003401Y008755D03*
X003401Y008735D03*
X003401Y008716D03*
X003401Y008696D03*
X003401Y008676D03*
X003401Y008657D03*
X003401Y008637D03*
X003401Y008617D03*
X003401Y008598D03*
X003401Y008578D03*
X003401Y008558D03*
X003401Y008539D03*
X003401Y008519D03*
X003401Y008499D03*
X003401Y008480D03*
X003401Y008460D03*
X003401Y008440D03*
X003401Y008421D03*
X003401Y008401D03*
X003401Y008381D03*
X003401Y008361D03*
X003401Y008342D03*
X003401Y008322D03*
X003401Y008302D03*
X003401Y008283D03*
X003401Y008263D03*
X003401Y008243D03*
X003401Y008224D03*
X003401Y008204D03*
X003401Y008184D03*
X003401Y008165D03*
X003401Y008145D03*
X003401Y008125D03*
X003401Y008106D03*
X003401Y008086D03*
X003401Y008066D03*
X003401Y008047D03*
X003401Y008027D03*
X003401Y008007D03*
X003401Y007987D03*
X003401Y007968D03*
X003401Y007948D03*
X003401Y007928D03*
X003401Y007909D03*
X003401Y007889D03*
X003401Y007869D03*
X003401Y007850D03*
X003401Y007830D03*
X003401Y007810D03*
X003401Y007791D03*
X003401Y007771D03*
X003401Y007751D03*
X003401Y007732D03*
X003401Y007712D03*
X003401Y007692D03*
X003401Y007673D03*
X003401Y007653D03*
X003401Y007633D03*
X003401Y007613D03*
X003401Y007594D03*
X003401Y007574D03*
X003401Y007554D03*
X003401Y007535D03*
X003401Y007515D03*
X003401Y007495D03*
X003401Y007476D03*
X003401Y007456D03*
X003401Y007436D03*
X003401Y007417D03*
X003401Y007397D03*
X003401Y007377D03*
X003401Y007358D03*
X003401Y007338D03*
X003401Y007318D03*
X003401Y007298D03*
X003401Y007279D03*
X003401Y007259D03*
X003401Y007239D03*
X003401Y007220D03*
X003401Y007200D03*
X003401Y007180D03*
X003401Y007161D03*
D18*
X003401Y010330D03*
X002141Y011137D03*
X002121Y011157D03*
X002102Y011196D03*
X002082Y011216D03*
X002062Y011255D03*
X002043Y012810D03*
X002062Y012850D03*
X002082Y012869D03*
X002082Y012889D03*
X002102Y012909D03*
X002121Y012928D03*
X004700Y012909D03*
X004720Y012889D03*
X004720Y012869D03*
X004739Y012850D03*
X004759Y012810D03*
X004779Y011314D03*
X004759Y011275D03*
X004739Y011255D03*
X004739Y011235D03*
X004720Y011216D03*
X004700Y011196D03*
X004680Y011157D03*
D19*
X003726Y011787D03*
X002643Y010704D03*
X003411Y010350D03*
X004178Y013381D03*
X002623Y013381D03*
D20*
X003086Y012239D03*
X003716Y011846D03*
X003401Y010369D03*
D21*
X003401Y010389D03*
X003676Y011905D03*
D22*
X003401Y010409D03*
D23*
X003401Y010428D03*
D24*
X003411Y010448D03*
D25*
X003401Y010468D03*
D26*
X003401Y010487D03*
D27*
X003401Y010507D03*
D28*
X003401Y010527D03*
D29*
X003411Y010547D03*
D30*
X003401Y010566D03*
D31*
X003401Y010586D03*
D32*
X003411Y010606D03*
D33*
X003401Y010625D03*
D34*
X004011Y010645D03*
X003716Y011826D03*
X003086Y012259D03*
X002771Y013440D03*
X002791Y010645D03*
D35*
X002722Y010665D03*
X003076Y012279D03*
X004080Y010665D03*
D36*
X002682Y010684D03*
D37*
X003066Y012298D03*
X002672Y013401D03*
X004149Y013401D03*
X004129Y010684D03*
D38*
X004169Y010704D03*
X004208Y010724D03*
D39*
X003056Y012318D03*
X002584Y013361D03*
X004218Y013361D03*
X002604Y010724D03*
D40*
X002574Y010743D03*
X003735Y011767D03*
X004050Y012180D03*
X004247Y013342D03*
X002554Y013342D03*
X004247Y010743D03*
D41*
X004277Y010763D03*
X002741Y011905D03*
X002505Y010783D03*
X002525Y010763D03*
X002525Y013322D03*
X004277Y013322D03*
X004316Y013302D03*
D42*
X004346Y013283D03*
X004090Y012200D03*
X004326Y010802D03*
X004306Y010783D03*
X002476Y010802D03*
X002495Y013302D03*
D43*
X002466Y013283D03*
X003056Y012338D03*
X002722Y011885D03*
X002446Y010822D03*
X004356Y010822D03*
X004395Y013243D03*
X004375Y013263D03*
D44*
X004424Y013224D03*
X004109Y012220D03*
X003735Y011747D03*
X004405Y010861D03*
X004385Y010842D03*
X002417Y010842D03*
X002397Y010861D03*
X002417Y013243D03*
X002436Y013263D03*
D45*
X002387Y013224D03*
X002367Y013204D03*
X002722Y011865D03*
X002348Y010901D03*
X002367Y010881D03*
X004434Y010881D03*
X004454Y010901D03*
X004474Y010921D03*
X004434Y013204D03*
D46*
X004464Y013184D03*
X004484Y013165D03*
X004503Y013145D03*
X004523Y013125D03*
X003401Y013755D03*
X002338Y013184D03*
X002318Y013165D03*
X002298Y013145D03*
X002279Y013125D03*
X002338Y010921D03*
D47*
X002308Y010940D03*
X002289Y010960D03*
X002269Y010980D03*
X002249Y010999D03*
X003037Y012358D03*
X004100Y012239D03*
X004552Y013106D03*
X004572Y011019D03*
X004552Y010999D03*
X004533Y010980D03*
X004513Y010960D03*
X004493Y010940D03*
D48*
X004582Y011039D03*
X004602Y011058D03*
X004621Y011078D03*
X003735Y011728D03*
X004661Y012968D03*
X004621Y013027D03*
X004602Y013047D03*
X004582Y013066D03*
X004562Y013086D03*
X002712Y011846D03*
X002180Y011078D03*
X002200Y011058D03*
X002220Y011039D03*
X002239Y011019D03*
X002200Y013047D03*
X002220Y013066D03*
X002239Y013086D03*
X002259Y013106D03*
D49*
X002190Y013027D03*
X002171Y013007D03*
X002151Y012987D03*
X002151Y012968D03*
X002131Y012948D03*
X002111Y011176D03*
X002151Y011117D03*
X002171Y011098D03*
X004100Y012259D03*
X004690Y012928D03*
X004671Y012948D03*
X004651Y012987D03*
X004631Y013007D03*
X004690Y011176D03*
X004671Y011137D03*
X004651Y011117D03*
X004631Y011098D03*
D50*
X004769Y011295D03*
X004789Y011334D03*
X004789Y011354D03*
X004808Y011373D03*
X004828Y011413D03*
X004848Y012633D03*
X004828Y012673D03*
X004828Y012692D03*
X004808Y012712D03*
X004808Y012732D03*
X004789Y012751D03*
X004789Y012771D03*
X004769Y012791D03*
X004749Y012830D03*
X003037Y012377D03*
X002722Y011826D03*
X002033Y011314D03*
X002033Y011295D03*
X002052Y011275D03*
X002072Y011235D03*
X002013Y011334D03*
X001993Y011373D03*
X001954Y012633D03*
X001974Y012673D03*
X001993Y012712D03*
X001993Y012732D03*
X002013Y012751D03*
X002013Y012771D03*
X002033Y012791D03*
X002052Y012830D03*
D51*
X001984Y012692D03*
X001964Y012653D03*
X001944Y012613D03*
X001944Y012594D03*
X001924Y012574D03*
X001924Y012554D03*
X001905Y012495D03*
X001905Y011610D03*
X001924Y011550D03*
X001924Y011531D03*
X001944Y011491D03*
X001944Y011472D03*
X001964Y011452D03*
X001964Y011432D03*
X001984Y011413D03*
X001984Y011393D03*
X002003Y011354D03*
X004090Y012279D03*
X004877Y012535D03*
X004877Y012554D03*
X004877Y012574D03*
X004858Y012594D03*
X004858Y012613D03*
X004838Y012653D03*
X004897Y012515D03*
X004897Y012495D03*
X004897Y012476D03*
X004917Y012436D03*
X004917Y012417D03*
X004936Y012338D03*
X004936Y011767D03*
X004917Y011688D03*
X004917Y011669D03*
X004897Y011610D03*
X004897Y011590D03*
X004877Y011550D03*
X004877Y011531D03*
X004858Y011511D03*
X004858Y011491D03*
X004858Y011472D03*
X004838Y011452D03*
X004838Y011432D03*
X004818Y011393D03*
D52*
X004887Y011570D03*
X004907Y011629D03*
X004907Y011649D03*
X004926Y011708D03*
X004926Y011728D03*
X004926Y011747D03*
X004946Y011787D03*
X004946Y011806D03*
X004946Y011826D03*
X004946Y011846D03*
X004946Y011865D03*
X004946Y011885D03*
X004966Y011905D03*
X004966Y011924D03*
X004966Y011944D03*
X004966Y011964D03*
X004966Y011984D03*
X004966Y012003D03*
X004966Y012023D03*
X004966Y012043D03*
X004966Y012062D03*
X004966Y012082D03*
X004966Y012102D03*
X004966Y012121D03*
X004966Y012141D03*
X004966Y012161D03*
X004966Y012180D03*
X004946Y012220D03*
X004946Y012239D03*
X004946Y012259D03*
X004946Y012279D03*
X004946Y012298D03*
X004946Y012318D03*
X004926Y012358D03*
X004926Y012377D03*
X004926Y012397D03*
X004907Y012456D03*
X003745Y011708D03*
X002722Y011806D03*
X001915Y011590D03*
X001915Y011570D03*
X001934Y011511D03*
X001895Y011629D03*
X001895Y011649D03*
X001895Y011669D03*
X001875Y011688D03*
X001875Y011708D03*
X001875Y011728D03*
X001875Y011747D03*
X001856Y011787D03*
X001856Y011806D03*
X001856Y011826D03*
X001856Y011846D03*
X001856Y011865D03*
X001856Y012239D03*
X001856Y012259D03*
X001856Y012279D03*
X001856Y012298D03*
X001856Y012318D03*
X001875Y012358D03*
X001875Y012377D03*
X001875Y012397D03*
X001875Y012417D03*
X001895Y012436D03*
X001895Y012456D03*
X001895Y012476D03*
X001915Y012515D03*
X001915Y012535D03*
D53*
X002771Y011688D03*
X004050Y012417D03*
D54*
X003735Y011688D03*
D55*
X002761Y011708D03*
D56*
X002761Y011728D03*
D57*
X002741Y011747D03*
D58*
X002732Y011767D03*
X003027Y012397D03*
D59*
X002732Y011787D03*
D60*
X003716Y011806D03*
X004090Y013421D03*
X003401Y013735D03*
X002712Y013421D03*
D61*
X002859Y013460D03*
X003411Y013716D03*
X003706Y011865D03*
D62*
X003686Y011885D03*
D63*
X003421Y012082D03*
X003460Y012141D03*
X003361Y011984D03*
X003342Y011944D03*
X003322Y011924D03*
D64*
X003352Y011964D03*
X003371Y012003D03*
X003391Y012023D03*
X003391Y012043D03*
X003411Y012062D03*
X003430Y012102D03*
X003450Y012121D03*
X003470Y012161D03*
X003411Y013539D03*
D65*
X003135Y012180D03*
D66*
X003115Y012200D03*
D67*
X003106Y012220D03*
X003952Y013460D03*
D68*
X004080Y012318D03*
D69*
X004080Y012338D03*
D70*
X004070Y012358D03*
D71*
X004070Y012377D03*
D72*
X004050Y012397D03*
D73*
X004041Y013440D03*
D74*
X003401Y013480D03*
D75*
X003411Y013499D03*
D76*
X003401Y013519D03*
D77*
X003411Y013558D03*
D78*
X003401Y013578D03*
D79*
X003401Y013598D03*
D80*
X003411Y013617D03*
D81*
X003411Y013637D03*
D82*
X003401Y013657D03*
D83*
X003401Y013676D03*
D84*
X003401Y013696D03*
M02*
