G75*
G70*
%OFA0B0*%
%FSLAX24Y24*%
%IPPOS*%
%LPD*%
%AMOC8*
5,1,8,0,0,1.08239X$1,22.5*
%
%ADD10C,0.0034*%
%ADD11C,0.0035*%
%ADD12R,0.1024X0.0591*%
%ADD13C,0.0036*%
%ADD14C,0.0035*%
%ADD15C,0.0067*%
D10*
X002738Y008927D02*
X002738Y009153D01*
X003264Y009153D01*
X003264Y008927D01*
X002738Y008927D01*
X002738Y008960D02*
X003264Y008960D01*
X003264Y008993D02*
X002738Y008993D01*
X002738Y009026D02*
X003264Y009026D01*
X003264Y009059D02*
X002738Y009059D01*
X002738Y009092D02*
X003264Y009092D01*
X003264Y009125D02*
X002738Y009125D01*
X002738Y010427D02*
X002738Y010653D01*
X003264Y010653D01*
X003264Y010427D01*
X002738Y010427D01*
X002738Y010460D02*
X003264Y010460D01*
X003264Y010493D02*
X002738Y010493D01*
X002738Y010526D02*
X003264Y010526D01*
X003264Y010559D02*
X002738Y010559D01*
X002738Y010592D02*
X003264Y010592D01*
X003264Y010625D02*
X002738Y010625D01*
X004738Y010653D02*
X004738Y010427D01*
X004738Y010653D02*
X005264Y010653D01*
X005264Y010427D01*
X004738Y010427D01*
X004738Y010460D02*
X005264Y010460D01*
X005264Y010493D02*
X004738Y010493D01*
X004738Y010526D02*
X005264Y010526D01*
X005264Y010559D02*
X004738Y010559D01*
X004738Y010592D02*
X005264Y010592D01*
X005264Y010625D02*
X004738Y010625D01*
X004738Y009153D02*
X004738Y008927D01*
X004738Y009153D02*
X005264Y009153D01*
X005264Y008927D01*
X004738Y008927D01*
X004738Y008960D02*
X005264Y008960D01*
X005264Y008993D02*
X004738Y008993D01*
X004738Y009026D02*
X005264Y009026D01*
X005264Y009059D02*
X004738Y009059D01*
X004738Y009092D02*
X005264Y009092D01*
X005264Y009125D02*
X004738Y009125D01*
X008256Y035431D02*
X008482Y035431D01*
X008482Y034905D01*
X008256Y034905D01*
X008256Y035431D01*
X008256Y034938D02*
X008482Y034938D01*
X008482Y034971D02*
X008256Y034971D01*
X008256Y035004D02*
X008482Y035004D01*
X008482Y035037D02*
X008256Y035037D01*
X008256Y035070D02*
X008482Y035070D01*
X008482Y035103D02*
X008256Y035103D01*
X008256Y035136D02*
X008482Y035136D01*
X008482Y035169D02*
X008256Y035169D01*
X008256Y035202D02*
X008482Y035202D01*
X008482Y035235D02*
X008256Y035235D01*
X008256Y035268D02*
X008482Y035268D01*
X008482Y035301D02*
X008256Y035301D01*
X008256Y035334D02*
X008482Y035334D01*
X008482Y035367D02*
X008256Y035367D01*
X008256Y035400D02*
X008482Y035400D01*
X008482Y037431D02*
X008256Y037431D01*
X008482Y037431D02*
X008482Y036905D01*
X008256Y036905D01*
X008256Y037431D01*
X008256Y036938D02*
X008482Y036938D01*
X008482Y036971D02*
X008256Y036971D01*
X008256Y037004D02*
X008482Y037004D01*
X008482Y037037D02*
X008256Y037037D01*
X008256Y037070D02*
X008482Y037070D01*
X008482Y037103D02*
X008256Y037103D01*
X008256Y037136D02*
X008482Y037136D01*
X008482Y037169D02*
X008256Y037169D01*
X008256Y037202D02*
X008482Y037202D01*
X008482Y037235D02*
X008256Y037235D01*
X008256Y037268D02*
X008482Y037268D01*
X008482Y037301D02*
X008256Y037301D01*
X008256Y037334D02*
X008482Y037334D01*
X008482Y037367D02*
X008256Y037367D01*
X008256Y037400D02*
X008482Y037400D01*
X008482Y038935D02*
X008256Y038935D01*
X008482Y038935D02*
X008482Y038409D01*
X008256Y038409D01*
X008256Y038935D01*
X008256Y038442D02*
X008482Y038442D01*
X008482Y038475D02*
X008256Y038475D01*
X008256Y038508D02*
X008482Y038508D01*
X008482Y038541D02*
X008256Y038541D01*
X008256Y038574D02*
X008482Y038574D01*
X008482Y038607D02*
X008256Y038607D01*
X008256Y038640D02*
X008482Y038640D01*
X008482Y038673D02*
X008256Y038673D01*
X008256Y038706D02*
X008482Y038706D01*
X008482Y038739D02*
X008256Y038739D01*
X008256Y038772D02*
X008482Y038772D01*
X008482Y038805D02*
X008256Y038805D01*
X008256Y038838D02*
X008482Y038838D01*
X008482Y038871D02*
X008256Y038871D01*
X008256Y038904D02*
X008482Y038904D01*
X008482Y040935D02*
X008256Y040935D01*
X008482Y040935D02*
X008482Y040409D01*
X008256Y040409D01*
X008256Y040935D01*
X008256Y040442D02*
X008482Y040442D01*
X008482Y040475D02*
X008256Y040475D01*
X008256Y040508D02*
X008482Y040508D01*
X008482Y040541D02*
X008256Y040541D01*
X008256Y040574D02*
X008482Y040574D01*
X008482Y040607D02*
X008256Y040607D01*
X008256Y040640D02*
X008482Y040640D01*
X008482Y040673D02*
X008256Y040673D01*
X008256Y040706D02*
X008482Y040706D01*
X008482Y040739D02*
X008256Y040739D01*
X008256Y040772D02*
X008482Y040772D01*
X008482Y040805D02*
X008256Y040805D01*
X008256Y040838D02*
X008482Y040838D01*
X008482Y040871D02*
X008256Y040871D01*
X008256Y040904D02*
X008482Y040904D01*
X007226Y040935D02*
X007000Y040935D01*
X007226Y040935D02*
X007226Y040409D01*
X007000Y040409D01*
X007000Y040935D01*
X007000Y040442D02*
X007226Y040442D01*
X007226Y040475D02*
X007000Y040475D01*
X007000Y040508D02*
X007226Y040508D01*
X007226Y040541D02*
X007000Y040541D01*
X007000Y040574D02*
X007226Y040574D01*
X007226Y040607D02*
X007000Y040607D01*
X007000Y040640D02*
X007226Y040640D01*
X007226Y040673D02*
X007000Y040673D01*
X007000Y040706D02*
X007226Y040706D01*
X007226Y040739D02*
X007000Y040739D01*
X007000Y040772D02*
X007226Y040772D01*
X007226Y040805D02*
X007000Y040805D01*
X007000Y040838D02*
X007226Y040838D01*
X007226Y040871D02*
X007000Y040871D01*
X007000Y040904D02*
X007226Y040904D01*
X007226Y038935D02*
X007000Y038935D01*
X007226Y038935D02*
X007226Y038409D01*
X007000Y038409D01*
X007000Y038935D01*
X007000Y038442D02*
X007226Y038442D01*
X007226Y038475D02*
X007000Y038475D01*
X007000Y038508D02*
X007226Y038508D01*
X007226Y038541D02*
X007000Y038541D01*
X007000Y038574D02*
X007226Y038574D01*
X007226Y038607D02*
X007000Y038607D01*
X007000Y038640D02*
X007226Y038640D01*
X007226Y038673D02*
X007000Y038673D01*
X007000Y038706D02*
X007226Y038706D01*
X007226Y038739D02*
X007000Y038739D01*
X007000Y038772D02*
X007226Y038772D01*
X007226Y038805D02*
X007000Y038805D01*
X007000Y038838D02*
X007226Y038838D01*
X007226Y038871D02*
X007000Y038871D01*
X007000Y038904D02*
X007226Y038904D01*
X005726Y038935D02*
X005500Y038935D01*
X005726Y038935D02*
X005726Y038409D01*
X005500Y038409D01*
X005500Y038935D01*
X005500Y038442D02*
X005726Y038442D01*
X005726Y038475D02*
X005500Y038475D01*
X005500Y038508D02*
X005726Y038508D01*
X005726Y038541D02*
X005500Y038541D01*
X005500Y038574D02*
X005726Y038574D01*
X005726Y038607D02*
X005500Y038607D01*
X005500Y038640D02*
X005726Y038640D01*
X005726Y038673D02*
X005500Y038673D01*
X005500Y038706D02*
X005726Y038706D01*
X005726Y038739D02*
X005500Y038739D01*
X005500Y038772D02*
X005726Y038772D01*
X005726Y038805D02*
X005500Y038805D01*
X005500Y038838D02*
X005726Y038838D01*
X005726Y038871D02*
X005500Y038871D01*
X005500Y038904D02*
X005726Y038904D01*
X005726Y040935D02*
X005500Y040935D01*
X005726Y040935D02*
X005726Y040409D01*
X005500Y040409D01*
X005500Y040935D01*
X005500Y040442D02*
X005726Y040442D01*
X005726Y040475D02*
X005500Y040475D01*
X005500Y040508D02*
X005726Y040508D01*
X005726Y040541D02*
X005500Y040541D01*
X005500Y040574D02*
X005726Y040574D01*
X005726Y040607D02*
X005500Y040607D01*
X005500Y040640D02*
X005726Y040640D01*
X005726Y040673D02*
X005500Y040673D01*
X005500Y040706D02*
X005726Y040706D01*
X005726Y040739D02*
X005500Y040739D01*
X005500Y040772D02*
X005726Y040772D01*
X005726Y040805D02*
X005500Y040805D01*
X005500Y040838D02*
X005726Y040838D01*
X005726Y040871D02*
X005500Y040871D01*
X005500Y040904D02*
X005726Y040904D01*
X009756Y040935D02*
X009982Y040935D01*
X009982Y040409D01*
X009756Y040409D01*
X009756Y040935D01*
X009756Y040442D02*
X009982Y040442D01*
X009982Y040475D02*
X009756Y040475D01*
X009756Y040508D02*
X009982Y040508D01*
X009982Y040541D02*
X009756Y040541D01*
X009756Y040574D02*
X009982Y040574D01*
X009982Y040607D02*
X009756Y040607D01*
X009756Y040640D02*
X009982Y040640D01*
X009982Y040673D02*
X009756Y040673D01*
X009756Y040706D02*
X009982Y040706D01*
X009982Y040739D02*
X009756Y040739D01*
X009756Y040772D02*
X009982Y040772D01*
X009982Y040805D02*
X009756Y040805D01*
X009756Y040838D02*
X009982Y040838D01*
X009982Y040871D02*
X009756Y040871D01*
X009756Y040904D02*
X009982Y040904D01*
X009982Y038935D02*
X009756Y038935D01*
X009982Y038935D02*
X009982Y038409D01*
X009756Y038409D01*
X009756Y038935D01*
X009756Y038442D02*
X009982Y038442D01*
X009982Y038475D02*
X009756Y038475D01*
X009756Y038508D02*
X009982Y038508D01*
X009982Y038541D02*
X009756Y038541D01*
X009756Y038574D02*
X009982Y038574D01*
X009982Y038607D02*
X009756Y038607D01*
X009756Y038640D02*
X009982Y038640D01*
X009982Y038673D02*
X009756Y038673D01*
X009756Y038706D02*
X009982Y038706D01*
X009982Y038739D02*
X009756Y038739D01*
X009756Y038772D02*
X009982Y038772D01*
X009982Y038805D02*
X009756Y038805D01*
X009756Y038838D02*
X009982Y038838D01*
X009982Y038871D02*
X009756Y038871D01*
X009756Y038904D02*
X009982Y038904D01*
X009982Y037431D02*
X009756Y037431D01*
X009982Y037431D02*
X009982Y036905D01*
X009756Y036905D01*
X009756Y037431D01*
X009756Y036938D02*
X009982Y036938D01*
X009982Y036971D02*
X009756Y036971D01*
X009756Y037004D02*
X009982Y037004D01*
X009982Y037037D02*
X009756Y037037D01*
X009756Y037070D02*
X009982Y037070D01*
X009982Y037103D02*
X009756Y037103D01*
X009756Y037136D02*
X009982Y037136D01*
X009982Y037169D02*
X009756Y037169D01*
X009756Y037202D02*
X009982Y037202D01*
X009982Y037235D02*
X009756Y037235D01*
X009756Y037268D02*
X009982Y037268D01*
X009982Y037301D02*
X009756Y037301D01*
X009756Y037334D02*
X009982Y037334D01*
X009982Y037367D02*
X009756Y037367D01*
X009756Y037400D02*
X009982Y037400D01*
X009982Y035431D02*
X009756Y035431D01*
X009982Y035431D02*
X009982Y034905D01*
X009756Y034905D01*
X009756Y035431D01*
X009756Y034938D02*
X009982Y034938D01*
X009982Y034971D02*
X009756Y034971D01*
X009756Y035004D02*
X009982Y035004D01*
X009982Y035037D02*
X009756Y035037D01*
X009756Y035070D02*
X009982Y035070D01*
X009982Y035103D02*
X009756Y035103D01*
X009756Y035136D02*
X009982Y035136D01*
X009982Y035169D02*
X009756Y035169D01*
X009756Y035202D02*
X009982Y035202D01*
X009982Y035235D02*
X009756Y035235D01*
X009756Y035268D02*
X009982Y035268D01*
X009982Y035301D02*
X009756Y035301D01*
X009756Y035334D02*
X009982Y035334D01*
X009982Y035367D02*
X009756Y035367D01*
X009756Y035400D02*
X009982Y035400D01*
X019280Y035431D02*
X019506Y035431D01*
X019506Y034905D01*
X019280Y034905D01*
X019280Y035431D01*
X019280Y034938D02*
X019506Y034938D01*
X019506Y034971D02*
X019280Y034971D01*
X019280Y035004D02*
X019506Y035004D01*
X019506Y035037D02*
X019280Y035037D01*
X019280Y035070D02*
X019506Y035070D01*
X019506Y035103D02*
X019280Y035103D01*
X019280Y035136D02*
X019506Y035136D01*
X019506Y035169D02*
X019280Y035169D01*
X019280Y035202D02*
X019506Y035202D01*
X019506Y035235D02*
X019280Y035235D01*
X019280Y035268D02*
X019506Y035268D01*
X019506Y035301D02*
X019280Y035301D01*
X019280Y035334D02*
X019506Y035334D01*
X019506Y035367D02*
X019280Y035367D01*
X019280Y035400D02*
X019506Y035400D01*
X019506Y037431D02*
X019280Y037431D01*
X019506Y037431D02*
X019506Y036905D01*
X019280Y036905D01*
X019280Y037431D01*
X019280Y036938D02*
X019506Y036938D01*
X019506Y036971D02*
X019280Y036971D01*
X019280Y037004D02*
X019506Y037004D01*
X019506Y037037D02*
X019280Y037037D01*
X019280Y037070D02*
X019506Y037070D01*
X019506Y037103D02*
X019280Y037103D01*
X019280Y037136D02*
X019506Y037136D01*
X019506Y037169D02*
X019280Y037169D01*
X019280Y037202D02*
X019506Y037202D01*
X019506Y037235D02*
X019280Y037235D01*
X019280Y037268D02*
X019506Y037268D01*
X019506Y037301D02*
X019280Y037301D01*
X019280Y037334D02*
X019506Y037334D01*
X019506Y037367D02*
X019280Y037367D01*
X019280Y037400D02*
X019506Y037400D01*
X020780Y037431D02*
X021006Y037431D01*
X021006Y036905D01*
X020780Y036905D01*
X020780Y037431D01*
X020780Y036938D02*
X021006Y036938D01*
X021006Y036971D02*
X020780Y036971D01*
X020780Y037004D02*
X021006Y037004D01*
X021006Y037037D02*
X020780Y037037D01*
X020780Y037070D02*
X021006Y037070D01*
X021006Y037103D02*
X020780Y037103D01*
X020780Y037136D02*
X021006Y037136D01*
X021006Y037169D02*
X020780Y037169D01*
X020780Y037202D02*
X021006Y037202D01*
X021006Y037235D02*
X020780Y037235D01*
X020780Y037268D02*
X021006Y037268D01*
X021006Y037301D02*
X020780Y037301D01*
X020780Y037334D02*
X021006Y037334D01*
X021006Y037367D02*
X020780Y037367D01*
X020780Y037400D02*
X021006Y037400D01*
X021006Y035431D02*
X020780Y035431D01*
X021006Y035431D02*
X021006Y034905D01*
X020780Y034905D01*
X020780Y035431D01*
X020780Y034938D02*
X021006Y034938D01*
X021006Y034971D02*
X020780Y034971D01*
X020780Y035004D02*
X021006Y035004D01*
X021006Y035037D02*
X020780Y035037D01*
X020780Y035070D02*
X021006Y035070D01*
X021006Y035103D02*
X020780Y035103D01*
X020780Y035136D02*
X021006Y035136D01*
X021006Y035169D02*
X020780Y035169D01*
X020780Y035202D02*
X021006Y035202D01*
X021006Y035235D02*
X020780Y035235D01*
X020780Y035268D02*
X021006Y035268D01*
X021006Y035301D02*
X020780Y035301D01*
X020780Y035334D02*
X021006Y035334D01*
X021006Y035367D02*
X020780Y035367D01*
X020780Y035400D02*
X021006Y035400D01*
D11*
X016027Y037425D02*
X016027Y037823D01*
X016307Y037823D01*
X016307Y037425D01*
X016027Y037425D01*
X016027Y037459D02*
X016307Y037459D01*
X016307Y037493D02*
X016027Y037493D01*
X016027Y037527D02*
X016307Y037527D01*
X016307Y037561D02*
X016027Y037561D01*
X016027Y037595D02*
X016307Y037595D01*
X016307Y037629D02*
X016027Y037629D01*
X016027Y037663D02*
X016307Y037663D01*
X016307Y037697D02*
X016027Y037697D01*
X016027Y037731D02*
X016307Y037731D01*
X016307Y037765D02*
X016027Y037765D01*
X016027Y037799D02*
X016307Y037799D01*
X016027Y038449D02*
X016027Y038847D01*
X016307Y038847D01*
X016307Y038449D01*
X016027Y038449D01*
X016027Y038483D02*
X016307Y038483D01*
X016307Y038517D02*
X016027Y038517D01*
X016027Y038551D02*
X016307Y038551D01*
X016307Y038585D02*
X016027Y038585D01*
X016027Y038619D02*
X016307Y038619D01*
X016307Y038653D02*
X016027Y038653D01*
X016027Y038687D02*
X016307Y038687D01*
X016307Y038721D02*
X016027Y038721D01*
X016027Y038755D02*
X016307Y038755D01*
X016307Y038789D02*
X016027Y038789D01*
X016027Y038823D02*
X016307Y038823D01*
X015318Y038847D02*
X015318Y038449D01*
X015318Y038847D02*
X015598Y038847D01*
X015598Y038449D01*
X015318Y038449D01*
X015318Y038483D02*
X015598Y038483D01*
X015598Y038517D02*
X015318Y038517D01*
X015318Y038551D02*
X015598Y038551D01*
X015598Y038585D02*
X015318Y038585D01*
X015318Y038619D02*
X015598Y038619D01*
X015598Y038653D02*
X015318Y038653D01*
X015318Y038687D02*
X015598Y038687D01*
X015598Y038721D02*
X015318Y038721D01*
X015318Y038755D02*
X015598Y038755D01*
X015598Y038789D02*
X015318Y038789D01*
X015318Y038823D02*
X015598Y038823D01*
X015318Y037823D02*
X015318Y037425D01*
X015318Y037823D02*
X015598Y037823D01*
X015598Y037425D01*
X015318Y037425D01*
X015318Y037459D02*
X015598Y037459D01*
X015598Y037493D02*
X015318Y037493D01*
X015318Y037527D02*
X015598Y037527D01*
X015598Y037561D02*
X015318Y037561D01*
X015318Y037595D02*
X015598Y037595D01*
X015598Y037629D02*
X015318Y037629D01*
X015318Y037663D02*
X015598Y037663D01*
X015598Y037697D02*
X015318Y037697D01*
X015318Y037731D02*
X015598Y037731D01*
X015598Y037765D02*
X015318Y037765D01*
X015318Y037799D02*
X015598Y037799D01*
X013664Y037823D02*
X013664Y037425D01*
X013664Y037823D02*
X013944Y037823D01*
X013944Y037425D01*
X013664Y037425D01*
X013664Y037459D02*
X013944Y037459D01*
X013944Y037493D02*
X013664Y037493D01*
X013664Y037527D02*
X013944Y037527D01*
X013944Y037561D02*
X013664Y037561D01*
X013664Y037595D02*
X013944Y037595D01*
X013944Y037629D02*
X013664Y037629D01*
X013664Y037663D02*
X013944Y037663D01*
X013944Y037697D02*
X013664Y037697D01*
X013664Y037731D02*
X013944Y037731D01*
X013944Y037765D02*
X013664Y037765D01*
X013664Y037799D02*
X013944Y037799D01*
X013664Y038449D02*
X013664Y038847D01*
X013944Y038847D01*
X013944Y038449D01*
X013664Y038449D01*
X013664Y038483D02*
X013944Y038483D01*
X013944Y038517D02*
X013664Y038517D01*
X013664Y038551D02*
X013944Y038551D01*
X013944Y038585D02*
X013664Y038585D01*
X013664Y038619D02*
X013944Y038619D01*
X013944Y038653D02*
X013664Y038653D01*
X013664Y038687D02*
X013944Y038687D01*
X013944Y038721D02*
X013664Y038721D01*
X013664Y038755D02*
X013944Y038755D01*
X013944Y038789D02*
X013664Y038789D01*
X013664Y038823D02*
X013944Y038823D01*
X012956Y038847D02*
X012956Y038449D01*
X012956Y038847D02*
X013236Y038847D01*
X013236Y038449D01*
X012956Y038449D01*
X012956Y038483D02*
X013236Y038483D01*
X013236Y038517D02*
X012956Y038517D01*
X012956Y038551D02*
X013236Y038551D01*
X013236Y038585D02*
X012956Y038585D01*
X012956Y038619D02*
X013236Y038619D01*
X013236Y038653D02*
X012956Y038653D01*
X012956Y038687D02*
X013236Y038687D01*
X013236Y038721D02*
X012956Y038721D01*
X012956Y038755D02*
X013236Y038755D01*
X013236Y038789D02*
X012956Y038789D01*
X012956Y038823D02*
X013236Y038823D01*
X012956Y037823D02*
X012956Y037425D01*
X012956Y037823D02*
X013236Y037823D01*
X013236Y037425D01*
X012956Y037425D01*
X012956Y037459D02*
X013236Y037459D01*
X013236Y037493D02*
X012956Y037493D01*
X012956Y037527D02*
X013236Y037527D01*
X013236Y037561D02*
X012956Y037561D01*
X012956Y037595D02*
X013236Y037595D01*
X013236Y037629D02*
X012956Y037629D01*
X012956Y037663D02*
X013236Y037663D01*
X013236Y037697D02*
X012956Y037697D01*
X012956Y037731D02*
X013236Y037731D01*
X013236Y037765D02*
X012956Y037765D01*
X012956Y037799D02*
X013236Y037799D01*
D12*
X024671Y008412D03*
X024671Y007231D03*
D13*
X005262Y005281D02*
X005024Y005281D01*
X005024Y005519D01*
X005262Y005519D01*
X005262Y005281D01*
X005262Y005316D02*
X005024Y005316D01*
X005024Y005351D02*
X005262Y005351D01*
X005262Y005386D02*
X005024Y005386D01*
X005024Y005421D02*
X005262Y005421D01*
X005262Y005456D02*
X005024Y005456D01*
X005024Y005491D02*
X005262Y005491D01*
X005536Y005281D02*
X005774Y005281D01*
X005536Y005281D02*
X005536Y005519D01*
X005774Y005519D01*
X005774Y005281D01*
X005774Y005316D02*
X005536Y005316D01*
X005536Y005351D02*
X005774Y005351D01*
X005774Y005386D02*
X005536Y005386D01*
X005536Y005421D02*
X005774Y005421D01*
X005774Y005456D02*
X005536Y005456D01*
X005536Y005491D02*
X005774Y005491D01*
X005774Y005872D02*
X005536Y005872D01*
X005536Y006110D01*
X005774Y006110D01*
X005774Y005872D01*
X005774Y005907D02*
X005536Y005907D01*
X005536Y005942D02*
X005774Y005942D01*
X005774Y005977D02*
X005536Y005977D01*
X005536Y006012D02*
X005774Y006012D01*
X005774Y006047D02*
X005536Y006047D01*
X005536Y006082D02*
X005774Y006082D01*
X005262Y005872D02*
X005024Y005872D01*
X005024Y006110D01*
X005262Y006110D01*
X005262Y005872D01*
X005262Y005907D02*
X005024Y005907D01*
X005024Y005942D02*
X005262Y005942D01*
X005262Y005977D02*
X005024Y005977D01*
X005024Y006012D02*
X005262Y006012D01*
X005262Y006047D02*
X005024Y006047D01*
X005024Y006082D02*
X005262Y006082D01*
X011480Y005539D02*
X011480Y004907D01*
X011242Y004907D01*
X011242Y005539D01*
X011480Y005539D01*
X011480Y004942D02*
X011242Y004942D01*
X011242Y004977D02*
X011480Y004977D01*
X011480Y005012D02*
X011242Y005012D01*
X011242Y005047D02*
X011480Y005047D01*
X011480Y005082D02*
X011242Y005082D01*
X011242Y005117D02*
X011480Y005117D01*
X011480Y005152D02*
X011242Y005152D01*
X011242Y005187D02*
X011480Y005187D01*
X011480Y005222D02*
X011242Y005222D01*
X011242Y005257D02*
X011480Y005257D01*
X011480Y005292D02*
X011242Y005292D01*
X011242Y005327D02*
X011480Y005327D01*
X011480Y005362D02*
X011242Y005362D01*
X011242Y005397D02*
X011480Y005397D01*
X011480Y005432D02*
X011242Y005432D01*
X011242Y005467D02*
X011480Y005467D01*
X011480Y005502D02*
X011242Y005502D01*
X011242Y005537D02*
X011480Y005537D01*
X011980Y005539D02*
X011980Y004907D01*
X011742Y004907D01*
X011742Y005539D01*
X011980Y005539D01*
X011980Y004942D02*
X011742Y004942D01*
X011742Y004977D02*
X011980Y004977D01*
X011980Y005012D02*
X011742Y005012D01*
X011742Y005047D02*
X011980Y005047D01*
X011980Y005082D02*
X011742Y005082D01*
X011742Y005117D02*
X011980Y005117D01*
X011980Y005152D02*
X011742Y005152D01*
X011742Y005187D02*
X011980Y005187D01*
X011980Y005222D02*
X011742Y005222D01*
X011742Y005257D02*
X011980Y005257D01*
X011980Y005292D02*
X011742Y005292D01*
X011742Y005327D02*
X011980Y005327D01*
X011980Y005362D02*
X011742Y005362D01*
X011742Y005397D02*
X011980Y005397D01*
X011980Y005432D02*
X011742Y005432D01*
X011742Y005467D02*
X011980Y005467D01*
X011980Y005502D02*
X011742Y005502D01*
X011742Y005537D02*
X011980Y005537D01*
X012480Y005539D02*
X012480Y004907D01*
X012242Y004907D01*
X012242Y005539D01*
X012480Y005539D01*
X012480Y004942D02*
X012242Y004942D01*
X012242Y004977D02*
X012480Y004977D01*
X012480Y005012D02*
X012242Y005012D01*
X012242Y005047D02*
X012480Y005047D01*
X012480Y005082D02*
X012242Y005082D01*
X012242Y005117D02*
X012480Y005117D01*
X012480Y005152D02*
X012242Y005152D01*
X012242Y005187D02*
X012480Y005187D01*
X012480Y005222D02*
X012242Y005222D01*
X012242Y005257D02*
X012480Y005257D01*
X012480Y005292D02*
X012242Y005292D01*
X012242Y005327D02*
X012480Y005327D01*
X012480Y005362D02*
X012242Y005362D01*
X012242Y005397D02*
X012480Y005397D01*
X012480Y005432D02*
X012242Y005432D01*
X012242Y005467D02*
X012480Y005467D01*
X012480Y005502D02*
X012242Y005502D01*
X012242Y005537D02*
X012480Y005537D01*
X012980Y005539D02*
X012980Y004907D01*
X012742Y004907D01*
X012742Y005539D01*
X012980Y005539D01*
X012980Y004942D02*
X012742Y004942D01*
X012742Y004977D02*
X012980Y004977D01*
X012980Y005012D02*
X012742Y005012D01*
X012742Y005047D02*
X012980Y005047D01*
X012980Y005082D02*
X012742Y005082D01*
X012742Y005117D02*
X012980Y005117D01*
X012980Y005152D02*
X012742Y005152D01*
X012742Y005187D02*
X012980Y005187D01*
X012980Y005222D02*
X012742Y005222D01*
X012742Y005257D02*
X012980Y005257D01*
X012980Y005292D02*
X012742Y005292D01*
X012742Y005327D02*
X012980Y005327D01*
X012980Y005362D02*
X012742Y005362D01*
X012742Y005397D02*
X012980Y005397D01*
X012980Y005432D02*
X012742Y005432D01*
X012742Y005467D02*
X012980Y005467D01*
X012980Y005502D02*
X012742Y005502D01*
X012742Y005537D02*
X012980Y005537D01*
D14*
X021057Y039494D02*
X020735Y039816D01*
X021057Y039494D02*
X020831Y039268D01*
X020509Y039590D01*
X020735Y039816D01*
X020797Y039302D02*
X020865Y039302D01*
X020899Y039336D02*
X020763Y039336D01*
X020729Y039370D02*
X020933Y039370D01*
X020967Y039404D02*
X020695Y039404D01*
X020661Y039438D02*
X021001Y039438D01*
X021035Y039472D02*
X020627Y039472D01*
X020593Y039506D02*
X021045Y039506D01*
X021011Y039540D02*
X020559Y039540D01*
X020525Y039574D02*
X020977Y039574D01*
X020943Y039608D02*
X020527Y039608D01*
X020561Y039642D02*
X020909Y039642D01*
X020875Y039676D02*
X020595Y039676D01*
X020629Y039710D02*
X020841Y039710D01*
X020807Y039744D02*
X020663Y039744D01*
X020697Y039778D02*
X020773Y039778D01*
X020739Y039812D02*
X020731Y039812D01*
X021090Y040171D02*
X021412Y039849D01*
X021186Y039623D01*
X020864Y039945D01*
X021090Y040171D01*
X021152Y039657D02*
X021220Y039657D01*
X021254Y039691D02*
X021118Y039691D01*
X021084Y039725D02*
X021288Y039725D01*
X021322Y039759D02*
X021050Y039759D01*
X021016Y039793D02*
X021356Y039793D01*
X021390Y039827D02*
X020982Y039827D01*
X020948Y039861D02*
X021400Y039861D01*
X021366Y039895D02*
X020914Y039895D01*
X020880Y039929D02*
X021332Y039929D01*
X021298Y039963D02*
X020882Y039963D01*
X020916Y039997D02*
X021264Y039997D01*
X021230Y040031D02*
X020950Y040031D01*
X020984Y040065D02*
X021196Y040065D01*
X021162Y040099D02*
X021018Y040099D01*
X021052Y040133D02*
X021128Y040133D01*
X021094Y040167D02*
X021086Y040167D01*
X021445Y040526D02*
X021767Y040204D01*
X021541Y039978D01*
X021219Y040300D01*
X021445Y040526D01*
X021507Y040012D02*
X021575Y040012D01*
X021609Y040046D02*
X021473Y040046D01*
X021439Y040080D02*
X021643Y040080D01*
X021677Y040114D02*
X021405Y040114D01*
X021371Y040148D02*
X021711Y040148D01*
X021745Y040182D02*
X021337Y040182D01*
X021303Y040216D02*
X021755Y040216D01*
X021721Y040250D02*
X021269Y040250D01*
X021235Y040284D02*
X021687Y040284D01*
X021653Y040318D02*
X021237Y040318D01*
X021271Y040352D02*
X021619Y040352D01*
X021585Y040386D02*
X021305Y040386D01*
X021339Y040420D02*
X021551Y040420D01*
X021517Y040454D02*
X021373Y040454D01*
X021407Y040488D02*
X021483Y040488D01*
X021449Y040522D02*
X021441Y040522D01*
X019777Y042194D02*
X019455Y042516D01*
X019777Y042194D02*
X019551Y041968D01*
X019229Y042290D01*
X019455Y042516D01*
X019517Y042002D02*
X019585Y042002D01*
X019619Y042036D02*
X019483Y042036D01*
X019449Y042070D02*
X019653Y042070D01*
X019687Y042104D02*
X019415Y042104D01*
X019381Y042138D02*
X019721Y042138D01*
X019755Y042172D02*
X019347Y042172D01*
X019313Y042206D02*
X019765Y042206D01*
X019731Y042240D02*
X019279Y042240D01*
X019245Y042274D02*
X019697Y042274D01*
X019663Y042308D02*
X019247Y042308D01*
X019281Y042342D02*
X019629Y042342D01*
X019595Y042376D02*
X019315Y042376D01*
X019349Y042410D02*
X019561Y042410D01*
X019527Y042444D02*
X019383Y042444D01*
X019417Y042478D02*
X019493Y042478D01*
X019459Y042512D02*
X019451Y042512D01*
X019100Y042161D02*
X019422Y041839D01*
X019196Y041613D01*
X018874Y041935D01*
X019100Y042161D01*
X019162Y041647D02*
X019230Y041647D01*
X019264Y041681D02*
X019128Y041681D01*
X019094Y041715D02*
X019298Y041715D01*
X019332Y041749D02*
X019060Y041749D01*
X019026Y041783D02*
X019366Y041783D01*
X019400Y041817D02*
X018992Y041817D01*
X018958Y041851D02*
X019410Y041851D01*
X019376Y041885D02*
X018924Y041885D01*
X018890Y041919D02*
X019342Y041919D01*
X019308Y041953D02*
X018892Y041953D01*
X018926Y041987D02*
X019274Y041987D01*
X019240Y042021D02*
X018960Y042021D01*
X018994Y042055D02*
X019206Y042055D01*
X019172Y042089D02*
X019028Y042089D01*
X019062Y042123D02*
X019138Y042123D01*
X019104Y042157D02*
X019096Y042157D01*
X018745Y041806D02*
X019067Y041484D01*
X018841Y041258D01*
X018519Y041580D01*
X018745Y041806D01*
X018807Y041292D02*
X018875Y041292D01*
X018909Y041326D02*
X018773Y041326D01*
X018739Y041360D02*
X018943Y041360D01*
X018977Y041394D02*
X018705Y041394D01*
X018671Y041428D02*
X019011Y041428D01*
X019045Y041462D02*
X018637Y041462D01*
X018603Y041496D02*
X019055Y041496D01*
X019021Y041530D02*
X018569Y041530D01*
X018535Y041564D02*
X018987Y041564D01*
X018953Y041598D02*
X018537Y041598D01*
X018571Y041632D02*
X018919Y041632D01*
X018885Y041666D02*
X018605Y041666D01*
X018639Y041700D02*
X018851Y041700D01*
X018817Y041734D02*
X018673Y041734D01*
X018707Y041768D02*
X018783Y041768D01*
X018749Y041802D02*
X018741Y041802D01*
D15*
X018988Y040218D02*
X019468Y039738D01*
X019042Y039312D01*
X018562Y039792D01*
X018988Y040218D01*
X018976Y039378D02*
X019108Y039378D01*
X019174Y039444D02*
X018910Y039444D01*
X018844Y039510D02*
X019240Y039510D01*
X019306Y039576D02*
X018778Y039576D01*
X018712Y039642D02*
X019372Y039642D01*
X019438Y039708D02*
X018646Y039708D01*
X018580Y039774D02*
X019432Y039774D01*
X019366Y039840D02*
X018610Y039840D01*
X018676Y039906D02*
X019300Y039906D01*
X019234Y039972D02*
X018742Y039972D01*
X018808Y040038D02*
X019168Y040038D01*
X019102Y040104D02*
X018874Y040104D01*
X018940Y040170D02*
X019036Y040170D01*
X021243Y042473D02*
X021723Y041993D01*
X021297Y041567D01*
X020817Y042047D01*
X021243Y042473D01*
X021231Y041633D02*
X021363Y041633D01*
X021429Y041699D02*
X021165Y041699D01*
X021099Y041765D02*
X021495Y041765D01*
X021561Y041831D02*
X021033Y041831D01*
X020967Y041897D02*
X021627Y041897D01*
X021693Y041963D02*
X020901Y041963D01*
X020835Y042029D02*
X021687Y042029D01*
X021621Y042095D02*
X020865Y042095D01*
X020931Y042161D02*
X021555Y042161D01*
X021489Y042227D02*
X020997Y042227D01*
X021063Y042293D02*
X021423Y042293D01*
X021357Y042359D02*
X021129Y042359D01*
X021195Y042425D02*
X021291Y042425D01*
M02*
