G75*
G70*
%OFA0B0*%
%FSLAX24Y24*%
%IPPOS*%
%LPD*%
%AMOC8*
5,1,8,0,0,1.08239X$1,22.5*
%
%ADD10C,0.0080*%
%ADD11C,0.0160*%
%ADD12C,0.0200*%
%ADD13C,0.0050*%
%ADD14C,0.0280*%
%ADD15C,0.0060*%
%ADD16C,0.0110*%
%ADD17C,0.0150*%
%ADD18C,0.0100*%
%ADD19R,0.0315X0.0020*%
%ADD20R,0.0394X0.0020*%
%ADD21R,0.0650X0.0020*%
%ADD22R,0.0827X0.0020*%
%ADD23R,0.0984X0.0020*%
%ADD24R,0.1102X0.0020*%
%ADD25R,0.1220X0.0020*%
%ADD26R,0.1319X0.0020*%
%ADD27R,0.1417X0.0020*%
%ADD28R,0.1496X0.0020*%
%ADD29R,0.1575X0.0020*%
%ADD30R,0.1654X0.0020*%
%ADD31R,0.1713X0.0020*%
%ADD32R,0.1772X0.0020*%
%ADD33R,0.1850X0.0020*%
%ADD34R,0.1909X0.0020*%
%ADD35R,0.1969X0.0020*%
%ADD36R,0.0787X0.0020*%
%ADD37R,0.0728X0.0020*%
%ADD38R,0.0689X0.0020*%
%ADD39R,0.0669X0.0020*%
%ADD40R,0.0630X0.0020*%
%ADD41R,0.0610X0.0020*%
%ADD42R,0.0591X0.0020*%
%ADD43R,0.0571X0.0020*%
%ADD44R,0.0551X0.0020*%
%ADD45R,0.0531X0.0020*%
%ADD46R,0.0512X0.0020*%
%ADD47R,0.0492X0.0020*%
%ADD48R,0.0472X0.0020*%
%ADD49R,0.0453X0.0020*%
%ADD50R,0.0433X0.0020*%
%ADD51R,0.0413X0.0020*%
%ADD52R,0.0374X0.0020*%
%ADD53R,0.0354X0.0020*%
%ADD54R,0.0335X0.0020*%
%ADD55R,0.0039X0.0020*%
%ADD56R,0.0197X0.0020*%
%ADD57R,0.0098X0.0020*%
%ADD58R,0.0138X0.0020*%
%ADD59R,0.0177X0.0020*%
%ADD60R,0.0236X0.0020*%
%ADD61R,0.0276X0.0020*%
%ADD62R,0.0709X0.0020*%
%ADD63R,0.0886X0.0020*%
%ADD64R,0.0925X0.0020*%
%ADD65R,0.1732X0.0020*%
%ADD66R,0.1752X0.0020*%
%ADD67R,0.1043X0.0020*%
%ADD68R,0.0965X0.0020*%
%ADD69R,0.0906X0.0020*%
%ADD70R,0.0256X0.0020*%
%ADD71R,0.0217X0.0020*%
%ADD72R,0.0157X0.0020*%
%ADD73R,0.0118X0.0020*%
%ADD74R,0.0079X0.0020*%
%ADD75R,0.0768X0.0020*%
%ADD76R,0.1929X0.0020*%
%ADD77R,0.1870X0.0020*%
%ADD78R,0.1811X0.0020*%
%ADD79R,0.1673X0.0020*%
%ADD80R,0.1614X0.0020*%
%ADD81R,0.1535X0.0020*%
%ADD82R,0.1437X0.0020*%
%ADD83R,0.1358X0.0020*%
%ADD84R,0.1260X0.0020*%
%ADD85R,0.1142X0.0020*%
%ADD86R,0.1024X0.0020*%
%ADD87R,0.0118X0.0059*%
%ADD88R,0.0118X0.0118*%
D10*
X003254Y003893D02*
X003534Y003893D01*
X003714Y003893D02*
X003854Y003893D01*
X003784Y003893D02*
X003784Y004174D01*
X003714Y004174D01*
X003784Y004314D02*
X003784Y004384D01*
X004021Y004104D02*
X004021Y003964D01*
X004091Y003893D01*
X004301Y003893D01*
X004301Y003823D02*
X004301Y004174D01*
X004091Y004174D01*
X004021Y004104D01*
X004161Y003753D02*
X004231Y003753D01*
X004301Y003823D01*
X004482Y003893D02*
X004482Y004314D01*
X004552Y004174D02*
X004692Y004174D01*
X004762Y004104D01*
X004762Y003893D01*
X005012Y003964D02*
X005082Y003893D01*
X005012Y003964D02*
X005012Y004244D01*
X004942Y004174D02*
X005082Y004174D01*
X004552Y004174D02*
X004482Y004104D01*
X004608Y004822D02*
X003395Y004822D01*
X003001Y005334D02*
X003001Y006310D01*
X003395Y006822D02*
X004608Y006822D01*
X005001Y006310D02*
X005001Y005322D01*
X003501Y005822D02*
X003503Y005866D01*
X003509Y005910D01*
X003519Y005953D01*
X003532Y005995D01*
X003549Y006036D01*
X003570Y006075D01*
X003594Y006112D01*
X003621Y006147D01*
X003651Y006179D01*
X003684Y006209D01*
X003720Y006235D01*
X003757Y006259D01*
X003797Y006278D01*
X003838Y006295D01*
X003881Y006307D01*
X003924Y006316D01*
X003968Y006321D01*
X004012Y006322D01*
X004056Y006319D01*
X004100Y006312D01*
X004143Y006301D01*
X004185Y006287D01*
X004225Y006269D01*
X004264Y006247D01*
X004300Y006223D01*
X004334Y006195D01*
X004366Y006164D01*
X004395Y006130D01*
X004421Y006094D01*
X004443Y006056D01*
X004462Y006016D01*
X004477Y005974D01*
X004489Y005932D01*
X004497Y005888D01*
X004501Y005844D01*
X004501Y005800D01*
X004497Y005756D01*
X004489Y005712D01*
X004477Y005670D01*
X004462Y005628D01*
X004443Y005588D01*
X004421Y005550D01*
X004395Y005514D01*
X004366Y005480D01*
X004334Y005449D01*
X004300Y005421D01*
X004264Y005397D01*
X004225Y005375D01*
X004185Y005357D01*
X004143Y005343D01*
X004100Y005332D01*
X004056Y005325D01*
X004012Y005322D01*
X003968Y005323D01*
X003924Y005328D01*
X003881Y005337D01*
X003838Y005349D01*
X003797Y005366D01*
X003757Y005385D01*
X003720Y005409D01*
X003684Y005435D01*
X003651Y005465D01*
X003621Y005497D01*
X003594Y005532D01*
X003570Y005569D01*
X003549Y005608D01*
X003532Y005649D01*
X003519Y005691D01*
X003509Y005734D01*
X003503Y005778D01*
X003501Y005822D01*
X003254Y004314D02*
X003254Y003893D01*
X005419Y001400D02*
X005699Y001400D01*
X005559Y001400D02*
X005559Y000980D01*
X005880Y000980D02*
X006160Y001400D01*
X005880Y001400D02*
X006160Y000980D01*
X009258Y000980D02*
X009258Y001400D01*
X009468Y001400D01*
X009538Y001330D01*
X009538Y001190D01*
X009468Y001120D01*
X009258Y001120D01*
X009398Y001120D02*
X009538Y000980D01*
X009718Y000980D02*
X009998Y001400D01*
X009718Y001400D02*
X009998Y000980D01*
X012940Y025387D02*
X013020Y025387D01*
X013100Y025467D01*
X013100Y025867D01*
X012860Y025867D01*
X012780Y025787D01*
X012780Y025627D01*
X012860Y025547D01*
X013100Y025547D01*
X013295Y025547D02*
X013295Y025867D01*
X013536Y025867D01*
X013616Y025787D01*
X013616Y025547D01*
X013811Y025627D02*
X013811Y025787D01*
X013891Y025867D01*
X014051Y025867D01*
X014131Y025787D01*
X014131Y025707D01*
X013811Y025707D01*
X013811Y025627D02*
X013891Y025547D01*
X014051Y025547D01*
X014327Y025867D02*
X014487Y025867D01*
X014407Y025947D02*
X014407Y025627D01*
X014487Y025547D01*
X014671Y025547D02*
X014831Y025547D01*
X014751Y025547D02*
X014751Y025867D01*
X014671Y025867D01*
X014751Y026027D02*
X014751Y026107D01*
X015014Y025787D02*
X015014Y025627D01*
X015094Y025547D01*
X015335Y025547D01*
X015335Y025867D02*
X015094Y025867D01*
X015014Y025787D01*
X016046Y025787D02*
X016286Y025787D01*
X016366Y025707D01*
X016366Y025627D01*
X016286Y025547D01*
X016046Y025547D01*
X016046Y026027D01*
X016286Y026027D01*
X016366Y025947D01*
X016366Y025867D01*
X016286Y025787D01*
X016561Y025787D02*
X016561Y025627D01*
X016641Y025547D01*
X016801Y025547D01*
X016881Y025627D01*
X016881Y025787D01*
X016801Y025867D01*
X016641Y025867D01*
X016561Y025787D01*
X017077Y025787D02*
X017077Y025627D01*
X017157Y025547D01*
X017317Y025547D01*
X017397Y025627D01*
X017397Y025787D01*
X017317Y025867D01*
X017157Y025867D01*
X017077Y025787D01*
X017592Y025787D02*
X017592Y025627D01*
X017673Y025547D01*
X017913Y025547D01*
X017913Y025467D02*
X017913Y025867D01*
X017673Y025867D01*
X017592Y025787D01*
X017753Y025387D02*
X017833Y025387D01*
X017913Y025467D01*
X018108Y025627D02*
X018188Y025707D01*
X018428Y025707D01*
X018428Y025787D02*
X018428Y025547D01*
X018188Y025547D01*
X018108Y025627D01*
X018188Y025867D02*
X018348Y025867D01*
X018428Y025787D01*
X018624Y025547D02*
X018784Y025547D01*
X018704Y025547D02*
X018704Y026027D01*
X018624Y026027D01*
X018968Y025787D02*
X018968Y025627D01*
X019048Y025547D01*
X019208Y025547D01*
X019288Y025627D01*
X019288Y025787D01*
X019208Y025867D01*
X019048Y025867D01*
X018968Y025787D01*
X019483Y025787D02*
X019483Y025627D01*
X019563Y025547D01*
X019723Y025547D01*
X019803Y025627D01*
X019803Y025787D01*
X019723Y025867D01*
X019563Y025867D01*
X019483Y025787D01*
X025852Y026255D02*
X025852Y026885D01*
X025858Y026903D01*
X025867Y026921D01*
X025879Y026936D01*
X025895Y026948D01*
X025912Y026957D01*
X025931Y026963D01*
X025950Y026965D01*
X025970Y026963D01*
X026319Y027594D02*
X026599Y027734D01*
X026319Y027874D01*
X026249Y028055D02*
X026179Y028125D01*
X026179Y028265D01*
X026249Y028335D01*
X026529Y028055D01*
X026599Y028125D01*
X026599Y028265D01*
X026529Y028335D01*
X026249Y028335D01*
X026249Y028055D02*
X026529Y028055D01*
X026529Y028515D02*
X026529Y028585D01*
X026599Y028585D01*
X026599Y028515D01*
X026529Y028515D01*
X026529Y028745D02*
X026599Y028815D01*
X026599Y028955D01*
X026529Y029025D01*
X026459Y029025D01*
X026389Y028955D01*
X026389Y028885D01*
X026389Y028955D02*
X026319Y029025D01*
X026249Y029025D01*
X026179Y028955D01*
X026179Y028815D01*
X026249Y028745D01*
X026249Y029206D02*
X026179Y029276D01*
X026179Y029416D01*
X026249Y029486D01*
X026319Y029486D01*
X026389Y029416D01*
X026459Y029486D01*
X026529Y029486D01*
X026599Y029416D01*
X026599Y029276D01*
X026529Y029206D01*
X026389Y029346D02*
X026389Y029416D01*
X026529Y029666D02*
X026599Y029736D01*
X026599Y029876D01*
X026529Y029946D01*
X026459Y029946D01*
X026389Y029876D01*
X026389Y029806D01*
X026389Y029876D02*
X026319Y029946D01*
X026249Y029946D01*
X026179Y029876D01*
X026179Y029736D01*
X026249Y029666D01*
X026249Y030126D02*
X026179Y030196D01*
X026179Y030337D01*
X026249Y030407D01*
X026319Y030407D01*
X026389Y030337D01*
X026459Y030407D01*
X026529Y030407D01*
X026599Y030337D01*
X026599Y030196D01*
X026529Y030126D01*
X026389Y030267D02*
X026389Y030337D01*
X026529Y030587D02*
X026599Y030657D01*
X026599Y030797D01*
X026529Y030867D01*
X026459Y030867D01*
X026389Y030797D01*
X026389Y030727D01*
X026389Y030797D02*
X026319Y030867D01*
X026249Y030867D01*
X026179Y030797D01*
X026179Y030657D01*
X026249Y030587D01*
X026249Y031047D02*
X026179Y031117D01*
X026179Y031257D01*
X026249Y031327D01*
X026319Y031327D01*
X026389Y031257D01*
X026459Y031327D01*
X026529Y031327D01*
X026599Y031257D01*
X026599Y031117D01*
X026529Y031047D01*
X026389Y031187D02*
X026389Y031257D01*
X026529Y031508D02*
X026599Y031578D01*
X026599Y031718D01*
X026529Y031788D01*
X026459Y031788D01*
X026389Y031718D01*
X026389Y031648D01*
X026389Y031718D02*
X026319Y031788D01*
X026249Y031788D01*
X026179Y031718D01*
X026179Y031578D01*
X026249Y031508D01*
X026249Y031968D02*
X026179Y032038D01*
X026179Y032178D01*
X026249Y032248D01*
X026319Y032248D01*
X026389Y032178D01*
X026459Y032248D01*
X026529Y032248D01*
X026599Y032178D01*
X026599Y032038D01*
X026529Y031968D01*
X026389Y032108D02*
X026389Y032178D01*
X026529Y032428D02*
X026599Y032498D01*
X026599Y032639D01*
X026529Y032709D01*
X026459Y032709D01*
X026389Y032639D01*
X026389Y032568D01*
X026389Y032639D02*
X026319Y032709D01*
X026249Y032709D01*
X026179Y032639D01*
X026179Y032498D01*
X026249Y032428D01*
X026249Y032889D02*
X026179Y032959D01*
X026179Y033099D01*
X026249Y033169D01*
X026319Y033169D01*
X026389Y033099D01*
X026459Y033169D01*
X026529Y033169D01*
X026599Y033099D01*
X026599Y032959D01*
X026529Y032889D01*
X026389Y033029D02*
X026389Y033099D01*
X026529Y033349D02*
X026599Y033419D01*
X026599Y033559D01*
X026529Y033629D01*
X026459Y033629D01*
X026389Y033559D01*
X026389Y033489D01*
X026389Y033559D02*
X026319Y033629D01*
X026249Y033629D01*
X026179Y033559D01*
X026179Y033419D01*
X026249Y033349D01*
X026249Y033810D02*
X026179Y033880D01*
X026179Y034020D01*
X026249Y034090D01*
X026319Y034090D01*
X026389Y034020D01*
X026459Y034090D01*
X026529Y034090D01*
X026599Y034020D01*
X026599Y033880D01*
X026529Y033810D01*
X026389Y033950D02*
X026389Y034020D01*
X026529Y034270D02*
X026599Y034340D01*
X026599Y034480D01*
X026529Y034550D01*
X026459Y034550D01*
X026389Y034480D01*
X026389Y034410D01*
X026389Y034480D02*
X026319Y034550D01*
X026249Y034550D01*
X026179Y034480D01*
X026179Y034340D01*
X026249Y034270D01*
X026249Y034730D02*
X026179Y034800D01*
X026179Y034941D01*
X026249Y035011D01*
X026319Y035011D01*
X026389Y034941D01*
X026459Y035011D01*
X026529Y035011D01*
X026599Y034941D01*
X026599Y034800D01*
X026529Y034730D01*
X026389Y034870D02*
X026389Y034941D01*
X026529Y035191D02*
X026599Y035261D01*
X026599Y035401D01*
X026529Y035471D01*
X026459Y035471D01*
X026389Y035401D01*
X026389Y035331D01*
X026389Y035401D02*
X026319Y035471D01*
X026249Y035471D01*
X026179Y035401D01*
X026179Y035261D01*
X026249Y035191D01*
X026249Y035651D02*
X026179Y035721D01*
X026179Y035861D01*
X026249Y035931D01*
X026319Y035931D01*
X026389Y035861D01*
X026459Y035931D01*
X026529Y035931D01*
X026599Y035861D01*
X026599Y035721D01*
X026529Y035651D01*
X026389Y035791D02*
X026389Y035861D01*
X026529Y036112D02*
X026599Y036182D01*
X026599Y036322D01*
X026529Y036392D01*
X026459Y036392D01*
X026389Y036322D01*
X026389Y036252D01*
X026389Y036322D02*
X026319Y036392D01*
X026249Y036392D01*
X026179Y036322D01*
X026179Y036182D01*
X026249Y036112D01*
X026249Y036572D02*
X026179Y036642D01*
X026179Y036782D01*
X026249Y036852D01*
X026319Y036852D01*
X026389Y036782D01*
X026459Y036852D01*
X026529Y036852D01*
X026599Y036782D01*
X026599Y036642D01*
X026529Y036572D01*
X026389Y036712D02*
X026389Y036782D01*
X026529Y037032D02*
X026599Y037102D01*
X026599Y037242D01*
X026529Y037313D01*
X026459Y037313D01*
X026389Y037242D01*
X026389Y037172D01*
X026389Y037242D02*
X026319Y037313D01*
X026249Y037313D01*
X026179Y037242D01*
X026179Y037102D01*
X026249Y037032D01*
X026639Y026885D02*
X026639Y026255D01*
X026634Y026239D01*
X026626Y026223D01*
X026616Y026209D01*
X026604Y026197D01*
X026589Y026187D01*
X026573Y026180D01*
X026556Y026176D01*
X026539Y026175D01*
X026521Y026177D01*
X026639Y026885D02*
X026634Y026901D01*
X026626Y026917D01*
X026616Y026931D01*
X026604Y026943D01*
X026589Y026953D01*
X026573Y026960D01*
X026556Y026964D01*
X026539Y026965D01*
X026521Y026963D01*
X025970Y026177D02*
X025950Y026175D01*
X025931Y026177D01*
X025912Y026183D01*
X025895Y026192D01*
X025879Y026204D01*
X025867Y026219D01*
X025858Y026237D01*
X025852Y026255D01*
X012584Y025787D02*
X012584Y025547D01*
X012344Y025547D01*
X012264Y025627D01*
X012344Y025707D01*
X012584Y025707D01*
X012584Y025787D02*
X012504Y025867D01*
X012344Y025867D01*
X012069Y025787D02*
X012069Y025547D01*
X011909Y025547D02*
X011909Y025787D01*
X011989Y025867D01*
X012069Y025787D01*
X011909Y025787D02*
X011829Y025867D01*
X011749Y025867D01*
X011749Y025547D01*
X011553Y025627D02*
X011553Y025787D01*
X011473Y025867D01*
X011313Y025867D01*
X011233Y025787D01*
X011233Y025627D01*
X011313Y025547D01*
X011473Y025547D01*
X011553Y025627D01*
X011043Y025867D02*
X010963Y025867D01*
X010803Y025707D01*
X010803Y025547D02*
X010803Y025867D01*
X010620Y025867D02*
X010459Y025867D01*
X010540Y025947D02*
X010540Y025627D01*
X010620Y025547D01*
X010264Y025547D02*
X010024Y025547D01*
X009944Y025627D01*
X009944Y025787D01*
X010024Y025867D01*
X010264Y025867D01*
X009748Y025787D02*
X009748Y025707D01*
X009428Y025707D01*
X009428Y025627D02*
X009428Y025787D01*
X009508Y025867D01*
X009668Y025867D01*
X009748Y025787D01*
X009668Y025547D02*
X009508Y025547D01*
X009428Y025627D01*
X009245Y025547D02*
X009084Y025547D01*
X009164Y025547D02*
X009164Y026027D01*
X009084Y026027D01*
X008889Y026027D02*
X008569Y026027D01*
X008569Y025547D01*
X008889Y025547D01*
X008729Y025787D02*
X008569Y025787D01*
X007245Y030373D02*
X006257Y030373D01*
X005757Y030767D02*
X005757Y031979D01*
X006269Y032373D02*
X007245Y032373D01*
X007757Y031979D02*
X007757Y030767D01*
X006257Y031373D02*
X006259Y031417D01*
X006265Y031461D01*
X006275Y031504D01*
X006288Y031546D01*
X006305Y031587D01*
X006326Y031626D01*
X006350Y031663D01*
X006377Y031698D01*
X006407Y031730D01*
X006440Y031760D01*
X006476Y031786D01*
X006513Y031810D01*
X006553Y031829D01*
X006594Y031846D01*
X006637Y031858D01*
X006680Y031867D01*
X006724Y031872D01*
X006768Y031873D01*
X006812Y031870D01*
X006856Y031863D01*
X006899Y031852D01*
X006941Y031838D01*
X006981Y031820D01*
X007020Y031798D01*
X007056Y031774D01*
X007090Y031746D01*
X007122Y031715D01*
X007151Y031681D01*
X007177Y031645D01*
X007199Y031607D01*
X007218Y031567D01*
X007233Y031525D01*
X007245Y031483D01*
X007253Y031439D01*
X007257Y031395D01*
X007257Y031351D01*
X007253Y031307D01*
X007245Y031263D01*
X007233Y031221D01*
X007218Y031179D01*
X007199Y031139D01*
X007177Y031101D01*
X007151Y031065D01*
X007122Y031031D01*
X007090Y031000D01*
X007056Y030972D01*
X007020Y030948D01*
X006981Y030926D01*
X006941Y030908D01*
X006899Y030894D01*
X006856Y030883D01*
X006812Y030876D01*
X006768Y030873D01*
X006724Y030874D01*
X006680Y030879D01*
X006637Y030888D01*
X006594Y030900D01*
X006553Y030917D01*
X006513Y030936D01*
X006476Y030960D01*
X006440Y030986D01*
X006407Y031016D01*
X006377Y031048D01*
X006350Y031083D01*
X006326Y031120D01*
X006305Y031159D01*
X006288Y031200D01*
X006275Y031242D01*
X006265Y031285D01*
X006259Y031329D01*
X006257Y031373D01*
X008316Y033129D02*
X008316Y034342D01*
X008828Y034735D02*
X009804Y034735D01*
X010316Y034342D02*
X010316Y033129D01*
X009804Y032735D02*
X008816Y032735D01*
X008816Y033735D02*
X008818Y033779D01*
X008824Y033823D01*
X008834Y033866D01*
X008847Y033908D01*
X008864Y033949D01*
X008885Y033988D01*
X008909Y034025D01*
X008936Y034060D01*
X008966Y034092D01*
X008999Y034122D01*
X009035Y034148D01*
X009072Y034172D01*
X009112Y034191D01*
X009153Y034208D01*
X009196Y034220D01*
X009239Y034229D01*
X009283Y034234D01*
X009327Y034235D01*
X009371Y034232D01*
X009415Y034225D01*
X009458Y034214D01*
X009500Y034200D01*
X009540Y034182D01*
X009579Y034160D01*
X009615Y034136D01*
X009649Y034108D01*
X009681Y034077D01*
X009710Y034043D01*
X009736Y034007D01*
X009758Y033969D01*
X009777Y033929D01*
X009792Y033887D01*
X009804Y033845D01*
X009812Y033801D01*
X009816Y033757D01*
X009816Y033713D01*
X009812Y033669D01*
X009804Y033625D01*
X009792Y033583D01*
X009777Y033541D01*
X009758Y033501D01*
X009736Y033463D01*
X009710Y033427D01*
X009681Y033393D01*
X009649Y033362D01*
X009615Y033334D01*
X009579Y033310D01*
X009540Y033288D01*
X009500Y033270D01*
X009458Y033256D01*
X009415Y033245D01*
X009371Y033238D01*
X009327Y033235D01*
X009283Y033236D01*
X009239Y033241D01*
X009196Y033250D01*
X009153Y033262D01*
X009112Y033279D01*
X009072Y033298D01*
X009035Y033322D01*
X008999Y033348D01*
X008966Y033378D01*
X008936Y033410D01*
X008909Y033445D01*
X008885Y033482D01*
X008864Y033521D01*
X008847Y033562D01*
X008834Y033604D01*
X008824Y033647D01*
X008818Y033691D01*
X008816Y033735D01*
D11*
X017387Y033775D02*
X017781Y033381D01*
X017781Y034168D01*
X017387Y033775D01*
X017443Y033830D02*
X017781Y033830D01*
X017781Y033672D02*
X017490Y033672D01*
X017648Y033513D02*
X017781Y033513D01*
X017781Y033989D02*
X017601Y033989D01*
X017760Y034147D02*
X017781Y034147D01*
X019749Y036137D02*
X020537Y036137D01*
X020143Y036531D01*
X019749Y036137D01*
X019820Y036208D02*
X020466Y036208D01*
X020307Y036366D02*
X019979Y036366D01*
X020137Y036525D02*
X020149Y036525D01*
X022505Y034168D02*
X022505Y033381D01*
X022899Y033775D01*
X022505Y034168D01*
X022505Y034147D02*
X022526Y034147D01*
X022505Y033989D02*
X022685Y033989D01*
X022843Y033830D02*
X022505Y033830D01*
X022505Y033672D02*
X022796Y033672D01*
X022638Y033513D02*
X022505Y033513D01*
X020537Y031413D02*
X019749Y031413D01*
X020143Y031019D01*
X020537Y031413D01*
X020419Y031294D02*
X019867Y031294D01*
X020026Y031136D02*
X020260Y031136D01*
D12*
X009610Y036024D02*
X009210Y036024D01*
X009076Y036157D01*
X009076Y036291D01*
X009210Y036424D01*
X009610Y036424D01*
X009610Y036824D02*
X009610Y036024D01*
X009210Y036424D02*
X009076Y036557D01*
X009076Y036691D01*
X009210Y036824D01*
X009610Y036824D01*
X007051Y034462D02*
X007051Y033928D01*
X006784Y033661D01*
X006517Y033928D01*
X006517Y034462D01*
X006517Y034062D02*
X007051Y034062D01*
D13*
X007879Y033605D02*
X007879Y033425D01*
X008014Y033425D01*
X007969Y033515D01*
X007969Y033560D01*
X008014Y033605D01*
X008104Y033605D01*
X008149Y033560D01*
X008149Y033470D01*
X008104Y033425D01*
X008104Y033311D02*
X008149Y033266D01*
X008149Y033175D01*
X008104Y033130D01*
X008014Y033175D02*
X008014Y033266D01*
X008059Y033311D01*
X008104Y033311D01*
X008014Y033175D02*
X007969Y033130D01*
X007924Y033130D01*
X007879Y033175D01*
X007879Y033266D01*
X007924Y033311D01*
X007269Y032554D02*
X007111Y032554D01*
X007348Y031924D02*
X007348Y030783D01*
X007269Y030153D02*
X007111Y030153D01*
X006403Y030153D02*
X006245Y030153D01*
X006313Y029963D02*
X006358Y029918D01*
X006358Y029828D01*
X006313Y029783D01*
X006133Y029963D01*
X006313Y029963D01*
X006133Y029963D02*
X006088Y029918D01*
X006088Y029828D01*
X006133Y029783D01*
X006313Y029783D01*
X006358Y029668D02*
X006358Y029488D01*
X006358Y029578D02*
X006088Y029578D01*
X006178Y029488D01*
X006133Y029374D02*
X006088Y029329D01*
X006088Y029238D01*
X006133Y029193D01*
X006178Y029193D01*
X006223Y029238D01*
X006223Y029329D01*
X006268Y029374D01*
X006313Y029374D01*
X006358Y029329D01*
X006358Y029238D01*
X006313Y029193D01*
X005783Y028302D02*
X005615Y028302D01*
X005615Y027121D01*
X005783Y027121D01*
X005537Y026885D02*
X005537Y001688D01*
X023568Y001688D01*
X023568Y005822D01*
X023174Y005822D01*
X023174Y007397D01*
X023174Y008972D02*
X023174Y019601D01*
X023174Y021176D02*
X023174Y022751D01*
X023568Y022751D01*
X023568Y026885D01*
X005537Y026885D01*
X005489Y030099D02*
X005444Y030099D01*
X005399Y030144D01*
X005399Y030234D01*
X005444Y030279D01*
X005534Y030234D02*
X005534Y030144D01*
X005489Y030099D01*
X005624Y030099D02*
X005669Y030144D01*
X005669Y030234D01*
X005624Y030279D01*
X005579Y030279D01*
X005534Y030234D01*
X005534Y030394D02*
X005534Y030529D01*
X005579Y030574D01*
X005624Y030574D01*
X005669Y030529D01*
X005669Y030439D01*
X005624Y030394D01*
X005534Y030394D01*
X005444Y030484D01*
X005399Y030574D01*
X006167Y030783D02*
X006167Y031924D01*
X006245Y032554D02*
X006403Y032554D01*
X008667Y032182D02*
X008667Y032092D01*
X008712Y032047D01*
X008757Y032047D01*
X008802Y032092D01*
X008802Y032227D01*
X008892Y032227D02*
X008712Y032227D01*
X008667Y032182D01*
X008892Y032227D02*
X008937Y032182D01*
X008937Y032092D01*
X008892Y032047D01*
X008892Y031933D02*
X008937Y031888D01*
X008937Y031798D01*
X008892Y031752D01*
X008802Y031798D02*
X008802Y031888D01*
X008847Y031933D01*
X008892Y031933D01*
X008802Y031798D02*
X008757Y031752D01*
X008712Y031752D01*
X008667Y031798D01*
X008667Y031888D01*
X008712Y031933D01*
X008804Y032554D02*
X008962Y032554D01*
X008726Y033184D02*
X008726Y034326D01*
X008804Y034956D02*
X008962Y034956D01*
X009671Y034956D02*
X009828Y034956D01*
X009907Y034326D02*
X009907Y033184D01*
X009828Y032554D02*
X009671Y032554D01*
X008937Y028328D02*
X008667Y028148D01*
X008712Y028033D02*
X008802Y028033D01*
X008847Y027988D01*
X008847Y027853D01*
X008937Y027853D02*
X008667Y027853D01*
X008667Y027988D01*
X008712Y028033D01*
X008847Y027943D02*
X008937Y028033D01*
X008937Y028148D02*
X008667Y028328D01*
X008293Y028302D02*
X008293Y028145D01*
X008293Y027948D01*
X008293Y027476D01*
X008293Y027279D01*
X008293Y027121D01*
X008125Y027121D01*
X008667Y027112D02*
X008937Y027112D01*
X008937Y027067D02*
X008937Y027158D01*
X008937Y027264D02*
X008667Y027264D01*
X008667Y027399D01*
X008712Y027444D01*
X008802Y027444D01*
X008847Y027399D01*
X008847Y027264D01*
X008847Y027354D02*
X008937Y027444D01*
X008982Y027559D02*
X008982Y027739D01*
X008667Y027158D02*
X008667Y027067D01*
X008293Y028302D02*
X008125Y028302D01*
X013490Y034326D02*
X013492Y034338D01*
X013497Y034349D01*
X013506Y034358D01*
X013517Y034363D01*
X013529Y034365D01*
X013541Y034363D01*
X013552Y034358D01*
X013561Y034349D01*
X013566Y034338D01*
X013568Y034326D01*
X013566Y034314D01*
X013561Y034303D01*
X013552Y034294D01*
X013541Y034289D01*
X013529Y034287D01*
X013517Y034289D01*
X013506Y034294D01*
X013497Y034303D01*
X013492Y034314D01*
X013490Y034326D01*
X014178Y034327D02*
X014178Y034192D01*
X014449Y034192D01*
X014449Y034327D01*
X014404Y034372D01*
X014223Y034372D01*
X014178Y034327D01*
X014223Y034487D02*
X014178Y034532D01*
X014178Y034622D01*
X014223Y034667D01*
X014269Y034667D01*
X014449Y034487D01*
X014449Y034667D01*
X014769Y034577D02*
X014859Y034487D01*
X014814Y034372D02*
X014769Y034327D01*
X014769Y034192D01*
X015039Y034192D01*
X015039Y034327D01*
X014994Y034372D01*
X014814Y034372D01*
X014769Y034577D02*
X015039Y034577D01*
X015039Y034487D02*
X015039Y034667D01*
X015039Y034078D02*
X015039Y033898D01*
X014769Y033898D01*
X014769Y034078D01*
X014904Y033988D02*
X014904Y033898D01*
X015039Y033783D02*
X015039Y033603D01*
X014769Y033603D01*
X014449Y033603D02*
X014449Y033783D01*
X014449Y033898D02*
X014449Y034078D01*
X014314Y033988D02*
X014314Y033898D01*
X014449Y033898D02*
X014178Y033898D01*
X014178Y034078D01*
X014178Y033603D02*
X014449Y033603D01*
X015852Y034326D02*
X015854Y034338D01*
X015859Y034349D01*
X015868Y034358D01*
X015879Y034363D01*
X015891Y034365D01*
X015903Y034363D01*
X015914Y034358D01*
X015923Y034349D01*
X015928Y034338D01*
X015930Y034326D01*
X015928Y034314D01*
X015923Y034303D01*
X015914Y034294D01*
X015903Y034289D01*
X015891Y034287D01*
X015879Y034289D01*
X015868Y034294D01*
X015859Y034303D01*
X015854Y034314D01*
X015852Y034326D01*
X016898Y033761D02*
X016962Y033825D01*
X017026Y033825D01*
X017121Y033730D01*
X017185Y033793D02*
X016994Y033602D01*
X016898Y033698D01*
X016898Y033761D01*
X017170Y033617D02*
X017011Y033458D01*
X017139Y033330D02*
X017298Y033489D01*
X017298Y033553D01*
X017234Y033617D01*
X017170Y033617D01*
X017555Y033168D02*
X017683Y033041D01*
X017714Y033073D02*
X017651Y033009D01*
X017587Y033009D01*
X017523Y033073D01*
X017523Y033136D01*
X017555Y033168D01*
X017651Y033200D02*
X017714Y033136D01*
X017714Y033073D01*
X017824Y033026D02*
X017856Y032867D01*
X017697Y032899D01*
X017729Y032740D02*
X017920Y032931D01*
X018001Y032850D02*
X018096Y032754D01*
X018096Y032691D01*
X018033Y032691D01*
X017937Y032786D01*
X017905Y032754D02*
X018001Y032850D01*
X017905Y032754D02*
X017905Y032691D01*
X017969Y032627D01*
X018018Y032451D02*
X018209Y032642D01*
X018209Y032514D01*
X018337Y032514D01*
X018146Y032323D01*
X018530Y032129D02*
X018530Y032066D01*
X018594Y032002D01*
X018658Y032002D01*
X018721Y032066D01*
X018721Y032129D01*
X018658Y032193D01*
X018594Y032193D01*
X018530Y032129D01*
X018701Y031895D02*
X018765Y031831D01*
X018701Y031831D02*
X018829Y031959D01*
X018829Y032022D01*
X019150Y031637D02*
X019150Y031574D01*
X019213Y031510D01*
X019213Y031446D01*
X019150Y031446D01*
X019054Y031542D01*
X019150Y031637D02*
X019213Y031637D01*
X019309Y031542D01*
X019358Y031429D02*
X019358Y031365D01*
X019422Y031302D01*
X019422Y031238D01*
X019358Y031238D01*
X019263Y031334D01*
X019358Y031429D02*
X019422Y031429D01*
X019517Y031334D01*
X019535Y031189D02*
X019662Y031062D01*
X019694Y031093D02*
X019630Y031030D01*
X019566Y031030D01*
X019503Y031093D01*
X019503Y031157D01*
X019535Y031189D01*
X019630Y031221D02*
X019694Y031157D01*
X019694Y031093D01*
X019676Y030920D02*
X019708Y030888D01*
X019836Y030888D01*
X019899Y030952D02*
X019772Y030824D01*
X019821Y030711D02*
X019821Y030648D01*
X019917Y030552D01*
X020108Y030743D01*
X020044Y030680D02*
X019948Y030775D01*
X019885Y030775D01*
X019821Y030711D01*
X018167Y034787D02*
X018103Y034787D01*
X018167Y034787D02*
X018231Y034850D01*
X018231Y034914D01*
X018199Y034946D01*
X018135Y034946D01*
X018071Y034882D01*
X018008Y034882D01*
X017976Y034914D01*
X017976Y034978D01*
X018040Y035042D01*
X018103Y035042D01*
X018152Y035154D02*
X018280Y035282D01*
X018312Y035250D01*
X018312Y034995D01*
X018343Y034963D01*
X002834Y005810D02*
X002834Y005630D01*
X002834Y005720D02*
X002564Y005720D01*
X002654Y005630D01*
X002609Y005515D02*
X002564Y005470D01*
X002564Y005380D01*
X002609Y005335D01*
X002654Y005335D01*
X002699Y005380D01*
X002699Y005470D01*
X002744Y005515D01*
X002789Y005515D01*
X002834Y005470D01*
X002834Y005380D01*
X002789Y005335D01*
X025615Y004548D02*
X025886Y004368D01*
X025886Y004548D02*
X025615Y004368D01*
X025615Y004254D02*
X025615Y004074D01*
X025615Y004164D02*
X025886Y004164D01*
X025931Y003959D02*
X025931Y003779D01*
X025886Y003664D02*
X025796Y003574D01*
X025796Y003619D02*
X025796Y003484D01*
X025886Y003484D02*
X025615Y003484D01*
X025615Y003619D01*
X025660Y003664D01*
X025751Y003664D01*
X025796Y003619D01*
X025886Y003378D02*
X025886Y003288D01*
X025886Y003333D02*
X025615Y003333D01*
X025615Y003288D02*
X025615Y003378D01*
D14*
X024810Y027301D02*
X024810Y028033D01*
X024810Y027667D02*
X025908Y027667D01*
X025908Y028569D02*
X025908Y028936D01*
X025908Y028752D02*
X025176Y028752D01*
X025176Y028569D01*
X024810Y028752D02*
X024626Y028752D01*
X024810Y029415D02*
X025908Y029415D01*
X025908Y030148D01*
X025908Y030684D02*
X025908Y031233D01*
X025725Y031417D01*
X024993Y031417D01*
X024810Y031233D01*
X024810Y030684D01*
X025908Y030684D01*
X025908Y031953D02*
X025176Y031953D01*
X024810Y032319D01*
X025176Y032685D01*
X025908Y032685D01*
X025359Y032685D02*
X025359Y031953D01*
D15*
X025400Y027012D02*
X025344Y026956D01*
X025344Y026842D01*
X025400Y026785D01*
X025457Y026785D01*
X025514Y026842D01*
X025514Y027012D01*
X025627Y027012D02*
X025400Y027012D01*
X025627Y027012D02*
X025684Y026956D01*
X025684Y026842D01*
X025627Y026785D01*
X025627Y026587D02*
X025344Y026587D01*
X025344Y026531D02*
X025344Y026644D01*
X025627Y026587D02*
X025684Y026531D01*
X025684Y026474D01*
X025627Y026417D01*
X025627Y026276D02*
X025684Y026219D01*
X025684Y026106D01*
X025627Y026049D01*
X025514Y026106D02*
X025514Y026219D01*
X025570Y026276D01*
X025627Y026276D01*
X025514Y026106D02*
X025457Y026049D01*
X025400Y026049D01*
X025344Y026106D01*
X025344Y026219D01*
X025400Y026276D01*
D16*
X025343Y033082D02*
X025560Y033299D01*
X025343Y033515D01*
X025993Y033515D01*
X025993Y033781D02*
X025343Y033781D01*
X025668Y033890D02*
X025993Y034215D01*
X025885Y034481D02*
X025668Y034481D01*
X025560Y034590D01*
X025560Y034807D01*
X025668Y034915D01*
X025777Y034915D01*
X025777Y034481D01*
X025885Y034481D02*
X025993Y034590D01*
X025993Y034807D01*
X025343Y034215D02*
X025777Y033781D01*
X025993Y033082D02*
X025343Y033082D01*
X020006Y025011D02*
X020006Y024903D01*
X019897Y024903D01*
X019897Y025011D01*
X020006Y025011D01*
X020006Y024686D02*
X020006Y024578D01*
X019897Y024578D01*
X019897Y024686D01*
X020006Y024686D01*
X019631Y024578D02*
X019306Y024578D01*
X019197Y024686D01*
X019197Y025011D01*
X018931Y024903D02*
X018823Y025011D01*
X018498Y025011D01*
X018498Y025228D02*
X018498Y024578D01*
X018823Y024578D01*
X018931Y024686D01*
X018931Y024903D01*
X019414Y024361D02*
X019523Y024361D01*
X019631Y024469D01*
X019631Y025011D01*
X017532Y025011D02*
X017532Y024578D01*
X017206Y024578D01*
X017098Y024686D01*
X017098Y025011D01*
X016832Y024903D02*
X016723Y025011D01*
X016507Y025011D01*
X016398Y024903D01*
X016398Y024686D01*
X016507Y024578D01*
X016723Y024578D01*
X016832Y024686D01*
X016832Y024903D01*
X016132Y025011D02*
X016132Y024469D01*
X016024Y024361D01*
X015915Y024361D01*
X015807Y024578D02*
X015698Y024686D01*
X015698Y025011D01*
X015807Y024578D02*
X016132Y024578D01*
X014733Y024686D02*
X014733Y024903D01*
X014624Y025011D01*
X014407Y025011D01*
X014299Y024903D01*
X014299Y024686D01*
X014407Y024578D01*
X014624Y024578D01*
X014733Y024686D01*
X014049Y024578D02*
X013941Y024686D01*
X013941Y025120D01*
X014049Y025011D02*
X013832Y025011D01*
X012883Y025011D02*
X012666Y025011D01*
X012774Y025120D02*
X012774Y024686D01*
X012883Y024578D01*
X012549Y024244D02*
X012549Y023594D01*
X012549Y023810D02*
X012875Y024027D01*
X012549Y023810D02*
X012875Y023594D01*
X012774Y023260D02*
X012991Y023260D01*
X013100Y023151D01*
X013100Y023043D01*
X012991Y022935D01*
X013100Y022826D01*
X013100Y022718D01*
X012991Y022609D01*
X012774Y022609D01*
X012666Y022718D01*
X012416Y022609D02*
X012199Y022609D01*
X012308Y022609D02*
X012308Y023260D01*
X012199Y023260D01*
X012175Y023594D02*
X012283Y023702D01*
X012283Y024027D01*
X012066Y023702D02*
X011958Y023594D01*
X011850Y023702D01*
X011850Y024027D01*
X012066Y023702D02*
X012175Y023594D01*
X011942Y023043D02*
X011616Y022826D01*
X011942Y022609D01*
X011616Y022609D02*
X011616Y023260D01*
X011600Y023594D02*
X011383Y023594D01*
X011491Y023594D02*
X011491Y024244D01*
X011383Y024244D01*
X011483Y024361D02*
X011592Y024361D01*
X011700Y024469D01*
X011700Y025011D01*
X011375Y025011D01*
X011266Y024903D01*
X011266Y024686D01*
X011375Y024578D01*
X011700Y024578D01*
X011966Y024578D02*
X011966Y025228D01*
X012075Y025011D02*
X011966Y024903D01*
X012075Y025011D02*
X012291Y025011D01*
X012400Y024903D01*
X012400Y024578D01*
X012774Y023260D02*
X012666Y023151D01*
X012883Y022935D02*
X012991Y022935D01*
X013366Y023151D02*
X013474Y023260D01*
X013691Y023260D01*
X013799Y023151D01*
X013799Y023043D01*
X013691Y022935D01*
X013799Y022826D01*
X013799Y022718D01*
X013691Y022609D01*
X013474Y022609D01*
X013366Y022718D01*
X013583Y022935D02*
X013691Y022935D01*
X014066Y023043D02*
X014282Y023043D01*
X014174Y023151D02*
X014174Y022718D01*
X014282Y022609D01*
X014149Y022059D02*
X014149Y021733D01*
X014041Y021625D01*
X013932Y021733D01*
X013824Y021625D01*
X013716Y021733D01*
X013716Y022059D01*
X013450Y021950D02*
X013450Y021842D01*
X013016Y021842D01*
X013016Y021950D02*
X013124Y022059D01*
X013341Y022059D01*
X013450Y021950D01*
X013341Y021625D02*
X013124Y021625D01*
X013016Y021733D01*
X013016Y021950D01*
X012766Y022059D02*
X012549Y022059D01*
X012658Y022167D02*
X012658Y021733D01*
X012766Y021625D01*
X012283Y021733D02*
X012175Y021842D01*
X011958Y021842D01*
X011850Y021950D01*
X011958Y022059D01*
X012283Y022059D01*
X012283Y021733D02*
X012175Y021625D01*
X011850Y021625D01*
X011592Y021625D02*
X011266Y021842D01*
X011592Y022059D01*
X011266Y022276D02*
X011266Y021625D01*
X011008Y022059D02*
X010900Y022059D01*
X010683Y021842D01*
X010683Y021625D02*
X010683Y022059D01*
X010417Y021950D02*
X010417Y021625D01*
X010092Y021625D01*
X009983Y021733D01*
X010092Y021842D01*
X010417Y021842D01*
X010417Y021950D02*
X010309Y022059D01*
X010092Y022059D01*
X009983Y021291D02*
X009983Y020641D01*
X009717Y020749D02*
X009609Y020641D01*
X009392Y020641D01*
X009284Y020749D01*
X009284Y021183D01*
X009392Y021291D01*
X009609Y021291D01*
X009717Y021183D01*
X009983Y020966D02*
X010092Y021074D01*
X010309Y021074D01*
X010417Y020966D01*
X010417Y020641D01*
X010683Y020749D02*
X010792Y020858D01*
X011117Y020858D01*
X011117Y020966D02*
X011117Y020641D01*
X010792Y020641D01*
X010683Y020749D01*
X010792Y021074D02*
X011008Y021074D01*
X011117Y020966D01*
X011383Y020858D02*
X011600Y021074D01*
X011708Y021074D01*
X011383Y021074D02*
X011383Y020641D01*
X011258Y020199D02*
X011258Y019765D01*
X011367Y019656D01*
X011616Y019765D02*
X011725Y019656D01*
X012050Y019656D01*
X012050Y019548D02*
X011942Y019440D01*
X011833Y019440D01*
X012050Y019548D02*
X012050Y020090D01*
X011616Y020090D02*
X011616Y019765D01*
X011367Y020090D02*
X011150Y020090D01*
X010884Y019982D02*
X010884Y019656D01*
X010884Y019982D02*
X010775Y020090D01*
X010450Y020090D01*
X010450Y019656D01*
X010184Y019765D02*
X010184Y019982D01*
X010075Y020090D01*
X009859Y020090D01*
X009750Y019982D01*
X009750Y019765D01*
X009859Y019656D01*
X010075Y019656D01*
X010184Y019765D01*
X009717Y019323D02*
X009717Y018672D01*
X009392Y018672D01*
X009284Y018781D01*
X009284Y018998D01*
X009392Y019106D01*
X009717Y019106D01*
X009983Y019106D02*
X009983Y018672D01*
X009983Y018889D02*
X010200Y019106D01*
X010309Y019106D01*
X010567Y019106D02*
X010567Y018672D01*
X010567Y018889D02*
X010783Y019106D01*
X010892Y019106D01*
X011150Y019323D02*
X011150Y018672D01*
X011150Y018889D02*
X011475Y019106D01*
X011150Y018889D02*
X011475Y018672D01*
X011375Y018122D02*
X011592Y018122D01*
X011700Y018013D01*
X011700Y017905D01*
X011266Y017905D01*
X011266Y018013D02*
X011375Y018122D01*
X011266Y018013D02*
X011266Y017796D01*
X011375Y017688D01*
X011592Y017688D01*
X011966Y017688D02*
X011966Y018339D01*
X012291Y018122D02*
X011966Y017905D01*
X012291Y017688D01*
X012766Y017688D02*
X012549Y018122D01*
X012983Y018122D02*
X012766Y017688D01*
X013132Y017354D02*
X013132Y016704D01*
X012866Y016704D02*
X012541Y016704D01*
X012433Y016812D01*
X012433Y017029D01*
X012541Y017137D01*
X012866Y017137D01*
X013132Y017029D02*
X013241Y017137D01*
X013458Y017137D01*
X013566Y017029D01*
X013566Y016704D01*
X013100Y016153D02*
X012774Y016153D01*
X012666Y016045D01*
X012774Y015936D01*
X012991Y015936D01*
X013100Y015828D01*
X012991Y015719D01*
X012666Y015719D01*
X012400Y015828D02*
X012291Y015936D01*
X012075Y015936D01*
X011966Y016045D01*
X012075Y016153D01*
X012400Y016153D01*
X012400Y015828D02*
X012291Y015719D01*
X011966Y015719D01*
X011700Y015828D02*
X011592Y015936D01*
X011375Y015936D01*
X011266Y016045D01*
X011375Y016153D01*
X011700Y016153D01*
X011700Y015828D02*
X011592Y015719D01*
X011266Y015719D01*
X011000Y015828D02*
X010892Y015936D01*
X010675Y015936D01*
X010567Y016045D01*
X010675Y016153D01*
X011000Y016153D01*
X011000Y015828D02*
X010892Y015719D01*
X010567Y015719D01*
X010300Y015719D02*
X010300Y016153D01*
X009867Y016153D02*
X009867Y015828D01*
X009975Y015719D01*
X010300Y015719D01*
X010309Y015169D02*
X010417Y015061D01*
X010417Y014735D01*
X010200Y014735D02*
X010200Y015061D01*
X010309Y015169D01*
X010200Y015061D02*
X010092Y015169D01*
X009983Y015169D01*
X009983Y014735D01*
X009717Y014735D02*
X009392Y014735D01*
X009284Y014844D01*
X009284Y015061D01*
X009392Y015169D01*
X009717Y015169D01*
X009717Y014627D01*
X009609Y014518D01*
X009500Y014518D01*
X009017Y014844D02*
X008909Y014735D01*
X008692Y014735D01*
X008584Y014844D01*
X008584Y015277D01*
X008692Y015386D01*
X008909Y015386D01*
X009017Y015277D01*
X009017Y015061D01*
X008909Y014952D01*
X008909Y015169D01*
X008692Y015169D01*
X008692Y014952D01*
X008909Y014952D01*
X008909Y015719D02*
X008692Y015719D01*
X008584Y015828D01*
X008584Y016262D01*
X008692Y016370D01*
X008909Y016370D01*
X009017Y016262D01*
X009017Y016045D01*
X008909Y015936D01*
X008909Y016153D01*
X008692Y016153D01*
X008692Y015936D01*
X008909Y015936D01*
X009017Y015828D02*
X008909Y015719D01*
X009284Y015719D02*
X009284Y016153D01*
X009500Y016153D02*
X009284Y015936D01*
X009500Y016153D02*
X009609Y016153D01*
X009609Y016704D02*
X009284Y016704D01*
X009392Y016921D02*
X009284Y017029D01*
X009392Y017137D01*
X009717Y017137D01*
X009609Y016921D02*
X009392Y016921D01*
X009609Y016921D02*
X009717Y016812D01*
X009609Y016704D01*
X009983Y016704D02*
X009983Y017137D01*
X009983Y016921D02*
X010200Y017137D01*
X010309Y017137D01*
X010567Y017137D02*
X010675Y017137D01*
X010675Y016704D01*
X010567Y016704D02*
X010783Y016704D01*
X011033Y016704D02*
X011033Y017137D01*
X011142Y017137D01*
X011250Y017029D01*
X011358Y017137D01*
X011467Y017029D01*
X011467Y016704D01*
X011250Y016704D02*
X011250Y017029D01*
X011733Y017029D02*
X011841Y017137D01*
X012058Y017137D01*
X012167Y017029D01*
X012167Y016921D01*
X011733Y016921D01*
X011733Y017029D02*
X011733Y016812D01*
X011841Y016704D01*
X012058Y016704D01*
X011958Y015169D02*
X011850Y015061D01*
X011850Y014844D01*
X011958Y014735D01*
X012175Y014735D01*
X012283Y014844D01*
X012283Y015061D01*
X012175Y015169D01*
X011958Y015169D01*
X011583Y015061D02*
X011583Y014735D01*
X011583Y015061D02*
X011475Y015169D01*
X011258Y015169D01*
X011150Y015061D01*
X010900Y015169D02*
X010900Y014627D01*
X010792Y014518D01*
X010683Y014518D01*
X011150Y014735D02*
X011150Y015386D01*
X010900Y015386D02*
X010900Y015494D01*
X010675Y017354D02*
X010675Y017463D01*
X010683Y017688D02*
X010683Y018122D01*
X010900Y018122D02*
X011008Y018122D01*
X010900Y018122D02*
X010683Y017905D01*
X010417Y017905D02*
X010092Y017905D01*
X009983Y017796D01*
X010092Y017688D01*
X010417Y017688D01*
X010417Y018013D01*
X010309Y018122D01*
X010092Y018122D01*
X009717Y018013D02*
X009717Y017688D01*
X009500Y017688D02*
X009500Y018013D01*
X009609Y018122D01*
X009717Y018013D01*
X009500Y018013D02*
X009392Y018122D01*
X009284Y018122D01*
X009284Y017688D01*
X009017Y017796D02*
X008909Y017688D01*
X008692Y017688D01*
X008584Y017796D01*
X008584Y018230D01*
X008692Y018339D01*
X008909Y018339D01*
X009017Y018230D01*
X009017Y018013D01*
X008909Y017905D01*
X008909Y018122D01*
X008692Y018122D01*
X008692Y017905D01*
X008909Y017905D01*
X008909Y017354D02*
X008692Y017354D01*
X008584Y017246D01*
X008584Y016812D01*
X008692Y016704D01*
X008909Y016704D01*
X009017Y016812D01*
X008909Y016921D02*
X008909Y017137D01*
X008692Y017137D01*
X008692Y016921D01*
X008909Y016921D01*
X009017Y017029D01*
X009017Y017246D01*
X008909Y017354D01*
X008909Y018672D02*
X008692Y018672D01*
X008584Y018781D01*
X008584Y019214D01*
X008692Y019323D01*
X008909Y019323D01*
X009017Y019214D01*
X009017Y018998D01*
X008909Y018889D01*
X008909Y019106D01*
X008692Y019106D01*
X008692Y018889D01*
X008909Y018889D01*
X009017Y018781D02*
X008909Y018672D01*
X009284Y019440D02*
X009392Y019440D01*
X009500Y019548D01*
X009500Y020090D01*
X009500Y020307D02*
X009500Y020415D01*
X009017Y020199D02*
X009017Y019982D01*
X008909Y019873D01*
X008909Y020090D01*
X008692Y020090D01*
X008692Y019873D01*
X008909Y019873D01*
X009017Y019765D02*
X008909Y019656D01*
X008692Y019656D01*
X008584Y019765D01*
X008584Y020199D01*
X008692Y020307D01*
X008909Y020307D01*
X009017Y020199D01*
X008909Y020641D02*
X008692Y020641D01*
X008584Y020749D01*
X008584Y021183D01*
X008692Y021291D01*
X008909Y021291D01*
X009017Y021183D01*
X009017Y020966D01*
X008909Y020858D01*
X008909Y021074D01*
X008692Y021074D01*
X008692Y020858D01*
X008909Y020858D01*
X009017Y020749D02*
X008909Y020641D01*
X008909Y021625D02*
X008692Y021625D01*
X008584Y021733D01*
X008584Y022167D01*
X008692Y022276D01*
X008909Y022276D01*
X009017Y022167D01*
X009017Y021950D01*
X008909Y021842D01*
X008909Y022059D01*
X008692Y022059D01*
X008692Y021842D01*
X008909Y021842D01*
X009017Y021733D02*
X008909Y021625D01*
X009284Y021625D02*
X009284Y022059D01*
X009392Y022059D01*
X009500Y021950D01*
X009609Y022059D01*
X009717Y021950D01*
X009717Y021625D01*
X009500Y021625D02*
X009500Y021950D01*
X009500Y022609D02*
X009392Y022718D01*
X009392Y023151D01*
X009284Y023043D02*
X009500Y023043D01*
X009750Y022935D02*
X009859Y023043D01*
X010075Y023043D01*
X010184Y022935D01*
X010184Y022609D01*
X010450Y022609D02*
X010667Y022609D01*
X010558Y022609D02*
X010558Y023043D01*
X010450Y023043D01*
X010558Y023260D02*
X010558Y023368D01*
X010683Y023594D02*
X011008Y023594D01*
X011117Y023702D01*
X011008Y023810D01*
X010792Y023810D01*
X010683Y023919D01*
X010792Y024027D01*
X011117Y024027D01*
X011000Y024578D02*
X010675Y024578D01*
X010567Y024686D01*
X010567Y025011D01*
X010300Y024903D02*
X010192Y025011D01*
X009975Y025011D01*
X009867Y024903D01*
X009867Y024686D01*
X009975Y024578D01*
X010192Y024578D01*
X010300Y024686D01*
X010300Y024903D01*
X010309Y024027D02*
X009983Y024027D01*
X009983Y023377D01*
X009983Y023594D02*
X010309Y023594D01*
X010417Y023702D01*
X010417Y023919D01*
X010309Y024027D01*
X009717Y024027D02*
X009392Y024027D01*
X009284Y023919D01*
X009284Y023702D01*
X009392Y023594D01*
X009717Y023594D01*
X009717Y024244D01*
X009284Y024578D02*
X009284Y025011D01*
X009284Y024795D02*
X009500Y025011D01*
X009609Y025011D01*
X009017Y025011D02*
X008909Y024903D01*
X008584Y024903D01*
X008584Y024578D02*
X008909Y024578D01*
X009017Y024686D01*
X009017Y024795D01*
X008909Y024903D01*
X009017Y025011D02*
X009017Y025120D01*
X008909Y025228D01*
X008584Y025228D01*
X008584Y024578D01*
X008692Y024244D02*
X008584Y024136D01*
X008584Y023702D01*
X008692Y023594D01*
X008909Y023594D01*
X009017Y023702D01*
X008909Y023810D02*
X008909Y024027D01*
X008692Y024027D01*
X008692Y023810D01*
X008909Y023810D01*
X009017Y023919D01*
X009017Y024136D01*
X008909Y024244D01*
X008692Y024244D01*
X008692Y023260D02*
X008584Y023151D01*
X008584Y022718D01*
X008692Y022609D01*
X008909Y022609D01*
X009017Y022718D01*
X008909Y022826D02*
X008909Y023043D01*
X008692Y023043D01*
X008692Y022826D01*
X008909Y022826D01*
X009017Y022935D01*
X009017Y023151D01*
X008909Y023260D01*
X008692Y023260D01*
X009750Y023260D02*
X009750Y022609D01*
X010916Y022609D02*
X010916Y023043D01*
X011242Y023043D01*
X011350Y022935D01*
X011350Y022609D01*
X011966Y021291D02*
X012075Y021291D01*
X012075Y020641D01*
X012183Y020641D02*
X011966Y020641D01*
X012433Y020749D02*
X012433Y020966D01*
X012541Y021074D01*
X012758Y021074D01*
X012866Y020966D01*
X012866Y020858D01*
X012433Y020858D01*
X012433Y020749D02*
X012541Y020641D01*
X012758Y020641D01*
X013132Y020641D02*
X013458Y020641D01*
X013566Y020749D01*
X013458Y020858D01*
X013241Y020858D01*
X013132Y020966D01*
X013241Y021074D01*
X013566Y021074D01*
X013832Y021183D02*
X014049Y020966D01*
X014049Y020641D01*
X014049Y020966D02*
X014266Y021183D01*
X014266Y021291D01*
X014524Y021625D02*
X014415Y021733D01*
X014524Y021842D01*
X014849Y021842D01*
X014849Y021950D02*
X014849Y021625D01*
X014524Y021625D01*
X014524Y022059D02*
X014741Y022059D01*
X014849Y021950D01*
X015115Y021842D02*
X015332Y022059D01*
X015441Y022059D01*
X015698Y021950D02*
X015807Y022059D01*
X016132Y022059D01*
X016132Y022276D02*
X016132Y021625D01*
X015807Y021625D01*
X015698Y021733D01*
X015698Y021950D01*
X015115Y022059D02*
X015115Y021625D01*
X015232Y021074D02*
X015232Y020641D01*
X015232Y020858D02*
X015449Y021074D01*
X015557Y021074D01*
X015815Y021074D02*
X016140Y021074D01*
X016249Y020966D01*
X016249Y020641D01*
X016515Y020749D02*
X016623Y020641D01*
X016840Y020641D01*
X016949Y020749D01*
X016949Y020966D01*
X016840Y021074D01*
X016623Y021074D01*
X016515Y020966D01*
X016515Y020749D01*
X017215Y020641D02*
X017431Y020641D01*
X017323Y020641D02*
X017323Y021291D01*
X017215Y021291D01*
X017681Y020966D02*
X017790Y021074D01*
X018115Y021074D01*
X018115Y021291D02*
X018115Y020641D01*
X017790Y020641D01*
X017681Y020749D01*
X017681Y020966D01*
X015815Y021074D02*
X015815Y020641D01*
X014966Y020641D02*
X014640Y020641D01*
X014532Y020749D01*
X014640Y020858D01*
X014966Y020858D01*
X014966Y020966D02*
X014966Y020641D01*
X014966Y020966D02*
X014857Y021074D01*
X014640Y021074D01*
X013832Y021183D02*
X013832Y021291D01*
X013949Y018122D02*
X014274Y018122D01*
X014383Y018013D01*
X014383Y017688D01*
X014757Y017796D02*
X014866Y017688D01*
X014757Y017796D02*
X014757Y018230D01*
X014649Y018122D02*
X014866Y018122D01*
X015115Y018122D02*
X015115Y017796D01*
X015224Y017688D01*
X015549Y017688D01*
X015549Y018122D01*
X015815Y018122D02*
X015815Y017688D01*
X015815Y017905D02*
X016032Y018122D01*
X016140Y018122D01*
X013949Y018122D02*
X013949Y017688D01*
X013683Y017905D02*
X013249Y017905D01*
X013249Y018013D02*
X013358Y018122D01*
X013574Y018122D01*
X013683Y018013D01*
X013683Y017905D01*
X013574Y017688D02*
X013358Y017688D01*
X013249Y017796D01*
X013249Y018013D01*
X013358Y015169D02*
X013574Y015169D01*
X013683Y015061D01*
X013683Y014952D01*
X013249Y014952D01*
X013249Y014844D02*
X013249Y015061D01*
X013358Y015169D01*
X013249Y014844D02*
X013358Y014735D01*
X013574Y014735D01*
X012983Y014844D02*
X012983Y015169D01*
X012983Y014844D02*
X012875Y014735D01*
X012766Y014844D01*
X012658Y014735D01*
X012549Y014844D01*
X012549Y015169D01*
X011000Y024578D02*
X011000Y025011D01*
D17*
X009865Y002767D02*
X009865Y002157D01*
X009602Y002157D02*
X009500Y002259D01*
X009500Y002666D01*
X009398Y002564D02*
X009602Y002564D01*
X009865Y002462D02*
X009966Y002564D01*
X010170Y002564D01*
X010272Y002462D01*
X010272Y002157D01*
X010564Y002259D02*
X010564Y002462D01*
X010666Y002564D01*
X010870Y002564D01*
X010971Y002462D01*
X010971Y002360D01*
X010564Y002360D01*
X010564Y002259D02*
X010666Y002157D01*
X010870Y002157D01*
X011964Y002157D02*
X012269Y002157D01*
X012371Y002259D01*
X012269Y002360D01*
X012066Y002360D01*
X011964Y002462D01*
X012066Y002564D01*
X012371Y002564D01*
X012664Y002462D02*
X012664Y002259D01*
X012766Y002157D01*
X013071Y002157D01*
X013364Y002157D02*
X013364Y002564D01*
X013567Y002564D02*
X013364Y002360D01*
X013567Y002564D02*
X013669Y002564D01*
X013947Y002462D02*
X013947Y002259D01*
X014048Y002157D01*
X014252Y002157D01*
X014354Y002360D02*
X014354Y002462D01*
X014252Y002564D01*
X014048Y002564D01*
X013947Y002462D01*
X013947Y002360D02*
X014354Y002360D01*
X014647Y002360D02*
X015054Y002360D01*
X015054Y002462D01*
X014952Y002564D01*
X014748Y002564D01*
X014647Y002462D01*
X014647Y002259D01*
X014748Y002157D01*
X014952Y002157D01*
X015346Y002157D02*
X015346Y002564D01*
X015652Y002564D01*
X015753Y002462D01*
X015753Y002157D01*
X016746Y002157D02*
X017051Y002157D01*
X017153Y002259D01*
X017153Y002462D01*
X017051Y002564D01*
X016746Y002564D01*
X016746Y002767D02*
X016746Y002157D01*
X017446Y002259D02*
X017547Y002360D01*
X017853Y002360D01*
X017853Y002462D02*
X017853Y002157D01*
X017547Y002157D01*
X017446Y002259D01*
X017547Y002564D02*
X017751Y002564D01*
X017853Y002462D01*
X018146Y002462D02*
X018146Y002259D01*
X018247Y002157D01*
X018553Y002157D01*
X018845Y002157D02*
X018845Y002767D01*
X018553Y002564D02*
X018247Y002564D01*
X018146Y002462D01*
X018845Y002360D02*
X019151Y002564D01*
X018845Y002360D02*
X019151Y002157D01*
X020128Y002259D02*
X020230Y002157D01*
X020434Y002157D01*
X020535Y002259D01*
X020535Y002462D01*
X020434Y002564D01*
X020230Y002564D01*
X020128Y002462D01*
X020128Y002259D01*
X020828Y002157D02*
X020828Y002564D01*
X021133Y002564D01*
X021235Y002462D01*
X021235Y002157D01*
X021528Y002157D02*
X021528Y002259D01*
X021528Y002462D02*
X021528Y002869D01*
X013071Y002564D02*
X012766Y002564D01*
X012664Y002462D01*
X008435Y002564D02*
X008232Y002564D01*
X008333Y002666D02*
X008333Y002259D01*
X008435Y002157D01*
X007939Y002157D02*
X007939Y002564D01*
X007532Y002564D02*
X007532Y002259D01*
X007634Y002157D01*
X007939Y002157D01*
X007239Y002462D02*
X007137Y002360D01*
X006832Y002360D01*
X006832Y002157D02*
X006832Y002767D01*
X007137Y002767D01*
X007239Y002666D01*
X007239Y002462D01*
D18*
X024316Y004011D02*
X024671Y004011D01*
X024985Y004011D01*
X024946Y003735D02*
X024671Y004011D01*
X024395Y003735D01*
X020143Y031687D02*
X019461Y032369D01*
X019433Y032898D02*
X019433Y033065D01*
X019266Y033065D01*
X018737Y033093D02*
X018055Y033775D01*
X018514Y034234D01*
X019684Y035403D02*
X020143Y035863D01*
X020825Y035181D01*
X021549Y034457D02*
X022231Y033775D01*
X021772Y033315D01*
X020602Y032146D02*
X020143Y031687D01*
D19*
X004956Y012259D03*
X004090Y012357D03*
X003401Y013834D03*
X003401Y013853D03*
X003401Y013873D03*
X003401Y013893D03*
X003401Y013913D03*
X003401Y013932D03*
X003401Y013952D03*
X003401Y013972D03*
X003401Y013991D03*
X003401Y014011D03*
X003401Y014031D03*
X003401Y014050D03*
X003401Y014070D03*
X003401Y014090D03*
X003401Y014109D03*
X003401Y014129D03*
X003401Y014149D03*
X003401Y014168D03*
X003401Y014188D03*
X003401Y014208D03*
X003401Y014227D03*
X003401Y014247D03*
X003401Y014267D03*
X003401Y014287D03*
X003401Y014306D03*
X003401Y014326D03*
X003401Y014346D03*
X003401Y014365D03*
X003401Y014385D03*
X003401Y014405D03*
X003401Y014424D03*
X003401Y014444D03*
X003401Y014464D03*
X003401Y014483D03*
X003401Y014503D03*
X003401Y014523D03*
X003401Y014542D03*
X003401Y014562D03*
X003401Y014582D03*
X003401Y014601D03*
X003401Y014621D03*
X003401Y014641D03*
X003401Y014661D03*
X003401Y014680D03*
X003401Y014700D03*
X003401Y014720D03*
X003401Y014739D03*
X003401Y014759D03*
X003401Y014779D03*
X003401Y014798D03*
X003401Y014818D03*
X003401Y014838D03*
X003401Y014857D03*
X003401Y014877D03*
X003401Y014897D03*
X003401Y014916D03*
X003401Y014936D03*
X003401Y014956D03*
X003401Y014976D03*
X003401Y014995D03*
X003401Y015015D03*
X003401Y015035D03*
X003401Y015054D03*
X003401Y015074D03*
X003401Y015094D03*
X003401Y015113D03*
X003401Y015133D03*
X003401Y015153D03*
X003401Y015172D03*
X003401Y015192D03*
X003401Y015212D03*
X003401Y015231D03*
X003401Y015251D03*
X003401Y015271D03*
X003401Y015290D03*
X003401Y015310D03*
X003401Y015330D03*
X003401Y015350D03*
X003401Y015369D03*
X003401Y015389D03*
X003401Y015409D03*
X003401Y015428D03*
X003401Y015448D03*
X003401Y015468D03*
X003401Y015487D03*
X003401Y015507D03*
X003401Y015527D03*
X003401Y015546D03*
X003401Y015566D03*
X003401Y015586D03*
X003401Y015605D03*
X003401Y015625D03*
X003401Y015645D03*
X003401Y015664D03*
X003401Y015684D03*
X003401Y015704D03*
X003401Y015724D03*
X003401Y015743D03*
X003401Y015763D03*
X003401Y015783D03*
X003401Y015802D03*
X003401Y015822D03*
X003401Y015842D03*
X003401Y015861D03*
X003401Y015881D03*
X003401Y015901D03*
X003401Y015920D03*
X003401Y015940D03*
X003401Y015960D03*
X003401Y015979D03*
X003401Y015999D03*
X003401Y016019D03*
X003401Y016039D03*
X003401Y016058D03*
X003401Y016078D03*
X003401Y016098D03*
X003401Y016117D03*
X003401Y016137D03*
X003401Y016157D03*
X003401Y016176D03*
X003401Y016196D03*
X003401Y016216D03*
X003401Y016235D03*
X003401Y016255D03*
X003401Y016275D03*
X003401Y016294D03*
X003401Y016314D03*
X003401Y016334D03*
X003401Y016353D03*
X003401Y016373D03*
X003401Y016393D03*
X003401Y016413D03*
X003401Y016432D03*
X003401Y016452D03*
X003401Y016472D03*
X003401Y016491D03*
X003401Y016511D03*
X003401Y016531D03*
X003401Y016550D03*
X003401Y016570D03*
X003401Y016590D03*
X003401Y016609D03*
X003401Y016629D03*
X003401Y016649D03*
X003401Y016668D03*
X003401Y016688D03*
X003401Y016708D03*
X003401Y016727D03*
X003401Y016747D03*
X003401Y016767D03*
X003401Y016787D03*
X003401Y016806D03*
X003401Y016826D03*
X003401Y016846D03*
X003401Y016865D03*
X003401Y016885D03*
X003401Y016905D03*
X003401Y016924D03*
X003401Y016944D03*
X003401Y016964D03*
X003401Y016983D03*
X003401Y017003D03*
X003401Y017023D03*
X003401Y017042D03*
X001865Y012397D03*
X001846Y012279D03*
X001846Y012259D03*
X001846Y012239D03*
X001846Y012220D03*
X001846Y012200D03*
X001846Y012180D03*
X001846Y012161D03*
X001846Y012141D03*
X001846Y012121D03*
X001846Y012101D03*
X001846Y012082D03*
X001846Y012062D03*
X001846Y012042D03*
X001846Y012023D03*
X001846Y012003D03*
X001846Y011983D03*
X001846Y011964D03*
X001846Y011944D03*
X001865Y011826D03*
X003401Y010369D03*
X003401Y010350D03*
X003401Y010330D03*
X003401Y010310D03*
X003401Y010290D03*
X003401Y010271D03*
X003401Y010251D03*
X003401Y010231D03*
X003401Y010212D03*
X003401Y010192D03*
X003401Y010172D03*
X003401Y010153D03*
X003401Y010133D03*
X003401Y010113D03*
X003401Y010094D03*
X003401Y010074D03*
X003401Y010054D03*
X003401Y010035D03*
X003401Y010015D03*
X003401Y009995D03*
X003401Y009976D03*
X003401Y009956D03*
X003401Y009936D03*
X003401Y009916D03*
X003401Y009897D03*
X003401Y009877D03*
X003401Y009857D03*
X003401Y009838D03*
X003401Y009818D03*
X003401Y009798D03*
X003401Y009779D03*
X003401Y009759D03*
X003401Y009739D03*
X003401Y009720D03*
X003401Y009700D03*
X003401Y009680D03*
X003401Y009661D03*
X003401Y009641D03*
X003401Y009621D03*
X003401Y009601D03*
X003401Y009582D03*
X003401Y009562D03*
X003401Y009542D03*
X003401Y009523D03*
X003401Y009503D03*
X003401Y009483D03*
X003401Y009464D03*
X003401Y009444D03*
X003401Y009424D03*
X003401Y009405D03*
X003401Y009385D03*
X003401Y009365D03*
X003401Y009346D03*
X003401Y009326D03*
X003401Y009306D03*
X003401Y009287D03*
X003401Y009267D03*
X003401Y009247D03*
X003401Y009227D03*
X003401Y009208D03*
X003401Y009188D03*
X003401Y009168D03*
X003401Y009149D03*
X003401Y009129D03*
X003401Y009109D03*
X003401Y009090D03*
X003401Y009070D03*
X003401Y009050D03*
X003401Y009031D03*
X003401Y009011D03*
X003401Y008991D03*
X003401Y008972D03*
X003401Y008952D03*
X003401Y008932D03*
X003401Y008913D03*
X003401Y008893D03*
X003401Y008873D03*
X003401Y008853D03*
X003401Y008834D03*
X003401Y008814D03*
X003401Y008794D03*
X003401Y008775D03*
X003401Y008755D03*
X003401Y008735D03*
X003401Y008716D03*
X003401Y008696D03*
X003401Y008676D03*
X003401Y008657D03*
X003401Y008637D03*
X003401Y008617D03*
X003401Y008598D03*
X003401Y008578D03*
X003401Y008558D03*
X003401Y008539D03*
X003401Y008519D03*
X003401Y008499D03*
X003401Y008479D03*
X003401Y008460D03*
X003401Y008440D03*
X003401Y008420D03*
X003401Y008401D03*
X003401Y008381D03*
X003401Y008361D03*
X003401Y008342D03*
X003401Y008322D03*
X003401Y008302D03*
X003401Y008283D03*
X003401Y008263D03*
X003401Y008243D03*
X003401Y008224D03*
X003401Y008204D03*
X003401Y008184D03*
X003401Y008164D03*
X003401Y008145D03*
X003401Y008125D03*
X003401Y008105D03*
X003401Y008086D03*
X003401Y008066D03*
X003401Y008046D03*
X003401Y008027D03*
X003401Y008007D03*
X003401Y007987D03*
X003401Y007968D03*
X003401Y007948D03*
X003401Y007928D03*
X003401Y007909D03*
X003401Y007889D03*
X003401Y007869D03*
X003401Y007850D03*
X003401Y007830D03*
X003401Y007810D03*
X003401Y007790D03*
X003401Y007771D03*
X003401Y007751D03*
X003401Y007731D03*
X003401Y007712D03*
X003401Y007692D03*
X003401Y007672D03*
X003401Y007653D03*
X003401Y007633D03*
X003401Y007613D03*
X003401Y007594D03*
X003401Y007574D03*
X003401Y007554D03*
X003401Y007535D03*
X003401Y007515D03*
X003401Y007495D03*
X003401Y007476D03*
X003401Y007456D03*
X003401Y007436D03*
X003401Y007416D03*
X003401Y007397D03*
X003401Y007377D03*
X003401Y007357D03*
X003401Y007338D03*
X003401Y007318D03*
X003401Y007298D03*
X003401Y007279D03*
X003401Y007259D03*
X003401Y007239D03*
X003401Y007220D03*
D20*
X003401Y010389D03*
X002141Y011196D03*
X002121Y011216D03*
X002102Y011255D03*
X002082Y011275D03*
X002062Y011314D03*
X002043Y012869D03*
X002062Y012909D03*
X002082Y012928D03*
X002082Y012948D03*
X002102Y012968D03*
X002121Y012987D03*
X004700Y012968D03*
X004720Y012948D03*
X004720Y012928D03*
X004739Y012909D03*
X004759Y012869D03*
X004779Y011373D03*
X004759Y011334D03*
X004739Y011314D03*
X004739Y011294D03*
X004720Y011275D03*
X004700Y011255D03*
X004680Y011216D03*
D21*
X003726Y011846D03*
X003411Y010409D03*
X002643Y010763D03*
X002623Y013440D03*
X004178Y013440D03*
D22*
X003086Y012298D03*
X003716Y011905D03*
X003401Y010428D03*
D23*
X003401Y010448D03*
X003676Y011964D03*
D24*
X003401Y010468D03*
D25*
X003401Y010487D03*
D26*
X003411Y010507D03*
D27*
X003401Y010527D03*
D28*
X003401Y010546D03*
D29*
X003401Y010566D03*
D30*
X003401Y010586D03*
D31*
X003411Y010605D03*
D32*
X003401Y010625D03*
D33*
X003401Y010645D03*
D34*
X003411Y010664D03*
D35*
X003401Y010684D03*
D36*
X004011Y010704D03*
X003716Y011885D03*
X003086Y012318D03*
X002771Y013499D03*
X002791Y010704D03*
D37*
X002722Y010724D03*
X003076Y012338D03*
X004080Y010724D03*
D38*
X002682Y010743D03*
D39*
X003066Y012357D03*
X002672Y013460D03*
X004149Y013460D03*
X004129Y010743D03*
D40*
X004169Y010763D03*
X004208Y010783D03*
D41*
X003056Y012377D03*
X002584Y013420D03*
X004218Y013420D03*
X002604Y010783D03*
D42*
X002574Y010802D03*
X003735Y011826D03*
X004050Y012239D03*
X004247Y013401D03*
X004247Y010802D03*
X002554Y013401D03*
D43*
X002525Y013381D03*
X002741Y011964D03*
X002505Y010842D03*
X002525Y010822D03*
X004277Y010822D03*
X004316Y013361D03*
X004277Y013381D03*
D44*
X004346Y013342D03*
X004090Y012259D03*
X004326Y010861D03*
X004306Y010842D03*
X002476Y010861D03*
X002495Y013361D03*
D45*
X002466Y013342D03*
X003056Y012397D03*
X002722Y011944D03*
X002446Y010881D03*
X004356Y010881D03*
X004395Y013302D03*
X004375Y013322D03*
D46*
X004424Y013283D03*
X004109Y012279D03*
X003735Y011806D03*
X004405Y010920D03*
X004385Y010901D03*
X002417Y010901D03*
X002397Y010920D03*
X002417Y013302D03*
X002436Y013322D03*
D47*
X002387Y013283D03*
X002367Y013263D03*
X002722Y011924D03*
X002348Y010960D03*
X002367Y010940D03*
X004434Y010940D03*
X004454Y010960D03*
X004474Y010979D03*
X004434Y013263D03*
D48*
X004464Y013243D03*
X004484Y013224D03*
X004503Y013204D03*
X004523Y013184D03*
X003401Y013814D03*
X002338Y013243D03*
X002318Y013224D03*
X002298Y013204D03*
X002279Y013184D03*
X002338Y010979D03*
D49*
X002308Y010999D03*
X002289Y011019D03*
X002269Y011039D03*
X002249Y011058D03*
X003037Y012416D03*
X004100Y012298D03*
X004552Y013164D03*
X004572Y011078D03*
X004552Y011058D03*
X004533Y011039D03*
X004513Y011019D03*
X004493Y010999D03*
D50*
X004582Y011098D03*
X004602Y011117D03*
X004621Y011137D03*
X003735Y011787D03*
X004661Y013027D03*
X004621Y013086D03*
X004602Y013105D03*
X004582Y013125D03*
X004562Y013145D03*
X002712Y011905D03*
X002180Y011137D03*
X002200Y011117D03*
X002220Y011098D03*
X002239Y011078D03*
X002200Y013105D03*
X002220Y013125D03*
X002239Y013145D03*
X002259Y013164D03*
D51*
X002190Y013086D03*
X002171Y013066D03*
X002151Y013046D03*
X002151Y013027D03*
X002131Y013007D03*
X002111Y011235D03*
X002151Y011176D03*
X002171Y011157D03*
X004100Y012318D03*
X004690Y012987D03*
X004671Y013007D03*
X004651Y013046D03*
X004631Y013066D03*
X004690Y011235D03*
X004671Y011196D03*
X004651Y011176D03*
X004631Y011157D03*
D52*
X004769Y011353D03*
X004789Y011393D03*
X004789Y011413D03*
X004808Y011432D03*
X004828Y011472D03*
X004848Y012692D03*
X004828Y012731D03*
X004828Y012751D03*
X004808Y012771D03*
X004808Y012790D03*
X004789Y012810D03*
X004789Y012830D03*
X004769Y012850D03*
X004749Y012889D03*
X003037Y012436D03*
X002722Y011885D03*
X002033Y011373D03*
X002033Y011353D03*
X002052Y011334D03*
X002072Y011294D03*
X002013Y011393D03*
X001993Y011432D03*
X001954Y012692D03*
X001974Y012731D03*
X001993Y012771D03*
X001993Y012790D03*
X002013Y012810D03*
X002013Y012830D03*
X002033Y012850D03*
X002052Y012889D03*
D53*
X001984Y012751D03*
X001964Y012712D03*
X001944Y012672D03*
X001944Y012653D03*
X001924Y012633D03*
X001924Y012613D03*
X001905Y012554D03*
X001905Y011668D03*
X001924Y011609D03*
X001924Y011590D03*
X001944Y011550D03*
X001944Y011531D03*
X001964Y011511D03*
X001964Y011491D03*
X001984Y011472D03*
X001984Y011452D03*
X002003Y011413D03*
X004090Y012338D03*
X004877Y012594D03*
X004877Y012613D03*
X004877Y012633D03*
X004858Y012653D03*
X004858Y012672D03*
X004838Y012712D03*
X004897Y012574D03*
X004897Y012554D03*
X004897Y012535D03*
X004917Y012495D03*
X004917Y012476D03*
X004936Y012397D03*
X004936Y011826D03*
X004917Y011747D03*
X004917Y011727D03*
X004897Y011668D03*
X004897Y011649D03*
X004877Y011609D03*
X004877Y011590D03*
X004858Y011570D03*
X004858Y011550D03*
X004858Y011531D03*
X004838Y011511D03*
X004838Y011491D03*
X004818Y011452D03*
D54*
X004887Y011629D03*
X004907Y011688D03*
X004907Y011708D03*
X004926Y011767D03*
X004926Y011787D03*
X004926Y011806D03*
X004946Y011846D03*
X004946Y011865D03*
X004946Y011885D03*
X004946Y011905D03*
X004946Y011924D03*
X004946Y011944D03*
X004966Y011964D03*
X004966Y011983D03*
X004966Y012003D03*
X004966Y012023D03*
X004966Y012042D03*
X004966Y012062D03*
X004966Y012082D03*
X004966Y012101D03*
X004966Y012121D03*
X004966Y012141D03*
X004966Y012161D03*
X004966Y012180D03*
X004966Y012200D03*
X004966Y012220D03*
X004966Y012239D03*
X004946Y012279D03*
X004946Y012298D03*
X004946Y012318D03*
X004946Y012338D03*
X004946Y012357D03*
X004946Y012377D03*
X004926Y012416D03*
X004926Y012436D03*
X004926Y012456D03*
X004907Y012515D03*
X003745Y011767D03*
X002722Y011865D03*
X001915Y011649D03*
X001915Y011629D03*
X001934Y011570D03*
X001895Y011688D03*
X001895Y011708D03*
X001895Y011727D03*
X001875Y011747D03*
X001875Y011767D03*
X001875Y011787D03*
X001875Y011806D03*
X001856Y011846D03*
X001856Y011865D03*
X001856Y011885D03*
X001856Y011905D03*
X001856Y011924D03*
X001856Y012298D03*
X001856Y012318D03*
X001856Y012338D03*
X001856Y012357D03*
X001856Y012377D03*
X001875Y012416D03*
X001875Y012436D03*
X001875Y012456D03*
X001875Y012476D03*
X001895Y012495D03*
X001895Y012515D03*
X001895Y012535D03*
X001915Y012574D03*
X001915Y012594D03*
D55*
X002771Y011747D03*
X004050Y012476D03*
D56*
X003735Y011747D03*
D57*
X002761Y011767D03*
D58*
X002761Y011787D03*
D59*
X002741Y011806D03*
D60*
X002732Y011826D03*
X003027Y012456D03*
D61*
X002732Y011846D03*
D62*
X003716Y011865D03*
X004090Y013479D03*
X003401Y013794D03*
X002712Y013479D03*
D63*
X002859Y013519D03*
X003411Y013775D03*
X003706Y011924D03*
D64*
X003686Y011944D03*
D65*
X003421Y012141D03*
X003460Y012200D03*
X003361Y012042D03*
X003342Y012003D03*
X003322Y011983D03*
D66*
X003352Y012023D03*
X003371Y012062D03*
X003391Y012082D03*
X003391Y012101D03*
X003411Y012121D03*
X003430Y012161D03*
X003450Y012180D03*
X003470Y012220D03*
X003411Y013598D03*
D67*
X003135Y012239D03*
D68*
X003115Y012259D03*
D69*
X003106Y012279D03*
X003952Y013519D03*
D70*
X004080Y012377D03*
D71*
X004080Y012397D03*
D72*
X004070Y012416D03*
D73*
X004070Y012436D03*
D74*
X004050Y012456D03*
D75*
X004041Y013499D03*
D76*
X003401Y013539D03*
D77*
X003411Y013558D03*
D78*
X003401Y013578D03*
D79*
X003411Y013617D03*
D80*
X003401Y013637D03*
D81*
X003401Y013657D03*
D82*
X003411Y013676D03*
D83*
X003411Y013696D03*
D84*
X003401Y013716D03*
D85*
X003401Y013735D03*
D86*
X003401Y013755D03*
D87*
X006895Y001432D03*
X006895Y000960D03*
X008489Y000960D03*
X008489Y001432D03*
D88*
X008489Y001196D03*
X006895Y001196D03*
M02*
