G75*
G70*
%OFA0B0*%
%FSLAX24Y24*%
%IPPOS*%
%LPD*%
%AMOC8*
5,1,8,0,0,1.08239X$1,22.5*
%
%ADD10C,0.0080*%
%ADD11C,0.0160*%
%ADD12C,0.0200*%
%ADD13C,0.0050*%
%ADD14C,0.0060*%
%ADD15C,0.0059*%
%ADD16C,0.0100*%
%ADD17R,0.0315X0.0020*%
%ADD18R,0.0394X0.0020*%
%ADD19R,0.0650X0.0020*%
%ADD20R,0.0827X0.0020*%
%ADD21R,0.0984X0.0020*%
%ADD22R,0.1102X0.0020*%
%ADD23R,0.1220X0.0020*%
%ADD24R,0.1319X0.0020*%
%ADD25R,0.1417X0.0020*%
%ADD26R,0.1496X0.0020*%
%ADD27R,0.1575X0.0020*%
%ADD28R,0.1654X0.0020*%
%ADD29R,0.1713X0.0020*%
%ADD30R,0.1772X0.0020*%
%ADD31R,0.1850X0.0020*%
%ADD32R,0.1909X0.0020*%
%ADD33R,0.1969X0.0020*%
%ADD34R,0.0787X0.0020*%
%ADD35R,0.0728X0.0020*%
%ADD36R,0.0689X0.0020*%
%ADD37R,0.0669X0.0020*%
%ADD38R,0.0630X0.0020*%
%ADD39R,0.0610X0.0020*%
%ADD40R,0.0591X0.0020*%
%ADD41R,0.0571X0.0020*%
%ADD42R,0.0551X0.0020*%
%ADD43R,0.0531X0.0020*%
%ADD44R,0.0512X0.0020*%
%ADD45R,0.0492X0.0020*%
%ADD46R,0.0472X0.0020*%
%ADD47R,0.0453X0.0020*%
%ADD48R,0.0433X0.0020*%
%ADD49R,0.0413X0.0020*%
%ADD50R,0.0374X0.0020*%
%ADD51R,0.0354X0.0020*%
%ADD52R,0.0335X0.0020*%
%ADD53R,0.0039X0.0020*%
%ADD54R,0.0197X0.0020*%
%ADD55R,0.0098X0.0020*%
%ADD56R,0.0138X0.0020*%
%ADD57R,0.0177X0.0020*%
%ADD58R,0.0236X0.0020*%
%ADD59R,0.0276X0.0020*%
%ADD60R,0.0709X0.0020*%
%ADD61R,0.0886X0.0020*%
%ADD62R,0.0925X0.0020*%
%ADD63R,0.1732X0.0020*%
%ADD64R,0.1752X0.0020*%
%ADD65R,0.1043X0.0020*%
%ADD66R,0.0965X0.0020*%
%ADD67R,0.0906X0.0020*%
%ADD68R,0.0256X0.0020*%
%ADD69R,0.0217X0.0020*%
%ADD70R,0.0157X0.0020*%
%ADD71R,0.0118X0.0020*%
%ADD72R,0.0079X0.0020*%
%ADD73R,0.0768X0.0020*%
%ADD74R,0.1929X0.0020*%
%ADD75R,0.1870X0.0020*%
%ADD76R,0.1811X0.0020*%
%ADD77R,0.1673X0.0020*%
%ADD78R,0.1614X0.0020*%
%ADD79R,0.1535X0.0020*%
%ADD80R,0.1437X0.0020*%
%ADD81R,0.1358X0.0020*%
%ADD82R,0.1260X0.0020*%
%ADD83R,0.1142X0.0020*%
%ADD84R,0.1024X0.0020*%
D10*
X003254Y003822D02*
X003534Y003822D01*
X003714Y003822D02*
X003854Y003822D01*
X003784Y003822D02*
X003784Y004103D01*
X003714Y004103D01*
X003784Y004243D02*
X003784Y004313D01*
X004021Y004032D02*
X004021Y003892D01*
X004091Y003822D01*
X004301Y003822D01*
X004301Y003752D02*
X004301Y004103D01*
X004091Y004103D01*
X004021Y004032D01*
X004161Y003682D02*
X004231Y003682D01*
X004301Y003752D01*
X004482Y003822D02*
X004482Y004243D01*
X004552Y004103D02*
X004692Y004103D01*
X004762Y004032D01*
X004762Y003822D01*
X005012Y003892D02*
X005012Y004173D01*
X004942Y004103D02*
X005082Y004103D01*
X005012Y003892D02*
X005082Y003822D01*
X004552Y004103D02*
X004482Y004032D01*
X004608Y004751D02*
X003395Y004751D01*
X003254Y004243D02*
X003254Y003822D01*
X003001Y005263D02*
X003001Y006239D01*
X003395Y006751D02*
X004608Y006751D01*
X005001Y006239D02*
X005001Y005251D01*
X003501Y005751D02*
X003503Y005795D01*
X003509Y005839D01*
X003519Y005882D01*
X003532Y005924D01*
X003549Y005965D01*
X003570Y006004D01*
X003594Y006041D01*
X003621Y006076D01*
X003651Y006108D01*
X003684Y006138D01*
X003720Y006164D01*
X003757Y006188D01*
X003797Y006207D01*
X003838Y006224D01*
X003881Y006236D01*
X003924Y006245D01*
X003968Y006250D01*
X004012Y006251D01*
X004056Y006248D01*
X004100Y006241D01*
X004143Y006230D01*
X004185Y006216D01*
X004225Y006198D01*
X004264Y006176D01*
X004300Y006152D01*
X004334Y006124D01*
X004366Y006093D01*
X004395Y006059D01*
X004421Y006023D01*
X004443Y005985D01*
X004462Y005945D01*
X004477Y005903D01*
X004489Y005861D01*
X004497Y005817D01*
X004501Y005773D01*
X004501Y005729D01*
X004497Y005685D01*
X004489Y005641D01*
X004477Y005599D01*
X004462Y005557D01*
X004443Y005517D01*
X004421Y005479D01*
X004395Y005443D01*
X004366Y005409D01*
X004334Y005378D01*
X004300Y005350D01*
X004264Y005326D01*
X004225Y005304D01*
X004185Y005286D01*
X004143Y005272D01*
X004100Y005261D01*
X004056Y005254D01*
X004012Y005251D01*
X003968Y005252D01*
X003924Y005257D01*
X003881Y005266D01*
X003838Y005278D01*
X003797Y005295D01*
X003757Y005314D01*
X003720Y005338D01*
X003684Y005364D01*
X003651Y005394D01*
X003621Y005426D01*
X003594Y005461D01*
X003570Y005498D01*
X003549Y005537D01*
X003532Y005578D01*
X003519Y005620D01*
X003509Y005663D01*
X003503Y005707D01*
X003501Y005751D01*
X004407Y001925D02*
X004827Y001645D01*
X004962Y001723D02*
X005143Y001723D01*
X005235Y001601D01*
X005324Y001723D02*
X005143Y001723D01*
X005133Y001717D02*
X005057Y001601D01*
X004827Y001325D02*
X004407Y001325D01*
X004407Y001465D02*
X004407Y001184D01*
X004407Y001645D02*
X004827Y001925D01*
X005474Y001723D02*
X005655Y001723D01*
X005747Y001601D01*
X005836Y001723D02*
X005655Y001723D01*
X005645Y001717D02*
X005569Y001601D01*
X005982Y001684D02*
X006402Y001964D01*
X006402Y001684D02*
X005982Y001964D01*
X006052Y001504D02*
X005982Y001434D01*
X005982Y001224D01*
X006402Y001224D01*
X006262Y001224D02*
X006262Y001434D01*
X006192Y001504D01*
X006052Y001504D01*
X006262Y001364D02*
X006402Y001504D01*
X008619Y031129D02*
X009608Y031129D01*
X010119Y031522D02*
X010119Y032735D01*
X009608Y033129D02*
X008631Y033129D01*
X008119Y032735D02*
X008119Y031522D01*
X008619Y032129D02*
X008621Y032173D01*
X008627Y032217D01*
X008637Y032260D01*
X008650Y032302D01*
X008667Y032343D01*
X008688Y032382D01*
X008712Y032419D01*
X008739Y032454D01*
X008769Y032486D01*
X008802Y032516D01*
X008838Y032542D01*
X008875Y032566D01*
X008915Y032585D01*
X008956Y032602D01*
X008999Y032614D01*
X009042Y032623D01*
X009086Y032628D01*
X009130Y032629D01*
X009174Y032626D01*
X009218Y032619D01*
X009261Y032608D01*
X009303Y032594D01*
X009343Y032576D01*
X009382Y032554D01*
X009418Y032530D01*
X009452Y032502D01*
X009484Y032471D01*
X009513Y032437D01*
X009539Y032401D01*
X009561Y032363D01*
X009580Y032323D01*
X009595Y032281D01*
X009607Y032239D01*
X009615Y032195D01*
X009619Y032151D01*
X009619Y032107D01*
X009615Y032063D01*
X009607Y032019D01*
X009595Y031977D01*
X009580Y031935D01*
X009561Y031895D01*
X009539Y031857D01*
X009513Y031821D01*
X009484Y031787D01*
X009452Y031756D01*
X009418Y031728D01*
X009382Y031704D01*
X009343Y031682D01*
X009303Y031664D01*
X009261Y031650D01*
X009218Y031639D01*
X009174Y031632D01*
X009130Y031629D01*
X009086Y031630D01*
X009042Y031635D01*
X008999Y031644D01*
X008956Y031656D01*
X008915Y031673D01*
X008875Y031692D01*
X008838Y031716D01*
X008802Y031742D01*
X008769Y031772D01*
X008739Y031804D01*
X008712Y031839D01*
X008688Y031876D01*
X008667Y031915D01*
X008650Y031956D01*
X008637Y031998D01*
X008627Y032041D01*
X008621Y032085D01*
X008619Y032129D01*
X009013Y035853D02*
X010001Y035853D01*
X010513Y036247D02*
X010513Y037459D01*
X010001Y037853D02*
X009025Y037853D01*
X008513Y037459D02*
X008513Y036247D01*
X007757Y036247D02*
X007757Y037459D01*
X007245Y037853D02*
X006269Y037853D01*
X005757Y037459D02*
X005757Y036247D01*
X006257Y035853D02*
X007245Y035853D01*
X006257Y036853D02*
X006259Y036897D01*
X006265Y036941D01*
X006275Y036984D01*
X006288Y037026D01*
X006305Y037067D01*
X006326Y037106D01*
X006350Y037143D01*
X006377Y037178D01*
X006407Y037210D01*
X006440Y037240D01*
X006476Y037266D01*
X006513Y037290D01*
X006553Y037309D01*
X006594Y037326D01*
X006637Y037338D01*
X006680Y037347D01*
X006724Y037352D01*
X006768Y037353D01*
X006812Y037350D01*
X006856Y037343D01*
X006899Y037332D01*
X006941Y037318D01*
X006981Y037300D01*
X007020Y037278D01*
X007056Y037254D01*
X007090Y037226D01*
X007122Y037195D01*
X007151Y037161D01*
X007177Y037125D01*
X007199Y037087D01*
X007218Y037047D01*
X007233Y037005D01*
X007245Y036963D01*
X007253Y036919D01*
X007257Y036875D01*
X007257Y036831D01*
X007253Y036787D01*
X007245Y036743D01*
X007233Y036701D01*
X007218Y036659D01*
X007199Y036619D01*
X007177Y036581D01*
X007151Y036545D01*
X007122Y036511D01*
X007090Y036480D01*
X007056Y036452D01*
X007020Y036428D01*
X006981Y036406D01*
X006941Y036388D01*
X006899Y036374D01*
X006856Y036363D01*
X006812Y036356D01*
X006768Y036353D01*
X006724Y036354D01*
X006680Y036359D01*
X006637Y036368D01*
X006594Y036380D01*
X006553Y036397D01*
X006513Y036416D01*
X006476Y036440D01*
X006440Y036466D01*
X006407Y036496D01*
X006377Y036528D01*
X006350Y036563D01*
X006326Y036600D01*
X006305Y036639D01*
X006288Y036680D01*
X006275Y036722D01*
X006265Y036765D01*
X006259Y036809D01*
X006257Y036853D01*
X009013Y036853D02*
X009015Y036897D01*
X009021Y036941D01*
X009031Y036984D01*
X009044Y037026D01*
X009061Y037067D01*
X009082Y037106D01*
X009106Y037143D01*
X009133Y037178D01*
X009163Y037210D01*
X009196Y037240D01*
X009232Y037266D01*
X009269Y037290D01*
X009309Y037309D01*
X009350Y037326D01*
X009393Y037338D01*
X009436Y037347D01*
X009480Y037352D01*
X009524Y037353D01*
X009568Y037350D01*
X009612Y037343D01*
X009655Y037332D01*
X009697Y037318D01*
X009737Y037300D01*
X009776Y037278D01*
X009812Y037254D01*
X009846Y037226D01*
X009878Y037195D01*
X009907Y037161D01*
X009933Y037125D01*
X009955Y037087D01*
X009974Y037047D01*
X009989Y037005D01*
X010001Y036963D01*
X010009Y036919D01*
X010013Y036875D01*
X010013Y036831D01*
X010009Y036787D01*
X010001Y036743D01*
X009989Y036701D01*
X009974Y036659D01*
X009955Y036619D01*
X009933Y036581D01*
X009907Y036545D01*
X009878Y036511D01*
X009846Y036480D01*
X009812Y036452D01*
X009776Y036428D01*
X009737Y036406D01*
X009697Y036388D01*
X009655Y036374D01*
X009612Y036363D01*
X009568Y036356D01*
X009524Y036353D01*
X009480Y036354D01*
X009436Y036359D01*
X009393Y036368D01*
X009350Y036380D01*
X009309Y036397D01*
X009269Y036416D01*
X009232Y036440D01*
X009196Y036466D01*
X009163Y036496D01*
X009133Y036528D01*
X009106Y036563D01*
X009082Y036600D01*
X009061Y036639D01*
X009044Y036680D01*
X009031Y036722D01*
X009021Y036765D01*
X009015Y036809D01*
X009013Y036853D01*
X019143Y032735D02*
X019143Y031522D01*
X019643Y031129D02*
X020631Y031129D01*
X021143Y031522D02*
X021143Y032735D01*
X020631Y033129D02*
X019655Y033129D01*
X019643Y032129D02*
X019645Y032173D01*
X019651Y032217D01*
X019661Y032260D01*
X019674Y032302D01*
X019691Y032343D01*
X019712Y032382D01*
X019736Y032419D01*
X019763Y032454D01*
X019793Y032486D01*
X019826Y032516D01*
X019862Y032542D01*
X019899Y032566D01*
X019939Y032585D01*
X019980Y032602D01*
X020023Y032614D01*
X020066Y032623D01*
X020110Y032628D01*
X020154Y032629D01*
X020198Y032626D01*
X020242Y032619D01*
X020285Y032608D01*
X020327Y032594D01*
X020367Y032576D01*
X020406Y032554D01*
X020442Y032530D01*
X020476Y032502D01*
X020508Y032471D01*
X020537Y032437D01*
X020563Y032401D01*
X020585Y032363D01*
X020604Y032323D01*
X020619Y032281D01*
X020631Y032239D01*
X020639Y032195D01*
X020643Y032151D01*
X020643Y032107D01*
X020639Y032063D01*
X020631Y032019D01*
X020619Y031977D01*
X020604Y031935D01*
X020585Y031895D01*
X020563Y031857D01*
X020537Y031821D01*
X020508Y031787D01*
X020476Y031756D01*
X020442Y031728D01*
X020406Y031704D01*
X020367Y031682D01*
X020327Y031664D01*
X020285Y031650D01*
X020242Y031639D01*
X020198Y031632D01*
X020154Y031629D01*
X020110Y031630D01*
X020066Y031635D01*
X020023Y031644D01*
X019980Y031656D01*
X019939Y031673D01*
X019899Y031692D01*
X019862Y031716D01*
X019826Y031742D01*
X019793Y031772D01*
X019763Y031804D01*
X019736Y031839D01*
X019712Y031876D01*
X019691Y031915D01*
X019674Y031956D01*
X019661Y031998D01*
X019651Y032041D01*
X019645Y032085D01*
X019643Y032129D01*
X025942Y034353D02*
X025942Y034493D01*
X026013Y034563D01*
X026293Y034283D01*
X026363Y034353D01*
X026363Y034493D01*
X026293Y034563D01*
X026013Y034563D01*
X025942Y034353D02*
X026013Y034283D01*
X026293Y034283D01*
X026083Y034103D02*
X026363Y033962D01*
X026083Y033822D01*
X026293Y034743D02*
X026293Y034813D01*
X026363Y034813D01*
X026363Y034743D01*
X026293Y034743D01*
X026363Y034973D02*
X026363Y035254D01*
X026363Y035113D02*
X025942Y035113D01*
X026083Y034973D01*
D11*
X024080Y036853D02*
X023686Y037247D01*
X023686Y036459D01*
X024080Y036853D01*
X024004Y036929D02*
X023686Y036929D01*
X023686Y036771D02*
X023998Y036771D01*
X023839Y036612D02*
X023686Y036612D01*
X023686Y037088D02*
X023845Y037088D01*
X023687Y037246D02*
X023686Y037246D01*
X021718Y039215D02*
X020930Y039215D01*
X021324Y039609D01*
X021718Y039215D01*
X021626Y039307D02*
X021022Y039307D01*
X021180Y039465D02*
X021468Y039465D01*
X018962Y037247D02*
X018962Y036459D01*
X018568Y036853D01*
X018962Y037247D01*
X018961Y037246D02*
X018962Y037246D01*
X018962Y037088D02*
X018803Y037088D01*
X018644Y036929D02*
X018962Y036929D01*
X018962Y036771D02*
X018651Y036771D01*
X018809Y036612D02*
X018962Y036612D01*
X020930Y034491D02*
X021718Y034491D01*
X021324Y034097D01*
X020930Y034491D01*
X021028Y034393D02*
X021620Y034393D01*
X021462Y034235D02*
X021187Y034235D01*
D12*
X025502Y033275D02*
X025502Y033008D01*
X025636Y032875D01*
X025769Y032508D02*
X026036Y032107D01*
X026303Y032508D01*
X026303Y032875D02*
X025769Y033409D01*
X025636Y033409D01*
X025502Y033275D01*
X026303Y033409D02*
X026303Y032875D01*
X026303Y032107D02*
X025502Y032107D01*
X025502Y031720D02*
X026303Y031720D01*
X026303Y031187D02*
X025502Y031187D01*
X025769Y031454D01*
X025502Y031720D01*
X025769Y029879D02*
X026303Y029879D01*
X026303Y029345D02*
X025769Y029345D01*
X025502Y029612D01*
X025769Y029879D01*
X025902Y029879D02*
X025902Y029345D01*
X025636Y028958D02*
X025502Y028825D01*
X025502Y028424D01*
X026303Y028424D01*
X026303Y028825D01*
X026169Y028958D01*
X025636Y028958D01*
X026303Y028037D02*
X026303Y027504D01*
X025502Y027504D01*
X025502Y027023D02*
X025369Y027023D01*
X025502Y026503D02*
X025502Y025969D01*
X025502Y026236D02*
X026303Y026236D01*
X026303Y026890D02*
X026303Y027157D01*
X026303Y027023D02*
X025769Y027023D01*
X025769Y026890D01*
X009807Y034723D02*
X009540Y034456D01*
X009273Y034723D01*
X009273Y035257D01*
X009273Y034857D02*
X009807Y034857D01*
X009807Y034723D02*
X009807Y035257D01*
X007051Y035257D02*
X007051Y034456D01*
X006650Y034456D01*
X006517Y034590D01*
X006517Y034723D01*
X006650Y034857D01*
X007051Y034857D01*
X007051Y035257D02*
X006650Y035257D01*
X006517Y035124D01*
X006517Y034990D01*
X006650Y034857D01*
D13*
X005537Y030129D02*
X005537Y002404D01*
X023568Y002404D01*
X023568Y030129D01*
X005537Y030129D01*
X013490Y034255D02*
X013492Y034267D01*
X013497Y034278D01*
X013506Y034287D01*
X013517Y034292D01*
X013529Y034294D01*
X013541Y034292D01*
X013552Y034287D01*
X013561Y034278D01*
X013566Y034267D01*
X013568Y034255D01*
X013566Y034243D01*
X013561Y034232D01*
X013552Y034223D01*
X013541Y034218D01*
X013529Y034216D01*
X013517Y034218D01*
X013506Y034223D01*
X013497Y034232D01*
X013492Y034243D01*
X013490Y034255D01*
X015852Y034255D02*
X015854Y034267D01*
X015859Y034278D01*
X015868Y034287D01*
X015879Y034292D01*
X015891Y034294D01*
X015903Y034292D01*
X015914Y034287D01*
X015923Y034278D01*
X015928Y034267D01*
X015930Y034255D01*
X015928Y034243D01*
X015923Y034232D01*
X015914Y034223D01*
X015903Y034218D01*
X015891Y034216D01*
X015879Y034218D01*
X015868Y034223D01*
X015859Y034232D01*
X015854Y034243D01*
X015852Y034255D01*
X021683Y039708D02*
X021683Y039772D01*
X021747Y039836D01*
X021810Y039836D01*
X021906Y039740D01*
X021969Y039804D02*
X021778Y039613D01*
X021683Y039708D01*
X021796Y039468D02*
X021955Y039627D01*
X022019Y039627D01*
X022082Y039563D01*
X022082Y039500D01*
X021923Y039341D01*
X022308Y039147D02*
X022340Y039179D01*
X022467Y039051D01*
X022435Y039019D02*
X022372Y039019D01*
X022308Y039083D01*
X022308Y039147D01*
X022435Y039210D02*
X022499Y039147D01*
X022499Y039083D01*
X022435Y039019D01*
X022482Y038909D02*
X022641Y038878D01*
X022609Y039037D01*
X022704Y038941D02*
X022513Y038750D01*
X022690Y038765D02*
X022785Y038860D01*
X022881Y038765D01*
X022881Y038701D01*
X022817Y038701D01*
X022722Y038797D01*
X022690Y038765D02*
X022690Y038701D01*
X022754Y038637D01*
X022803Y038461D02*
X022994Y038652D01*
X022994Y038525D01*
X023121Y038525D01*
X022930Y038334D01*
X023315Y038140D02*
X023315Y038076D01*
X023379Y038012D01*
X023442Y038012D01*
X023506Y038076D01*
X023506Y038140D01*
X023442Y038203D01*
X023379Y038203D01*
X023315Y038140D01*
X023486Y037905D02*
X023549Y037842D01*
X023486Y037842D02*
X023613Y037969D01*
X023613Y038033D01*
X023963Y037683D02*
X023995Y037523D01*
X023836Y037555D01*
X023868Y037396D02*
X024059Y037587D01*
X024140Y037506D02*
X024235Y037411D01*
X024235Y037347D01*
X024172Y037283D01*
X024108Y037283D01*
X024012Y037379D01*
X024247Y037144D02*
X024374Y037272D01*
X024342Y037303D02*
X024406Y037240D01*
X024481Y037165D02*
X024545Y037101D01*
X024513Y037133D02*
X024322Y036942D01*
X024354Y036910D01*
X024467Y036861D02*
X024467Y036797D01*
X024530Y036733D01*
X024594Y036733D01*
X024721Y036861D01*
X024721Y036924D01*
X024658Y036988D01*
X024594Y036988D01*
X024279Y037112D02*
X024247Y037144D01*
X024183Y037081D02*
X024151Y037049D01*
X013450Y002129D02*
X013283Y002129D01*
X013450Y002129D02*
X013450Y000948D01*
X013283Y000948D01*
X010940Y000948D02*
X010773Y000948D01*
X010773Y001105D01*
X010773Y001302D01*
X010773Y001774D01*
X010773Y001971D01*
X010773Y002129D01*
X010940Y002129D01*
D14*
X010287Y009919D02*
X010230Y009919D01*
X010287Y009919D02*
X010344Y009976D01*
X010344Y010260D01*
X010173Y010260D01*
X010117Y010203D01*
X010117Y010089D01*
X010173Y010033D01*
X010344Y010033D01*
X010485Y010033D02*
X010485Y010260D01*
X010598Y010260D02*
X010485Y010146D01*
X010598Y010260D02*
X010655Y010260D01*
X010849Y010260D02*
X010962Y010260D01*
X011019Y010203D01*
X011019Y010033D01*
X010849Y010033D01*
X010792Y010089D01*
X010849Y010146D01*
X011019Y010146D01*
X011160Y010033D02*
X011160Y010260D01*
X011217Y010260D01*
X011274Y010203D01*
X011330Y010260D01*
X011387Y010203D01*
X011387Y010033D01*
X011274Y010033D02*
X011274Y010203D01*
X011263Y010991D02*
X010763Y010991D01*
X010513Y011241D01*
X010263Y010991D01*
X009763Y010991D01*
X009513Y011241D01*
X009263Y010991D01*
X008763Y010991D01*
X008513Y011241D01*
X008263Y010991D01*
X007763Y010991D01*
X007513Y011241D01*
X007513Y012741D01*
X007763Y012991D01*
X008263Y012991D01*
X008513Y012741D01*
X008763Y012991D01*
X009263Y012991D01*
X009513Y012741D01*
X009763Y012991D01*
X010263Y012991D01*
X010513Y012741D01*
X010763Y012991D01*
X011263Y012991D01*
X011513Y012741D01*
X011513Y011241D01*
X011263Y010991D01*
X009975Y010203D02*
X009975Y010089D01*
X009919Y010033D01*
X009805Y010033D01*
X009748Y010089D01*
X009748Y010203D01*
X009805Y010260D01*
X009919Y010260D01*
X009975Y010203D01*
X009612Y010260D02*
X009555Y010260D01*
X009441Y010146D01*
X009441Y010033D02*
X009441Y010260D01*
X009300Y010316D02*
X009300Y010203D01*
X009243Y010146D01*
X009073Y010146D01*
X009073Y010033D02*
X009073Y010373D01*
X009243Y010373D01*
X009300Y010316D01*
X008932Y010203D02*
X008705Y010203D01*
X008563Y010203D02*
X008563Y010146D01*
X008337Y010146D01*
X008337Y010089D02*
X008337Y010203D01*
X008393Y010260D01*
X008507Y010260D01*
X008563Y010203D01*
X008507Y010033D02*
X008393Y010033D01*
X008337Y010089D01*
X008195Y010033D02*
X008082Y010146D01*
X008138Y010146D02*
X007968Y010146D01*
X007968Y010033D02*
X007968Y010373D01*
X008138Y010373D01*
X008195Y010316D01*
X008195Y010203D01*
X008138Y010146D01*
X008138Y010545D02*
X008025Y010545D01*
X007968Y010601D01*
X008025Y010715D02*
X007968Y010771D01*
X007968Y010828D01*
X008025Y010885D01*
X008138Y010885D01*
X008195Y010828D01*
X008138Y010715D02*
X008195Y010658D01*
X008195Y010601D01*
X008138Y010545D01*
X008138Y010715D02*
X008025Y010715D01*
X008337Y010658D02*
X008507Y010658D01*
X008563Y010715D01*
X008563Y010828D01*
X008507Y010885D01*
X008337Y010885D01*
X008337Y010545D01*
X008450Y010658D02*
X008563Y010545D01*
X008705Y010545D02*
X008705Y010885D01*
X008932Y010885D01*
X008818Y010715D02*
X008705Y010715D01*
X007394Y011247D02*
X007167Y011247D01*
X007280Y011247D02*
X007280Y011587D01*
X007167Y011474D01*
X012861Y037719D02*
X012863Y037806D01*
X012870Y037892D01*
X012880Y037979D01*
X012895Y038064D01*
X012914Y038149D01*
X012937Y038233D01*
X012964Y038315D01*
X012996Y038396D01*
X013031Y038476D01*
X013070Y038553D01*
X013113Y038629D01*
X013159Y038702D01*
X013209Y038773D01*
X013263Y038842D01*
X013320Y038908D01*
X013379Y038971D01*
X013442Y039030D01*
X013508Y039087D01*
X013577Y039141D01*
X013648Y039191D01*
X013721Y039237D01*
X013797Y039280D01*
X013874Y039319D01*
X013954Y039354D01*
X014035Y039386D01*
X014117Y039413D01*
X014201Y039436D01*
X014286Y039455D01*
X014371Y039470D01*
X014458Y039480D01*
X014544Y039487D01*
X014631Y039489D01*
X014718Y039487D01*
X014804Y039480D01*
X014891Y039470D01*
X014976Y039455D01*
X015061Y039436D01*
X015145Y039413D01*
X015227Y039386D01*
X015308Y039354D01*
X015388Y039319D01*
X015465Y039280D01*
X015541Y039237D01*
X015614Y039191D01*
X015685Y039141D01*
X015754Y039087D01*
X015820Y039030D01*
X015883Y038971D01*
X015942Y038908D01*
X015999Y038842D01*
X016053Y038773D01*
X016103Y038702D01*
X016149Y038629D01*
X016192Y038553D01*
X016231Y038476D01*
X016266Y038396D01*
X016298Y038315D01*
X016325Y038233D01*
X016348Y038149D01*
X016367Y038064D01*
X016382Y037979D01*
X016392Y037892D01*
X016399Y037806D01*
X016401Y037719D01*
X016399Y037632D01*
X016392Y037546D01*
X016382Y037459D01*
X016367Y037374D01*
X016348Y037289D01*
X016325Y037205D01*
X016298Y037123D01*
X016266Y037042D01*
X016231Y036962D01*
X016192Y036885D01*
X016149Y036809D01*
X016103Y036736D01*
X016053Y036665D01*
X015999Y036596D01*
X015942Y036530D01*
X015883Y036467D01*
X015820Y036408D01*
X015754Y036351D01*
X015685Y036297D01*
X015614Y036247D01*
X015541Y036201D01*
X015465Y036158D01*
X015388Y036119D01*
X015308Y036084D01*
X015227Y036052D01*
X015145Y036025D01*
X015061Y036002D01*
X014976Y035983D01*
X014891Y035968D01*
X014804Y035958D01*
X014718Y035951D01*
X014631Y035949D01*
X014544Y035951D01*
X014458Y035958D01*
X014371Y035968D01*
X014286Y035983D01*
X014201Y036002D01*
X014117Y036025D01*
X014035Y036052D01*
X013954Y036084D01*
X013874Y036119D01*
X013797Y036158D01*
X013721Y036201D01*
X013648Y036247D01*
X013577Y036297D01*
X013508Y036351D01*
X013442Y036408D01*
X013379Y036467D01*
X013320Y036530D01*
X013263Y036596D01*
X013209Y036665D01*
X013159Y036736D01*
X013113Y036809D01*
X013070Y036885D01*
X013031Y036962D01*
X012996Y037042D01*
X012964Y037123D01*
X012937Y037205D01*
X012914Y037289D01*
X012895Y037374D01*
X012880Y037459D01*
X012870Y037546D01*
X012863Y037632D01*
X012861Y037719D01*
D15*
X024551Y002594D02*
X024518Y002276D01*
X024412Y002242D01*
X024312Y002191D01*
X024065Y002393D01*
X023895Y002223D01*
X024097Y001976D01*
X024045Y001876D01*
X024011Y001769D01*
X023694Y001737D01*
X023694Y001497D01*
X024011Y001465D01*
X024045Y001358D01*
X024097Y001258D01*
X023895Y001011D01*
X024065Y000841D01*
X024312Y001043D01*
X024412Y000992D01*
X024553Y001333D01*
X024500Y001361D01*
X024453Y001399D01*
X024415Y001446D01*
X024386Y001499D01*
X024369Y001557D01*
X024363Y001617D01*
X024369Y001680D01*
X024389Y001740D01*
X024420Y001795D01*
X024461Y001842D01*
X024512Y001880D01*
X024569Y001907D01*
X024630Y001922D01*
X024693Y001924D01*
X024756Y001913D01*
X024814Y001889D01*
X024867Y001854D01*
X024911Y001809D01*
X024945Y001756D01*
X024968Y001697D01*
X024978Y001634D01*
X024975Y001571D01*
X024959Y001510D01*
X024931Y001453D01*
X024892Y001404D01*
X024844Y001363D01*
X024788Y001333D01*
X024929Y000992D01*
X025029Y001043D01*
X025277Y000841D01*
X025446Y001011D01*
X025244Y001258D01*
X025296Y001358D01*
X025330Y001465D01*
X025647Y001497D01*
X025647Y001737D01*
X025330Y001769D01*
X025296Y001876D01*
X025244Y001976D01*
X025446Y002223D01*
X025277Y002393D01*
X025029Y002191D01*
X024929Y002242D01*
X024823Y002276D01*
X024790Y002594D01*
X024551Y002594D01*
X024550Y002590D02*
X024791Y002590D01*
X024797Y002532D02*
X024544Y002532D01*
X024538Y002474D02*
X024803Y002474D01*
X024808Y002417D02*
X024533Y002417D01*
X024527Y002359D02*
X024814Y002359D01*
X024820Y002302D02*
X024521Y002302D01*
X024418Y002244D02*
X024923Y002244D01*
X025095Y002244D02*
X025425Y002244D01*
X025417Y002187D02*
X023924Y002187D01*
X023916Y002244D02*
X024246Y002244D01*
X024176Y002302D02*
X023974Y002302D01*
X024031Y002359D02*
X024105Y002359D01*
X023971Y002129D02*
X025370Y002129D01*
X025323Y002072D02*
X024018Y002072D01*
X024065Y002014D02*
X025276Y002014D01*
X025254Y001956D02*
X024087Y001956D01*
X024057Y001899D02*
X024551Y001899D01*
X024460Y001841D02*
X024034Y001841D01*
X024016Y001784D02*
X024413Y001784D01*
X024384Y001726D02*
X023694Y001726D01*
X023694Y001669D02*
X024368Y001669D01*
X024363Y001611D02*
X023694Y001611D01*
X023694Y001554D02*
X024370Y001554D01*
X024388Y001496D02*
X023703Y001496D01*
X024020Y001438D02*
X024421Y001438D01*
X024476Y001381D02*
X024038Y001381D01*
X024063Y001323D02*
X024549Y001323D01*
X024525Y001266D02*
X024093Y001266D01*
X024056Y001208D02*
X024501Y001208D01*
X024477Y001151D02*
X024009Y001151D01*
X023962Y001093D02*
X024454Y001093D01*
X024430Y001036D02*
X024327Y001036D01*
X024303Y001036D02*
X023915Y001036D01*
X023928Y000978D02*
X024232Y000978D01*
X024162Y000920D02*
X023985Y000920D01*
X024043Y000863D02*
X024091Y000863D01*
X024816Y001266D02*
X025248Y001266D01*
X025278Y001323D02*
X024792Y001323D01*
X024865Y001381D02*
X025303Y001381D01*
X025321Y001438D02*
X024919Y001438D01*
X024952Y001496D02*
X025638Y001496D01*
X025647Y001554D02*
X024970Y001554D01*
X024977Y001611D02*
X025647Y001611D01*
X025647Y001669D02*
X024972Y001669D01*
X024956Y001726D02*
X025647Y001726D01*
X025325Y001784D02*
X024927Y001784D01*
X024879Y001841D02*
X025307Y001841D01*
X025284Y001899D02*
X024789Y001899D01*
X025165Y002302D02*
X025367Y002302D01*
X025310Y002359D02*
X025236Y002359D01*
X025285Y001208D02*
X024840Y001208D01*
X024864Y001151D02*
X025332Y001151D01*
X025379Y001093D02*
X024887Y001093D01*
X024911Y001036D02*
X025015Y001036D01*
X025038Y001036D02*
X025426Y001036D01*
X025413Y000978D02*
X025109Y000978D01*
X025179Y000920D02*
X025356Y000920D01*
X025298Y000863D02*
X025250Y000863D01*
D16*
X024946Y003664D02*
X024671Y003940D01*
X024316Y003940D01*
X024395Y003664D02*
X024671Y003940D01*
X024985Y003940D01*
X021324Y034765D02*
X020642Y035447D01*
X020614Y035976D02*
X020614Y036143D01*
X020447Y036143D01*
X019918Y036171D02*
X019236Y036853D01*
X019695Y037312D01*
X020865Y038482D02*
X021324Y038941D01*
X022006Y038259D01*
X022730Y037535D02*
X023412Y036853D01*
X022953Y036394D01*
X021783Y035225D02*
X021324Y034765D01*
D17*
X004956Y012188D03*
X004090Y012286D03*
X003401Y013763D03*
X003401Y013782D03*
X003401Y013802D03*
X003401Y013822D03*
X003401Y013841D03*
X003401Y013861D03*
X003401Y013881D03*
X003401Y013900D03*
X003401Y013920D03*
X003401Y013940D03*
X003401Y013959D03*
X003401Y013979D03*
X003401Y013999D03*
X003401Y014019D03*
X003401Y014038D03*
X003401Y014058D03*
X003401Y014078D03*
X003401Y014097D03*
X003401Y014117D03*
X003401Y014137D03*
X003401Y014156D03*
X003401Y014176D03*
X003401Y014196D03*
X003401Y014215D03*
X003401Y014235D03*
X003401Y014255D03*
X003401Y014274D03*
X003401Y014294D03*
X003401Y014314D03*
X003401Y014333D03*
X003401Y014353D03*
X003401Y014373D03*
X003401Y014393D03*
X003401Y014412D03*
X003401Y014432D03*
X003401Y014452D03*
X003401Y014471D03*
X003401Y014491D03*
X003401Y014511D03*
X003401Y014530D03*
X003401Y014550D03*
X003401Y014570D03*
X003401Y014589D03*
X003401Y014609D03*
X003401Y014629D03*
X003401Y014648D03*
X003401Y014668D03*
X003401Y014688D03*
X003401Y014707D03*
X003401Y014727D03*
X003401Y014747D03*
X003401Y014767D03*
X003401Y014786D03*
X003401Y014806D03*
X003401Y014826D03*
X003401Y014845D03*
X003401Y014865D03*
X003401Y014885D03*
X003401Y014904D03*
X003401Y014924D03*
X003401Y014944D03*
X003401Y014963D03*
X003401Y014983D03*
X003401Y015003D03*
X003401Y015022D03*
X003401Y015042D03*
X003401Y015062D03*
X003401Y015081D03*
X003401Y015101D03*
X003401Y015121D03*
X003401Y015141D03*
X003401Y015160D03*
X003401Y015180D03*
X003401Y015200D03*
X003401Y015219D03*
X003401Y015239D03*
X003401Y015259D03*
X003401Y015278D03*
X003401Y015298D03*
X003401Y015318D03*
X003401Y015337D03*
X003401Y015357D03*
X003401Y015377D03*
X003401Y015396D03*
X003401Y015416D03*
X003401Y015436D03*
X003401Y015456D03*
X003401Y015475D03*
X003401Y015495D03*
X003401Y015515D03*
X003401Y015534D03*
X003401Y015554D03*
X003401Y015574D03*
X003401Y015593D03*
X003401Y015613D03*
X003401Y015633D03*
X003401Y015652D03*
X003401Y015672D03*
X003401Y015692D03*
X003401Y015711D03*
X003401Y015731D03*
X003401Y015751D03*
X003401Y015770D03*
X003401Y015790D03*
X003401Y015810D03*
X003401Y015830D03*
X003401Y015849D03*
X003401Y015869D03*
X003401Y015889D03*
X003401Y015908D03*
X003401Y015928D03*
X003401Y015948D03*
X003401Y015967D03*
X003401Y015987D03*
X003401Y016007D03*
X003401Y016026D03*
X003401Y016046D03*
X003401Y016066D03*
X003401Y016085D03*
X003401Y016105D03*
X003401Y016125D03*
X003401Y016144D03*
X003401Y016164D03*
X003401Y016184D03*
X003401Y016204D03*
X003401Y016223D03*
X003401Y016243D03*
X003401Y016263D03*
X003401Y016282D03*
X003401Y016302D03*
X003401Y016322D03*
X003401Y016341D03*
X003401Y016361D03*
X003401Y016381D03*
X003401Y016400D03*
X003401Y016420D03*
X003401Y016440D03*
X003401Y016459D03*
X003401Y016479D03*
X003401Y016499D03*
X003401Y016519D03*
X003401Y016538D03*
X003401Y016558D03*
X003401Y016578D03*
X003401Y016597D03*
X003401Y016617D03*
X003401Y016637D03*
X003401Y016656D03*
X003401Y016676D03*
X003401Y016696D03*
X003401Y016715D03*
X003401Y016735D03*
X003401Y016755D03*
X003401Y016774D03*
X003401Y016794D03*
X003401Y016814D03*
X003401Y016833D03*
X003401Y016853D03*
X003401Y016873D03*
X003401Y016893D03*
X003401Y016912D03*
X003401Y016932D03*
X003401Y016952D03*
X003401Y016971D03*
X001865Y012326D03*
X001846Y012207D03*
X001846Y012188D03*
X001846Y012168D03*
X001846Y012148D03*
X001846Y012129D03*
X001846Y012109D03*
X001846Y012089D03*
X001846Y012070D03*
X001846Y012050D03*
X001846Y012030D03*
X001846Y012011D03*
X001846Y011991D03*
X001846Y011971D03*
X001846Y011952D03*
X001846Y011932D03*
X001846Y011912D03*
X001846Y011893D03*
X001846Y011873D03*
X001865Y011755D03*
X003401Y010298D03*
X003401Y010278D03*
X003401Y010259D03*
X003401Y010239D03*
X003401Y010219D03*
X003401Y010200D03*
X003401Y010180D03*
X003401Y010160D03*
X003401Y010141D03*
X003401Y010121D03*
X003401Y010101D03*
X003401Y010081D03*
X003401Y010062D03*
X003401Y010042D03*
X003401Y010022D03*
X003401Y010003D03*
X003401Y009983D03*
X003401Y009963D03*
X003401Y009944D03*
X003401Y009924D03*
X003401Y009904D03*
X003401Y009885D03*
X003401Y009865D03*
X003401Y009845D03*
X003401Y009826D03*
X003401Y009806D03*
X003401Y009786D03*
X003401Y009767D03*
X003401Y009747D03*
X003401Y009727D03*
X003401Y009707D03*
X003401Y009688D03*
X003401Y009668D03*
X003401Y009648D03*
X003401Y009629D03*
X003401Y009609D03*
X003401Y009589D03*
X003401Y009570D03*
X003401Y009550D03*
X003401Y009530D03*
X003401Y009511D03*
X003401Y009491D03*
X003401Y009471D03*
X003401Y009452D03*
X003401Y009432D03*
X003401Y009412D03*
X003401Y009393D03*
X003401Y009373D03*
X003401Y009353D03*
X003401Y009333D03*
X003401Y009314D03*
X003401Y009294D03*
X003401Y009274D03*
X003401Y009255D03*
X003401Y009235D03*
X003401Y009215D03*
X003401Y009196D03*
X003401Y009176D03*
X003401Y009156D03*
X003401Y009137D03*
X003401Y009117D03*
X003401Y009097D03*
X003401Y009078D03*
X003401Y009058D03*
X003401Y009038D03*
X003401Y009019D03*
X003401Y008999D03*
X003401Y008979D03*
X003401Y008959D03*
X003401Y008940D03*
X003401Y008920D03*
X003401Y008900D03*
X003401Y008881D03*
X003401Y008861D03*
X003401Y008841D03*
X003401Y008822D03*
X003401Y008802D03*
X003401Y008782D03*
X003401Y008763D03*
X003401Y008743D03*
X003401Y008723D03*
X003401Y008704D03*
X003401Y008684D03*
X003401Y008664D03*
X003401Y008644D03*
X003401Y008625D03*
X003401Y008605D03*
X003401Y008585D03*
X003401Y008566D03*
X003401Y008546D03*
X003401Y008526D03*
X003401Y008507D03*
X003401Y008487D03*
X003401Y008467D03*
X003401Y008448D03*
X003401Y008428D03*
X003401Y008408D03*
X003401Y008389D03*
X003401Y008369D03*
X003401Y008349D03*
X003401Y008330D03*
X003401Y008310D03*
X003401Y008290D03*
X003401Y008270D03*
X003401Y008251D03*
X003401Y008231D03*
X003401Y008211D03*
X003401Y008192D03*
X003401Y008172D03*
X003401Y008152D03*
X003401Y008133D03*
X003401Y008113D03*
X003401Y008093D03*
X003401Y008074D03*
X003401Y008054D03*
X003401Y008034D03*
X003401Y008015D03*
X003401Y007995D03*
X003401Y007975D03*
X003401Y007956D03*
X003401Y007936D03*
X003401Y007916D03*
X003401Y007896D03*
X003401Y007877D03*
X003401Y007857D03*
X003401Y007837D03*
X003401Y007818D03*
X003401Y007798D03*
X003401Y007778D03*
X003401Y007759D03*
X003401Y007739D03*
X003401Y007719D03*
X003401Y007700D03*
X003401Y007680D03*
X003401Y007660D03*
X003401Y007641D03*
X003401Y007621D03*
X003401Y007601D03*
X003401Y007581D03*
X003401Y007562D03*
X003401Y007542D03*
X003401Y007522D03*
X003401Y007503D03*
X003401Y007483D03*
X003401Y007463D03*
X003401Y007444D03*
X003401Y007424D03*
X003401Y007404D03*
X003401Y007385D03*
X003401Y007365D03*
X003401Y007345D03*
X003401Y007326D03*
X003401Y007306D03*
X003401Y007286D03*
X003401Y007267D03*
X003401Y007247D03*
X003401Y007227D03*
X003401Y007207D03*
X003401Y007188D03*
X003401Y007168D03*
X003401Y007148D03*
D18*
X003401Y010318D03*
X002141Y011125D03*
X002121Y011144D03*
X002102Y011184D03*
X002082Y011204D03*
X002062Y011243D03*
X002043Y012798D03*
X002062Y012837D03*
X002082Y012857D03*
X002082Y012877D03*
X002102Y012896D03*
X002121Y012916D03*
X004700Y012896D03*
X004720Y012877D03*
X004720Y012857D03*
X004739Y012837D03*
X004759Y012798D03*
X004779Y011302D03*
X004759Y011263D03*
X004739Y011243D03*
X004739Y011223D03*
X004720Y011204D03*
X004700Y011184D03*
X004680Y011144D03*
D19*
X003726Y011774D03*
X004178Y013369D03*
X002623Y013369D03*
X002643Y010692D03*
X003411Y010337D03*
D20*
X003401Y010357D03*
X003716Y011833D03*
X003086Y012227D03*
D21*
X003676Y011893D03*
X003401Y010377D03*
D22*
X003401Y010396D03*
D23*
X003401Y010416D03*
D24*
X003411Y010436D03*
D25*
X003401Y010456D03*
D26*
X003401Y010475D03*
D27*
X003401Y010495D03*
D28*
X003401Y010515D03*
D29*
X003411Y010534D03*
D30*
X003401Y010554D03*
D31*
X003401Y010574D03*
D32*
X003411Y010593D03*
D33*
X003401Y010613D03*
D34*
X002791Y010633D03*
X003716Y011814D03*
X003086Y012247D03*
X002771Y013428D03*
X004011Y010633D03*
D35*
X004080Y010652D03*
X003076Y012267D03*
X002722Y010652D03*
D36*
X002682Y010672D03*
D37*
X003066Y012286D03*
X002672Y013389D03*
X004149Y013389D03*
X004129Y010672D03*
D38*
X004169Y010692D03*
X004208Y010711D03*
D39*
X003056Y012306D03*
X002584Y013349D03*
X004218Y013349D03*
X002604Y010711D03*
D40*
X002574Y010731D03*
X003735Y011755D03*
X004050Y012168D03*
X004247Y013330D03*
X002554Y013330D03*
X004247Y010731D03*
D41*
X004277Y010751D03*
X002741Y011893D03*
X002505Y010770D03*
X002525Y010751D03*
X002525Y013310D03*
X004277Y013310D03*
X004316Y013290D03*
D42*
X004346Y013270D03*
X004090Y012188D03*
X004326Y010790D03*
X004306Y010770D03*
X002476Y010790D03*
X002495Y013290D03*
D43*
X002466Y013270D03*
X003056Y012326D03*
X002722Y011873D03*
X002446Y010810D03*
X004356Y010810D03*
X004395Y013231D03*
X004375Y013251D03*
D44*
X004424Y013211D03*
X004109Y012207D03*
X003735Y011735D03*
X004405Y010849D03*
X004385Y010830D03*
X002417Y010830D03*
X002397Y010849D03*
X002417Y013231D03*
X002436Y013251D03*
D45*
X002387Y013211D03*
X002367Y013192D03*
X002722Y011853D03*
X002348Y010889D03*
X002367Y010869D03*
X004434Y010869D03*
X004454Y010889D03*
X004474Y010908D03*
X004434Y013192D03*
D46*
X004464Y013172D03*
X004484Y013152D03*
X004503Y013133D03*
X004523Y013113D03*
X003401Y013743D03*
X002338Y013172D03*
X002318Y013152D03*
X002298Y013133D03*
X002279Y013113D03*
X002338Y010908D03*
D47*
X002308Y010928D03*
X002289Y010948D03*
X002269Y010967D03*
X002249Y010987D03*
X003037Y012345D03*
X004100Y012227D03*
X004552Y013093D03*
X004572Y011007D03*
X004552Y010987D03*
X004533Y010967D03*
X004513Y010948D03*
X004493Y010928D03*
D48*
X004582Y011026D03*
X004602Y011046D03*
X004621Y011066D03*
X003735Y011715D03*
X004661Y012956D03*
X004621Y013015D03*
X004602Y013034D03*
X004582Y013054D03*
X004562Y013074D03*
X002712Y011833D03*
X002180Y011066D03*
X002200Y011046D03*
X002220Y011026D03*
X002239Y011007D03*
X002200Y013034D03*
X002220Y013054D03*
X002239Y013074D03*
X002259Y013093D03*
D49*
X002190Y013015D03*
X002171Y012995D03*
X002151Y012975D03*
X002151Y012956D03*
X002131Y012936D03*
X002111Y011164D03*
X002151Y011105D03*
X002171Y011085D03*
X004100Y012247D03*
X004690Y012916D03*
X004671Y012936D03*
X004651Y012975D03*
X004631Y012995D03*
X004690Y011164D03*
X004671Y011125D03*
X004651Y011105D03*
X004631Y011085D03*
D50*
X004769Y011282D03*
X004789Y011322D03*
X004789Y011341D03*
X004808Y011361D03*
X004828Y011400D03*
X004848Y012621D03*
X004828Y012660D03*
X004828Y012680D03*
X004808Y012700D03*
X004808Y012719D03*
X004789Y012739D03*
X004789Y012759D03*
X004769Y012778D03*
X004749Y012818D03*
X003037Y012365D03*
X002722Y011814D03*
X002033Y011302D03*
X002033Y011282D03*
X002052Y011263D03*
X002072Y011223D03*
X002013Y011322D03*
X001993Y011361D03*
X001954Y012621D03*
X001974Y012660D03*
X001993Y012700D03*
X001993Y012719D03*
X002013Y012739D03*
X002013Y012759D03*
X002033Y012778D03*
X002052Y012818D03*
D51*
X001984Y012680D03*
X001964Y012641D03*
X001944Y012601D03*
X001944Y012581D03*
X001924Y012562D03*
X001924Y012542D03*
X001905Y012483D03*
X001905Y011597D03*
X001924Y011538D03*
X001924Y011519D03*
X001944Y011479D03*
X001944Y011459D03*
X001964Y011440D03*
X001964Y011420D03*
X001984Y011400D03*
X001984Y011381D03*
X002003Y011341D03*
X004090Y012267D03*
X004838Y012641D03*
X004858Y012601D03*
X004858Y012581D03*
X004877Y012562D03*
X004877Y012542D03*
X004877Y012522D03*
X004897Y012503D03*
X004897Y012483D03*
X004897Y012463D03*
X004917Y012424D03*
X004917Y012404D03*
X004936Y012326D03*
X004936Y011755D03*
X004917Y011676D03*
X004917Y011656D03*
X004897Y011597D03*
X004897Y011578D03*
X004877Y011538D03*
X004877Y011519D03*
X004858Y011499D03*
X004858Y011479D03*
X004858Y011459D03*
X004838Y011440D03*
X004838Y011420D03*
X004818Y011381D03*
D52*
X004887Y011558D03*
X004907Y011617D03*
X004907Y011637D03*
X004926Y011696D03*
X004926Y011715D03*
X004926Y011735D03*
X004946Y011774D03*
X004946Y011794D03*
X004946Y011814D03*
X004946Y011833D03*
X004946Y011853D03*
X004946Y011873D03*
X004966Y011893D03*
X004966Y011912D03*
X004966Y011932D03*
X004966Y011952D03*
X004966Y011971D03*
X004966Y011991D03*
X004966Y012011D03*
X004966Y012030D03*
X004966Y012050D03*
X004966Y012070D03*
X004966Y012089D03*
X004966Y012109D03*
X004966Y012129D03*
X004966Y012148D03*
X004966Y012168D03*
X004946Y012207D03*
X004946Y012227D03*
X004946Y012247D03*
X004946Y012267D03*
X004946Y012286D03*
X004946Y012306D03*
X004926Y012345D03*
X004926Y012365D03*
X004926Y012385D03*
X004907Y012444D03*
X003745Y011696D03*
X002722Y011794D03*
X001915Y011578D03*
X001915Y011558D03*
X001934Y011499D03*
X001895Y011617D03*
X001895Y011637D03*
X001895Y011656D03*
X001875Y011676D03*
X001875Y011696D03*
X001875Y011715D03*
X001875Y011735D03*
X001856Y011774D03*
X001856Y011794D03*
X001856Y011814D03*
X001856Y011833D03*
X001856Y011853D03*
X001856Y012227D03*
X001856Y012247D03*
X001856Y012267D03*
X001856Y012286D03*
X001856Y012306D03*
X001875Y012345D03*
X001875Y012365D03*
X001875Y012385D03*
X001875Y012404D03*
X001895Y012424D03*
X001895Y012444D03*
X001895Y012463D03*
X001915Y012503D03*
X001915Y012522D03*
D53*
X002771Y011676D03*
X004050Y012404D03*
D54*
X003735Y011676D03*
D55*
X002761Y011696D03*
D56*
X002761Y011715D03*
D57*
X002741Y011735D03*
D58*
X002732Y011755D03*
X003027Y012385D03*
D59*
X002732Y011774D03*
D60*
X003716Y011794D03*
X004090Y013408D03*
X003401Y013723D03*
X002712Y013408D03*
D61*
X002859Y013448D03*
X003411Y013704D03*
X003706Y011853D03*
D62*
X003686Y011873D03*
D63*
X003421Y012070D03*
X003460Y012129D03*
X003361Y011971D03*
X003342Y011932D03*
X003322Y011912D03*
D64*
X003352Y011952D03*
X003371Y011991D03*
X003391Y012011D03*
X003391Y012030D03*
X003411Y012050D03*
X003430Y012089D03*
X003450Y012109D03*
X003470Y012148D03*
X003411Y013526D03*
D65*
X003135Y012168D03*
D66*
X003115Y012188D03*
D67*
X003106Y012207D03*
X003952Y013448D03*
D68*
X004080Y012306D03*
D69*
X004080Y012326D03*
D70*
X004070Y012345D03*
D71*
X004070Y012365D03*
D72*
X004050Y012385D03*
D73*
X004041Y013428D03*
D74*
X003401Y013467D03*
D75*
X003411Y013487D03*
D76*
X003401Y013507D03*
D77*
X003411Y013546D03*
D78*
X003401Y013566D03*
D79*
X003401Y013585D03*
D80*
X003411Y013605D03*
D81*
X003411Y013625D03*
D82*
X003401Y013644D03*
D83*
X003401Y013664D03*
D84*
X003401Y013684D03*
M02*
