G75*
G70*
%OFA0B0*%
%FSLAX24Y24*%
%IPPOS*%
%LPD*%
%AMOC8*
5,1,8,0,0,1.08239X$1,22.5*
%
%ADD10C,0.0034*%
%ADD11C,0.0035*%
%ADD12R,0.1024X0.0591*%
%ADD13C,0.0036*%
%ADD14C,0.0035*%
%ADD15C,0.0067*%
%ADD16C,0.0051*%
D10*
X002738Y004959D02*
X002738Y005185D01*
X003264Y005185D01*
X003264Y004959D01*
X002738Y004959D01*
X002738Y004992D02*
X003264Y004992D01*
X003264Y005025D02*
X002738Y005025D01*
X002738Y005058D02*
X003264Y005058D01*
X003264Y005091D02*
X002738Y005091D01*
X002738Y005124D02*
X003264Y005124D01*
X003264Y005157D02*
X002738Y005157D01*
X002738Y006459D02*
X002738Y006685D01*
X003264Y006685D01*
X003264Y006459D01*
X002738Y006459D01*
X002738Y006492D02*
X003264Y006492D01*
X003264Y006525D02*
X002738Y006525D01*
X002738Y006558D02*
X003264Y006558D01*
X003264Y006591D02*
X002738Y006591D01*
X002738Y006624D02*
X003264Y006624D01*
X003264Y006657D02*
X002738Y006657D01*
X004738Y006685D02*
X004738Y006459D01*
X004738Y006685D02*
X005264Y006685D01*
X005264Y006459D01*
X004738Y006459D01*
X004738Y006492D02*
X005264Y006492D01*
X005264Y006525D02*
X004738Y006525D01*
X004738Y006558D02*
X005264Y006558D01*
X005264Y006591D02*
X004738Y006591D01*
X004738Y006624D02*
X005264Y006624D01*
X005264Y006657D02*
X004738Y006657D01*
X004738Y005185D02*
X004738Y004959D01*
X004738Y005185D02*
X005264Y005185D01*
X005264Y004959D01*
X004738Y004959D01*
X004738Y004992D02*
X005264Y004992D01*
X005264Y005025D02*
X004738Y005025D01*
X004738Y005058D02*
X005264Y005058D01*
X005264Y005091D02*
X004738Y005091D01*
X004738Y005124D02*
X005264Y005124D01*
X005264Y005157D02*
X004738Y005157D01*
X005894Y030636D02*
X006120Y030636D01*
X006120Y030110D01*
X005894Y030110D01*
X005894Y030636D01*
X005894Y030143D02*
X006120Y030143D01*
X006120Y030176D02*
X005894Y030176D01*
X005894Y030209D02*
X006120Y030209D01*
X006120Y030242D02*
X005894Y030242D01*
X005894Y030275D02*
X006120Y030275D01*
X006120Y030308D02*
X005894Y030308D01*
X005894Y030341D02*
X006120Y030341D01*
X006120Y030374D02*
X005894Y030374D01*
X005894Y030407D02*
X006120Y030407D01*
X006120Y030440D02*
X005894Y030440D01*
X005894Y030473D02*
X006120Y030473D01*
X006120Y030506D02*
X005894Y030506D01*
X005894Y030539D02*
X006120Y030539D01*
X006120Y030572D02*
X005894Y030572D01*
X005894Y030605D02*
X006120Y030605D01*
X006120Y032636D02*
X005894Y032636D01*
X006120Y032636D02*
X006120Y032110D01*
X005894Y032110D01*
X005894Y032636D01*
X005894Y032143D02*
X006120Y032143D01*
X006120Y032176D02*
X005894Y032176D01*
X005894Y032209D02*
X006120Y032209D01*
X006120Y032242D02*
X005894Y032242D01*
X005894Y032275D02*
X006120Y032275D01*
X006120Y032308D02*
X005894Y032308D01*
X005894Y032341D02*
X006120Y032341D01*
X006120Y032374D02*
X005894Y032374D01*
X005894Y032407D02*
X006120Y032407D01*
X006120Y032440D02*
X005894Y032440D01*
X005894Y032473D02*
X006120Y032473D01*
X006120Y032506D02*
X005894Y032506D01*
X005894Y032539D02*
X006120Y032539D01*
X006120Y032572D02*
X005894Y032572D01*
X005894Y032605D02*
X006120Y032605D01*
X007394Y032636D02*
X007620Y032636D01*
X007620Y032110D01*
X007394Y032110D01*
X007394Y032636D01*
X007394Y032143D02*
X007620Y032143D01*
X007620Y032176D02*
X007394Y032176D01*
X007394Y032209D02*
X007620Y032209D01*
X007620Y032242D02*
X007394Y032242D01*
X007394Y032275D02*
X007620Y032275D01*
X007620Y032308D02*
X007394Y032308D01*
X007394Y032341D02*
X007620Y032341D01*
X007620Y032374D02*
X007394Y032374D01*
X007394Y032407D02*
X007620Y032407D01*
X007620Y032440D02*
X007394Y032440D01*
X007394Y032473D02*
X007620Y032473D01*
X007620Y032506D02*
X007394Y032506D01*
X007394Y032539D02*
X007620Y032539D01*
X007620Y032572D02*
X007394Y032572D01*
X007394Y032605D02*
X007620Y032605D01*
X008453Y032998D02*
X008679Y032998D01*
X008679Y032472D01*
X008453Y032472D01*
X008453Y032998D01*
X008453Y032505D02*
X008679Y032505D01*
X008679Y032538D02*
X008453Y032538D01*
X008453Y032571D02*
X008679Y032571D01*
X008679Y032604D02*
X008453Y032604D01*
X008453Y032637D02*
X008679Y032637D01*
X008679Y032670D02*
X008453Y032670D01*
X008453Y032703D02*
X008679Y032703D01*
X008679Y032736D02*
X008453Y032736D01*
X008453Y032769D02*
X008679Y032769D01*
X008679Y032802D02*
X008453Y032802D01*
X008453Y032835D02*
X008679Y032835D01*
X008679Y032868D02*
X008453Y032868D01*
X008453Y032901D02*
X008679Y032901D01*
X008679Y032934D02*
X008453Y032934D01*
X008453Y032967D02*
X008679Y032967D01*
X008679Y034998D02*
X008453Y034998D01*
X008679Y034998D02*
X008679Y034472D01*
X008453Y034472D01*
X008453Y034998D01*
X008453Y034505D02*
X008679Y034505D01*
X008679Y034538D02*
X008453Y034538D01*
X008453Y034571D02*
X008679Y034571D01*
X008679Y034604D02*
X008453Y034604D01*
X008453Y034637D02*
X008679Y034637D01*
X008679Y034670D02*
X008453Y034670D01*
X008453Y034703D02*
X008679Y034703D01*
X008679Y034736D02*
X008453Y034736D01*
X008453Y034769D02*
X008679Y034769D01*
X008679Y034802D02*
X008453Y034802D01*
X008453Y034835D02*
X008679Y034835D01*
X008679Y034868D02*
X008453Y034868D01*
X008453Y034901D02*
X008679Y034901D01*
X008679Y034934D02*
X008453Y034934D01*
X008453Y034967D02*
X008679Y034967D01*
X009953Y034998D02*
X010179Y034998D01*
X010179Y034472D01*
X009953Y034472D01*
X009953Y034998D01*
X009953Y034505D02*
X010179Y034505D01*
X010179Y034538D02*
X009953Y034538D01*
X009953Y034571D02*
X010179Y034571D01*
X010179Y034604D02*
X009953Y034604D01*
X009953Y034637D02*
X010179Y034637D01*
X010179Y034670D02*
X009953Y034670D01*
X009953Y034703D02*
X010179Y034703D01*
X010179Y034736D02*
X009953Y034736D01*
X009953Y034769D02*
X010179Y034769D01*
X010179Y034802D02*
X009953Y034802D01*
X009953Y034835D02*
X010179Y034835D01*
X010179Y034868D02*
X009953Y034868D01*
X009953Y034901D02*
X010179Y034901D01*
X010179Y034934D02*
X009953Y034934D01*
X009953Y034967D02*
X010179Y034967D01*
X010179Y032998D02*
X009953Y032998D01*
X010179Y032998D02*
X010179Y032472D01*
X009953Y032472D01*
X009953Y032998D01*
X009953Y032505D02*
X010179Y032505D01*
X010179Y032538D02*
X009953Y032538D01*
X009953Y032571D02*
X010179Y032571D01*
X010179Y032604D02*
X009953Y032604D01*
X009953Y032637D02*
X010179Y032637D01*
X010179Y032670D02*
X009953Y032670D01*
X009953Y032703D02*
X010179Y032703D01*
X010179Y032736D02*
X009953Y032736D01*
X009953Y032769D02*
X010179Y032769D01*
X010179Y032802D02*
X009953Y032802D01*
X009953Y032835D02*
X010179Y032835D01*
X010179Y032868D02*
X009953Y032868D01*
X009953Y032901D02*
X010179Y032901D01*
X010179Y032934D02*
X009953Y032934D01*
X009953Y032967D02*
X010179Y032967D01*
X007620Y030636D02*
X007394Y030636D01*
X007620Y030636D02*
X007620Y030110D01*
X007394Y030110D01*
X007394Y030636D01*
X007394Y030143D02*
X007620Y030143D01*
X007620Y030176D02*
X007394Y030176D01*
X007394Y030209D02*
X007620Y030209D01*
X007620Y030242D02*
X007394Y030242D01*
X007394Y030275D02*
X007620Y030275D01*
X007620Y030308D02*
X007394Y030308D01*
X007394Y030341D02*
X007620Y030341D01*
X007620Y030374D02*
X007394Y030374D01*
X007394Y030407D02*
X007620Y030407D01*
X007620Y030440D02*
X007394Y030440D01*
X007394Y030473D02*
X007620Y030473D01*
X007620Y030506D02*
X007394Y030506D01*
X007394Y030539D02*
X007620Y030539D01*
X007620Y030572D02*
X007394Y030572D01*
X007394Y030605D02*
X007620Y030605D01*
D11*
X012956Y033458D02*
X012956Y033856D01*
X013236Y033856D01*
X013236Y033458D01*
X012956Y033458D01*
X012956Y033492D02*
X013236Y033492D01*
X013236Y033526D02*
X012956Y033526D01*
X012956Y033560D02*
X013236Y033560D01*
X013236Y033594D02*
X012956Y033594D01*
X012956Y033628D02*
X013236Y033628D01*
X013236Y033662D02*
X012956Y033662D01*
X012956Y033696D02*
X013236Y033696D01*
X013236Y033730D02*
X012956Y033730D01*
X012956Y033764D02*
X013236Y033764D01*
X013236Y033798D02*
X012956Y033798D01*
X012956Y033832D02*
X013236Y033832D01*
X013664Y033856D02*
X013664Y033458D01*
X013664Y033856D02*
X013944Y033856D01*
X013944Y033458D01*
X013664Y033458D01*
X013664Y033492D02*
X013944Y033492D01*
X013944Y033526D02*
X013664Y033526D01*
X013664Y033560D02*
X013944Y033560D01*
X013944Y033594D02*
X013664Y033594D01*
X013664Y033628D02*
X013944Y033628D01*
X013944Y033662D02*
X013664Y033662D01*
X013664Y033696D02*
X013944Y033696D01*
X013944Y033730D02*
X013664Y033730D01*
X013664Y033764D02*
X013944Y033764D01*
X013944Y033798D02*
X013664Y033798D01*
X013664Y033832D02*
X013944Y033832D01*
X013664Y034481D02*
X013664Y034879D01*
X013944Y034879D01*
X013944Y034481D01*
X013664Y034481D01*
X013664Y034515D02*
X013944Y034515D01*
X013944Y034549D02*
X013664Y034549D01*
X013664Y034583D02*
X013944Y034583D01*
X013944Y034617D02*
X013664Y034617D01*
X013664Y034651D02*
X013944Y034651D01*
X013944Y034685D02*
X013664Y034685D01*
X013664Y034719D02*
X013944Y034719D01*
X013944Y034753D02*
X013664Y034753D01*
X013664Y034787D02*
X013944Y034787D01*
X013944Y034821D02*
X013664Y034821D01*
X013664Y034855D02*
X013944Y034855D01*
X012956Y034879D02*
X012956Y034481D01*
X012956Y034879D02*
X013236Y034879D01*
X013236Y034481D01*
X012956Y034481D01*
X012956Y034515D02*
X013236Y034515D01*
X013236Y034549D02*
X012956Y034549D01*
X012956Y034583D02*
X013236Y034583D01*
X013236Y034617D02*
X012956Y034617D01*
X012956Y034651D02*
X013236Y034651D01*
X013236Y034685D02*
X012956Y034685D01*
X012956Y034719D02*
X013236Y034719D01*
X013236Y034753D02*
X012956Y034753D01*
X012956Y034787D02*
X013236Y034787D01*
X013236Y034821D02*
X012956Y034821D01*
X012956Y034855D02*
X013236Y034855D01*
X015318Y034879D02*
X015318Y034481D01*
X015318Y034879D02*
X015598Y034879D01*
X015598Y034481D01*
X015318Y034481D01*
X015318Y034515D02*
X015598Y034515D01*
X015598Y034549D02*
X015318Y034549D01*
X015318Y034583D02*
X015598Y034583D01*
X015598Y034617D02*
X015318Y034617D01*
X015318Y034651D02*
X015598Y034651D01*
X015598Y034685D02*
X015318Y034685D01*
X015318Y034719D02*
X015598Y034719D01*
X015598Y034753D02*
X015318Y034753D01*
X015318Y034787D02*
X015598Y034787D01*
X015598Y034821D02*
X015318Y034821D01*
X015318Y034855D02*
X015598Y034855D01*
X016027Y034879D02*
X016027Y034481D01*
X016027Y034879D02*
X016307Y034879D01*
X016307Y034481D01*
X016027Y034481D01*
X016027Y034515D02*
X016307Y034515D01*
X016307Y034549D02*
X016027Y034549D01*
X016027Y034583D02*
X016307Y034583D01*
X016307Y034617D02*
X016027Y034617D01*
X016027Y034651D02*
X016307Y034651D01*
X016307Y034685D02*
X016027Y034685D01*
X016027Y034719D02*
X016307Y034719D01*
X016307Y034753D02*
X016027Y034753D01*
X016027Y034787D02*
X016307Y034787D01*
X016307Y034821D02*
X016027Y034821D01*
X016027Y034855D02*
X016307Y034855D01*
X016027Y033856D02*
X016027Y033458D01*
X016027Y033856D02*
X016307Y033856D01*
X016307Y033458D01*
X016027Y033458D01*
X016027Y033492D02*
X016307Y033492D01*
X016307Y033526D02*
X016027Y033526D01*
X016027Y033560D02*
X016307Y033560D01*
X016307Y033594D02*
X016027Y033594D01*
X016027Y033628D02*
X016307Y033628D01*
X016307Y033662D02*
X016027Y033662D01*
X016027Y033696D02*
X016307Y033696D01*
X016307Y033730D02*
X016027Y033730D01*
X016027Y033764D02*
X016307Y033764D01*
X016307Y033798D02*
X016027Y033798D01*
X016027Y033832D02*
X016307Y033832D01*
X015318Y033856D02*
X015318Y033458D01*
X015318Y033856D02*
X015598Y033856D01*
X015598Y033458D01*
X015318Y033458D01*
X015318Y033492D02*
X015598Y033492D01*
X015598Y033526D02*
X015318Y033526D01*
X015318Y033560D02*
X015598Y033560D01*
X015598Y033594D02*
X015318Y033594D01*
X015318Y033628D02*
X015598Y033628D01*
X015598Y033662D02*
X015318Y033662D01*
X015318Y033696D02*
X015598Y033696D01*
X015598Y033730D02*
X015318Y033730D01*
X015318Y033764D02*
X015598Y033764D01*
X015598Y033798D02*
X015318Y033798D01*
X015318Y033832D02*
X015598Y033832D01*
D12*
X024671Y004444D03*
X024671Y003263D03*
D13*
X008451Y001315D02*
X008451Y001077D01*
X008213Y001077D01*
X008213Y001315D01*
X008451Y001315D01*
X008451Y001112D02*
X008213Y001112D01*
X008213Y001147D02*
X008451Y001147D01*
X008451Y001182D02*
X008213Y001182D01*
X008213Y001217D02*
X008451Y001217D01*
X008451Y001252D02*
X008213Y001252D01*
X008213Y001287D02*
X008451Y001287D01*
X007860Y001315D02*
X007860Y001077D01*
X007622Y001077D01*
X007622Y001315D01*
X007860Y001315D01*
X007860Y001112D02*
X007622Y001112D01*
X007622Y001147D02*
X007860Y001147D01*
X007860Y001182D02*
X007622Y001182D01*
X007622Y001217D02*
X007860Y001217D01*
X007860Y001252D02*
X007622Y001252D01*
X007622Y001287D02*
X007860Y001287D01*
X007130Y001315D02*
X007130Y001077D01*
X007130Y001315D02*
X007368Y001315D01*
X007368Y001077D01*
X007130Y001077D01*
X007130Y001112D02*
X007368Y001112D01*
X007368Y001147D02*
X007130Y001147D01*
X007130Y001182D02*
X007368Y001182D01*
X007368Y001217D02*
X007130Y001217D01*
X007130Y001252D02*
X007368Y001252D01*
X007368Y001287D02*
X007130Y001287D01*
X006540Y001315D02*
X006540Y001077D01*
X006540Y001315D02*
X006778Y001315D01*
X006778Y001077D01*
X006540Y001077D01*
X006540Y001112D02*
X006778Y001112D01*
X006778Y001147D02*
X006540Y001147D01*
X006540Y001182D02*
X006778Y001182D01*
X006778Y001217D02*
X006540Y001217D01*
X006540Y001252D02*
X006778Y001252D01*
X006778Y001287D02*
X006540Y001287D01*
X006823Y027041D02*
X006823Y027673D01*
X006823Y027041D02*
X006585Y027041D01*
X006585Y027673D01*
X006823Y027673D01*
X006823Y027076D02*
X006585Y027076D01*
X006585Y027111D02*
X006823Y027111D01*
X006823Y027146D02*
X006585Y027146D01*
X006585Y027181D02*
X006823Y027181D01*
X006823Y027216D02*
X006585Y027216D01*
X006585Y027251D02*
X006823Y027251D01*
X006823Y027286D02*
X006585Y027286D01*
X006585Y027321D02*
X006823Y027321D01*
X006823Y027356D02*
X006585Y027356D01*
X006585Y027391D02*
X006823Y027391D01*
X006823Y027426D02*
X006585Y027426D01*
X006585Y027461D02*
X006823Y027461D01*
X006823Y027496D02*
X006585Y027496D01*
X006585Y027531D02*
X006823Y027531D01*
X006823Y027566D02*
X006585Y027566D01*
X006585Y027601D02*
X006823Y027601D01*
X006823Y027636D02*
X006585Y027636D01*
X006585Y027671D02*
X006823Y027671D01*
X007323Y027673D02*
X007323Y027041D01*
X007085Y027041D01*
X007085Y027673D01*
X007323Y027673D01*
X007323Y027076D02*
X007085Y027076D01*
X007085Y027111D02*
X007323Y027111D01*
X007323Y027146D02*
X007085Y027146D01*
X007085Y027181D02*
X007323Y027181D01*
X007323Y027216D02*
X007085Y027216D01*
X007085Y027251D02*
X007323Y027251D01*
X007323Y027286D02*
X007085Y027286D01*
X007085Y027321D02*
X007323Y027321D01*
X007323Y027356D02*
X007085Y027356D01*
X007085Y027391D02*
X007323Y027391D01*
X007323Y027426D02*
X007085Y027426D01*
X007085Y027461D02*
X007323Y027461D01*
X007323Y027496D02*
X007085Y027496D01*
X007085Y027531D02*
X007323Y027531D01*
X007323Y027566D02*
X007085Y027566D01*
X007085Y027601D02*
X007323Y027601D01*
X007323Y027636D02*
X007085Y027636D01*
X007085Y027671D02*
X007323Y027671D01*
X007823Y027673D02*
X007823Y027041D01*
X007585Y027041D01*
X007585Y027673D01*
X007823Y027673D01*
X007823Y027076D02*
X007585Y027076D01*
X007585Y027111D02*
X007823Y027111D01*
X007823Y027146D02*
X007585Y027146D01*
X007585Y027181D02*
X007823Y027181D01*
X007823Y027216D02*
X007585Y027216D01*
X007585Y027251D02*
X007823Y027251D01*
X007823Y027286D02*
X007585Y027286D01*
X007585Y027321D02*
X007823Y027321D01*
X007823Y027356D02*
X007585Y027356D01*
X007585Y027391D02*
X007823Y027391D01*
X007823Y027426D02*
X007585Y027426D01*
X007585Y027461D02*
X007823Y027461D01*
X007823Y027496D02*
X007585Y027496D01*
X007585Y027531D02*
X007823Y027531D01*
X007823Y027566D02*
X007585Y027566D01*
X007585Y027601D02*
X007823Y027601D01*
X007823Y027636D02*
X007585Y027636D01*
X007585Y027671D02*
X007823Y027671D01*
X006323Y027673D02*
X006323Y027041D01*
X006085Y027041D01*
X006085Y027673D01*
X006323Y027673D01*
X006323Y027076D02*
X006085Y027076D01*
X006085Y027111D02*
X006323Y027111D01*
X006323Y027146D02*
X006085Y027146D01*
X006085Y027181D02*
X006323Y027181D01*
X006323Y027216D02*
X006085Y027216D01*
X006085Y027251D02*
X006323Y027251D01*
X006323Y027286D02*
X006085Y027286D01*
X006085Y027321D02*
X006323Y027321D01*
X006323Y027356D02*
X006085Y027356D01*
X006085Y027391D02*
X006323Y027391D01*
X006323Y027426D02*
X006085Y027426D01*
X006085Y027461D02*
X006323Y027461D01*
X006323Y027496D02*
X006085Y027496D01*
X006085Y027531D02*
X006323Y027531D01*
X006323Y027566D02*
X006085Y027566D01*
X006085Y027601D02*
X006323Y027601D01*
X006323Y027636D02*
X006085Y027636D01*
X006085Y027671D02*
X006323Y027671D01*
D14*
X018745Y034689D02*
X019067Y034367D01*
X018841Y034141D01*
X018519Y034463D01*
X018745Y034689D01*
X018807Y034175D02*
X018875Y034175D01*
X018909Y034209D02*
X018773Y034209D01*
X018739Y034243D02*
X018943Y034243D01*
X018977Y034277D02*
X018705Y034277D01*
X018671Y034311D02*
X019011Y034311D01*
X019045Y034345D02*
X018637Y034345D01*
X018603Y034379D02*
X019055Y034379D01*
X019021Y034413D02*
X018569Y034413D01*
X018535Y034447D02*
X018987Y034447D01*
X018953Y034481D02*
X018537Y034481D01*
X018571Y034515D02*
X018919Y034515D01*
X018885Y034549D02*
X018605Y034549D01*
X018639Y034583D02*
X018851Y034583D01*
X018817Y034617D02*
X018673Y034617D01*
X018707Y034651D02*
X018783Y034651D01*
X018749Y034685D02*
X018741Y034685D01*
X019100Y035044D02*
X019422Y034722D01*
X019196Y034496D01*
X018874Y034818D01*
X019100Y035044D01*
X019162Y034530D02*
X019230Y034530D01*
X019264Y034564D02*
X019128Y034564D01*
X019094Y034598D02*
X019298Y034598D01*
X019332Y034632D02*
X019060Y034632D01*
X019026Y034666D02*
X019366Y034666D01*
X019400Y034700D02*
X018992Y034700D01*
X018958Y034734D02*
X019410Y034734D01*
X019376Y034768D02*
X018924Y034768D01*
X018890Y034802D02*
X019342Y034802D01*
X019308Y034836D02*
X018892Y034836D01*
X018926Y034870D02*
X019274Y034870D01*
X019240Y034904D02*
X018960Y034904D01*
X018994Y034938D02*
X019206Y034938D01*
X019172Y034972D02*
X019028Y034972D01*
X019062Y035006D02*
X019138Y035006D01*
X019104Y035040D02*
X019096Y035040D01*
X019455Y035399D02*
X019777Y035077D01*
X019551Y034851D01*
X019229Y035173D01*
X019455Y035399D01*
X019517Y034885D02*
X019585Y034885D01*
X019619Y034919D02*
X019483Y034919D01*
X019449Y034953D02*
X019653Y034953D01*
X019687Y034987D02*
X019415Y034987D01*
X019381Y035021D02*
X019721Y035021D01*
X019755Y035055D02*
X019347Y035055D01*
X019313Y035089D02*
X019765Y035089D01*
X019731Y035123D02*
X019279Y035123D01*
X019245Y035157D02*
X019697Y035157D01*
X019663Y035191D02*
X019247Y035191D01*
X019281Y035225D02*
X019629Y035225D01*
X019595Y035259D02*
X019315Y035259D01*
X019349Y035293D02*
X019561Y035293D01*
X019527Y035327D02*
X019383Y035327D01*
X019417Y035361D02*
X019493Y035361D01*
X019459Y035395D02*
X019451Y035395D01*
X021090Y033053D02*
X021412Y032731D01*
X021186Y032505D01*
X020864Y032827D01*
X021090Y033053D01*
X021152Y032539D02*
X021220Y032539D01*
X021254Y032573D02*
X021118Y032573D01*
X021084Y032607D02*
X021288Y032607D01*
X021322Y032641D02*
X021050Y032641D01*
X021016Y032675D02*
X021356Y032675D01*
X021390Y032709D02*
X020982Y032709D01*
X020948Y032743D02*
X021400Y032743D01*
X021366Y032777D02*
X020914Y032777D01*
X020880Y032811D02*
X021332Y032811D01*
X021298Y032845D02*
X020882Y032845D01*
X020916Y032879D02*
X021264Y032879D01*
X021230Y032913D02*
X020950Y032913D01*
X020984Y032947D02*
X021196Y032947D01*
X021162Y032981D02*
X021018Y032981D01*
X021052Y033015D02*
X021128Y033015D01*
X021094Y033049D02*
X021086Y033049D01*
X021445Y033408D02*
X021767Y033086D01*
X021541Y032860D01*
X021219Y033182D01*
X021445Y033408D01*
X021507Y032894D02*
X021575Y032894D01*
X021609Y032928D02*
X021473Y032928D01*
X021439Y032962D02*
X021643Y032962D01*
X021677Y032996D02*
X021405Y032996D01*
X021371Y033030D02*
X021711Y033030D01*
X021745Y033064D02*
X021337Y033064D01*
X021303Y033098D02*
X021755Y033098D01*
X021721Y033132D02*
X021269Y033132D01*
X021235Y033166D02*
X021687Y033166D01*
X021653Y033200D02*
X021237Y033200D01*
X021271Y033234D02*
X021619Y033234D01*
X021585Y033268D02*
X021305Y033268D01*
X021339Y033302D02*
X021551Y033302D01*
X021517Y033336D02*
X021373Y033336D01*
X021407Y033370D02*
X021483Y033370D01*
X021449Y033404D02*
X021441Y033404D01*
X020735Y032699D02*
X021057Y032377D01*
X020831Y032151D01*
X020509Y032473D01*
X020735Y032699D01*
X020797Y032185D02*
X020865Y032185D01*
X020899Y032219D02*
X020763Y032219D01*
X020729Y032253D02*
X020933Y032253D01*
X020967Y032287D02*
X020695Y032287D01*
X020661Y032321D02*
X021001Y032321D01*
X021035Y032355D02*
X020627Y032355D01*
X020593Y032389D02*
X021045Y032389D01*
X021011Y032423D02*
X020559Y032423D01*
X020525Y032457D02*
X020977Y032457D01*
X020943Y032491D02*
X020527Y032491D01*
X020561Y032525D02*
X020909Y032525D01*
X020875Y032559D02*
X020595Y032559D01*
X020629Y032593D02*
X020841Y032593D01*
X020807Y032627D02*
X020663Y032627D01*
X020697Y032661D02*
X020773Y032661D01*
X020739Y032695D02*
X020731Y032695D01*
D15*
X021723Y034875D02*
X021243Y035355D01*
X021723Y034875D02*
X021297Y034449D01*
X020817Y034929D01*
X021243Y035355D01*
X021231Y034515D02*
X021363Y034515D01*
X021429Y034581D02*
X021165Y034581D01*
X021099Y034647D02*
X021495Y034647D01*
X021561Y034713D02*
X021033Y034713D01*
X020967Y034779D02*
X021627Y034779D01*
X021693Y034845D02*
X020901Y034845D01*
X020835Y034911D02*
X021687Y034911D01*
X021621Y034977D02*
X020865Y034977D01*
X020931Y035043D02*
X021555Y035043D01*
X021489Y035109D02*
X020997Y035109D01*
X021063Y035175D02*
X021423Y035175D01*
X021357Y035241D02*
X021129Y035241D01*
X021195Y035307D02*
X021291Y035307D01*
X018988Y033100D02*
X019468Y032620D01*
X019042Y032194D01*
X018562Y032674D01*
X018988Y033100D01*
X018976Y032260D02*
X019108Y032260D01*
X019174Y032326D02*
X018910Y032326D01*
X018844Y032392D02*
X019240Y032392D01*
X019306Y032458D02*
X018778Y032458D01*
X018712Y032524D02*
X019372Y032524D01*
X019438Y032590D02*
X018646Y032590D01*
X018580Y032656D02*
X019432Y032656D01*
X019366Y032722D02*
X018610Y032722D01*
X018676Y032788D02*
X019300Y032788D01*
X019234Y032854D02*
X018742Y032854D01*
X018808Y032920D02*
X019168Y032920D01*
X019102Y032986D02*
X018874Y032986D01*
X018940Y033052D02*
X019036Y033052D01*
D16*
X009086Y032450D02*
X009086Y031950D01*
X009086Y032450D02*
X009546Y032450D01*
X009546Y031950D01*
X009086Y031950D01*
X009086Y032000D02*
X009546Y032000D01*
X009546Y032050D02*
X009086Y032050D01*
X009086Y032100D02*
X009546Y032100D01*
X009546Y032150D02*
X009086Y032150D01*
X009086Y032200D02*
X009546Y032200D01*
X009546Y032250D02*
X009086Y032250D01*
X009086Y032300D02*
X009546Y032300D01*
X009546Y032350D02*
X009086Y032350D01*
X009086Y032400D02*
X009546Y032400D01*
X009546Y032450D02*
X009086Y032450D01*
X009086Y035021D02*
X009086Y035521D01*
X009546Y035521D01*
X009546Y035021D01*
X009086Y035021D01*
X009086Y035071D02*
X009546Y035071D01*
X009546Y035121D02*
X009086Y035121D01*
X009086Y035171D02*
X009546Y035171D01*
X009546Y035221D02*
X009086Y035221D01*
X009086Y035271D02*
X009546Y035271D01*
X009546Y035321D02*
X009086Y035321D01*
X009086Y035371D02*
X009546Y035371D01*
X009546Y035421D02*
X009086Y035421D01*
X009086Y035471D02*
X009546Y035471D01*
X009546Y035521D02*
X009086Y035521D01*
X006987Y033159D02*
X006987Y032659D01*
X006527Y032659D01*
X006527Y033159D01*
X006987Y033159D01*
X006987Y032709D02*
X006527Y032709D01*
X006527Y032759D02*
X006987Y032759D01*
X006987Y032809D02*
X006527Y032809D01*
X006527Y032859D02*
X006987Y032859D01*
X006987Y032909D02*
X006527Y032909D01*
X006527Y032959D02*
X006987Y032959D01*
X006987Y033009D02*
X006527Y033009D01*
X006527Y033059D02*
X006987Y033059D01*
X006987Y033109D02*
X006527Y033109D01*
X006527Y033159D02*
X006987Y033159D01*
X006987Y030088D02*
X006987Y029588D01*
X006527Y029588D01*
X006527Y030088D01*
X006987Y030088D01*
X006987Y029638D02*
X006527Y029638D01*
X006527Y029688D02*
X006987Y029688D01*
X006987Y029738D02*
X006527Y029738D01*
X006527Y029788D02*
X006987Y029788D01*
X006987Y029838D02*
X006527Y029838D01*
X006527Y029888D02*
X006987Y029888D01*
X006987Y029938D02*
X006527Y029938D01*
X006527Y029988D02*
X006987Y029988D01*
X006987Y030038D02*
X006527Y030038D01*
X006527Y030088D02*
X006987Y030088D01*
M02*
