G75*
G70*
%OFA0B0*%
%FSLAX24Y24*%
%IPPOS*%
%LPD*%
%AMOC8*
5,1,8,0,0,1.08239X$1,22.5*
%
%ADD10C,0.1181*%
%ADD11C,0.2009*%
%ADD12C,0.0044*%
%ADD13C,0.0043*%
%ADD14R,0.1102X0.0669*%
%ADD15C,0.0046*%
%ADD16C,0.0780*%
%ADD17C,0.0540*%
%ADD18OC8,0.0890*%
%ADD19R,0.0440X0.0440*%
%ADD20C,0.0440*%
%ADD21OC8,0.0700*%
%ADD22OC8,0.0780*%
%ADD23C,0.0043*%
%ADD24C,0.0075*%
%ADD25C,0.0335*%
%ADD26C,0.0453*%
%ADD27C,0.0394*%
D10*
X003686Y020337D03*
X024474Y039038D03*
X026639Y001440D03*
D11*
X014631Y037739D03*
D12*
X002703Y005169D02*
X002703Y004873D01*
X002703Y005169D02*
X003299Y005169D01*
X003299Y004873D01*
X002703Y004873D01*
X002703Y004916D02*
X003299Y004916D01*
X003299Y004959D02*
X002703Y004959D01*
X002703Y005002D02*
X003299Y005002D01*
X003299Y005045D02*
X002703Y005045D01*
X002703Y005088D02*
X003299Y005088D01*
X003299Y005131D02*
X002703Y005131D01*
X002703Y006373D02*
X002703Y006669D01*
X003299Y006669D01*
X003299Y006373D01*
X002703Y006373D01*
X002703Y006416D02*
X003299Y006416D01*
X003299Y006459D02*
X002703Y006459D01*
X002703Y006502D02*
X003299Y006502D01*
X003299Y006545D02*
X002703Y006545D01*
X002703Y006588D02*
X003299Y006588D01*
X003299Y006631D02*
X002703Y006631D01*
X004703Y006669D02*
X004703Y006373D01*
X004703Y006669D02*
X005299Y006669D01*
X005299Y006373D01*
X004703Y006373D01*
X004703Y006416D02*
X005299Y006416D01*
X005299Y006459D02*
X004703Y006459D01*
X004703Y006502D02*
X005299Y006502D01*
X005299Y006545D02*
X004703Y006545D01*
X004703Y006588D02*
X005299Y006588D01*
X005299Y006631D02*
X004703Y006631D01*
X004703Y005169D02*
X004703Y004873D01*
X004703Y005169D02*
X005299Y005169D01*
X005299Y004873D01*
X004703Y004873D01*
X004703Y004916D02*
X005299Y004916D01*
X005299Y004959D02*
X004703Y004959D01*
X004703Y005002D02*
X005299Y005002D01*
X005299Y005045D02*
X004703Y005045D01*
X004703Y005088D02*
X005299Y005088D01*
X005299Y005131D02*
X004703Y005131D01*
X008221Y031446D02*
X008517Y031446D01*
X008517Y030850D01*
X008221Y030850D01*
X008221Y031446D01*
X008221Y030893D02*
X008517Y030893D01*
X008517Y030936D02*
X008221Y030936D01*
X008221Y030979D02*
X008517Y030979D01*
X008517Y031022D02*
X008221Y031022D01*
X008221Y031065D02*
X008517Y031065D01*
X008517Y031108D02*
X008221Y031108D01*
X008221Y031151D02*
X008517Y031151D01*
X008517Y031194D02*
X008221Y031194D01*
X008221Y031237D02*
X008517Y031237D01*
X008517Y031280D02*
X008221Y031280D01*
X008221Y031323D02*
X008517Y031323D01*
X008517Y031366D02*
X008221Y031366D01*
X008221Y031409D02*
X008517Y031409D01*
X008517Y033446D02*
X008221Y033446D01*
X008517Y033446D02*
X008517Y032850D01*
X008221Y032850D01*
X008221Y033446D01*
X008221Y032893D02*
X008517Y032893D01*
X008517Y032936D02*
X008221Y032936D01*
X008221Y032979D02*
X008517Y032979D01*
X008517Y033022D02*
X008221Y033022D01*
X008221Y033065D02*
X008517Y033065D01*
X008517Y033108D02*
X008221Y033108D01*
X008221Y033151D02*
X008517Y033151D01*
X008517Y033194D02*
X008221Y033194D01*
X008221Y033237D02*
X008517Y033237D01*
X008517Y033280D02*
X008221Y033280D01*
X008221Y033323D02*
X008517Y033323D01*
X008517Y033366D02*
X008221Y033366D01*
X008221Y033409D02*
X008517Y033409D01*
X009721Y033446D02*
X010017Y033446D01*
X010017Y032850D01*
X009721Y032850D01*
X009721Y033446D01*
X009721Y032893D02*
X010017Y032893D01*
X010017Y032936D02*
X009721Y032936D01*
X009721Y032979D02*
X010017Y032979D01*
X010017Y033022D02*
X009721Y033022D01*
X009721Y033065D02*
X010017Y033065D01*
X010017Y033108D02*
X009721Y033108D01*
X009721Y033151D02*
X010017Y033151D01*
X010017Y033194D02*
X009721Y033194D01*
X009721Y033237D02*
X010017Y033237D01*
X010017Y033280D02*
X009721Y033280D01*
X009721Y033323D02*
X010017Y033323D01*
X010017Y033366D02*
X009721Y033366D01*
X009721Y033409D02*
X010017Y033409D01*
X010017Y031446D02*
X009721Y031446D01*
X010017Y031446D02*
X010017Y030850D01*
X009721Y030850D01*
X009721Y031446D01*
X009721Y030893D02*
X010017Y030893D01*
X010017Y030936D02*
X009721Y030936D01*
X009721Y030979D02*
X010017Y030979D01*
X010017Y031022D02*
X009721Y031022D01*
X009721Y031065D02*
X010017Y031065D01*
X010017Y031108D02*
X009721Y031108D01*
X009721Y031151D02*
X010017Y031151D01*
X010017Y031194D02*
X009721Y031194D01*
X009721Y031237D02*
X010017Y031237D01*
X010017Y031280D02*
X009721Y031280D01*
X009721Y031323D02*
X010017Y031323D01*
X010017Y031366D02*
X009721Y031366D01*
X009721Y031409D02*
X010017Y031409D01*
X010115Y036171D02*
X010411Y036171D01*
X010411Y035575D01*
X010115Y035575D01*
X010115Y036171D01*
X010115Y035618D02*
X010411Y035618D01*
X010411Y035661D02*
X010115Y035661D01*
X010115Y035704D02*
X010411Y035704D01*
X010411Y035747D02*
X010115Y035747D01*
X010115Y035790D02*
X010411Y035790D01*
X010411Y035833D02*
X010115Y035833D01*
X010115Y035876D02*
X010411Y035876D01*
X010411Y035919D02*
X010115Y035919D01*
X010115Y035962D02*
X010411Y035962D01*
X010411Y036005D02*
X010115Y036005D01*
X010115Y036048D02*
X010411Y036048D01*
X010411Y036091D02*
X010115Y036091D01*
X010115Y036134D02*
X010411Y036134D01*
X010411Y038171D02*
X010115Y038171D01*
X010411Y038171D02*
X010411Y037575D01*
X010115Y037575D01*
X010115Y038171D01*
X010115Y037618D02*
X010411Y037618D01*
X010411Y037661D02*
X010115Y037661D01*
X010115Y037704D02*
X010411Y037704D01*
X010411Y037747D02*
X010115Y037747D01*
X010115Y037790D02*
X010411Y037790D01*
X010411Y037833D02*
X010115Y037833D01*
X010115Y037876D02*
X010411Y037876D01*
X010411Y037919D02*
X010115Y037919D01*
X010115Y037962D02*
X010411Y037962D01*
X010411Y038005D02*
X010115Y038005D01*
X010115Y038048D02*
X010411Y038048D01*
X010411Y038091D02*
X010115Y038091D01*
X010115Y038134D02*
X010411Y038134D01*
X008911Y038171D02*
X008615Y038171D01*
X008911Y038171D02*
X008911Y037575D01*
X008615Y037575D01*
X008615Y038171D01*
X008615Y037618D02*
X008911Y037618D01*
X008911Y037661D02*
X008615Y037661D01*
X008615Y037704D02*
X008911Y037704D01*
X008911Y037747D02*
X008615Y037747D01*
X008615Y037790D02*
X008911Y037790D01*
X008911Y037833D02*
X008615Y037833D01*
X008615Y037876D02*
X008911Y037876D01*
X008911Y037919D02*
X008615Y037919D01*
X008615Y037962D02*
X008911Y037962D01*
X008911Y038005D02*
X008615Y038005D01*
X008615Y038048D02*
X008911Y038048D01*
X008911Y038091D02*
X008615Y038091D01*
X008615Y038134D02*
X008911Y038134D01*
X007655Y038171D02*
X007359Y038171D01*
X007655Y038171D02*
X007655Y037575D01*
X007359Y037575D01*
X007359Y038171D01*
X007359Y037618D02*
X007655Y037618D01*
X007655Y037661D02*
X007359Y037661D01*
X007359Y037704D02*
X007655Y037704D01*
X007655Y037747D02*
X007359Y037747D01*
X007359Y037790D02*
X007655Y037790D01*
X007655Y037833D02*
X007359Y037833D01*
X007359Y037876D02*
X007655Y037876D01*
X007655Y037919D02*
X007359Y037919D01*
X007359Y037962D02*
X007655Y037962D01*
X007655Y038005D02*
X007359Y038005D01*
X007359Y038048D02*
X007655Y038048D01*
X007655Y038091D02*
X007359Y038091D01*
X007359Y038134D02*
X007655Y038134D01*
X006155Y038171D02*
X005859Y038171D01*
X006155Y038171D02*
X006155Y037575D01*
X005859Y037575D01*
X005859Y038171D01*
X005859Y037618D02*
X006155Y037618D01*
X006155Y037661D02*
X005859Y037661D01*
X005859Y037704D02*
X006155Y037704D01*
X006155Y037747D02*
X005859Y037747D01*
X005859Y037790D02*
X006155Y037790D01*
X006155Y037833D02*
X005859Y037833D01*
X005859Y037876D02*
X006155Y037876D01*
X006155Y037919D02*
X005859Y037919D01*
X005859Y037962D02*
X006155Y037962D01*
X006155Y038005D02*
X005859Y038005D01*
X005859Y038048D02*
X006155Y038048D01*
X006155Y038091D02*
X005859Y038091D01*
X005859Y038134D02*
X006155Y038134D01*
X006155Y036171D02*
X005859Y036171D01*
X006155Y036171D02*
X006155Y035575D01*
X005859Y035575D01*
X005859Y036171D01*
X005859Y035618D02*
X006155Y035618D01*
X006155Y035661D02*
X005859Y035661D01*
X005859Y035704D02*
X006155Y035704D01*
X006155Y035747D02*
X005859Y035747D01*
X005859Y035790D02*
X006155Y035790D01*
X006155Y035833D02*
X005859Y035833D01*
X005859Y035876D02*
X006155Y035876D01*
X006155Y035919D02*
X005859Y035919D01*
X005859Y035962D02*
X006155Y035962D01*
X006155Y036005D02*
X005859Y036005D01*
X005859Y036048D02*
X006155Y036048D01*
X006155Y036091D02*
X005859Y036091D01*
X005859Y036134D02*
X006155Y036134D01*
X007359Y036171D02*
X007655Y036171D01*
X007655Y035575D01*
X007359Y035575D01*
X007359Y036171D01*
X007359Y035618D02*
X007655Y035618D01*
X007655Y035661D02*
X007359Y035661D01*
X007359Y035704D02*
X007655Y035704D01*
X007655Y035747D02*
X007359Y035747D01*
X007359Y035790D02*
X007655Y035790D01*
X007655Y035833D02*
X007359Y035833D01*
X007359Y035876D02*
X007655Y035876D01*
X007655Y035919D02*
X007359Y035919D01*
X007359Y035962D02*
X007655Y035962D01*
X007655Y036005D02*
X007359Y036005D01*
X007359Y036048D02*
X007655Y036048D01*
X007655Y036091D02*
X007359Y036091D01*
X007359Y036134D02*
X007655Y036134D01*
X008615Y036171D02*
X008911Y036171D01*
X008911Y035575D01*
X008615Y035575D01*
X008615Y036171D01*
X008615Y035618D02*
X008911Y035618D01*
X008911Y035661D02*
X008615Y035661D01*
X008615Y035704D02*
X008911Y035704D01*
X008911Y035747D02*
X008615Y035747D01*
X008615Y035790D02*
X008911Y035790D01*
X008911Y035833D02*
X008615Y035833D01*
X008615Y035876D02*
X008911Y035876D01*
X008911Y035919D02*
X008615Y035919D01*
X008615Y035962D02*
X008911Y035962D01*
X008911Y036005D02*
X008615Y036005D01*
X008615Y036048D02*
X008911Y036048D01*
X008911Y036091D02*
X008615Y036091D01*
X008615Y036134D02*
X008911Y036134D01*
X019245Y033446D02*
X019541Y033446D01*
X019541Y032850D01*
X019245Y032850D01*
X019245Y033446D01*
X019245Y032893D02*
X019541Y032893D01*
X019541Y032936D02*
X019245Y032936D01*
X019245Y032979D02*
X019541Y032979D01*
X019541Y033022D02*
X019245Y033022D01*
X019245Y033065D02*
X019541Y033065D01*
X019541Y033108D02*
X019245Y033108D01*
X019245Y033151D02*
X019541Y033151D01*
X019541Y033194D02*
X019245Y033194D01*
X019245Y033237D02*
X019541Y033237D01*
X019541Y033280D02*
X019245Y033280D01*
X019245Y033323D02*
X019541Y033323D01*
X019541Y033366D02*
X019245Y033366D01*
X019245Y033409D02*
X019541Y033409D01*
X020745Y033446D02*
X021041Y033446D01*
X021041Y032850D01*
X020745Y032850D01*
X020745Y033446D01*
X020745Y032893D02*
X021041Y032893D01*
X021041Y032936D02*
X020745Y032936D01*
X020745Y032979D02*
X021041Y032979D01*
X021041Y033022D02*
X020745Y033022D01*
X020745Y033065D02*
X021041Y033065D01*
X021041Y033108D02*
X020745Y033108D01*
X020745Y033151D02*
X021041Y033151D01*
X021041Y033194D02*
X020745Y033194D01*
X020745Y033237D02*
X021041Y033237D01*
X021041Y033280D02*
X020745Y033280D01*
X020745Y033323D02*
X021041Y033323D01*
X021041Y033366D02*
X020745Y033366D01*
X020745Y033409D02*
X021041Y033409D01*
X021041Y031446D02*
X020745Y031446D01*
X021041Y031446D02*
X021041Y030850D01*
X020745Y030850D01*
X020745Y031446D01*
X020745Y030893D02*
X021041Y030893D01*
X021041Y030936D02*
X020745Y030936D01*
X020745Y030979D02*
X021041Y030979D01*
X021041Y031022D02*
X020745Y031022D01*
X020745Y031065D02*
X021041Y031065D01*
X021041Y031108D02*
X020745Y031108D01*
X020745Y031151D02*
X021041Y031151D01*
X021041Y031194D02*
X020745Y031194D01*
X020745Y031237D02*
X021041Y031237D01*
X021041Y031280D02*
X020745Y031280D01*
X020745Y031323D02*
X021041Y031323D01*
X021041Y031366D02*
X020745Y031366D01*
X020745Y031409D02*
X021041Y031409D01*
X019541Y031446D02*
X019245Y031446D01*
X019541Y031446D02*
X019541Y030850D01*
X019245Y030850D01*
X019245Y031446D01*
X019245Y030893D02*
X019541Y030893D01*
X019541Y030936D02*
X019245Y030936D01*
X019245Y030979D02*
X019541Y030979D01*
X019541Y031022D02*
X019245Y031022D01*
X019245Y031065D02*
X019541Y031065D01*
X019541Y031108D02*
X019245Y031108D01*
X019245Y031151D02*
X019541Y031151D01*
X019541Y031194D02*
X019245Y031194D01*
X019245Y031237D02*
X019541Y031237D01*
X019541Y031280D02*
X019245Y031280D01*
X019245Y031323D02*
X019541Y031323D01*
X019541Y031366D02*
X019245Y031366D01*
X019245Y031409D02*
X019541Y031409D01*
D13*
X015991Y033370D02*
X015991Y033840D01*
X016343Y033840D01*
X016343Y033370D01*
X015991Y033370D01*
X015991Y033412D02*
X016343Y033412D01*
X016343Y033454D02*
X015991Y033454D01*
X015991Y033496D02*
X016343Y033496D01*
X016343Y033538D02*
X015991Y033538D01*
X015991Y033580D02*
X016343Y033580D01*
X016343Y033622D02*
X015991Y033622D01*
X015991Y033664D02*
X016343Y033664D01*
X016343Y033706D02*
X015991Y033706D01*
X015991Y033748D02*
X016343Y033748D01*
X016343Y033790D02*
X015991Y033790D01*
X015991Y033832D02*
X016343Y033832D01*
X015991Y034394D02*
X015991Y034864D01*
X016343Y034864D01*
X016343Y034394D01*
X015991Y034394D01*
X015991Y034436D02*
X016343Y034436D01*
X016343Y034478D02*
X015991Y034478D01*
X015991Y034520D02*
X016343Y034520D01*
X016343Y034562D02*
X015991Y034562D01*
X015991Y034604D02*
X016343Y034604D01*
X016343Y034646D02*
X015991Y034646D01*
X015991Y034688D02*
X016343Y034688D01*
X016343Y034730D02*
X015991Y034730D01*
X015991Y034772D02*
X016343Y034772D01*
X016343Y034814D02*
X015991Y034814D01*
X015991Y034856D02*
X016343Y034856D01*
X015282Y034864D02*
X015282Y034394D01*
X015282Y034864D02*
X015634Y034864D01*
X015634Y034394D01*
X015282Y034394D01*
X015282Y034436D02*
X015634Y034436D01*
X015634Y034478D02*
X015282Y034478D01*
X015282Y034520D02*
X015634Y034520D01*
X015634Y034562D02*
X015282Y034562D01*
X015282Y034604D02*
X015634Y034604D01*
X015634Y034646D02*
X015282Y034646D01*
X015282Y034688D02*
X015634Y034688D01*
X015634Y034730D02*
X015282Y034730D01*
X015282Y034772D02*
X015634Y034772D01*
X015634Y034814D02*
X015282Y034814D01*
X015282Y034856D02*
X015634Y034856D01*
X015282Y033840D02*
X015282Y033370D01*
X015282Y033840D02*
X015634Y033840D01*
X015634Y033370D01*
X015282Y033370D01*
X015282Y033412D02*
X015634Y033412D01*
X015634Y033454D02*
X015282Y033454D01*
X015282Y033496D02*
X015634Y033496D01*
X015634Y033538D02*
X015282Y033538D01*
X015282Y033580D02*
X015634Y033580D01*
X015634Y033622D02*
X015282Y033622D01*
X015282Y033664D02*
X015634Y033664D01*
X015634Y033706D02*
X015282Y033706D01*
X015282Y033748D02*
X015634Y033748D01*
X015634Y033790D02*
X015282Y033790D01*
X015282Y033832D02*
X015634Y033832D01*
X013628Y033840D02*
X013628Y033370D01*
X013628Y033840D02*
X013980Y033840D01*
X013980Y033370D01*
X013628Y033370D01*
X013628Y033412D02*
X013980Y033412D01*
X013980Y033454D02*
X013628Y033454D01*
X013628Y033496D02*
X013980Y033496D01*
X013980Y033538D02*
X013628Y033538D01*
X013628Y033580D02*
X013980Y033580D01*
X013980Y033622D02*
X013628Y033622D01*
X013628Y033664D02*
X013980Y033664D01*
X013980Y033706D02*
X013628Y033706D01*
X013628Y033748D02*
X013980Y033748D01*
X013980Y033790D02*
X013628Y033790D01*
X013628Y033832D02*
X013980Y033832D01*
X013628Y034394D02*
X013628Y034864D01*
X013980Y034864D01*
X013980Y034394D01*
X013628Y034394D01*
X013628Y034436D02*
X013980Y034436D01*
X013980Y034478D02*
X013628Y034478D01*
X013628Y034520D02*
X013980Y034520D01*
X013980Y034562D02*
X013628Y034562D01*
X013628Y034604D02*
X013980Y034604D01*
X013980Y034646D02*
X013628Y034646D01*
X013628Y034688D02*
X013980Y034688D01*
X013980Y034730D02*
X013628Y034730D01*
X013628Y034772D02*
X013980Y034772D01*
X013980Y034814D02*
X013628Y034814D01*
X013628Y034856D02*
X013980Y034856D01*
X012920Y034864D02*
X012920Y034394D01*
X012920Y034864D02*
X013272Y034864D01*
X013272Y034394D01*
X012920Y034394D01*
X012920Y034436D02*
X013272Y034436D01*
X013272Y034478D02*
X012920Y034478D01*
X012920Y034520D02*
X013272Y034520D01*
X013272Y034562D02*
X012920Y034562D01*
X012920Y034604D02*
X013272Y034604D01*
X013272Y034646D02*
X012920Y034646D01*
X012920Y034688D02*
X013272Y034688D01*
X013272Y034730D02*
X012920Y034730D01*
X012920Y034772D02*
X013272Y034772D01*
X013272Y034814D02*
X012920Y034814D01*
X012920Y034856D02*
X013272Y034856D01*
X012920Y033840D02*
X012920Y033370D01*
X012920Y033840D02*
X013272Y033840D01*
X013272Y033370D01*
X012920Y033370D01*
X012920Y033412D02*
X013272Y033412D01*
X013272Y033454D02*
X012920Y033454D01*
X012920Y033496D02*
X013272Y033496D01*
X013272Y033538D02*
X012920Y033538D01*
X012920Y033580D02*
X013272Y033580D01*
X013272Y033622D02*
X012920Y033622D01*
X012920Y033664D02*
X013272Y033664D01*
X013272Y033706D02*
X012920Y033706D01*
X012920Y033748D02*
X013272Y033748D01*
X013272Y033790D02*
X012920Y033790D01*
X012920Y033832D02*
X013272Y033832D01*
D14*
X024671Y004393D03*
X024671Y003211D03*
D15*
X013015Y001555D02*
X013015Y000853D01*
X012707Y000853D01*
X012707Y001555D01*
X013015Y001555D01*
X013015Y000898D02*
X012707Y000898D01*
X012707Y000943D02*
X013015Y000943D01*
X013015Y000988D02*
X012707Y000988D01*
X012707Y001033D02*
X013015Y001033D01*
X013015Y001078D02*
X012707Y001078D01*
X012707Y001123D02*
X013015Y001123D01*
X013015Y001168D02*
X012707Y001168D01*
X012707Y001213D02*
X013015Y001213D01*
X013015Y001258D02*
X012707Y001258D01*
X012707Y001303D02*
X013015Y001303D01*
X013015Y001348D02*
X012707Y001348D01*
X012707Y001393D02*
X013015Y001393D01*
X013015Y001438D02*
X012707Y001438D01*
X012707Y001483D02*
X013015Y001483D01*
X013015Y001528D02*
X012707Y001528D01*
X012515Y001555D02*
X012515Y000853D01*
X012207Y000853D01*
X012207Y001555D01*
X012515Y001555D01*
X012515Y000898D02*
X012207Y000898D01*
X012207Y000943D02*
X012515Y000943D01*
X012515Y000988D02*
X012207Y000988D01*
X012207Y001033D02*
X012515Y001033D01*
X012515Y001078D02*
X012207Y001078D01*
X012207Y001123D02*
X012515Y001123D01*
X012515Y001168D02*
X012207Y001168D01*
X012207Y001213D02*
X012515Y001213D01*
X012515Y001258D02*
X012207Y001258D01*
X012207Y001303D02*
X012515Y001303D01*
X012515Y001348D02*
X012207Y001348D01*
X012207Y001393D02*
X012515Y001393D01*
X012515Y001438D02*
X012207Y001438D01*
X012207Y001483D02*
X012515Y001483D01*
X012515Y001528D02*
X012207Y001528D01*
X012015Y001555D02*
X012015Y000853D01*
X011707Y000853D01*
X011707Y001555D01*
X012015Y001555D01*
X012015Y000898D02*
X011707Y000898D01*
X011707Y000943D02*
X012015Y000943D01*
X012015Y000988D02*
X011707Y000988D01*
X011707Y001033D02*
X012015Y001033D01*
X012015Y001078D02*
X011707Y001078D01*
X011707Y001123D02*
X012015Y001123D01*
X012015Y001168D02*
X011707Y001168D01*
X011707Y001213D02*
X012015Y001213D01*
X012015Y001258D02*
X011707Y001258D01*
X011707Y001303D02*
X012015Y001303D01*
X012015Y001348D02*
X011707Y001348D01*
X011707Y001393D02*
X012015Y001393D01*
X012015Y001438D02*
X011707Y001438D01*
X011707Y001483D02*
X012015Y001483D01*
X012015Y001528D02*
X011707Y001528D01*
X011515Y001555D02*
X011515Y000853D01*
X011207Y000853D01*
X011207Y001555D01*
X011515Y001555D01*
X011515Y000898D02*
X011207Y000898D01*
X011207Y000943D02*
X011515Y000943D01*
X011515Y000988D02*
X011207Y000988D01*
X011207Y001033D02*
X011515Y001033D01*
X011515Y001078D02*
X011207Y001078D01*
X011207Y001123D02*
X011515Y001123D01*
X011515Y001168D02*
X011207Y001168D01*
X011207Y001213D02*
X011515Y001213D01*
X011515Y001258D02*
X011207Y001258D01*
X011207Y001303D02*
X011515Y001303D01*
X011515Y001348D02*
X011207Y001348D01*
X011207Y001393D02*
X011515Y001393D01*
X011515Y001438D02*
X011207Y001438D01*
X011207Y001483D02*
X011515Y001483D01*
X011515Y001528D02*
X011207Y001528D01*
X005809Y001227D02*
X005501Y001227D01*
X005501Y001535D01*
X005809Y001535D01*
X005809Y001227D01*
X005809Y001272D02*
X005501Y001272D01*
X005501Y001317D02*
X005809Y001317D01*
X005809Y001362D02*
X005501Y001362D01*
X005501Y001407D02*
X005809Y001407D01*
X005809Y001452D02*
X005501Y001452D01*
X005501Y001497D02*
X005809Y001497D01*
X005809Y001817D02*
X005501Y001817D01*
X005501Y002125D01*
X005809Y002125D01*
X005809Y001817D01*
X005809Y001862D02*
X005501Y001862D01*
X005501Y001907D02*
X005809Y001907D01*
X005809Y001952D02*
X005501Y001952D01*
X005501Y001997D02*
X005809Y001997D01*
X005809Y002042D02*
X005501Y002042D01*
X005501Y002087D02*
X005809Y002087D01*
X005297Y001817D02*
X004989Y001817D01*
X004989Y002125D01*
X005297Y002125D01*
X005297Y001817D01*
X005297Y001862D02*
X004989Y001862D01*
X004989Y001907D02*
X005297Y001907D01*
X005297Y001952D02*
X004989Y001952D01*
X004989Y001997D02*
X005297Y001997D01*
X005297Y002042D02*
X004989Y002042D01*
X004989Y002087D02*
X005297Y002087D01*
X005297Y001227D02*
X004989Y001227D01*
X004989Y001535D01*
X005297Y001535D01*
X005297Y001227D01*
X005297Y001272D02*
X004989Y001272D01*
X004989Y001317D02*
X005297Y001317D01*
X005297Y001362D02*
X004989Y001362D01*
X004989Y001407D02*
X005297Y001407D01*
X005297Y001452D02*
X004989Y001452D01*
X004989Y001497D02*
X005297Y001497D01*
D16*
X003135Y018156D03*
X003135Y019156D03*
X007308Y024054D03*
X007308Y025054D03*
X007308Y026054D03*
X007308Y027054D03*
X005041Y031790D03*
X005041Y032790D03*
X024041Y032790D03*
X024041Y031790D03*
X027151Y031243D03*
X027151Y030243D03*
X027151Y029243D03*
X027151Y028243D03*
X027151Y027243D03*
X027151Y026243D03*
D17*
X011013Y012511D03*
X011013Y011511D03*
X010013Y011511D03*
X010013Y012511D03*
X009013Y012511D03*
X009013Y011511D03*
X008013Y011511D03*
X008013Y012511D03*
D18*
X004828Y015180D03*
X010694Y039235D03*
X011875Y039235D03*
X017387Y039235D03*
X018568Y039235D03*
D19*
X026456Y024841D03*
D20*
X026456Y024341D03*
X026456Y023841D03*
X026456Y023341D03*
X026456Y022841D03*
X025956Y022841D03*
X025956Y023341D03*
X025956Y023841D03*
X025956Y024341D03*
X025956Y024841D03*
D21*
X024041Y024790D03*
X024041Y023790D03*
X024041Y022190D03*
X024041Y021190D03*
X024041Y020190D03*
X024041Y019190D03*
X024041Y018190D03*
X024041Y017190D03*
X024041Y016190D03*
X024041Y015190D03*
X024041Y014190D03*
X024041Y013190D03*
X024041Y025790D03*
X024041Y026790D03*
X024041Y027790D03*
X024041Y028790D03*
X024041Y029790D03*
X024041Y030790D03*
X005041Y030790D03*
X005041Y029790D03*
X005041Y028790D03*
X005041Y027790D03*
X005041Y026790D03*
X005041Y025790D03*
X005041Y023790D03*
X005041Y022790D03*
X005041Y021790D03*
X005041Y020790D03*
X005041Y019790D03*
X005041Y018790D03*
X005041Y017790D03*
X005041Y016790D03*
D22*
X011041Y030840D03*
X011041Y031840D03*
X012041Y031840D03*
X012041Y030840D03*
X012041Y032840D03*
X012041Y033840D03*
X012041Y034840D03*
X012041Y035840D03*
X012041Y036840D03*
X012041Y037840D03*
X011041Y037840D03*
X011041Y036840D03*
X011041Y035840D03*
X011041Y034840D03*
X011041Y033840D03*
X011041Y032840D03*
X014041Y031840D03*
X014041Y030840D03*
X015041Y030840D03*
X015041Y031840D03*
X016041Y031840D03*
X016041Y030840D03*
D23*
X020299Y037465D02*
X019926Y037838D01*
X020299Y037465D02*
X020022Y037188D01*
X019649Y037561D01*
X019926Y037838D01*
X019980Y037230D02*
X020064Y037230D01*
X020106Y037272D02*
X019938Y037272D01*
X019896Y037314D02*
X020148Y037314D01*
X020190Y037356D02*
X019854Y037356D01*
X019812Y037398D02*
X020232Y037398D01*
X020274Y037440D02*
X019770Y037440D01*
X019728Y037482D02*
X020282Y037482D01*
X020240Y037524D02*
X019686Y037524D01*
X019654Y037566D02*
X020198Y037566D01*
X020156Y037608D02*
X019696Y037608D01*
X019738Y037650D02*
X020114Y037650D01*
X020072Y037692D02*
X019780Y037692D01*
X019822Y037734D02*
X020030Y037734D01*
X019988Y037776D02*
X019864Y037776D01*
X019906Y037818D02*
X019946Y037818D01*
X020281Y038193D02*
X020654Y037820D01*
X020377Y037543D01*
X020004Y037916D01*
X020281Y038193D01*
X020335Y037585D02*
X020419Y037585D01*
X020461Y037627D02*
X020293Y037627D01*
X020251Y037669D02*
X020503Y037669D01*
X020545Y037711D02*
X020209Y037711D01*
X020167Y037753D02*
X020587Y037753D01*
X020629Y037795D02*
X020125Y037795D01*
X020083Y037837D02*
X020637Y037837D01*
X020595Y037879D02*
X020041Y037879D01*
X020009Y037921D02*
X020553Y037921D01*
X020511Y037963D02*
X020051Y037963D01*
X020093Y038005D02*
X020469Y038005D01*
X020427Y038047D02*
X020135Y038047D01*
X020177Y038089D02*
X020385Y038089D01*
X020343Y038131D02*
X020219Y038131D01*
X020261Y038173D02*
X020301Y038173D01*
X020636Y038548D02*
X021009Y038175D01*
X020732Y037898D01*
X020359Y038271D01*
X020636Y038548D01*
X020690Y037940D02*
X020774Y037940D01*
X020816Y037982D02*
X020648Y037982D01*
X020606Y038024D02*
X020858Y038024D01*
X020900Y038066D02*
X020564Y038066D01*
X020522Y038108D02*
X020942Y038108D01*
X020984Y038150D02*
X020480Y038150D01*
X020438Y038192D02*
X020992Y038192D01*
X020950Y038234D02*
X020396Y038234D01*
X020364Y038276D02*
X020908Y038276D01*
X020866Y038318D02*
X020406Y038318D01*
X020448Y038360D02*
X020824Y038360D01*
X020782Y038402D02*
X020490Y038402D01*
X020532Y038444D02*
X020740Y038444D01*
X020698Y038486D02*
X020574Y038486D01*
X020616Y038528D02*
X020656Y038528D01*
X022271Y036203D02*
X022644Y035830D01*
X022367Y035553D01*
X021994Y035926D01*
X022271Y036203D01*
X022325Y035595D02*
X022409Y035595D01*
X022451Y035637D02*
X022283Y035637D01*
X022241Y035679D02*
X022493Y035679D01*
X022535Y035721D02*
X022199Y035721D01*
X022157Y035763D02*
X022577Y035763D01*
X022619Y035805D02*
X022115Y035805D01*
X022073Y035847D02*
X022627Y035847D01*
X022585Y035889D02*
X022031Y035889D01*
X021999Y035931D02*
X022543Y035931D01*
X022501Y035973D02*
X022041Y035973D01*
X022083Y036015D02*
X022459Y036015D01*
X022417Y036057D02*
X022125Y036057D01*
X022167Y036099D02*
X022375Y036099D01*
X022333Y036141D02*
X022209Y036141D01*
X022251Y036183D02*
X022291Y036183D01*
X022626Y036558D02*
X022999Y036185D01*
X022722Y035908D01*
X022349Y036281D01*
X022626Y036558D01*
X022680Y035950D02*
X022764Y035950D01*
X022806Y035992D02*
X022638Y035992D01*
X022596Y036034D02*
X022848Y036034D01*
X022890Y036076D02*
X022554Y036076D01*
X022512Y036118D02*
X022932Y036118D01*
X022974Y036160D02*
X022470Y036160D01*
X022428Y036202D02*
X022982Y036202D01*
X022940Y036244D02*
X022386Y036244D01*
X022354Y036286D02*
X022898Y036286D01*
X022856Y036328D02*
X022396Y036328D01*
X022438Y036370D02*
X022814Y036370D01*
X022772Y036412D02*
X022480Y036412D01*
X022522Y036454D02*
X022730Y036454D01*
X022688Y036496D02*
X022564Y036496D01*
X022606Y036538D02*
X022646Y036538D01*
X021916Y035848D02*
X022289Y035475D01*
X022012Y035198D01*
X021639Y035571D01*
X021916Y035848D01*
X021970Y035240D02*
X022054Y035240D01*
X022096Y035282D02*
X021928Y035282D01*
X021886Y035324D02*
X022138Y035324D01*
X022180Y035366D02*
X021844Y035366D01*
X021802Y035408D02*
X022222Y035408D01*
X022264Y035450D02*
X021760Y035450D01*
X021718Y035492D02*
X022272Y035492D01*
X022230Y035534D02*
X021676Y035534D01*
X021644Y035576D02*
X022188Y035576D01*
X022146Y035618D02*
X021686Y035618D01*
X021728Y035660D02*
X022104Y035660D01*
X022062Y035702D02*
X021770Y035702D01*
X021812Y035744D02*
X022020Y035744D01*
X021978Y035786D02*
X021854Y035786D01*
X021896Y035828D02*
X021936Y035828D01*
D24*
X022956Y037973D02*
X022425Y038504D01*
X022956Y037973D02*
X022479Y037496D01*
X021948Y038027D01*
X022425Y038504D01*
X022405Y037570D02*
X022553Y037570D01*
X022627Y037644D02*
X022331Y037644D01*
X022257Y037718D02*
X022701Y037718D01*
X022775Y037792D02*
X022183Y037792D01*
X022109Y037866D02*
X022849Y037866D01*
X022923Y037940D02*
X022035Y037940D01*
X021961Y038014D02*
X022915Y038014D01*
X022841Y038088D02*
X022009Y038088D01*
X022083Y038162D02*
X022767Y038162D01*
X022693Y038236D02*
X022157Y038236D01*
X022231Y038310D02*
X022619Y038310D01*
X022545Y038384D02*
X022305Y038384D01*
X022379Y038458D02*
X022471Y038458D01*
X020170Y036249D02*
X020701Y035718D01*
X020224Y035241D01*
X019693Y035772D01*
X020170Y036249D01*
X020150Y035315D02*
X020298Y035315D01*
X020372Y035389D02*
X020076Y035389D01*
X020002Y035463D02*
X020446Y035463D01*
X020520Y035537D02*
X019928Y035537D01*
X019854Y035611D02*
X020594Y035611D01*
X020668Y035685D02*
X019780Y035685D01*
X019706Y035759D02*
X020660Y035759D01*
X020586Y035833D02*
X019754Y035833D01*
X019828Y035907D02*
X020512Y035907D01*
X020438Y035981D02*
X019902Y035981D01*
X019976Y036055D02*
X020364Y036055D01*
X020290Y036129D02*
X020050Y036129D01*
X020124Y036203D02*
X020216Y036203D01*
D25*
X020795Y036344D03*
D26*
X021853Y037402D03*
D27*
X004730Y006105D03*
X003548Y006105D03*
M02*
