G75*
G70*
%OFA0B0*%
%FSLAX24Y24*%
%IPPOS*%
%LPD*%
%AMOC8*
5,1,8,0,0,1.08239X$1,22.5*
%
%ADD10C,0.1181*%
%ADD11C,0.0044*%
%ADD12C,0.0043*%
%ADD13R,0.1102X0.0669*%
%ADD14C,0.0046*%
%ADD15C,0.0780*%
%ADD16OC8,0.0890*%
%ADD17R,0.0440X0.0440*%
%ADD18C,0.0440*%
%ADD19C,0.0051*%
%ADD20OC8,0.0700*%
%ADD21OC8,0.0780*%
%ADD22C,0.0043*%
%ADD23C,0.0075*%
%ADD24C,0.0335*%
%ADD25C,0.0453*%
%ADD26C,0.0394*%
%ADD27C,0.1812*%
%ADD28C,0.0046*%
%ADD29C,0.0670*%
%ADD30C,0.0571*%
%ADD31C,0.0059*%
D10*
X003686Y020389D03*
X025458Y035743D03*
X026639Y001491D03*
D11*
X002703Y004924D02*
X002703Y005220D01*
X003299Y005220D01*
X003299Y004924D01*
X002703Y004924D01*
X002703Y004967D02*
X003299Y004967D01*
X003299Y005010D02*
X002703Y005010D01*
X002703Y005053D02*
X003299Y005053D01*
X003299Y005096D02*
X002703Y005096D01*
X002703Y005139D02*
X003299Y005139D01*
X003299Y005182D02*
X002703Y005182D01*
X002703Y006424D02*
X002703Y006720D01*
X003299Y006720D01*
X003299Y006424D01*
X002703Y006424D01*
X002703Y006467D02*
X003299Y006467D01*
X003299Y006510D02*
X002703Y006510D01*
X002703Y006553D02*
X003299Y006553D01*
X003299Y006596D02*
X002703Y006596D01*
X002703Y006639D02*
X003299Y006639D01*
X003299Y006682D02*
X002703Y006682D01*
X004703Y006720D02*
X004703Y006424D01*
X004703Y006720D02*
X005299Y006720D01*
X005299Y006424D01*
X004703Y006424D01*
X004703Y006467D02*
X005299Y006467D01*
X005299Y006510D02*
X004703Y006510D01*
X004703Y006553D02*
X005299Y006553D01*
X005299Y006596D02*
X004703Y006596D01*
X004703Y006639D02*
X005299Y006639D01*
X005299Y006682D02*
X004703Y006682D01*
X004703Y005220D02*
X004703Y004924D01*
X004703Y005220D02*
X005299Y005220D01*
X005299Y004924D01*
X004703Y004924D01*
X004703Y004967D02*
X005299Y004967D01*
X005299Y005010D02*
X004703Y005010D01*
X004703Y005053D02*
X005299Y005053D01*
X005299Y005096D02*
X004703Y005096D01*
X004703Y005139D02*
X005299Y005139D01*
X005299Y005182D02*
X004703Y005182D01*
X005859Y030671D02*
X006155Y030671D01*
X006155Y030075D01*
X005859Y030075D01*
X005859Y030671D01*
X005859Y030118D02*
X006155Y030118D01*
X006155Y030161D02*
X005859Y030161D01*
X005859Y030204D02*
X006155Y030204D01*
X006155Y030247D02*
X005859Y030247D01*
X005859Y030290D02*
X006155Y030290D01*
X006155Y030333D02*
X005859Y030333D01*
X005859Y030376D02*
X006155Y030376D01*
X006155Y030419D02*
X005859Y030419D01*
X005859Y030462D02*
X006155Y030462D01*
X006155Y030505D02*
X005859Y030505D01*
X005859Y030548D02*
X006155Y030548D01*
X006155Y030591D02*
X005859Y030591D01*
X005859Y030634D02*
X006155Y030634D01*
X006155Y032671D02*
X005859Y032671D01*
X006155Y032671D02*
X006155Y032075D01*
X005859Y032075D01*
X005859Y032671D01*
X005859Y032118D02*
X006155Y032118D01*
X006155Y032161D02*
X005859Y032161D01*
X005859Y032204D02*
X006155Y032204D01*
X006155Y032247D02*
X005859Y032247D01*
X005859Y032290D02*
X006155Y032290D01*
X006155Y032333D02*
X005859Y032333D01*
X005859Y032376D02*
X006155Y032376D01*
X006155Y032419D02*
X005859Y032419D01*
X005859Y032462D02*
X006155Y032462D01*
X006155Y032505D02*
X005859Y032505D01*
X005859Y032548D02*
X006155Y032548D01*
X006155Y032591D02*
X005859Y032591D01*
X005859Y032634D02*
X006155Y032634D01*
X007359Y032671D02*
X007655Y032671D01*
X007655Y032075D01*
X007359Y032075D01*
X007359Y032671D01*
X007359Y032118D02*
X007655Y032118D01*
X007655Y032161D02*
X007359Y032161D01*
X007359Y032204D02*
X007655Y032204D01*
X007655Y032247D02*
X007359Y032247D01*
X007359Y032290D02*
X007655Y032290D01*
X007655Y032333D02*
X007359Y032333D01*
X007359Y032376D02*
X007655Y032376D01*
X007655Y032419D02*
X007359Y032419D01*
X007359Y032462D02*
X007655Y032462D01*
X007655Y032505D02*
X007359Y032505D01*
X007359Y032548D02*
X007655Y032548D01*
X007655Y032591D02*
X007359Y032591D01*
X007359Y032634D02*
X007655Y032634D01*
X008418Y033033D02*
X008714Y033033D01*
X008714Y032437D01*
X008418Y032437D01*
X008418Y033033D01*
X008418Y032480D02*
X008714Y032480D01*
X008714Y032523D02*
X008418Y032523D01*
X008418Y032566D02*
X008714Y032566D01*
X008714Y032609D02*
X008418Y032609D01*
X008418Y032652D02*
X008714Y032652D01*
X008714Y032695D02*
X008418Y032695D01*
X008418Y032738D02*
X008714Y032738D01*
X008714Y032781D02*
X008418Y032781D01*
X008418Y032824D02*
X008714Y032824D01*
X008714Y032867D02*
X008418Y032867D01*
X008418Y032910D02*
X008714Y032910D01*
X008714Y032953D02*
X008418Y032953D01*
X008418Y032996D02*
X008714Y032996D01*
X008714Y035033D02*
X008418Y035033D01*
X008714Y035033D02*
X008714Y034437D01*
X008418Y034437D01*
X008418Y035033D01*
X008418Y034480D02*
X008714Y034480D01*
X008714Y034523D02*
X008418Y034523D01*
X008418Y034566D02*
X008714Y034566D01*
X008714Y034609D02*
X008418Y034609D01*
X008418Y034652D02*
X008714Y034652D01*
X008714Y034695D02*
X008418Y034695D01*
X008418Y034738D02*
X008714Y034738D01*
X008714Y034781D02*
X008418Y034781D01*
X008418Y034824D02*
X008714Y034824D01*
X008714Y034867D02*
X008418Y034867D01*
X008418Y034910D02*
X008714Y034910D01*
X008714Y034953D02*
X008418Y034953D01*
X008418Y034996D02*
X008714Y034996D01*
X009918Y035033D02*
X010214Y035033D01*
X010214Y034437D01*
X009918Y034437D01*
X009918Y035033D01*
X009918Y034480D02*
X010214Y034480D01*
X010214Y034523D02*
X009918Y034523D01*
X009918Y034566D02*
X010214Y034566D01*
X010214Y034609D02*
X009918Y034609D01*
X009918Y034652D02*
X010214Y034652D01*
X010214Y034695D02*
X009918Y034695D01*
X009918Y034738D02*
X010214Y034738D01*
X010214Y034781D02*
X009918Y034781D01*
X009918Y034824D02*
X010214Y034824D01*
X010214Y034867D02*
X009918Y034867D01*
X009918Y034910D02*
X010214Y034910D01*
X010214Y034953D02*
X009918Y034953D01*
X009918Y034996D02*
X010214Y034996D01*
X010214Y033033D02*
X009918Y033033D01*
X010214Y033033D02*
X010214Y032437D01*
X009918Y032437D01*
X009918Y033033D01*
X009918Y032480D02*
X010214Y032480D01*
X010214Y032523D02*
X009918Y032523D01*
X009918Y032566D02*
X010214Y032566D01*
X010214Y032609D02*
X009918Y032609D01*
X009918Y032652D02*
X010214Y032652D01*
X010214Y032695D02*
X009918Y032695D01*
X009918Y032738D02*
X010214Y032738D01*
X010214Y032781D02*
X009918Y032781D01*
X009918Y032824D02*
X010214Y032824D01*
X010214Y032867D02*
X009918Y032867D01*
X009918Y032910D02*
X010214Y032910D01*
X010214Y032953D02*
X009918Y032953D01*
X009918Y032996D02*
X010214Y032996D01*
X007655Y030671D02*
X007359Y030671D01*
X007655Y030671D02*
X007655Y030075D01*
X007359Y030075D01*
X007359Y030671D01*
X007359Y030118D02*
X007655Y030118D01*
X007655Y030161D02*
X007359Y030161D01*
X007359Y030204D02*
X007655Y030204D01*
X007655Y030247D02*
X007359Y030247D01*
X007359Y030290D02*
X007655Y030290D01*
X007655Y030333D02*
X007359Y030333D01*
X007359Y030376D02*
X007655Y030376D01*
X007655Y030419D02*
X007359Y030419D01*
X007359Y030462D02*
X007655Y030462D01*
X007655Y030505D02*
X007359Y030505D01*
X007359Y030548D02*
X007655Y030548D01*
X007655Y030591D02*
X007359Y030591D01*
X007359Y030634D02*
X007655Y030634D01*
D12*
X012920Y033422D02*
X012920Y033892D01*
X013272Y033892D01*
X013272Y033422D01*
X012920Y033422D01*
X012920Y033464D02*
X013272Y033464D01*
X013272Y033506D02*
X012920Y033506D01*
X012920Y033548D02*
X013272Y033548D01*
X013272Y033590D02*
X012920Y033590D01*
X012920Y033632D02*
X013272Y033632D01*
X013272Y033674D02*
X012920Y033674D01*
X012920Y033716D02*
X013272Y033716D01*
X013272Y033758D02*
X012920Y033758D01*
X012920Y033800D02*
X013272Y033800D01*
X013272Y033842D02*
X012920Y033842D01*
X012920Y033884D02*
X013272Y033884D01*
X013628Y033892D02*
X013628Y033422D01*
X013628Y033892D02*
X013980Y033892D01*
X013980Y033422D01*
X013628Y033422D01*
X013628Y033464D02*
X013980Y033464D01*
X013980Y033506D02*
X013628Y033506D01*
X013628Y033548D02*
X013980Y033548D01*
X013980Y033590D02*
X013628Y033590D01*
X013628Y033632D02*
X013980Y033632D01*
X013980Y033674D02*
X013628Y033674D01*
X013628Y033716D02*
X013980Y033716D01*
X013980Y033758D02*
X013628Y033758D01*
X013628Y033800D02*
X013980Y033800D01*
X013980Y033842D02*
X013628Y033842D01*
X013628Y033884D02*
X013980Y033884D01*
X013628Y034445D02*
X013628Y034915D01*
X013980Y034915D01*
X013980Y034445D01*
X013628Y034445D01*
X013628Y034487D02*
X013980Y034487D01*
X013980Y034529D02*
X013628Y034529D01*
X013628Y034571D02*
X013980Y034571D01*
X013980Y034613D02*
X013628Y034613D01*
X013628Y034655D02*
X013980Y034655D01*
X013980Y034697D02*
X013628Y034697D01*
X013628Y034739D02*
X013980Y034739D01*
X013980Y034781D02*
X013628Y034781D01*
X013628Y034823D02*
X013980Y034823D01*
X013980Y034865D02*
X013628Y034865D01*
X013628Y034907D02*
X013980Y034907D01*
X012920Y034915D02*
X012920Y034445D01*
X012920Y034915D02*
X013272Y034915D01*
X013272Y034445D01*
X012920Y034445D01*
X012920Y034487D02*
X013272Y034487D01*
X013272Y034529D02*
X012920Y034529D01*
X012920Y034571D02*
X013272Y034571D01*
X013272Y034613D02*
X012920Y034613D01*
X012920Y034655D02*
X013272Y034655D01*
X013272Y034697D02*
X012920Y034697D01*
X012920Y034739D02*
X013272Y034739D01*
X013272Y034781D02*
X012920Y034781D01*
X012920Y034823D02*
X013272Y034823D01*
X013272Y034865D02*
X012920Y034865D01*
X012920Y034907D02*
X013272Y034907D01*
X015282Y034915D02*
X015282Y034445D01*
X015282Y034915D02*
X015634Y034915D01*
X015634Y034445D01*
X015282Y034445D01*
X015282Y034487D02*
X015634Y034487D01*
X015634Y034529D02*
X015282Y034529D01*
X015282Y034571D02*
X015634Y034571D01*
X015634Y034613D02*
X015282Y034613D01*
X015282Y034655D02*
X015634Y034655D01*
X015634Y034697D02*
X015282Y034697D01*
X015282Y034739D02*
X015634Y034739D01*
X015634Y034781D02*
X015282Y034781D01*
X015282Y034823D02*
X015634Y034823D01*
X015634Y034865D02*
X015282Y034865D01*
X015282Y034907D02*
X015634Y034907D01*
X015991Y034915D02*
X015991Y034445D01*
X015991Y034915D02*
X016343Y034915D01*
X016343Y034445D01*
X015991Y034445D01*
X015991Y034487D02*
X016343Y034487D01*
X016343Y034529D02*
X015991Y034529D01*
X015991Y034571D02*
X016343Y034571D01*
X016343Y034613D02*
X015991Y034613D01*
X015991Y034655D02*
X016343Y034655D01*
X016343Y034697D02*
X015991Y034697D01*
X015991Y034739D02*
X016343Y034739D01*
X016343Y034781D02*
X015991Y034781D01*
X015991Y034823D02*
X016343Y034823D01*
X016343Y034865D02*
X015991Y034865D01*
X015991Y034907D02*
X016343Y034907D01*
X015991Y033892D02*
X015991Y033422D01*
X015991Y033892D02*
X016343Y033892D01*
X016343Y033422D01*
X015991Y033422D01*
X015991Y033464D02*
X016343Y033464D01*
X016343Y033506D02*
X015991Y033506D01*
X015991Y033548D02*
X016343Y033548D01*
X016343Y033590D02*
X015991Y033590D01*
X015991Y033632D02*
X016343Y033632D01*
X016343Y033674D02*
X015991Y033674D01*
X015991Y033716D02*
X016343Y033716D01*
X016343Y033758D02*
X015991Y033758D01*
X015991Y033800D02*
X016343Y033800D01*
X016343Y033842D02*
X015991Y033842D01*
X015991Y033884D02*
X016343Y033884D01*
X015282Y033892D02*
X015282Y033422D01*
X015282Y033892D02*
X015634Y033892D01*
X015634Y033422D01*
X015282Y033422D01*
X015282Y033464D02*
X015634Y033464D01*
X015634Y033506D02*
X015282Y033506D01*
X015282Y033548D02*
X015634Y033548D01*
X015634Y033590D02*
X015282Y033590D01*
X015282Y033632D02*
X015634Y033632D01*
X015634Y033674D02*
X015282Y033674D01*
X015282Y033716D02*
X015634Y033716D01*
X015634Y033758D02*
X015282Y033758D01*
X015282Y033800D02*
X015634Y033800D01*
X015634Y033842D02*
X015282Y033842D01*
X015282Y033884D02*
X015634Y033884D01*
D13*
X024671Y004444D03*
X024671Y003263D03*
D14*
X007550Y027715D02*
X007550Y028417D01*
X007858Y028417D01*
X007858Y027715D01*
X007550Y027715D01*
X007550Y027760D02*
X007858Y027760D01*
X007858Y027805D02*
X007550Y027805D01*
X007550Y027850D02*
X007858Y027850D01*
X007858Y027895D02*
X007550Y027895D01*
X007550Y027940D02*
X007858Y027940D01*
X007858Y027985D02*
X007550Y027985D01*
X007550Y028030D02*
X007858Y028030D01*
X007858Y028075D02*
X007550Y028075D01*
X007550Y028120D02*
X007858Y028120D01*
X007858Y028165D02*
X007550Y028165D01*
X007550Y028210D02*
X007858Y028210D01*
X007858Y028255D02*
X007550Y028255D01*
X007550Y028300D02*
X007858Y028300D01*
X007858Y028345D02*
X007550Y028345D01*
X007550Y028390D02*
X007858Y028390D01*
X007050Y028417D02*
X007050Y027715D01*
X007050Y028417D02*
X007358Y028417D01*
X007358Y027715D01*
X007050Y027715D01*
X007050Y027760D02*
X007358Y027760D01*
X007358Y027805D02*
X007050Y027805D01*
X007050Y027850D02*
X007358Y027850D01*
X007358Y027895D02*
X007050Y027895D01*
X007050Y027940D02*
X007358Y027940D01*
X007358Y027985D02*
X007050Y027985D01*
X007050Y028030D02*
X007358Y028030D01*
X007358Y028075D02*
X007050Y028075D01*
X007050Y028120D02*
X007358Y028120D01*
X007358Y028165D02*
X007050Y028165D01*
X007050Y028210D02*
X007358Y028210D01*
X007358Y028255D02*
X007050Y028255D01*
X007050Y028300D02*
X007358Y028300D01*
X007358Y028345D02*
X007050Y028345D01*
X007050Y028390D02*
X007358Y028390D01*
X006550Y028417D02*
X006550Y027715D01*
X006550Y028417D02*
X006858Y028417D01*
X006858Y027715D01*
X006550Y027715D01*
X006550Y027760D02*
X006858Y027760D01*
X006858Y027805D02*
X006550Y027805D01*
X006550Y027850D02*
X006858Y027850D01*
X006858Y027895D02*
X006550Y027895D01*
X006550Y027940D02*
X006858Y027940D01*
X006858Y027985D02*
X006550Y027985D01*
X006550Y028030D02*
X006858Y028030D01*
X006858Y028075D02*
X006550Y028075D01*
X006550Y028120D02*
X006858Y028120D01*
X006858Y028165D02*
X006550Y028165D01*
X006550Y028210D02*
X006858Y028210D01*
X006858Y028255D02*
X006550Y028255D01*
X006550Y028300D02*
X006858Y028300D01*
X006858Y028345D02*
X006550Y028345D01*
X006550Y028390D02*
X006858Y028390D01*
X006050Y028417D02*
X006050Y027715D01*
X006050Y028417D02*
X006358Y028417D01*
X006358Y027715D01*
X006050Y027715D01*
X006050Y027760D02*
X006358Y027760D01*
X006358Y027805D02*
X006050Y027805D01*
X006050Y027850D02*
X006358Y027850D01*
X006358Y027895D02*
X006050Y027895D01*
X006050Y027940D02*
X006358Y027940D01*
X006358Y027985D02*
X006050Y027985D01*
X006050Y028030D02*
X006358Y028030D01*
X006358Y028075D02*
X006050Y028075D01*
X006050Y028120D02*
X006358Y028120D01*
X006358Y028165D02*
X006050Y028165D01*
X006050Y028210D02*
X006358Y028210D01*
X006358Y028255D02*
X006050Y028255D01*
X006050Y028300D02*
X006358Y028300D01*
X006358Y028345D02*
X006050Y028345D01*
X006050Y028390D02*
X006358Y028390D01*
D15*
X006454Y035664D03*
X007454Y035664D03*
X008454Y035664D03*
X005454Y035664D03*
X003135Y019208D03*
X003135Y018208D03*
X004789Y003082D03*
X004789Y002082D03*
X027151Y026294D03*
X027151Y027294D03*
X027151Y028294D03*
X027151Y029294D03*
X027151Y030294D03*
X027151Y031294D03*
D16*
X025615Y037239D03*
X022171Y039523D03*
X007033Y039523D03*
X003332Y039523D03*
X004828Y015231D03*
D17*
X026456Y024893D03*
D18*
X026456Y024393D03*
X026456Y023893D03*
X026456Y023393D03*
X026456Y022893D03*
X025956Y022893D03*
X025956Y023393D03*
X025956Y023893D03*
X025956Y024393D03*
X025956Y024893D03*
D19*
X008613Y001427D02*
X008613Y000965D01*
X008613Y001427D02*
X009075Y001427D01*
X009075Y000965D01*
X008613Y000965D01*
X008613Y001015D02*
X009075Y001015D01*
X009075Y001065D02*
X008613Y001065D01*
X008613Y001115D02*
X009075Y001115D01*
X009075Y001165D02*
X008613Y001165D01*
X008613Y001215D02*
X009075Y001215D01*
X009075Y001265D02*
X008613Y001265D01*
X008613Y001315D02*
X009075Y001315D01*
X009075Y001365D02*
X008613Y001365D01*
X008613Y001415D02*
X009075Y001415D01*
X007786Y001427D02*
X007786Y000965D01*
X007786Y001427D02*
X008248Y001427D01*
X008248Y000965D01*
X007786Y000965D01*
X007786Y001015D02*
X008248Y001015D01*
X008248Y001065D02*
X007786Y001065D01*
X007786Y001115D02*
X008248Y001115D01*
X008248Y001165D02*
X007786Y001165D01*
X007786Y001215D02*
X008248Y001215D01*
X008248Y001265D02*
X007786Y001265D01*
X007786Y001315D02*
X008248Y001315D01*
X008248Y001365D02*
X007786Y001365D01*
X007786Y001415D02*
X008248Y001415D01*
X007598Y001427D02*
X007598Y000965D01*
X007136Y000965D01*
X007136Y001427D01*
X007598Y001427D01*
X007598Y001015D02*
X007136Y001015D01*
X007136Y001065D02*
X007598Y001065D01*
X007598Y001115D02*
X007136Y001115D01*
X007136Y001165D02*
X007598Y001165D01*
X007598Y001215D02*
X007136Y001215D01*
X007136Y001265D02*
X007598Y001265D01*
X007598Y001315D02*
X007136Y001315D01*
X007136Y001365D02*
X007598Y001365D01*
X007598Y001415D02*
X007136Y001415D01*
X006772Y001427D02*
X006772Y000965D01*
X006310Y000965D01*
X006310Y001427D01*
X006772Y001427D01*
X006772Y001015D02*
X006310Y001015D01*
X006310Y001065D02*
X006772Y001065D01*
X006772Y001115D02*
X006310Y001115D01*
X006310Y001165D02*
X006772Y001165D01*
X006772Y001215D02*
X006310Y001215D01*
X006310Y001265D02*
X006772Y001265D01*
X006772Y001315D02*
X006310Y001315D01*
X006310Y001365D02*
X006772Y001365D01*
X006772Y001415D02*
X006310Y001415D01*
D20*
X005041Y016842D03*
X005041Y017842D03*
X005041Y018842D03*
X005041Y019842D03*
X005041Y020842D03*
X005041Y021842D03*
X005041Y022842D03*
X005041Y023842D03*
X005041Y025842D03*
X005041Y026842D03*
X005041Y027842D03*
X005041Y028842D03*
X005041Y029842D03*
X005041Y030842D03*
X005041Y031842D03*
X005041Y032842D03*
X024041Y032842D03*
X024041Y031842D03*
X024041Y030842D03*
X024041Y029842D03*
X024041Y028842D03*
X024041Y027842D03*
X024041Y026842D03*
X024041Y025842D03*
X024041Y024842D03*
X024041Y023842D03*
X024041Y022242D03*
X024041Y021242D03*
X024041Y020242D03*
X024041Y019242D03*
X024041Y018242D03*
X024041Y017242D03*
X024041Y016242D03*
X024041Y015242D03*
X024041Y014242D03*
X024041Y013242D03*
D21*
X016041Y030892D03*
X016041Y031892D03*
X015041Y031892D03*
X015041Y030892D03*
X014041Y030892D03*
X014041Y031892D03*
X012041Y031892D03*
X012041Y032892D03*
X012041Y033892D03*
X012041Y034892D03*
X012041Y035892D03*
X012041Y036892D03*
X012041Y037892D03*
X011041Y037892D03*
X011041Y036892D03*
X011041Y035892D03*
X011041Y034892D03*
X011041Y033892D03*
X011041Y032892D03*
X011041Y031892D03*
X011041Y030892D03*
X012041Y030892D03*
D22*
X018536Y034948D02*
X019089Y034395D01*
X018812Y034118D01*
X018259Y034671D01*
X018536Y034948D01*
X018770Y034160D02*
X018854Y034160D01*
X018896Y034202D02*
X018728Y034202D01*
X018686Y034244D02*
X018938Y034244D01*
X018980Y034286D02*
X018644Y034286D01*
X018602Y034328D02*
X019022Y034328D01*
X019064Y034370D02*
X018560Y034370D01*
X018518Y034412D02*
X019072Y034412D01*
X019030Y034454D02*
X018476Y034454D01*
X018434Y034496D02*
X018988Y034496D01*
X018946Y034538D02*
X018392Y034538D01*
X018350Y034580D02*
X018904Y034580D01*
X018862Y034622D02*
X018308Y034622D01*
X018266Y034664D02*
X018820Y034664D01*
X018778Y034706D02*
X018294Y034706D01*
X018336Y034748D02*
X018736Y034748D01*
X018694Y034790D02*
X018378Y034790D01*
X018420Y034832D02*
X018652Y034832D01*
X018610Y034874D02*
X018462Y034874D01*
X018504Y034916D02*
X018568Y034916D01*
X018891Y035303D02*
X019444Y034750D01*
X019167Y034473D01*
X018614Y035026D01*
X018891Y035303D01*
X019125Y034515D02*
X019209Y034515D01*
X019251Y034557D02*
X019083Y034557D01*
X019041Y034599D02*
X019293Y034599D01*
X019335Y034641D02*
X018999Y034641D01*
X018957Y034683D02*
X019377Y034683D01*
X019419Y034725D02*
X018915Y034725D01*
X018873Y034767D02*
X019427Y034767D01*
X019385Y034809D02*
X018831Y034809D01*
X018789Y034851D02*
X019343Y034851D01*
X019301Y034893D02*
X018747Y034893D01*
X018705Y034935D02*
X019259Y034935D01*
X019217Y034977D02*
X018663Y034977D01*
X018621Y035019D02*
X019175Y035019D01*
X019133Y035061D02*
X018649Y035061D01*
X018691Y035103D02*
X019091Y035103D01*
X019049Y035145D02*
X018733Y035145D01*
X018775Y035187D02*
X019007Y035187D01*
X018965Y035229D02*
X018817Y035229D01*
X018859Y035271D02*
X018923Y035271D01*
X019246Y035658D02*
X019799Y035105D01*
X019522Y034828D01*
X018969Y035381D01*
X019246Y035658D01*
X019480Y034870D02*
X019564Y034870D01*
X019606Y034912D02*
X019438Y034912D01*
X019396Y034954D02*
X019648Y034954D01*
X019690Y034996D02*
X019354Y034996D01*
X019312Y035038D02*
X019732Y035038D01*
X019774Y035080D02*
X019270Y035080D01*
X019228Y035122D02*
X019782Y035122D01*
X019740Y035164D02*
X019186Y035164D01*
X019144Y035206D02*
X019698Y035206D01*
X019656Y035248D02*
X019102Y035248D01*
X019060Y035290D02*
X019614Y035290D01*
X019572Y035332D02*
X019018Y035332D01*
X018976Y035374D02*
X019530Y035374D01*
X019488Y035416D02*
X019004Y035416D01*
X019046Y035458D02*
X019446Y035458D01*
X019404Y035500D02*
X019088Y035500D01*
X019130Y035542D02*
X019362Y035542D01*
X019320Y035584D02*
X019172Y035584D01*
X019214Y035626D02*
X019278Y035626D01*
X021119Y033076D02*
X021672Y032523D01*
X021395Y032246D01*
X020842Y032799D01*
X021119Y033076D01*
X021353Y032288D02*
X021437Y032288D01*
X021479Y032330D02*
X021311Y032330D01*
X021269Y032372D02*
X021521Y032372D01*
X021563Y032414D02*
X021227Y032414D01*
X021185Y032456D02*
X021605Y032456D01*
X021647Y032498D02*
X021143Y032498D01*
X021101Y032540D02*
X021655Y032540D01*
X021613Y032582D02*
X021059Y032582D01*
X021017Y032624D02*
X021571Y032624D01*
X021529Y032666D02*
X020975Y032666D01*
X020933Y032708D02*
X021487Y032708D01*
X021445Y032750D02*
X020891Y032750D01*
X020849Y032792D02*
X021403Y032792D01*
X021361Y032834D02*
X020877Y032834D01*
X020919Y032876D02*
X021319Y032876D01*
X021277Y032918D02*
X020961Y032918D01*
X021003Y032960D02*
X021235Y032960D01*
X021193Y033002D02*
X021045Y033002D01*
X021087Y033044D02*
X021151Y033044D01*
X020764Y032721D02*
X021317Y032168D01*
X021040Y031891D01*
X020487Y032444D01*
X020764Y032721D01*
X020998Y031933D02*
X021082Y031933D01*
X021124Y031975D02*
X020956Y031975D01*
X020914Y032017D02*
X021166Y032017D01*
X021208Y032059D02*
X020872Y032059D01*
X020830Y032101D02*
X021250Y032101D01*
X021292Y032143D02*
X020788Y032143D01*
X020746Y032185D02*
X021300Y032185D01*
X021258Y032227D02*
X020704Y032227D01*
X020662Y032269D02*
X021216Y032269D01*
X021174Y032311D02*
X020620Y032311D01*
X020578Y032353D02*
X021132Y032353D01*
X021090Y032395D02*
X020536Y032395D01*
X020494Y032437D02*
X021048Y032437D01*
X021006Y032479D02*
X020522Y032479D01*
X020564Y032521D02*
X020964Y032521D01*
X020922Y032563D02*
X020606Y032563D01*
X020648Y032605D02*
X020880Y032605D01*
X020838Y032647D02*
X020690Y032647D01*
X020732Y032689D02*
X020796Y032689D01*
X021473Y033431D02*
X022026Y032878D01*
X021749Y032601D01*
X021196Y033154D01*
X021473Y033431D01*
X021707Y032643D02*
X021791Y032643D01*
X021833Y032685D02*
X021665Y032685D01*
X021623Y032727D02*
X021875Y032727D01*
X021917Y032769D02*
X021581Y032769D01*
X021539Y032811D02*
X021959Y032811D01*
X022001Y032853D02*
X021497Y032853D01*
X021455Y032895D02*
X022009Y032895D01*
X021967Y032937D02*
X021413Y032937D01*
X021371Y032979D02*
X021925Y032979D01*
X021883Y033021D02*
X021329Y033021D01*
X021287Y033063D02*
X021841Y033063D01*
X021799Y033105D02*
X021245Y033105D01*
X021203Y033147D02*
X021757Y033147D01*
X021715Y033189D02*
X021231Y033189D01*
X021273Y033231D02*
X021673Y033231D01*
X021631Y033273D02*
X021315Y033273D01*
X021357Y033315D02*
X021589Y033315D01*
X021547Y033357D02*
X021399Y033357D01*
X021441Y033399D02*
X021505Y033399D01*
D23*
X021774Y034875D02*
X021243Y035406D01*
X021774Y034875D02*
X021297Y034398D01*
X020766Y034929D01*
X021243Y035406D01*
X021223Y034472D02*
X021371Y034472D01*
X021445Y034546D02*
X021149Y034546D01*
X021075Y034620D02*
X021519Y034620D01*
X021593Y034694D02*
X021001Y034694D01*
X020927Y034768D02*
X021667Y034768D01*
X021741Y034842D02*
X020853Y034842D01*
X020779Y034916D02*
X021733Y034916D01*
X021659Y034990D02*
X020827Y034990D01*
X020901Y035064D02*
X021585Y035064D01*
X021511Y035138D02*
X020975Y035138D01*
X021049Y035212D02*
X021437Y035212D01*
X021363Y035286D02*
X021123Y035286D01*
X021197Y035360D02*
X021289Y035360D01*
X018988Y033151D02*
X019519Y032620D01*
X019042Y032143D01*
X018511Y032674D01*
X018988Y033151D01*
X018968Y032217D02*
X019116Y032217D01*
X019190Y032291D02*
X018894Y032291D01*
X018820Y032365D02*
X019264Y032365D01*
X019338Y032439D02*
X018746Y032439D01*
X018672Y032513D02*
X019412Y032513D01*
X019486Y032587D02*
X018598Y032587D01*
X018524Y032661D02*
X019478Y032661D01*
X019404Y032735D02*
X018572Y032735D01*
X018646Y032809D02*
X019330Y032809D01*
X019256Y032883D02*
X018720Y032883D01*
X018794Y032957D02*
X019182Y032957D01*
X019108Y033031D02*
X018868Y033031D01*
X018942Y033105D02*
X019034Y033105D01*
D24*
X019614Y033246D03*
D25*
X020672Y034304D03*
D26*
X023037Y020625D03*
X023037Y020487D03*
X023037Y020212D03*
X023037Y020074D03*
X023037Y008499D03*
X023037Y008361D03*
X023037Y008086D03*
X023037Y007948D03*
X004730Y006157D03*
X003548Y006157D03*
D27*
X005182Y038578D03*
X023982Y038578D03*
D28*
X025998Y026869D02*
X025998Y026625D01*
X025998Y026869D02*
X026492Y026869D01*
X026492Y026625D01*
X025998Y026625D01*
X025998Y026670D02*
X026492Y026670D01*
X026492Y026715D02*
X025998Y026715D01*
X025998Y026760D02*
X026492Y026760D01*
X026492Y026805D02*
X025998Y026805D01*
X025998Y026850D02*
X026492Y026850D01*
X025998Y026515D02*
X025998Y026271D01*
X025998Y026515D02*
X026492Y026515D01*
X026492Y026271D01*
X025998Y026271D01*
X025998Y026316D02*
X026492Y026316D01*
X026492Y026361D02*
X025998Y026361D01*
X025998Y026406D02*
X026492Y026406D01*
X026492Y026451D02*
X025998Y026451D01*
X025998Y026496D02*
X026492Y026496D01*
D29*
X022584Y026294D03*
X022584Y002279D03*
X006167Y002279D03*
X006167Y026098D03*
D30*
X023037Y020615D02*
X023037Y020084D01*
X023037Y008489D02*
X023037Y007958D01*
D31*
X009050Y031914D02*
X009050Y032486D01*
X009582Y032486D01*
X009582Y031914D01*
X009050Y031914D01*
X009050Y031972D02*
X009582Y031972D01*
X009582Y032030D02*
X009050Y032030D01*
X009050Y032088D02*
X009582Y032088D01*
X009582Y032146D02*
X009050Y032146D01*
X009050Y032204D02*
X009582Y032204D01*
X009582Y032262D02*
X009050Y032262D01*
X009050Y032320D02*
X009582Y032320D01*
X009582Y032378D02*
X009050Y032378D01*
X009050Y032436D02*
X009582Y032436D01*
X009050Y034985D02*
X009050Y035557D01*
X009582Y035557D01*
X009582Y034985D01*
X009050Y034985D01*
X009050Y035043D02*
X009582Y035043D01*
X009582Y035101D02*
X009050Y035101D01*
X009050Y035159D02*
X009582Y035159D01*
X009582Y035217D02*
X009050Y035217D01*
X009050Y035275D02*
X009582Y035275D01*
X009582Y035333D02*
X009050Y035333D01*
X009050Y035391D02*
X009582Y035391D01*
X009582Y035449D02*
X009050Y035449D01*
X009050Y035507D02*
X009582Y035507D01*
X007023Y033195D02*
X007023Y032623D01*
X006491Y032623D01*
X006491Y033195D01*
X007023Y033195D01*
X007023Y032681D02*
X006491Y032681D01*
X006491Y032739D02*
X007023Y032739D01*
X007023Y032797D02*
X006491Y032797D01*
X006491Y032855D02*
X007023Y032855D01*
X007023Y032913D02*
X006491Y032913D01*
X006491Y032971D02*
X007023Y032971D01*
X007023Y033029D02*
X006491Y033029D01*
X006491Y033087D02*
X007023Y033087D01*
X007023Y033145D02*
X006491Y033145D01*
X007023Y030124D02*
X007023Y029552D01*
X006491Y029552D01*
X006491Y030124D01*
X007023Y030124D01*
X007023Y029610D02*
X006491Y029610D01*
X006491Y029668D02*
X007023Y029668D01*
X007023Y029726D02*
X006491Y029726D01*
X006491Y029784D02*
X007023Y029784D01*
X007023Y029842D02*
X006491Y029842D01*
X006491Y029900D02*
X007023Y029900D01*
X007023Y029958D02*
X006491Y029958D01*
X006491Y030016D02*
X007023Y030016D01*
X007023Y030074D02*
X006491Y030074D01*
M02*
