G75*
G70*
%OFA0B0*%
%FSLAX24Y24*%
%IPPOS*%
%LPD*%
%AMOC8*
5,1,8,0,0,1.08239X$1,22.5*
%
%ADD10C,0.0034*%
%ADD11C,0.0035*%
%ADD12R,0.1024X0.0591*%
%ADD13C,0.0036*%
%ADD14C,0.0035*%
%ADD15C,0.0067*%
D10*
X002738Y004908D02*
X002738Y005134D01*
X003264Y005134D01*
X003264Y004908D01*
X002738Y004908D01*
X002738Y004941D02*
X003264Y004941D01*
X003264Y004974D02*
X002738Y004974D01*
X002738Y005007D02*
X003264Y005007D01*
X003264Y005040D02*
X002738Y005040D01*
X002738Y005073D02*
X003264Y005073D01*
X003264Y005106D02*
X002738Y005106D01*
X002738Y006408D02*
X002738Y006634D01*
X003264Y006634D01*
X003264Y006408D01*
X002738Y006408D01*
X002738Y006441D02*
X003264Y006441D01*
X003264Y006474D02*
X002738Y006474D01*
X002738Y006507D02*
X003264Y006507D01*
X003264Y006540D02*
X002738Y006540D01*
X002738Y006573D02*
X003264Y006573D01*
X003264Y006606D02*
X002738Y006606D01*
X004738Y006634D02*
X004738Y006408D01*
X004738Y006634D02*
X005264Y006634D01*
X005264Y006408D01*
X004738Y006408D01*
X004738Y006441D02*
X005264Y006441D01*
X005264Y006474D02*
X004738Y006474D01*
X004738Y006507D02*
X005264Y006507D01*
X005264Y006540D02*
X004738Y006540D01*
X004738Y006573D02*
X005264Y006573D01*
X005264Y006606D02*
X004738Y006606D01*
X004738Y005134D02*
X004738Y004908D01*
X004738Y005134D02*
X005264Y005134D01*
X005264Y004908D01*
X004738Y004908D01*
X004738Y004941D02*
X005264Y004941D01*
X005264Y004974D02*
X004738Y004974D01*
X004738Y005007D02*
X005264Y005007D01*
X005264Y005040D02*
X004738Y005040D01*
X004738Y005073D02*
X005264Y005073D01*
X005264Y005106D02*
X004738Y005106D01*
X008256Y031411D02*
X008482Y031411D01*
X008482Y030885D01*
X008256Y030885D01*
X008256Y031411D01*
X008256Y030918D02*
X008482Y030918D01*
X008482Y030951D02*
X008256Y030951D01*
X008256Y030984D02*
X008482Y030984D01*
X008482Y031017D02*
X008256Y031017D01*
X008256Y031050D02*
X008482Y031050D01*
X008482Y031083D02*
X008256Y031083D01*
X008256Y031116D02*
X008482Y031116D01*
X008482Y031149D02*
X008256Y031149D01*
X008256Y031182D02*
X008482Y031182D01*
X008482Y031215D02*
X008256Y031215D01*
X008256Y031248D02*
X008482Y031248D01*
X008482Y031281D02*
X008256Y031281D01*
X008256Y031314D02*
X008482Y031314D01*
X008482Y031347D02*
X008256Y031347D01*
X008256Y031380D02*
X008482Y031380D01*
X008482Y033411D02*
X008256Y033411D01*
X008482Y033411D02*
X008482Y032885D01*
X008256Y032885D01*
X008256Y033411D01*
X008256Y032918D02*
X008482Y032918D01*
X008482Y032951D02*
X008256Y032951D01*
X008256Y032984D02*
X008482Y032984D01*
X008482Y033017D02*
X008256Y033017D01*
X008256Y033050D02*
X008482Y033050D01*
X008482Y033083D02*
X008256Y033083D01*
X008256Y033116D02*
X008482Y033116D01*
X008482Y033149D02*
X008256Y033149D01*
X008256Y033182D02*
X008482Y033182D01*
X008482Y033215D02*
X008256Y033215D01*
X008256Y033248D02*
X008482Y033248D01*
X008482Y033281D02*
X008256Y033281D01*
X008256Y033314D02*
X008482Y033314D01*
X008482Y033347D02*
X008256Y033347D01*
X008256Y033380D02*
X008482Y033380D01*
X009756Y033411D02*
X009982Y033411D01*
X009982Y032885D01*
X009756Y032885D01*
X009756Y033411D01*
X009756Y032918D02*
X009982Y032918D01*
X009982Y032951D02*
X009756Y032951D01*
X009756Y032984D02*
X009982Y032984D01*
X009982Y033017D02*
X009756Y033017D01*
X009756Y033050D02*
X009982Y033050D01*
X009982Y033083D02*
X009756Y033083D01*
X009756Y033116D02*
X009982Y033116D01*
X009982Y033149D02*
X009756Y033149D01*
X009756Y033182D02*
X009982Y033182D01*
X009982Y033215D02*
X009756Y033215D01*
X009756Y033248D02*
X009982Y033248D01*
X009982Y033281D02*
X009756Y033281D01*
X009756Y033314D02*
X009982Y033314D01*
X009982Y033347D02*
X009756Y033347D01*
X009756Y033380D02*
X009982Y033380D01*
X009982Y031411D02*
X009756Y031411D01*
X009982Y031411D02*
X009982Y030885D01*
X009756Y030885D01*
X009756Y031411D01*
X009756Y030918D02*
X009982Y030918D01*
X009982Y030951D02*
X009756Y030951D01*
X009756Y030984D02*
X009982Y030984D01*
X009982Y031017D02*
X009756Y031017D01*
X009756Y031050D02*
X009982Y031050D01*
X009982Y031083D02*
X009756Y031083D01*
X009756Y031116D02*
X009982Y031116D01*
X009982Y031149D02*
X009756Y031149D01*
X009756Y031182D02*
X009982Y031182D01*
X009982Y031215D02*
X009756Y031215D01*
X009756Y031248D02*
X009982Y031248D01*
X009982Y031281D02*
X009756Y031281D01*
X009756Y031314D02*
X009982Y031314D01*
X009982Y031347D02*
X009756Y031347D01*
X009756Y031380D02*
X009982Y031380D01*
X010150Y036136D02*
X010376Y036136D01*
X010376Y035610D01*
X010150Y035610D01*
X010150Y036136D01*
X010150Y035643D02*
X010376Y035643D01*
X010376Y035676D02*
X010150Y035676D01*
X010150Y035709D02*
X010376Y035709D01*
X010376Y035742D02*
X010150Y035742D01*
X010150Y035775D02*
X010376Y035775D01*
X010376Y035808D02*
X010150Y035808D01*
X010150Y035841D02*
X010376Y035841D01*
X010376Y035874D02*
X010150Y035874D01*
X010150Y035907D02*
X010376Y035907D01*
X010376Y035940D02*
X010150Y035940D01*
X010150Y035973D02*
X010376Y035973D01*
X010376Y036006D02*
X010150Y036006D01*
X010150Y036039D02*
X010376Y036039D01*
X010376Y036072D02*
X010150Y036072D01*
X010150Y036105D02*
X010376Y036105D01*
X010376Y038136D02*
X010150Y038136D01*
X010376Y038136D02*
X010376Y037610D01*
X010150Y037610D01*
X010150Y038136D01*
X010150Y037643D02*
X010376Y037643D01*
X010376Y037676D02*
X010150Y037676D01*
X010150Y037709D02*
X010376Y037709D01*
X010376Y037742D02*
X010150Y037742D01*
X010150Y037775D02*
X010376Y037775D01*
X010376Y037808D02*
X010150Y037808D01*
X010150Y037841D02*
X010376Y037841D01*
X010376Y037874D02*
X010150Y037874D01*
X010150Y037907D02*
X010376Y037907D01*
X010376Y037940D02*
X010150Y037940D01*
X010150Y037973D02*
X010376Y037973D01*
X010376Y038006D02*
X010150Y038006D01*
X010150Y038039D02*
X010376Y038039D01*
X010376Y038072D02*
X010150Y038072D01*
X010150Y038105D02*
X010376Y038105D01*
X008876Y038136D02*
X008650Y038136D01*
X008876Y038136D02*
X008876Y037610D01*
X008650Y037610D01*
X008650Y038136D01*
X008650Y037643D02*
X008876Y037643D01*
X008876Y037676D02*
X008650Y037676D01*
X008650Y037709D02*
X008876Y037709D01*
X008876Y037742D02*
X008650Y037742D01*
X008650Y037775D02*
X008876Y037775D01*
X008876Y037808D02*
X008650Y037808D01*
X008650Y037841D02*
X008876Y037841D01*
X008876Y037874D02*
X008650Y037874D01*
X008650Y037907D02*
X008876Y037907D01*
X008876Y037940D02*
X008650Y037940D01*
X008650Y037973D02*
X008876Y037973D01*
X008876Y038006D02*
X008650Y038006D01*
X008650Y038039D02*
X008876Y038039D01*
X008876Y038072D02*
X008650Y038072D01*
X008650Y038105D02*
X008876Y038105D01*
X007620Y038136D02*
X007394Y038136D01*
X007620Y038136D02*
X007620Y037610D01*
X007394Y037610D01*
X007394Y038136D01*
X007394Y037643D02*
X007620Y037643D01*
X007620Y037676D02*
X007394Y037676D01*
X007394Y037709D02*
X007620Y037709D01*
X007620Y037742D02*
X007394Y037742D01*
X007394Y037775D02*
X007620Y037775D01*
X007620Y037808D02*
X007394Y037808D01*
X007394Y037841D02*
X007620Y037841D01*
X007620Y037874D02*
X007394Y037874D01*
X007394Y037907D02*
X007620Y037907D01*
X007620Y037940D02*
X007394Y037940D01*
X007394Y037973D02*
X007620Y037973D01*
X007620Y038006D02*
X007394Y038006D01*
X007394Y038039D02*
X007620Y038039D01*
X007620Y038072D02*
X007394Y038072D01*
X007394Y038105D02*
X007620Y038105D01*
X006120Y038136D02*
X005894Y038136D01*
X006120Y038136D02*
X006120Y037610D01*
X005894Y037610D01*
X005894Y038136D01*
X005894Y037643D02*
X006120Y037643D01*
X006120Y037676D02*
X005894Y037676D01*
X005894Y037709D02*
X006120Y037709D01*
X006120Y037742D02*
X005894Y037742D01*
X005894Y037775D02*
X006120Y037775D01*
X006120Y037808D02*
X005894Y037808D01*
X005894Y037841D02*
X006120Y037841D01*
X006120Y037874D02*
X005894Y037874D01*
X005894Y037907D02*
X006120Y037907D01*
X006120Y037940D02*
X005894Y037940D01*
X005894Y037973D02*
X006120Y037973D01*
X006120Y038006D02*
X005894Y038006D01*
X005894Y038039D02*
X006120Y038039D01*
X006120Y038072D02*
X005894Y038072D01*
X005894Y038105D02*
X006120Y038105D01*
X006120Y036136D02*
X005894Y036136D01*
X006120Y036136D02*
X006120Y035610D01*
X005894Y035610D01*
X005894Y036136D01*
X005894Y035643D02*
X006120Y035643D01*
X006120Y035676D02*
X005894Y035676D01*
X005894Y035709D02*
X006120Y035709D01*
X006120Y035742D02*
X005894Y035742D01*
X005894Y035775D02*
X006120Y035775D01*
X006120Y035808D02*
X005894Y035808D01*
X005894Y035841D02*
X006120Y035841D01*
X006120Y035874D02*
X005894Y035874D01*
X005894Y035907D02*
X006120Y035907D01*
X006120Y035940D02*
X005894Y035940D01*
X005894Y035973D02*
X006120Y035973D01*
X006120Y036006D02*
X005894Y036006D01*
X005894Y036039D02*
X006120Y036039D01*
X006120Y036072D02*
X005894Y036072D01*
X005894Y036105D02*
X006120Y036105D01*
X007394Y036136D02*
X007620Y036136D01*
X007620Y035610D01*
X007394Y035610D01*
X007394Y036136D01*
X007394Y035643D02*
X007620Y035643D01*
X007620Y035676D02*
X007394Y035676D01*
X007394Y035709D02*
X007620Y035709D01*
X007620Y035742D02*
X007394Y035742D01*
X007394Y035775D02*
X007620Y035775D01*
X007620Y035808D02*
X007394Y035808D01*
X007394Y035841D02*
X007620Y035841D01*
X007620Y035874D02*
X007394Y035874D01*
X007394Y035907D02*
X007620Y035907D01*
X007620Y035940D02*
X007394Y035940D01*
X007394Y035973D02*
X007620Y035973D01*
X007620Y036006D02*
X007394Y036006D01*
X007394Y036039D02*
X007620Y036039D01*
X007620Y036072D02*
X007394Y036072D01*
X007394Y036105D02*
X007620Y036105D01*
X008650Y036136D02*
X008876Y036136D01*
X008876Y035610D01*
X008650Y035610D01*
X008650Y036136D01*
X008650Y035643D02*
X008876Y035643D01*
X008876Y035676D02*
X008650Y035676D01*
X008650Y035709D02*
X008876Y035709D01*
X008876Y035742D02*
X008650Y035742D01*
X008650Y035775D02*
X008876Y035775D01*
X008876Y035808D02*
X008650Y035808D01*
X008650Y035841D02*
X008876Y035841D01*
X008876Y035874D02*
X008650Y035874D01*
X008650Y035907D02*
X008876Y035907D01*
X008876Y035940D02*
X008650Y035940D01*
X008650Y035973D02*
X008876Y035973D01*
X008876Y036006D02*
X008650Y036006D01*
X008650Y036039D02*
X008876Y036039D01*
X008876Y036072D02*
X008650Y036072D01*
X008650Y036105D02*
X008876Y036105D01*
X019280Y033411D02*
X019506Y033411D01*
X019506Y032885D01*
X019280Y032885D01*
X019280Y033411D01*
X019280Y032918D02*
X019506Y032918D01*
X019506Y032951D02*
X019280Y032951D01*
X019280Y032984D02*
X019506Y032984D01*
X019506Y033017D02*
X019280Y033017D01*
X019280Y033050D02*
X019506Y033050D01*
X019506Y033083D02*
X019280Y033083D01*
X019280Y033116D02*
X019506Y033116D01*
X019506Y033149D02*
X019280Y033149D01*
X019280Y033182D02*
X019506Y033182D01*
X019506Y033215D02*
X019280Y033215D01*
X019280Y033248D02*
X019506Y033248D01*
X019506Y033281D02*
X019280Y033281D01*
X019280Y033314D02*
X019506Y033314D01*
X019506Y033347D02*
X019280Y033347D01*
X019280Y033380D02*
X019506Y033380D01*
X020780Y033411D02*
X021006Y033411D01*
X021006Y032885D01*
X020780Y032885D01*
X020780Y033411D01*
X020780Y032918D02*
X021006Y032918D01*
X021006Y032951D02*
X020780Y032951D01*
X020780Y032984D02*
X021006Y032984D01*
X021006Y033017D02*
X020780Y033017D01*
X020780Y033050D02*
X021006Y033050D01*
X021006Y033083D02*
X020780Y033083D01*
X020780Y033116D02*
X021006Y033116D01*
X021006Y033149D02*
X020780Y033149D01*
X020780Y033182D02*
X021006Y033182D01*
X021006Y033215D02*
X020780Y033215D01*
X020780Y033248D02*
X021006Y033248D01*
X021006Y033281D02*
X020780Y033281D01*
X020780Y033314D02*
X021006Y033314D01*
X021006Y033347D02*
X020780Y033347D01*
X020780Y033380D02*
X021006Y033380D01*
X021006Y031411D02*
X020780Y031411D01*
X021006Y031411D02*
X021006Y030885D01*
X020780Y030885D01*
X020780Y031411D01*
X020780Y030918D02*
X021006Y030918D01*
X021006Y030951D02*
X020780Y030951D01*
X020780Y030984D02*
X021006Y030984D01*
X021006Y031017D02*
X020780Y031017D01*
X020780Y031050D02*
X021006Y031050D01*
X021006Y031083D02*
X020780Y031083D01*
X020780Y031116D02*
X021006Y031116D01*
X021006Y031149D02*
X020780Y031149D01*
X020780Y031182D02*
X021006Y031182D01*
X021006Y031215D02*
X020780Y031215D01*
X020780Y031248D02*
X021006Y031248D01*
X021006Y031281D02*
X020780Y031281D01*
X020780Y031314D02*
X021006Y031314D01*
X021006Y031347D02*
X020780Y031347D01*
X020780Y031380D02*
X021006Y031380D01*
X019506Y031411D02*
X019280Y031411D01*
X019506Y031411D02*
X019506Y030885D01*
X019280Y030885D01*
X019280Y031411D01*
X019280Y030918D02*
X019506Y030918D01*
X019506Y030951D02*
X019280Y030951D01*
X019280Y030984D02*
X019506Y030984D01*
X019506Y031017D02*
X019280Y031017D01*
X019280Y031050D02*
X019506Y031050D01*
X019506Y031083D02*
X019280Y031083D01*
X019280Y031116D02*
X019506Y031116D01*
X019506Y031149D02*
X019280Y031149D01*
X019280Y031182D02*
X019506Y031182D01*
X019506Y031215D02*
X019280Y031215D01*
X019280Y031248D02*
X019506Y031248D01*
X019506Y031281D02*
X019280Y031281D01*
X019280Y031314D02*
X019506Y031314D01*
X019506Y031347D02*
X019280Y031347D01*
X019280Y031380D02*
X019506Y031380D01*
D11*
X016027Y033406D02*
X016027Y033804D01*
X016307Y033804D01*
X016307Y033406D01*
X016027Y033406D01*
X016027Y033440D02*
X016307Y033440D01*
X016307Y033474D02*
X016027Y033474D01*
X016027Y033508D02*
X016307Y033508D01*
X016307Y033542D02*
X016027Y033542D01*
X016027Y033576D02*
X016307Y033576D01*
X016307Y033610D02*
X016027Y033610D01*
X016027Y033644D02*
X016307Y033644D01*
X016307Y033678D02*
X016027Y033678D01*
X016027Y033712D02*
X016307Y033712D01*
X016307Y033746D02*
X016027Y033746D01*
X016027Y033780D02*
X016307Y033780D01*
X016027Y034430D02*
X016027Y034828D01*
X016307Y034828D01*
X016307Y034430D01*
X016027Y034430D01*
X016027Y034464D02*
X016307Y034464D01*
X016307Y034498D02*
X016027Y034498D01*
X016027Y034532D02*
X016307Y034532D01*
X016307Y034566D02*
X016027Y034566D01*
X016027Y034600D02*
X016307Y034600D01*
X016307Y034634D02*
X016027Y034634D01*
X016027Y034668D02*
X016307Y034668D01*
X016307Y034702D02*
X016027Y034702D01*
X016027Y034736D02*
X016307Y034736D01*
X016307Y034770D02*
X016027Y034770D01*
X016027Y034804D02*
X016307Y034804D01*
X015318Y034828D02*
X015318Y034430D01*
X015318Y034828D02*
X015598Y034828D01*
X015598Y034430D01*
X015318Y034430D01*
X015318Y034464D02*
X015598Y034464D01*
X015598Y034498D02*
X015318Y034498D01*
X015318Y034532D02*
X015598Y034532D01*
X015598Y034566D02*
X015318Y034566D01*
X015318Y034600D02*
X015598Y034600D01*
X015598Y034634D02*
X015318Y034634D01*
X015318Y034668D02*
X015598Y034668D01*
X015598Y034702D02*
X015318Y034702D01*
X015318Y034736D02*
X015598Y034736D01*
X015598Y034770D02*
X015318Y034770D01*
X015318Y034804D02*
X015598Y034804D01*
X015318Y033804D02*
X015318Y033406D01*
X015318Y033804D02*
X015598Y033804D01*
X015598Y033406D01*
X015318Y033406D01*
X015318Y033440D02*
X015598Y033440D01*
X015598Y033474D02*
X015318Y033474D01*
X015318Y033508D02*
X015598Y033508D01*
X015598Y033542D02*
X015318Y033542D01*
X015318Y033576D02*
X015598Y033576D01*
X015598Y033610D02*
X015318Y033610D01*
X015318Y033644D02*
X015598Y033644D01*
X015598Y033678D02*
X015318Y033678D01*
X015318Y033712D02*
X015598Y033712D01*
X015598Y033746D02*
X015318Y033746D01*
X015318Y033780D02*
X015598Y033780D01*
X013664Y033804D02*
X013664Y033406D01*
X013664Y033804D02*
X013944Y033804D01*
X013944Y033406D01*
X013664Y033406D01*
X013664Y033440D02*
X013944Y033440D01*
X013944Y033474D02*
X013664Y033474D01*
X013664Y033508D02*
X013944Y033508D01*
X013944Y033542D02*
X013664Y033542D01*
X013664Y033576D02*
X013944Y033576D01*
X013944Y033610D02*
X013664Y033610D01*
X013664Y033644D02*
X013944Y033644D01*
X013944Y033678D02*
X013664Y033678D01*
X013664Y033712D02*
X013944Y033712D01*
X013944Y033746D02*
X013664Y033746D01*
X013664Y033780D02*
X013944Y033780D01*
X013664Y034430D02*
X013664Y034828D01*
X013944Y034828D01*
X013944Y034430D01*
X013664Y034430D01*
X013664Y034464D02*
X013944Y034464D01*
X013944Y034498D02*
X013664Y034498D01*
X013664Y034532D02*
X013944Y034532D01*
X013944Y034566D02*
X013664Y034566D01*
X013664Y034600D02*
X013944Y034600D01*
X013944Y034634D02*
X013664Y034634D01*
X013664Y034668D02*
X013944Y034668D01*
X013944Y034702D02*
X013664Y034702D01*
X013664Y034736D02*
X013944Y034736D01*
X013944Y034770D02*
X013664Y034770D01*
X013664Y034804D02*
X013944Y034804D01*
X012956Y034828D02*
X012956Y034430D01*
X012956Y034828D02*
X013236Y034828D01*
X013236Y034430D01*
X012956Y034430D01*
X012956Y034464D02*
X013236Y034464D01*
X013236Y034498D02*
X012956Y034498D01*
X012956Y034532D02*
X013236Y034532D01*
X013236Y034566D02*
X012956Y034566D01*
X012956Y034600D02*
X013236Y034600D01*
X013236Y034634D02*
X012956Y034634D01*
X012956Y034668D02*
X013236Y034668D01*
X013236Y034702D02*
X012956Y034702D01*
X012956Y034736D02*
X013236Y034736D01*
X013236Y034770D02*
X012956Y034770D01*
X012956Y034804D02*
X013236Y034804D01*
X012956Y033804D02*
X012956Y033406D01*
X012956Y033804D02*
X013236Y033804D01*
X013236Y033406D01*
X012956Y033406D01*
X012956Y033440D02*
X013236Y033440D01*
X013236Y033474D02*
X012956Y033474D01*
X012956Y033508D02*
X013236Y033508D01*
X013236Y033542D02*
X012956Y033542D01*
X012956Y033576D02*
X013236Y033576D01*
X013236Y033610D02*
X012956Y033610D01*
X012956Y033644D02*
X013236Y033644D01*
X013236Y033678D02*
X012956Y033678D01*
X012956Y033712D02*
X013236Y033712D01*
X013236Y033746D02*
X012956Y033746D01*
X012956Y033780D02*
X013236Y033780D01*
D12*
X024671Y004393D03*
X024671Y003211D03*
D13*
X012980Y001520D02*
X012980Y000888D01*
X012742Y000888D01*
X012742Y001520D01*
X012980Y001520D01*
X012980Y000923D02*
X012742Y000923D01*
X012742Y000958D02*
X012980Y000958D01*
X012980Y000993D02*
X012742Y000993D01*
X012742Y001028D02*
X012980Y001028D01*
X012980Y001063D02*
X012742Y001063D01*
X012742Y001098D02*
X012980Y001098D01*
X012980Y001133D02*
X012742Y001133D01*
X012742Y001168D02*
X012980Y001168D01*
X012980Y001203D02*
X012742Y001203D01*
X012742Y001238D02*
X012980Y001238D01*
X012980Y001273D02*
X012742Y001273D01*
X012742Y001308D02*
X012980Y001308D01*
X012980Y001343D02*
X012742Y001343D01*
X012742Y001378D02*
X012980Y001378D01*
X012980Y001413D02*
X012742Y001413D01*
X012742Y001448D02*
X012980Y001448D01*
X012980Y001483D02*
X012742Y001483D01*
X012742Y001518D02*
X012980Y001518D01*
X012480Y001520D02*
X012480Y000888D01*
X012242Y000888D01*
X012242Y001520D01*
X012480Y001520D01*
X012480Y000923D02*
X012242Y000923D01*
X012242Y000958D02*
X012480Y000958D01*
X012480Y000993D02*
X012242Y000993D01*
X012242Y001028D02*
X012480Y001028D01*
X012480Y001063D02*
X012242Y001063D01*
X012242Y001098D02*
X012480Y001098D01*
X012480Y001133D02*
X012242Y001133D01*
X012242Y001168D02*
X012480Y001168D01*
X012480Y001203D02*
X012242Y001203D01*
X012242Y001238D02*
X012480Y001238D01*
X012480Y001273D02*
X012242Y001273D01*
X012242Y001308D02*
X012480Y001308D01*
X012480Y001343D02*
X012242Y001343D01*
X012242Y001378D02*
X012480Y001378D01*
X012480Y001413D02*
X012242Y001413D01*
X012242Y001448D02*
X012480Y001448D01*
X012480Y001483D02*
X012242Y001483D01*
X012242Y001518D02*
X012480Y001518D01*
X011980Y001520D02*
X011980Y000888D01*
X011742Y000888D01*
X011742Y001520D01*
X011980Y001520D01*
X011980Y000923D02*
X011742Y000923D01*
X011742Y000958D02*
X011980Y000958D01*
X011980Y000993D02*
X011742Y000993D01*
X011742Y001028D02*
X011980Y001028D01*
X011980Y001063D02*
X011742Y001063D01*
X011742Y001098D02*
X011980Y001098D01*
X011980Y001133D02*
X011742Y001133D01*
X011742Y001168D02*
X011980Y001168D01*
X011980Y001203D02*
X011742Y001203D01*
X011742Y001238D02*
X011980Y001238D01*
X011980Y001273D02*
X011742Y001273D01*
X011742Y001308D02*
X011980Y001308D01*
X011980Y001343D02*
X011742Y001343D01*
X011742Y001378D02*
X011980Y001378D01*
X011980Y001413D02*
X011742Y001413D01*
X011742Y001448D02*
X011980Y001448D01*
X011980Y001483D02*
X011742Y001483D01*
X011742Y001518D02*
X011980Y001518D01*
X011480Y001520D02*
X011480Y000888D01*
X011242Y000888D01*
X011242Y001520D01*
X011480Y001520D01*
X011480Y000923D02*
X011242Y000923D01*
X011242Y000958D02*
X011480Y000958D01*
X011480Y000993D02*
X011242Y000993D01*
X011242Y001028D02*
X011480Y001028D01*
X011480Y001063D02*
X011242Y001063D01*
X011242Y001098D02*
X011480Y001098D01*
X011480Y001133D02*
X011242Y001133D01*
X011242Y001168D02*
X011480Y001168D01*
X011480Y001203D02*
X011242Y001203D01*
X011242Y001238D02*
X011480Y001238D01*
X011480Y001273D02*
X011242Y001273D01*
X011242Y001308D02*
X011480Y001308D01*
X011480Y001343D02*
X011242Y001343D01*
X011242Y001378D02*
X011480Y001378D01*
X011480Y001413D02*
X011242Y001413D01*
X011242Y001448D02*
X011480Y001448D01*
X011480Y001483D02*
X011242Y001483D01*
X011242Y001518D02*
X011480Y001518D01*
X005774Y001262D02*
X005536Y001262D01*
X005536Y001500D01*
X005774Y001500D01*
X005774Y001262D01*
X005774Y001297D02*
X005536Y001297D01*
X005536Y001332D02*
X005774Y001332D01*
X005774Y001367D02*
X005536Y001367D01*
X005536Y001402D02*
X005774Y001402D01*
X005774Y001437D02*
X005536Y001437D01*
X005536Y001472D02*
X005774Y001472D01*
X005774Y001852D02*
X005536Y001852D01*
X005536Y002090D01*
X005774Y002090D01*
X005774Y001852D01*
X005774Y001887D02*
X005536Y001887D01*
X005536Y001922D02*
X005774Y001922D01*
X005774Y001957D02*
X005536Y001957D01*
X005536Y001992D02*
X005774Y001992D01*
X005774Y002027D02*
X005536Y002027D01*
X005536Y002062D02*
X005774Y002062D01*
X005262Y001852D02*
X005024Y001852D01*
X005024Y002090D01*
X005262Y002090D01*
X005262Y001852D01*
X005262Y001887D02*
X005024Y001887D01*
X005024Y001922D02*
X005262Y001922D01*
X005262Y001957D02*
X005024Y001957D01*
X005024Y001992D02*
X005262Y001992D01*
X005262Y002027D02*
X005024Y002027D01*
X005024Y002062D02*
X005262Y002062D01*
X005262Y001262D02*
X005024Y001262D01*
X005024Y001500D01*
X005262Y001500D01*
X005262Y001262D01*
X005262Y001297D02*
X005024Y001297D01*
X005024Y001332D02*
X005262Y001332D01*
X005262Y001367D02*
X005024Y001367D01*
X005024Y001402D02*
X005262Y001402D01*
X005262Y001437D02*
X005024Y001437D01*
X005024Y001472D02*
X005262Y001472D01*
D14*
X022238Y035475D02*
X021916Y035797D01*
X022238Y035475D02*
X022012Y035249D01*
X021690Y035571D01*
X021916Y035797D01*
X021978Y035283D02*
X022046Y035283D01*
X022080Y035317D02*
X021944Y035317D01*
X021910Y035351D02*
X022114Y035351D01*
X022148Y035385D02*
X021876Y035385D01*
X021842Y035419D02*
X022182Y035419D01*
X022216Y035453D02*
X021808Y035453D01*
X021774Y035487D02*
X022226Y035487D01*
X022192Y035521D02*
X021740Y035521D01*
X021706Y035555D02*
X022158Y035555D01*
X022124Y035589D02*
X021708Y035589D01*
X021742Y035623D02*
X022090Y035623D01*
X022056Y035657D02*
X021776Y035657D01*
X021810Y035691D02*
X022022Y035691D01*
X021988Y035725D02*
X021844Y035725D01*
X021878Y035759D02*
X021954Y035759D01*
X021920Y035793D02*
X021912Y035793D01*
X022271Y036152D02*
X022593Y035830D01*
X022367Y035604D01*
X022045Y035926D01*
X022271Y036152D01*
X022333Y035638D02*
X022401Y035638D01*
X022435Y035672D02*
X022299Y035672D01*
X022265Y035706D02*
X022469Y035706D01*
X022503Y035740D02*
X022231Y035740D01*
X022197Y035774D02*
X022537Y035774D01*
X022571Y035808D02*
X022163Y035808D01*
X022129Y035842D02*
X022581Y035842D01*
X022547Y035876D02*
X022095Y035876D01*
X022061Y035910D02*
X022513Y035910D01*
X022479Y035944D02*
X022063Y035944D01*
X022097Y035978D02*
X022445Y035978D01*
X022411Y036012D02*
X022131Y036012D01*
X022165Y036046D02*
X022377Y036046D01*
X022343Y036080D02*
X022199Y036080D01*
X022233Y036114D02*
X022309Y036114D01*
X022275Y036148D02*
X022267Y036148D01*
X022626Y036507D02*
X022948Y036185D01*
X022722Y035959D01*
X022400Y036281D01*
X022626Y036507D01*
X022688Y035993D02*
X022756Y035993D01*
X022790Y036027D02*
X022654Y036027D01*
X022620Y036061D02*
X022824Y036061D01*
X022858Y036095D02*
X022586Y036095D01*
X022552Y036129D02*
X022892Y036129D01*
X022926Y036163D02*
X022518Y036163D01*
X022484Y036197D02*
X022936Y036197D01*
X022902Y036231D02*
X022450Y036231D01*
X022416Y036265D02*
X022868Y036265D01*
X022834Y036299D02*
X022418Y036299D01*
X022452Y036333D02*
X022800Y036333D01*
X022766Y036367D02*
X022486Y036367D01*
X022520Y036401D02*
X022732Y036401D01*
X022698Y036435D02*
X022554Y036435D01*
X022588Y036469D02*
X022664Y036469D01*
X022630Y036503D02*
X022622Y036503D01*
X020958Y038175D02*
X020636Y038497D01*
X020958Y038175D02*
X020732Y037949D01*
X020410Y038271D01*
X020636Y038497D01*
X020698Y037983D02*
X020766Y037983D01*
X020800Y038017D02*
X020664Y038017D01*
X020630Y038051D02*
X020834Y038051D01*
X020868Y038085D02*
X020596Y038085D01*
X020562Y038119D02*
X020902Y038119D01*
X020936Y038153D02*
X020528Y038153D01*
X020494Y038187D02*
X020946Y038187D01*
X020912Y038221D02*
X020460Y038221D01*
X020426Y038255D02*
X020878Y038255D01*
X020844Y038289D02*
X020428Y038289D01*
X020462Y038323D02*
X020810Y038323D01*
X020776Y038357D02*
X020496Y038357D01*
X020530Y038391D02*
X020742Y038391D01*
X020708Y038425D02*
X020564Y038425D01*
X020598Y038459D02*
X020674Y038459D01*
X020640Y038493D02*
X020632Y038493D01*
X020281Y038142D02*
X020603Y037820D01*
X020377Y037594D01*
X020055Y037916D01*
X020281Y038142D01*
X020343Y037628D02*
X020411Y037628D01*
X020445Y037662D02*
X020309Y037662D01*
X020275Y037696D02*
X020479Y037696D01*
X020513Y037730D02*
X020241Y037730D01*
X020207Y037764D02*
X020547Y037764D01*
X020581Y037798D02*
X020173Y037798D01*
X020139Y037832D02*
X020591Y037832D01*
X020557Y037866D02*
X020105Y037866D01*
X020071Y037900D02*
X020523Y037900D01*
X020489Y037934D02*
X020073Y037934D01*
X020107Y037968D02*
X020455Y037968D01*
X020421Y038002D02*
X020141Y038002D01*
X020175Y038036D02*
X020387Y038036D01*
X020353Y038070D02*
X020209Y038070D01*
X020243Y038104D02*
X020319Y038104D01*
X020285Y038138D02*
X020277Y038138D01*
X019926Y037787D02*
X020248Y037465D01*
X020022Y037239D01*
X019700Y037561D01*
X019926Y037787D01*
X019988Y037273D02*
X020056Y037273D01*
X020090Y037307D02*
X019954Y037307D01*
X019920Y037341D02*
X020124Y037341D01*
X020158Y037375D02*
X019886Y037375D01*
X019852Y037409D02*
X020192Y037409D01*
X020226Y037443D02*
X019818Y037443D01*
X019784Y037477D02*
X020236Y037477D01*
X020202Y037511D02*
X019750Y037511D01*
X019716Y037545D02*
X020168Y037545D01*
X020134Y037579D02*
X019718Y037579D01*
X019752Y037613D02*
X020100Y037613D01*
X020066Y037647D02*
X019786Y037647D01*
X019820Y037681D02*
X020032Y037681D01*
X019998Y037715D02*
X019854Y037715D01*
X019888Y037749D02*
X019964Y037749D01*
X019930Y037783D02*
X019922Y037783D01*
D15*
X020170Y036198D02*
X020650Y035718D01*
X020224Y035292D01*
X019744Y035772D01*
X020170Y036198D01*
X020158Y035358D02*
X020290Y035358D01*
X020356Y035424D02*
X020092Y035424D01*
X020026Y035490D02*
X020422Y035490D01*
X020488Y035556D02*
X019960Y035556D01*
X019894Y035622D02*
X020554Y035622D01*
X020620Y035688D02*
X019828Y035688D01*
X019762Y035754D02*
X020614Y035754D01*
X020548Y035820D02*
X019792Y035820D01*
X019858Y035886D02*
X020482Y035886D01*
X020416Y035952D02*
X019924Y035952D01*
X019990Y036018D02*
X020350Y036018D01*
X020284Y036084D02*
X020056Y036084D01*
X020122Y036150D02*
X020218Y036150D01*
X022425Y038453D02*
X022905Y037973D01*
X022479Y037547D01*
X021999Y038027D01*
X022425Y038453D01*
X022413Y037613D02*
X022545Y037613D01*
X022611Y037679D02*
X022347Y037679D01*
X022281Y037745D02*
X022677Y037745D01*
X022743Y037811D02*
X022215Y037811D01*
X022149Y037877D02*
X022809Y037877D01*
X022875Y037943D02*
X022083Y037943D01*
X022017Y038009D02*
X022869Y038009D01*
X022803Y038075D02*
X022047Y038075D01*
X022113Y038141D02*
X022737Y038141D01*
X022671Y038207D02*
X022179Y038207D01*
X022245Y038273D02*
X022605Y038273D01*
X022539Y038339D02*
X022311Y038339D01*
X022377Y038405D02*
X022473Y038405D01*
M02*
